<?xml version="1.0" encoding="utf-8"?>
<!-- Generator: Adobe Illustrator 24.1.1, SVG Export Plug-In . SVG Version: 6.00 Build 0)  -->
<svg version="1.1" id="Layer_1" xmlns="http://www.w3.org/2000/svg" xmlns:xlink="http://www.w3.org/1999/xlink" x="0px" y="0px"
	 viewBox="0 0 640 480" style="enable-background:new 0 0 640 480;" xml:space="preserve">
<style type="text/css">
	.st0{fill:#68B137;}
	.st1{fill:#F9FBF7;}
	.st2{fill:#E6F1DE;}
	.st3{fill:#BFDBAB;}
	.st4{fill:#A3CA88;}
	.st5{fill:#90C970;}
</style>
<g>
	<g>
		<path class="st0" d="M514.9,360.8c-130.1,0-260,0-389.7,0c0-80.7,0-161.2,0-241.6c130.1,0,260,0,389.7,0
			C514.9,199.9,514.9,280.4,514.9,360.8z"/>
		<path class="st1" d="M403,296.5c-14.5-1-29-1.4-43.4-3.1c-5.6-0.7-10.9-4.1-16.3-6.2c-2.6-0.2-5,1.8-7.6,0.9
			c-2.6,0.8-5.3,1.6-7.9,2.4c-1,1.3-1.9,2.7-3.7,1.1c-9.7,0.4-19.4,0.9-29.1,1.3c-5.5,0.2-10.9,0.5-16.4,0.7
			c-2.7,1.2-5.3,1.7-7.8-0.4c2.7-2.6,5.4-5.2,8.2-7.8c3.4-3.1,6.8-6.1,11.6-10.5c-18.8-12.1-34-26.8-57.4-30.7
			c5.8-5.1,11.3-3.9,16.4-4.5c5-0.6,9.8-2.1,16.6-3.6c-3.4-6.1-5.9-10.8-8.5-15.5c-0.9-0.8-1.3-2.5-3.1-1.5l-0.8-0.5
			c-0.1-0.7-0.2-1.4-0.3-2.1c0.6-0.4,1.2-0.7,1.8-1.1c1.5-0.6,3-1.1,5.2-2c-1.3-4.4-2.4-8.2-3.8-13c1.5-0.6,3.4-1.5,4.6-1.9
			c-3.9-6.6-6.7-11.5-9.6-16.4c0-2.5-1.8-6.1,3.3-5.7c4.9,5.4,9.8,10.7,14.5,15.9c4.3-0.8,7.1-1.4,10.9-2.1
			c3.4,5.3,7.1,12.1,16.5,8.1c1.8,3.1,3.6,6,5.3,8.9c6.3,1.2,2.4-3.5,3.1-5.5c-1.9-12.5-8.5-24-6.9-38.1c2.5,3.5,5,7,6.9,9.7
			c5.8,0,10,0,15.3,0c2.2-5.7,4.2-11.2,6.5-17.2c1.9-1.1,4.5-2.5,8.2-4.6c1.4-6.5,2.9-13.5,4.6-21.5c6.8,6.9,4.4,16.4,8.7,24.2
			c2,0.5,4.3,1.2,6.7,1.8c1.3,5.3,2.5,10.7,3.7,15.5c9.9,6.9,17.5,3,25.2-4.5c0.2,16.4-13.1,27.7-11,45.3c4-4.5,6.6-7.5,9.3-10.5
			c1.6,0,3.3,0,5,0c1.9-0.8,4-0.7,5.9-1.5c1.8-1.8,3.7-3.5,6.2-6c12.9,1.6,19.9-8.4,28.6-18.3c2.8,11-3.1,16.9-9.4,22.7
			c1.9,8,3.8,15.8,5.9,24.5c-4.1,3.9-11.7,7.2-10.3,17.8c9.3,2.1,19,4.3,31.7,7.2c-12.3,4.6-21.9,7.5-30.7,11.7
			c-9.2,4.4-17.7,10.1-26.5,15.3c2.9,9.8,10.3,13.6,17,18.1C406.6,295.9,405.6,296.9,403,296.5z"/>
		<path class="st2" d="M213.7,331.3c-13.2,3.6-26.5,6.8-39.6,10.8c-11.4,3.4-22.7,7.6-34,11.5c-3.2,1.1-6.3,2.1-10.2,3.4
			c-0.7-2.3-1.1-3.9-1.6-5.4c0.7-3.2,3.3-2.3,5.3-2.5c22.1-8.5,44.7-15.3,67.9-19.6c1.6-0.3,3.4,0.1,5,0.2c1.5-0.1,2.5-1.1,3.8-1.6
			c1-0.2,1.9-0.3,2.9-0.5C215.4,328.7,215.5,329.9,213.7,331.3z"/>
		<path class="st2" d="M335.6,288c2.2-3.1,4.8-3.3,7.6-0.9c-4.8,9.5-1.7,18.9-0.2,29.1c10.9,0.4,21.1,0.7,31.3,1.1
			c0.7,0.5,0.9,1,0.8,1.6c-0.2,0.6-0.4,0.9-0.6,0.9c-25,0.5-50.1,1.1-75.1,1.6c-1.8-1.4-1.8-2.8-0.1-4.2c10.6,0,21.2,0,31.9,0
			C337.8,307.5,335.5,297.6,335.6,288z"/>
		<path class="st3" d="M374.6,319.7c-0.1-0.8-0.2-1.6-0.2-2.4c8.7,0.6,17.4,1.2,26,1.7c1-0.7,2-0.6,2.9,0.2c1.6,0.2,3.3,0.3,4.9,0.5
			c0.7,0.6,0.9,1.2,0.7,1.8c-0.2,0.6-0.4,1-0.6,1c-8.5-0.2-17-0.3-25.5-0.8C380.1,321.5,377.4,320.4,374.6,319.7z"/>
		<path class="st4" d="M460.4,329.9c-10.7,0.1-21.1-1.7-31.2-5.2c-0.7-0.3-1.4-0.7-2.1-1c0.6-0.4,1.3-0.9,1.9-1.3
			c10.4,1.7,20.8,3.3,31.3,5c0.7,0.5,0.9,1.1,0.7,1.6C460.8,329.6,460.6,329.9,460.4,329.9z"/>
		<path class="st5" d="M460.4,329.9c0-0.8,0-1.6-0.1-2.5c9.8,2.4,19.7,4.8,32.2,7.9C482.5,337,472.5,334.9,460.4,329.9z"/>
		<path class="st2" d="M223.5,325.7c7.1-1.1,14.1-2.2,21.2-3.2c1.4,1.3,1.4,2.5,0,3.8c-7,1.1-14,2.2-21,3.3
			C221.6,328.4,221.5,327.1,223.5,325.7z"/>
		<path class="st1" d="M291.2,321.5c-5,0.3-9.9,0.6-14.9,1c-2.6,0.5-5.9,2.1-5.5-3c6.7-0.6,13.4-1.1,20.1-1.7
			C292.9,318.9,292.9,320.2,291.2,321.5z"/>
		<path class="st1" d="M244.7,326.3c0-1.3,0-2.5,0-3.8c6.1-0.8,12.2-1.6,18.3-2.4c0.9,1.5,0.8,2.9-0.3,4.2
			C256.7,324.9,250.7,325.6,244.7,326.3z"/>
		<path class="st3" d="M262.6,324.3c0.1-1.4,0.2-2.8,0.3-4.2c2.6-0.2,5.2-0.4,7.8-0.6c1.8,1,3.7,2,5.5,3
			C271.7,323.1,267.2,323.7,262.6,324.3z"/>
		<path class="st4" d="M408.4,322.4c-0.1-0.9-0.1-1.8-0.2-2.8c3.6,0.7,7.2,1.4,10.8,2.1c-0.5,1.2-1.3,2-2.5,2.4
			C413.8,323.6,411.1,323,408.4,322.4z"/>
		<path class="st3" d="M291.2,321.5c-0.1-1.2-0.2-2.5-0.3-3.7c2.8-0.3,5.7-0.5,8.5-0.8c0,1.4,0.1,2.8,0.1,4.2
			C296.7,321.4,293.9,321.5,291.2,321.5z"/>
		<path class="st3" d="M254.8,176.4c-1.1,1.9-2.2,3.8-3.3,5.7c-0.7-3.1-1.3-6.1-2-9.2c0.7-0.3,1.4-0.6,2.1-0.9
			C252.7,173.5,253.7,175,254.8,176.4z"/>
		<path class="st3" d="M416.5,324.1c0.8-0.8,1.7-1.6,2.5-2.4c3.3,0.2,6.7,0.4,10,0.6c0.1,0.8,0.1,1.5,0.2,2.3
			C424.9,324.5,420.7,324.3,416.5,324.1z"/>
		<path class="st4" d="M305.2,201.7c0.5,2.2,1.1,4.5,2.2,9.2c-3.2-2.2-4.3-2.9-5.3-3.7C303.2,205.3,304.2,203.5,305.2,201.7z"/>
		<path class="st1" d="M223.5,325.7c0.1,1.3,0.2,2.6,0.2,3.8c-3.4,0.6-6.7,1.1-10.1,1.7c-0.1-1.3-0.1-2.5-0.2-3.8
			C216.8,326.9,220.2,326.3,223.5,325.7z"/>
		<path class="st4" d="M403,296.5c1-1.1,1.9-2.1,2.9-3.2c1,1,1.9,2,2.9,3.1c-0.3,0.5-0.6,1.1-0.9,1.6
			C406.2,297.5,404.6,297,403,296.5z"/>
		<path class="st5" d="M270.6,293.3c2.6,0.1,5.2,0.3,7.8,0.4C275.7,296.2,273,297.4,270.6,293.3z"/>
		<path class="st5" d="M133.7,349.1c-1.8,0.8-3.6,1.6-5.3,2.5C128.9,348,131.3,348.6,133.7,349.1z"/>
		<path class="st5" d="M393.4,200.1c-2,0.5-3.9,1-5.9,1.5C389.4,201.2,391.4,200.7,393.4,200.1z"/>
		<path class="st3" d="M255.1,215.5c-0.5,1.1-1,2.1-1.5,3.2c-1-0.6-1.9-1.1-4.7-2.7C252.3,215.7,253.7,215.6,255.1,215.5z"/>
		<path class="st1" d="M210.5,328c-1.3,0.5-2.6,1.1-3.8,1.6C208,329.1,209.3,328.5,210.5,328z"/>
		<path class="st5" d="M403.3,319.2c-1-0.1-1.9-0.1-2.9-0.2C401.4,319.1,402.3,319.1,403.3,319.2z"/>
		<path class="st3" d="M254.4,219.1c1,0.5,2,1,3.1,1.5C256.5,220.1,255.4,219.6,254.4,219.1z"/>
		<path class="st5" d="M324,291.6c1.2-0.4,2.5-0.7,3.7-1.1C326.5,290.9,325.2,291.2,324,291.6z"/>
		<path class="st0" d="M374.8,218.2c2.4-0.6,4.8-1.2,7.3-1.8c1.9,0.3,3.9,0,5.8,0.9c8.7,2.5,14.4,8,15.1,17.2
			c0.6,9.6-4.6,16.3-12.7,20.8c-4.1,2.3-8.5,4-12.8,5.9c-1-0.7-1.8-1.6-2.3-2.8c-1.5-5.1,2.2-7.7,5.3-10.6c3.6-3.3,6.1-7.1,4-14.7
			c-1-4.3-10-3.3-11.5-10C372.8,221.2,373.3,219.5,374.8,218.2z"/>
		<path class="st0" d="M332.3,238.6c-1.1-2.7-2.7-5.4-3.4-8.2c-2.2-9.9,1.9-18.9,9.9-22.9c9.3-4.6,17-2.3,25.4,7.6
			c1.1,2,0.1,3.5-1.3,4.9c-7.8,2.2-16.4-0.3-23.8,4.2c-1.1,0-2.1-0.1-3.2,0.1c1.1,0.3,1.9,1,2.6,1.9c1,1.7,1.2,3.6,0.9,5.5
			C338.5,235.5,336,237.7,332.3,238.6z"/>
		<path class="st5" d="M377.2,257c0,1.4,0.1,2.8,0.1,4.3c-8.1,4-16.1,8-25.2,12.5c-4-7.5-7.9-14.6-11.7-21.8c0.6-1.1,1.4-2,2.6-2.6
			c6.7-2.6,9.9,4,15.9,5.9C364.2,258.3,371.7,248.6,377.2,257z"/>
		<path class="st5" d="M332.3,238.6c0.6-3.5,1.3-7,1.9-10.5c9.2,4,11.4,10.4,6.8,19.3c-0.8,0.3-1.5,0.5-2.3,0.8
			c-0.6-0.5-1.3-1-1.9-1.5C335.3,244,333.8,241.3,332.3,238.6z"/>
		<path class="st0" d="M336.8,246.7c1.4-0.1,2.7-0.1,4.1-0.2c4.1-0.2,4.1,2.2,3.2,5.2c-1.2,0.1-2.5,0.2-3.7,0.3
			C339.2,250.2,338,248.4,336.8,246.7z"/>
		<path class="st5" d="M362,217.7c0.8-0.8,1.6-1.7,2.3-2.5c1,1.6,1.9,3.2,2.9,4.7c0.6,1.2,0.4,2.3-0.7,3.2
			C362.6,223.3,360.5,222.1,362,217.7z"/>
		<path class="st4" d="M366,223.7c0.4-1.3,0.8-2.5,1.1-3.8c2.6-0.6,5.1-1.2,7.7-1.7c0,1.4,0.1,2.8,0.1,4.2c-0.5,2.1-2.1,2.9-4,3.4
			c-1.3,0-2.4-0.2-3.6-0.8C366.9,224.6,366.5,224.1,366,223.7z"/>
		<path class="st3" d="M387.8,217.3c-1.9-0.3-3.8-0.6-5.8-0.9C384,216.7,385.9,217,387.8,217.3z"/>
		<path class="st1" d="M370.8,223.3c1.4-0.3,2.8-0.6,4.1-0.9c2.6,0.1,5.2-0.4,7.6,0.3c12.6,3.3,16.6,16.6,7.5,25.9
			c-3.5,3.6-8.5,5.6-12.8,8.4c-7.4,3-14.8,6-22.8,9.2c-3.1-4.5-6.7-9.5-10.3-14.6c-1.1-1.7-2.2-3.5-3.2-5.2
			c-2.2-6.1-4.5-12.2-6.7-18.3c0.3-1.6,0.6-3.3,0.8-4.9c-0.5-1.1-0.2-1.9,0.8-2.6c10.5-9.9,13.6-10.2,26.1-2.9c1.3,2,2.7,4,4,6
			l0.5-0.3C368,224.6,369.4,223.5,370.8,223.3z"/>
		<path class="st5" d="M335.9,220.7c-0.3,0.9-0.6,1.7-0.8,2.6C335.3,222.4,335.6,221.5,335.9,220.7z"/>
		<path class="st5" d="M370.8,223.3c-0.7,0.8-1.5,1.6-2.5,2.7c-0.7-1-1.2-1.8-1.7-2.6C367.9,223.4,369.4,223.3,370.8,223.3z"/>
	</g>
</g>
</svg>
