<?xml version="1.0" encoding="UTF-8"?>
<svg viewBox="0 0 390 373" xmlns="http://www.w3.org/2000/svg">
 <path class="fil0" d="m67.165 130.01h31.777l4.8855 171.01-40.938 1e-3 4.2757-171.02v9.92e-4zm-29.949 177.16h315.33v22.003h18.894l-2e-3 22.004h18.323v22.001l-389.76-2e-3v-21.999h18.323v-22.004h18.892v-22.003h6.03e-4zm331.77-224.91l-174.11-82.256-174.12 82.256 0.0012 13.448 348.23 0.0011v-13.449zm-314.66 19.601h281.1v21.999h-281.1v-21.999zm235.88 28.149h31.777l4.886 171.02-40.937-2e-3 4.274-171.01zm-74.347 0l31.777 1e-3 4.887 171.01-40.939 1e-3 4.275-171.02v9.92e-4zm-74.347 0l31.776-2e-3 4.889 171.02h-40.94l4.275-171.01z" fill="#c3cf21" stroke-width="0"/>
</svg>
