<?xml version="1.0" encoding="utf-8"?>
<!-- Generator: Adobe Illustrator 24.1.1, SVG Export Plug-In . SVG Version: 6.00 Build 0)  -->
<svg version="1.1" id="Layer_1" xmlns="http://www.w3.org/2000/svg" xmlns:xlink="http://www.w3.org/1999/xlink" x="0px" y="0px"
	 viewBox="0 0 640 480" style="enable-background:new 0 0 640 480;" xml:space="preserve">
<style type="text/css">
	.st0{fill:#C3CF21;}
</style>
<path class="st0" d="M181.6,168.4h33.4l5.1,169.6l-43.1,0L181.6,168.4L181.6,168.4L181.6,168.4z M150.1,344h331.7v21.8h19.9l0,21.8
	H521v21.8l-410,0v-21.8h19.3v-21.8h19.9L150.1,344L150.1,344L150.1,344z M499.1,121L316,39.5L132.8,121l0,13.3l366.3,0L499.1,121
	L499.1,121z M168.1,140.5h295.7v21.8H168.1V140.5z M416.3,168.4h33.4l5.1,169.6l-43.1,0L416.3,168.4L416.3,168.4z M338.1,168.4
	l33.4,0l5.1,169.6l-43.1,0L338.1,168.4L338.1,168.4L338.1,168.4z M259.8,168.4l33.4,0l5.1,169.6h-43.1L259.8,168.4L259.8,168.4z"/>
</svg>
