<?xml version="1.0" encoding="utf-8"?>
<!-- Generator: Adobe Illustrator 24.1.1, SVG Export Plug-In . SVG Version: 6.00 Build 0)  -->
<svg version="1.1" id="Layer_1" xmlns="http://www.w3.org/2000/svg" xmlns:xlink="http://www.w3.org/1999/xlink" x="0px" y="0px"
	 viewBox="0 0 640 480" style="enable-background:new 0 0 640 480;" xml:space="preserve">
<style type="text/css">
	.st0{fill:#B8E0F1;}
	.st1{fill:url(#SVGID_1_);}
	.st2{fill:#FFFAE9;}
	.st3{fill-rule:evenodd;clip-rule:evenodd;fill:#FFD700;stroke:#FFFF00;stroke-width:2.156;stroke-opacity:0.504;}
	.st4{fill-rule:evenodd;clip-rule:evenodd;fill:url(#SVGID_2_);}
	.st5{fill-rule:evenodd;clip-rule:evenodd;fill:url(#SVGID_3_);stroke:#FFFF00;stroke-width:2.156;stroke-opacity:0.504;}
	.st6{fill-rule:evenodd;clip-rule:evenodd;fill:url(#SVGID_4_);}
	.st7{fill-rule:evenodd;clip-rule:evenodd;fill:url(#SVGID_5_);stroke:#FFFF00;stroke-width:2.156;stroke-opacity:0.504;}
	.st8{fill-rule:evenodd;clip-rule:evenodd;fill:url(#SVGID_6_);}
	.st9{fill-rule:evenodd;clip-rule:evenodd;fill:url(#SVGID_7_);stroke:#FFFF00;stroke-width:2.156;stroke-opacity:0.504;}
	.st10{fill-rule:evenodd;clip-rule:evenodd;fill:url(#SVGID_8_);}
	.st11{fill-rule:evenodd;clip-rule:evenodd;fill:url(#SVGID_9_);}
	.st12{fill-rule:evenodd;clip-rule:evenodd;fill:url(#SVGID_10_);stroke:#FFFF00;stroke-width:2.156;stroke-opacity:0.504;}
	.st13{fill-rule:evenodd;clip-rule:evenodd;fill:url(#SVGID_11_);}
	.st14{fill-rule:evenodd;clip-rule:evenodd;fill:url(#SVGID_12_);}
	.st15{fill:url(#SVGID_13_);}
	.st16{fill:none;stroke:url(#SVGID_14_);stroke-width:6.5824;stroke-linecap:round;stroke-linejoin:round;stroke-miterlimit:1;}
	.st17{fill:none;stroke:#FFFFFF;stroke-width:2.4684;stroke-linecap:round;stroke-linejoin:round;stroke-miterlimit:1;}
</style>
<g>
	<polygon class="st0" points="527.3,214.9 493.9,161.4 455.2,185.6 455.2,140 392.2,140 392.2,185.6 353.5,161.4 320.1,214.9 
		364.2,242.5 320.1,270 353.5,323.5 392.2,299.3 392.2,344.9 455.2,344.9 455.2,299.3 493.9,323.5 527.3,270 483.2,242.5 	"/>
	<g>
		
			<radialGradient id="SVGID_1_" cx="418.5066" cy="356.7393" r="143.0532" gradientTransform="matrix(0.9266 0 0 -0.9266 35.9118 573.0046)" gradientUnits="userSpaceOnUse">
			<stop  offset="0" style="stop-color:#278DCE"/>
			<stop  offset="0.1548" style="stop-color:#2788C9"/>
			<stop  offset="0.3329" style="stop-color:#277ABB"/>
			<stop  offset="0.5226" style="stop-color:#2764A4"/>
			<stop  offset="0.7189" style="stop-color:#264484"/>
			<stop  offset="0.8901" style="stop-color:#262262"/>
		</radialGradient>
		<polygon class="st1" points="520.5,213.3 492.3,168.2 450.3,194.5 450.3,144.9 397.1,144.9 397.1,194.5 355.1,168.2 326.9,213.3 
			373.6,242.5 326.9,271.6 355.1,316.7 397.1,290.4 397.1,340 450.3,340 450.3,290.4 492.3,316.7 520.5,271.6 473.9,242.5 		"/>
		<g>
			<path class="st2" d="M444.4,196.5c-4-2.6-11-2.6-16.8-2c0,2.4,0,4.9,0,7.6c2.3-0.3,4.7-0.4,7-0.3c0,4.1,5.3,5.1,9.8,4.9
				C450.8,206.5,451.1,200.8,444.4,196.5z M440.3,200.9c-0.8,0-1.4-0.6-1.4-1.4c0-0.8,0.6-1.4,1.4-1.4s1.4,0.6,1.4,1.4
				C441.7,200.3,441.1,200.9,440.3,200.9z M420.3,265.2c-8.3-5.3-9-9.8-6.4-12.9c1.3-1.5,3.4-2.8,6-3.9c0-2.1,0-4.1-0.1-6.2
				c-3.9,1.7-7.6,3.4-9.6,5.2c-8.3,7.4-1.5,16.3,5.5,20.8c12.2,7.9,14.9,12.5,11,16.2c0,1.8,0,3.5-0.1,5.2l0.1-0.1
				C432.4,286,440.7,278.3,420.3,265.2z M417.5,301.1c0.2-3.2,1.5-5.5,3.1-7.2c0-1.6-0.1-3.2-0.1-4.9c-3.3,2.8-5.9,6.2-6.1,10
				c-0.5,9.9,7.8,15.4,14.2,17.3C420.6,312,417.1,306.9,417.5,301.1z M431.3,215.4c-9.5-1.8-15.2-2.2-18.8-3.7
				c-5.1-2.2-0.5-5.8,7.1-8c0-2.8,0-5.4-0.1-7.9c-10.7,2.7-28.2,13.2-12.5,21c3.1,1.5,8.4,3,18.3,4c11.8,1.2,17.6,8.3,10,14.6
				c-1.3,1.1-4.4,2.4-8,3.8c0,2.1,0,4.2-0.1,6.3c4.4-1.6,8.9-3.3,12.3-5.6C450.1,232.6,447.7,218.5,431.3,215.4z"/>
			<path class="st2" d="M422,274.7c0.2,13.4,0.4,25.7,0.6,35.1c0.6,0.6,1.2,1.2,1.9,1.8c0.2-9,0.4-20.8,0.6-33.9
				C424.3,276.9,423.3,275.8,422,274.7z M423.6,328.2c0.3,0,0.5-4.4,0.8-11.6c-0.5-0.3-1.1-0.5-1.6-0.8
				C423,323.5,423.2,328.2,423.6,328.2z M423.6,169.9c-3,0-5.4,2.4-5.4,5.4c0,2.1,1.2,3.9,2.9,4.8c0,6.2,0.1,17.8,0.2,31.9
				c0.5,0.1,0.9,0.2,1.4,0.2c0.9,0.1,1.9,0.3,3,0.5c0.1-14.4,0.2-26.2,0.2-32.6c1.7-0.9,2.9-2.7,2.9-4.8
				C428.9,172.3,426.5,169.9,423.6,169.9z M421.4,222.1c0.1,13.3,0.2,27.9,0.4,42c1.2,0.8,2.4,1.6,3.4,2.4c0.2-14.6,0.3-30,0.4-43.9
				c-0.2,0-0.4,0-0.5-0.1C423.9,222.4,422.6,222.3,421.4,222.1z"/>
		</g>
	</g>
</g>
<g>
	<path class="st3" d="M189.7,168.6c11.6-13.4,8.6-18.9,6.7-28.1c-4-4.2,0.1-10.3,3.4-26.5C189.3,128.8,175.6,131.3,189.7,168.6
		L189.7,168.6z"/>
	
		<linearGradient id="SVGID_2_" gradientUnits="userSpaceOnUse" x1="1.321" y1="-0.1122" x2="1.6949" y2="-0.1122" gradientTransform="matrix(43.2192 0 0 135.142 124.9647 153.8564)">
		<stop  offset="0" style="stop-color:#FFFFFF;stop-opacity:0.449"/>
		<stop  offset="1" style="stop-color:#FFFFFF;stop-opacity:0"/>
	</linearGradient>
	<path class="st4" d="M197.1,111.2c-6.8,8.8-17,17-16.5,29.3c-0.1,10.2,3.9,19.7,6.9,29.3c6.1-7,12.7-15.9,9.9-25.7
		c0-3.9-2.7-6.9-2.8-10.6c1.5-8.7,4.6-17.1,5.8-25.9C199.3,108.7,198.2,109.9,197.1,111.2L197.1,111.2z"/>
	
		<linearGradient id="SVGID_3_" gradientUnits="userSpaceOnUse" x1="1.3678" y1="-0.3774" x2="1.4774" y2="-0.6869" gradientTransform="matrix(328.1239 0 0 505.1299 -243.8247 530.5322)">
		<stop  offset="0" style="stop-color:#DC0000"/>
		<stop  offset="1" style="stop-color:#FFB200"/>
	</linearGradient>
	<path class="st5" d="M141.9,273.5c14.1,41.5,36.3,63.6,76.1,66.1c43.8,14.1,84.5-14.7,73-59.8c-5.2,9.6-8.6,14.9-17.6,17.6
		c3.6-25-19.3-29.2-8.2-56c7.8-16.6,12.4-36.9-1.3-53.5c-5.7,18.9-12.6,31.5-26.4,45.3c1.5-23.1,13.6-41.7,6.3-63.6
		c1-14.7-23.1-14.3-23.3-59.1c-15.3,19.3-21.8,34.2-19.5,63.6c-5.7,23.7-19.5,32.3-17,57.9c-2.1-14.3-3.6-26.6-0.6-37.1
		c-1.7-13-3.4-24.1-16.4-33.3c4,16.2,8.6,40.5-5,46.6c-3.8,7.8-22.7,34.4-1.9,76.1C154.1,280.7,148,279.6,141.9,273.5L141.9,273.5z"
		/>
	
		<linearGradient id="SVGID_4_" gradientUnits="userSpaceOnUse" x1="0.9702" y1="-0.9066" x2="1.5481" y2="-0.4604" gradientTransform="matrix(317.5233 0 0 492.8555 -226.7966 529.6416)">
		<stop  offset="0" style="stop-color:#FFFFFF"/>
		<stop  offset="1" style="stop-color:#FFFFFF;stop-opacity:0"/>
	</linearGradient>
	<path class="st6" d="M216,119.6c-10.9,14.3-15.5,32.6-14.1,50.4c1,8.7-3.6,16.8-6.9,24.6c-6.1,11.6-11.5,24.3-9.9,37.7
		c-0.5,7.7-3.9-0.1-3.5-3.9c-1.6-10.9-2.3-22.2-0.1-33.1c-1.1-10.5-3.8-21.9-12.5-28.9c2.6,12.5,5.9,26.6-0.3,38.5
		c-2.2,4-7.2,5.1-8.3,9.9c-10.5,18.4-11.3,41.3-3.3,60.7c1.7,4.4,3.8,8.7,5.7,13c-5.8-3.3-12.3-5.6-17.9-9.3
		c7.8,22.9,22.7,45.5,46.2,54.4c9.2,3.9,19.3,4.7,29.1,6.2c21.4,6.7,47.9,2.3,62-16.3c8.3-10.8,10.6-25.3,7.8-38.4
		c-3.7,7.6-10.2,13.7-18.6,15.6c1.9-9.7-1-19.4-6-27.7c-5.4-8.9-6.7-20-2.4-29.6c6.5-14.4,11.5-31.7,3.9-46.7
		c-2.4-6.9-4-2.7-5.2,2.2c-5,15.3-15.1,28.4-26.5,39.6c0.8-15.7,6.2-30.5,8.6-45.8c1.3-7.8-0.2-15.7-1.8-23.3
		c-1.1-8.5-10-12.9-13.8-20.2c-6.7-9.7-8.9-21.8-9.3-33.4C218,117,217,118.3,216,119.6L216,119.6z"/>
	<g>
		
			<linearGradient id="SVGID_5_" gradientUnits="userSpaceOnUse" x1="1.685" y1="-0.492" x2="1.589" y2="-0.6971" gradientTransform="matrix(142.5691 0 0 393.5 -45.0668 509.0938)">
			<stop  offset="0" style="stop-color:#DC0000"/>
			<stop  offset="1" style="stop-color:#FFB200"/>
		</linearGradient>
		<path class="st7" d="M213.7,333.3c-33.3-35.2-39-59.8-17-83.1c24.8-44,18.7-71.7,0.6-98.2c17,58.5-20.1,96.3-32.1,113.3
			c-7.1-22-1-31.5,8.8-58.5c-19.3,21-31,46.4-23.9,70.5C163.1,313.6,193.8,321.6,213.7,333.3L213.7,333.3z"/>
		<path class="st3" d="M254.2,200.2c-4.5-13-0.8-15.8,3.1-21.5c4-1.6,2.8-7.1,5-19.3C265.6,173.1,274.6,179.3,254.2,200.2
			L254.2,200.2z"/>
	</g>
	
		<linearGradient id="SVGID_6_" gradientUnits="userSpaceOnUse" x1="-0.7092" y1="-0.4209" x2="-0.3224" y2="-0.4209" gradientTransform="matrix(38.8004 0 0 103.4457 277.9697 219.6921)">
		<stop  offset="0" style="stop-color:#FFFFFF;stop-opacity:0.449"/>
		<stop  offset="1" style="stop-color:#FFFFFF;stop-opacity:0"/>
	</linearGradient>
	<path class="st8" d="M259.2,157.3c-1.4,5.8-0.7,12.2-3.3,17.6c-5.9,4.5-8.5,12.9-5.9,20c0.8,6,2.7,7,6,1.5
		c7.1-7.3,13.7-17.7,9.7-28.1c-1.8-5.3-3.4-10.7-5.4-16C259.9,154,259.5,155.6,259.2,157.3L259.2,157.3z"/>
	<g>
		<path class="st3" d="M282.9,279.8c11.5-11.1,9.2-15.9,8.2-23.9c-3.4-3.8,0.8-8.8,5-22.7C285.4,245.6,272.8,247.3,282.9,279.8
			L282.9,279.8z"/>
		
			<linearGradient id="SVGID_7_" gradientUnits="userSpaceOnUse" x1="0.7993" y1="-0.8072" x2="1.0633" y2="-1.149" gradientTransform="matrix(150.295 0 0 237.74 122.5629 509.1099)">
			<stop  offset="0" style="stop-color:#DC0000"/>
			<stop  offset="1" style="stop-color:#FFB200"/>
		</linearGradient>
		<path class="st9" d="M228.8,333.3c13-7.3,16.6-30.4,18.2-56c3.1-24.8,9.4-49.5,51-53.5c-17,13.6-30.8,30.4-24.5,61.7
			C271.8,331,238,329.3,228.8,333.3L228.8,333.3z"/>
	</g>
	
		<linearGradient id="SVGID_8_" gradientUnits="userSpaceOnUse" x1="1.4263" y1="-1.2428" x2="0.6567" y2="-0.8542" gradientTransform="matrix(138.2802 0 0 238.356 146.4802 501.8608)">
		<stop  offset="0" style="stop-color:#FFFFFF"/>
		<stop  offset="1" style="stop-color:#FFFFFF;stop-opacity:0"/>
	</linearGradient>
	<path class="st10" d="M293.2,220.2c-17.7,2.5-36,13.2-41.2,31.2c-8.3,22.6-3.7,48.3-15.1,70c-4.3,1.9-3.3,9.9,2.1,8.4
		c15.6-2.8,30.5-13.7,34.4-29.6c3.8-11.1,1.7-22.8,1.2-34.1c0.5-16.5,10.1-31.3,22.6-41.5C299.5,221.3,295.8,220.3,293.2,220.2
		L293.2,220.2z"/>
	
		<linearGradient id="SVGID_9_" gradientUnits="userSpaceOnUse" x1="-1.149" y1="-1.1932" x2="-0.7787" y2="-1.1932" gradientTransform="matrix(45.6503 0 0 116.955 330.0122 391.8452)">
		<stop  offset="0" style="stop-color:#FFFFFF;stop-opacity:0.449"/>
		<stop  offset="1" style="stop-color:#FFFFFF;stop-opacity:0"/>
	</linearGradient>
	<path class="st11" d="M293.4,228.8c-7.1,7.6-17.5,14.6-17.2,26.2c-0.5,8.3,2.4,16.3,4.3,24.2c6.2-5.9,13.2-13.6,11-22.9
		c0-4.1-3.1-7.7-0.7-11.7c2.3-6.3,4.8-12.6,6.4-19.2C295.9,226.6,294.7,227.7,293.4,228.8L293.4,228.8z"/>
	
		<linearGradient id="SVGID_10_" gradientUnits="userSpaceOnUse" x1="1.1367" y1="-0.4123" x2="1.261" y2="-0.837" gradientTransform="matrix(133.2534 0 0 285.56 56.935 472.2168)">
		<stop  offset="0" style="stop-color:#DC0000"/>
		<stop  offset="1" style="stop-color:#FFB200"/>
	</linearGradient>
	<path class="st12" d="M206.1,316.3c-1.7-20.1-4-34.6,21.4-52.9c43-30,21.8-47.4-5-78.7c8,31-4.8,55.8-15.7,72.4
		C199.6,267.4,174.9,288.4,206.1,316.3L206.1,316.3z"/>
	
		<linearGradient id="SVGID_11_" gradientUnits="userSpaceOnUse" x1="0.8393" y1="-1.1391" x2="1.3535" y2="-0.585" gradientTransform="matrix(138.606 0 0 301.0547 49.4314 465.8594)">
		<stop  offset="0" style="stop-color:#FFFFFF"/>
		<stop  offset="1" style="stop-color:#FFFFFF;stop-opacity:0"/>
	</linearGradient>
	<path class="st13" d="M221.8,179.6c4.7,21.2-0.1,43.5-10.8,62c-6.6,12.8-19.8,22.6-21,37.8c-2,13.3,7.5,24.3,16.4,32.9
		c3.6,4.5,0.5-6.2,1-8.7c-1.4-13,0.8-27.7,11.3-36.6c11.7-11.4,28.4-19.3,34-35.7c3.8-14.5-6.3-27.4-15.1-37.7
		c-5.3-6.5-10.9-12.6-16.5-18.9C221.3,176.4,221.6,178,221.8,179.6L221.8,179.6z"/>
	
		<linearGradient id="SVGID_12_" gradientUnits="userSpaceOnUse" x1="1.2631" y1="-1.0444" x2="1.6394" y2="-0.6379" gradientTransform="matrix(149.3633 0 0 394.3222 -48.4818 520.8105)">
		<stop  offset="0" style="stop-color:#FFFFFF"/>
		<stop  offset="1" style="stop-color:#FFFFFF;stop-opacity:0"/>
	</linearGradient>
	<path class="st14" d="M200.7,160.8c0.5,10,3.3,19.9,2,30c-1.1,23.6-11.5,45.8-25.8,64.2c-2.7,3.8-5.5,7.4-8.2,11.1
		c-3.7-12.2-2-25.3,2.9-36.9c2.6-6.2,4.4-12.6,5.4-19.2c-13.7,12.5-23.3,29.5-26.7,47.7c-2.8,16.8,3.2,34.1,14.3,46.8
		c14,16.6,34.2,25.9,53.8,34.2c-11.1-15.6-26.5-29.7-29.8-49.4c-2.2-11.4,2.3-22.9,9.8-31.5c8.6-11.8,14-25.9,17.1-40.1
		c4.1-18.5,0.8-38.5-9.3-54.5C203.7,161.5,199.3,151.9,200.7,160.8L200.7,160.8z"/>
</g>
<g>
	
		<image style="overflow:visible;opacity:0.3;enable-background:new    ;" width="209" height="224" xlink:href="D2B2EC10.png"  transform="matrix(0.9954 0 0 0.9954 215.9742 134.0088)">
	</image>
	<g>
		
			<linearGradient id="SVGID_13_" gradientUnits="userSpaceOnUse" x1="253.7295" y1="291.4819" x2="469.8018" y2="175.4104" gradientTransform="matrix(1 0 0 -1 0 480)">
			<stop  offset="5.618000e-03" style="stop-color:#FBCA00"/>
			<stop  offset="0.2528" style="stop-color:#FFF9D1"/>
			<stop  offset="0.2984" style="stop-color:#FAF0C0"/>
			<stop  offset="0.3891" style="stop-color:#ECD793"/>
			<stop  offset="0.515" style="stop-color:#D7B04B"/>
			<stop  offset="0.5955" style="stop-color:#C8951A"/>
			<stop  offset="0.816" style="stop-color:#E9CD76"/>
			<stop  offset="0.8708" style="stop-color:#F1DC8D"/>
			<stop  offset="1" style="stop-color:#FFF9D1"/>
		</linearGradient>
		<path class="st15" d="M319.6,330.1c-15.2-33.2-58.2-32.4-72.8-53.5c-14.5-21-14.4-34,4.4-60.7s-10.1-44.1-10.1-44.1l19.5-22.4
			c34,34,59,0.7,59,0.7s25,33.3,59-0.7l19.5,22.4c0,0-29,17.3-10.1,44.1c18.8,26.8,18.8,41.2,4.4,60.7
			C377.2,297.2,334.8,296.9,319.6,330.1z"/>
		
			<linearGradient id="SVGID_14_" gradientUnits="userSpaceOnUse" x1="233.1641" y1="240.25" x2="405.996" y2="240.25" gradientTransform="matrix(1 0 0 -1 0 480)">
			<stop  offset="0" style="stop-color:#FFF9D1"/>
			<stop  offset="0.1292" style="stop-color:#F1DC8D"/>
			<stop  offset="0.184" style="stop-color:#E9CD76"/>
			<stop  offset="0.4045" style="stop-color:#C8951A"/>
			<stop  offset="0.485" style="stop-color:#D7B04B"/>
			<stop  offset="0.6109" style="stop-color:#ECD793"/>
			<stop  offset="0.7016" style="stop-color:#FAF0C0"/>
			<stop  offset="0.7472" style="stop-color:#FFF9D1"/>
			<stop  offset="0.9944" style="stop-color:#FBCA00"/>
		</linearGradient>
		<path class="st16" d="M319.6,330.1c-15.2-33.2-58.2-32.4-72.8-53.5c-14.5-21-14.4-34,4.4-60.7s-10.1-44.1-10.1-44.1l19.5-22.4
			c34,34,59,0.7,59,0.7s25,33.3,59-0.7l19.5,22.4c0,0-29,17.3-10.1,44.1c18.8,26.8,18.8,41.2,4.4,60.7
			C377.2,297.2,334.8,296.9,319.6,330.1z"/>
		<path class="st17" d="M319.6,325c-9.6-16.9-26.8-24.4-42-31.1c-11.8-5.2-23-10.1-28.8-18.6c-13.3-19.3-14.7-31,4.3-58
			c5.8-8.3,7.9-16.6,6.2-24.7c-2.3-10.8-10.7-18.1-14.8-21.2l16.2-18.6c10,9.5,20.3,14.2,30.6,14.2c14.2,0,24.3-9,28.2-13.3
			c4,4.3,14,13.3,28.2,13.3c10.3,0,20.6-4.8,30.6-14.2l16.2,18.6c-4.1,3-12.5,10.4-14.8,21.2c-1.7,8.1,0.4,16.4,6.2,24.7
			c17.7,25.1,18.7,38.7,4.4,58c-6,8.1-17,13-28.6,18.1C346.6,300.2,329.4,307.8,319.6,325z"/>
	</g>
</g>
</svg>
