<?xml version="1.0" encoding="utf-8"?>
<!-- Generator: Adobe Illustrator 24.1.3, SVG Export Plug-In . SVG Version: 6.00 Build 0)  -->
<svg version="1.1" id="Layer_1" xmlns="http://www.w3.org/2000/svg" xmlns:xlink="http://www.w3.org/1999/xlink" x="0px" y="0px"
	 viewBox="0 0 398 248.7" style="enable-background:new 0 0 398 248.7;" xml:space="preserve">
<style type="text/css">
	.st0{fill:#B8E0F1;}
	.st1{fill:url(#SVGID_1_);}
	.st2{fill:#FFFAE9;}
	.st3{fill-rule:evenodd;clip-rule:evenodd;fill:#FFD700;stroke:#FFFF00;stroke-width:2.156;stroke-opacity:0.504;}
	.st4{fill-rule:evenodd;clip-rule:evenodd;fill:url(#SVGID_2_);}
	.st5{fill-rule:evenodd;clip-rule:evenodd;fill:url(#SVGID_3_);stroke:#FFFF00;stroke-width:2.156;stroke-opacity:0.504;}
	.st6{fill-rule:evenodd;clip-rule:evenodd;fill:url(#SVGID_4_);}
	.st7{fill-rule:evenodd;clip-rule:evenodd;fill:url(#SVGID_5_);stroke:#FFFF00;stroke-width:2.156;stroke-opacity:0.504;}
	.st8{fill-rule:evenodd;clip-rule:evenodd;fill:url(#SVGID_6_);}
	.st9{fill-rule:evenodd;clip-rule:evenodd;fill:url(#SVGID_7_);stroke:#FFFF00;stroke-width:2.156;stroke-opacity:0.504;}
	.st10{fill-rule:evenodd;clip-rule:evenodd;fill:url(#SVGID_8_);}
	.st11{fill-rule:evenodd;clip-rule:evenodd;fill:url(#SVGID_9_);}
	.st12{fill-rule:evenodd;clip-rule:evenodd;fill:url(#SVGID_10_);stroke:#FFFF00;stroke-width:2.156;stroke-opacity:0.504;}
	.st13{fill-rule:evenodd;clip-rule:evenodd;fill:url(#SVGID_11_);}
	.st14{fill-rule:evenodd;clip-rule:evenodd;fill:url(#SVGID_12_);}
	.st15{fill:url(#SVGID_13_);}
	.st16{fill:none;stroke:url(#SVGID_14_);stroke-width:6.5824;stroke-linecap:round;stroke-linejoin:round;stroke-miterlimit:1;}
	.st17{fill:none;stroke:#FFFFFF;stroke-width:2.4684;stroke-linecap:round;stroke-linejoin:round;stroke-miterlimit:1;}
</style>
<g>
	<polygon class="st0" points="393.3,111.9 359.9,58.4 321.2,82.6 321.2,37 258.2,37 258.2,82.6 219.5,58.4 186.1,111.9 230.2,139.5 
		186.1,167 219.5,220.5 258.2,196.3 258.2,241.9 321.2,241.9 321.2,196.3 359.9,220.5 393.3,167 349.2,139.5 	"/>
	<g>
		
			<radialGradient id="SVGID_1_" cx="284.5066" cy="20.2608" r="143.0532" gradientTransform="matrix(0.9266 0 0 0.9266 26.0762 120.6764)" gradientUnits="userSpaceOnUse">
			<stop  offset="0" style="stop-color:#278DCE"/>
			<stop  offset="0.1548" style="stop-color:#2788C9"/>
			<stop  offset="0.3329" style="stop-color:#277ABB"/>
			<stop  offset="0.5226" style="stop-color:#2764A4"/>
			<stop  offset="0.7189" style="stop-color:#264484"/>
			<stop  offset="0.8901" style="stop-color:#262262"/>
		</radialGradient>
		<polygon class="st1" points="386.5,110.3 358.3,65.2 316.3,91.5 316.3,41.9 263.1,41.9 263.1,91.5 221.1,65.2 192.9,110.3 
			239.6,139.5 192.9,168.6 221.1,213.7 263.1,187.4 263.1,237 316.3,237 316.3,187.4 358.3,213.7 386.5,168.6 339.9,139.5 		"/>
		<g>
			<path class="st2" d="M310.4,93.5c-4-2.6-11-2.6-16.8-2c0,2.4,0,4.9,0,7.6c2.3-0.3,4.7-0.4,7-0.3c0,4.1,5.3,5.1,9.8,4.9
				C316.8,103.5,317.1,97.8,310.4,93.5z M306.3,97.9c-0.8,0-1.4-0.6-1.4-1.4c0-0.8,0.6-1.4,1.4-1.4s1.4,0.6,1.4,1.4
				C307.7,97.3,307.1,97.9,306.3,97.9z M286.3,162.2c-8.3-5.3-9-9.8-6.4-12.9c1.3-1.5,3.4-2.8,6-3.9c0-2.1,0-4.1-0.1-6.2
				c-3.9,1.7-7.6,3.4-9.6,5.2c-8.3,7.4-1.5,16.3,5.5,20.8c12.2,7.9,14.9,12.5,11,16.2c0,1.8,0,3.5-0.1,5.2l0.1-0.1
				C298.4,183,306.7,175.3,286.3,162.2z M283.5,198.1c0.2-3.2,1.5-5.5,3.1-7.2c0-1.6-0.1-3.2-0.1-4.9c-3.3,2.8-5.9,6.2-6.1,10
				c-0.5,9.9,7.8,15.4,14.2,17.3C286.6,209,283.1,203.9,283.5,198.1z M297.3,112.4c-9.5-1.8-15.2-2.2-18.8-3.7
				c-5.1-2.2-0.5-5.8,7.1-8c0-2.8,0-5.4-0.1-7.9c-10.7,2.7-28.2,13.2-12.5,21c3.1,1.5,8.4,3,18.3,4c11.8,1.2,17.6,8.3,10,14.6
				c-1.3,1.1-4.4,2.4-8,3.8c0,2.1,0,4.2-0.1,6.3c4.4-1.6,8.9-3.3,12.3-5.6C316.1,129.6,313.7,115.5,297.3,112.4z"/>
			<path class="st2" d="M288,171.7c0.2,13.4,0.4,25.7,0.6,35.1c0.6,0.6,1.2,1.2,1.9,1.8c0.2-9,0.4-20.8,0.6-33.9
				C290.3,173.9,289.3,172.8,288,171.7z M289.6,225.2c0.3,0,0.5-4.4,0.8-11.6c-0.5-0.3-1.1-0.5-1.6-0.8
				C289,220.5,289.2,225.2,289.6,225.2z M289.6,66.9c-3,0-5.4,2.4-5.4,5.4c0,2.1,1.2,3.9,2.9,4.8c0,6.2,0.1,17.8,0.2,31.9
				c0.5,0.1,0.9,0.2,1.4,0.2c0.9,0.1,1.9,0.3,3,0.5c0.1-14.4,0.2-26.2,0.2-32.6c1.7-0.9,2.9-2.7,2.9-4.8
				C294.9,69.3,292.5,66.9,289.6,66.9z M287.4,119.1c0.1,13.3,0.2,27.9,0.4,42c1.2,0.8,2.4,1.6,3.4,2.4c0.2-14.6,0.3-30,0.4-43.9
				c-0.2,0-0.4,0-0.5-0.1C289.9,119.4,288.6,119.3,287.4,119.1z"/>
		</g>
	</g>
</g>
<g>
	<path class="st3" d="M55.7,65.6c11.6-13.4,8.6-18.9,6.7-28.1c-4-4.2,0.1-10.3,3.4-26.5C55.3,25.8,41.6,28.3,55.7,65.6L55.7,65.6z"
		/>
	
		<linearGradient id="SVGID_2_" gradientUnits="userSpaceOnUse" x1="-132.679" y1="377.1122" x2="-132.3051" y2="377.1122" gradientTransform="matrix(43.2192 0 0 -135.142 5782.3374 50999.3906)">
		<stop  offset="0" style="stop-color:#FFFFFF;stop-opacity:0.449"/>
		<stop  offset="1" style="stop-color:#FFFFFF;stop-opacity:0"/>
	</linearGradient>
	<path class="st4" d="M63.1,8.2c-6.8,8.8-17,17-16.5,29.3c-0.1,10.2,3.9,19.7,6.9,29.3c6.1-7,12.7-15.9,9.9-25.7
		c0-3.9-2.7-6.9-2.8-10.6c1.5-8.7,4.6-17.1,5.8-25.9C65.3,5.7,64.2,6.9,63.1,8.2L63.1,8.2z"/>
	
		<linearGradient id="SVGID_3_" gradientUnits="userSpaceOnUse" x1="-132.6322" y1="377.3774" x2="-132.5226" y2="377.6869" gradientTransform="matrix(328.1239 0 0 -505.1299 43590.7773 190861.5156)">
		<stop  offset="0" style="stop-color:#DC0000"/>
		<stop  offset="1" style="stop-color:#FFB200"/>
	</linearGradient>
	<path class="st5" d="M7.9,170.5C22,212,44.2,234.1,84,236.6c43.8,14.1,84.5-14.7,73-59.8c-5.2,9.6-8.6,14.9-17.6,17.6
		c3.6-25-19.3-29.2-8.2-56c7.8-16.6,12.4-36.9-1.3-53.5c-5.7,18.9-12.6,31.5-26.4,45.3c1.5-23.1,13.6-41.7,6.3-63.6
		c1-14.7-23.1-14.3-23.3-59.1C71.2,26.8,64.7,41.7,67,71.1c-5.7,23.7-19.5,32.3-17,57.9c-2.1-14.3-3.6-26.6-0.6-37.1
		C47.7,78.9,46,67.8,33,58.6c4,16.2,8.6,40.5-5,46.6c-3.8,7.8-22.7,34.4-1.9,76.1C20.1,177.7,14,176.6,7.9,170.5L7.9,170.5z"/>
	
		<linearGradient id="SVGID_4_" gradientUnits="userSpaceOnUse" x1="-133.0298" y1="377.9066" x2="-132.4519" y2="377.4604" gradientTransform="matrix(317.5233 0 0 -492.8555 42187.3242 186233.1719)">
		<stop  offset="0" style="stop-color:#FFFFFF"/>
		<stop  offset="1" style="stop-color:#FFFFFF;stop-opacity:0"/>
	</linearGradient>
	<path class="st6" d="M82,16.6C71.1,30.9,66.5,49.2,67.9,67c1,8.7-3.6,16.8-6.9,24.6c-6.1,11.6-11.5,24.3-9.9,37.7
		c-0.5,7.7-3.9-0.1-3.5-3.9c-1.6-10.9-2.3-22.2-0.1-33.1C46.4,81.8,43.7,70.4,35,63.4c2.6,12.5,5.9,26.6-0.3,38.5
		c-2.2,4-7.2,5.1-8.3,9.9c-10.5,18.4-11.3,41.3-3.3,60.7c1.7,4.4,3.8,8.7,5.7,13c-5.8-3.3-12.3-5.6-17.9-9.3
		c7.8,22.9,22.7,45.5,46.2,54.4c9.2,3.9,19.3,4.7,29.1,6.2c21.4,6.7,47.9,2.3,62-16.3c8.3-10.8,10.6-25.3,7.8-38.4
		c-3.7,7.6-10.2,13.7-18.6,15.6c1.9-9.7-1-19.4-6-27.7c-5.4-8.9-6.7-20-2.4-29.6c6.5-14.4,11.5-31.7,3.9-46.7
		c-2.4-6.9-4-2.7-5.2,2.2c-5,15.3-15.1,28.4-26.5,39.6c0.8-15.7,6.2-30.5,8.6-45.8c1.3-7.8-0.2-15.7-1.8-23.3
		c-1.1-8.5-10-12.9-13.8-20.2c-6.7-9.7-8.9-21.8-9.3-33.4C84,14,83,15.3,82,16.6L82,16.6z"/>
	<g>
		
			<linearGradient id="SVGID_5_" gradientUnits="userSpaceOnUse" x1="-132.315" y1="377.492" x2="-132.4109" y2="377.6971" gradientTransform="matrix(142.5691 0 0 -393.5 18925.1934 148755.5938)">
			<stop  offset="0" style="stop-color:#DC0000"/>
			<stop  offset="1" style="stop-color:#FFB200"/>
		</linearGradient>
		<path class="st7" d="M79.7,230.3c-33.3-35.2-39-59.8-17-83.1c24.8-44,18.7-71.7,0.6-98.2c17,58.5-20.1,96.3-32.1,113.3
			c-7.1-22-1-31.5,8.8-58.5c-19.3,21-31,46.4-23.9,70.5C29.1,210.6,59.8,218.6,79.7,230.3L79.7,230.3z"/>
		<path class="st3" d="M120.2,97.2c-4.5-13-0.8-15.8,3.1-21.5c4-1.6,2.8-7.1,5-19.3C131.6,70.1,140.6,76.3,120.2,97.2L120.2,97.2z"
			/>
	</g>
	
		<linearGradient id="SVGID_6_" gradientUnits="userSpaceOnUse" x1="-134.7092" y1="377.4209" x2="-134.3224" y2="377.4209" gradientTransform="matrix(38.8004 0 0 -103.4457 5343.2231 39115.7227)">
		<stop  offset="0" style="stop-color:#FFFFFF;stop-opacity:0.449"/>
		<stop  offset="1" style="stop-color:#FFFFFF;stop-opacity:0"/>
	</linearGradient>
	<path class="st8" d="M125.2,54.3c-1.4,5.8-0.7,12.2-3.3,17.6c-5.9,4.5-8.5,12.9-5.9,20c0.8,6,2.7,7,6,1.5
		c7.1-7.3,13.7-17.7,9.7-28.1c-1.8-5.3-3.4-10.7-5.4-16C125.9,51,125.5,52.6,125.2,54.3L125.2,54.3z"/>
	<g>
		<path class="st3" d="M148.9,176.8c11.5-11.1,9.2-15.9,8.2-23.9c-3.4-3.8,0.8-8.8,5-22.7C151.4,142.6,138.8,144.3,148.9,176.8
			L148.9,176.8z"/>
		
			<linearGradient id="SVGID_7_" gradientUnits="userSpaceOnUse" x1="-133.2007" y1="377.8072" x2="-132.9367" y2="378.149" gradientTransform="matrix(150.295 0 0 -237.74 20128.0918 90034.0938)">
			<stop  offset="0" style="stop-color:#DC0000"/>
			<stop  offset="1" style="stop-color:#FFB200"/>
		</linearGradient>
		<path class="st9" d="M94.8,230.3c13-7.3,16.6-30.4,18.2-56c3.1-24.8,9.4-49.5,51-53.5c-17,13.6-30.8,30.4-24.5,61.7
			C137.8,228,104,226.3,94.8,230.3L94.8,230.3z"/>
	</g>
	
		<linearGradient id="SVGID_8_" gradientUnits="userSpaceOnUse" x1="-132.5737" y1="378.2428" x2="-133.3433" y2="377.8542" gradientTransform="matrix(138.2802 0 0 -238.356 18542.0273 90259.0703)">
		<stop  offset="0" style="stop-color:#FFFFFF"/>
		<stop  offset="1" style="stop-color:#FFFFFF;stop-opacity:0"/>
	</linearGradient>
	<path class="st10" d="M159.2,117.2c-17.7,2.5-36,13.2-41.2,31.2c-8.3,22.6-3.7,48.3-15.1,70c-4.3,1.9-3.3,9.9,2.1,8.4
		c15.6-2.8,30.5-13.7,34.4-29.6c3.8-11.1,1.7-22.8,1.2-34.1c0.5-16.5,10.1-31.3,22.6-41.5C165.5,118.3,161.8,117.3,159.2,117.2
		L159.2,117.2z"/>
	
		<linearGradient id="SVGID_9_" gradientUnits="userSpaceOnUse" x1="-135.149" y1="378.1931" x2="-134.7787" y2="378.1931" gradientTransform="matrix(45.6503 0 0 -116.955 6313.1523 44380.8828)">
		<stop  offset="0" style="stop-color:#FFFFFF;stop-opacity:0.449"/>
		<stop  offset="1" style="stop-color:#FFFFFF;stop-opacity:0"/>
	</linearGradient>
	<path class="st11" d="M159.4,125.8c-7.1,7.6-17.5,14.6-17.2,26.2c-0.5,8.3,2.4,16.3,4.3,24.2c6.2-5.9,13.2-13.6,11-22.9
		c0-4.1-3.1-7.7-0.7-11.7c2.3-6.3,4.8-12.6,6.4-19.2C161.9,123.6,160.7,124.7,159.4,125.8L159.4,125.8z"/>
	
		<linearGradient id="SVGID_10_" gradientUnits="userSpaceOnUse" x1="-132.8633" y1="377.4123" x2="-132.739" y2="377.837" gradientTransform="matrix(133.2534 0 0 -285.56 17778.8906 108025.3359)">
		<stop  offset="0" style="stop-color:#DC0000"/>
		<stop  offset="1" style="stop-color:#FFB200"/>
	</linearGradient>
	<path class="st12" d="M72.1,213.3c-1.7-20.1-4-34.6,21.4-52.9c43-30,21.8-47.4-5-78.7c8,31-4.8,55.8-15.7,72.4
		C65.6,164.4,40.9,185.4,72.1,213.3L72.1,213.3z"/>
	
		<linearGradient id="SVGID_11_" gradientUnits="userSpaceOnUse" x1="-133.1607" y1="378.1391" x2="-132.6465" y2="377.585" gradientTransform="matrix(138.606 0 0 -301.0547 18488.6367 113860.4766)">
		<stop  offset="0" style="stop-color:#FFFFFF"/>
		<stop  offset="1" style="stop-color:#FFFFFF;stop-opacity:0"/>
	</linearGradient>
	<path class="st13" d="M87.8,76.6c4.7,21.2-0.1,43.5-10.8,62c-6.6,12.8-19.8,22.6-21,37.8c-2,13.3,7.5,24.3,16.4,32.9
		c3.6,4.5,0.5-6.2,1-8.7c-1.4-13,0.8-27.7,11.3-36.6c11.7-11.4,28.4-19.3,34-35.7c3.8-14.5-6.3-27.4-15.1-37.7
		C98.3,84.1,92.7,78,87.1,71.7C87.3,73.4,87.6,75,87.8,76.6L87.8,76.6z"/>
	
		<linearGradient id="SVGID_12_" gradientUnits="userSpaceOnUse" x1="-132.7369" y1="378.0444" x2="-132.3606" y2="377.6379" gradientTransform="matrix(149.3633 0 0 -394.3222 19832.1992 149077.2813)">
		<stop  offset="0" style="stop-color:#FFFFFF"/>
		<stop  offset="1" style="stop-color:#FFFFFF;stop-opacity:0"/>
	</linearGradient>
	<path class="st14" d="M66.7,57.8c0.5,10,3.3,19.9,2,30c-1.1,23.6-11.5,45.8-25.8,64.2c-2.7,3.8-5.5,7.4-8.2,11.1
		c-3.7-12.2-2-25.3,2.9-36.9C40.2,120,42,113.6,43,107c-13.7,12.5-23.3,29.5-26.7,47.7c-2.8,16.8,3.2,34.1,14.3,46.8
		c14,16.6,34.2,25.9,53.8,34.2c-11.1-15.6-26.5-29.7-29.8-49.4c-2.2-11.4,2.3-22.9,9.8-31.5c8.6-11.8,14-25.9,17.1-40.1
		c4.1-18.5,0.8-38.5-9.3-54.5C69.7,58.5,65.3,48.9,66.7,57.8L66.7,57.8z"/>
</g>
<g>
	<g>
		<linearGradient id="SVGID_13_" gradientUnits="userSpaceOnUse" x1="119.7295" y1="85.5181" x2="335.8018" y2="201.5896">
			<stop  offset="5.618000e-03" style="stop-color:#FBCA00"/>
			<stop  offset="0.2528" style="stop-color:#FFF9D1"/>
			<stop  offset="0.2984" style="stop-color:#FAF0C0"/>
			<stop  offset="0.3891" style="stop-color:#ECD793"/>
			<stop  offset="0.515" style="stop-color:#D7B04B"/>
			<stop  offset="0.5955" style="stop-color:#C8951A"/>
			<stop  offset="0.816" style="stop-color:#E9CD76"/>
			<stop  offset="0.8708" style="stop-color:#F1DC8D"/>
			<stop  offset="1" style="stop-color:#FFF9D1"/>
		</linearGradient>
		<path class="st15" d="M185.6,227.1c-15.2-33.2-58.2-32.4-72.8-53.5c-14.5-21-14.4-34,4.4-60.7s-10.1-44.1-10.1-44.1l19.5-22.4
			c34,34,59,0.7,59,0.7s25,33.3,59-0.7l19.5,22.4c0,0-29,17.3-10.1,44.1c18.8,26.8,18.8,41.2,4.4,60.7
			C243.2,194.2,200.8,193.9,185.6,227.1z"/>
		<linearGradient id="SVGID_14_" gradientUnits="userSpaceOnUse" x1="99.1641" y1="136.75" x2="271.996" y2="136.75">
			<stop  offset="0" style="stop-color:#FFF9D1"/>
			<stop  offset="0.1292" style="stop-color:#F1DC8D"/>
			<stop  offset="0.184" style="stop-color:#E9CD76"/>
			<stop  offset="0.4045" style="stop-color:#C8951A"/>
			<stop  offset="0.485" style="stop-color:#D7B04B"/>
			<stop  offset="0.6109" style="stop-color:#ECD793"/>
			<stop  offset="0.7016" style="stop-color:#FAF0C0"/>
			<stop  offset="0.7472" style="stop-color:#FFF9D1"/>
			<stop  offset="0.9944" style="stop-color:#FBCA00"/>
		</linearGradient>
		<path class="st16" d="M185.6,227.1c-15.2-33.2-58.2-32.4-72.8-53.5c-14.5-21-14.4-34,4.4-60.7s-10.1-44.1-10.1-44.1l19.5-22.4
			c34,34,59,0.7,59,0.7s25,33.3,59-0.7l19.5,22.4c0,0-29,17.3-10.1,44.1c18.8,26.8,18.8,41.2,4.4,60.7
			C243.2,194.2,200.8,193.9,185.6,227.1z"/>
		<path class="st17" d="M185.6,222c-9.6-16.9-26.8-24.4-42-31.1c-11.8-5.2-23-10.1-28.8-18.6c-13.3-19.3-14.7-31,4.3-58
			c5.8-8.3,7.9-16.6,6.2-24.7c-2.3-10.8-10.7-18.1-14.8-21.2l16.2-18.6c10,9.5,20.3,14.2,30.6,14.2c14.2,0,24.3-9,28.2-13.3
			c4,4.3,14,13.3,28.2,13.3c10.3,0,20.6-4.8,30.6-14.2l16.2,18.6c-4.1,3-12.5,10.4-14.8,21.2c-1.7,8.1,0.4,16.4,6.2,24.7
			c17.7,25.1,18.7,38.7,4.4,58c-6,8.1-17,13-28.6,18.1C212.6,197.2,195.4,204.8,185.6,222z"/>
	</g>
</g>
</svg>
