<?xml version="1.0" encoding="utf-8"?>
<!-- Generator: Adobe Illustrator 24.1.1, SVG Export Plug-In . SVG Version: 6.00 Build 0)  -->
<svg version="1.1" id="Layer_1" xmlns="http://www.w3.org/2000/svg" xmlns:xlink="http://www.w3.org/1999/xlink" x="0px" y="0px"
	 viewBox="0 0 640 480" style="enable-background:new 0 0 640 480;" xml:space="preserve">
<style type="text/css">
	.st0{fill-rule:evenodd;clip-rule:evenodd;fill:#FFD700;stroke:#FFFF00;stroke-width:2.156;stroke-opacity:0.504;}
	.st1{fill-rule:evenodd;clip-rule:evenodd;fill:url(#SVGID_1_);}
	.st2{fill-rule:evenodd;clip-rule:evenodd;fill:url(#SVGID_2_);stroke:#FFFF00;stroke-width:2.156;stroke-opacity:0.504;}
	.st3{fill-rule:evenodd;clip-rule:evenodd;fill:url(#SVGID_3_);}
	.st4{fill-rule:evenodd;clip-rule:evenodd;fill:url(#SVGID_4_);stroke:#FFFF00;stroke-width:2.156;stroke-opacity:0.504;}
	.st5{fill-rule:evenodd;clip-rule:evenodd;fill:url(#SVGID_5_);}
	.st6{fill-rule:evenodd;clip-rule:evenodd;fill:url(#SVGID_6_);stroke:#FFFF00;stroke-width:2.156;stroke-opacity:0.504;}
	.st7{fill-rule:evenodd;clip-rule:evenodd;fill:url(#SVGID_7_);}
	.st8{fill-rule:evenodd;clip-rule:evenodd;fill:url(#SVGID_8_);}
	.st9{fill-rule:evenodd;clip-rule:evenodd;fill:url(#SVGID_9_);stroke:#FFFF00;stroke-width:2.156;stroke-opacity:0.504;}
	.st10{fill-rule:evenodd;clip-rule:evenodd;fill:url(#SVGID_10_);}
	.st11{fill-rule:evenodd;clip-rule:evenodd;fill:url(#SVGID_11_);}
</style>
<g>
	<path class="st0" d="M303.9,182.1c11.3-11,8.4-15.6,6.5-23.2c-3.9-3.5,0.1-8.5,3.3-21.8C303.5,149.3,290.2,151.3,303.9,182.1
		L303.9,182.1z"/>
	
		<linearGradient id="SVGID_1_" gradientUnits="userSpaceOnUse" x1="-1637.1606" y1="2226.9512" x2="-1636.7976" y2="2226.9512" gradientTransform="matrix(43.2192 0 0 -135.142 71053.2344 301111.9375)">
		<stop  offset="0" style="stop-color:#FFFFFF;stop-opacity:0.449"/>
		<stop  offset="1" style="stop-color:#FFFFFF;stop-opacity:0"/>
	</linearGradient>
	<path class="st1" d="M311,134.7c-6.6,7.3-16.5,14-16,24.1c-0.1,8.4,3.8,16.2,6.7,24.1c6-5.8,12.3-13.1,9.6-21.2
		c0-3.2-2.6-5.7-2.7-8.8c1.5-7.2,4.5-14.1,5.6-21.3C313.2,132.7,312.1,133.7,311,134.7L311,134.7z"/>
	
		<linearGradient id="SVGID_2_" gradientUnits="userSpaceOnUse" x1="-1673.1613" y1="2236.9207" x2="-1673.0693" y2="2237.1799" gradientTransform="matrix(328.1239 0 0 -505.1299 549324.3125 1130261.5)">
		<stop  offset="0" style="stop-color:#DC0000"/>
		<stop  offset="1" style="stop-color:#FFB200"/>
	</linearGradient>
	<path class="st2" d="M257.5,268.6c13.6,34.2,35.2,52.4,73.9,54.5c42.6,11.6,82.1-12.1,70.9-49.3c-5.1,8-8.3,12.3-17.1,14.5
		c3.5-20.6-18.7-24-7.9-46.2c7.5-13.7,12-30.4-1.2-44.1c-5.5,15.6-12.2,25.9-25.7,37.4c1.4-19,13.2-34.4,6.1-52.4
		c1-12.1-22.4-11.8-22.6-48.8c-14.9,15.9-21.2,28.2-18.9,52.4c-5.5,19.5-18.9,26.6-16.5,47.7c-2-11.8-3.5-22-0.6-30.6
		c-1.6-10.7-3.3-19.9-15.9-27.5c3.9,13.3,8.3,33.4-4.9,38.4c-3.7,6.4-22,28.4-1.8,62.8C269.3,274.4,263.4,273.6,257.5,268.6
		L257.5,268.6z"/>
	
		<linearGradient id="SVGID_3_" gradientUnits="userSpaceOnUse" x1="-1673.3481" y1="2237.3" x2="-1672.8198" y2="2236.8921" gradientTransform="matrix(317.5233 0 0 -492.8555 531532.25 1102766)">
		<stop  offset="0" style="stop-color:#FFFFFF"/>
		<stop  offset="1" style="stop-color:#FFFFFF;stop-opacity:0"/>
	</linearGradient>
	<path class="st3" d="M329.4,141.7c-10.6,11.8-15.1,26.8-13.7,41.5c1,7.2-3.5,13.9-6.7,20.3c-5.9,9.6-11.2,20-9.6,31
		c-0.5,6.4-3.8-0.1-3.4-3.3c-1.6-9-2.3-18.3-0.1-27.3c-1.1-8.7-3.7-18.1-12.1-23.8c2.5,10.3,5.8,21.9-0.3,31.8c-2.2,3.3-7,4.2-8,8.2
		c-10.2,15.2-11,34-3.2,50.1c1.6,3.7,3.7,7.1,5.5,10.7c-5.7-2.8-11.9-4.6-17.4-7.6c7.6,18.9,22,37.5,44.8,44.8
		c9,3.2,18.7,3.8,28.2,5.1c20.8,5.5,46.5,1.9,60.2-13.5c8-8.9,10.3-20.9,7.5-31.7c-3.6,6.2-9.9,11.3-18,12.9c1.9-8-1-16-5.8-22.8
		c-5.3-7.3-6.5-16.5-2.3-24.4c6.4-11.8,11.2-26.2,3.8-38.5c-2.3-5.7-3.9-2.2-5.1,1.8c-4.8,12.6-14.6,23.4-25.7,32.6
		c0.8-12.9,6.1-25.1,8.3-37.8c1.3-6.5-0.2-12.9-1.8-19.2c-1.1-7-9.7-10.6-13.4-16.7c-6.5-8-8.6-18-9-27.5
		C331.3,139.6,330.4,140.6,329.4,141.7L329.4,141.7z"/>
	<g>
		
			<linearGradient id="SVGID_4_" gradientUnits="userSpaceOnUse" x1="-1665.7411" y1="2236.0388" x2="-1665.8217" y2="2236.2112" gradientTransform="matrix(142.5691 0 0 -393.5 237790.9844 880189.125)">
			<stop  offset="0" style="stop-color:#DC0000"/>
			<stop  offset="1" style="stop-color:#FFB200"/>
		</linearGradient>
		<path class="st4" d="M327.2,317.9c-32.4-29.1-37.9-49.3-16.5-68.5c24-36.3,18.1-59.1,0.6-80.9c16.5,48.2-19.5,79.4-31.2,93.4
			c-6.9-18.2-1-25.9,8.6-48.2c-18.7,17.3-30.1,38.2-23.2,58.1C278.1,301.6,307.8,308.2,327.2,317.9L327.2,317.9z"/>
		<path class="st0" d="M366.4,208.1c-4.3-10.7-0.8-13,3-17.7c3.9-1.3,2.7-5.8,4.9-15.9C377.5,185.7,386.2,190.8,366.4,208.1
			L366.4,208.1z"/>
	</g>
	
		<linearGradient id="SVGID_5_" gradientUnits="userSpaceOnUse" x1="-1634.514" y1="2223.2896" x2="-1634.1385" y2="2223.2896" gradientTransform="matrix(38.8004 0 0 -103.4457 63782.668 230178.0313)">
		<stop  offset="0" style="stop-color:#FFFFFF;stop-opacity:0.449"/>
		<stop  offset="1" style="stop-color:#FFFFFF;stop-opacity:0"/>
	</linearGradient>
	<path class="st5" d="M371.3,172.7c-1.3,4.8-0.7,10-3.2,14.5c-5.7,3.7-8.2,10.6-5.7,16.5c0.8,4.9,2.6,5.8,5.8,1.3
		c6.9-6,13.3-14.6,9.4-23.2c-1.8-4.4-3.3-8.8-5.3-13.2C372,170,371.7,171.4,371.3,172.7L371.3,172.7z"/>
	<g>
		<path class="st0" d="M394.3,273.8c11.2-9.2,9-13.1,7.9-19.7c-3.3-3.1,0.8-7.3,4.9-18.7C396.8,245.6,384.6,247,394.3,273.8
			L394.3,273.8z"/>
		
			<linearGradient id="SVGID_6_" gradientUnits="userSpaceOnUse" x1="-1667.2628" y1="2233.4475" x2="-1667.0283" y2="2233.7512" gradientTransform="matrix(150.295 0 0 -237.74 250938.1875 531286.75)">
			<stop  offset="0" style="stop-color:#DC0000"/>
			<stop  offset="1" style="stop-color:#FFB200"/>
		</linearGradient>
		<path class="st6" d="M341.8,317.9c12.6-6.1,16.1-25.1,17.7-46.2c3.1-20.4,9.2-40.8,49.5-44.1c-16.5,11.2-29.9,25.1-23.8,50.8
			C383.5,316,350.8,314.6,341.8,317.9L341.8,317.9z"/>
	</g>
	
		<linearGradient id="SVGID_7_" gradientUnits="userSpaceOnUse" x1="-1665.6587" y1="2233.8591" x2="-1666.369" y2="2233.5005" gradientTransform="matrix(138.2802 0 0 -238.356 230777.2813 532659.25)">
		<stop  offset="0" style="stop-color:#FFFFFF"/>
		<stop  offset="1" style="stop-color:#FFFFFF;stop-opacity:0"/>
	</linearGradient>
	<path class="st7" d="M404.4,224.6c-17.2,2.1-34.9,10.8-40,25.7c-8.1,18.6-3.6,39.8-14.7,57.7c-4.2,1.5-3.2,8.2,2,6.9
		c15.2-2.3,29.6-11.3,33.4-24.4c3.7-9.1,1.6-18.8,1.2-28.1c0.5-13.6,9.8-25.8,21.9-34.2C410.4,225.5,406.9,224.7,404.4,224.6
		L404.4,224.6z"/>
	
		<linearGradient id="SVGID_8_" gradientUnits="userSpaceOnUse" x1="-1641.9028" y1="2226.1548" x2="-1641.5433" y2="2226.1548" gradientTransform="matrix(45.6503 0 0 -116.955 75342.4609 260611.0156)">
		<stop  offset="0" style="stop-color:#FFFFFF;stop-opacity:0.449"/>
		<stop  offset="1" style="stop-color:#FFFFFF;stop-opacity:0"/>
	</linearGradient>
	<path class="st8" d="M404.6,231.7c-6.9,6.2-17,12.1-16.7,21.6c-0.5,6.9,2.4,13.4,4.2,20c6-4.9,12.8-11.2,10.6-18.9
		c0-3.4-3-6.3-0.7-9.6c2.3-5.2,4.6-10.4,6.2-15.9C407,229.9,405.8,230.8,404.6,231.7L404.6,231.7z"/>
	
		<linearGradient id="SVGID_9_" gradientUnits="userSpaceOnUse" x1="-1665.3903" y1="2234.3103" x2="-1665.2865" y2="2234.6648" gradientTransform="matrix(133.2534 0 0 -285.56 222242.7031 638366.625)">
		<stop  offset="0" style="stop-color:#DC0000"/>
		<stop  offset="1" style="stop-color:#FFB200"/>
	</linearGradient>
	<path class="st9" d="M319.8,303.8c-1.6-16.6-3.9-28.5,20.8-43.6c41.7-24.7,21.2-39.1-4.9-64.8c7.7,25.6-4.7,46-15.3,59.7
		C313.5,263.6,289.5,280.8,319.8,303.8L319.8,303.8z"/>
	
		<linearGradient id="SVGID_10_" gradientUnits="userSpaceOnUse" x1="-1666.1727" y1="2235.2434" x2="-1665.7106" y2="2234.7456" gradientTransform="matrix(138.606 0 0 -301.0547 231227.5469 673068.375)">
		<stop  offset="0" style="stop-color:#FFFFFF"/>
		<stop  offset="1" style="stop-color:#FFFFFF;stop-opacity:0"/>
	</linearGradient>
	<path class="st10" d="M335.1,191.1c4.5,17.4-0.1,35.8-10.5,51.2c-6.5,10.5-19.2,18.6-20.4,31.1c-1.9,10.9,7.3,20,15.9,27.1
		c3.5,3.7,0.5-5.1,1-7.2c-1.4-10.7,0.8-22.8,11-30.2c11.4-9.4,27.6-15.9,33-29.4c3.7-11.9-6.1-22.6-14.7-31.1
		c-5.2-5.3-10.6-10.4-16-15.6C334.6,188.5,334.8,189.8,335.1,191.1L335.1,191.1z"/>
	
		<linearGradient id="SVGID_11_" gradientUnits="userSpaceOnUse" x1="-1666.7057" y1="2236.5554" x2="-1666.3612" y2="2236.1831" gradientTransform="matrix(149.3633 0 0 -394.3222 249201.7813 882042.5)">
		<stop  offset="0" style="stop-color:#FFFFFF"/>
		<stop  offset="1" style="stop-color:#FFFFFF;stop-opacity:0"/>
	</linearGradient>
	<path class="st11" d="M314.6,175.6c0.4,8.3,3.2,16.4,1.9,24.7c-1.1,19.4-11.2,37.7-25.1,52.9c-2.6,3.1-5.3,6.1-8,9.2
		c-3.5-10-1.9-20.9,2.8-30.4c2.5-5.1,4.3-10.4,5.2-15.9c-13.3,10.3-22.6,24.3-25.9,39.3c-2.7,13.9,3.1,28.1,13.9,38.6
		c13.6,13.7,33.2,21.3,52.2,28.2c-10.8-12.9-25.7-24.5-28.9-40.7c-2.2-9.4,2.2-18.9,9.5-25.9c8.3-9.7,13.5-21.3,16.6-33
		c4-15.2,0.8-31.7-9-44.9C317.5,176.2,313.1,168.3,314.6,175.6L314.6,175.6z"/>
</g>
</svg>
