<?xml version="1.0" encoding="utf-8"?>
<!-- Generator: Adobe Illustrator 24.1.1, SVG Export Plug-In . SVG Version: 6.00 Build 0)  -->
<svg version="1.1" id="Layer_1" xmlns="http://www.w3.org/2000/svg" xmlns:xlink="http://www.w3.org/1999/xlink" x="0px" y="0px"
	 viewBox="0 0 640 480" style="enable-background:new 0 0 640 480;" xml:space="preserve">
<style type="text/css">
	.st0{fill:#FDFDFD;}
	.st1{fill:#FBDF6F;}
	.st2{fill:#676873;}
	.st3{fill:#676874;}
	.st4{fill:#6A6B76;}
	.st5{fill:#6B6C77;}
	.st6{fill:#6C6D77;}
	.st7{fill:#6B6C76;}
	.st8{fill:#6C6D78;}
	.st9{fill:#100F0F;}
	.st10{fill:#121212;}
	.st11{fill:#0A0A09;}
	.st12{fill:#0D0D0D;}
	.st13{fill:#111111;}
	.st14{fill:#141313;}
	.st15{fill:#1A1A19;}
	.st16{fill:#111010;}
	.st17{fill:#131212;}
	.st18{fill:#121111;}
	.st19{fill:#151414;}
	.st20{fill:#101010;}
	.st21{fill:#141413;}
	.st22{fill:#111110;}
	.st23{fill:#131313;}
	.st24{fill:#1A1919;}
	.st25{fill:#171616;}
	.st26{fill:#121211;}
	.st27{fill:#181717;}
	.st28{fill:#1B1A1A;}
	.st29{fill:#1C1B1B;}
	.st30{fill:#353233;}
	.st31{fill:#1E1D1D;}
	.st32{fill:#343132;}
	.st33{fill:#191919;}
	.st34{fill:#323031;}
	.st35{fill:#373436;}
	.st36{fill:#0E0E0E;}
	.st37{fill:#10100F;}
	.st38{fill:#373535;}
	.st39{fill:#333031;}
	.st40{fill:#393637;}
	.st41{fill:#0D0C0C;}
	.st42{fill:#3E3B3D;}
	.st43{fill:#434142;}
	.st44{fill:#FBE177;}
	.st45{fill:#2F2C2D;}
	.st46{fill:#FBE073;}
	.st47{fill:#3B393A;}
	.st48{fill:#312E2F;}
	.st49{fill:#3B3839;}
	.st50{fill:#3F3D3E;}
	.st51{fill:#2E2B2C;}
	.st52{fill:#312F30;}
	.st53{fill:#201F1F;}
	.st54{fill:#302D2E;}
	.st55{fill:#21201F;}
	.st56{fill:#373435;}
	.st57{fill:#211E1F;}
	.st58{fill:#424041;}
	.st59{fill:#3A3839;}
	.st60{fill:#353334;}
	.st61{fill:#CCCBCC;}
	.st62{fill:#262324;}
	.st63{fill:#363335;}
	.st64{fill:#383637;}
	.st65{fill:#232221;}
	.st66{fill:#0F0E0E;}
	.st67{fill:#1F1F1E;}
	.st68{fill:#3B3939;}
	.st69{fill:#353434;}
	.st70{fill:#343333;}
	.st71{fill:#2F2E2D;}
	.st72{fill:#3A3939;}
	.st73{fill:#403F3F;}
	.st74{fill:#262525;}
	.st75{fill:#3F3C3D;}
	.st76{fill:#575556;}
	.st77{fill:#272626;}
	.st78{fill:#212020;}
	.st79{fill:#95959D;}
	.st80{fill:#333130;}
	.st81{fill:#3C3A3A;}
	.st82{fill:#676667;}
	.st83{fill:#585757;}
	.st84{fill:#2F2E2E;}
	.st85{fill:#3D3A3C;}
	.st86{fill:#727273;}
	.st87{fill:#4A4849;}
	.st88{fill:#1F1E1E;}
	.st89{fill:#222121;}
	.st90{fill:#302E2E;}
	.st91{fill:#72706F;}
	.st92{fill:#EEEADE;}
	.st93{fill:#7E7D7F;}
	.st94{fill:#1B1A19;}
	.st95{fill:#333131;}
	.st96{fill:#3A3837;}
	.st97{fill:#3C3A3B;}
	.st98{fill:#434140;}
	.st99{fill:#4D4B4D;}
	.st100{fill:#575657;}
	.st101{fill:#5F5E5F;}
	.st102{fill:#868687;}
	.st103{fill:#7C7A7C;}
	.st104{fill:#211F20;}
	.st105{fill:#A3A3AA;}
	.st106{fill:#666566;}
	.st107{fill:#535150;}
	.st108{fill:#454443;}
	.st109{fill:#474546;}
	.st110{fill:#413F3F;}
	.st111{fill:#6B6A6C;}
	.st112{fill:#919192;}
	.st113{fill:#BDBEBF;}
	.st114{fill:#434242;}
	.st115{fill:#3E3C3C;}
	.st116{fill:#383636;}
	.st117{fill:#7D7B7A;}
	.st118{fill:#AAAAAB;}
	.st119{fill:#3A3838;}
	.st120{fill:#6A696B;}
	.st121{fill:#858485;}
	.st122{fill:#646364;}
	.st123{fill:#4E4C4D;}
	.st124{fill:#565454;}
	.st125{fill:#302F2E;}
	.st126{fill:#3F3E3D;}
	.st127{fill:#403E3E;}
	.st128{fill:#818082;}
	.st129{fill:#7D7C7D;}
	.st130{fill:#A09985;}
	.st131{fill:#313030;}
	.st132{fill:#484748;}
	.st133{fill:#828183;}
	.st134{fill:#575655;}
	.st135{fill:#F0EFEF;}
	.st136{fill:#A1A09F;}
	.st137{fill:#525152;}
	.st138{fill:#0E0D0D;}
	.st139{fill:#292827;}
	.st140{fill:#6D6C6D;}
	.st141{fill:#AAA9A8;}
	.st142{fill:#3A383A;}
	.st143{fill:#908F90;}
	.st144{fill:#535152;}
	.st145{fill:#6B6969;}
	.st146{fill:#3A3938;}
	.st147{fill:#4F4E4D;}
	.st148{fill:#757473;}
	.st149{fill:#626060;}
	.st150{fill:#211F1E;}
	.st151{fill:#5D5B5A;}
	.st152{fill:#5A595A;}
	.st153{fill:#585555;}
	.st154{fill:#6A696A;}
	.st155{fill:#646261;}
	.st156{fill:#222020;}
	.st157{fill:#31302F;}
	.st158{fill:#8A8A8B;}
	.st159{fill:#696769;}
	.st160{fill:#605E5E;}
	.st161{fill:#3E3C3D;}
	.st162{fill:#545354;}
	.st163{fill:#4F4E4F;}
	.st164{fill:#4E4C4B;}
	.st165{fill:#DDDBDA;}
	.st166{fill:#7E7C7B;}
	.st167{fill:#494748;}
	.st168{fill:#6F6E6F;}
	.st169{fill:#A6A6AD;}
	.st170{fill:#797879;}
	.st171{fill:#373536;}
	.st172{fill:#5B595A;}
	.st173{fill:#919091;}
	.st174{fill:#C2C2C2;}
	.st175{fill:#605E5F;}
	.st176{fill:#2D2C2C;}
	.st177{fill:#322F2E;}
	.st178{fill:#888889;}
	.st179{fill:#4B4A49;}
	.st180{fill:#171615;}
	.st181{fill:#1E1A1C;}
	.st182{fill:#3D3B3A;}
	.st183{fill:#5B5A59;}
	.st184{fill:#9A999A;}
	.st185{fill:#514F50;}
	.st186{fill:#B4B3B2;}
	.st187{fill:#5D5C5D;}
	.st188{fill:#474544;}
	.st189{fill:#62605F;}
	.st190{fill:#545253;}
	.st191{fill:#99999A;}
	.st192{fill:#717071;}
	.st193{fill:#9D9D9E;}
	.st194{fill:#686665;}
	.st195{fill:#B9AA74;}
	.st196{fill:#999899;}
	.st197{fill:#5D5B5B;}
	.st198{fill:#484648;}
	.st199{fill:#706E6F;}
	.st200{fill:#606061;}
	.st201{fill:#545352;}
	.st202{fill:#545252;}
	.st203{fill:#282726;}
	.st204{fill:#5A5859;}
	.st205{fill:#8A8787;}
	.st206{fill:#878788;}
	.st207{fill:#5E5D5E;}
	.st208{fill:#747374;}
	.st209{fill:#454244;}
	.st210{fill:#7D7C7E;}
	.st211{fill:#585758;}
	.st212{fill:#514F4F;}
	.st213{fill:#5B5958;}
	.st214{fill:#8D8D8D;}
	.st215{fill:#666463;}
	.st216{fill:#585655;}
	.st217{fill:#757476;}
	.st218{fill:#312D2D;}
	.st219{fill:#343332;}
	.st220{fill:#464444;}
	.st221{fill:#1D1A1C;}
	.st222{fill:#AAABAB;}
	.st223{fill:#686768;}
	.st224{fill:#4E4B4A;}
	.st225{fill:#6D6A69;}
	.st226{fill:#6D6C6E;}
	.st227{fill:#121010;}
	.st228{fill:#494749;}
	.st229{fill:#605F61;}
	.st230{fill:#625F5F;}
	.st231{fill:#0A0909;}
	.st232{fill:#7B7878;}
	.st233{fill:#706D6C;}
	.st234{fill:#59585A;}
	.st235{fill:#514F4E;}
	.st236{fill:#272523;}
	.st237{fill:#BDBDBE;}
	.st238{fill:#DCDCDD;}
	.st239{fill:#110F0F;}
	.st240{fill:#302E2D;}
	.st241{fill:#797675;}
	.st242{fill:#666466;}
	.st243{fill:#FAFAFA;}
	.st244{fill:#8A8786;}
	.st245{fill:#010101;}
	.st246{fill:#464445;}
	.st247{fill:#030303;}
	.st248{fill:#898785;}
	.st249{fill:#838281;}
	.st250{fill:#444244;}
	.st251{fill:#0C0C0C;}
	.st252{fill:#ADADB3;}
	.st253{fill:#9A9A9B;}
	.st254{fill:#929090;}
	.st255{fill:#525052;}
	.st256{fill:#151313;}
	.st257{fill:#F5F5F6;}
	.st258{fill:#EAEAEA;}
	.st259{fill:#4F4E50;}
	.st260{fill:#070606;}
	.st261{fill:#5B5957;}
	.st262{fill:#0C0C0B;}
	.st263{fill:#312F2E;}
	.st264{fill:#393739;}
	.st265{fill:#6D6D6E;}
	.st266{fill:#686868;}
	.st267{fill:#11100F;}
	.st268{fill:#8C8B89;}
	.st269{fill:#414042;}
	.st270{fill:#2F2D2D;}
	.st271{fill:#343232;}
	.st272{fill:#535253;}
	.st273{fill:#030202;}
	.st274{fill:#F3F3F3;}
	.st275{fill:#5C5B5C;}
	.st276{fill:#0B0A09;}
	.st277{fill:#010100;}
	.st278{fill:#343131;}
	.st279{fill:#535254;}
	.st280{fill:#ECECEC;}
	.st281{fill:#767678;}
	.st282{fill:#040404;}
	.st283{fill:#808081;}
	.st284{fill:#4F4D4E;}
	.st285{fill:#1F1D1E;}
	.st286{fill:#302E2F;}
	.st287{fill:#413F41;}
	.st288{fill:#2B292B;}
	.st289{fill:#EDEDED;}
	.st290{fill:#5F5E5E;}
	.st291{fill:#0C0A09;}
	.st292{fill:#040303;}
	.st293{fill:#4B4949;}
	.st294{fill:#666667;}
	.st295{fill:#545150;}
	.st296{fill:#2C2A29;}
	.st297{fill:#1D1B1A;}
	.st298{fill:#33302F;}
	.st299{fill:#191716;}
	.st300{fill:#151413;}
	.st301{fill:#494646;}
	.st302{fill:#4A484A;}
	.st303{fill:#5F5D5F;}
	.st304{fill:#F4F4F3;}
	.st305{fill:#F6F6F6;}
	.st306{fill:#0A0808;}
	.st307{fill:#F7F7F7;}
	.st308{fill:#474545;}
	.st309{fill:#F7F6F6;}
	.st310{fill:#F2F2F2;}
	.st311{fill:#F3F2F2;}
	.st312{fill:#F8F8F8;}
	.st313{fill:#F0F0F0;}
	.st314{fill:#E0E0E0;}
	.st315{fill:#070707;}
	.st316{fill:#080706;}
	.st317{fill:#F0F1F1;}
	.st318{fill:#1E1B1C;}
	.st319{fill:#F9F9F9;}
	.st320{fill:#191718;}
	.st321{fill:#030302;}
	.st322{fill:#6C6B6C;}
	.st323{fill:#1C1A1B;}
	.st324{fill:#181415;}
	.st325{fill:#595758;}
</style>
<g>
	<g>
		<path class="st0" d="M503.8,376.7c-124.7,0-249.4,0-374.2,0c0-98,0-196.1,0-294.4c124.7,0,249.5,0,374.2,0
			C503.8,180.3,503.8,278.5,503.8,376.7z"/>
		<path class="st1" d="M390.1,254.9c0,1.8-1.2,2.1-2.7,2.1c-27.1-0.8-53.9,4.2-80.9,4.9c-13.6,0.3-27.2-0.3-40.7-1.6
			c-6.2-0.6-12.5,0.6-19.5,1c-2.7-12.2,0.8-23.8,5.2-35.2c-0.2-3.1,2.1-5.3,2.7-8.1c3.1-5.7,8-9.7,13-13.5
			c18-13.8,38.1-20.8,61-16.6c16,2.9,29.4,10.8,40.4,22.8c9.7,10.5,16.9,22.5,20.4,36.5c0.1,1.5,0.7,2.9,0.5,4.4
			C390.1,252.5,389.4,253.8,390.1,254.9z"/>
		<path class="st2" d="M205.4,267.9c26.6-0.1,53.2,0.4,79.7-0.5c31.7-1.1,63.3-3.4,94.9-5.1c15.3-0.8,30.6,0,44.9,6.6
			c-0.3,2.4-1.9,1.2-3,1c-34.7-5.5-69.5-3.2-104.3-0.5c-31.7,2.4-63.5,5.6-95.4,2.4c-5.6-0.6-11.2-1.4-16.8-2.1
			C204.8,269.1,204.8,268.5,205.4,267.9z"/>
		<path class="st3" d="M388.3,247.7c-9.8-29.2-27.4-50.8-58.6-58.2c-26.2-6.2-59.3,7-74.4,28.8c-1.3,2.5-2.9,4.7-4.9,6.6
			c-6.5,8.2-9.9,17.8-12.1,27.9c-1.9,0.1-1.3-1.1-1.1-2.1c2.6-19.6,12.9-34.7,27.8-46.8c24.2-19.5,51.2-26.6,80.5-13.9
			c23.8,10.2,37.8,29.6,43.7,54.7C389.2,245.8,390.7,247.4,388.3,247.7z"/>
		<path class="st4" d="M257,195.4c-2.3,2.4-3.8,0.6-5.4-0.5c-7.7-5.7-13.4-13.3-19.4-20.7c-3.9-4.8-7.7-9.5-12.3-13.7
			c-2.7-2.5-3.1-5.5-3.3-8.7C232.2,164.6,241.5,182.8,257,195.4z"/>
		<path class="st4" d="M244.1,216.6c-19.1-0.6-34.8-15.1-55.8-9.8C196.3,199.3,241.1,208.1,244.1,216.6z"/>
		<path class="st4" d="M376.8,134.5c-8.1,11.6-12.2,25.4-21,36.5c-2.8,3.5-5.7,7.4-12,5.8c13.2-8.2,18.1-21.6,24.2-34
			c1.6-3.3,0.2-8,5.4-9.2C374.3,133.5,375.2,133,376.8,134.5z"/>
		<path class="st5" d="M313.9,176.1c-3.5-1.1-4.8-3-4.5-4.9c1.7-8.4-2.8-15.8-3.8-23.7c-0.7-5.2-0.9-10.4,4.7-13.4
			c0.5-0.3,1.2-0.1,2.6-0.2c-4.1,7.1-4.1,14.1-2.6,21.4C311.8,162,315.6,168.4,313.9,176.1z"/>
		<path class="st6" d="M229.4,249.7c-2.6,2.3-5.4,1.4-8,0.7c-10.6-2.6-21.2-3.9-32.7-0.8c3.6-4.6,8.1-5.4,12.6-5.5
			c7.6-0.3,15,2.1,22.8,0.9C226.7,244.6,229.1,246.3,229.4,249.7z"/>
		<path class="st5" d="M282.4,187.7c-11.3-9.7-7.8-26-18.4-35c5.8-1.5,7.6-0.7,9.5,4.6c0.6,1.9,1.1,3.8,1.4,5.8
			c0.9,5.9,2.1,11.6,6.1,16.5C282.4,181.4,283.1,184,282.4,187.7z"/>
		<path class="st7" d="M441,229c-4.2,3.6-9.2,3.7-14.2,2.8c-8.6-1.4-17-2.7-25.4,0.9c-2.1,0.9-4.5,0.8-7.4,0
			c4.9-4.1,10.1-4.9,15.5-5c9.8-0.2,19.5,1.4,29.3,0.1C440,227.4,441.1,227.1,441,229z"/>
		<path class="st8" d="M418.2,175.1c-2.8,5.2-7.9,7.3-13,9.3c-7.1,2.7-14.5,4.9-19.3,11.5c-0.7,1-1.9,1.4-3.4-0.2
			c8.5-12.8,23.9-14.2,35.5-21.8c0.3,0.2,0.4,0.5,0.4,0.8C418.3,175,418.3,175.1,418.2,175.1z"/>
		<path class="st9" d="M150.2,357.4c1.1-7.3,2.1-14.7,3.5-22c0.5-2.5-0.1-3.7-2.9-3.8c2.7-4.5,6.8-1.4,10.1-2.5
			c-7.3,6.9-4.2,16.5-7,24.4c-0.7,1.8-1.6,3.6-2.4,5.4C150.4,358.9,149.8,358.6,150.2,357.4z"/>
		<path class="st10" d="M211.2,341.5c2.2-3.4-1.3-8.4,3.1-11.2c0.7,0.4,1,1.1,1.2,1.8c0.2,2.2,0.6,4.3,1.4,6.4c0,0.5-0.1,1-0.4,1.4
			c-1.1,3.5,1.2,6.1,2.3,9c0.8,2,1.7,0.1,2.5-0.2c0.3-0.5,0.6-0.5,0.9,0c0,1.6-2.6,2.6-0.8,4.8c1.7,2.2,3.4,0.9,5.8,0.4
			c-2.7,3.3-5.2,5-8.3,1.6c-1.5-1.6-2.3,0.1-3.4,0.3c-0.2-0.2-0.3-0.3-0.5-0.5c-0.2-0.4-0.3-0.9-0.3-1.4c0.3-4.1-1.9-7.5-3.1-11.1
			C211.3,342.4,211.2,342,211.2,341.5z"/>
		<path class="st11" d="M254.5,331.2c-0.4,3.6-0.8,7.1-1.2,10.5c1.7,1.4,3.9-0.3,5.2,1.6c-1.5,1.8-3.5,0.1-5.5,1.1
			c-1.6,4.9-1.3,10.8-4.8,15.3c-1.9,0-1.4-1-1-2c1.3-8.9,2.7-17.8,4-26.8c-0.5-0.4-0.5-0.8,0-1.2l0,0.1
			C252.7,329.4,254.5,328.3,254.5,331.2z"/>
		<path class="st12" d="M338.1,308.6c-8.6,3-13.1-0.2-13.1-9.2c0-6,1.5-11.4,6.3-15.5c1-0.2,1.4,0.2,1.1,1.2
			c-2.5,4.5-4.2,9.3-4,14.5c0.2,4.9,2,8.3,7.7,8.1C336.9,307.4,338,306.8,338.1,308.6z"/>
		<path class="st13" d="M205.5,286.1c-1.9,3.7-3.3,7.6-3.4,11.9c-0.1,5.7,2,9.3,8.2,9.6c0.2,0.2,0.3,0.5,0.3,0.7
			c-0.1,0.3-0.1,0.4-0.2,0.4c-8.4,1.1-12.2-2.5-11.6-11.2c0.3-4.9,1.7-9.4,5.5-12.8C205.3,284.5,205.8,284.9,205.5,286.1z"/>
		<path class="st14" d="M409.1,294.1c-0.4,3.2-0.8,6.5-1.2,9.7c-0.2,1.6-0.6,3.5,2.1,3.1c0.1,0.1,0.3,0.3,0.4,0.4
			c0,0.4-0.1,0.7-0.3,1c-3.7,2.8-5.6,1.4-5.4-2.8c0.2-3.9,0.7-7.9,1.6-11.7c0.5-2.3-0.2-3.2-2.5-4.3c5.5,0.7,1.8-6.5,6.5-6.4
			c1.8,1.8-1.3,4.1,0.6,5.9C410.2,290.6,409.2,292.2,409.1,294.1z"/>
		<path class="st10" d="M429,298.8c2.1-3.1,0.6-8,5.3-9.9c-3.2,10.3-0.5,22.3-9.4,30.8c-1,0.5-1,0-0.9-0.8c4.2-4.2,3-10.2,5-15.2
			C429.6,302.1,428.1,300.5,429,298.8z"/>
		<path class="st15" d="M270.3,336.9c2.5-0.9,5.1-1.4,7.8-0.1c-0.9,5.9-1.8,11.7-2.8,18.3c1.5-0.7,2.2-1,2.9-1.3
			c0.4-0.4,0.7-0.4,1.1,0c-1.2,1.9-2.6,3.6-5.1,3.2c-2.2-0.4-1.8-2.4-1.9-4c0.4-1.2,0.2-2-1.4-1.6c-0.4,0-0.8-0.2-1.1-0.6
			c-0.1-0.2-0.1-0.4-0.1-0.6c0.1-3.6,3.9-6.3,2.4-10.2C271.8,338.8,269.9,338.6,270.3,336.9z"/>
		<path class="st16" d="M186.4,327.7c-2,3.8-2,8.1-3.1,12.1c-1.3,2.5,1.1,4.7,0.4,7.2c-0.1,2.4-1.5,4.7,0.1,7.1
			c0.4,0.8,0.9,1.6,0.5,2.5c-2.1,0-4.2,0-6.8,0c3-10.1,1-21.1,8-29.7C186.4,326.6,186.7,326.8,186.4,327.7z"/>
		<path class="st17" d="M340.8,366.6c2.5-3.1,3.2-6.8,3.5-10.6c0.8-1.3-0.2-2.7,0.1-4c0.9-1.6,0.6-3.5,0.8-5.2
			c2.7-3.1,1-8.4,5.8-10.6c-3.2,10.1-0.6,21.8-8.9,30.5C341.6,367.2,341.2,367.1,340.8,366.6z"/>
		<path class="st18" d="M331,328.8c-1.3,7.3-2.6,14.6-3.7,22c-0.2,1.2-2,3.9,1.7,3.8c0.1,0.1,0.3,0.3,0.4,0.4
			c-1,1.9-2.6,2.4-5.4,1.5c1-9.7,0.5-19.8,6.3-28.7c0,0,0.4,0.1,0.5,0.1C330.7,328.2,330.8,328.5,331,328.8z"/>
		<path class="st13" d="M369.9,331.7c-2.4,5,1.4,7.6,4,10.7c4.6,5.5,4.1,9.5-1.8,13.5c-0.3-0.2-0.4-0.5-0.3-0.7
			c0.1-0.2,0.2-0.3,0.3-0.3c4.4-4.7,0.8-8.1-2.2-11.3c-3.7-4.1-5.4-8.2-0.8-12.8c0,0,0.4,0.1,0.4,0.1
			C369.7,331.2,369.8,331.5,369.9,331.7z"/>
		<path class="st19" d="M251.3,308.8c-1.4,1.1-2.7,1.2-4.1,0.1c-1.2-1,1-3.6-1.8-4l-0.3-0.2c-0.9,0.2-1.2-0.4-1.4-1.1
			c0.5-4.1,4.5-7.4,2.8-12c-0.3-0.8-0.7-1.7-0.3-2.6c1.9,0,3.8,0,5.9,0c-0.7,6.1-1.4,12-2,18C251,307.3,251.8,307.6,251.3,308.8z"/>
		<path class="st20" d="M286.3,289c1.9,0,3.9,0,6.3,0c-1.9,8.4-1.7,16.8-4.4,24.8c-0.6,0.5-0.4,1.5-1,2l0,0
			c-0.9,0.3-1.3-0.2-1.7-0.9c-0.2-0.7-0.2-1.4-0.1-2.2c0.4-1.4,0.5-2.8,0.5-4.2c0-1.2,0.1-2.3,0.4-3.5c0.8-2,0.5-4,0.2-6
			c0.1-2.8,1.7-5.6-0.6-8.2C285.6,290.2,285.7,289.5,286.3,289z"/>
		<path class="st13" d="M423.2,352.8c-0.8,1.5-1.3,3.3-3.5,4c-2.4-5.8,2.2-14.2-6.5-18.3c0,0.2,0-0.4,0.1-1l0,0.1
			c4.7-3.2,6.9-0.9,7.8,3.7c0.6,3.4,0.7,6.9,1.1,10.4C422.4,352,423,352.2,423.2,352.8z"/>
		<path class="st21" d="M257.1,290.8c1.3-1.7,2.8-3.2,5-1.9c1.9,1.1,1.1,3.3,0.9,5c-0.5,3.3-1.1,6.5-1.5,9.8c-0.1,1.2-1,3.7,2,2
			c0.9-0.1,1.5,0,1,1.1c-1.1,1.8-2.5,3.5-4.8,2.4c-2-0.9-1.5-3.2-1.3-4.9c0.4-3.5,1.1-6.9,1.5-10.4c0.2-1.3,1.4-3.2-1.4-3.1
			C257.9,291.3,257.5,291.3,257.1,290.8z"/>
		<path class="st18" d="M406.8,340.7c-4,4.7-4.4,11.2-7.8,16.2c-0.9-6.4,1.6-12.2,1.1-18.3c-0.7-0.5-1.6-0.8-1-1.9
			c4.1-1.1,4.1-1.1,4.5,6.4c0.7-0.9,1.4-1.7,2.1-2.5C406,340.2,406.4,340.2,406.8,340.7z"/>
		<path class="st14" d="M308.1,355.5c-1.2,1.4-2.6,1.9-4.8,0.9c-1.2-4.8,0.9-9.5,1.3-14.3c0.2-1.9,1-4.2-2.4-2.3
			c0,0-0.4-0.1-0.4-0.1c-0.1-0.3-0.2-0.6-0.3-0.9c1-1.8,2.4-3.5,4.6-2.7c2.6,1,2,3.5,1.7,5.6c-0.4,3.2-1.1,6.5-1.4,9.7
			c-0.2,1.4-1.2,3.6,1.9,3.2c0.3,0.2,0.4,0.4,0.3,0.6C308.3,355.4,308.2,355.5,308.1,355.5z"/>
		<path class="st10" d="M304.3,289c2.1,0,4.2,0,6.6,0c-0.9,6-1.8,11.8-2.7,17.2c1.1,1.5,2.1,0.3,2.9,0.5l0,0
			c-0.7,2.2-2.5,3.2-4.4,2.7c-2.1-0.6-1.6-2.8-1.5-4.6c0.9-2.2-1.1-4.2-0.4-6.3c0.1-2.3,1.5-4.7-0.2-7
			C304.3,290.8,303.8,290,304.3,289z"/>
		<path class="st22" d="M392,291.8c1.3-2,2.9-4.2,5.5-3c2.4,1.1,1.5,3.7,1.3,5.8c-0.5,4.1-1.1,8.1-1.7,12.2c0.6,0.6,1.6,0.9,1,2
			c-4,2.1-4.3-0.6-4-3.3c0.5-4.5,1.3-9,1.9-13.4c-1.6-0.8-2.3,0-3.1,0.6C392.1,292.9,391.5,292.8,392,291.8z"/>
		<path class="st16" d="M334,338.7c0.5-1.8,1.8-2.6,3.8-2.8c2.4,3.1,1.8,7,2.5,10.6c0.3,1.8-1,4.4,2,5.3c0.8-0.4,1.2,0.1,1.4,0.8
			c0,0.5-0.1,0.8-0.5,1.1c-1.2,0.8-1.5,2.6-3.6,2.8c-2.7-3.5-1.7-7.9-2.6-11.9c-0.4-2,1.2-5.2-2.6-5.7L334,338.7z"/>
		<path class="st23" d="M319.1,355.6c-1.3,1.4-2.7,1.8-4.5,0.8c-2.3-5.5,3.3-11.8-0.9-17.9c1-1.1,3.2-1.6,5.9-2.2
			c-0.8,5.2-1.7,10-2.3,14.9c-0.1,1.2-1.7,3.7,1.7,3.2c0.3,0.3,0.4,0.5,0.3,0.8C319.3,355.5,319.2,355.6,319.1,355.6z"/>
		<path class="st24" d="M210.4,308.7c0-0.4-0.1-0.8-0.1-1.1c3.8-2,2.1-6,3.3-8.7c-1.4-1.7-2.9-0.8-4.2-0.9c0,0-0.4-0.1-0.4-0.1
			c-0.3-0.1-0.5-0.3-0.6-0.6c0,0-0.1-0.4-0.1-0.4c2.5-2.4,5.4-1.8,9.2-1.5c-2.3,6.6-0.7,14-6.2,19.4c0,0-0.4-0.1-0.4-0.1
			c0,0-0.3-0.3-0.3-0.3c0,0-0.1-0.4-0.1-0.4C210.3,312.1,213.3,310.4,210.4,308.7z"/>
		<path class="st18" d="M298.2,346.7c-2.4,2.9-0.5,7.8-5.6,11.5c1-6.4,1.8-11.2,2.4-16c0.2-1.7,0.9-4.3-2.5-2.3
			c-0.3,0.2-0.6,0.3-1,0.3c-0.1-0.1-0.2-0.3-0.4-0.4c1.1-1.9,2.5-3.4,4.6-4c3,1.2,2.3,3.7,2.2,5.9
			C297.5,343.4,298.9,345,298.2,346.7z"/>
		<path class="st18" d="M426.1,306.1c-0.5,1.4-1.2,2.7-3.4,2.8c-2.7-3.9-1.5-8.8-2.5-13.1c-0.4-1.7,0.2-3.7-1.9-4.7
			c-0.2-0.2-0.3-0.3-0.5-0.5c0.6-1.6,1.7-2.2,3.7-1.9c2.4,3.6,1.4,8.1,2.4,12.1c0.3,1.4-0.7,3.6,2,3.7
			C426.4,305,426.5,305.5,426.1,306.1z"/>
		<path class="st25" d="M372.8,299.8c1.1-2.6,2.3-5.1,2.4-8c0.1-2,0.5-3.7,3.5-2.5c-0.9,5.8-1.8,11.6-2.6,17.1
			c1.1,1.5,2,0.1,2.9,0.3l0.2,0.2c-0.8,2.1-2.6,3.3-4.5,2.6c-2.6-1-1.4-3.6-1.4-5.6C373.6,302.4,372.9,301.2,372.8,299.8z"/>
		<path class="st10" d="M362.9,290.7c1-2,2.6-2.4,4.8-2c1.8,3.4,0,6.8,0,10.1c0,2.6-2.3,5.4,0.3,7.9c1-0.3,1.4,0,1.2,1.1
			c-1.1,1.4-2.3,2.5-4.1,1.5c-1.5-0.8-1.4-2.5-1.3-4c0.4-3.7,1.1-7.5,1.5-11.2c0.2-1.4,1.1-3.6-1.9-3.1L362.9,290.7z"/>
		<path class="st26" d="M437,337.8c1.2-0.5,2.4-1,4.4-1.8c-0.8,5.4-1.6,10.1-2.2,14.8c-0.1,1.3-1.8,3.9,1.7,3.7
			c0.3,0.2,0.4,0.4,0.3,0.6c-0.1,0.2-0.2,0.3-0.3,0.3c-1.2,1.5-2.6,1.9-4.6,0.9c-1.7-5.5,2-11,0.6-16.6
			C436.4,339.1,436.4,338.5,437,337.8z"/>
		<path class="st27" d="M224.3,292.6c0.7-0.7,1.3-1.5,2-2.2c0.4,0.2,0.6,0.5,0.8,0.9c0.1,0.4,0.1,0.8,0,1.2
			c-0.1,0.6-0.4,1.1-0.6,1.7c-0.1,0.4-0.3,0.7-0.4,1.1c-0.2,0.5-0.3,1.1-0.2,1.7c0.1,0.8,0.5,1.4,1,2c0.4,0.5,0.7,1,0.6,1.7
			c-1.7,0.7-4.1,0.5-3.2,3.7c0.8,3.2,2.6,3.4,5.2,2.5c1.1-0.4,1.2,0.1,1,1c-2.3,1.4-4.6,3.1-7.2,1.1c-2.5-1.9-2.7-4.8-2.3-7.7
			c0.3-2.6,0.9-5.2,2.7-7.3C223.7,293.5,224.1,293.1,224.3,292.6z"/>
		<path class="st28" d="M469.9,355.7c-5.8,2.6-9,0.7-8.8-5.5c0.1-4.4,1.4-8.4,4.8-11.4c0.7,0.2,1.2,0.6,1.4,1.3
			c-0.1,2.4-1.5,4.7-0.9,7.3c0,0.5-0.2,0.9-0.5,1.2c-2.5,3.6-1.7,5.3,2.9,6.1C469.9,354.2,470,354.8,469.9,355.7z"/>
		<path class="st16" d="M389.1,298.8c-2.7,2.9-0.1,8.5-5.6,11.2c0.9-7,1.6-13,2.4-19c-0.3-0.7-1.4-1-0.8-2c6.5-1.4,3.1,3.5,3.8,5.9
			c0.2,0.7,0.3,1.5,0.2,2.3C389,297.7,389.1,298.3,389.1,298.8z"/>
		<path class="st27" d="M284.2,336.8c1.3-0.9,2.7-1.5,4.1-0.1c0.6,2.7,0.4,5.4,1,8.1c-2.4,3.7-1.6,8.9-4.5,12.4
			c-0.6-0.2-1.1-0.4-1.7-0.6c0.8-4.9,1.5-9.9,2.3-14.8C286.7,339.8,284.5,338.5,284.2,336.8z"/>
		<path class="st25" d="M267.3,299.9c2.6-3.2,0.8-8.6,6-10.6c-0.7,4.2-1.5,8.4-2.2,12.5c-1,2.5-0.1,4.7,1.1,6.8
			c-1.3,1-2.6,1.7-4.1,0.2c-0.8-1.9,0.1-4.1-0.9-6C267.1,301.9,267,300.9,267.3,299.9z"/>
		<path class="st29" d="M168.5,355.9c-4.1,2.6-6.6,0.9-7.5-3.3c-1.1-5.3,0.4-10,4.5-13.8c0.2,0.1,0.4,0.2,0.7,0.2
			c0.4,0.3,0.6,0.7,0.7,1.2c-0.2,2.7-1.2,5.4-1.2,8.2c0,2.7,0.7,4.8,3,6.3C168.9,355.1,168.8,355.5,168.5,355.9z"/>
		<path class="st30" d="M445.9,187.8c6.8-0.2,13.1-2.1,18.7-5.4c-0.2,0.7,6.3,0.3,1.3,3.6c-0.5,0.4-1,0.8-1.6,1
			c-1.6,0.4-3.2,0.9-4.7,1.5c-1.1,0.5-2,1.2-2.9,2c-0.5,0.4-1,0.7-1.6,0.3c-2.5-2.9-6.4,0.1-9-2.2c-0.3-0.2-0.4-0.4-0.4-0.6
			C445.8,187.9,445.9,187.8,445.9,187.8z"/>
		<path class="st31" d="M215.4,355.8c-3,2.5-6,2.2-8.1-0.8c-2.9-4.4-2.4-8.8,2-12.2c0.2,0.1,0.4,0.1,0.7,0.2
			c0.4,0.3,0.6,0.7,0.8,1.1c0.3,3.5-1.4,7.6,3.1,9.8c0.6,0.4,0.9,1,1.3,1.5C215.3,355.5,215.4,355.6,215.4,355.8z"/>
		<path class="st32" d="M237.5,110.3c-0.3,3-0.4,5.9,0.7,8.8c1.5,3.9,4.1,5.5,8.2,4.2c0.3,0.2,0.5,0.4,0.4,0.7
			c-0.1,0.3-0.2,0.4-0.3,0.4c-6.5,3.3-11.5-0.1-11.9-8.2c-0.1-2.5,0.5-4.9,1.9-7.1C237.3,108.9,237.9,109.1,237.5,110.3z"/>
		<path class="st33" d="M484.9,337.6c-5.6,0.6-3.5,3.7-2,6.5c1.7,3,4.9,5.7,2,9.6c-0.5,0.4-0.9,0.4-1.3-0.1c0.5-3.6-2.5-5.5-3.8-8.2
			c-1.3-2.6-1.3-5.1,0.7-7.2c1.9-2,4-3.4,6.9-1.6C486.8,337.7,485.7,337.3,484.9,337.6z"/>
		<path class="st34" d="M160.3,186.9c0.6-1.1,1.1-2.2,2-3.9c4.9,5,11.7,6.9,15.3,12.9c0.4,0.9,0,1.2-0.8,1.5c-2.8-0.9-5-2.8-7.3-4.5
			c-0.2-0.3-0.4-0.7-0.7-1c0.1,0.8-0.3,1.1-0.9,1.3c-2.6-1.1-3.6-4.6-6.9-4.7C160.3,188.1,159.9,187.7,160.3,186.9z"/>
		<path class="st19" d="M352.1,308.7c-4.1,2.4-6.3,0.4-7.2-3.5c-1-4.5,0.1-8.8,3.1-12.4c0.9-0.3,1.4,0.2,1.7,1
			c0.6,2.3-0.3,4.6-0.3,6.9c0,2.6,0.5,4.9,2.6,6.7C352.4,307.8,352.4,308.3,352.1,308.7z"/>
		<path class="st35" d="M482,232.8c1.3,0.7,3.6-0.1,3.8,2.8c-1.7,0.8-5.8-0.4-4.6,3.9c-0.2-1.2-0.5-2.4-0.7-3.7
			c-4-0.7-7.7-1.5-11.6-0.9c-0.7,0.6-1.3,0.6-1.9-0.1c-0.2-0.3-0.2-0.6,0-1c0.3-0.4,0.7-0.8,0.7-1.3c4-2,8,0.6,12,0.1
			C480.5,232.3,481.2,232.3,482,232.8z"/>
		<path class="st36" d="M385,348.6c-2.3,2.5-1.1,4.4,1,6.2c0.6,0.5,1.6,0.8,1,1.9c-4.1,1.2-5.9-1.2-6.3-4.7c-0.6-5.5,1-10.3,5.3-14
			c0.5,0.1,0.8,0.3,1.2,0.6c0.1,0.2,0.1,0.4,0.2,0.6c-0.5,2.7-2.4,5.1-1.9,8.1C385.5,347.8,385.4,348.2,385,348.6z"/>
		<path class="st16" d="M449.1,343c-0.2,2.6-0.7,5.2-0.7,7.8c0,2.7,1.4,4.3,4.4,3.9c1.1-0.6,1.1,0,1.1,0.8c-5.7,2.8-8.9,1-8.9-5.1
			c0-3.5,0.9-6.8,3.1-9.6C449.8,340.9,449.4,341.9,449.1,343z"/>
		<path class="st34" d="M298,113.8c-0.1-5.4,2.7-10.7,0.7-16.5c1.4-0.2,2.6-2.5,4.4-0.4c-1,2.1,1.1,4.1,0.3,6.2
			c-0.5,1.9-0.5,3.9,0.3,5.8c0,0.5-0.1,0.9-0.4,1.2c-3.1,0.2-2.5,3.4-4,4.9C298.2,115.2,297.5,115,298,113.8z"/>
		<path class="st37" d="M271.3,351.7c-0.7,0.9-1.3,1.9-2,2.8c-1.3,1.5-2.7,3.1-5,2.3c-2.4-0.8-2.1-3-2.2-5c0-3.7,1-7.1,3.3-10.1
			c1.3-0.2,1.6,0.8,1.9,1.7c0.6,2.3-1.1,4.6-0.2,6.9c1.1,1.1,2.2-0.3,3.2,0.4l0.2,0.3c0.2,0.1,0.5,0.2,0.7,0.3
			C271.2,351.4,271.3,351.7,271.3,351.7z"/>
		<path class="st18" d="M187.5,337.9c1.2-1.5,2.6-2.7,4.6-1.7c1.7,0.9,1.8,2.7,1.8,4.3c0,4.6-1.4,8.8-4.5,12.3
			c-0.2-0.1-0.4-0.2-0.7-0.2c-0.4-0.3-0.6-0.7-0.8-1.1c-0.2-3.9,2.7-7.8-0.1-11.7C187.5,339.2,187.1,338.6,187.5,337.9z"/>
		<path class="st19" d="M301.1,307.7c-1.2,1.5-2.6,2.6-4.6,1.6c-1.7-0.9-1.8-2.7-1.8-4.3c0-4.6,1.3-8.7,4.4-12.2
			c0.2,0.1,0.4,0.2,0.7,0.2c0.4,0.3,0.6,0.7,0.8,1.1c0.2,3.9-2.7,7.8,0.1,11.7C301.1,306.4,301.5,306.9,301.1,307.7z"/>
		<path class="st38" d="M145.3,215.7c4.1-5.9,11.5-4.5,16.2,3.1c0.4,1-0.2,1.3-0.9,1.5c-4.6-2.2-9.3-4.2-14.6-2.9
			C145.3,217,144.9,216.6,145.3,215.7z"/>
		<path class="st39" d="M195.5,160.2c-0.7,0.4-1.4,1.1-2,1c-2.8-0.6-10.4-11.7-10.5-15c2-0.7,2.3,2.9,4.4,1.9l-0.1-0.1
			c0.1,4.6,4.2,6.8,6.1,10.3C194.3,158.7,196,158.1,195.5,160.2z"/>
		<path class="st14" d="M277.5,309.9c-0.9-5.7-1.2-11.2,2.8-16c0.9-0.3,1.3,0.2,1.7,0.8c1.3,3.2-2,6.8,1,9.8
			c0.4,0.2,0.8,0.5,1.1,0.8c0.3,0.3,0.5,0.8,0.5,1.2c-1,2.8-3.1,4-5.9,4.1C278.2,310.4,277.8,310.2,277.5,309.9z"/>
		<path class="st13" d="M172.7,336.6c4.4,4.9,3.5,11.9-2.4,18c-0.2-0.1-0.5-0.2-0.7-0.3c-0.4-0.4-0.6-0.8-0.6-1.3
			c1.7-5.2,2.2-10.4,1.1-15.8C170.7,336.2,171.6,336.2,172.7,336.6z"/>
		<path class="st40" d="M288.2,99.1c-5.2,1.2-4.6,6-5.8,9.6c-0.4,1.4,0.8,3.3-1.7,4.5c-1.9-4,0-8.4-1.4-12.3
			c-0.8-0.4-1.7-0.7-1.1-1.9c4.4-2.6,3.5,1.6,4.5,3.5c1.8-1.6,1.8-4.7,4.5-5.5C288.1,97.4,288.6,98,288.2,99.1z"/>
		<path class="st41" d="M352.2,289.1c4.6-1.7,6.5,0.8,7,4.8c0.5,4-0.3,7.8-3,11c-0.9,0.3-1.3-0.2-1.7-0.9c-0.7-4.3,1.8-9-1.7-12.9
			C352.3,290.5,352,289.8,352.2,289.1z"/>
		<path class="st42" d="M324.2,96.1c1.8,0,3.5,0,5.8,0c-0.8,3.5-1.5,6.7-2.2,10c-0.3,1.3-1.4,3,1.3,3.1c0.3,0.2,0.4,0.4,0.2,0.6
			c-0.1,0.1-0.2,0.2-0.3,0.2c-1.3,0.8-2.7,1.5-4.1,0.2c-0.4-1.6-0.2-3.3-1.3-4.6c-0.9-2.8,2.4-5.4,0.2-8.2
			C323.7,96.8,323.8,96.4,324.2,96.1z"/>
		<path class="st25" d="M242.4,308c-3.8,3.3-5.6,1.6-6-2.5c-0.4-3.9,0.8-7.4,3-10.7c1.4-0.3,1.6,0.8,2,1.7c0.9,3.1-1.8,6.5,0.8,9.5
			C242.6,306.6,242.8,307.3,242.4,308z"/>
		<path class="st43" d="M464,204c-1.2,1.1-1.2,2.4-0.8,3.9c-0.4,0.5-0.8,0.5-1.3,0.1c-1.7-2.4-1.7-4.8,0.8-6.4
			c3.8-2.5,7.7-1.5,11.1,0.9c1.9,1.4,4.7,3.1,2.1,6.3c-0.8-0.4-1.4-1.1-1.9-1.8c-1.4-2.4-3.9-2.6-6.2-3
			C466.4,203.6,465.2,202.9,464,204z"/>
		<path class="st44" d="M223.5,124.7c-0.2,2.5-1.4,4.1-3.7,4.1c-2,0-3.4-1.5-3.4-3.6c0-2.3,1.3-3.9,3.6-3.9
			C222.1,121.3,223.1,122.9,223.5,124.7z"/>
		<path class="st45" d="M204.5,141c0.3-2.7-3.2-4.9-0.9-9.3c3,6.1,5.4,11.2,7.9,16.2c0.4,1.1,0.9,2.2-1,2.2
			c-1.1-1.9-2.1-3.9-3.2-5.8C205.8,143.6,205.3,142.1,204.5,141z"/>
		<path class="st46" d="M414.5,135.5c-2.2-0.4-3.7-1.6-3.5-4c0.1-2.1,1.3-3.5,3.5-3.4c2.3,0.1,3.6,1.6,3.6,3.9
			C418,134.3,416.4,135.1,414.5,135.5z"/>
		<path class="st39" d="M189.5,167c-2.2,3.8-3.5,0.9-5.2-0.6c-2.1-1.8-2.7-5.7-6.8-5.2c0.3-1.6,0.6-3.2,2-4.4c3.5,2.5,4.8,7.1,8.7,9
			C189.3,165.7,189.8,166,189.5,167z"/>
		<path class="st47" d="M389.2,111.2c2.3,0,4.3,0.4,3.6,3.5c-0.2,1-0.4,2-1.1,2.7c-0.5,0.6-1.1,1.1-1.6,1.8
			c-2.4,1.3-3.4,4.6-7.4,5.6c1.2-4.1,4-6,5.5-8.7c0.6-1.2,3.2-2.1,0.9-4c-0.4-0.2-0.5-0.4-0.3-0.6
			C388.9,111.3,389,111.2,389.2,111.2z"/>
		<path class="st40" d="M435,147c-2.4,0.5-4.2,2.8-7,2.2c-0.3-0.3-0.4-0.5-0.3-0.8c0.1-0.3,0.1-0.4,0.2-0.4c3.6-2.7,7.2-5.3,10.9-8
			c0.5-0.4,0.6-1,1.2-1.3c0.6,0.5,1.3,1,1.9,1.5c0.2,0.3,0.3,0.5,0.3,0.8c0,0.3,0,0.5-0.1,0.5c-1.5,2.6-3.9,4.1-6.5,5.4
			C435.5,146.9,435.2,147,435,147z"/>
		<path class="st29" d="M385,348.6c0-0.3,0-0.6,0-0.9c-0.4-1.5,1-1.9,1.7-2.6c2.1-2,2.5-4.1,0.3-6.3l-0.4-0.3
			c0.1-0.4,0.2-0.8,0.3-1.2c1.4-1.3,3.1-2.1,4.8-0.8c1.9,1.3,1.8,3.5,1.3,5.4C392,345.9,389.3,348.1,385,348.6z"/>
		<path class="st48" d="M143.6,225.9c0-0.6,0-1.3,0-1.9c0.6-0.6,1.3-0.9,2.1-1c5,1.2,10.7,1.3,13.4,7c0,0.6-0.3,1-0.7,1.4
			c-4-1.5-7.9-3-11.9-4.5C145.7,226,144.3,227,143.6,225.9z"/>
		<path class="st49" d="M165.2,176.9c1.1-4.1,3.5-0.6,5.2-0.8c0.2,0.1,0.3,0.2,0.5,0.3c0.3,0.3,0.5,0.7,0.6,1
			c0.4,0.8,1.2,1.1,1.8,1.6c0.9,2.3,4.6,3.2,3.7,7.4c-3.6-3.1-6.6-5.8-9.7-8.4c-0.3-0.3-0.7-0.3-1,0l0,0
			C165.4,178.2,165,177.9,165.2,176.9z"/>
		<path class="st50" d="M477.8,219.1c-7.9-2.4-10.6-1.4-10.8,3.8c-0.3,0.4-0.6,0.4-0.9,0c-1.6-1.9-2-4-0.4-5.9
			c1.9-2.3,4.6-2.4,7.3-1.7c2.1,0.6,4.1,1.3,5.3,3.3C478,218.8,477.9,219,477.8,219.1z"/>
		<path class="st51" d="M205.4,150.1c-3,0.7-4.2-2.1-6.1-3.4c-1.9-1.3-3.3-3.5-6.3-3.3c0.8-3.5,2.4-3,4.6-1.6
			c2.6,1.6,3.9,5.1,7.6,4.9C206.1,147.8,206,148.9,205.4,150.1z"/>
		<path class="st52" d="M393.9,129.2c-3.3-0.7-2.3-2.4-1.2-4.3c1.6-2.6,4.4-4.4,5.1-7.7c-0.1-1.9,0.9-1.8,2.2-1.2
			c2.3,2.4-0.5,3.7-1.3,5.4c-1.1,2.4-4.3,3.5-3.8,6.7C395.2,129.1,395,129.5,393.9,129.2z"/>
		<path class="st39" d="M154.4,205c0-1.3,0-2.5,0-4c4.2,2.1,8,3.9,11.8,5.8c0.5-0.4,0.9-0.4,1.3,0.2c0.1,3.3-1.6,3-3.8,2
			c-2.7-1.2-4.9-3.4-8-3.8C155.2,205.5,154.8,205.5,154.4,205z"/>
		<path class="st45" d="M360,116.2c-2.3-4.7,3.2-7.6,2.9-11.8c-0.4-0.5-0.3-0.9,0.3-1.3c1.1-0.1,2.3-0.1,3.7-0.2
			c-1.2,4.5-4.3,7.8-4.7,12.1C362.2,116.9,361.1,116.6,360,116.2z"/>
		<path class="st53" d="M282.2,320.7c-3.1,1.8-6.3,1.5-8.3-1.4c-2.2-3.3-0.4-6.2,2.4-8.4c0.2,0.1,0.4,0.2,0.7,0.3
			c0.4,0.3,0.6,0.7,0.7,1.2c-0.6,3.7,1.1,6,4.5,7.2C282.5,319.8,282.5,320.3,282.2,320.7z"/>
		<path class="st47" d="M440,160.9c-5.8,0.9-7.1-1.8-5.5-6.9c0.5-1.6,0.9-3.2,1.3-4.8c-0.2-0.5-0.2-0.9,0-1.4c1.1-0.4,1.9,0.2,2.5,1
			c0.1,0.5,0.1,0.9-0.2,1.4c0.4,3.6-4.3,8.1,1.8,10.8L440,160.9z"/>
		<path class="st54" d="M182.6,176.2c-2.7,2.4-3.7-0.6-5.2-1.6c-2-1.4-3.3-3.8-5.8-4.5c-1.9,0.1-1.8-0.8-1.1-2.1
			c5.5-1.7,6.5,4.2,10,6C181,174.9,183.2,174.1,182.6,176.2z"/>
		<path class="st55" d="M227.3,300.6c-0.4-0.3-0.8-0.5-1.1-0.8c0.4-2.8,3.7-4.5,2.7-7.8c0-1-1-1.9-0.5-3c1.7-0.8,3.3-0.9,4.3,0.8
			c1.2,2,1,4.1,0,6.1C231.6,298.2,229.9,299.9,227.3,300.6z"/>
		<path class="st56" d="M307.2,96c4.9-2.6,5.3,0.7,5,4.1c-0.2,2-1.3,3.9-2,5.9c-0.3,0.4-0.7,0.7-0.9,1.1l0,0
			c-0.5,0.2-0.9,0.1-1.3-0.3c-1.5-3.1,0.9-6.6-1.1-9.6C306.7,96.8,306.8,96.4,307.2,96z"/>
		<path class="st57" d="M270.4,100.2c1.6-0.4,2.8-0.4,3,1.7c0.5,1.7,0.9,3.4,0.9,5.2c-1.1,2.5,0.4,5.8-3.2,9c0-5.2,0-9.1,0-13
			C270.8,102.2,269.8,101.4,270.4,100.2z"/>
		<path class="st58" d="M257.3,105.1c4.2-2.9,7.5-1.1,7.9,4.1c0.2,2-0.4,3.9-1.2,5.7c-2.6-0.4-1.6-2.9-2.5-4.3c-0.6-2.2-2-3.7-3.8-5
			C257.5,105.5,257.4,105.3,257.3,105.1z"/>
		<path class="st59" d="M320.3,109.4c-1.3,1.5-2.9,1.6-4.3,0.5c-1.5-1.1-1.1-2.9-0.8-4.5c0.4-2.1,1.2-4,2.9-5.4
			c0.2,0.1,0.4,0.1,0.7,0.2c0.4,0.3,0.7,0.6,0.8,1c0.2,2.4-0.3,4.8,1.1,7C320.7,108.6,320.6,109,320.3,109.4z"/>
		<path class="st59" d="M260.2,119c-2,1.3-3.9,1.1-5.3-0.6c-2.7-3.2-2.1-6.7-0.5-10.2c2.9,0.6,1.7,3.4,2.6,5c0.5,2,2.2,3.2,3.5,4.7
			C260.7,118.3,260.6,118.7,260.2,119z"/>
		<path class="st60" d="M370,119.1c-4.6-5.2-0.8-8.1,3-11.1c0.2,0.1,0.4,0.2,0.7,0.2c0.4,0.3,0.6,0.7,0.7,1.2c0,0.2,0,0.5-0.1,0.7
			c-1.4,2.6-2.1,5.5-2,8.5C371.8,119.6,371,119.8,370,119.1z"/>
		<path class="st49" d="M442,141c0-0.3,0-0.5-0.1-0.8c0.2,0,0.5,0,0.7,0c0.6,0.2,1.1,0.4,1.2,1.1l-0.1-0.1c0.6,0.1,0.9,0.6,1.1,1.1
			c0.9,1.9,3.3,3.6,1.5,6c-1.6,2.2-3.8,2.8-6.4,1.7c-0.2-0.2-0.4-0.5-0.3-0.8c0-0.3,0.1-0.4,0.1-0.4
			C442.7,146.8,441.9,143.8,442,141z"/>
		<path class="st40" d="M443.9,163.2c-2.5-0.2-2.6,1.6-2.8,3.4c0.4,0.6,0.3,1.2-0.3,1.6c-3.4-2.1-2-4.7-0.9-7.3c0,0-0.1,0.1-0.1,0.1
			c1-0.4,1.9-0.7,2.9-1.1c0.6-0.5,1.5-0.3,2.1-0.8c1.3,0,2.7-0.1,4-0.1c0.2,0.2,0.4,0.4,0.3,0.6c0,0.3,0,0.4-0.1,0.4
			c-0.3,0.3-0.6,0.5-0.9,0.7c-0.7,0.3-1.4,0.7-1.9,1.2C445.6,162.6,445.1,163.6,443.9,163.2z"/>
		<path class="st61" d="M448.1,160.1c0.3,0.1,0.6,0.1,0.8-0.1c0.4-0.5,1-0.4,1.6-0.4c0.4,0.1,0.7,0.2,1.1,0.4c0.5,0.3,1,0.7,1.4,1
			l-0.1-0.1c0,4.4-0.8,4.9-7,4.1c-1-0.2-1.7-0.8-2-1.8c0.7-0.8,1.4-1.7,2.1-2.5C446.7,160.5,447.5,160.5,448.1,160.1z"/>
		<path class="st62" d="M288.2,99.1c-0.3-0.7-0.7-1.4-1-2c1.4-1.1,2.5-0.9,3.1,0.8c1.2,3.7-0.4,7.6,0.9,11.2l0.1-0.1
			c0.4,0.5,0.3,0.9-0.1,1.3c-0.7,0.3-1.5,0.3-2.1-0.2C287.6,106.5,288.8,102.7,288.2,99.1z"/>
		<path class="st55" d="M466.9,337.8c1.7-1.9,3.9-3.1,5.8-0.9c2.3,2.6,1.5,5.5-0.7,8c-0.8,0.4-1.2,0-1.7-0.5
			c-0.8-1.6-0.6-3.8-2.5-4.9c-0.3-0.3-0.6-0.6-0.8-1C467,338.2,467,338,466.9,337.8z"/>
		<path class="st40" d="M169.2,201.1c-4,0.6-6.2-1.8-7.9-4.9c-0.5-0.8,0-1.2,0.6-1.6c2.8-0.3,5.1,2.9,8.1,1.1c0.5,0.2,0.8,0.5,1.1,1
			c0.6,1.6,0.6,3.1-0.5,4.5C170.2,201.4,169.7,201.4,169.2,201.1z"/>
		<path class="st63" d="M380.2,106.9c4.5,3.4,3.8,6.7-2.1,11.2c-0.2-0.1-0.4-0.2-0.7-0.2c-0.4-0.3-0.6-0.7-0.7-1.2
			c0-0.2,0-0.5,0-0.7c1.3-2.6,2.2-5.4,1.9-8.4C379,107,379.4,106.4,380.2,106.9z"/>
		<path class="st64" d="M451.9,178.9c2.5-2.2,0.8-6.8,4.8-8.1c0.8-0.3,1.5-0.5,2.2,0.2l0,0c0.4,0.2,0.5,0.4,0.3,0.6
			c-0.1,0.2-0.3,0.3-0.4,0.3c-2.2,0.9-2.2,3-2.9,4.8c-0.7,2-1.3,4.2-4.2,3.5C451.3,179.7,451.3,179.3,451.9,178.9z"/>
		<path class="st65" d="M221.4,347.8c2.5-2.3-4.4-3.9-0.4-6.2c2.1,0.3,4.8-1.8,6.3,1.3c-2.1,1.2-3.8,2.8-4.8,5
			C222.1,348.2,221.8,348.2,221.4,347.8z"/>
		<path class="st66" d="M254.5,331.2c-0.7-1.4-2-1.4-3.2-1.5c3.8-1.5,7.7-0.5,11.5-0.6c0.7,1.9-0.3,3.4-0.9,5.2
			C260.4,330.4,257.7,330,254.5,331.2z"/>
		<path class="st48" d="M351.9,110.7c-0.6-3.2-5.2-5.7-1.7-9.6c1-0.3,1.3,0.1,1,1c0.8,1.9,1.5,3.9,2.3,5.8c0.8,1.9,0.7,3.5-1.4,4.4
			C351.6,111.9,351.6,111.3,351.9,110.7z"/>
		<path class="st67" d="M426.9,344.6c0.9-2.6,1.7-5.3,0.9-7.9c1.4-1.1,2.6-1.3,3.1,0.1c1.2,3.6-1.1,6.2-2.9,8.9
			C427,345.9,426.5,345.8,426.9,344.6z"/>
		<path class="st68" d="M470.9,190c2.4,3.4-0.2,4.3-2.6,5.2c-2.5,0.4-5.1,0.5-7.6-0.1c-0.3,0.1-0.6,0-0.8-0.2
			c-0.3-0.4-0.3-0.9,0.1-1.2c2.4-1.4,5.4-1.2,7.8-2.7C468.8,190.5,469.6,189.3,470.9,190z"/>
		<path class="st69" d="M372.1,355c0,0.3,0,0.7,0,1c-3.2,2.7-6.3,1.4-10.1-0.2C365.5,351.1,369.2,357.8,372.1,355z"/>
		<path class="st70" d="M371,329.4c2.7-2,5.2-0.9,7.6,0.2c0.6,1.7,0.5,3-0.5,4.3c-0.3,0.3-0.6,0.3-0.9-0.1c-0.8-3.6-3.2-4-6.2-3.1
			C370.5,330.2,370.5,329.8,371,329.4z"/>
		<path class="st71" d="M187.5,337.9c0.4,0.3,0.8,0.7,1.2,1c-0.9,3.8-2.4,7.2-6.1,9c0.1-2.7-1-5.6,0.8-8.2c0.1,0.8,0.1,1.6,0.2,2.7
			C185,340.8,186.2,339.4,187.5,337.9z"/>
		<path class="st72" d="M330.1,327.8c2.2-3.4,5.1-4.6,9.3-3.3c-1.6,4.4-6.2,0.4-7.9,3.4c-0.4,0.1-0.8,0.3-1.1,0.5
			C330.2,328.2,330.1,328,330.1,327.8z"/>
		<path class="st73" d="M186.4,327.7c-0.3-0.3-0.5-0.6-0.8-0.9c2.1-2.8,4.9-3.5,8.4-2.6C192.9,329.2,188,324.8,186.4,327.7z"/>
		<path class="st74" d="M218.4,328.6c1.8,0,2.8,0.8,3.1,2.6c0.4,1.3,0.5,2.6,0,3.9c0.1,0.3,0.1,0.5-0.2,0.7
			c-0.3,0.4-0.7,0.7-0.8,1.3c-0.6,0.6-1.2,1.2-1.9,1.8c-0.4,0.2-0.8,0.2-1.2,0.2c-0.3-0.3-0.5-0.7-0.4-1.1c0.1-0.6,0.3-1.2,0.6-1.7
			c0.2-0.6,0.4-1.1,0.4-1.7c0.2-1.7-0.5-3.3-0.3-4.9C217.8,329.2,218.1,328.9,218.4,328.6z"/>
		<path class="st71" d="M209.4,315.9c-2.9,2.1-5.7,1.1-8.9-0.4c3.1-3.9,6.2,1.3,8.9-0.6c0.3,0.2,0.4,0.5,0.3,0.7
			C209.6,315.8,209.5,315.9,209.4,315.9z"/>
		<path class="st47" d="M338.2,99.1c0,0.6,0,1.2,0,1.8c0.2,0.4,0.4,0.8,0.6,1.2c0.3,0.2,0.4,0.4,0.4,0.8c0.2,0.5,0.5,0.9,0.9,1.3
			l0,0c0.3,0.3,0.5,0.6,0.7,1c0.1,0.3,0.2,0.6,0.3,0.9c0.5,0.8,0.5,1.5,0,2.3c0.1,0.3,0,0.6-0.3,0.7c-1.8,0.4-0.9-1.5-1.7-1.9
			c-0.2-0.1-0.3-0.3-0.2-0.6c-0.1-0.6-0.4-1-0.9-1.4l0,0c-0.3-0.4-0.5-0.7-0.8-1.1c-1.4-1.6-2.2-3.3-0.4-5.1
			C337.4,98.6,337.8,98.6,338.2,99.1z"/>
		<path class="st75" d="M445.9,165c2.6-0.9,6.8,0.9,7-4.1c2.3,0.5,2.5,2.1,1.4,3.6c-1.9,2.7-4.6,1.8-7.2,1.2
			C446.7,165.7,446.3,165.3,445.9,165L445.9,165z"/>
		<path class="st76" d="M470.9,190c-0.7,0.7-1.4,1.3-2.1,2c-3-2.2-7.2-1.5-10-4.1c1.8-0.6,3.5-1.1,5.3-1.7c0.5,0.4,1.3,0.3,1.7,1
			l0,0c0.6,0.4,1.4,0.4,2.1,0.7C468.9,188.5,469.9,189.2,470.9,190z"/>
		<path class="st77" d="M251.2,329.7c0,0.4,0,0.8,0,1.2c-4.3,0.3-5.5,3.4-6.2,6.9c-0.2,0.4-0.5,0.7-0.8,1l0,0
			c-2.2-0.1-1.2-1.6-1.2-2.6c0.1-0.5,0.3-0.9,0.4-1.4c0.2-0.4,0.4-0.7,0.7-1.1C245.7,330.9,248.1,329.5,251.2,329.7z"/>
		<path class="st78" d="M483.5,353.6c0.4,0,0.9,0.1,1.3,0.1c-2.2,3.9-5.5,3.8-9.5,2.5C477.3,351.5,481.9,357.5,483.5,353.6z"/>
		<path class="st74" d="M244.3,363.6c-2.2,1.3-4.3,1.5-6.3-0.2c-1.5-1.3-0.4-2.3,0.6-3.3c1.5,0.8,3,1.6,4.5,2.4
			C244,362.1,244.4,362.6,244.3,363.6z"/>
		<path class="st79" d="M237.1,250.7c0.4,0.7,0.7,1.4,1.1,2.1c-0.4,3.4-0.7,6.8-1.1,10.2C236.5,258.8,235.5,254.7,237.1,250.7z"/>
		<path class="st70" d="M217.6,281.7c2.2,1.7,0.1,3.2,0.6,5.6c-2.3-1.6-1.9-4-3.9-4.6c-1-1.2-3.5,0.8-3.9-1.7c1.6,0,3.3,0,4.9,0
			C216.1,281.4,216.9,281.4,217.6,281.7z"/>
		<path class="st80" d="M335.1,281.6c1.6-1.3,3.4-0.8,5.1-0.6c1,0.6,2.3,0.1,3.3,0.7c1.9,0.7,0.7,2,0.6,3.1c-0.6,0.6-1.1,0.6-1.7,0
			c-0.2-0.2-0.3-0.5-0.3-0.8c-0.2-0.5-0.6-0.9-1.2-1.1c-1.9-0.1-3.8-0.1-5.7-0.2C334.5,282.4,334.5,282,335.1,281.6z"/>
		<path class="st76" d="M427.9,148c0,0.4,0.1,0.8,0.1,1.3c-0.3,0.5-0.6,1.1-0.9,1.6c0,0.2-0.1,0.3-0.1,0.5c-0.2,0.3-0.4,0.5-0.7,0.7
			c-0.2,0-0.3,0.1-0.5,0.1c-1.5-1.4-3.1-2.8-5-4.6C423.8,146.3,425.7,149.2,427.9,148z"/>
		<path class="st81" d="M424,319c0.3,0.3,0.6,0.5,0.9,0.8c-2,2-4.3,2.6-7.2,1.3C418.8,316.7,422.1,320,424,319z"/>
		<path class="st82" d="M274.3,107.1c-1.8-1.5-1.2-3.4-0.9-5.2c0.3,0.5,0.7,1,1.1,1.6c1.5-1.4,1.6-3.8,3.7-4.5
			c0.4,0.6,0.8,1.3,1.1,1.9C275.9,101.6,276.4,105.4,274.3,107.1z"/>
		<path class="st83" d="M143.6,225.9c1.1-0.1,2.2-0.1,2.9,0.9c-5,3.9,0.3,4.5,2,6.2c0.3,0.2,0.5,0.5,0.7,0.8c0,0.3,0.1,0.7,0.1,1
			c-0.4,0.3-0.8,0.4-1.3,0.2l-0.3,0l-0.2-0.2c-0.3-0.4-0.7-0.7-1.3-0.9C143.3,232,143.3,229,143.6,225.9z"/>
		<path class="st84" d="M142.9,361.9c-2.2-0.8-3.1-1.8-0.7-4c1.6,1.7,3.3,3.7,6.1,2.5c0.5,0.4,0.5,0.8,0.1,1.3l0,0
			C146.7,362.6,144.8,362.2,142.9,361.9z"/>
		<path class="st85" d="M177.5,205c-1.7,2.5-3.4,4.5-6.1,1.1c-0.5-0.9,0.1-1.4,0.7-1.9c1.4-0.7,2.9-1.1,4.5-0.9
			C177.3,203.7,177.9,204,177.5,205z"/>
		<path class="st86" d="M400.1,116c-0.9,0.1-1.9,0-2.2,1.2c-3-0.8-5.1,1.5-7.8,2c-0.1-0.8-0.2-1.7,0.8-2.1c0.7-0.4,1.4-0.8,2.2-0.8
			C395.4,115.9,397.7,113.6,400.1,116z"/>
		<path class="st38" d="M413.3,337.4c-1.7,1-3,2.9-5.3,2.3c-0.3-0.2-0.6-0.4-0.9-0.5c0-0.2-0.1-0.3-0.1-0.5
			C408.7,336.1,410.5,334.3,413.3,337.4C413.3,337.5,413.3,337.4,413.3,337.4z"/>
		<path class="st87" d="M351.9,110.7c0.1,0.5,0.2,1.1,0.2,1.6c-2.9,2.3-5.5,1.8-8.3-0.7C346.7,110,349.8,114.5,351.9,110.7z"/>
		<path class="st88" d="M340.8,366.6c0.4,0,0.8,0.1,1.2,0.1c-2,2.9-4.9,1.9-7.8,2C335.5,364,338.8,367.8,340.8,366.6z"/>
		<path class="st89" d="M426.1,306.1c-0.1-0.6-0.2-1.1-0.3-1.7c1-1.9,2.1-3.8,3.1-5.7c0.8,1.7,1.8,3.3,0,5
			C426.9,303.2,427.4,305.8,426.1,306.1z"/>
		<path class="st90" d="M470.7,343.4c0.4,0.5,0.9,0.9,1.3,1.4c-1.4,2.4-3.5,3.5-6.1,3.7c0-0.4,0-0.8-0.1-1.2
			C466.6,345,468.3,343.8,470.7,343.4z"/>
		<path class="st91" d="M284.2,336.8c1.3,1.5,3.1,2.8,1.2,5c-0.1-0.9-0.3-1.9-0.4-2.8c-2.1-0.5-2.3,2.1-4.5,2.2
			C281.1,339,282.3,337.6,284.2,336.8z"/>
		<path class="st92" d="M250.3,224.9c1.1-2.6,2.7-4.8,4.9-6.6c-0.4,3-2.3,5.3-3.8,7.7C251.1,225.7,250.7,225.3,250.3,224.9z"/>
		<path class="st93" d="M160.5,219.9c0.3-0.3,0.7-0.7,1-1c0.4,0.4,0.7,0.8,1.1,1.1c0.3,0.7,0.4,1.5,0.7,2.3c0,0.9,0,1.8-0.1,2.7
			c-0.6,0.8-0.1,3.1-2.3,1.6C160,224.4,159.4,222.2,160.5,219.9z"/>
		<path class="st94" d="M409.1,294.1c-0.5-2.1,0.1-3.9,1.9-5.1c1.3,0,2.6,0,4.7,0C413.1,291.1,409,290,409.1,294.1z"/>
		<path class="st34" d="M291.2,109.1c-2-3.6-0.7-7.5-0.9-11.2C291.8,101.5,290.6,105.4,291.2,109.1z"/>
		<path class="st95" d="M457.9,336.8c1.5,1.8-0.6,3.1,0.3,5.7c-1.9-2.1-1.4-4.2-3.3-4.8c-0.5-0.5-1.5-0.7-1-1.7c0.7,0,1.3,0,2,0
			C456.5,336.4,457.4,336.2,457.9,336.8z"/>
		<path class="st96" d="M272.2,308.6c-2.7-1.9-2.6-4.2-1.1-6.8c0,1.6,0,3.2,0,4.7c1.5,1,2-0.8,3.1-0.8c0.3,0.2,0.4,0.4,0.3,0.6
			c-0.1,0.2-0.2,0.3-0.3,0.3C273.5,307.3,272.9,308,272.2,308.6z"/>
		<path class="st97" d="M162.6,230.1c-0.3,2.2-0.2,4.4-1.6,6.3c0,0.1-0.3,0-0.4,0c-0.1-0.1-0.2-0.3-0.3-0.4
			c-0.9-1.8-0.3-3.6-0.3-5.5c0.1-1.1,0.5-2.1,1.5-2.8C163.2,227.9,163,229,162.6,230.1z"/>
		<path class="st98" d="M281.4,295c-0.4-0.4-0.8-0.8-1.1-1.2c1.2-2.6,3.2-4.3,6-4.8c0,0.5,0,1.1,0,1.6
			C285.1,292.6,283.8,294.5,281.4,295z"/>
		<path class="st99" d="M338.2,99.1c-0.4,0-0.8-0.1-1.3-0.1c4.1-3.1,6.2-3,7.2,1C342.1,99,340.4,96.8,338.2,99.1z"/>
		<path class="st100" d="M292.2,118.1c1.4-0.3,2.7-0.7,4.1-1c0.1,0.2,0.2,0.3,0.3,0.5c-0.1,0.1-0.3,0.3-0.4,0.4
			c-1.3,1.8-3.3,2.2-5.2,1.9c-1.4-0.3-1.1-1.3,0.3-1.7C291.6,118.5,291.9,118.4,292.2,118.1z"/>
		<path class="st101" d="M170.4,168c0.1,0.9,0.1,1.7,1.1,2.1c-0.1,1.3-0.2,2.6-0.2,3.9c-0.3,0.5-0.6,0.5-0.9,0
			C169.1,172,168.6,170,170.4,168z"/>
		<path class="st102" d="M245.4,104.9c-2.3,0-4.3,0.6-6.1,2.2c-0.1-0.1-0.3-0.2-0.4-0.3c0.2-0.3,0.3-0.7,0.4-1
			c1.2-1.7,3-2.4,5.1-2.6C244.9,103.6,245.7,103.9,245.4,104.9z"/>
		<path class="st103" d="M176.6,196.8c0.3-0.3,0.6-0.7,1-1c1.4,1.9,2.2,3.9,1,6.2c-0.5,0.4-1,0.4-1.4,0
			C176.1,200.4,175.3,198.7,176.6,196.8z"/>
		<path class="st104" d="M474.8,206.9c0.4,0.6,0.7,1.2,1.1,1.8c-1.6,1.6-3.2,1.3-4.9,0.2c-0.3-0.3-0.4-0.5-0.3-0.8
			c0.1-0.3,0.1-0.4,0.2-0.4C472,206.7,473.3,206.2,474.8,206.9z"/>
		<path class="st105" d="M205.4,267.9c0,0.6,0,1.2,0,1.8c-2,0.4-3.7,0-6.1-1.8C202,267.9,203.7,267.9,205.4,267.9z"/>
		<path class="st38" d="M205.5,286.1c-0.4-0.4-0.9-0.9-1.3-1.3c0.9-1.6,2.3-2.5,4-3c1.1-0.5,1.3,0.1,1.1,1
			C208.1,283.9,206.8,285,205.5,286.1z"/>
		<path class="st106" d="M380.2,106.9c-0.4,0.3-0.7,0.5-1.1,0.8c-1.4,1.3-3.1,1.7-5,1.4l-0.3,0l-0.3-0.2l0-0.4l-0.4-0.1
			c-0.2-0.1-0.2-0.3-0.1-0.5C375.3,106.5,377.5,105.2,380.2,106.9z"/>
		<path class="st107" d="M423.2,352.8c-0.4-0.4-0.7-0.8-1.1-1.2c1.3-1.7,2.5-3.3,3.8-5c0.6,0.1,0.7,0.7,1,1.2
			C425.6,349.4,424.4,351.1,423.2,352.8z"/>
		<path class="st108" d="M244.3,363.6c-0.4-0.4-0.9-0.7-1.3-1.1c2.3-0.8,3.1-3.1,4.3-4.9c0.3,0.7,0.6,1.4,1,2
			C247.5,361.6,246.1,362.8,244.3,363.6z"/>
		<path class="st109" d="M339.1,110c-2.5,2.2-4.7,1.4-6.8-1C334.6,109.4,336.9,109.8,339.1,110C339.2,110.1,339.1,110,339.1,110z"/>
		<path class="st110" d="M304.3,289c0.3,0.6,0.6,1.1,1,1.7c-1.1,1.6-2.8,2.1-4.5,2.6c-0.4,0-0.9,0-1.3,0c-0.2-0.2-0.3-0.4-0.2-0.6
			C300.2,290.6,302,289.5,304.3,289z"/>
		<path class="st111" d="M464,204c0.9-1.5,2.5-1,3.8-1.2c1.1,1.2,3,2,2.1,4.2c-0.5,0.2-1,0.1-1.4-0.1
			C466.8,206.3,466.9,202.9,464,204z"/>
		<path class="st112" d="M370,119.1c0.6-0.3,1.3-0.5,1.9-0.8c0.7-1.1,1.7-1.1,2.8-0.9c0.8,0.3,1.3,0.9,1.5,1.8
			C374.1,120.5,372.1,120.7,370,119.1z"/>
		<path class="st113" d="M302.3,104.1c0.3-2.4-0.8-4.9,0.8-7.1c0.3,0.7,0.6,1.4,1,2c0.1,0.1,0.3,0.2,0.4,0.4c0,0.2,0.1,0.4,0.1,0.6
			c0,0.6,0.1,1.2,0.1,1.8C304.3,102.9,304.1,104.3,302.3,104.1z"/>
		<path class="st114" d="M240.5,297.1c-0.4-0.7-0.8-1.5-1.2-2.2c0.5-1.7,1.5-3,3.1-3.8c0.7,0.2,1.2,0.6,1.3,1.3
			C243.1,294.3,242.8,296.4,240.5,297.1z"/>
		<path class="st115" d="M184.3,356.6c-0.3-0.6-0.6-1.1-1-1.7c1.1-1.6,2.8-2.2,4.5-2.6c0.4,0,0.9,0,1.3,0c0.2,0.2,0.3,0.4,0.2,0.7
			C188.4,355,186.6,356.2,184.3,356.6z"/>
		<path class="st116" d="M352.2,289.1c0.4,0.3,0.8,0.6,1.1,0.9c-0.5,2.2-1.8,3.6-4.1,4c-0.4-0.4-0.8-0.8-1.2-1.2
			C348.9,290.9,350.2,289.6,352.2,289.1z"/>
		<path class="st117" d="M306,297.7c-0.4,2.4,1,4.9-0.7,7.2c-0.3-0.6-0.6-1.2-0.9-1.8c-0.4-0.1-0.6-0.3-0.7-0.7c0-0.4,0.1-0.7,0.2-1
			c0.5-0.5-0.2-0.9-0.1-1.4C304.1,298.8,304.5,297.7,306,297.7z"/>
		<path class="st118" d="M189.5,167c-0.4-0.4-0.8-0.8-1.2-1.2c0.2-1.2,0.4-2.4,0.7-4.3C190.9,163.8,190.8,165.4,189.5,167z"/>
		<path class="st119" d="M449.1,343c-0.3-0.7-0.7-1.5-1-2.2c0.5-1.4,1.4-2.4,2.7-3.1c0.7-0.4,1.2-0.3,1.7,0.3
			C451.3,339.7,450.2,341.3,449.1,343z"/>
		<path class="st120" d="M440,138.7c-0.4,0.4-0.8,0.8-1.2,1.3c-0.6-2.9-3-1.9-4.8-2.2c-0.3-1.7,1.3-1,1.9-1.5
			C437.5,136.7,439,137.2,440,138.7z"/>
		<path class="st121" d="M204.5,141c1.6,0.5,2.5,1.6,2.8,3.2c-0.3,0.3-0.6,0.6-0.9,0.9c-0.3,0.5-0.7,0.5-1,0
			C204.3,143.8,204.3,142.4,204.5,141z"/>
		<path class="st122" d="M256.1,114.1c-0.5-2-1.1-4-1.6-6c0.6-0.7,1.1-1.5,1.7-2.2c0.2,0.2,0.5,0.4,0.7,0.6
			C258,109.2,258.5,111.8,256.1,114.1z"/>
		<path class="st123" d="M161.2,230.5c-0.3,1.8-0.5,3.7-0.8,5.5c-0.7-1.6-1.4-3.1-2-4.7c0.1-0.5,0.1-1.1,0.2-1.6
			C159.6,229.4,160.4,229.9,161.2,230.5z"/>
		<path class="st101" d="M170.4,174c0.3,0,0.6,0,0.9,0c0.7,1.7,1.4,3.3,2.1,5c-1.4-0.1-2.5-0.6-3-2c0.2-0.2,0.3-0.5,0.2-0.7
			c-0.1-0.2-0.2-0.3-0.3-0.3c0,0,0.1,0.1,0.1,0.1C170.4,175.3,170.4,174.7,170.4,174z"/>
		<path class="st124" d="M385.1,289c0.3,0.7,0.5,1.4,0.8,2c-1.7-0.4-2.3,1.4-3.7,1.9c-0.3,0.3-0.6,0.2-1,0
			C382.1,291,383.2,289.6,385.1,289z"/>
		<path class="st125" d="M338.1,308.6c-0.7-0.3-1.4-0.6-2.2-0.9c1.6-0.6,3.1-1.2,5-2C340.9,308.2,339.4,308.3,338.1,308.6z"/>
		<path class="st126" d="M242.4,308c-0.4-0.4-0.8-0.9-1.3-1.3c-0.1-2.1,0.9-3.2,3.1-3c0.3,0.3,0.6,0.6,0.8,0.9
			C244.6,306.1,243.8,307.3,242.4,308z"/>
		<path class="st127" d="M172.7,336.6c-0.9,0.2-1.9,0.1-2.3,1.2c-0.7,0.9-1.7,0.9-2.7,0.8c-0.5-0.1-0.9-0.4-1.2-0.8
			C168.2,335.9,170.2,334.8,172.7,336.6z"/>
		<path class="st128" d="M270.4,100.2c0.3,1,0.5,2,0.8,2.9c-1.5-1.8-2.4,0.3-3.7,0.7C267.4,101.7,268.7,100.8,270.4,100.2z"/>
		<path class="st122" d="M262.5,110c0.5,1.6,1,3.3,1.5,4.9c-0.5,0.8-1.1,1.6-1.6,2.4c-0.5-0.4-0.9-0.9-1.1-1.4
			C260.8,113.8,260.5,111.7,262.5,110z"/>
		<path class="st129" d="M160.3,186.9c0.4,0.4,0.7,0.7,1.1,1.1c1,1.7,0.4,3.5-0.1,5.2c-0.2,0.5-0.6,0.8-1,1.1
			C158.9,191.7,158.7,189.3,160.3,186.9z"/>
		<path class="st130" d="M388.3,247.7c0.3-1,0.6-2,1-3c1.2,2.3,1,4.7,1,7.2c-0.4,0.3-0.7,0.3-1-0.1
			C388.9,250.5,388.6,249.1,388.3,247.7z"/>
		<path class="st131" d="M218.4,328.6c0,0.4-0.1,0.8-0.1,1.3c-1.1,1.3-1.7,3.1-3.9,3.1c-0.1-0.9-0.1-1.7-0.2-2.6
			C215.2,328.8,216.6,328.1,218.4,328.6z"/>
		<path class="st132" d="M211.3,156c-0.4,1.9-1.7,3.1-3.6,3.8c-1.3-2.8,1.5-2.7,2.6-3.8C210.7,155.6,211,155.6,211.3,156z"/>
		<path class="st133" d="M145.6,223.7c-0.7,0.1-1.4,0.1-2.1,0.2c-0.2-1.8-0.3-3.6,0.8-5.2c0.7,0.1,1.2,0.5,1.6,1.1
			C146.5,221.2,146.3,222.5,145.6,223.7z"/>
		<path class="st134" d="M227.4,342.8c-1.8-2.1-4.3-0.3-6.3-1.3c2.3-0.3,4.7-0.6,7-0.9C228.5,341.8,228.2,342.4,227.4,342.8z"/>
		<path class="st135" d="M245.4,304.9c0.4-0.8,0.7-1.6,1.8-3.9c0,3.6,0,5.7,0,7.9C246.6,307.5,246,306.2,245.4,304.9z"/>
		<path class="st136" d="M268.3,301.8c0,2.4-0.1,4.7-0.1,7.1c-2.1-1.1-0.1-3.6-1.7-4.9c-0.5-0.2-0.6-0.6-0.5-1.1
			C266.6,302.1,267.1,301.3,268.3,301.8z"/>
		<path class="st137" d="M443.9,187.1c-1.4-0.9-2.2-2.2-2.5-3.9c2.6-1,2.4,1,2.8,2.4C444.5,186.2,444.4,186.7,443.9,187.1z"/>
		<path class="st138" d="M484.9,337.6c0.8-0.3,1.6-0.7,2.4-1c1.1,1.2,0.3,2.4,0.1,4.1C486.4,339.5,485.7,338.6,484.9,337.6z"/>
		<path class="st139" d="M355,303.6c0.4,0.4,0.8,0.8,1.2,1.3c-0.7,1.9-2,3.3-4,3.9c0-0.3,0-0.7,0-1
			C351.9,305.5,352.8,304.1,355,303.6z"/>
		<path class="st140" d="M479.3,219.8c1.5,1.4,1.9,3.1,1.5,5.1c-0.3,0.4-0.6,0.5-1,0.3c-0.4-0.2-0.7-0.4-0.9-0.8
			c0-0.2-0.1-0.4-0.1-0.6c0-1.2,0.1-2.3,0.1-3.5C478.6,219.8,478.8,219.7,479.3,219.8z"/>
		<path class="st125" d="M387,356.7c-0.3-0.6-0.7-1.3-1-1.9c1.6-0.5,3.3-1.1,4.9-1.6c0.5,0.5,0.5,1,0.1,1.5
			C389.8,355.6,388.7,356.7,387,356.7z"/>
		<path class="st141" d="M289.3,344.8c-2.5-2.4-0.1-5.5-1-8.1c1.8,1.5,0.8,3.4,0.9,5.2c0.3,0.3,0.6,0.6,0.6,1.1
			c-0.1,0.6-0.2,1.3-0.6,1.8L289.3,344.8z"/>
		<path class="st142" d="M355.2,99.9c1.7,0.2,2.9,0.7,1.7,3c-0.9-0.7-1.8-1.4-2.7-2.1C354,100,354.2,99.5,355.2,99.9z"/>
		<path class="st143" d="M165.2,176.9c0.4,0.4,0.8,0.7,1.2,1.1c0,1.1,0,2.2,0,4.7C164.8,180.1,163.9,178.7,165.2,176.9z"/>
		<path class="st144" d="M172.6,204.8c-0.4,0.4-0.9,0.8-1.3,1.3c-0.4-0.4-0.7-0.8-1.1-1.2c-0.4-0.7-0.3-1.5-0.7-2.1
			c-0.1-0.6-0.2-1.2-0.3-1.8c0.4,0,0.7-0.1,1.1-0.1C172.3,201.5,172.9,202.9,172.6,204.8z"/>
		<path class="st129" d="M355.2,99.9c-0.3,0.3-0.7,0.6-1,1c-1,0.4-2,0.9-3,1.3c-0.3-0.3-0.7-0.7-1-1
			C351.6,99.7,353.2,98.8,355.2,99.9z"/>
		<path class="st50" d="M210.4,150c0.3-0.7,0.7-1.4,1-2.2c1.2,1.6,1.1,3.3,0.8,5.1c-0.3,0.5-0.6,0.5-0.9,0
			C211,152,210.7,151,210.4,150z"/>
		<path class="st145" d="M298.2,346.7c-0.6-1.7-1.7-3.3-0.1-5c0.3,0.2,0.6,0.5,0.9,0.7c0.6,0.4,0.8,1,0.5,1.6l-0.3-0.1l0-0.3
			c-0.3,0.2-0.4,0.4-0.3,0.6c0,0.2,0.1,0.4,0.2,0.4C298.8,345.4,298.5,346,298.2,346.7z"/>
		<path class="st146" d="M266.4,343.9c-0.3-0.7-0.7-1.4-1-2.1c0.5-1.5,1.4-2.6,2.8-3.4c0.4,0.3,0.7,0.8,0.8,1.3
			C268.8,341.6,268.7,343.4,266.4,343.9z"/>
		<path class="st147" d="M209.3,282.8c-0.4-0.3-0.7-0.7-1.1-1c0.7-0.3,1.4-0.5,2.2-0.8c1.3,0.6,2.6,1.1,3.9,1.7
			C212.7,282.7,211,282.8,209.3,282.8z"/>
		<path class="st148" d="M345.1,346.8c0.9,1.7,1.6,3.3,0.2,5.1c-0.7,0-1.2-0.4-1.5-1c0-0.4,0-0.9,0.1-1.3l0.2,0.3
			c0.3-0.2,0.4-0.4,0.3-0.6c-0.1-0.2-0.1-0.4-0.2-0.4C344,347.9,344.4,347.2,345.1,346.8z"/>
		<path class="st79" d="M421.9,269.9c1-0.3,2-0.7,3-1c0.8,0.4,1.7,0.7,2.5,1.1C425.5,270.9,423.7,271.1,421.9,269.9z"/>
		<path class="st149" d="M399,336.8c0.3,0.6,0.7,1.3,1,1.9c-2-0.3-2.6,1.7-4,2.4c-0.5-0.4-0.5-0.9-0.1-1.4
			C396.7,338.4,397.5,337.2,399,336.8z"/>
		<path class="st150" d="M243.1,291.8c-0.2-0.2-0.5-0.5-0.7-0.7l-0.2-0.3c0.4-0.2,0.7-0.5,1.1-0.9l0,0c0.5-0.6,1.5-0.4,2-1
			c0.3,0.1,0.7,0.1,1,0.2c0.3,0.6,0.7,1.2,1,1.8C246.1,292.1,244.8,292.8,243.1,291.8z"/>
		<path class="st151" d="M251.3,308.8c-0.4-0.6-0.7-1.2-1.1-1.8c2,0.2,2.6-1.9,4.1-2.5c0.4,0.5,0.5,1,0.1,1.5
			C253.6,307.2,252.8,308.4,251.3,308.8z"/>
		<path class="st152" d="M460.7,195.1c2.5,0,5.1,0.1,7.6,0.1C465.8,196.5,463.2,196.5,460.7,195.1z"/>
		<path class="st153" d="M268.3,339.9c-0.1-0.5-0.1-1-0.2-1.5c0.7-0.5,1.4-1,2.2-1.5c1,0.5,2,1.1,3,1.6
			C272,340.3,270.3,340.5,268.3,339.9z"/>
		<path class="st154" d="M182.6,176.2c-0.7-0.7-1.4-1.5-2.2-2.2c2.7,0.3,1.8-1.6,1.9-3c0.4-0.4,0.7-0.4,1,0.1
			C183.2,172.8,184.3,174.7,182.6,176.2z"/>
		<path class="st155" d="M230.3,307.7c-0.3-0.3-0.7-0.7-1-1c1.2-0.8,2.3-1.7,4.1-2.9C233.1,306.5,231.7,307.2,230.3,307.7z"/>
		<path class="st131" d="M369.1,307.8c-0.4-0.4-0.8-0.7-1.2-1.1c0.8-0.9,1.6-1.9,2.3-2.8c0.9-0.1,1.5,0,1,1.1
			C370.5,305.9,369.8,306.8,369.1,307.8z"/>
		<path class="st156" d="M453.9,355.5c-0.4-0.3-0.7-0.6-1.1-0.8c1.2-0.8,2.4-1.5,3.9-2.5C456.7,354.5,455.1,354.8,453.9,355.5z"/>
		<path class="st157" d="M335.1,281.6c0,0.4,0.1,0.8,0.1,1.1c-0.9,0.8-1.9,1.6-2.8,2.3c-0.4-0.4-0.7-0.8-1.1-1.2
			C332.2,282.5,333.4,281.7,335.1,281.6z"/>
		<path class="st158" d="M393.9,129.2c0.3-0.4,0.7-0.7,1-1.1c1.1,0,2.2,0,4.1,0C397,129.3,395.7,130.3,393.9,129.2z"/>
		<path class="st159" d="M435.9,136.3c-0.6,0.5-1.3,1-1.9,1.5c-0.3,0.1-0.7,0.2-1,0.3c-0.6-0.6-1.6-0.2-2.1-1
			C432.4,135.6,434.1,135.8,435.9,136.3z"/>
		<path class="st160" d="M289.5,342.9c-0.1-0.3-0.1-0.7-0.2-1c0.7-0.7,1.3-1.4,2-2.2l0.3-0.2l0.3,0.2c-0.1,0.4,0.1,0.7,0.4,1
			c-0.7,1-1.3,2-2,3C289.8,343.6,289.6,343.3,289.5,342.9z"/>
		<path class="st161" d="M430.9,137c0.8,0.1,1.7,0,2.1,1c-1,0.9-2.1,1.6-3.4,0.6C429.5,137.7,430.1,137.2,430.9,137z"/>
		<path class="st162" d="M304.2,100.1c-0.1-0.4-0.1-0.8-0.2-1.1c1-1,2.1-2,3.1-3c0,0.4,0.1,0.9,0.1,1.3
			C307.2,99.3,306.4,100.4,304.2,100.1z"/>
		<path class="st163" d="M318.1,99.9c0.4-0.6,0.7-1.2,1.1-1.9c0.4-0.3,0.7-0.7,1.2-0.9c0.3,0.1,0.6,0,0.8-0.3c0.2,0,0.5-0.1,0.7-0.1
			c0.2,0.2,0.3,0.4,0.5,0.6c0,1.8-1,2.7-2.6,3.3c-0.5,0-1,0-1.5-0.1C318.2,100.3,318.1,100.1,318.1,99.9z"/>
		<path class="st164" d="M319.1,355.6c0-0.4,0-0.8,0-1.1c0.8-1,1.5-1.9,2.9-3.7C321.7,353.7,320.8,354.9,319.1,355.6z"/>
		<path class="st165" d="M344.3,351c0.3,0.3,0.7,0.6,1,0.9c-0.4,1.4-0.7,2.7-1.1,4.1c-0.4-0.7-0.8-1.5-1.1-2.2
			c-0.1-0.3,0-0.6,0.1-0.9C343.7,352.3,343.3,351.2,344.3,351z"/>
		<path class="st166" d="M372.8,299.8c2.1,1.1,1.4,2.6,0.5,4.1c-0.3-0.3-0.6-0.5-0.9-0.8c-0.6-0.3-0.7-0.8-0.4-1.4l0.1,0.2
			c0.3-0.2,0.4-0.4,0.3-0.6c-0.1-0.2-0.1-0.4-0.2-0.4C372.3,300.5,372.5,300.2,372.8,299.8z"/>
		<path class="st84" d="M228.4,288.9c0.6,0.7,1.3,1.4,1.9,2.1c-1.1,0.9-2.3,1.5-3.8,1c-0.1-0.5-0.1-1.1-0.2-1.6
			C226.9,289.9,227.6,289.4,228.4,288.9z"/>
		<path class="st167" d="M366.2,99c0.8-1.3,2.1-1.5,3.3-1.6c0.1,0.2,0.3,0.3,0.3,0.4C369,99.2,367.9,99.7,366.2,99z"/>
		<path class="st168" d="M448.1,175.8c0.6,1,1.2,2,1.8,3c0.3,0.2,0.4,0.4,0.3,0.6c-0.1,0.2-0.2,0.3-0.3,0.3c-1.5-0.4-2.6-1.2-3-2.8
			C447.3,176.5,447.4,175.8,448.1,175.8z"/>
		<path class="st169" d="M441,229c-0.7-0.4-1.5-0.8-2.2-1.2c1.1-0.5,2.3-0.9,3.5-1.4C443.2,228.2,441.9,228.4,441,229z"/>
		<path class="st170" d="M162.6,230.1c-0.3-0.7-0.7-1.4-1-2.1c-0.3-0.2-0.4-0.5-0.3-0.7c0.1-0.2,0.2-0.3,0.3-0.3
			c0.5-0.7,1.1-1.3,1.6-2C163.5,226.7,163.7,228.5,162.6,230.1z"/>
		<path class="st171" d="M245.4,104.9c-0.3-0.6-0.7-1.2-1-1.7c1,0,2.3-1.1,2.9,0.6c0.2,0.5-0.1,1.2-0.2,1.8
			C246.5,105.4,245.9,105.1,245.4,104.9z"/>
		<path class="st172" d="M175.7,151.3c1.4,1.6,1,2.9,0.3,4.3C174.3,154.2,175.2,153,175.7,151.3z"/>
		<path class="st173" d="M479.8,224.9c0.3,0,0.6,0,0.9,0c-0.9,1.7-2.2,1.3-3.5,0.6c-0.1-1.2,0.7-1.4,1.4-1.7l0.4,0.2
			C479.3,224.3,479.5,224.6,479.8,224.9z"/>
		<path class="st174" d="M324.1,105.1c2.1,1.4,0,3.4,0.8,5c-0.6-1-1.1-2-1.7-3c-0.1-0.1-0.2-0.3-0.4-0.4c0-0.2,0-0.4,0-0.6
			c0.2-0.4,0.4-0.6,0.7-0.9C323.8,105.2,324,105.1,324.1,105.1z"/>
		<path class="st175" d="M458.9,171.8c0-0.3,0-0.6,0-0.8c2.1,0,3.3,1.1,3.9,3c-0.4,0.6-0.8,0.6-1.2,0
			C460.7,173.3,459.8,172.6,458.9,171.8z"/>
		<path class="st176" d="M301.1,307.7c-0.4-0.3-0.8-0.7-1.2-1c-0.1-1.8,0.9-2.7,2.5-3.2c0.8,0.2,1.4,0.5,0.9,1.5
			C302.6,305.9,301.9,306.8,301.1,307.7z"/>
		<path class="st146" d="M266.8,302.8c-0.1,0.4-0.2,0.8-0.3,1.2c-0.7,1-1.4,2-2.1,3c-0.3-0.4-0.6-0.7-1-1.1c0.7-1,1.3-2,2-3
			C265.8,302.4,266.3,302.4,266.8,302.8z"/>
		<path class="st68" d="M148.5,361.7c0-0.4-0.1-0.9-0.1-1.3c0.6-1,1.2-2,1.9-3c0.4,0.5,0.9,0.9,1.3,1.4
			C151,360.3,150,361.3,148.5,361.7z"/>
		<path class="st177" d="M398,308.8c-0.3-0.7-0.7-1.4-1-2c1.3,0.6,2.2-0.2,3-1c0.4-0.4,0.8-0.5,1.3,0
			C400.5,307.1,399.7,308.4,398,308.8z"/>
		<path class="st178" d="M360,116.2c0.7-0.4,1.4-0.8,2.2-1.2c0.9,0,1.9-0.1,2.8-0.1l0.3,0.3C363.7,116.7,362.1,117.9,360,116.2z"/>
		<path class="st179" d="M392,291.8c0.3,0.3,0.6,0.6,0.9,0.9c-0.6,1-1.3,2-1.9,3.1c-0.3,0.4-0.7,0.4-1.1,0.1
			c-0.2-0.4-0.2-0.8,0.1-1.2C390.6,293.7,391.3,292.8,392,291.8z"/>
		<path class="st180" d="M318.2,329.8c0.8-0.7,1.7-1.4,2.6-2.2c0.7,1.9-0.3,2.7-1.4,3.4C318.4,331.2,318,330.9,318.2,329.8z"/>
		<path class="st152" d="M460,194.1c0,0.2,0,0.5,0,0.7c-0.5,0-1.1,0-1.6-0.1c-0.7,0-1-0.4-1.4-0.9c-0.1-0.3-0.1-0.5-0.1-0.8
			c-0.3-0.3-0.4-0.5-0.3-0.8c0.1-0.3,0.2-0.4,0.2-0.4C458.7,191.5,459.6,192.4,460,194.1z"/>
		<path class="st181" d="M448.1,175.8c-0.4,0.4-0.7,0.7-1.1,1.1c-0.3-0.8-0.7-1.6-1-2.5C447.8,173.6,448,174.6,448.1,175.8z"/>
		<path class="st182" d="M452.5,338c-0.6-0.1-1.1-0.2-1.7-0.3c0.8-1.1,1.9-1.6,3.2-1.7c0.3,0.6,0.6,1.2,1,1.7
			C454.1,337.8,453.3,337.9,452.5,338z"/>
		<path class="st183" d="M437,337.8c0,0.7,0,1.3-0.1,2c-0.8,0-1.8,0.5-2.5-0.5C435,338.3,435.8,337.7,437,337.8z"/>
		<path class="st184" d="M195.5,157.1c0.1-0.7,0.3-1.4,0.5-2.2c2,1.1,1.4,2.2,0.7,3.3C195.9,158.2,195.7,157.6,195.5,157.1z"/>
		<path class="st185" d="M195.5,157.1c0.4,0.4,0.8,0.7,1.1,1.1c-0.4,0.7-0.8,1.3-1.1,2c-0.7-0.6-1.4-1.2-2.1-1.9
			C194.4,158.5,195.2,158.2,195.5,157.1z"/>
		<path class="st186" d="M271.1,350.7c0.6-0.5,1.2-1,1.9-1.6c0.4,1.4,0.3,2.7-0.5,3.8c-0.4-0.4-0.8-0.8-1.2-1.2l-0.2,0.2l-0.2-0.2
			C270.9,351.4,270.9,351.1,271.1,350.7z"/>
		<path class="st187" d="M145.2,219.9c-0.3-0.4-0.6-0.8-0.9-1.1c0.3-1,0.7-2,1-3c0.4,0.4,0.8,0.8,1.2,1.2
			C147,218.3,146.5,219.3,145.2,219.9z"/>
		<path class="st188" d="M469.9,355.7c-0.4-0.3-0.7-0.7-1.1-1c1.1-0.6,2.1-1.2,3.2-1.7c0.5,0.5,0.5,0.9,0,1.4
			C471.3,354.7,470.6,355.2,469.9,355.7z"/>
		<path class="st189" d="M390,295.8c0.3,0,0.6,0,1,0c-0.6,1-1.3,2-1.9,3c-0.2-0.4-0.5-0.8-0.7-1.2C388.9,297,388.1,295.2,390,295.8z
			"/>
		<path class="st190" d="M205.3,145c0.3,0,0.7,0,1,0c-0.1,1.7,1.2,3.7-0.9,5c0-1.1-0.1-2.3-0.1-3.4
			C205.3,146.1,205.3,145.6,205.3,145z"/>
		<path class="st140" d="M237.5,110.3c-0.4-0.4-0.8-0.8-1.1-1.2c0.5-0.7,1-1.4,1.5-2.1c0.3-0.1,0.7-0.2,1-0.1l0.4,0.1
			C238.7,108.1,238.1,109.2,237.5,110.3z"/>
		<path class="st191" d="M329,109.9c-0.1-0.3,0-0.5,0.1-0.8c0.3-1.2,1.3-1.6,2.9-2.2C331.3,108.9,330.5,109.7,329,109.9z"/>
		<path class="st192" d="M291.2,110.1c0-0.4,0.1-0.7,0.1-1.1c1-0.3,1.9-0.6,2.9-0.9c0,0,0,0,0,0c-0.1,1.8-1.3,2.7-3,3
			c-0.4-0.2-0.5-0.4-0.4-0.6C291,110.2,291.1,110.1,291.2,110.1z"/>
		<path class="st193" d="M389.2,111.2c0,0.3,0,0.6-0.1,0.8c-1,0.5-1.9,1.3-3.2,0.7C386.4,111,387.7,110.9,389.2,111.2z"/>
		<path class="st100" d="M298,113.8c0.4,0.4,0.8,0.9,1.2,1.3c-0.6,0.7-1.1,1.4-1.7,2.1c-0.4,0.1-0.7,0.2-1.1,0.1l-0.1-0.2
			C296.8,116,297.4,114.9,298,113.8z"/>
		<path class="st194" d="M266.8,302.8c-0.5,0-1,0.1-1.5,0.1c0.7-1,1.3-2,2-2.9c0.3,0.6,0.6,1.3,0.9,1.9
			C267.8,302.1,267.3,302.4,266.8,302.8z"/>
		<path class="st195" d="M389.1,251.8c0.3,0,0.7,0,1,0.1c0.9,1,0.4,2-0.1,3C389,254.1,389,253,389.1,251.8z"/>
		<path class="st196" d="M482,232.8c-0.7,0-1.5-0.1-2.2-0.1c0.1-0.8,0.3-1.5,0.4-2.2C482,230.5,481.9,231.7,482,232.8z"/>
		<path class="st197" d="M257.1,290.8c0.4,0,0.8,0,1.3,0.1c-0.8,1-1.7,2-2.6,3.1C254.8,292.1,255.8,291.4,257.1,290.8z"/>
		<path class="st68" d="M142.9,361.9c1.9-0.1,3.7-0.1,5.6-0.2C146.7,363.1,144.8,363.2,142.9,361.9z"/>
		<path class="st157" d="M286,314.5c0.4,0.4,0.8,0.9,1.2,1.3c-0.5,0.7-1,1.4-1.5,2.1c-0.5,0.2-1,0.3-1.5,0.1
			C283.5,316.2,284.2,315,286,314.5z"/>
		<path class="st198" d="M150.9,201.4c-1.8-0.7-1.7-1.9-1.5-3.3C151.3,198.7,150.9,200,150.9,201.4z"/>
		<path class="st199" d="M177.5,202c0.4,0,0.7,0,1.1,0c0.1,1.2-0.1,2.2-1.1,3c-0.4-0.4-0.7-0.7-1.1-1.1
			C176,202.8,176.5,202.3,177.5,202z"/>
		<path class="st200" d="M376.2,119.2c-0.4-0.4-0.8-0.7-1.1-1.1c0.3-0.9,0.8-1.4,1.9-1.1c0.2,0,0.4,0,0.6,0.2l0,0.4l0.4,0.1
			c0.1,0.1,0.2,0.3,0.1,0.5C377.5,118.5,376.9,118.9,376.2,119.2z"/>
		<path class="st201" d="M371.9,301.7c0.1,0.5,0.3,1,0.4,1.4c-0.4,0.6-0.8,1.3-1.1,1.9c-0.3-0.4-0.7-0.7-1-1.1
			C370.8,303.1,371.3,302.4,371.9,301.7z"/>
		<path class="st202" d="M303.3,305c-0.3-0.4-0.6-0.8-1-1.1c-0.5-1.7,0.3-2.2,1.8-2.1c0.1,0.5,0.2,0.9,0.3,1.4
			C304.1,303.7,303.7,304.4,303.3,305z"/>
		<path class="st203" d="M243.2,336.1c0.4,0.9,0.8,1.8,1.2,2.6c-0.5,0.3-1.4,0.9-1.5,0.8C241.7,338.3,242.5,337.2,243.2,336.1z"/>
		<path class="st204" d="M467,234.9c0.6,0,1.3,0,1.9,0.1c0.1,0.6,0.1,1.3,0.2,1.9c-0.4,0.5-0.8,0.5-1.3,0.1
			C467.6,236.2,467.3,235.6,467,234.9z"/>
		<path class="st205" d="M390,295.8c-0.6,0.6-1.1,1.2-1.7,1.8c-0.2-1-0.6-2.1,0.6-2.8c0.3,0,0.7-0.1,1-0.1
			C390,295.1,390,295.5,390,295.8z"/>
		<path class="st206" d="M443.9,169.1c0.9,0.4,1.7,0.7,3,1.2c-1.5,1-2.3,0.9-3-0.2c-0.4-0.2-0.5-0.4-0.4-0.6
			C443.7,169.2,443.8,169.1,443.9,169.1z"/>
		<path class="st80" d="M440.9,355.5c-0.1-0.3-0.1-0.6,0-0.9c0.3-1,0.9-1.7,2-2l0.3,0.2C442.9,354.1,442.1,355,440.9,355.5z"/>
		<path class="st207" d="M160.3,194.2c0.1-0.6,0.2-1.1,0.3-1.7c1.4,0.2,2.3,0.8,1.9,2.4c-0.4,0.4-0.8,0.8-1.1,1.2
			C161,195.5,160.6,194.9,160.3,194.2z"/>
		<path class="st208" d="M443.9,187.1c0.1-0.5,0.2-1,0.2-1.5c0.6,0.7,1.2,1.4,1.8,2.1c0.2,0.3,0.2,0.6,0.1,0.9
			C445.3,188.2,444.6,187.7,443.9,187.1z"/>
		<path class="st209" d="M339.2,107.1c0.6,0.6,1.1,1.3,1.7,1.9c-0.4,0.7-0.8,1.3-1.8,1c0,0,0.1,0.1,0.1,0.1
			C339.2,109.1,339.2,108.1,339.2,107.1z"/>
		<path class="st210" d="M467.9,236.9c0.4,0,0.9,0,1.3-0.1c0.4,0.6,0.9,1.1,1.4,1.8C468.7,239.1,468.3,238,467.9,236.9z"/>
		<path class="st211" d="M456.9,192c0,0.3,0,0.7,0,1c-1.2-0.2-1.7-1-1.9-2.1c0.3-0.4,0.7-0.7,1-1.1
			C457.5,190.1,457.7,190.9,456.9,192z"/>
		<path class="st212" d="M391,354.7c0-0.5-0.1-1-0.1-1.5c0.6-0.5,1.1-0.9,1.8-1.5C393.5,353.8,392.1,354.1,391,354.7z"/>
		<path class="st213" d="M299.5,344c-0.2-0.5-0.4-1.1-0.5-1.6c0.4-0.6,0.7-1.2,1.1-1.8c0.6,0.1,0.7,0.6,0.9,1.1
			C300.5,342.5,300,343.3,299.5,344z"/>
		<path class="st155" d="M318.2,329.8c0.4,0.4,0.8,0.8,1.2,1.2c-0.5,0.5-1.1,1-1.6,1.5C316.5,331.2,317.2,330.5,318.2,329.8z"/>
		<path class="st214" d="M308.8,107.9c-1.2,0.7-2.4,1.4-3.7,2.1c-0.3-0.3-0.4-0.7-0.4-1.1c0.2-0.9,0.9-1.4,1.8-1.6
			c0.4-0.1,0.8,0,1.2,0C308.1,107.5,308.5,107.7,308.8,107.9z"/>
		<path class="st189" d="M441.2,331c-0.5,0.5-1.1,1-1.6,1.5c-1.2-1.4-0.6-2.1,0.5-2.7C440.5,330.1,441.1,330.3,441.2,331z"/>
		<path class="st215" d="M279.4,353.8c-0.4,0-0.7,0-1.1,0c0.5-0.7,1-1.4,1.6-2.4C280.8,352.8,280.6,353.5,279.4,353.8z"/>
		<path class="st216" d="M344.3,351c-0.4,0.6-0.8,1.2-1.1,1.8c-0.3-0.3-0.6-0.7-1-1c0.5-0.8,1.1-1.5,1.6-2.3
			C344,350,344.2,350.5,344.3,351z"/>
		<path class="st217" d="M461.9,208c0.4,0,0.8,0,1.3-0.1c0.5,0.7,1.1,1.4,1.6,2.1c-0.4,0.2-0.8,0.2-1.3,0
			C462.9,209.3,462.4,208.7,461.9,208z"/>
		<path class="st218" d="M308.1,355.5c-0.1-0.3-0.1-0.6,0-0.9c0.4-0.6,0.8-1.1,1.2-1.7c0.8-0.3,1.2-0.1,0.7,0.8
			C309.5,354.3,308.8,354.9,308.1,355.5z"/>
		<path class="st219" d="M342.3,284.8c0.6,0,1.1,0,1.7,0c0,0.8,0,1.6-1,1.9C341.9,286.4,342.4,285.5,342.3,284.8z"/>
		<path class="st220" d="M426.9,347.7c-0.3-0.4-0.6-0.8-1-1.2c0.3-0.6,0.7-1.3,1-1.9c0.4,0.4,0.7,0.7,1.1,1.1
			C427.6,346.4,427.2,347.1,426.9,347.7z"/>
		<path class="st106" d="M249.3,122.5c-0.7,0.5-1.4,1-2.1,1.5c-0.3-0.3-0.4-0.5-0.3-0.8c0.1-0.3,0.2-0.4,0.3-0.4
			c0.7-0.6,1.4-1.1,2.1-1.7c0.1,0.1,0.2,0.3,0.4,0.4C249.6,121.8,249.4,122.1,249.3,122.5z"/>
		<path class="st144" d="M427.2,150.8c0.5,0.5,1.1,1,1.7,1.6c-1.4,1.1-2.3,0.9-3-0.2c0.1-0.1,0.3-0.2,0.4-0.4
			c0.2-0.2,0.4-0.4,0.6-0.6C426.9,151.1,427,151,427.2,150.8z"/>
		<path class="st221" d="M461.6,174c0.4,0,0.8,0,1.2,0c0.7,1.3,0.3,2.1-1.6,2.6C461.4,175.6,461.5,174.8,461.6,174z"/>
		<path class="st152" d="M440.9,168.3c0.1-0.5,0.2-1.1,0.3-1.6c0.6,0.7,1.2,1.4,1.9,2.1c0.3,0.2,0.3,0.4,0.2,0.6
			c-0.1,0.2-0.2,0.3-0.3,0.3C442.3,169.2,441.6,168.8,440.9,168.3z"/>
		<path class="st129" d="M262.1,115.8c0.1,0.5,0.1,1,0.2,1.5c-0.4,0.9-1,1.6-2.1,1.6c0-0.3,0-0.7,0-1
			C259.9,116.4,260.7,115.9,262.1,115.8z"/>
		<path class="st222" d="M166.4,205c-0.8-0.6-1.1-1.4-0.8-2.5c1.4-0.2,1.5,0.7,1.7,1.6C167.1,204.5,166.8,204.8,166.4,205z"/>
		<path class="st223" d="M211.4,153c0.3,0,0.6,0,0.9,0c0.2,1.2,0.2,2.3-1,3l-0.5,0l-0.5,0C210.7,155,211,154,211.4,153z"/>
		<path class="st224" d="M330.3,352.8c0.3-0.7,0.5-1.6,1.6-1c-0.2,0.3-0.4,0.7-0.6,1C331,353.1,330.7,353.1,330.3,352.8z"/>
		<path class="st225" d="M310.1,353.6c-0.2-0.3-0.5-0.5-0.7-0.8c0.4-0.4,0.8-0.8,1.2-1.3C311.4,352.7,310.8,353.2,310.1,353.6z"/>
		<path class="st226" d="M166.4,205c0.3-0.3,0.5-0.6,0.8-0.9c0.1,0.9,0.2,1.9,0.3,2.8c-0.4-0.1-0.9-0.1-1.3-0.2
			C166.3,206.2,166.3,205.6,166.4,205z"/>
		<path class="st227" d="M410,306.8c0.6-0.5,1.1-0.9,1.8-1.4c0.6,1.4-0.2,1.7-0.9,2.1c-0.3,0-0.5-0.2-0.6-0.4L410,306.8z"/>
		<path class="st228" d="M468.5,207c0.5,0,1-0.1,1.5-0.1c0.5,0,0.8,0.2,1,0.7c0,0.4,0,0.9-0.1,1.3
			C470.1,208.3,469.3,207.6,468.5,207z"/>
		<path class="st229" d="M363.1,103.1c-0.1,0.4-0.2,0.8-0.3,1.3c-0.7-0.2-1.3-0.5-3.6-1.3C361.7,103.1,362.4,103.1,363.1,103.1z"/>
		<path class="st230" d="M207.2,297.6c0.4-0.3,0.7-0.5,1.1-0.8c0.3-0.2,0.5-0.1,0.7,0.2l-0.1,0.4l0.4,0.1c0.2,0.1,0.2,0.3,0.1,0.5
			c-0.7,0.4-1.3,0.8-2,1.1C206.9,298.6,206.9,298.2,207.2,297.6z"/>
		<path class="st231" d="M441.2,331c-0.4-0.4-0.8-0.8-1.2-1.1c0.6-0.5,1.3-1,1.9-1.5c0.5,0.5,0.6,1.1,0.2,1.7
			C441.8,330.3,441.5,330.7,441.2,331z"/>
		<path class="st232" d="M417.9,291.8c-0.4,0.6-0.9,1.3-1.3,2c-0.7-0.9-1-1.6,0.2-2C417.2,291.5,417.5,291.5,417.9,291.8z"/>
		<path class="st233" d="M379.1,305.8c0.4-0.6,0.9-1.3,1.3-2c0.8,0.8,0.9,1.5-0.1,2C380,306.1,379.5,306.1,379.1,305.8z"/>
		<path class="st234" d="M466,222.9c0.3,0,0.6,0,0.9,0c0.3,0.7,0.7,1.3,1,2l0,0C466.6,224.8,466.2,224,466,222.9z"/>
		<path class="st235" d="M311.4,305.9c0.4-0.5,0.7-1,1.1-1.6c0.8,0.8,0.9,1.3-0.2,1.6C312,306.1,311.7,306.2,311.4,305.9z"/>
		<path class="st236" d="M282.2,320.7c0-0.3,0-0.6,0-0.9c-0.5-1.2,0.4-1.4,1.2-1.6c0.4,0.1,0.7,0.4,0.9,0.8
			C284.1,320.1,283.3,320.5,282.2,320.7z"/>
		<path class="st237" d="M183.3,171.1c-0.3,0-0.7-0.1-1-0.1c-0.6-0.3-1-1-0.2-1.2C182.8,169.5,183.3,170.2,183.3,171.1z"/>
		<path class="st219" d="M343.4,281.7c-1.2,0.1-2.4,0.3-3.3-0.7C341.2,281.2,342.3,281.5,343.4,281.7z"/>
		<path class="st238" d="M393.1,116.2c-0.7,0.3-1.4,0.6-2.2,0.8c0.6-0.8,1.3-1.6,1.9-2.4C392.9,115.2,393,115.7,393.1,116.2z"/>
		<path class="st239" d="M209.4,315.9c0-0.3,0-0.7,0-1c0.3-0.3,0.7-0.6,1-1l0.3,0.4l0.2,0.2l0.3,0.2
			C210.6,315.1,210,315.5,209.4,315.9z"/>
		<path class="st240" d="M301,341.7c-0.3-0.4-0.6-0.7-0.9-1.1c0.2-0.3,0.5-0.6,0.7-0.9c0.4-0.2,0.8-0.3,1.1-0.4
			c0.2,0.1,0.3,0.3,0.3,0.5C301.8,340.4,301.4,341.1,301,341.7z"/>
		<path class="st157" d="M221.5,335.1c0-1.3,0-2.6,0-3.9C222.4,332.5,222.2,333.8,221.5,335.1z"/>
		<path class="st241" d="M401.3,305.8c-0.4,0-0.8,0-1.3,0c0.4-0.6,0.9-1.2,1.3-1.9C402.2,304.7,402.3,305.3,401.3,305.8z"/>
		<path class="st242" d="M324.2,96.1c0,0.3,0,0.6,0,0.9c-0.7,0.6-1.4,0.7-2.1,0l0.1,0.1c-0.3-0.2-0.3-0.5-0.3-0.7
			c0.1-0.2,0.2-0.4,0.2-0.4C322.8,96.1,323.5,96.1,324.2,96.1z"/>
		<path class="st243" d="M163.3,222.2c-0.2-0.8-0.5-1.5-0.7-2.3C162.9,220.7,163.1,221.5,163.3,222.2z"/>
		<path class="st244" d="M362,292.8c-0.2,0.8-0.6,1.3-1.6,0.9c0.1-0.3,0.3-0.6,0.4-0.9C361.2,292.5,361.6,292.5,362,292.8z"/>
		<path class="st245" d="M406.8,340.7c-0.4,0-0.8-0.1-1.2-0.1c0.5-0.7,0.9-1.3,1.4-2c-0.1,0.3-0.1,0.7,0.1,1c0,0.2,0.1,0.4,0.1,0.6
			C407.2,340.6,407.1,340.7,406.8,340.7z"/>
		<path class="st246" d="M444.9,159.2c-0.7,0.3-1.4,0.5-2.1,0.8C443.5,159.7,444.2,159.4,444.9,159.2z"/>
		<path class="st147" d="M217.6,281.7c-0.8-0.2-1.5-0.4-2.3-0.6C216.1,281.3,216.9,281.5,217.6,281.7z"/>
		<path class="st247" d="M466.7,339.7c-0.3-0.3-0.5-0.7-0.8-1c0.3-0.3,0.7-0.7,1-1c-0.1,0.2-0.1,0.4,0.1,0.5
			c0.3,0.2,0.4,0.5,0.4,0.9C467.3,339.5,467.1,339.7,466.7,339.7z"/>
		<path class="st248" d="M334.1,339.8c-0.1,0.8-0.5,1.3-1.2,1c-0.6-0.2-0.4-0.7,0.1-1C333.4,339.4,333.8,339.4,334.1,339.8z"/>
		<path class="st249" d="M396,339.6c0,0.5,0.1,1,0.1,1.4c-0.3,0.5-0.8,0.6-0.9,0C395.2,340.7,395.7,340.1,396,339.6z"/>
		<path class="st250" d="M323.2,106c0,0.4,0,0.7,0,1.1c-0.4,0.3-0.7,0.5-1.1,0.8c-0.3-0.3-0.4-0.7-0.3-1.1
			C322.1,106.1,322.5,105.8,323.2,106z"/>
		<path class="st135" d="M245.3,288.8c-0.7,0.3-1.3,0.7-2,1C244,289.5,244.6,289.2,245.3,288.8z"/>
		<path class="st162" d="M458.9,171c-0.7-0.1-1.5-0.1-2.2-0.2C457.5,170.3,458.2,170.2,458.9,171z"/>
		<path class="st182" d="M457.9,336.8c-0.7-0.3-1.3-0.5-2-0.8C456.6,336.2,457.3,336.5,457.9,336.8z"/>
		<path class="st251" d="M209.3,342.7c0.6-0.4,1.2-0.8,1.8-1.2c0.1,0.2,0.2,0.3,0.4,0.4c0.1,0.6-0.2,1-0.7,1.3c-0.4,0-0.7-0.1-1-0.3
			C209.7,342.8,209.5,342.7,209.3,342.7z"/>
		<path class="st252" d="M418.2,175.1c-0.1-0.4-0.1-0.8-0.2-1.2c0.2-0.1,0.7-0.3,0.7-0.3C419.1,174.3,418.9,174.8,418.2,175.1z"/>
		<path class="st253" d="M469.1,225.9c0,0.3,0.1,0.6,0.1,0.9c-0.4-0.3-0.9-0.6-1.3-0.9C468.4,225.6,468.8,225.6,469.1,225.9z"/>
		<path class="st254" d="M254.4,305.9c0-0.5-0.1-1-0.1-1.5c0.3,0,0.6,0,0.9,0C254.9,305,254.6,305.4,254.4,305.9z"/>
		<path class="st27" d="M289.5,342.9c0.2,0.3,0.5,0.5,0.7,0.8c-0.3,0.4-0.6,0.7-1,1.1C289.3,344.2,289.4,343.6,289.5,342.9z"/>
		<path class="st255" d="M450,179.8c0-0.3,0-0.6,0-0.9c0.6,0,1.3,0.1,1.9,0.1c0,0.4,0,0.8-0.1,1.2C451.2,180,450.6,179.9,450,179.8z
			"/>
		<path class="st256" d="M166.4,337.8c0.5,0,1,0.1,1.4,0.1c0,0.6-0.4,1-0.9,1.3c-0.4,0-0.8,0-1.1-0.2l-0.4-0.2
			C165.8,338.4,166.1,338.1,166.4,337.8z"/>
		<path class="st96" d="M274.2,306.6c0-0.3,0-0.6,0-1c0.3-0.3,0.5-0.5,0.8-0.8C275.6,305.8,274.8,306.2,274.2,306.6z"/>
		<path class="st257" d="M169.5,202.8c0.2,0.7,0.5,1.4,0.7,2.1C170,204.2,169.7,203.5,169.5,202.8z"/>
		<path class="st34" d="M291.2,110.1c0.1,0.3,0.1,0.7,0,1c-0.9,0.2-1.8,0.3-2.1-0.9C289.8,110.1,290.5,110.1,291.2,110.1z"/>
		<path class="st61" d="M450.9,159c0.9-0.2,1.6,0.2,2,1c-0.7,0.6-1.4,0.5-2-0.1l0.1,0.1c-0.3-0.2-0.5-0.4-0.4-0.7
			C450.7,159.1,450.8,159,450.9,159z"/>
		<path class="st43" d="M305.2,109c0,0.3,0,0.7-0.1,1c-0.6,0.1-1.3,0.1-1.9,0.2c0-0.3,0-0.7,0-1C303.8,108.6,304.5,108.5,305.2,109z
			"/>
		<path class="st258" d="M465.8,187.1c-0.8,0.1-1.5,0-1.7-1c0.6,0,1.2,0,1.8,0C465.9,186.4,465.9,186.8,465.8,187.1z"/>
		<path class="st259" d="M249.4,121.1c0.5-0.3,1-0.6,1.5-0.9c-0.1,0.3-0.2,0.6-0.4,0.9c-0.2,0-0.4,0.1-0.7,0.1L249.4,121.1z"/>
		<path class="st260" d="M371,329.4c0,0.4,0,0.9,0,1.3l-0.2,0.3l-0.4,0c-0.3,0.2-0.6,0.2-0.9,0.1l-0.3-0.1
			C369.8,330.4,370.4,329.9,371,329.4z"/>
		<path class="st258" d="M467.9,187.7c-0.7-0.2-1.4-0.4-2.1-0.7C466.5,187.3,467.2,187.5,467.9,187.7z"/>
		<path class="st261" d="M472.9,352.5c0.1-0.5,0.5-0.8,0.8-0.2c0.1,0.3-0.5,0.9-0.8,1.3c-0.2-0.2-0.3-0.5-0.2-0.7
			C472.7,352.6,472.8,352.5,472.9,352.5z"/>
		<path class="st262" d="M277.5,309.9c0.4,0,0.7,0,1.1,0.1c0.1,0.6-0.2,1-0.7,1.3c-0.4,0.1-0.7,0-1-0.2c-0.1-0.1-0.3-0.2-0.5-0.2
			C276.7,310.5,277.1,310.2,277.5,309.9z"/>
		<path class="st263" d="M442.1,330c-0.1-0.6-0.1-1.1-0.2-1.7c0.3-0.1,1-0.3,1-0.3C443.2,328.9,442.9,329.6,442.1,330z"/>
		<path class="st264" d="M322.1,106.9c0,0.3,0,0.6,0,0.9c-0.3,0.3-0.6,0.6-1,0.9c-0.3-0.3-0.5-0.6-0.4-1.1
			C321,107.1,321.4,106.7,322.1,106.9z"/>
		<path class="st157" d="M287.2,315.8c0.3-0.7,0.7-1.3,1-2C287.9,314.5,287.5,315.1,287.2,315.8z"/>
		<path class="st123" d="M440,149.2c0,0.3,0,0.6,0,0.9c-0.6,0.1-1.3,0.1-1.9,0.2c0-0.4-0.1-0.8-0.1-1.1
			C438.6,148.5,439.3,148.5,440,149.2z"/>
		<path class="st265" d="M465.1,210.9c0.3,0.2,0.7,0.3,1,0.5c-0.2,0.2-0.3,0.3-0.5,0.5c-0.2-0.3-0.5-0.6-0.7-0.9L465.1,210.9z"/>
		<path class="st209" d="M341.2,108.3c0-0.8,0-1.5,0-2.3C341.8,106.7,341.9,107.5,341.2,108.3z"/>
		<path class="st266" d="M435.9,148.3c0.1,0.3,0.1,0.6-0.1,0.9c-0.3-0.7-0.5-1.5-0.8-2.2c0,0-0.1,0.1-0.1,0.1
			C436,146.9,436.4,147.2,435.9,148.3z"/>
		<path class="st267" d="M168.5,355.9c0-0.3,0-0.7,0-1c0-0.4,0.2-0.6,0.6-0.7c0.3,0,0.7,0.1,1,0.2l0.3,0.2
			C169.7,355.1,169.1,355.5,168.5,355.9z"/>
		<path class="st199" d="M154.4,205c0.4,0,0.8,0.1,1.3,0.1c-0.2,0.6-0.5,1.1-1.3,3.1C154.4,206.1,154.4,205.5,154.4,205z"/>
		<path class="st268" d="M207.2,297.6c0.1,0.5,0.1,1,0.2,1.5c-0.3,0-0.6-0.1-0.9-0.1C206.7,298.5,207,298.1,207.2,297.6z"/>
		<path class="st246" d="M450.9,159c0,0.3,0,0.7,0.1,1c-0.7,0-1.4-0.1-2-0.1c0-0.3,0-0.6,0-0.9C449.6,159.1,450.2,159,450.9,159z"/>
		<path class="st269" d="M450.9,160c0.7,0,1.4,0,2,0.1c0,0.3,0.1,0.6,0.1,1C452.1,161.2,451.4,160.8,450.9,160z"/>
		<path class="st270" d="M311.4,305.9c0.3,0.1,0.6,0.1,1,0c-0.1,0.6-0.3,1.1-1.1,1c0,0,0,0,0,0C311.2,306.5,311.3,306.2,311.4,305.9
			z"/>
		<path class="st271" d="M379.1,305.8c0.4,0,0.8,0,1.3,0c-0.4,0.3-0.9,0.7-1.3,1c0,0-0.2-0.2-0.2-0.2
			C378.7,306.3,378.8,306,379.1,305.8z"/>
		<path class="st272" d="M443,169.7c0-0.3,0-0.6,0.1-0.9c0.3,0,0.6,0.1,0.9,0.3c0,0.3,0,0.7,0,1C443.6,169.9,443.3,169.8,443,169.7z
			"/>
		<path class="st273" d="M410.4,307.2c0.3,0,0.5,0.1,0.6,0.4c-0.3,0.2-0.5,0.5-0.8,0.7C410.2,307.9,410.3,307.5,410.4,307.2z"/>
		<path class="st274" d="M322.2,96.1c0,0.3,0,0.7,0,1c-0.3-0.1-0.7-0.2-1-0.3C321.5,96.6,321.8,96.3,322.2,96.1z"/>
		<path class="st274" d="M320.4,97.2c-0.4,0.3-0.8,0.6-1.2,0.9C319.6,97.8,320,97.5,320.4,97.2z"/>
		<path class="st61" d="M445.9,165c0.4,0.3,0.8,0.5,1.3,0.8C446.8,165.5,446.4,165.3,445.9,165z"/>
		<path class="st203" d="M244.3,338.8c0.3-0.3,0.5-0.7,0.8-1C244.8,338.1,244.6,338.5,244.3,338.8z"/>
		<path class="st245" d="M387,337.2c-0.1,0.4-0.2,0.8-0.3,1.2c-0.2-0.1-0.4-0.2-0.5-0.4C386.4,337.8,386.7,337.5,387,337.2z"/>
		<path class="st209" d="M338.9,102.1c-0.2-0.4-0.4-0.8-0.6-1.2C338.4,101.3,338.6,101.7,338.9,102.1z"/>
		<path class="st209" d="M340.1,104.1c-0.3-0.4-0.6-0.8-0.9-1.3C339.5,103.2,339.8,103.6,340.1,104.1z"/>
		<path class="st209" d="M337.3,104.1c0.3,0.4,0.5,0.7,0.8,1.1C337.8,104.8,337.6,104.4,337.3,104.1z"/>
		<path class="st25" d="M284.4,317.8c0.4,0,0.9,0,1.3,0.1c-0.5,0.4-0.9,0.7-1.4,1.1c0,0-0.3-0.3-0.3-0.3
			C283.9,318.3,284,318,284.4,317.8z"/>
		<path class="st209" d="M340.8,105.1c-0.2-0.3-0.5-0.7-0.7-1C340.4,104.4,340.6,104.7,340.8,105.1z"/>
		<path class="st275" d="M256.1,105.9c0.4-0.3,0.8-0.5,1.2-0.8c0,0-0.1-0.1-0.1-0.1c0.5,0.8,0,1.1-0.7,1.3
			C256.4,106.2,256.3,106,256.1,105.9z"/>
		<path class="st276" d="M216.4,339.9c0-0.3,0-0.6,0-0.9c0.1-0.4,0.4-0.6,0.8-0.6l0.2,0.4c0.2,0.2,0.3,0.4,0.2,0.6
			c-0.1,0.2-0.2,0.3-0.2,0.3C217,339.8,216.7,339.9,216.4,339.9z"/>
		<path class="st157" d="M217.3,339.7c0-0.3,0-0.6,0-0.9c0.4,0,0.8,0,1.3,0.1C218.2,339.1,217.8,339.4,217.3,339.7z"/>
		<path class="st209" d="M338.1,105.1c0.3,0.5,0.6,0.9,0.9,1.4C338.7,106,338.4,105.6,338.1,105.1z"/>
		<path class="st277" d="M302,339.3c-0.4,0.1-0.8,0.3-1.1,0.4c0.2-0.3,0.4-0.6,0.6-0.9C301.7,338.9,301.8,339.1,302,339.3z"/>
		<path class="st278" d="M334.1,339.8c-0.4,0-0.7,0-1.1,0c0.3-0.4,0.6-0.7,0.9-1.1c0,0,0.3,0.1,0.3,0.1s0.1,0.2,0.1,0.2
			C334.5,339.3,334.4,339.5,334.1,339.8z"/>
		<path class="st279" d="M238.9,106.9c-0.3,0-0.7,0.1-1,0.1c0.5-0.4,1-0.8,1.4-1.2C239.1,106.2,239,106.5,238.9,106.9z"/>
		<path class="st245" d="M407.2,340.3c0-0.2-0.1-0.4-0.1-0.6c0.3-0.7,0.6-0.3,0.9,0.1C407.7,339.9,407.4,340.1,407.2,340.3z"/>
		<path class="st280" d="M309.3,107.1c0.3-0.4,0.6-0.7,0.9-1.1C309.9,106.4,309.6,106.7,309.3,107.1z"/>
		<path class="st281" d="M294.2,108.1c0.1-0.3,0.2-0.6,0.3-0.8c0.1,0.2,0.3,0.3,0.4,0.5C294.7,107.8,294.5,107.9,294.2,108.1
			C294.2,108.1,294.2,108.1,294.2,108.1z"/>
		<path class="st282" d="M292.2,340.7c-0.2-0.2-0.4-0.4-0.6-0.6c0-0.1,0.1-0.2,0.2-0.4c0.2,0.1,0.5,0.1,0.8,0.1
			C292.5,340.2,292.4,340.5,292.2,340.7z"/>
		<path class="st258" d="M457,193.9c0.5,0.3,0.9,0.6,1.4,0.9C457.9,194.5,457.4,194.2,457,193.9z"/>
		<path class="st245" d="M330.4,328.4c0.4-0.2,0.8-0.4,1.1-0.5c-0.2,0.3-0.4,0.6-0.6,0.9C330.8,328.7,330.6,328.5,330.4,328.4z"/>
		<path class="st280" d="M308.1,107.1c0.4,0,0.7,0,1.1,0c0,0.3-0.2,0.6-0.4,0.7c0,0-0.5-0.1-0.5-0.1l-0.4,0.2
			c-0.1-0.2-0.1-0.3-0.2-0.5C307.9,107.4,308,107.3,308.1,107.1z"/>
		<path class="st283" d="M364.9,114.9c0.3-0.2,0.6-0.3,0.9-0.5c-0.2,0.3-0.4,0.5-0.6,0.8C365.2,115.2,364.9,114.9,364.9,114.9z"/>
		<path class="st284" d="M296.4,117.3c0.4,0,0.8-0.1,1.1-0.1c-0.5,0.3-0.9,0.6-1.4,0.9C296.2,117.8,296.3,117.5,296.4,117.3z"/>
		<path class="st285" d="M292.2,118.1c-0.3,0.6-0.6,0.6-0.9,0C291.6,117.9,291.9,117.9,292.2,118.1z"/>
		<path class="st286" d="M321.1,107.9c0,0.3,0,0.6,0,0.9c-0.3,0.2-0.6,0.4-0.9,0.6c0-0.4-0.1-0.7-0.1-1.1
			C320.4,107.9,320.7,107.7,321.1,107.9z"/>
		<path class="st287" d="M249.8,121.2c0.2,0,0.4-0.1,0.7-0.1c-0.4,0.4-0.8,0.9-1.2,1.3C249.5,122,249.7,121.6,249.8,121.2z"/>
		<path class="st288" d="M247.3,122.8c0,0.4,0,0.8,0,1.2c-0.2,0.3-0.5,0.4-0.9,0.4c0-0.4-0.1-0.7-0.1-1.1
			C246.6,123.1,246.9,123,247.3,122.8z"/>
		<path class="st289" d="M443.8,141.3c-0.4-0.4-0.8-0.7-1.2-1.1C443,140.5,443.4,140.9,443.8,141.3z"/>
		<path class="st18" d="M299.1,344.7c0-0.3,0.1-0.7,0.1-1C299.2,344,299.1,344.4,299.1,344.7z"/>
		<path class="st290" d="M147.9,235.1c0.4-0.1,0.9-0.1,1.3-0.2C149,236.2,148.4,235.3,147.9,235.1z"/>
		<path class="st290" d="M146.2,234c0.4,0.3,0.9,0.6,1.3,0.9C147,234.6,146.6,234.3,146.2,234z"/>
		<path class="st204" d="M467.7,232.6c-0.2,0.4-0.5,0.9-0.7,1.3C467.2,233.5,467.5,233,467.7,232.6z"/>
		<path class="st291" d="M221.4,347.8c0.4,0,0.7,0,1.1,0c-0.1,0.3-0.3,0.6-0.4,0.9c-0.3,0-0.6,0-0.9,0
			C221.3,348.4,221.4,348.1,221.4,347.8z"/>
		<path class="st292" d="M369.5,331c0.3-0.1,0.6-0.1,0.9-0.1c-0.2,0.3-0.4,0.6-0.6,0.8C369.5,331.6,369.4,331.3,369.5,331z"/>
		<path class="st290" d="M149.1,233.9c-0.2-0.3-0.4-0.5-0.7-0.8C148.7,233.3,148.9,233.6,149.1,233.9z"/>
		<path class="st203" d="M244.3,333.7c-0.2,0.4-0.5,0.7-0.7,1.1C243.8,334.4,244,334,244.3,333.7z"/>
		<path class="st293" d="M377.2,333.7c0.3,0,0.6,0,0.9,0.1c-0.2,0.2-0.5,0.4-0.7,0.7C377.4,334.2,377.3,334,377.2,333.7z"/>
		<path class="st135" d="M243.3,289.8c-0.4,0.3-0.7,0.6-1.1,0.9C242.6,290.4,243,290.1,243.3,289.8z"/>
		<path class="st294" d="M469.1,225.9c-0.4,0-0.8,0-1.1,0c0-0.3-0.1-0.6-0.1-0.9c0,0,0,0,0,0C468.3,225.2,468.7,225.6,469.1,225.9z"
			/>
		<path class="st157" d="M220.5,337c0.3-0.4,0.5-0.8,0.8-1.3C221,336.2,220.7,336.6,220.5,337z"/>
		<path class="st295" d="M442.9,352.6c0.2-0.2,0.5-0.5,0.7-0.7c-0.1,0.3-0.2,0.6-0.4,0.9c0,0-0.3,0-0.3,0L442.9,352.6z"/>
		<path class="st296" d="M361.9,291.7c0.3-0.3,0.6-0.7,0.9-1c0.2,0,0.3,0.1,0.3,0.3c-0.3,0.3-0.7,0.6-1,0.9
			C362.2,291.9,361.9,291.7,361.9,291.7z"/>
		<path class="st143" d="M166.4,178c0.3-0.9,0.7-0.7,1,0C167.1,178,166.8,178,166.4,178z"/>
		<path class="st18" d="M417.9,291.8c-0.4,0-0.8,0-1.1,0c0.3-0.4,0.7-0.8,1-1.2c0.2,0.2,0.3,0.3,0.5,0.5
			C418.3,291.4,418.2,291.6,417.9,291.8z"/>
		<path class="st297" d="M330.3,352.8c0.3,0,0.7,0,1,0c-0.3,0.4-0.7,0.7-1,1.1l-0.3-0.3C329.9,353.2,330,353,330.3,352.8z"/>
		<path class="st298" d="M362,292.8c-0.4,0-0.8,0-1.1,0c0.4-0.4,0.7-0.7,1.1-1.1c0,0,0.3,0.2,0.3,0.2
			C362.3,292.3,362.3,292.5,362,292.8z"/>
		<path class="st84" d="M224.3,292.6c-0.3,0.4-0.5,0.8-0.8,1.2C223.7,293.4,224,293,224.3,292.6z"/>
		<path class="st299" d="M472.9,352.5c0,0.4,0,0.7,0,1.1c-0.3,0.2-0.6,0.5-0.9,0.7c0-0.4,0-0.9,0-1.4
			C472.3,352.8,472.6,352.6,472.9,352.5z"/>
		<path class="st300" d="M328.9,354.5c0.4-0.3,0.7-0.6,1.1-1c0,0,0.3,0.3,0.3,0.3c-0.3,0.3-0.7,0.7-1,1
			C329.2,354.8,329.1,354.7,328.9,354.5z"/>
		<path class="st301" d="M381.3,292.8c0.3,0,0.6,0,1,0c-0.3,0.3-0.6,0.5-0.8,0.8C381.4,293.4,381.4,293.1,381.3,292.8z"/>
		<path class="st302" d="M478.2,218.7c0.4,0.4,0.7,0.7,1.1,1.1c-0.3,0-0.5,0.2-0.5,0.5c-0.3-0.4-0.7-0.8-1-1.2
			C477.8,218.9,478,218.8,478.2,218.7z"/>
		<path class="st39" d="M187.4,148.1c0-0.7,0.2-1.1,1-1l-0.1-0.1C188.5,147.8,188.2,148.2,187.4,148.1
			C187.3,148,187.4,148.1,187.4,148.1z"/>
		<path class="st47" d="M188.4,147c0.2-0.3,0.4-0.7,0.6-1c0.1,0.1,0.2,0.3,0.3,0.4C189,146.6,188.7,146.8,188.4,147
			C188.4,147,188.4,147,188.4,147z"/>
		<path class="st289" d="M444.8,142.3c-0.4-0.4-0.7-0.7-1.1-1.1C444.1,141.6,444.5,141.9,444.8,142.3z"/>
		<path class="st303" d="M463.4,210c0.4,0,0.8,0,1.3,0c0.1,0.3,0.2,0.6,0.4,0.9c0,0-0.2,0.1-0.2,0.1
			C464.4,210.7,463.9,210.3,463.4,210z"/>
		<path class="st219" d="M340.9,282.9c0.4,0.4,0.8,0.7,1.2,1.1C341.7,283.7,341.3,283.3,340.9,282.9z"/>
		<path class="st25" d="M372.1,300.9c1,0.5,0.1,0.7-0.1,1C372,301.5,372.1,301.2,372.1,300.9z"/>
		<path class="st17" d="M344.2,348.8c1,0.5,0,0.7-0.1,1C344.1,349.5,344.1,349.1,344.2,348.8z"/>
		<path class="st304" d="M210.7,342.9c0.3-0.3,0.6-0.6,0.8-0.9c2.7,3.8,5.8,7.5,3.8,12.7c-0.2,0.4-0.5,0.5-0.9,0.2
			c-5.6-1.1-6.6-3.9-4.2-11.1C210,343.2,210.2,343,210.7,342.9z"/>
		<path class="st289" d="M217.2,338.5c-0.3,0.2-0.5,0.4-0.8,0.6c-2.9-1.3-1.5-4-1.9-6.1c1-1.4,1.4-3.5,3.9-3.1
			c1.5,1.7,1,3.6,0.9,5.5c0,0.6-0.4,1-0.7,1.4C218,337.3,217.6,337.9,217.2,338.5z"/>
		<path d="M214.4,354.9c0.3-0.2,0.6-0.3,0.9-0.2c-0.1,0.2-0.1,0.5-0.2,0.7C214.9,355.2,214.6,355,214.4,354.9z"/>
		<path class="st305" d="M268.3,339.9c1.4-1.3,3.1-1.6,5-1.4c3,5.1-1.7,8.2-3,12.2c-1.4,0.9-1.8,3.3-4.3,3c-1.7-3.3,0.1-6.6,0.4-9.8
			C267,342.6,267.7,341.2,268.3,339.9z"/>
		<path class="st306" d="M271.1,350.7c-0.1,0.3-0.2,0.7-0.3,1c-0.2-0.2-0.3-0.4-0.3-0.7C270.7,350.9,270.9,350.8,271.1,350.7z"/>
		<path class="st305" d="M188.1,352.7c-1.3,1.3-2.8,2.3-4.8,2.2c-3.9-1.8-0.9-4.6-0.9-6.9c2-3,4.1-6,6.1-9c3.9,1.6,1.5,4.7,1.5,7.2
			c0,1.9-1,3.8-1.5,5.7C188.8,352.2,188.6,352.5,188.1,352.7z"/>
		<path class="st135" d="M243.1,291.8c1.2-1,2.7-1,4.2-1c3.6,2.9,0.4,5.6-0.4,8.3c-0.5,1.7-1.7,3.1-2.6,4.7c-1,1-2.1,2-3.1,3
			c-3.8-3-0.4-6.4-0.7-9.6C241.4,295.3,242.2,293.5,243.1,291.8z"/>
		<path class="st307" d="M284.4,317.8c-0.4,0.2-0.5,0.5-0.4,0.8c-0.6,0.4-1.2,0.7-1.8,1.1c-5.8,0-7.4-2.8-5.1-8
			c-0.1-0.5,0-0.8,0.6-0.8c0.3-0.3,0.6-0.7,0.8-1c2.2-1,4.5-1.8,5.7-4.1c-0.1-2,0.4-3.5,2.6-4.1c1.3,0.9,0.9,2,0.5,3.1
			c-0.1,1.2-0.2,2.5-0.3,3.7c-0.8,1.3,0,2.9-0.7,4.2c-0.1,0.6-0.2,1.1-0.3,1.7C285.5,315.6,285,316.7,284.4,317.8z"/>
		<path class="st305" d="M281.4,295c1.3-1.8,2.2-4.2,4.9-4.4c5.7,2.1,0.9,5.4,1,8.2c-0.6,2.3-1.9,4.3-3.3,6.2
			c-0.3,0.3-0.7,0.6-1.1,0.7c-2.3,0.8-3.1-0.3-2.9-2.4C280.3,300.5,280.9,297.8,281.4,295z"/>
		<path class="st308" d="M283.4,304.9c1.3-2,2.6-4,3.9-6.1c1.3,2,1.6,4,0.1,6c-0.1-0.7-0.3-1.5-0.4-2.3c-1,1.1-1.8,2.2-2.7,3.2
			l-0.3,0.1l-0.3-0.1C283.8,305.4,283.7,305.1,283.4,304.9z"/>
		<path class="st157" d="M286.4,312.8c0.2-1.4,0.5-2.8,0.7-4.2C287.4,310.1,287.5,311.6,286.4,312.8z"/>
		<path class="st309" d="M304.1,301.7c-1.3,0.2-1.3,1.3-1.8,2.1c-0.8,0.9-1.6,1.9-2.4,2.8c-3.8-1.9-1.4-5.1-1.3-7.7
			c0-1.7,0.9-3.5,1.4-5.2c-0.2-0.5,0-0.8,0.5-0.9c1.3-1.2,2.8-2.3,4.7-2.1c4,1.9,1.1,4.6,0.8,6.9c-0.6,1.1-1.1,2.2-1.7,3.2
			c0.2,0.4,0.1,0.7-0.2,0.9L304.1,301.7z"/>
		<polygon class="st273" points="210.9,314.5 210.7,314.2 210.9,314.2 		"/>
		<path d="M209.3,297.5c-0.2-0.1-0.4-0.1-0.6-0.2c0.1-0.1,0.2-0.2,0.3-0.3C209.1,297.1,209.2,297.3,209.3,297.5z"/>
		<path class="st310" d="M226.4,292c1.2-0.7,2.2-1.9,3.8-1c1,4-0.7,6.8-4.1,8.7c-3.4,0.1-1.4-2.3-1.7-3.7c0.2-0.4,0.4-0.8,0.6-1.2
			c0.1-0.3,0.2-0.6,0.3-0.9c0.3-0.3,0.5-0.6,0.7-1.1C226.3,292.6,226.4,292.4,226.4,292z"/>
		<path class="st84" d="M226,292.8c-0.2,0.4-0.4,0.7-0.7,1.1C225.6,293.5,225.8,293.2,226,292.8z"/>
		<path class="st84" d="M225,294.8c-0.2,0.4-0.4,0.8-0.6,1.2C224.6,295.6,224.8,295.2,225,294.8z"/>
		<path class="st311" d="M466.7,339.7c0.3-0.1,0.4-0.3,0.3-0.7c0.1-0.4,0.4-0.6,0.8-0.6c5.2-0.8,2.4,3,2.9,4.9
			c-1.6,1.3-3.3,2.6-4.9,4C462.9,344.5,466.4,342.3,466.7,339.7z"/>
		<path class="st312" d="M168.9,354.6l-0.3,0l-0.1,0.3c-2.8,0.7-3.9-0.7-4.2-3.2c-0.5-4.2,0.4-8.1,2-11.9c-0.2-0.5,0-0.7,0.5-0.9
			c0.4-0.3,0.8-0.6,1.2-0.9c0.8,0,1.7-0.1,2.5-0.1c3.5,5.5,1.3,10.7-0.8,15.9C169.7,354.3,169.5,354.6,168.9,354.6z"/>
		<path class="st247" d="M166.7,338.9c-0.2,0.3-0.3,0.6-0.5,0.9c-0.3-0.2-0.4-0.4-0.4-0.7C166.1,339,166.4,338.9,166.7,338.9z"/>
		<path class="st258" d="M456.9,192c-0.3-0.7-0.6-1.5-0.9-2.2c0.3-1.6,1.7-1.6,2.9-2c3.6,0.7,8.2-1,10,4.1c-2.7,1.7-5.8,1.9-8.9,2.2
			C458.9,193.4,457.9,192.7,456.9,192z"/>
		<path d="M210.7,342.9c-0.2,0.3-0.4,0.6-0.5,0.8c-0.3-0.2-0.5-0.4-0.3-0.8C210.1,342.9,210.4,342.9,210.7,342.9z"/>
		<path class="st257" d="M177.5,202c-0.4,0.7-0.8,1.3-1.1,2c-1.1,0.9-2.4,1.2-3.8,0.9c-0.8-1.3-1.6-2.6-2.3-3.9c0-1.6,0-3.3,0-4.9
			c-0.9-0.7-1.8-1.5-1.4-2.9c0.1-0.5,0.3-0.9,0.6-1.2c2.9,1,5.1,2.9,7.2,4.9C177.5,198.4,177.9,200.1,177.5,202z"/>
		<path class="st313" d="M162.4,195c-0.6-0.8-1.3-1.6-1.9-2.4c0.3-1.5,0.6-3.1,0.8-4.6c4.9-1.9,4.4,3.9,7.1,5.1
			c0.1,0.2,0.2,0.3,0.4,0.5c0,0.8,0.3,1.6,0.4,2.4C166.1,201.7,164.7,195.2,162.4,195z"/>
		<path class="st313" d="M169.4,191.9c0,0.3,0,0.7,0,1c-0.3,0.6-0.7,0.6-1,0c0,0,0.1,0.1,0.1,0.1c0.1-0.6,0.2-1.1,0.3-1.7
			C169,191.5,169.2,191.7,169.4,191.9z"/>
		<path class="st305" d="M355,303.6c-1,1.4-1.9,2.7-2.9,4.1c-4.4,0.4-4.1-2.9-4-5.5c0.1-2.7,0.8-5.4,1.2-8.1c1.2-1.5,2.1-3.4,4.1-4
			C358.3,294,355.3,298.9,355,303.6z"/>
		<path class="st314" d="M387,338.8c3.7-1.9,3.4,0.7,3.3,3c-0.1,3.4-3,4.5-5.3,5.9C382.4,344,385.8,341.6,387,338.8z"/>
		<path class="st280" d="M305.2,109c-0.7,0-1.3,0.1-2,0.1c-3.2-1.2-1.6-3.2-0.9-5c0.6-1,1.3-2,1.9-3c-0.2-0.2-0.3-0.5-0.2-0.7
			c0.1-0.2,0.2-0.3,0.3-0.3c0,0-0.1,0.1-0.1,0.1c1-0.9,2-1.9,3-2.8c3.7,0.3,2,3,1.9,4.7c0,1.7-0.7,3.4-1,5.1c0,0,0.1-0.1,0.1-0.1
			c-0.4,0.5-0.8,0.8-1.4,1C306.3,108.4,305.8,108.7,305.2,109z"/>
		<path class="st315" d="M188.1,352.7c0.2-0.3,0.3-0.6,0.5-0.9c0.2,0.1,0.4,0.2,0.6,0.4C188.9,352.4,188.5,352.5,188.1,352.7z"/>
		<path class="st292" d="M300.5,292.9c-0.2,0.3-0.3,0.6-0.5,0.9c-0.2-0.1-0.4-0.2-0.6-0.4C299.8,293.2,300.2,293.1,300.5,292.9z"/>
		<path class="st243" d="M145.2,219.9c0.4-1,0.9-1.9,1.3-2.9c5.6-3.4,9.9-0.8,14,2.9c1.3,2.2,1.2,4.6,1.1,7.1c0,0.4,0,0.7,0,1.1
			c-0.2,0.8-0.3,1.7-0.5,2.5c-1.3,1.2-1.8-0.4-2.6-0.8c-3.5-3.8-8.6-4-12.9-6C144.5,222.5,145.3,221.2,145.2,219.9z"/>
		<path class="st316" d="M283.4,304.9c0.1,0.2,0.3,0.4,0.4,0.6c0,0.1-0.1,0.2-0.2,0.3c-0.3-0.1-0.6-0.1-0.8-0.1
			C283,305.4,283.2,305.1,283.4,304.9z"/>
		<path class="st277" d="M168.9,354.6c0.2-0.3,0.5-0.6,0.7-0.9c0.3,0.1,0.4,0.3,0.4,0.6C169.6,354.5,169.3,354.6,168.9,354.6z"/>
		<path class="st274" d="M321.1,107.9c-0.3,0.1-0.6,0.3-0.9,0.4c-5.1-1.6-0.9-4.8-1.2-7.3c-0.2-0.4-0.1-0.7,0.4-0.9
			c0.9-1,1.9-2,2.8-3.1c0.7,0,1.4,0,2.1,0c5.9,2.7-0.6,5.4,0,8.1c0,0,0.1-0.1,0.1-0.1c-0.4,0.4-0.7,0.7-1.1,1.1c0,0,0.1-0.1,0.1-0.1
			c-0.4,0.3-0.7,0.6-1.1,0.9C321.8,107.3,321.4,107.6,321.1,107.9z"/>
		<path class="st317" d="M471,207.6c-0.3-0.2-0.7-0.4-1-0.7c-0.8-1.3-2.4-2.1-2.2-4c3,0.2,6.8-1.1,7,4
			C473.5,207.1,472.2,207.3,471,207.6z"/>
		<path class="st289" d="M435.9,148.3c0.1-0.8-0.2-1.2-1-1.3c1.6-2.9,4.8-4,7.1-6.1c3.9,3.8,2.8,6.5-2,8.2c-0.7,0-1.4,0-2-0.1
			C437.3,148.8,436.6,148.6,435.9,148.3z"/>
		<path class="st0" d="M170.4,175.9c0.8,0.3,1,0.6,0.1,1C170.4,176.6,170.4,176.3,170.4,175.9z"/>
		<path d="M277.7,310.9c-0.2,0.3-0.4,0.6-0.6,0.8c-0.4-0.2-0.4-0.4-0.3-0.7C277.1,311,277.4,311,277.7,310.9z"/>
		<path class="st307" d="M256.5,106.3c0.2-0.4,0.5-0.9,0.7-1.3c3.6-0.2,4.5,2.3,5.2,5c-0.1,1.9-0.2,3.9-0.3,5.8
			c-0.6,0.7-1.2,1.4-1.9,2.2c-2.8,0.2-3.4-2-4.2-3.9C256.2,111.5,256.4,108.9,256.5,106.3z"/>
		<path class="st318" d="M319.4,100.1c-0.1,0.3-0.2,0.6-0.4,0.9c-0.3-0.1-0.5-0.3-0.6-0.6C318.7,100.3,319,100.2,319.4,100.1z"/>
		<path class="st319" d="M377,117c-0.6,0.4-1.2,0.7-1.9,1.1c-1.1,0.1-2.1,0.1-3.2,0.2c-2.5-3.9,0.5-6.4,2.3-9.2
			c1.6-0.7,2.9-2.2,5-1.4C381.6,111.6,378.7,114.2,377,117z"/>
		<path class="st320" d="M373.2,108.5l0.4,0c0,0,0,0.4,0,0.4C373.5,108.8,373.3,108.7,373.2,108.5z"/>
		<path class="st246" d="M448.1,160.1c-0.7,0.2-1.4,0.5-2.1,0.7C446.7,160.5,447.4,160.3,448.1,160.1z"/>
		<path class="st321" d="M467.8,338.5c-0.3,0.2-0.5,0.4-0.8,0.6c0-0.3,0-0.5,0-0.8C467.3,338.1,467.6,338.2,467.8,338.5z"/>
		<path class="st322" d="M168.4,192.9c0.3,0,0.7,0,1,0c0.3,1,0.5,2.1,0.8,3.1l-0.5,0c0,0-0.5-0.1-0.5-0.1
			C168.3,195.1,168.1,194.1,168.4,192.9z"/>
		<path class="st323" d="M377.9,117.6l-0.4,0c0,0,0-0.4,0-0.4C377.7,117.3,377.8,117.5,377.9,117.6z"/>
		<path class="st157" d="M218.4,336.8c0.2-0.5,0.5-0.9,0.7-1.4C218.9,335.8,218.7,336.3,218.4,336.8z"/>
		<path class="st324" d="M426.8,151.2c0,0.4-0.2,0.6-0.6,0.6C426.2,151.4,426.4,151.2,426.8,151.2z"/>
		<path class="st325" d="M304.3,100.1c0,0.3,0,0.7,0,1c-0.2-0.1-0.4-0.2-0.7-0.3C303.8,100.5,304,100.3,304.3,100.1z"/>
		<path class="st10" d="M304.1,301.9c-0.1-0.3,0-0.7,0.2-0.9c0.1,0.2,0.2,0.4,0.1,0.6C304.4,301.7,304.2,301.8,304.1,301.9z"/>
		<path class="st57" d="M479.8,224.9c-0.2-0.3-0.5-0.6-0.7-0.9C479.3,224.3,479.6,224.6,479.8,224.9z"/>
		<path class="st42" d="M323.1,106.1c0-0.7,0.3-1.2,1.1-1.1C323.8,105.4,323.5,105.7,323.1,106.1z"/>
		<path class="st167" d="M306.9,108.1c0.5-0.3,0.9-0.7,1.4-1c-0.1,0.3-0.2,0.7-0.3,1C307.6,108.1,307.2,108.1,306.9,108.1z"/>
	</g>
</g>
</svg>
