<?xml version="1.0" encoding="utf-8"?>
<!-- Generator: Adobe Illustrator 24.1.1, SVG Export Plug-In . SVG Version: 6.00 Build 0)  -->
<svg version="1.1" id="Layer_1" xmlns="http://www.w3.org/2000/svg" xmlns:xlink="http://www.w3.org/1999/xlink" x="0px" y="0px"
	 viewBox="0 0 640 480" style="enable-background:new 0 0 640 480;" xml:space="preserve">
<style type="text/css">
	.st0{fill:#224668;}
	.st1{fill:#224668;stroke:#FFFFFF;stroke-miterlimit:10;}
</style>
<g>
	<rect x="223.4" y="252.4" class="st0" width="194" height="8.4"/>
	<rect x="223.4" y="304.5" class="st0" width="194" height="8.4"/>
	<rect x="216.5" y="312.9" class="st0" width="207.8" height="8.4"/>
	<rect x="216.5" y="323.4" class="st0" width="207.8" height="17.6"/>
	<g>
		<rect x="310.5" y="262.4" class="st0" width="4.6" height="40.6"/>
		<rect x="294.1" y="262.4" class="st0" width="4.6" height="40.6"/>
		<rect x="278.2" y="262.4" class="st0" width="4.6" height="40.6"/>
		<rect x="264.3" y="262.4" class="st0" width="4.6" height="40.6"/>
		<rect x="250.5" y="262.4" class="st0" width="4.6" height="40.6"/>
		<rect x="240.8" y="262.4" class="st0" width="4.6" height="40.6"/>
		<rect x="232.9" y="262.4" class="st0" width="4.6" height="40.6"/>
		<rect x="224.5" y="262.4" class="st0" width="4.6" height="40.6"/>
		<rect x="325.6" y="262.4" class="st0" width="4.6" height="40.6"/>
		<rect x="342.4" y="262.4" class="st0" width="4.6" height="40.6"/>
		<rect x="358.8" y="262.4" class="st0" width="4.6" height="40.6"/>
		<rect x="372.6" y="262.4" class="st0" width="4.6" height="40.6"/>
		<rect x="386.1" y="262.4" class="st0" width="4.6" height="40.6"/>
		<rect x="396.1" y="262.4" class="st0" width="4.6" height="40.6"/>
		<rect x="404.1" y="262.4" class="st0" width="4.6" height="40.6"/>
		<rect x="411.7" y="262.4" class="st0" width="4.6" height="40.6"/>
	</g>
	<polygon class="st0" points="416.8,249.5 223.9,249.5 227.1,241.1 413.8,241.1 	"/>
	<polygon class="st0" points="398.7,194.1 320.4,194.1 242,194.1 239.2,202.5 320.4,202.5 401.5,202.5 	"/>
	<polygon class="st0" points="391.4,185.3 391.4,182.5 249.3,182.5 249.3,185.3 243.9,185.3 243.9,192 396.9,192 396.9,185.3 	"/>
	<rect x="295.7" y="112.4" class="st0" width="49.4" height="3.2"/>
	<rect x="296.9" y="107.3" class="st0" width="46.9" height="5"/>
	<g>
		<polygon class="st0" points="336.5,97.8 337.3,97.8 337.3,95.1 335.8,95.1 335.8,91.8 304.9,91.8 304.9,95.1 303.4,95.1 
			303.4,97.8 304.2,97.8 304.2,102.8 302.7,102.8 302.7,105.6 338.1,105.6 338.1,102.8 336.5,102.8 		"/>
		<rect x="305.9" y="65.8" class="st0" width="28.9" height="3.1"/>
		<polygon class="st0" points="320.1,64.8 320.6,64.8 335.3,64.8 338.4,61.2 334.5,61.2 334.5,57.9 306.3,57.9 306.3,61.2 
			302.3,61.2 305.4,64.8 		"/>
		<rect x="314.8" y="69.2" class="st0" width="3.4" height="22.1"/>
		<rect x="321.8" y="69.2" class="st0" width="3.4" height="22.1"/>
		<rect x="328.9" y="69.2" class="st0" width="3.4" height="22.1"/>
		<rect x="308.5" y="69.2" class="st0" width="3.4" height="22.1"/>
	</g>
	<path class="st0" d="M329.7,49.8h-9.3H311c0,0-3.2,6.9-3.4,7.3h12.7H333C332.9,56.7,329.7,49.8,329.7,49.8z"/>
	<path class="st0" d="M313.5,48.7c-0.4-0.6,0.3-1.3,1.1-3.7c0.4-1.2,1.7-4.9,0.3-6.2c-0.6-0.5-1.2-0.2-1.5-0.7
		c-0.4-0.7,0.7-1.9,2.5-5.2c1.1-2,1.3-2.7,1.4-3.2c0.1-1,0-1.8-0.3-3.4c-0.3-1.7-0.4-2.5-1.1-3.2c-0.5-0.5-0.8-0.5-1.1-1.1
		c-0.3-0.6-0.2-1.1-0.3-2.2c0-2.5-0.5-2.6-0.1-3.7c0.2-0.5,0.4-1,1-1.8c0.6-1,0.7-0.9,1-1.4c0.7-1.5-0.5-2.6,0.1-3.8
		c0.6-1.1,2.3-1.1,2.2-1.5c0-0.3-1.2-0.3-1.3-0.5c0-0.3,1.7-0.4,2.1-1.4c0.3-0.7-0.5-1.3-0.1-2c0.4-0.8,1.6-0.5,2.1-1.4
		c0.4-0.6,0-1.3,0.3-1.4c0.3-0.1,0.6,1,2,2.8c0.4,0.5,0.6,0.7,0.5,1c-0.1,0.8-1.7,0.8-2,1.7c-0.2,0.7,0.6,1.2,1.5,2.5
		c0.8,1.1,1.1,2.3,1.8,4.5s1.1,3.8,0.4,4.5c-0.2,0.2-0.6,0.3-1,0.3c-0.9-0.2-1.2-1.7-1.3-1.7c0,0,0.9,2.5,1.4,4.9
		c0.2,1.2,1.1,4.9-0.1,5.6c-0.7,0.4-1.8-0.5-2.2,0c-0.2,0.3,0.1,0.8,0.3,2c0.2,1.3-0.1,1.5,0.1,2.4c0.3,1.3,1.2,1.3,1.8,2.4
		c1.2,2.2-0.7,5.4-0.3,5.6c0.2,0.1,0.9-0.9,1-0.8s-0.8,1.2-1,2.5c0,0.4-0.1,1.3,1,3.5c1.4,2.9,2.6,3.6,2.2,4.2
		c-0.3,0.6-1.9,0-5.7-0.1c-2,0-4,0.1-4.2,0.1C315,48.9,313.9,49.3,313.5,48.7z"/>
	<g>
		<polygon class="st0" points="169,356.9 170.9,356.9 170.9,360.7 260.8,360.7 260.8,356.9 261.8,356.9 261.8,354.1 169,354.1 		"/>
		<rect x="228.9" y="365.9" class="st0" width="6.2" height="6.2"/>
		<rect x="229.7" y="372.7" class="st0" width="4.5" height="50.2"/>
		<rect x="227.6" y="423.6" class="st0" width="8.7" height="8.7"/>
		<rect x="208.7" y="365.9" class="st0" width="6.2" height="6.2"/>
		<rect x="209.5" y="372.7" class="st0" width="4.5" height="50.2"/>
		<rect x="207.4" y="423.6" class="st0" width="8.7" height="8.7"/>
		<rect x="188.2" y="365.9" class="st0" width="6.2" height="6.2"/>
		<rect x="189" y="372.7" class="st0" width="4.5" height="50.2"/>
		<rect x="186.9" y="423.6" class="st0" width="8.7" height="8.7"/>
		<rect x="169" y="365.9" class="st0" width="6.2" height="6.2"/>
		<rect x="169.8" y="372.7" class="st0" width="4.5" height="50.2"/>
		<rect x="167.7" y="423.6" class="st0" width="8.7" height="8.7"/>
		<rect x="163.7" y="351.4" class="st0" width="98.1" height="2.2"/>
		<rect x="170" y="361.6" class="st0" width="89.8" height="3.5"/>
		<path class="st0" d="M167.7,433.6V474h44.1h44v-40.4h-44L167.7,433.6L167.7,433.6z M186.9,468.4c0,2-1.6,3.6-3.6,3.6h-4.1
			c-2,0-3.6-1.6-3.6-3.6v-20.2c0-2,1.6-3.6,3.6-3.6h4.1c2,0,3.6,1.6,3.6,3.6V468.4z M207.4,468.4c0,2-1.6,3.6-3.6,3.6h-4.1
			c-2,0-3.6-1.6-3.6-3.6v-20.2c0-2,1.6-3.6,3.6-3.6h4.1c2,0,3.6,1.6,3.6,3.6V468.4z M236.6,448.2c0-2,1.6-3.6,3.6-3.6h4.1
			c2,0,3.6,1.6,3.6,3.6v20.2c0,2-1.6,3.6-3.6,3.6h-4.1c-2,0-3.6-1.6-3.6-3.6V448.2z M216.1,448.2c0-2,1.6-3.6,3.6-3.6h4.1
			c2,0,3.6,1.6,3.6,3.6v20.2c0,2-1.6,3.6-3.6,3.6h-4.1c-2,0-3.6-1.6-3.6-3.6V448.2z"/>
		<path class="st0" d="M393.8,350.7H471v-11.6h-77.2v-3.4h-73.2h-1.1h-73.2v3.4H169v11.6h77.2v-4.4h73.2h1.1h73.2L393.8,350.7
			L393.8,350.7z M464.7,339.5h0.5v6.7h-0.5V339.5z M463.6,339.5h0.5v6.7h-0.5V339.5z M462.6,339.5h0.5v6.7h-0.5V339.5z M461.5,339.5
			h0.5v6.7h-0.5V339.5z M460.5,339.5h0.5v6.7h-0.5V339.5z M459.4,339.5h0.5v6.7h-0.5V339.5z M458.4,339.5h0.5v6.7h-0.5V339.5z
			 M457.3,339.5h0.5v6.7h-0.5V339.5z M456.2,339.5h0.5v6.7h-0.5V339.5z M455.2,339.5h0.5v6.7h-0.5V339.5z M454.2,339.5h0.5v6.7h-0.5
			V339.5z M453.1,339.5h0.5v6.7h-0.5V339.5z M452,339.5h0.5v6.7H452V339.5z M451,339.5h0.5v6.7H451V339.5z M445.4,339.5h0.5v6.7
			h-0.5V339.5z M444.3,339.5h0.5v6.7h-0.5V339.5z M443.3,339.5h0.5v6.7h-0.5V339.5z M442.3,339.5h0.5v6.7h-0.5V339.5z M441.2,339.5
			h0.5v6.7h-0.5V339.5z M440.1,339.5h0.5v6.7h-0.5V339.5z M439.1,339.5h0.5v6.7h-0.5V339.5z M438,339.5h0.5v6.7H438V339.5z
			 M437,339.5h0.5v6.7H437V339.5z M435.9,339.5h0.5v6.7h-0.5V339.5z M434.9,339.5h0.5v6.7h-0.5V339.5z M433.8,339.5h0.5v6.7h-0.5
			V339.5z M432.8,339.5h0.5v6.7h-0.5V339.5z M431.7,339.5h0.5v6.7h-0.5V339.5z M426.1,339.5h0.5v6.7h-0.5V339.5z M425.1,339.5h0.5
			v6.7h-0.5V339.5z M424,339.5h0.5v6.7H424V339.5z M423,339.5h0.5v6.7H423V339.5z M421.9,339.5h0.5v6.7h-0.5V339.5z M420.8,339.5
			h0.5v6.7h-0.5V339.5z M419.8,339.5h0.5v6.7h-0.5V339.5z M418.8,339.5h0.5v6.7h-0.5V339.5z M417.7,339.5h0.5v6.7h-0.5V339.5z
			 M416.6,339.5h0.5v6.7h-0.5V339.5z M415.6,339.5h0.5v6.7h-0.5V339.5z M414.5,339.5h0.5v6.7h-0.5V339.5z M413.5,339.5h0.5v6.7h-0.5
			V339.5z M412.4,339.5h0.5v6.7h-0.5V339.5z M406.8,339.5h0.5v6.7h-0.5V339.5z M405.8,339.5h0.5v6.7h-0.5V339.5z M404.7,339.5h0.5
			v6.7h-0.5V339.5z M403.7,339.5h0.5v6.7h-0.5V339.5z M402.6,339.5h0.5v6.7h-0.5V339.5z M401.6,339.5h0.5v6.7h-0.5V339.5z
			 M400.5,339.5h0.5v6.7h-0.5V339.5z M399.5,339.5h0.5v6.7h-0.5V339.5z M398.4,339.5h0.5v6.7h-0.5V339.5z M397.3,339.5h0.5v6.7h-0.5
			V339.5z M396.3,339.5h0.5v6.7h-0.5V339.5z M395.3,339.5h0.5v6.7h-0.5V339.5z M394.2,339.5h0.5v6.7h-0.5V339.5z M175.3,346.2h-0.5
			v-6.7h0.5V346.2z M176.4,346.2h-0.5v-6.7h0.5V346.2z M177.5,346.2h-0.5v-6.7h0.5V346.2z M178.5,346.2h-0.5v-6.7h0.5V346.2z
			 M179.6,346.2H179v-6.7h0.5V346.2z M180.6,346.2h-0.5v-6.7h0.5V346.2z M181.6,346.2h-0.5v-6.7h0.5L181.6,346.2L181.6,346.2z
			 M182.7,346.2h-0.5v-6.7h0.5V346.2z M183.8,346.2h-0.5v-6.7h0.5V346.2z M184.8,346.2h-0.5v-6.7h0.5V346.2z M185.9,346.2h-0.5v-6.7
			h0.5V346.2z M186.9,346.2h-0.5v-6.7h0.5V346.2z M188,346.2h-0.5v-6.7h0.5V346.2z M189.1,346.2h-0.5v-6.7h0.5V346.2z M194.6,346.2
			h-0.5v-6.7h0.5V346.2z M195.7,346.2h-0.5v-6.7h0.5V346.2z M196.8,346.2h-0.5v-6.7h0.5V346.2z M197.8,346.2h-0.5v-6.7h0.5V346.2z
			 M198.8,346.2h-0.5v-6.7h0.5V346.2z M199.9,346.2h-0.5v-6.7h0.5V346.2z M201,346.2h-0.5v-6.7h0.5V346.2z M202,346.2h-0.5v-6.7h0.5
			V346.2z M203.1,346.2h-0.5v-6.7h0.5V346.2z M204.1,346.2h-0.5v-6.7h0.5V346.2z M205.2,346.2h-0.5v-6.7h0.5V346.2z M206.2,346.2
			h-0.5v-6.7h0.5V346.2z M207.3,346.2h-0.5v-6.7h0.5V346.2z M208.3,346.2h-0.5v-6.7h0.5L208.3,346.2L208.3,346.2z M213.9,346.2h-0.5
			v-6.7h0.5V346.2z M215,346.2h-0.5v-6.7h0.5V346.2z M216,346.2h-0.5v-6.7h0.5V346.2z M217.1,346.2h-0.5v-6.7h0.5V346.2z
			 M218.1,346.2h-0.5v-6.7h0.5V346.2z M219.2,346.2h-0.5v-6.7h0.5L219.2,346.2L219.2,346.2z M220.3,346.2h-0.5v-6.7h0.5V346.2z
			 M221.3,346.2h-0.5v-6.7h0.5V346.2z M222.3,346.2h-0.5v-6.7h0.5V346.2z M223.4,346.2h-0.5v-6.7h0.5V346.2z M224.5,346.2h-0.5v-6.7
			h0.5V346.2z M225.5,346.2H225v-6.7h0.5V346.2z M226.6,346.2H226v-6.7h0.5V346.2z M227.6,346.2h-0.5v-6.7h0.5V346.2z M233.2,346.2
			h-0.5v-6.7h0.5V346.2z M234.2,346.2h-0.5v-6.7h0.5V346.2z M235.3,346.2h-0.5v-6.7h0.5V346.2z M236.4,346.2h-0.5v-6.7h0.5V346.2z
			 M237.4,346.2h-0.5v-6.7h0.5V346.2z M238.5,346.2h-0.5v-6.7h0.5V346.2z M239.5,346.2H239v-6.7h0.5V346.2z M240.6,346.2H240v-6.7
			h0.5V346.2z M241.6,346.2h-0.5v-6.7h0.5V346.2z M242.7,346.2h-0.5v-6.7h0.5V346.2z M243.7,346.2h-0.5v-6.7h0.5V346.2z
			 M244.8,346.2h-0.5v-6.7h0.5V346.2z M245.8,346.2h-0.5v-6.7h0.5V346.2z"/>
		<rect x="405" y="365.9" class="st0" width="6.2" height="6.2"/>
		<rect x="405.8" y="372.7" class="st0" width="4.5" height="50.2"/>
		<rect x="403.7" y="423.6" class="st0" width="8.7" height="8.7"/>
		<rect x="425.2" y="365.9" class="st0" width="6.2" height="6.2"/>
		<rect x="426" y="372.7" class="st0" width="4.5" height="50.2"/>
		<rect x="423.9" y="423.6" class="st0" width="8.7" height="8.7"/>
		<rect x="445.7" y="365.9" class="st0" width="6.2" height="6.2"/>
		<rect x="446.5" y="372.7" class="st0" width="4.5" height="50.2"/>
		<rect x="444.4" y="423.6" class="st0" width="8.7" height="8.7"/>
		<rect x="464.9" y="365.9" class="st0" width="6.2" height="6.2"/>
		<rect x="465.7" y="372.7" class="st0" width="4.5" height="50.2"/>
		<rect x="463.6" y="423.6" class="st0" width="8.7" height="8.7"/>
		<rect x="378.2" y="351.4" class="st0" width="98.1" height="2.2"/>
		<polygon class="st0" points="469.2,360.7 469.2,356.9 471.1,356.9 471.1,354.1 378.2,354.1 378.2,356.9 379.3,356.9 379.3,360.7 
					"/>
		<rect x="380.2" y="361.6" class="st0" width="89.8" height="3.5"/>
		<path class="st0" d="M384.2,433.6V474h44h44v-40.4h-44L384.2,433.6L384.2,433.6z M403.4,468.4c0,2-1.6,3.6-3.6,3.6h-4.1
			c-2,0-3.6-1.6-3.6-3.6v-20.2c0-2,1.6-3.6,3.6-3.6h4.1c2,0,3.6,1.6,3.6,3.6V468.4z M423.9,468.4c0,2-1.6,3.6-3.6,3.6h-4.1
			c-2,0-3.6-1.6-3.6-3.6v-20.2c0-2,1.6-3.6,3.6-3.6h4.1c2,0,3.6,1.6,3.6,3.6V468.4z M453.1,448.2c0-2,1.6-3.6,3.6-3.6h4.1
			c2,0,3.6,1.6,3.6,3.6v20.2c0,2-1.6,3.6-3.6,3.6h-4.1c-2,0-3.6-1.6-3.6-3.6V448.2z M432.7,448.2c0-2,1.6-3.6,3.6-3.6h4.1
			c2,0,3.6,1.6,3.6,3.6v20.2c0,2-1.6,3.6-3.6,3.6h-4.1c-2,0-3.6-1.6-3.6-3.6V448.2z"/>
	</g>
	<g>
		<rect x="267.4" y="364.1" class="st1" width="6.2" height="6.2"/>
		<rect x="268.2" y="370.9" class="st1" width="4.5" height="50.2"/>
		<rect x="266.1" y="421.8" class="st1" width="8.7" height="8.7"/>
		<rect x="248.2" y="364.1" class="st1" width="6.2" height="6.2"/>
		<rect x="249" y="370.9" class="st1" width="4.5" height="50.2"/>
		<rect x="246.9" y="421.8" class="st1" width="8.7" height="8.7"/>
		<polygon class="st1" points="368.8,364.1 368.8,370.3 369,370.3 369,370.3 375.2,370.3 375.2,364.1 374.9,364.1 374.9,364.1 		"/>
		<rect x="369.9" y="370.9" class="st1" width="4.5" height="50.2"/>
		<rect x="367.8" y="421.8" class="st1" width="8.7" height="8.7"/>
		<rect x="388.2" y="364.1" class="st1" width="6.2" height="6.2"/>
		<rect x="389" y="370.9" class="st1" width="4.5" height="50.2"/>
		<rect x="387" y="421.8" class="st1" width="8.7" height="8.7"/>
		<g>
			<rect x="308.1" y="364.1" class="st1" width="6.2" height="6.2"/>
			<rect x="308.9" y="370.9" class="st1" width="4.5" height="50.2"/>
			<rect x="306.8" y="421.8" class="st1" width="8.7" height="8.7"/>
			<polygon class="st1" points="294.1,370.1 294.1,364.1 294.1,363.9 287.9,363.9 287.9,364.1 287.9,370.1 287.9,370.3 294.1,370.3 
							"/>
			<rect x="288.7" y="370.9" class="st1" width="4.5" height="50.2"/>
			<rect x="286.6" y="421.8" class="st1" width="8.7" height="8.7"/>
			<polygon class="st1" points="321.9,358.8 394.4,358.8 394.4,352.7 321.9,352.7 320.7,352.7 248.2,352.7 248.2,358.8 320.7,358.8 
							"/>
			<polygon class="st1" points="394.4,359.6 321.9,359.6 320.7,359.6 248.2,359.6 248.2,363 320.7,363 321.9,363 394.4,363 			"/>
			<rect x="328.4" y="364.1" class="st1" width="6.2" height="6.2"/>
			<rect x="329.1" y="370.9" class="st1" width="4.5" height="50.2"/>
			<rect x="327.1" y="421.8" class="st1" width="8.7" height="8.7"/>
			<polygon class="st1" points="354.7,370.1 354.7,364.1 354.7,363.9 348.5,363.9 348.5,364.1 348.5,370.1 348.5,370.3 354.7,370.3 
							"/>
			<rect x="349.4" y="370.9" class="st1" width="4.5" height="50.2"/>
			<rect x="347.3" y="421.8" class="st1" width="8.7" height="8.7"/>
			<polygon class="st1" points="397.8,349.9 321.9,349.9 320.7,349.9 244.9,349.9 244.9,351.6 320.7,351.6 321.9,351.6 397.8,351.6 
							"/>
			<polygon class="st1" points="321.9,348.7 399.4,348.7 399.4,346 321.9,315.9 321.9,315.4 321.3,315.7 320.7,315.4 320.7,315.9 
				243.2,346 243.2,348.7 320.7,348.7 			"/>
			<g>
				<path class="st1" d="M270.8,447.8v-0.2h100v0.2v0.3h28.5v-16.6h-9.5h-17.7h-1.3H270.8h-2.6h-15.8h-9.2v16.6h27.6V447.8z
					 M270.8,446.2v-0.3h100v0.3v0.6v0h-100v0V446.2z M270.8,444.2h100v0.5v0.4h-100v-0.4V444.2z M270.8,442.6L270.8,442.6l100-0.1
					v0.1v0.5v0.4h-100v-0.4V442.6z M270.8,441v-0.2h100v0.2v0.6v0.2h-100v-0.2V441z M270.8,439.4V439h100v0.4v0.5v0.1h-100v-0.1
					V439.4z M270.8,437.4h100v0.4v0.5h-100v-0.5V437.4z M270.8,435.7L270.8,435.7l100,0v0v0.6v0.3h-100v-0.3V435.7z M270.8,434.2
					V434h100v0.2v0.5v0.2h-100v-0.2V434.2z M370.8,432.3v0.3v0.6v0.1h-100v-0.1v-0.6v-0.3H370.8z"/>
				<path class="st1" d="M375.7,449.8L375.7,449.8l-109.5,0v0h-24.2V474h10.5h10.2h3.5h109.5h4.4h9.8h10.9v-24.2H375.7z
					 M375.7,452.7v0.2H266.1v-0.2v-0.6v-0.3h109.5v0.3V452.7z M375.7,454.2v0.6v0.1H266.1v-0.1v-0.6v-0.5v-0.1h109.5v0.1V454.2z
					 M375.7,456.3v0.6v0.1H266.1v-0.1v-0.6v-0.5v-0.1h109.5v0.1V456.3z M375.7,458.3v0.6v0H266.1v0v-0.6v-0.5v-0.2h109.5v0.2V458.3z
					 M375.7,460.5v0.5H266.1v-0.5V460v-0.3h109.5v0.3V460.5z M375.7,462.5v0.5H266.1v-0.5v-0.5v-0.3h109.5v0.3V462.5z M375.7,464.7
					v0.4H266.1v-0.4v-0.5v-0.4h109.5v0.4V464.7z M375.7,466.7v0.4H266.1v-0.4v-0.5v-0.4h109.5v0.4V466.7z M375.7,469.2H266.1v-0.8
					v-0.5h109.5v0.5V469.2z M375.7,470.9v0.3H266.1v-0.3v-0.5v-0.5h109.5v0.5V470.9z M266.1,451v-0.4h109.5v0.4H266.1z M266.1,473.3
					V473v-0.5v-0.6v0h109.5v0v0.6v0.5v0.2H266.1z"/>
			</g>
		</g>
	</g>
	<g>
		<path class="st0" d="M108.4,323.7H67.4l0,0c-11.8,2.7-22.4,7.6-31,14.1h102.8C130.7,331.2,120.2,326.4,108.4,323.7z"/>
		<path class="st0" d="M105,309H70.7v12.9H105V309z M75.5,320.2h-3.7v-8.4h3.7V320.2z M82.7,320.2h-5v-8.4h5V320.2z M90,320.2h-5
			v-8.4h5V320.2z M97.2,320.2h-5v-8.4h5V320.2z M103.9,320.2h-3.7v-8.4h3.7V320.2z"/>
	</g>
	<g>
		<path class="st0" d="M572.7,323.7h-40.9l0,0c-11.8,2.7-22.4,7.6-31,14.1h102.8C595,331.2,584.4,326.4,572.7,323.7z"/>
		<path class="st0" d="M569.3,309H535v12.9h34.3V309z M539.7,320.2H536v-8.4h3.7V320.2z M547,320.2h-5v-8.4h5V320.2z M554.2,320.2
			h-5v-8.4h5V320.2z M561.5,320.2h-5v-8.4h5V320.2z M568.2,320.2h-3.7v-8.4h3.7V320.2z"/>
	</g>
	<g>
		<path class="st0" d="M634,350.4V347h-0.4v-1.1H633v-6.7h0.6v-0.4h-77.7h-7.5h-77.7v0.4h0.6v6.7h-0.6v1.1h-0.4v3.4h-2.1v3.3h83.7
			h0.5h83.7v-3.3H634z M472.5,345.9h-0.6v-6.7h0.6V345.9z M473.7,345.9h-0.6v-6.7h0.6V345.9z M474.9,345.9h-0.6v-6.7h0.6V345.9z
			 M476,345.9h-0.6v-6.7h0.6V345.9z M477.2,345.9h-0.6v-6.7h0.6V345.9z M478.4,345.9h-0.6v-6.7h0.6V345.9z M479.5,345.9H479v-6.7
			h0.6V345.9z M480.7,345.9h-0.6v-6.7h0.6V345.9z M481.9,345.9h-0.6v-6.7h0.6V345.9z M483.1,345.9h-0.6v-6.7h0.6V345.9z
			 M484.2,345.9h-0.6v-6.7h0.6V345.9z M485.4,345.9h-0.6v-6.7h0.6V345.9z M491.5,345.9H491v-6.7h0.6V345.9z M492.7,345.9h-0.6v-6.7
			h0.6V345.9z M493.9,345.9h-0.6v-6.7h0.6V345.9z M495.1,345.9h-0.6v-6.7h0.6V345.9z M496.2,345.9h-0.6v-6.7h0.6V345.9z
			 M497.4,345.9h-0.6v-6.7h0.6V345.9z M498.6,345.9H498v-6.7h0.6V345.9z M499.7,345.9h-0.6v-6.7h0.6V345.9z M500.9,345.9h-0.6v-6.7
			h0.6V345.9z M502.1,345.9h-0.6v-6.7h0.6V345.9z M503.2,345.9h-0.6v-6.7h0.6V345.9z M504.4,345.9h-0.6v-6.7h0.6V345.9z
			 M505.6,345.9H505v-6.7h0.6V345.9z M506.8,345.9h-0.6v-6.7h0.6V345.9z M512.9,345.9h-0.6v-6.7h0.6V345.9z M514.1,345.9h-0.6v-6.7
			h0.6V345.9z M515.2,345.9h-0.6v-6.7h0.6V345.9z M516.4,345.9h-0.6v-6.7h0.6V345.9z M517.6,345.9H517v-6.7h0.6V345.9z M518.8,345.9
			h-0.6v-6.7h0.6V345.9z M519.9,345.9h-0.6v-6.7h0.6V345.9z M521.1,345.9h-0.6v-6.7h0.6V345.9z M522.3,345.9h-0.6v-6.7h0.6V345.9z
			 M523.4,345.9h-0.6v-6.7h0.6V345.9z M524.6,345.9H524v-6.7h0.6V345.9z M525.8,345.9h-0.6v-6.7h0.6V345.9z M527,345.9h-0.6v-6.7
			h0.6V345.9z M528.1,345.9h-0.6v-6.7h0.6V345.9z M534.3,345.9h-0.6v-6.7h0.6V345.9z M535.4,345.9h-0.6v-6.7h0.6V345.9z
			 M536.6,345.9H536v-6.7h0.6V345.9z M537.8,345.9h-0.6v-6.7h0.6V345.9z M538.9,345.9h-0.6v-6.7h0.6V345.9z M540.1,345.9h-0.6v-6.7
			h0.6V345.9z M541.3,345.9h-0.6v-6.7h0.6V345.9z M542.5,345.9h-0.6v-6.7h0.6V345.9z M543.6,345.9H543v-6.7h0.6V345.9z M544.8,345.9
			h-0.6v-6.7h0.6V345.9z M546,345.9h-0.6v-6.7h0.6V345.9z M547.1,345.9h-0.6v-6.7h0.6V345.9z M548.3,345.9h-0.6v-6.7h0.6V345.9z
			 M556.6,345.9H556v-6.7h0.6V345.9z M557.8,345.9h-0.6v-6.7h0.6V345.9z M558.9,345.9h-0.6v-6.7h0.6V345.9z M560.1,345.9h-0.6v-6.7
			h0.6V345.9z M561.3,345.9h-0.6v-6.7h0.6V345.9z M562.5,345.9h-0.6v-6.7h0.6V345.9z M563.6,345.9H563v-6.7h0.6V345.9z M564.8,345.9
			h-0.6v-6.7h0.6V345.9z M566,345.9h-0.6v-6.7h0.6V345.9z M567.1,345.9h-0.6v-6.7h0.6V345.9z M568.3,345.9h-0.6v-6.7h0.6V345.9z
			 M569.4,345.9h-0.6v-6.7h0.6V345.9z M570.6,345.9H570v-6.7h0.6V345.9z M576.8,345.9h-0.6v-6.7h0.6V345.9z M578,345.9h-0.6v-6.7
			h0.6V345.9z M579.1,345.9h-0.6v-6.7h0.6V345.9z M580.3,345.9h-0.6v-6.7h0.6V345.9z M581.5,345.9h-0.6v-6.7h0.6V345.9z
			 M582.6,345.9h-0.6v-6.7h0.6V345.9z M583.8,345.9h-0.6v-6.7h0.6V345.9z M585,345.9h-0.6v-6.7h0.6V345.9z M586.2,345.9h-0.6v-6.7
			h0.6V345.9z M587.3,345.9h-0.6v-6.7h0.6V345.9z M588.5,345.9h-0.6v-6.7h0.6V345.9z M589.6,345.9H589v-6.7h0.6V345.9z M590.8,345.9
			h-0.6v-6.7h0.6V345.9z M592,345.9h-0.6v-6.7h0.6V345.9z M598.2,345.9h-0.6v-6.7h0.6V345.9z M599.3,345.9h-0.6v-6.7h0.6V345.9z
			 M600.5,345.9h-0.6v-6.7h0.6V345.9z M601.7,345.9h-0.6v-6.7h0.6V345.9z M602.8,345.9h-0.6v-6.7h0.6V345.9z M604,345.9h-0.6v-6.7
			h0.6V345.9z M605.2,345.9h-0.6v-6.7h0.6V345.9z M606.4,345.9h-0.6v-6.7h0.6V345.9z M607.5,345.9h-0.6v-6.7h0.6V345.9z
			 M608.7,345.9h-0.6v-6.7h0.6V345.9z M609.8,345.9h-0.6v-6.7h0.6V345.9z M611,345.9h-0.6v-6.7h0.6V345.9z M612.2,345.9h-0.6v-6.7
			h0.6V345.9z M613.3,345.9h-0.6v-6.7h0.6V345.9z M619.5,345.9h-0.6v-6.7h0.6V345.9z M620.7,345.9h-0.6v-6.7h0.6V345.9z
			 M621.9,345.9h-0.6v-6.7h0.6V345.9z M623,345.9h-0.6v-6.7h0.6V345.9z M624.2,345.9h-0.6v-6.7h0.6V345.9z M625.4,345.9h-0.6v-6.7
			h0.6V345.9z M626.5,345.9H626v-6.7h0.6V345.9z M627.7,345.9h-0.6v-6.7h0.6V345.9z M628.9,345.9h-0.6v-6.7h0.6V345.9z M630,345.9
			h-0.6v-6.7h0.6V345.9z M631.2,345.9h-0.6v-6.7h0.6V345.9z M632.4,345.9h-0.6v-6.7h0.6V345.9z"/>
		<path class="st0" d="M552.4,432.3h82.5v-66.4H469.4v66.4h82.5H552.4z M554.3,423.2h-1.8h-0.5h-1.8v-2.8h1.8h0.5h1.8V423.2z
			 M554.3,419.7h-1.8h-0.5h-1.8v-2.8h1.8h0.5h1.8V419.7z M554.3,416.3h-1.8h-0.5h-1.8v-2.8h1.8h0.5h1.8V416.3z M554.3,412.8h-1.8
			h-0.5h-1.8V410h1.8h0.5h1.8V412.8z M554.3,409.4h-1.8h-0.5h-1.8v-2.8h1.8h0.5h1.8V409.4z M554.3,405.9h-1.8h-0.5h-1.8v-4.6
			c0.5-0.2,1.2-0.4,1.8-0.4l0,0c0.1,0,0.1,0,0.2,0c0.1,0,0.1,0,0.2,0l0,0c0.6,0,1.3,0.1,1.8,0.4V405.9z M557.2,427.5h-1.9v-3.6h1.9
			V427.5z M557.2,423.2h-1.9v-2.8h1.9V423.2z M557.2,419.7h-1.9v-2.8h1.9V419.7z M557.2,416.3h-1.9v-2.8h1.9V416.3z M557.2,412.8
			h-1.9V410h1.9V412.8z M557.2,409.4h-1.9v-2.8h1.9V409.4z M610.3,378.7h2.5v4.3h-2.5V378.7z M610.3,383.5h2.5v3.7h-2.5V383.5z
			 M610,408.6h2.5v4.3H610V408.6z M610,413.5h2.5v3.8H610V413.5z M610,417.8h2.5v3.8H610V417.8z M610,422.1h2.5v5.4H610V422.1z
			 M607.5,378.7h2.4v4.3h-2.4V378.7z M607.5,383.5h2.4v3.7h-2.4V383.5z M607.2,408.6h2.4v4.3h-2.4V408.6z M607.2,413.5h2.4v3.8h-2.4
			V413.5z M607.2,417.8h2.4v3.8h-2.4V417.8z M607.2,422.1h2.4v5.4h-2.4V422.1z M604.6,378.7h2.5v4.3h-2.5V378.7z M604.6,383.5h2.5
			v3.7h-2.5V383.5z M604.3,408.6h2.5v4.3h-2.5V408.6z M604.3,413.5h2.5v3.8h-2.5V413.5z M604.3,417.8h2.5v3.8h-2.5V417.8z
			 M604.3,422.1h2.5v5.4h-2.5V422.1z M585,379.2h2.5v4.3H585V379.2z M585,384.1h2.5v3.7H585V384.1z M584.7,408.6h2.5v4.3h-2.5V408.6
			z M584.7,413.5h2.5v3.8h-2.5V413.5z M584.7,417.8h2.5v3.8h-2.5V417.8z M584.7,422.1h2.5v5.4h-2.5V422.1z M582.3,379.2h2.4v4.3
			h-2.4V379.2z M582.3,384.1h2.4v3.7h-2.4V384.1z M582,408.6h2.4v4.3H582V408.6z M582,413.5h2.4v3.8H582V413.5z M582,417.8h2.4v3.8
			H582V417.8z M582,422.1h2.4v5.4H582V422.1z M579.3,379.2h2.5v4.3h-2.5V379.2z M579.3,384.1h2.5v3.7h-2.5V384.1z M579.1,408.6h2.5
			v4.3h-2.5V408.6z M579.1,413.5h2.5v3.8h-2.5V413.5z M579.1,417.8h2.5v3.8h-2.5V417.8z M579.1,422.1h2.5v5.4h-2.5V422.1z
			 M557.2,405.9L557.2,405.9l-1.9,0v-4C556.5,402.8,557.2,404.3,557.2,405.9z M522.5,379.2h2.5v4.3h-2.5V379.2z M519.7,379.2h2.4
			v4.3h-2.4V379.2z M516.8,379.2h2.5v4.3h-2.5V379.2z M497.2,378.7h2.5v4.3h-2.5V378.7z M494.5,378.7h2.4v4.3h-2.4V378.7z
			 M491.6,378.7h2.5v4.3h-2.5V378.7z M491.6,383.5h2.5v3.7h-2.5V383.5z M494.4,427.5h-2.5v-5.4h2.5V427.5z M494.4,421.5h-2.5v-3.8
			h2.5V421.5z M494.4,417.2h-2.5v-3.7h2.5V417.2z M494.4,412.9h-2.5v-4.3h2.5V412.9z M494.5,383.5h2.4v3.7h-2.4V383.5z M497.1,427.5
			h-2.4v-5.4h2.4V427.5z M497.1,421.5h-2.4v-3.8h2.4V421.5z M497.1,417.2h-2.4v-3.7h2.4V417.2z M497.1,412.9h-2.4v-4.3h2.4V412.9z
			 M497.2,383.5h2.5v3.7h-2.5V383.5z M500,427.5h-2.5v-5.4h2.5V427.5z M500,421.5h-2.5v-3.8h2.5V421.5z M500,417.2h-2.5v-3.7h2.5
			V417.2z M500,412.9h-2.5v-4.3h2.5V412.9z M516.8,384.1h2.5v3.7h-2.5V384.1z M519.6,427.5h-2.5v-5.4h2.5V427.5z M519.6,421.5h-2.5
			v-3.8h2.5V421.5z M519.6,417.2h-2.5v-3.7h2.5V417.2z M519.6,412.9h-2.5v-4.3h2.5V412.9z M519.7,384.1h2.4v3.7h-2.4V384.1z
			 M522.4,427.5H520v-5.4h2.4V427.5z M522.4,421.5H520v-3.8h2.4V421.5z M522.4,417.2H520v-3.7h2.4V417.2z M522.4,412.9H520v-4.3h2.4
			V412.9z M522.5,384.1h2.5v3.7h-2.5V384.1z M525.2,427.5h-2.5v-5.4h2.5V427.5z M525.2,421.5h-2.5v-3.8h2.5V421.5z M525.2,417.2
			h-2.5v-3.7h2.5V417.2z M525.2,412.9h-2.5v-4.3h2.5V412.9z M549,427.5h-1.9v-3.6h1.9V427.5z M549,423.2h-1.9v-2.8h1.9V423.2z
			 M549,419.7h-1.9v-2.8h1.9V419.7z M549,416.3h-1.9v-2.8h1.9V416.3z M549,412.8h-1.9V410h1.9V412.8z M549,409.4h-1.9v-2.8h1.9
			V409.4z M549,405.9h-1.9v0c0-1.6,0.7-3,1.9-3.9V405.9z M548.8,382.9c0-1.9,1.5-3.5,3.4-3.6c1.9,0.1,3.4,1.7,3.4,3.6
			c0,1.9-1.5,3.5-3.4,3.6C550.3,386.5,548.8,384.9,548.8,382.9z M550.1,423.9h1.8h0.5h1.8v3.6h-1.8h-0.5h-1.8V423.9z"/>
		<polygon class="st0" points="551.9,354.7 468.2,354.7 468.2,363.9 636.1,363.9 636.1,354.7 552.4,354.7 		"/>
		<path class="st0" d="M552.5,433.6h-0.7H548h-79.2V474H548h3.8h0.7h4h78.9v-40.4h-78.9L552.5,433.6L552.5,433.6z M553.7,454.8h-1.2
			h-0.7h-1.2v-3.4h1.2h0.7h1.2V454.8z M550.3,454.8h-2.5v-3.4h2.5V454.8z M547.7,455.3h2.5v3.4h-2.5V455.3z M550.6,455.3h1.2l0,0
			h0.7l0,0h1.2v3.4h-1.2h-0.7h-1.2V455.3z M554.1,455.3h2.5v3.4h-2.5V455.3z M554.1,454.8v-3.4h2.5v3.4H554.1z M554.1,446.9h2.5v4
			h-2.5V446.9z M550.6,446.9h1.2h0.7h1.2v4h-1.2h-0.7h-1.2V446.9z M547.7,446.9h0.3h2.2v4h-2.5V446.9z M494.1,464.2h-2.5v-5.4h2.5
			V464.2z M494.1,458.2h-2.5v-3.8h2.5V458.2z M494.1,453.9h-2.5v-3.8h2.5V453.9z M494.1,449.6h-2.5v-4.3h2.5V449.6z M496.8,464.2
			h-2.4v-5.4h2.4V464.2z M496.8,458.2h-2.4v-3.8h2.4V458.2z M496.8,453.9h-2.4v-3.8h2.4V453.9z M496.8,449.6h-2.4v-4.3h2.4V449.6z
			 M499.7,464.2h-2.5v-5.4h2.5V464.2z M499.7,458.2h-2.5v-3.8h2.5V458.2z M499.7,453.9h-2.5v-3.8h2.5V453.9z M499.7,449.6h-2.5v-4.3
			h2.5V449.6z M519.3,464.8h-2.5v-5.4h2.5V464.8z M519.3,458.8h-2.5V455h2.5V458.8z M519.3,454.4h-2.5v-3.7h2.5V454.4z M519.3,450.2
			h-2.5v-4.3h2.5V450.2z M522.1,464.8h-2.4v-5.4h2.4V464.8z M522.1,458.8h-2.4V455h2.4V458.8z M522.1,454.4h-2.4v-3.7h2.4V454.4z
			 M522.1,450.2h-2.4v-4.3h2.4V450.2z M524.9,464.8h-2.5v-5.4h2.5V464.8z M524.9,458.8h-2.5V455h2.5V458.8z M524.9,454.4h-2.5v-3.7
			h2.5V454.4z M524.9,450.2h-2.5v-4.3h2.5V450.2z M550.3,464.2h-2.2h-0.3v-4.9h2.5V464.2z M553.7,464.2h-1.2h-0.7h-1.2v-4.9h1.2h0.7
			h1.2V464.2z M556.6,464.2h-2.5v-4.9h2.5V464.2z M610.3,445.3h2.5v4.3h-2.5V445.3z M610.3,450.2h2.5v3.8h-2.5V450.2z M610.3,454.5
			h2.5v3.8h-2.5V454.5z M610.3,458.8h2.5v5.4h-2.5V458.8z M607.5,445.3h2.4v4.3h-2.4V445.3z M607.5,450.2h2.4v3.8h-2.4V450.2z
			 M607.5,454.5h2.4v3.8h-2.4V454.5z M607.5,458.8h2.4v5.4h-2.4V458.8z M604.6,445.3h2.5v4.3h-2.5V445.3z M604.6,450.2h2.5v3.8h-2.5
			V450.2z M604.6,454.5h2.5v3.8h-2.5V454.5z M604.6,458.8h2.5v5.4h-2.5V458.8z M585,445.9h2.5v4.3H585V445.9z M585,450.7h2.5v3.7
			H585V450.7z M585,455h2.5v3.8H585V455z M585,459.3h2.5v5.4H585V459.3z M582.3,445.9h2.4v4.3h-2.4V445.9z M582.3,450.7h2.4v3.7
			h-2.4V450.7z M582.3,455h2.4v3.8h-2.4V455z M582.3,459.3h2.4v5.4h-2.4V459.3z M579.3,445.9h2.5v4.3h-2.5V445.9z M579.3,450.7h2.5
			v3.7h-2.5V450.7z M579.3,455h2.5v3.8h-2.5V455z M579.3,459.3h2.5v5.4h-2.5V459.3z"/>
		<path class="st0" d="M169.7,347h-0.4v-1.1h-0.6v-6.7h0.6v-0.4H91.6h-7.5H6.5v0.4h0.6v6.7H6.5v1.1H6.1v3.4H4v3.3h83.7h0.5h83.7
			v-3.3h-2.1L169.7,347L169.7,347z M8.3,345.9H7.7v-6.7h0.6V345.9z M9.4,345.9H8.8v-6.7h0.6V345.9z M10.6,345.9H10v-6.7h0.6V345.9z
			 M11.7,345.9h-0.6v-6.7h0.6V345.9z M12.9,345.9h-0.6v-6.7h0.6V345.9z M14.1,345.9h-0.6v-6.7h0.6V345.9z M15.2,345.9h-0.6v-6.7h0.6
			V345.9z M16.4,345.9h-0.6v-6.7h0.6V345.9z M17.6,345.9H17v-6.7h0.6V345.9z M18.7,345.9h-0.6v-6.7h0.6V345.9z M19.9,345.9h-0.6
			v-6.7h0.6V345.9z M21.1,345.9h-0.6v-6.7h0.6V345.9z M27.3,345.9h-0.6v-6.7h0.6V345.9z M28.5,345.9h-0.6v-6.7h0.6V345.9z
			 M29.6,345.9H29v-6.7h0.6V345.9z M30.8,345.9h-0.6v-6.7h0.6V345.9z M31.9,345.9h-0.6v-6.7h0.6V345.9z M33.1,345.9h-0.6v-6.7h0.6
			V345.9z M34.3,345.9h-0.6v-6.7h0.6V345.9z M35.4,345.9h-0.6v-6.7h0.6V345.9z M36.6,345.9H36v-6.7h0.6V345.9z M37.8,345.9h-0.6
			v-6.7h0.6V345.9z M38.9,345.9h-0.6v-6.7h0.6V345.9z M40.1,345.9h-0.6v-6.7h0.6V345.9z M41.3,345.9h-0.6v-6.7h0.6V345.9z
			 M42.5,345.9h-0.6v-6.7h0.6V345.9z M48.7,345.9h-0.6v-6.7h0.6V345.9z M49.8,345.9h-0.6v-6.7h0.6V345.9z M51,345.9h-0.6v-6.7H51
			V345.9z M52.1,345.9h-0.6v-6.7h0.6V345.9z M53.3,345.9h-0.6v-6.7h0.6V345.9z M54.5,345.9h-0.6v-6.7h0.6V345.9z M55.6,345.9H55
			v-6.7h0.6V345.9z M56.8,345.9h-0.6v-6.7h0.6V345.9z M58,345.9h-0.6v-6.7H58V345.9z M59.1,345.9h-0.6v-6.7h0.6V345.9z M60.3,345.9
			h-0.6v-6.7h0.6V345.9z M61.5,345.9h-0.6v-6.7h0.6V345.9z M62.6,345.9h-0.6v-6.7h0.6V345.9z M63.8,345.9h-0.6v-6.7h0.6V345.9z
			 M70,345.9h-0.6v-6.7H70V345.9z M71.2,345.9h-0.6v-6.7h0.6V345.9z M72.3,345.9h-0.6v-6.7h0.6V345.9z M73.5,345.9h-0.6v-6.7h0.6
			V345.9z M74.7,345.9h-0.6v-6.7h0.6V345.9z M75.8,345.9h-0.6v-6.7h0.6V345.9z M77,345.9h-0.6v-6.7H77V345.9z M78.2,345.9h-0.6v-6.7
			h0.6V345.9z M79.3,345.9h-0.6v-6.7h0.6V345.9z M80.5,345.9h-0.6v-6.7h0.6V345.9z M81.7,345.9h-0.6v-6.7h0.6V345.9z M82.8,345.9
			h-0.6v-6.7h0.6V345.9z M84,345.9h-0.6v-6.7H84V345.9z M92.3,345.9h-0.6v-6.7h0.6V345.9z M93.5,345.9h-0.6v-6.7h0.6V345.9z
			 M94.6,345.9h-0.6v-6.7h0.6V345.9z M95.8,345.9h-0.6v-6.7h0.6V345.9z M97,345.9h-0.6v-6.7H97V345.9z M98.1,345.9h-0.6v-6.7h0.6
			V345.9z M99.3,345.9h-0.6v-6.7h0.6V345.9z M100.5,345.9h-0.6v-6.7h0.6V345.9z M101.7,345.9h-0.6v-6.7h0.6V345.9z M102.8,345.9
			h-0.6v-6.7h0.6V345.9z M104,345.9h-0.6v-6.7h0.6V345.9z M105.2,345.9h-0.6v-6.7h0.6V345.9z M106.3,345.9h-0.6v-6.7h0.6V345.9z
			 M112.5,345.9h-0.6v-6.7h0.6V345.9z M113.7,345.9h-0.6v-6.7h0.6V345.9z M114.8,345.9h-0.6v-6.7h0.6V345.9z M116,345.9h-0.6v-6.7
			h0.6V345.9z M117.2,345.9h-0.6v-6.7h0.6V345.9z M118.3,345.9h-0.6v-6.7h0.6V345.9z M119.5,345.9h-0.6v-6.7h0.6V345.9z
			 M120.7,345.9h-0.6v-6.7h0.6V345.9z M121.9,345.9h-0.6v-6.7h0.6V345.9z M123,345.9h-0.6v-6.7h0.6V345.9z M124.2,345.9h-0.6v-6.7
			h0.6V345.9z M125.4,345.9h-0.6v-6.7h0.6V345.9z M126.5,345.9h-0.6v-6.7h0.6V345.9z M127.7,345.9h-0.6v-6.7h0.6V345.9z
			 M133.9,345.9h-0.6v-6.7h0.6V345.9z M135,345.9h-0.6v-6.7h0.6V345.9z M136.2,345.9h-0.6v-6.7h0.6V345.9z M137.4,345.9h-0.6v-6.7
			h0.6V345.9z M138.5,345.9h-0.6v-6.7h0.6V345.9z M139.7,345.9h-0.6v-6.7h0.6V345.9z M140.9,345.9h-0.6v-6.7h0.6V345.9z M142,345.9
			h-0.6v-6.7h0.6V345.9z M143.2,345.9h-0.6v-6.7h0.6V345.9z M144.4,345.9h-0.6v-6.7h0.6V345.9z M145.6,345.9H145v-6.7h0.6V345.9z
			 M146.7,345.9h-0.6v-6.7h0.6V345.9z M147.9,345.9h-0.6v-6.7h0.6V345.9z M149.1,345.9h-0.6v-6.7h0.6V345.9z M155.2,345.9h-0.6v-6.7
			h0.6V345.9z M156.4,345.9h-0.6v-6.7h0.6V345.9z M157.6,345.9H157v-6.7h0.6V345.9z M158.7,345.9h-0.6v-6.7h0.6V345.9z M159.9,345.9
			h-0.6v-6.7h0.6V345.9z M161.1,345.9h-0.6v-6.7h0.6V345.9z M162.2,345.9h-0.6v-6.7h0.6V345.9z M163.4,345.9h-0.6v-6.7h0.6V345.9z
			 M164.6,345.9H164v-6.7h0.6V345.9z M165.7,345.9h-0.6v-6.7h0.6V345.9z M166.9,345.9h-0.6v-6.7h0.6V345.9z M168.1,345.9h-0.6v-6.7
			h0.6V345.9z"/>
		<path class="st0" d="M88.1,432.3h82.5v-66.4H5.2v66.4h82.5H88.1z M90,423.2h-1.8h-0.5h-1.8v-2.8h1.8h0.5H90V423.2z M90,419.7h-1.8
			h-0.5h-1.8v-2.8h1.8h0.5H90V419.7z M90,416.3h-1.8h-0.5h-1.8v-2.8h1.8h0.5H90V416.3z M90,412.8h-1.8h-0.5h-1.8V410h1.8h0.5H90
			V412.8z M90,409.4h-1.8h-0.5h-1.8v-2.8h1.8h0.5H90V409.4z M90,405.9h-1.8h-0.5h-1.8v-4.6c0.5-0.2,1.2-0.4,1.8-0.4l0,0
			c0.1,0,0.1,0,0.2,0s0.1,0,0.2,0l0,0c0.6,0,1.3,0.1,1.8,0.4V405.9z M92.9,427.5H91v-3.6h1.9V427.5z M92.9,423.2H91v-2.8h1.9V423.2z
			 M92.9,419.7H91v-2.8h1.9V419.7z M92.9,416.3H91v-2.8h1.9V416.3z M92.9,412.8H91V410h1.9V412.8z M92.9,409.4H91v-2.8h1.9V409.4z
			 M145.9,378.7h2.5v4.3h-2.5V378.7z M145.9,383.5h2.5v3.7h-2.5V383.5z M145.7,408.6h2.5v4.3h-2.5V408.6z M145.7,413.5h2.5v3.8h-2.5
			V413.5z M145.7,417.8h2.5v3.8h-2.5V417.8z M145.7,422.1h2.5v5.4h-2.5V422.1z M143.2,378.7h2.4v4.3h-2.4V378.7z M143.2,383.5h2.4
			v3.7h-2.4V383.5z M142.9,408.6h2.4v4.3h-2.4V408.6z M142.9,413.5h2.4v3.8h-2.4V413.5z M142.9,417.8h2.4v3.8h-2.4V417.8z
			 M142.9,422.1h2.4v5.4h-2.4V422.1z M140.3,378.7h2.5v4.3h-2.5V378.7z M140.3,383.5h2.5v3.7h-2.5V383.5z M140.1,408.6h2.5v4.3h-2.5
			V408.6z M140.1,413.5h2.5v3.8h-2.5V413.5z M140.1,417.8h2.5v3.8h-2.5V417.8z M140.1,422.1h2.5v5.4h-2.5V422.1z M120.7,379.2h2.5
			v4.3h-2.5V379.2z M120.7,384.1h2.5v3.7h-2.5V384.1z M120.5,408.6h2.5v4.3h-2.5V408.6z M120.5,413.5h2.5v3.8h-2.5V413.5z
			 M120.5,417.8h2.5v3.8h-2.5V417.8z M120.5,422.1h2.5v5.4h-2.5V422.1z M118,379.2h2.4v4.3H118V379.2z M118,384.1h2.4v3.7H118V384.1
			z M117.7,408.6h2.4v4.3h-2.4V408.6z M117.7,413.5h2.4v3.8h-2.4V413.5z M117.7,417.8h2.4v3.8h-2.4V417.8z M117.7,422.1h2.4v5.4
			h-2.4V422.1z M115.1,379.2h2.5v4.3h-2.5V379.2z M115.1,384.1h2.5v3.7h-2.5V384.1z M114.8,408.6h2.5v4.3h-2.5V408.6z M114.8,413.5
			h2.5v3.8h-2.5V413.5z M114.8,417.8h2.5v3.8h-2.5V417.8z M114.8,422.1h2.5v5.4h-2.5V422.1z M92.9,405.9L92.9,405.9l-1.9,0v-4
			C92.2,402.8,92.9,404.3,92.9,405.9z M58.2,379.2h2.5v4.3h-2.5V379.2z M55.4,379.2h2.4v4.3h-2.4V379.2z M52.6,379.2H55v4.3h-2.5
			V379.2z M33,378.7h2.5v4.3H33V378.7z M30.2,378.7h2.4v4.3h-2.4V378.7z M27.3,378.7h2.5v4.3h-2.5V378.7z M27.3,383.5h2.5v3.7h-2.5
			V383.5z M30.1,427.5h-2.5v-5.4h2.5V427.5z M30.1,421.5h-2.5v-3.8h2.5V421.5z M30.1,417.2h-2.5v-3.7h2.5V417.2z M30.1,412.9h-2.5
			v-4.3h2.5V412.9z M30.2,383.5h2.4v3.7h-2.4V383.5z M32.9,427.5h-2.4v-5.4h2.4V427.5z M32.9,421.5h-2.4v-3.8h2.4V421.5z
			 M32.9,417.2h-2.4v-3.7h2.4V417.2z M32.9,412.9h-2.4v-4.3h2.4V412.9z M33,383.5h2.5v3.7H33V383.5z M35.7,427.5h-2.5v-5.4h2.5
			V427.5z M35.7,421.5h-2.5v-3.8h2.5V421.5z M35.7,417.2h-2.5v-3.7h2.5V417.2z M35.7,412.9h-2.5v-4.3h2.5V412.9z M52.6,384.1H55v3.7
			h-2.5V384.1z M55.3,427.5h-2.5v-5.4h2.5V427.5z M55.3,421.5h-2.5v-3.8h2.5V421.5z M55.3,417.2h-2.5v-3.7h2.5V417.2z M55.3,412.9
			h-2.5v-4.3h2.5V412.9z M55.4,384.1h2.4v3.7h-2.4V384.1z M58.1,427.5h-2.4v-5.4h2.4V427.5z M58.1,421.5h-2.4v-3.8h2.4V421.5z
			 M58.1,417.2h-2.4v-3.7h2.4V417.2z M58.1,412.9h-2.4v-4.3h2.4V412.9z M58.2,384.1h2.5v3.7h-2.5V384.1z M61,427.5h-2.5v-5.4H61
			V427.5z M61,421.5h-2.5v-3.8H61V421.5z M61,417.2h-2.5v-3.7H61V417.2z M61,412.9h-2.5v-4.3H61V412.9z M84.7,427.5h-1.9v-3.6h1.9
			V427.5z M84.7,423.2h-1.9v-2.8h1.9V423.2z M84.7,419.7h-1.9v-2.8h1.9V419.7z M84.7,416.3h-1.9v-2.8h1.9V416.3z M84.7,412.8h-1.9
			V410h1.9V412.8z M84.7,409.4h-1.9v-2.8h1.9V409.4z M84.7,405.9h-1.9v0c0-1.6,0.7-3,1.9-3.9V405.9z M84.5,382.9
			c0-1.9,1.5-3.5,3.4-3.6c1.9,0.1,3.4,1.7,3.4,3.6c0,1.9-1.5,3.5-3.4,3.6C86,386.5,84.5,384.9,84.5,382.9z M85.8,423.9h1.8h0.5H90
			v3.6h-1.8h-0.5h-1.8V423.9z"/>
		<polygon class="st0" points="87.6,354.7 3.9,354.7 3.9,363.9 171.8,363.9 171.8,354.7 88.1,354.7 		"/>
		<path class="st0" d="M88.2,433.6h-0.7h-2.4H4.6V474h80.1h2.8h0.7H91h80.1v-40.4H91.6L88.2,433.6L88.2,433.6z M29.8,464.2h-2.5
			v-5.4h2.5V464.2z M29.8,458.2h-2.5v-3.8h2.5V458.2z M29.8,453.9h-2.5v-3.8h2.5V453.9z M29.8,449.6h-2.5v-4.3h2.5V449.6z
			 M32.6,464.2h-2.4v-5.4h2.4V464.2z M32.6,458.2h-2.4v-3.8h2.4V458.2z M32.6,453.9h-2.4v-3.8h2.4V453.9z M32.6,449.6h-2.4v-4.3h2.4
			V449.6z M35.4,464.2H33v-5.4h2.5V464.2z M35.4,458.2H33v-3.8h2.5V458.2z M35.4,453.9H33v-3.8h2.5V453.9z M35.4,449.6H33v-4.3h2.5
			V449.6z M55,464.8h-2.5v-5.4H55V464.8z M55,458.8h-2.5V455H55V458.8z M55,454.4h-2.5v-3.7H55V454.4z M55,450.2h-2.5v-4.3H55V450.2
			z M57.8,464.8h-2.4v-5.4h2.4V464.8z M57.8,458.8h-2.4V455h2.4V458.8z M57.8,454.4h-2.4v-3.7h2.4V454.4z M57.8,450.2h-2.4v-4.3h2.4
			V450.2z M60.7,464.8h-2.5v-5.4h2.5V464.8z M60.7,458.8h-2.5V455h2.5V458.8z M60.7,454.4h-2.5v-3.7h2.5V454.4z M60.7,450.2h-2.5
			v-4.3h2.5V450.2z M86,464.2h-1.2h-1.2v-4.9H86V464.2z M86,458.7h-2.5v-3.4H86V458.7z M86,454.8h-2.5v-3.4H86V454.8z M86,450.8
			h-2.5v-4h1.7H86L86,450.8L86,450.8z M89.4,464.2h-1.2h-0.7h-1.2v-4.9h1.2v0h0.7v0h1.2L89.4,464.2L89.4,464.2z M89.4,458.7h-3.1
			v-3.4h1.2l0,0h0.7l0,0h1.2L89.4,458.7L89.4,458.7z M89.4,454.8h-3.1v-3.4h1.2h0.7h1.2L89.4,454.8L89.4,454.8z M89.4,450.8h-1.2
			h-0.7h-1.2v-4h1.2h0.7h1.2L89.4,450.8L89.4,450.8z M92.3,464.2H91h-1.2v-4.9h2.5V464.2z M92.3,458.7h-2.5v-3.4h2.5V458.7z
			 M92.3,454.8h-2.5v-3.4h2.5V454.8z M145.9,445.3h2.5v4.3h-2.5V445.3z M145.9,450.2h2.5v3.8h-2.5V450.2z M145.9,454.5h2.5v3.8h-2.5
			V454.5z M145.9,458.8h2.5v5.4h-2.5V458.8z M143.2,445.3h2.4v4.3h-2.4V445.3z M143.2,450.2h2.4v3.8h-2.4V450.2z M143.2,454.5h2.4
			v3.8h-2.4V454.5z M143.2,458.8h2.4v5.4h-2.4V458.8z M140.3,445.3h2.5v4.3h-2.5V445.3z M140.3,450.2h2.5v3.8h-2.5V450.2z
			 M140.3,454.5h2.5v3.8h-2.5V454.5z M140.3,458.8h2.5v5.4h-2.5V458.8z M120.7,445.9h2.5v4.3h-2.5V445.9z M120.7,450.7h2.5v3.7h-2.5
			V450.7z M120.7,455h2.5v3.8h-2.5V455z M120.7,459.3h2.5v5.4h-2.5V459.3z M118,445.9h2.4v4.3H118V445.9z M118,450.7h2.4v3.7H118
			V450.7z M118,455h2.4v3.8H118V455z M118,459.3h2.4v5.4H118V459.3z M115.1,445.9h2.5v4.3h-2.5V445.9z M115.1,450.7h2.5v3.7h-2.5
			V450.7z M115.1,455h2.5v3.8h-2.5V455z M115.1,459.3h2.5v5.4h-2.5V459.3z M92.3,450.8h-2.5v-4h1.8h0.7V450.8z"/>
	</g>
	<path class="st0" d="M238.7,204.6v34H402v-34H238.7z M246.7,232.7h-2.3v-16.3c0-1.4,0.5-2.6,1.1-2.6s1.1,1.1,1.1,2.6V232.7z
		 M252.9,232.7h-2.3v-16.3c0-1.4,0.5-2.6,1.1-2.6c0.6,0,1.1,1.1,1.1,2.6V232.7z M261,232.7h-2.3v-16.3c0-1.4,0.5-2.6,1.1-2.6
		s1.1,1.1,1.1,2.6V232.7z M270.7,232.7h-3.6v-16.3c0-1.4,0.8-2.6,1.8-2.6c1,0,1.8,1.1,1.8,2.6L270.7,232.7L270.7,232.7z
		 M282.3,232.7h-5.1v-16.3c0-1.4,1.1-2.6,2.6-2.6s2.6,1.1,2.6,2.6L282.3,232.7L282.3,232.7z M294,232.7h-5.1v-16.3
		c0-1.4,1.1-2.6,2.6-2.6s2.6,1.1,2.6,2.6L294,232.7L294,232.7z M308.1,232.7H303v-16.3c0-1.4,1.1-2.6,2.6-2.6s2.6,1.1,2.6,2.6
		L308.1,232.7L308.1,232.7z M321.9,232.7h-5.1v-16.3c0-1.4,1.1-2.6,2.6-2.6s2.6,1.1,2.6,2.6L321.9,232.7L321.9,232.7z M335.4,232.7
		h-5.1v-16.3c0-1.4,1.1-2.6,2.6-2.6s2.6,1.1,2.6,2.6L335.4,232.7L335.4,232.7z M348.6,232.7h-5.1v-16.3c0-1.4,1.1-2.6,2.6-2.6
		c1.4,0,2.6,1.1,2.6,2.6L348.6,232.7L348.6,232.7z M361.8,232.7h-5.1v-16.3c0-1.4,1.1-2.6,2.6-2.6s2.6,1.1,2.6,2.6L361.8,232.7
		L361.8,232.7z M371.7,232.7h-3.6v-16.3c0-1.4,0.8-2.6,1.8-2.6c1,0,1.8,1.1,1.8,2.6L371.7,232.7L371.7,232.7z M381.9,232.7h-2.3
		v-16.3c0-1.4,0.5-2.6,1.1-2.6s1.1,1.1,1.1,2.6L381.9,232.7L381.9,232.7z M390.8,232.7h-2.3v-16.3c0-1.4,0.5-2.6,1.1-2.6
		s1.1,1.1,1.1,2.6L390.8,232.7L390.8,232.7z M396.3,232.7H394v-16.3c0-1.4,0.5-2.6,1.1-2.6s1.1,1.1,1.1,2.6L396.3,232.7L396.3,232.7
		z"/>
	<g>
		<path class="st0" d="M326,117.1h-2.8c1.9,11.2,3.2,36,3.3,63.7h8.7c-0.2-18.8-1.9-36.3-4.7-49.3
			C329.2,125.4,327.7,120.6,326,117.1z M332.2,167.3v5.3c0,1.2-1,2.2-2.2,2.2c-1.2,0-2.2-1-2.2-2.2v-5.3c0-1.2,1-2.2,2.2-2.2
			C331.2,165.1,332.2,166.1,332.2,167.3z"/>
		<path class="st0" d="M330.5,117.1h-3.2c5.4,11.6,8.9,35.8,9.2,63.7h10.2c-0.3-18.8-3.3-36.2-8.2-49.2
			C336.2,125.5,333.5,120.6,330.5,117.1z M340.7,165.1c1.2,0,2.2,1,2.2,2.2v5.3c0,1.2-1,2.2-2.2,2.2c-1.2,0-2.2-1-2.2-2.2v-5.3
			C338.4,166.1,339.5,165.1,340.7,165.1z"/>
		<path class="st0" d="M334.9,117.1h-2.7c9.3,11.7,15.4,35.9,15.9,63.7h9.8c-0.5-18.7-4.6-36.1-11.6-49.2
			C343,125.5,339.1,120.6,334.9,117.1z M350.7,165.1c1.2-0.1,2.3,0.8,2.4,2l0.5,5.3c0.1,1.2-0.8,2.3-2,2.4c-1.2,0.1-2.3-0.8-2.4-2
			l-0.5-5.3C348.6,166.3,349.5,165.2,350.7,165.1z"/>
		<path class="st0" d="M338.4,117.1h-1.5c13,11.7,21.5,35.9,22.3,63.7h7.7c-0.6-18.7-5.7-36.1-14.3-49.1
			C348.4,125.5,343.6,120.6,338.4,117.1z M360.2,165.2c1-0.2,1.9,0.6,2.1,1.9l0.8,5.2c0.2,1.2-0.4,2.4-1.4,2.6
			c-1,0.2-1.9-0.6-2.1-1.9l-0.8-5.2C358.6,166.5,359.2,165.4,360.2,165.2z"/>
		<path class="st0" d="M341.6,117.1h-0.9c4.8,3.5,9.1,8.1,12.9,13.9c6.6,9.9,11.2,22.4,13.2,36c0-0.8,0.3-1.5,0.7-1.7
			c0.6-0.2,1.4,0.5,1.7,1.7l1.3,5.1c0.3,1.2,0,2.4-0.6,2.6s-1.4-0.5-1.7-1.7l-1.3-5c0.6,4.2,1,8.4,1.1,12.8h6.9
			c-0.7-18.7-6.7-36.1-16.8-49.1C353.4,125.5,347.8,120.6,341.6,117.1z"/>
		<path class="st0" d="M345,117.1h-0.8c5.6,3.5,10.7,8.1,15.1,13.9c10.3,13.2,16.3,30.9,17.1,49.9h7.4
			C382.5,152.9,367.3,128,345,117.1z M376.4,165.3c0.6-0.2,1.4,0.5,1.7,1.7l1.3,5.1c0.3,1.2,0,2.4-0.6,2.6s-1.4-0.5-1.7-1.7
			l-1.3-5.1C375.5,166.8,375.8,165.6,376.4,165.3z"/>
		<path class="st0" d="M351.8,119.5c4.9,3.1,9.4,7,13.4,11.5c8.6,9.6,14.7,21.6,17.7,34.7c0-0.1,0.1-0.2,0.3-0.3
			c0.4-0.2,1,0.6,1.3,1.8l1.2,5.1c0.3,1.2,0.1,2.3-0.3,2.5c-0.3,0.1-0.8-0.3-1.1-1.1c0.3,2.4,0.5,4.8,0.6,7.2h4
			C387.8,154.8,373.4,131.3,351.8,119.5z"/>
		<path class="st0" d="M318.8,117.1c-1.5,9.2-3.2,30.6-3.3,63.7h9.8c-0.1-33.2-1.8-54.6-3.3-63.7H318.8z M322.6,172.6
			c0,1.2-1,2.2-2.2,2.2c-1.2,0-2.2-1-2.2-2.2v-5.3c0-1.2,1-2.2,2.2-2.2c1.2,0,2.2,1,2.2,2.2V172.6z"/>
		<path class="st0" d="M314.7,117.1c-1.7,3.5-3.2,8.3-4.5,14.4c-2.9,13-4.5,30.6-4.7,49.3h8.7c0.1-27.8,1.4-52.6,3.3-63.7H314.7z
			 M313,172.6c0,1.2-1,2.2-2.2,2.2c-1.2,0-2.2-1-2.2-2.2v-5.3c0-1.2,1-2.2,2.2-2.2c1.2,0,2.2,1,2.2,2.2V172.6z"/>
		<path class="st0" d="M310.2,117.1c-3,3.5-5.7,8.3-8,14.5c-5,13-7.9,30.5-8.2,49.2h10.2c0.3-27.9,3.8-52.1,9.2-63.7H310.2z
			 M302.3,172.6c0,1.2-1,2.2-2.2,2.2c-1.2,0-2.2-1-2.2-2.2v-5.3c0-1.2,1-2.2,2.2-2.2c1.2,0,2.2,1,2.2,2.2V172.6z"/>
		<path class="st0" d="M305.8,117.1c-4.2,3.5-8,8.3-11.4,14.6c-7,13-11.1,30.5-11.6,49.2h9.8c0.5-27.8,6.6-52.1,15.9-63.7
			L305.8,117.1L305.8,117.1z M291.6,172.8c-0.1,1.2-1.2,2.1-2.4,2s-2.1-1.2-2-2.4l0.5-5.3c0.1-1.2,1.2-2.1,2.4-2
			c1.2,0.1,2.1,1.2,2,2.4L291.6,172.8z"/>
		<path class="st0" d="M303.8,117.1h-1.5c-5.2,3.5-10,8.4-14.2,14.7c-8.6,13-13.7,30.4-14.3,49.1h7.7
			C282.3,153,290.8,128.8,303.8,117.1z M281.9,167.8l-0.8,5.2c-0.2,1.2-1.1,2.1-2.1,1.9c-1-0.2-1.6-1.3-1.4-2.6l0.8-5.2
			c0.2-1.2,1.1-2.1,2.1-1.9S282.1,166.5,281.9,167.8z"/>
		<path class="st0" d="M270.7,174.8c-0.6-0.2-0.9-1.4-0.6-2.6l1.3-5.1c0.3-1.2,1.1-2,1.7-1.7c0.5,0.2,0.7,0.8,0.7,1.7
			c2.1-13.6,6.7-26.1,13.2-36c3.8-5.7,8.1-10.4,12.9-13.9h-0.8c-6.2,3.5-11.8,8.4-16.7,14.7c-10.1,13-16.1,30.4-16.8,49.1h6.9
			c0.1-4.3,0.5-8.6,1.1-12.8l-1.3,5C272.2,174.3,271.4,175.1,270.7,174.8z"/>
		<path class="st0" d="M296.6,117.1h-0.8c-22.3,10.8-37.5,35.7-38.7,63.7h7.4c0.7-19,6.8-36.7,17.1-49.9
			C285.9,125.2,291,120.6,296.6,117.1z M264.9,168l-1.3,5.1c-0.3,1.2-1.1,2-1.7,1.7c-0.6-0.2-0.9-1.4-0.6-2.6l1.3-5.1
			c0.3-1.2,1.1-2,1.7-1.7C264.9,165.6,265.2,166.8,264.9,168z"/>
		<path class="st0" d="M256.2,167.2c0.3-1.2,0.9-2,1.3-1.8c0.1,0,0.2,0.1,0.3,0.3c3-13.1,9-25.1,17.7-34.7c4-4.5,8.6-8.3,13.4-11.5
			c-21.6,11.8-36,35.3-37.2,61.4h4c0.1-2.4,0.3-4.8,0.6-7.2c-0.3,0.8-0.7,1.3-1.1,1.1c-0.4-0.2-0.6-1.3-0.3-2.5L256.2,167.2z"/>
	</g>
</g>
</svg>
