<?xml version="1.0" encoding="utf-8"?>
<!-- Generator: Adobe Illustrator 24.1.1, SVG Export Plug-In . SVG Version: 6.00 Build 0)  -->
<svg version="1.1" id="Layer_1" xmlns="http://www.w3.org/2000/svg" xmlns:xlink="http://www.w3.org/1999/xlink" x="0px" y="0px"
	 viewBox="0 0 640 480" style="enable-background:new 0 0 640 480;" xml:space="preserve">
<style type="text/css">
	.st0{fill:#004C24;}
	.st1{fill:#007DB5;}
	.st2{fill:#FEFEFE;}
	.st3{fill:#96C950;}
	.st4{fill:#AAD472;}
	.st5{fill:#C0DF97;}
	.st6{fill:#E3F1D2;}
	.st7{fill:#FBFCFA;}
	.st8{fill:#C9E3A5;}
	.st9{fill:#C6E2A1;}
	.st10{fill:#CAE3AA;}
	.st11{fill:#C9E3A9;}
	.st12{fill:#CAE1B1;}
	.st13{fill:#D6EABB;}
	.st14{fill:#AECCA2;}
	.st15{fill:#FCFDFD;}
	.st16{fill:#C2C4A1;}
	.st17{fill:#CFC9A0;}
	.st18{fill:#C9C7A1;}
	.st19{fill:#C1C4A2;}
	.st20{fill:#CAC7A1;}
	.st21{fill:#C8C6A1;}
	.st22{fill:#CCC8A0;}
	.st23{fill:#CBC7A0;}
	.st24{fill:#BDC2A2;}
	.st25{fill:#C7C6A1;}
	.st26{fill:#B7C0A3;}
	.st27{fill:#D0C9A0;}
	.st28{fill:#A6BAA4;}
	.st29{fill:#D2CAA0;}
	.st30{fill:#318FB1;}
	.st31{fill:#1785B3;}
	.st32{fill:#328FB1;}
	.st33{fill:#077FB5;}
	.st34{fill:#1B86B2;}
	.st35{fill:#2D8DB1;}
	.st36{fill:#6BA4AA;}
	.st37{fill:#0D81B4;}
	.st38{fill:#599EAC;}
	.st39{fill:#4395AE;}
	.st40{fill:#238AB2;}
	.st41{fill:#78A8A9;}
	.st42{fill:#288BB1;}
</style>
<g>
	<g>
		<path class="st0" d="M430,99c0,53.5,0,107,0,160.5c-6.2,8.9-15.6,12.3-25,7.6c-10.2-5.1-19.7-5.2-29.7,0.1
			c-6.5,3.5-13.3,1.9-19.5-1.2c-8.4-4.1-16.6-3.8-24.8,0.2c-7.4,3.7-14.5,3.4-21.7-0.2c-7.4-3.8-14.9-4.1-22.5-0.4
			c-8.2,4-16.3,4.5-24.6-0.1c-7.4-4-15-3.6-22.5,0.2c-4.3,2.2-8.6,3.5-13.5,3.1c-11.4-1.1-15.6-5.6-15.6-16.9
			c0-48.8,0.1-97.6-0.1-146.4c0-4.9,0.5-7.4,6.6-7.4c69.4,0.2,138.9,0.1,208.3,0.1C427.1,98.3,428.7,98,430,99z"/>
		<path class="st1" d="M430,268.8c0,29.6,0,59.2,0,88.8c-72.9,0-145.7,0-218.6,0c-1.4-1.9-0.7-4-0.7-6c0-25.4,0-50.8,0-76.2
			c0-8.3,1.7-9.7,8.9-6.5c6.6,3,12.4,2.3,18.4-1.4c8.8-5.3,17.8-5.3,26.6,0.1c6.7,4.1,13,4,19.7,0.2c8.8-5,17.7-5.3,26.6,0.2
			c6,3.7,12,3.9,18.3,0.1c9.5-5.7,19.3-5.5,28.8,0.2c5.9,3.6,11.7,3.7,17.6,0c9.8-6.1,19.6-6.1,29.4,0.1c5.4,3.4,10.8,3,16.4,0.7
			C424.3,267.7,427.1,266.5,430,268.8z"/>
		<path class="st2" d="M430,268.8c-1,0.2-1.9,0.1-2.9,0.4c-2.4,0.7-2.9,3.8-5.1,4.2c-2.4,0.4-4.8,0-7.2,1.4
			c-1.6,0.9-4.3,0.5-6.3-1.3c-1.3-1.2-4.4,1.5-5.3-2.5c-0.4-1.5-4-2.2-6.1-3.4c-2.2-1.2-5.1,0.7-6.9-1.9c-1.6,2.8-4.9,0.2-6.9,2.2
			c-1.9,1.9-5.9,1.1-6.4,4.9c-4.6,0.4-9,3.9-13.6,1.4c-2.1-1.1-4.2,0-5.8-1c-1.2-0.8-1.3-2.4-3.2-3.3c-7.5-3.9-14.6-4.3-21.8,0.4
			c-3-1-1.7,2.7-3.3,3.1c-1.7,0.4-3.6-0.6-5.2,0.6c-2,1.6-4.3,1.4-6.3,0.2c-1-0.6-1.8-0.8-2.8-0.8l-6.4-3.1
			c-3.7-3.3-8.1-3.4-12.7-3.2c-4.7,0.2-4.8,0.1-11,5.4c-0.2,0.2-0.4,0.6-0.5,0.6c-4.8-1.4-9.3,4.4-14.3,0.6c-1-0.8-3-0.1-4.5-0.3
			c-1.8-0.2-0.6-2.4-2.4-3.3c-3.9-1.9-8.2-3.8-12.1-3.9c-4-0.1-8.1,2.6-12.2,4.1c-1.2,4.9-6,3-8.9,4.4c-3.6,1.8-7.6-2.1-11.6-1.5
			c-0.7-3.1-3.5-3.5-5.7-4.6c-0.3,0.2-0.5,0.2-0.7,0.4c-0.2,0.2-0.4,0.4-0.4,0.6c0,29.3,0,58.6,0,87.9c-0.5,0-1.5,0-1.5,0
			c-0.1-2.3-0.1-4.7-0.1-7c0-84.4,0-168.8,0-253.1c72.3,0,144.7,0,217,0.1c1,0,3.4-1.6,3.1,1.5c-72.6,0-145.2,0-217.8,0
			c-1.4,1.8-0.7,3.9-0.7,5.9c-0.1,49.6,0,99.2-0.2,148.8c0,4.5,1.1,7.2,5.3,8.6c3.2,1.1,6.3,2.5,9.5,3.3c4.7,1.1,8.8-1.2,12.7-3.2
			c8.4-4.4,16.5-4.4,24.9,0c3.8,2,8,4.4,12.7,3.2c3.2-0.8,6.8-1.6,9.4-3.5c4.1-3,8.5-2.6,13-2.7c4.6-0.1,8.5,1.2,12.6,3.6
			c4.9,2.9,10.8,4.5,16.1,1c6.7-4.4,13.9-4.9,21.5-4.7c1.7,0.1,2.7,1.1,4.1,1.6c3.2,1.2,6.2,2.6,9.3,3.8c4.5,1.8,8.9,1.5,12.1-0.9
			c6.7-5.1,14.2-4.4,21.6-4.4c3.3,0,5.8,2.3,8.6,3.7c8,4.1,10.7,3.2,18.5-1.1c2.2-1.2,5-0.6,6.7-2.6C430,262.6,430,265.7,430,268.8z
			"/>
		<path class="st3" d="M408.2,228.3c-1.3,3.7-5.4,4-7.8,6.7c-2.5,2.8-6.5,4.3-9.5,6.8c-1.9,1.6-4,3-5.7,5.1
			c-2.5,3.2-6.4,5.5-9.9,7.8c-3.5,2.3-12,2.5-15.9,0.3c-4.1-2.2-8.7-2.9-12.8-4.8c-0.9-0.4-2.3-0.5-3-0.1c-4.3,2.4-9.5,1.1-14,4
			c-5.9,3.8-13.2,3.7-19.2,0c-3.8-2.3-7.9-2.3-11.7-3.9c-3.3-1.5-6.5,2.3-10.1,1.6c-1.1,2.4-3.6,1.1-5.4,2.1
			c-8.7,4.7-16.4,2.6-23.9-3.4c-4.2-3.3-7.6-7.3-11.7-10.6c-4.3-3.4-9.7-5.3-13.2-9.7c-0.7-0.8-2.8,0.2-2.6-1.9
			c2.1-3.5,5.7-3.3,9-3.4c52.8-0.2,105.6-0.2,158.4,0C402.5,225,406.1,224.8,408.2,228.3z"/>
		<path class="st4" d="M408.2,228.3c-58.8,0-117.6,0-176.4,0c-2.6-1.8-5.3-3.5-8.3-5.6c4.3-1.7,6.1-6.1,10.7-7.1
			c2-0.5,3.8-2.9,0.8-5.3c-0.4-0.3-0.1-1.5-0.1-2.3c2.6-3.3,6.2-3.4,9.9-3.4c51.2-0.2,102.4-0.1,153.6,0c2.9,0,5.7,0.2,8.2,1.9
			c-1.8,7.3-2,7.7,4.5,10.7c2.2,1,1,4.9,4.5,3.9c0.4-0.1,0.5,1.6-0.2,2.5C413.5,225.9,410.8,227.1,408.2,228.3z"/>
		<path class="st5" d="M406.6,206.5c-2.3,2.1-5.2,1.6-7.9,1.6c-36.9,0-73.8,0-110.8,0c-17.7,0-35.4,0-53,0c0-1,0-2.1,0-3.1
			c-0.6-0.5-1-1.1-1.6-1.6c0.3-2.8-2.4-4.9-1.6-7.8c1.1-2,2.9-3,5.1-3c13.7-0.1,27.4-0.4,41.2,0.2c1.3,0.1,2.4,0.9,3.7,1.2
			c2.2,1.5,4.4,3.2,6.8,4.3c3,1.4,2.6-1,2.6-2.7c2.3-3,5.6-3.3,9.1-3.4c13.2-0.2,26.4-0.2,39.6,0c3.4,0,6.7,0.4,9.1,3.4
			c0,1,0,2.1,0,3.1c1,0.9,2.1,1,3.1,0c0.5,0,1,0,1.6,0c0.5-0.6,1.1-1,1.6-1.6c1.6-1,3.1-2.1,4.7-3.1c5.7-2.7,11.7-1.4,17.6-1.5
			c8-0.2,16,0,24-0.1c3.2,0,6.2,0.4,8.3,3.1c-0.2,1.7-2.3,2.7-1.6,4.7c-1,0.8-0.6,2.3-1.6,3.1C406.6,204.4,406.6,205.5,406.6,206.5z
			"/>
		<path class="st6" d="M289.6,176.9c-0.1-3.2,0-6.2-1.3-9.5c-1.1-2.8,0.3-6.4-1.7-9.3c-0.5-0.7-0.1-2-0.1-3c2.3-3,5.7-3.4,9.1-3.4
			c16.3-0.2,32.7-0.2,49,0c3.4,0,6.9,0,9,3.4c-0.7,3.4,0.8,6.7-1.3,10.3c-1.6,2.6,0.5,6.8-1.8,10c-0.5,0.7-0.1,2-0.1,3
			c-2.3,3-5.7,3.3-9.1,3.4c-14,0.2-28,0.2-42,0C295.2,181.8,291.6,181,289.6,176.9z"/>
		<path class="st7" d="M353.6,155.1c-22.4,0-44.8,0-67.1,0c0.1-4.7-2.3-8.9-3-13.8c4.8,1.8,9.4,3.6,14,5.3c4,1.4,4.5,1.4,6.2-2.7
			c3.8-9.5,10.8-17.2,14.2-26.8c0.4-1.2,1.6-2.7,3.7-2.4c3.6,6.7,7.4,13.4,10.9,20.2c1.1,2.1,2,4.3,2.6,6.7
			c1.7,6.2,5.1,7.3,11.4,4.4c2-0.9,3.9-1.8,5.9-2.8c1.4-0.7,2.8-0.8,4.8,0.4C353.5,146.7,356.7,151.7,353.6,155.1z"/>
		<path class="st8" d="M289.6,176.9c2.1,1.8,4.6,1.6,7.1,1.6c17.9,0,35.8,0,53.7,0c1.2,5.9-2.4,11.3-1.6,17.1c-19.3,0-38.5,0-57.8,0
			c0-1,0-2.1,0-3.1c0-2.8,0-5.7,0-8.5C291.1,181.5,288.7,179.6,289.6,176.9z"/>
		<path class="st9" d="M281.7,194.1c-0.3,2.6-2.3,1.5-3.5,1.5c-15.5,0.1-30.9,0-46.4,0c-1.4,0.1-1.6-0.8-1.6-1.8c0-1.5,0-2.9,0-4.4
			c2.6-4,6.8-3.4,10.5-3c7.5,0.7,14.8,0.9,22.3,0c5-0.6,9.8,0.2,14,3C280.6,189.7,281.4,190.6,281.7,194.1z"/>
		<path class="st9" d="M409.8,195.6c-15.5,0-30.9,0-46.4,0c-1.2,0-3.3,1.1-3.5-1.5c-0.2-3.4,2.2-4.9,4.7-6.2
			c13.9-1.5,27.9-0.4,41.8-1.7c1.9-0.2,3.5,0.6,5.1,1.7C411.6,190.6,409,192.8,409.8,195.6z"/>
		<path class="st10" d="M277.1,189.4c-15.6,0-31.2,0-46.8,0c-2-2.5-1.1-6.1-4.5-9c6.2,1.1,10.8,2.3,15.4,2.7
			c4.2,0.3,8.1,2.5,12.5,1.8c3.5-0.5,3.6-0.1,6.3-3.2c4-1.9,7.5-0.7,10.9,1.6C273.5,184.6,275.6,186.7,277.1,189.4z"/>
		<path class="st11" d="M411.3,187.8c-1.7,0.3-2.7,1.7-4.8,1.7c-13.4-0.2-26.7-0.1-40.1-0.1c-1.1,0-2.1-0.1-2-1.6
			c0.9-2.2,2.5-3.8,4.7-4.7c4.3-0.3,8.8-2.6,12.5,1.6c10.6,1,20.4-3.2,31-3.8C413.7,183,412.7,185.4,411.3,187.8z"/>
		<path class="st12" d="M381.7,184.7c-3.5,0-7,0-10.6,0c-1.1,0-2-0.1-1.9-1.6c0.6-0.4,1.1-1,1.6-1.6c1.7-0.3,2.8-1.4,3-2.9
			c0.5-2.6,3-3,4-5.4c1.1,3.1,2.9,5.3,2.3,8.2c0.6,0.5,0.9,1.1,1.6,1.6C381.7,183.7,381.7,184.2,381.7,184.7z"/>
		<path class="st13" d="M270.8,183.2c-3,0-6,0-9,0c-1.1,0-2-0.1-1.9-1.6c0-0.5,0-1,0-1.6c1-0.8,0.6-2.3,1.6-3.1c0-1,0-2.1,0-3.1
			c0.5-0.5,1-0.5,1.6,0c0.5,0.6,1.1,1,1.6,1.6c0.5,0.5,1,1.1,1.6,1.6C266.7,179.8,270.3,180.3,270.8,183.2z"/>
		<path class="st10" d="M261.5,176.9c-0.2,1.2,0.8,3-1.6,3.1C260.1,178.9,259.1,177.1,261.5,176.9z"/>
		<path class="st4" d="M352,198.7c0.1,1.5-0.9,1.6-1.9,1.5c-0.8-0.1-1.4-0.6-1.2-1.5C349.9,198.7,351,198.7,352,198.7z"/>
		<path class="st4" d="M406.6,203.4c0.2-1.2-0.8-3,1.6-3.1C408,201.5,409,203.3,406.6,203.4z"/>
		<path class="st14" d="M266.1,176.9c-1.1,0-1.6-0.5-1.6-1.6C265.7,175.3,266.2,175.8,266.1,176.9z"/>
		<path class="st11" d="M370.7,181.6c0,1.1-0.5,1.6-1.6,1.6C369.1,182.1,369.6,181.6,370.7,181.6z"/>
		<path class="st14" d="M263,173.8c-0.5,0-1,0-1.6,0c-0.1-0.8,0.1-1.4,1-1.2C262.7,172.6,262.8,173.4,263,173.8z"/>
		<path class="st4" d="M355.1,197.2c0,1.1-0.5,1.6-1.6,1.6C353.5,197.7,354,197.1,355.1,197.2z"/>
		<path class="st4" d="M233.4,203.4c1.1,0,1.6,0.5,1.6,1.6C233.8,205,233.3,204.5,233.4,203.4z"/>
		<path class="st11" d="M381.7,183.2c-1.1,0-1.6-0.5-1.6-1.6C381.2,181.6,381.7,182.1,381.7,183.2z"/>
		<path class="st14" d="M264.6,175.4c-1.1,0-1.6-0.5-1.6-1.6C264.1,173.8,264.6,174.3,264.6,175.4z"/>
		<path class="st15" d="M383,278.6c0.1,0.7,0.2,1.2,0.2,1.7c0,5.8-0.8,6.9-5.9,8.8c-5.6,2.1-11.5,1.9-17.2,1.4
			c-2.9-0.3-5.6-2.6-8.4-4c-5.4-2.8-11.2-3.4-16.2,0c-6.1,4.1-12.5,4.8-19.3,4.2c-3.9-0.3-7.5-1.8-10.9-3.8
			c-5.9-3.5-11.7-3.6-17.4,0.1c-8.3,5.3-17,4.6-25.8,1.9c-4.7-1.4-5.3-2.9-5.3-8.5c0-0.5,0.1-1,0.1-1.6c2-1.3,3.4-0.4,5.4,0.8
			c7.5,4.3,15.3,4.8,23,0.2c3.9-2.3,8.1-3.5,12.7-3.2c2.2,0.2,12.3,3.4,14.3,4.9c0.8,0.6,1.3,1.5,2.6,1.4c5.4-0.4,10.7,0.5,16-2.8
			c8-5,16.9-4.8,25.1-0.1c6.9,4,13.3,4.3,20.2-0.1C377.8,279,380,277,383,278.6z"/>
		<path class="st16" d="M277.1,325.1c2.3,0,4,0,6,0c0,2.4,0,4.6,0,6.6c1.5,1.8,3.1,0.5,4.8,1.5c0-3,0-5.3,0-7.3c1.6-1.3,3-1,4.7-0.4
			c0,5.8,0,11.7,0,17.6c-4.1,0.5-4.2,0.5-4.5-2.8c-0.1-1.7,0-2.9-2.4-2.9c-2.4,0-2.4,1.2-2.4,2.9c0,0.5,0,1.1-0.3,1.4
			c-0.9,0.8-1.5,2.4-3,2c-1.5-0.4-2.8-1.4-2.9-3.1c-0.1-2.6,0-5.2,0-7.8C277.1,330.4,277.1,328,277.1,325.1z"/>
		<path class="st17" d="M362.6,343.4c-4.3,0-4.3,0-4.5-5.3c-0.5-0.8-1.3-0.7-2.1-0.7c-0.7,0-1.5,0.1-2.4,0.2
			c-0.1,1.9-0.2,3.6-0.3,5.3c-1.1,1.2-2.5,0.4-3.7,0.7c-0.2-0.2-0.5-0.3-0.5-0.5c0-5.9,0-11.8,0-17.7c1.1-1.1,2.5-0.1,3.7-0.6
			c1.6,2.4,0,5.2,1.1,7.5c1.2,0.8,2.4,0.3,4.2,0.3c0-2.4,0-4.9,0-7.5c1.8,0,3,0,4.5,0C362.6,331,362.6,336.9,362.6,343.4z"/>
		<path class="st18" d="M259.9,314c0.2-3.7,2.5-6.8,3.4-10.6c2.1,0,4.4,0,7.2,0c0.2,0.1,0.2,0.8,0.4,1.5c1.3,4.1,2.5,8.2,4.1,12.3
			c0.4,1,1,1.9,0.1,2.6c-0.5,0.4-1.4,0.3-2.2,0.4c-2.8,0.2-3.3-3.8-6.5-3.2c-2.5,0.4-2.8,3.9-5.7,3.3c-0.7-0.2-1.5,0-2.3,0
			C256.3,317.5,256.9,315.5,259.9,314z"/>
		<path class="st17" d="M375.4,315.6c0,0.8,0.3,2,0,2.2c-1.6,1-3.4,1.7-5.1,2.4c-0.4,0.2-1,0-1.5,0c-1.8,0-3.5,0-5.5,0
			c0-5.6,0-10.9,0-16.6c1.8-1.1,4.1-0.4,6.3-0.5c5.2,0,5.5,0.4,5.9,6.2c0.4,0.3,0.6,0.7,0.4,1c-0.1,0.3-0.3,0.5-0.4,0.5
			c0,1,0,2.1,0,3.1c0.4,0.3,0.6,0.7,0.4,1C375.7,315.4,375.6,315.6,375.4,315.6z"/>
		<path class="st19" d="M305.3,343.3c-13.1,1.2-11.1-1-11.1-10c0-2.6,0-5.1,0-8c3.6,0,7.1,0,10.7,0c0,1.8,0,3.5,0,5.3
			c-1.1,1.5-3-0.3-4.2,1.1c0.2,0.3,0.3,0.9,0.5,1c1.3,0.5,3.4-1,3.8,1.3c0.4,1.8-1.3,2.6-2.6,3.4c-0.5,0.3-1.5,0-2,0.8
			c1,1.7,2.9,0.2,4.1,1.1C305.8,340.2,304.8,341.6,305.3,343.3z"/>
		<path class="st20" d="M236.5,309.3c2.3,0,4.7,0,7.1,0c1.3,2,0.6,4.4,0.6,6.6c0,3.1-1.4,4.1-4.7,4.4c-2.9,0.3-5.2-1-7.6-2.3
			c-2.6-1.4-1.6-4.4-3-6.6c-1.4-2.2,3.8-8.1,6.9-8.3c2.6-0.1,5.2,0,7.8,0c1.3,1.2-0.4,1.5-0.7,2.2c-0.4,1,0.4,3.6-2.3,1.3
			c-1-0.8-3.4-1.7-4.1,1.1c-0.8,0.7-0.6,1.7-0.9,2.6c0,0,0.4-0.1,0.4-0.1C235.9,309.7,236.1,309.5,236.5,309.3z"/>
		<path class="st19" d="M345.7,306.2c-0.6-3.8,1.8-3.4,4.7-2.7c0,2.6,0.1,5.4-0.1,8.2c-0.1,1.6,0.9,2.3,1.7,3.2
			c0.6,0.7,1.3,0.8,2,0.6c0.8-0.2,1-0.9,1-1.7c0-3.3,0-6.7,0-10c2-1.6,3.9-0.2,6.4-1.1c-0.4,4.9,0.8,9.1-1.6,13.1
			c-2.8,4.6-6.9,5.9-11.2,2.8c-2.5-1.8-3.2-4.7-2.9-7.7C344.5,309.3,344.5,307.8,345.7,306.2z"/>
		<path class="st21" d="M292.7,309.3c1.3-4.5,2.8-6.1,6.1-6.2c2.5-0.1,5.1,0,7.7,0c-0.9,3.8-1.1,4.3-3.2,3.4
			c-2.5-1.1-3.3,1.8-5.4,1.7c-1-0.1-0.3,1.8-0.5,2.7c0.4,0.3,0.7,0.6,1,1c0.3,0.3,0.6,0.7,0.8,1c0.2,0.3,0.4,0.6,0.6,0.9
			c0,0,0.1-0.5,0.1-0.5s-0.4-0.3-0.4-0.4c-0.3-0.5-0.3-0.9-0.1-1.4c0.3-0.8,0.5-1.6,1.1-2.2c1.8,0,3.6,0,5.6,0
			c1.3,2.1,0.6,4.4,0.6,6.6c0,3.1-1.4,4.2-4.8,4.3c-5.7,0.2-7.9-1.3-9.2-6.2C291.3,312.5,291.3,310.9,292.7,309.3z"/>
		<path class="st22" d="M317.7,342c-1.2-2.8-3-1.7-4.7-0.7c-1.1,0.6-1.5,1.9-2.9,2.3c-2.1,0.6-3.8-0.6-3.2-2.6
			c1.4-5.1,3.8-9.8,4.7-15c0.3-1.8,2.1-1,3.2-1.1c1.5-0.1,2.3-0.1,3.2,2c1.8,4.4,3.1,9,4.5,13.6C321.9,344.4,319.6,342.6,317.7,342z
			"/>
		<path class="st23" d="M316.9,303.1c2.8-0.4,3.2,0.7,4.2,3.4c1.5,3.8,1.4,8.1,4.2,11.5c0.9,1-0.3,2.1-2,2.3
			c-1.9,0.2-2.8-1.1-3.9-2.1c-1.8-1.6-3.6-1.7-5.3,0c-0.6,0.5-1,1.2-1.7,1.6c-1.1,0.8-2.7,0.8-3.6,0.1c-1.4-1-0.1-2,0.3-3.2
			c1.1-3.4,2.9-6.8,3.5-10.2C313.3,303.4,314.1,302.7,316.9,303.1z"/>
		<path class="st24" d="M289.6,317.1c-1,2.3-3.3,2.8-5.3,3c-4.7,0.6-8.1-2.2-8.7-6.7c-0.4-3.3-0.1-6.6-0.1-9.8
			c2.1-0.9,3.8-0.5,6.2-0.4c0,3.5,0,7,0,10.6c0,1.4,0.7,1.8,1.9,1.7c0.8-0.1,1.4-0.6,1.2-1.5c1.4-2.4,0.6-5,0.8-7.5
			c0.1-1.8,0-4,2.4-3.9c2.4,0.1,2.1,2.3,2.3,4.1C290.7,310.2,291.5,313.8,289.6,317.1z"/>
		<path class="st25" d="M344.2,310.9c0.1,1.6-1.6,2.8-2.2,2.8c-3.2-0.1-3.9,1.4-4.4,4.3c-0.3,2-2.8,2.9-5.5,1.8c0-5.2,0-10.8,0-16.7
			c2.8,0,5.6,0,8.4,0c2.1,0,3.1,1.3,3.7,3.1C345.3,307.8,345.3,309.3,344.2,310.9z"/>
		<path class="st26" d="M317.7,342c1.5-0.6,4,1.4,4.7-1.6c1.5,0.1,1.6-0.9,1.6-2c0-4.4,0-8.7,0-12.9c1.9-1.3,3.8-0.2,6-1.1
			c0,4.9,0,9.4,0,13.1c1.1,1.6,2,1.4,2.6,1.3c2-0.4,2.6,1.4,3.7,2.3c-1.1,1.4-2,2.6-4.2,2.5c-4.4-0.2-8.8,0-13.2-0.1
			C318.1,343.6,317.5,343,317.7,342z"/>
		<path class="st16" d="M410.9,315.6c1.1,2.9-0.8,4.3-2.2,4.5c-2.1,0.4-4.6,0.8-6.7-0.6c-4.8-3.2-6.2-9.7-2.9-14.3
			c0.8-1.2,1.8-2.3,3.8-2.1c2.8,0.2,5.5,0.1,8.5,0.1c-1.4,3.5-1.4,3.7-3.9,3.2c-2.4-0.5-3.5,1.1-3.9,2.6c-0.5,1.9-0.1,4-0.1,6.6
			C406.2,315.6,408.7,315.6,410.9,315.6z"/>
		<path class="st17" d="M337.9,343.7c0-3.1,0-5.6,0-8.2c0-2.1,0.7-4.3-2.8-5c-2-0.4-2.4-2.9-1.5-5.3c4.2,0,8.5,0,12.9,0
			c0.9,5.7,0.9,5.7-3.9,6.1c0,3.1-0.2,6.4,0.1,9.6C343,344.4,340.6,343.5,337.9,343.7z"/>
		<path class="st27" d="M256.8,320.2c-3,0-6,0-9.4,0c0-6,0-11.6,0-17.1c3.4-1.1,6.7-1.7,9.9,0.5c0.2,0.7,0.3,1.5,0.2,2.2
			c-0.7,1.4-0.4,2.8,0,4.2C256.3,313.3,258.7,316.9,256.8,320.2z"/>
		<path class="st28" d="M378.7,320c0-5.6,0-11,0-16.2c1.2-1.2,2.5-0.4,4-0.7c1.4,3.9-0.1,8,0.8,12.2c1.9,0.3,3.9,0.3,5.7,1
			c0.5,0.2,0.3,2.3,0.4,3.7C385.9,320,382.6,320,378.7,320z"/>
		<path class="st29" d="M395.4,320.1c-1.5,0-2.7,0-4.2,0c0-5.7,0-11.2,0-16.9c1.5,0,2.7,0,4.2,0
			C395.4,308.9,395.4,314.5,395.4,320.1z"/>
		<path class="st30" d="M289.6,317.1c0-4.1,0-8.1,0-12.2c0-1.2-0.4-1.9-1.7-1.8c-1.5,0.1-1.4,1.1-1.4,2.1c0,2.5,0.1,5.1,0,7.6
			c0,0.8-0.6,1.4-1.5,1.2c0-4,0-8,0-12.3c2.1,0,3.8,0,5.7,0c1.1,1.9,0.2,4.2,0.5,6.4c0.1,0.8,0.6,1.4,1.5,1.2c0,1.6,0,3.1,0,4.7
			c-1-0.2-1.4,0.4-1.5,1.2C291,316.2,291,317.2,289.6,317.1z"/>
		<path class="st31" d="M256.8,320.2c-0.1-2.3,1-5.5-3.5-4.7c-0.7,0.1-1.2-0.5-1.2-1.5c0-1,0.5-1.6,1.2-1.5c2.3,0.1,4.3,0.1,3.5-3.2
			c-0.9-1-0.9-2.1,0-3.1c0.5-1,1-1,1.6,0c0,2,0,4,0,5.9c0,1.1,0.2,2,1.6,1.9c-1.5,1.8-1.7,4-1.6,6.2
			C257.8,320.2,257.3,320.2,256.8,320.2z"/>
		<path class="st32" d="M258.3,306.2c-0.5,0-1,0-1.6,0c-0.2-1.3,0.7-3.2-1.8-3.1c-2.5,0.1-5,0-7.5,0c-0.2-1,0.4-1.5,1.2-1.5
			c3.1-0.1,6.1,0,9,0C258.8,303.2,258.1,304.7,258.3,306.2z"/>
		<path class="st33" d="M234.9,314c0-1.5,0-2.9,0-4.4c0-1.1,0.2-1.9,1.6-1.8c0,0.5,0,1,0,1.6c0,1.6,0,3.1,0,4.7
			C236,314.6,235.4,314.6,234.9,314z"/>
		<path class="st34" d="M298.9,314c-1.1,0-1.6-0.5-1.6-1.6c0.5-0.5,0.9-1.2,1.6-1.6c0-1.1,0.5-1.6,1.6-1.6c0,1.6,0,3.1,0,4.7
			C300,314.7,299.4,314.7,298.9,314z"/>
		<ellipse class="st35" cx="345" cy="308.6" rx="1.1" ry="3.3"/>
		<path class="st1" d="M375.4,310.9c0-0.5,0-1,0-1.6c0.8-0.1,1.4,0.1,1.2,1C376.6,310.6,375.8,310.7,375.4,310.9z"/>
		<path class="st28" d="M375.4,315.6c0-0.5,0-1,0-1.6c0.8-0.1,1.4,0.1,1.2,1C376.6,315.3,375.8,315.4,375.4,315.6z"/>
		<path class="st1" d="M298.9,310.9c0,1.1-0.5,1.6-1.6,1.6c0-0.5,0-1,0-1.6C297.9,310.9,298.4,310.9,298.9,310.9z"/>
		<path class="st1" d="M267.7,310.9c0.1,0.8-0.1,1.4-1,1.2c-0.3-0.1-0.4-0.8-0.5-1.2C266.7,309.9,267.2,309.9,267.7,310.9z"/>
		<path class="st36" d="M266.1,309.3c-0.1-0.8,0.1-1.4,1-1.2c0.3,0.1,0.4,0.8,0.5,1.2C267.2,310,266.7,310,266.1,309.3z"/>
		<ellipse class="st37" cx="266.9" cy="310.1" rx="1.1" ry="1.1"/>
		<path class="st38" d="M369.2,309.3c-2.2-0.4-2.1-1.8-0.8-2.9c0.8-0.7,2.4-0.5,2.4,1.3C370.2,308.2,369.6,308.8,369.2,309.3z"/>
		<path class="st39" d="M369.2,315.6c-2.2-0.4-2.1-1.8-0.8-2.9c0.8-0.7,2.4-0.5,2.4,1.3C370.2,314.5,369.6,315,369.2,315.6z"/>
		<path class="st1" d="M369.2,315.6c0-1.1,0.5-1.6,1.6-1.6C370.8,315.1,370.2,315.6,369.2,315.6z"/>
		<path class="st39" d="M369.2,309.3c0-1.1,0.5-1.6,1.6-1.6C370.8,308.9,370.2,309.4,369.2,309.3z"/>
		<path class="st40" d="M234.9,314c0.5,0,1,0,1.6,0c0.7,0,1.5-0.1,2.2,0c0.3,0.1,0.5,0.6,0.7,0.9c0,0.1-0.4,0.5-0.5,0.5
			C237.5,315.2,235.4,316.9,234.9,314z"/>
		<path class="st37" d="M298.9,314c0.5,0,1,0,1.6,0c0.4,0.3,0.5,0.7,0.4,1c-0.1,0.3-0.2,0.5-0.4,0.5
			C299.4,315.6,298.9,315.1,298.9,314z"/>
		<path class="st1" d="M300.5,315.6c0-0.5,0-1,0-1.6c0.8-0.1,1.4,0.1,1.2,1C301.7,315.3,300.9,315.4,300.5,315.6z"/>
		<path class="st41" d="M314.5,332.7c-0.1-0.8,0.1-1.4,1-1.2c0.3,0.1,0.4,0.8,0.5,1.2C315.6,333.7,315,333.7,314.5,332.7z"/>
		<path class="st42" d="M314.5,332.7c0.5,0,1,0,1.6,0c0,0.5,0,1,0,1.6c-0.5,0.5-1,0.5-1.6,0C314.5,333.7,314.5,333.2,314.5,332.7z"
			/>
		<path class="st1" d="M314.5,334.3c0.5,0,1,0,1.6,0c0.1,0.8-0.1,1.4-1,1.2C314.8,335.4,314.7,334.7,314.5,334.3z"/>
		<path class="st40" d="M317.7,310.1c-0.2,0.7,0.6,2.2-1,2c-0.9-0.1-0.5-1.3-0.5-2c0.1-0.8-0.6-2.2,1-2
			C318,308.2,317.6,309.4,317.7,310.1z"/>
		<path class="st41" d="M337.9,309.3c-2.2-0.4-2.1-1.8-0.8-2.9c0.8-0.7,2.4-0.5,2.4,1.3C338.9,308.2,338.4,308.8,337.9,309.3z"/>
		<path class="st1" d="M337.9,309.3c0-1.1,0.5-1.6,1.6-1.6C339.5,308.9,339,309.4,337.9,309.3z"/>
		<path class="st32" d="M256.8,306.2c0,1,0,2.1,0,3.1c-1.6-0.7-4.9,1.8-4.5-1.9C252.5,305,255.2,306.7,256.8,306.2z"/>
	</g>
</g>
</svg>
