<svg id="tree_logo" data-name="tree logo" xmlns="http://www.w3.org/2000/svg" width="1000" height="1000" viewBox="0 0 1000 1000">
  <title>Help Me Geauga Logo</title>
<metadata><?xpacket begin="﻿" id="W5M0MpCehiHzreSzNTczkc9d"?>
<x:xmpmeta xmlns:x="adobe:ns:meta/" x:xmptk="Adobe XMP Core 6.0-c002 79.164352, 2020/01/30-15:50:38        ">
   <rdf:RDF xmlns:rdf="http://www.w3.org/1999/02/22-rdf-syntax-ns#">
      <rdf:Description rdf:about=""
            xmlns:dc="http://purl.org/dc/elements/1.1/"
            xmlns:photoshop="http://ns.adobe.com/photoshop/1.0/"
            xmlns:xmp="http://ns.adobe.com/xap/1.0/"
            xmlns:xmpRights="http://ns.adobe.com/xap/1.0/rights/">
         <dc:creator>
            <rdf:Seq>
               <rdf:li>Nicholas Vecchio</rdf:li>
            </rdf:Seq>
         </dc:creator>
         <dc:title>
            <rdf:Alt>
               <rdf:li xml:lang="x-default">Help Me Geauga Logo</rdf:li>
            </rdf:Alt>
         </dc:title>
         <dc:rights>
            <rdf:Alt>
               <rdf:li xml:lang="x-default">For use by author and however Help Me Geauga and any of its associates wish to use it.</rdf:li>
            </rdf:Alt>
         </dc:rights>
         <photoshop:AuthorsPosition>Designer</photoshop:AuthorsPosition>
         <xmp:CreatorTool>Adobe Photoshop 21.1 (Windows)</xmp:CreatorTool>
         <xmpRights:Marked>True</xmpRights:Marked>
      </rdf:Description>
   </rdf:RDF>
</x:xmpmeta>
                                                                                                    
                                                                                                    
                                                                                                    
                                                                                                    
                                                                                                    
                                                                                                    
                                                                                                    
                                                                                                    
                                                                                                    
                                                                                                    
                                                                                                    
                                                                                                    
                                                                                                    
                                                                                                    
                                                                                                    
                                                                                                    
                                                                                                    
                                                                                                    
                                                                                                    
                                                                                                    
                           
<?xpacket end="w"?></metadata>
<defs>
    <style>
      .cls-1 {
        fill: #b97b56;
      }

      .cls-1, .cls-10, .cls-2, .cls-3, .cls-4, .cls-5, .cls-6, .cls-7, .cls-8, .cls-9 {
        fill-rule: evenodd;
      }

      .cls-2 {
        fill: #dbb128;
      }

      .cls-3 {
        fill: #dbb129;
      }

      .cls-4 {
        fill: #00a500;
      }

      .cls-5 {
        fill: #db6521;
      }

      .cls-6 {
        fill: #ff7f26;
      }

      .cls-7 {
        fill: #b72025;
      }

      .cls-8 {
        fill: #b80f0a;
      }

      .cls-9 {
        fill: #6784d4;
      }

      .cls-10 {
        fill: #1a357a;
      }
    </style>
  </defs>
  <path class="cls-1" d="M537.207,402.373c-10.582-43.355-17.378-54.535-21.264-56.087-1.057-.448-1.95.015-3.687,1.156a18.641,18.641,0,0,1-2,1.142,7.515,7.515,0,0,0-.315,1.124v0.017c8.65,16.353,27.119,53.325,27.119,58.946,0,1.751.066-1.06,0.148-6.3v0Zm19.974,75.193c-3.307,6.615-10.336,30.176-10.336,30.176s0.249-.082.728-0.232c7.507-31.7,68.722-67.94,73.138-70.5l66.919-52.581a4.841,4.841,0,0,0,1.836-3.208l-0.827.032s-128.15,89.7-131.458,96.314v0Zm95.258-123.9a6.116,6.116,0,0,0-3.455-1.009c-3.043,0-6.234,1.6-6.384,3.175a40.793,40.793,0,0,1-2.809,10.483C640.236,365.567,647.428,353.662,652.439,353.662ZM423.523,408.675c0-5.622,18.471-42.594,27.119-58.946v-0.016a7.392,7.392,0,0,0-.314-1.125,18.276,18.276,0,0,1-2-1.141c-1.736-1.141-2.629-1.6-3.687-1.157-3.886,1.553-10.682,12.732-21.266,56.087,0.084,5.241.149,8.052,0.149,6.3v0ZM320.787,366.311a40.8,40.8,0,0,1-2.811-10.483c-0.148-1.571-3.34-3.175-6.382-3.175a6.117,6.117,0,0,0-3.456,1.009c5.01,0,12.2,11.905,12.649,12.649h0Zm0,0c-0.446-.744-7.639-12.649-12.649-12.649a4.824,4.824,0,0,0-1.356,1.422,4.425,4.425,0,0,0-.579,3.043l29.748,53.109a42.959,42.959,0,0,0,7.524,2.646c0.5,0.132,1.009.264,1.537,0.381,0.5,0.116,1.009.232,1.522,0.348,1.554,0.346,3.191.66,4.928,0.941-12.733-16.253-25.184-35.219-30.657-49.208a0.065,0.065,0,0,0-.018-0.033h0Zm47.654,15.561s-6.02-10.6-8.615-8.02a3.909,3.909,0,0,0-.844,2.432,3.257,3.257,0,0,0,.05.661l11.674,40.561c1.372,0.066,2.745.114,4.1,0.148,0.628,0.016,1.256.034,1.868,0.034,0.414,0.016.811,0.016,1.208,0.016v-0.016l-9.376-35.915A0.408,0.408,0,0,1,368.441,381.872ZM403.4,477.566c-3.307-6.614-131.458-96.318-131.458-96.318l-0.827-.033a4.843,4.843,0,0,0,1.836,3.208l66.918,52.582c4.416,2.564,65.631,38.807,73.139,70.5,0.479,0.15.727,0.233,0.727,0.233s-7.028-23.562-10.335-30.177h0ZM282.274,355.711c3.092-.744,31.749,31.417,33.336,32.987l-3.241-4.662c-8.267-10.119-15.427-19.164-20.19-25.233a10.28,10.28,0,0,0-10.533-3.158A0.788,0.788,0,0,0,282.274,355.711Zm86.167,26.161a0.447,0.447,0,0,0,.066-0.1l-1.687-6.466a4,4,0,0,0-3.869-2.976,3.957,3.957,0,0,0-3.125,1.521c2.595-2.579,8.615,8.02,8.615,8.02h0Zm-45.8,19.907c-4.613-3.539-41.636-32.343-42.017-45.325v-0.033a2,2,0,0,0-.215.777c-0.066,2.414.2,6.9,2.7,9.739l16.469,18.718c7.292,5.357,16.288,11.905,23.531,17.048h0.016l-0.463-.91a0.016,0.016,0,0,0-.017-0.016v0Zm42.925,15.429c0.282,0.015.563,0.049,0.844,0.049,0.595,0.051,1.206.1,1.819,0.116,0.827,0.049,1.654.1,2.48,0.133l-11.674-40.561Zm182.01,90.311c-0.478.149-.728,0.232-0.728,0.232s7.029-23.562,10.336-30.176S688.64,381.256,688.64,381.256l0.828-.033a4.18,4.18,0,0,0,.048-0.661,4.922,4.922,0,0,0-7.837-3.984l-1.77,1.306c-3.951,2.926-9.608,7.109-15.758,11.624-10.236,7.506-23.877,17.427-31.467,22.553-0.182.116-.365,0.247-0.547,0.364-0.513.331-.975,0.645-1.388,0.926-0.646.43-1.208,0.777-1.687,1.074-0.331.215-.612,0.382-0.876,0.529-0.133.083-.265,0.15-0.382,0.216a27.162,27.162,0,0,1-2.992,1.4,53.271,53.271,0,0,1-6.449,2.1,113.677,113.677,0,0,1-14.782,2.679c-1.026.132-2.083,0.248-3.126,0.362-0.4.034-.793,0.085-1.173,0.1l-1.7.149-0.215.017c-1.208.1-2.432,0.2-3.639,0.281-4.018.264-8.069,0.4-12.053,0.4-0.762,0-1.556-.016-2.332-0.065-0.661-.034-1.339-0.083-2.018-0.15-0.314-.016-0.644-0.049-0.975-0.082-17.081-1.769-35.452-11.245-36.262-11.673l-1.009-.53-0.266-1.108c-0.544-2.315-1.075-4.531-1.6-6.68-0.082,5.241-.148,8.052-0.148,6.3,0-5.622-18.47-42.594-27.119-58.946-1.439,7.937,1.737,39.634,3.324,55.489,0.926,9.36,1.67,16.768,1.67,19.462,0,6.762-6.051,14.717-11.129,20.19a8.847,8.847,0,0,0-1.967,3.471l1.967,2.233,20.472,312.553a372.525,372.525,0,0,0,41.154-6.974c-6.446-74.573-18.6-218.384-18.6-242.483a27.286,27.286,0,0,1,.744-6.151v0Zm-45.74-59.175a9.289,9.289,0,0,0-.38,2.613V765.031c7.673-.395,15.277-1.046,22.82-1.9L503.8,450.581l-1.968-2.233v0Zm-43.092,0a8.846,8.846,0,0,0-1.968-3.472c-5.075-5.473-11.128-13.427-11.128-20.189,0-2.695.744-10.1,1.67-19.462,1.588-15.857,4.763-47.555,3.324-55.489-8.649,16.353-27.119,53.325-27.119,58.946,0,1.751-.066-1.06-0.149-6.3-0.529,2.149-1.058,4.364-1.6,6.68l-0.264,1.108-1.009.529c-0.811.428-19.182,9.905-36.263,11.673-0.33.034-.662,0.066-0.975,0.083-0.679.067-1.356,0.116-2.018,0.149-0.776.049-1.571,0.066-2.331,0.066-3.986,0-8.037-.133-12.054-0.4-1.208-.082-2.432-0.181-3.639-0.28L363,421.972l-1.7-.15c-0.381-.014-0.778-0.065-1.175-0.1-1.041-.114-2.1-0.23-3.124-0.363a113.63,113.63,0,0,1-14.784-2.678,53.446,53.446,0,0,1-6.449-2.1,26.986,26.986,0,0,1-2.993-1.406c-0.116-.065-0.248-0.133-0.38-0.215-0.264-.148-0.545-0.314-0.877-0.529-0.479-.3-1.041-0.644-1.686-1.075-0.414-.28-0.876-0.6-1.389-0.926-0.181-.116-0.364-0.247-0.545-0.363-7.59-5.126-21.233-15.048-31.468-22.554-6.151-4.514-11.806-8.7-15.758-11.624l-1.769-1.306a4.927,4.927,0,0,0-5.457-.248,4.877,4.877,0,0,0-2.382,4.232,4.3,4.3,0,0,0,.05.662l0.827,0.033s128.151,89.7,131.459,96.318,10.334,30.176,10.334,30.176-0.248-.082-0.727-0.232a27.354,27.354,0,0,1,.745,6.152c0,24.017-12.071,166.925-18.534,241.713a372.079,372.079,0,0,0,41.113,7.367l20.446-312.179,1.966-2.233h0Zm0,0-1.968,2.233L436.328,762.755q11.3,1.375,22.794,2.063V450.955a9.246,9.246,0,0,0-.38-2.612h0ZM653.8,355.087a4.8,4.8,0,0,0-1.355-1.423c-5.011,0-12.2,11.905-12.649,12.649a0.051,0.051,0,0,0-.017.033c-5.475,13.989-17.925,32.955-30.658,49.208,1.737-.28,3.374-0.595,4.928-0.941,0.513-.116,1.025-0.232,1.522-0.348,0.529-.116,1.04-0.249,1.536-0.38a42.9,42.9,0,0,0,7.524-2.646l29.749-53.11a4.425,4.425,0,0,0-.58-3.043h0Zm26.171,1.367v-0.033a1.438,1.438,0,0,0-.794-0.711,1.241,1.241,0,0,0-.232-0.066,0.785,0.785,0,0,1-.629.066c-3.092-.744-31.747,31.417-33.335,32.988l3.24-4.663c-1.041,1.29-2.115,2.6-3.208,3.918l-0.032.05-7.028,13.774c4.614-3.539,41.638-32.342,42.018-45.324h0Zm-1.672-.743a0.789,0.789,0,0,0,.629-0.066A10.279,10.279,0,0,0,668.4,358.8c-4.763,6.069-11.922,15.114-20.191,25.233l-3.24,4.662c1.587-1.57,30.242-33.731,33.334-32.987h0ZM600.757,373.85a3.991,3.991,0,0,0-7,1.455l-1.686,6.466a0.392,0.392,0,0,0,.065.1s6.02-10.6,8.616-8.02h0Zm79.217-17.426v0.032c-0.38,12.981-37.4,41.784-42.018,45.325a0.016,0.016,0,0,0-.016.017l-0.463.91h0.017c7.242-5.144,16.237-11.692,23.529-17.049l16.471-18.718c2.5-2.844,2.761-7.324,2.695-9.738a2.012,2.012,0,0,0-.215-0.778h0Zm-25.643,2.032a1.127,1.127,0,0,0,.067-0.331l-29.749,53.11c0.266-.148.53-0.281,0.778-0.414,0.1-.048.214-0.114,0.33-0.181,0.2-.116.413-0.247,0.662-0.4,0.644-.4,1.454-0.926,2.447-1.587l24.8-48.514c0.332-.759.548-1.338,0.662-1.685h0Zm-61.975,58.915c0.611-.017,1.224-0.066,1.819-0.116,0.28,0,.561-0.034.842-0.049l6.532-40.263L589.876,417.5c0.827-.034,1.652-0.085,2.48-0.133h0ZM322.639,401.779l-7.028-13.774-0.033-.05c-1.091-1.322-2.166-2.629-3.208-3.918l3.241,4.662c-1.587-1.57-30.244-33.731-33.336-32.987a0.787,0.787,0,0,1-.628-0.067,1.351,1.351,0,0,0-.232.067,1.444,1.444,0,0,0-.794.711v0.033c0.381,12.98,37.4,41.784,42.018,45.325v0Zm269.5-19.907a0.376,0.376,0,0,1-.066-0.1L582.7,417.687V417.7c0.4,0,.793,0,1.2-0.017,0.612,0,1.241-.017,1.87-0.034,1.355-.033,2.727-0.082,4.1-0.148l11.673-40.56a3.2,3.2,0,0,0,.051-0.662,3.909,3.909,0,0,0-.844-2.431c-2.6-2.579-8.615,8.02-8.615,8.02h0Zm0.22,35.5c0.611-.017,1.224-0.066,1.819-0.116,0.28,0,.561-0.034.842-0.049l6.532-40.263L589.876,417.5c0.827-.034,1.652-0.085,2.48-0.133h0Z"/>
  <path id="Leaf_Yellow" data-name="Leaf Yellow" class="cls-2" d="M456.305,279.827c1.6-4.3-1.286-4.385-4.4-2.686-2.239,1.892-2.374-.771-1.67-2.447,2.268-2.1-.541-2.652.492-4.442,0.711-2.447-.133-4.134-0.937-6.569-3.708,2.027-1.437-2.583-2-4.773-1.957.17-1.989-1.333-1.489-2.994-1.315-2.171-1.4-5.223-1.022-8.477-1.549-1.02-3.719,2.677-4.427,4.117-2.142-.291-1.974,3.064-3.935,4.4-1.283-1.8-2.692-.056-2.918,1.433-1.2,2.457-.642,5.412-2.286,7.883-1.45.418-.9-4.323-2.357-4.724-0.668-2.88-2.165-5.3-2.745-8.355-1.972.552-2.524-6.911-5.172-3.051-1.16,2.75-2.564,1.315-3.044-.812-1.657.211-1.667-1.921-2.965-2.283-1.436-3.3-3.185,1.528-4.376-.386-1.484,1.744-4.452-3.877-5.31-.3-1.086-2.216-3.237-2.933-4.868-4.964-0.653-2.022-8.051-7.193-5.854-2.543,1.82,2.041,1.9,4.7,3.225,6.783a5.468,5.468,0,0,0,1.3,4.6c-3.465.467,1.233,3.866-.652,4.55-3.892.46-.242,2.745-0.221,4.684,2.131,3.194-1.189,2.767-3.541,2.662-1.614,1.718,1.286,4.456,1.959,6.356-1.816,1.011-.151,2.344.742,3.356,2.705,1.23-.48,1.831.484,3.332,3.145,2.524,4.292,4.068,7.387,6.341,2.984,1.88,1.594,3.215-1.276,2.016-2.806-.361-5.424-1.46-8.493-1.283,0.215,2.406-1.5,2.393-3.6,2.438-0.952,1.2-4.821.4-3.923,2.642-2.927.925-4.341,2.544-7.647,3.255,0.588,2.349,4.561,2.287,6.55,3.306,0.365,2.1,6.585,1.582,3.942,4.678,2.4,1.31,4.477,1.629,6.33,2.873,4.135-.8-0.079,1.59.52,3.215,3.222,1.092,6.062,3.218,9.414,2.373,1.057,2.048,5.629-.669,5.918.419-0.928,1.814-5.4,4.829-1.123,5.668,3.078-.356,4.358,1.533,7.49.887,1.4,1.867,4.34.071,6.4-.546,2.013-2.617,1.337.723,3.147,0.928h0a4.305,4.305,0,0,0,1.356-.415c2.293-1.317,3.385-3.976,5.518-5.5,1.249-3.618,2.153-7.5,1.236-11.308,0.062,0.057.121,0.117,0.183,0.176a0.8,0.8,0,0,1,.8-0.555,0.964,0.964,0,0,1,.241.03,0.989,0.989,0,0,1,.239-0.03,0.8,0.8,0,0,1,.687.34,0.856,0.856,0,0,1,.414.237l0.105,0.106c3.255,0.557,6.371,1.7,9.546.033,2.559-.12,1.868-2.566,2.261-3.413,0.888-1.985,4.184-4.283,3.471-6.442C455.343,284.693,457.323,282.276,456.305,279.827Z"/>
  <path id="Leaf_Yellow-2" data-name="Leaf Yellow" class="cls-3" d="M640.051,125.105c4.363-1.409,2.64-3.73-.622-5.114-2.873-.581-0.869-2.34.881-2.829,3.051,0.479,1.744-2.07,3.788-2.371,2.36-.961,3.159-2.67,4.57-4.811-3.891-1.65,1.134-2.73,2.5-4.532-1.347-1.43-.188-2.387,1.424-3.026,0.886-2.379,3.223-4.343,6.012-6.063-0.161-1.847-4.407-1.255-5.976-.916-1.1-1.86-3.627.354-5.895-.352,0.614-2.122-1.626-2.146-2.934-1.4-2.672.584-4.642,2.855-7.6,3.1-1.228-.877,2.832-3.386,2.24-4.78,1.844-2.311,2.817-4.99,4.848-7.339-1.657-1.2,3.852-6.267-.818-5.949-2.876.8-2.622-1.194-1.252-2.89-1.194-1.168.471-2.5-.051-3.742,1.7-3.176-3.175-1.549-2.413-3.671-2.289-.081.276-5.9-3.063-4.348,1.063-2.227.29-4.358,0.871-6.9,1.18-1.766.643-10.776-1.64-6.168-0.47,2.694-2.506,4.412-3.317,6.739a5.469,5.469,0,0,0-2.8,3.872c-2.517-2.427-2.265,3.366-3.972,2.312-2.776-2.766-2.3,1.515-3.809,2.734-1.182,3.654-2.908.786-4.286-1.124-2.348-.2-2.7,3.775-3.768,5.482-1.919-.8-1.93,1.337-2.17,2.665,0.715,2.884-1.734.76-2.312,2.447-0.027,4.033-.525,5.891-0.387,9.728,0.377,3.507-1.532,3.245-2.373.251-1.459-2.424-2.222-5.159-4.265-7.456-1.753,1.662-2.811.306-4.145-1.308-1.529,0-3.3-3.533-4.506-1.435-2.542-1.721-4.69-1.826-7.3-3.976-1.476,1.918,1.038,4.995,1.473,7.187-1.418,1.588,2.847,6.145-1.22,5.995,0.465,2.7,1.5,4.521,1.676,6.746,3.189,2.749-1.3.925-2.2,2.4,1.143,3.2,1.238,6.75,3.981,8.854-0.949,2.1,4.019,4,3.345,4.9-2,.4-7.138-1.237-5.141,2.638,2.19,2.192,1.5,4.368,3.953,6.423-0.6,2.254,2.639,3.447,4.4,4.678,3.3-.047.262,1.5,1.225,3.043h0a4.3,4.3,0,0,0,1.168.806c2.456,0.981,5.218.187,7.735,0.915,3.611-1.266,7.215-2.965,9.633-6.049-0.007.084-.017,0.168-0.024,0.252a0.8,0.8,0,0,1,.928.279,0.979,0.979,0,0,1,.126.208,1,1,0,0,1,.172.168,0.8,0.8,0,0,1,.16.751,0.847,0.847,0,0,1,.071.471l-0.018.148c1.584,2.9,2.621,6.052,5.9,7.5,1.682,1.933,3.171-.127,4.079-0.345,2.107-.536,5.955.623,7.205-1.277C635.639,127.37,638.762,127.423,640.051,125.105Z"/>
  <path id="Leaf_Yellow-3" data-name="Leaf Yellow" class="cls-4" d="M378.624,112.034c2.8-3.631.065-4.57-3.408-3.864-2.7,1.147-2.04-1.438-.873-2.831,2.786-1.332.266-2.694,1.781-4.1,1.4-2.128,1.093-3.989,1.044-6.553-4.141.843-.611-2.892-0.5-5.151-1.92-.415-1.506-1.861-0.539-3.3-0.615-2.462.2-5.4,1.526-8.4-1.179-1.431-4.344,1.46-5.446,2.627-1.96-.91-2.79,2.345-5.059,3.046-0.695-2.1-2.555-.849-3.211.508-1.872,1.993-2.21,4.981-4.51,6.857-1.509-.028.419-4.394-0.858-5.209,0.212-2.949-.5-5.708-0.157-8.794-2.047-.054-0.372-7.347-4.041-4.442-1.92,2.285-2.837.5-2.668-1.674-1.646-.287-1.026-2.327-2.16-3.056-0.4-3.58-3.494.52-4.067-1.661-1.933,1.229-3.11-5.017-4.986-1.851-0.384-2.438-2.227-3.757-3.186-6.18-0.027-2.124-5.569-9.248-4.843-4.157,1.137,2.487.431,5.055,1.08,7.433a5.469,5.469,0,0,0-.116,4.777c-3.449-.577.037,4.057-1.967,4.155-3.853-.709-1.04,2.552-1.593,4.41,1.094,3.681-1.952,2.294-4.169,1.5-2.048,1.166-.085,4.637,0,6.652-2.033.43-.835,2.195-0.281,3.425,2.222,1.973-1,1.607-.521,3.326,2.26,3.34,2.9,5.153,5.187,8.239,2.3,2.678.574,3.542-1.815,1.55-2.574-1.173-4.751-3-7.736-3.733-0.5,2.362-2.143,1.843-4.157,1.267-1.263.862-4.724-1.041-4.528,1.367-3.069.02-4.9,1.149-8.267,0.853-0.131,2.417,3.683,3.53,5.283,5.092-0.271,2.111,5.824,3.454,2.386,5.633,1.911,1.961,3.8,2.877,5.2,4.613,4.185,0.461-.546,1.5-0.452,3.225,2.756,1.994,4.842,4.864,8.293,5.046,0.406,2.269,5.577,1.022,5.531,2.147-1.421,1.459-6.584,3.02-2.745,5.084,3.046,0.568,3.711,2.751,6.894,3.057,0.785,2.2,4.127,1.349,6.275,1.367,2.695-1.906,1.064,1.085,2.733,1.816h0a4.325,4.325,0,0,0,1.418,0c2.58-.582,4.408-2.8,6.895-3.624,2.261-3.088,4.27-6.528,4.518-10.439,0.043,0.073.082,0.148,0.123,0.221a0.8,0.8,0,0,1,.924-0.3,0.975,0.975,0,0,1,.221.1,0.955,0.955,0,0,1,.237.042,0.8,0.8,0,0,1,.556.528,0.849,0.849,0,0,1,.326.348l0.069,0.132c2.945,1.493,5.585,3.506,9.111,2.849,2.481,0.641,2.543-1.9,3.167-2.594,1.435-1.635,5.262-2.857,5.218-5.13C376.269,116.4,378.873,114.674,378.624,112.034Z"/>
  <path id="Leaf_Yellow-4" data-name="Leaf Yellow" class="cls-2" d="M630.284,237.182c4.281-1.642,2.436-3.867-.9-5.074-2.9-.426-0.993-2.289.728-2.872,3.073,0.314,1.631-2.16,3.656-2.571,2.3-1.086,3.01-2.836,4.3-5.05-3.974-1.438.985-2.787,2.252-4.66-1.423-1.355-.317-2.373,1.259-3.1,0.757-2.422,2.985-4.509,5.678-6.376-0.261-1.836-4.469-1.016-6.017-.594-1.2-1.8-3.6.549-5.905-.034,0.5-2.153-1.74-2.056-3.006-1.239-2.636.726-4.481,3.1-7.421,3.5-1.274-.81,2.646-3.533,1.98-4.893,1.717-2.407,2.544-5.135,4.447-7.589-1.72-1.112,3.509-6.465-1.137-5.9-2.83.951-2.682-1.051-1.406-2.819-1.255-1.1.336-2.521-.252-3.734,1.525-3.263-3.254-1.376-2.606-3.536-2.291.043-.042-5.9-3.293-4.177,0.942-2.28.056-4.367,0.5-6.934,1.084-1.828.063-10.8-1.969-6.071-0.325,2.714-2.266,4.54-2.95,6.907a5.468,5.468,0,0,0-2.587,4.017c-2.643-2.288-2.081,3.483-3.842,2.523-2.921-2.612-2.218,1.636-3.657,2.934-0.983,3.713-2.861.941-4.339-.892-2.356-.072-2.489,3.914-3.468,5.676-1.96-.692-1.856,1.439-2.025,2.778,0.87,2.842-1.689.852-2.177,2.568,0.19,4.028-.207,5.91.137,9.734,0.566,3.482-1.355,3.323-2.356.378-1.587-2.342-2.5-5.032-4.66-7.215-1.661,1.753-2.79.457-4.208-1.084-1.528.079-3.491-3.349-4.578-1.19-2.63-1.583-4.78-1.571-7.5-3.579-1.37,2,1.305,4.932,1.858,7.1-1.331,1.662,3.173,5.983-.9,6.052,0.61,2.67,1.742,4.434,2.037,6.646,3.332,2.573-1.245.994-2.066,2.518,1.314,3.138,1.6,6.674,4.451,8.627-0.835,2.148,4.228,3.777,3.6,4.713-1.973.506-7.194-.851-4.992,2.911,2.305,2.071,1.736,4.281,4.293,6.2-0.474,2.283,2.82,3.3,4.644,4.435,3.294-.224.343,1.48,1.388,2.973h0a4.283,4.283,0,0,0,1.209.742c2.5,0.847,5.221-.094,7.773.5,3.538-1.459,7.046-3.349,9.294-6.559,0,0.085-.007.169-0.011,0.254a0.8,0.8,0,0,1,.943.229,0.99,0.99,0,0,1,.137.2,0.974,0.974,0,0,1,.18.159,0.8,0.8,0,0,1,.2.74,0.845,0.845,0,0,1,.1.467l-0.009.15c1.737,2.808,2.942,5.9,6.294,7.177,1.783,1.839,3.16-.3,4.055-0.565,2.075-.648,5.979.3,7.126-1.662C626,239.681,629.122,239.565,630.284,237.182Z"/>
  <path id="Leaf_Yellow-5" data-name="Leaf Yellow" class="cls-5" d="M709.526,429.959c2.042,4.105,4.081,2.056,4.966-1.376,0.147-2.927,2.184-1.207,2.927.452-0.02,3.088,2.306,1.417,2.908,3.394,1.3,2.19,3.11,2.727,5.437,3.8,1.053-4.093,2.868.715,4.853,1.8,1.213-1.545,2.332-.542,3.2.958,2.484,0.523,4.773,2.543,6.889,5.045,1.8-.434.585-4.545,0.018-6.046,1.676-1.365-.889-3.534-0.528-5.882,2.19,0.292,1.881-1.927.947-3.109-0.974-2.555-3.513-4.166-4.2-7.054,0.685-1.345,3.769,2.3,5.06,1.5,2.559,1.48,5.353,2.044,7.977,3.7,0.944-1.818,6.771,2.877,5.761-1.693-1.215-2.726.791-2.77,2.672-1.668,0.979-1.354,2.542.1,3.694-.606,3.393,1.207,1.06-3.37,3.271-2.932-0.26-2.276,5.872-.6,3.845-3.675,2.36,0.721,4.353-.36,6.95-0.163,1.923,0.9,10.753-.966,5.856-2.538-2.733-.065-4.735-1.823-7.157-2.279a5.467,5.467,0,0,0-4.245-2.193c2.027-2.849-3.665-1.74-2.877-3.585,2.323-3.156-1.839-2.051-3.269-3.36-3.789-.626-1.209-2.759.475-4.4-0.153-2.352-4.133-2.1-5.98-2.912,0.5-2.017-1.609-1.71-2.958-1.75-2.746,1.135-1.009-1.6-2.763-1.923-3.992.572-5.9,0.356-9.678,1.063-3.412.894-3.437-1.033-.6-2.31,2.18-1.8,4.771-2.964,6.739-5.325-1.9-1.487-.721-2.734.677-4.293-0.223-1.513,3-3.794.75-4.67,1.325-2.769,1.109-4.909,2.848-7.808-2.117-1.175-4.785,1.768-6.889,2.525-1.781-1.167-5.654,3.728-6.109-.317-2.6.861-4.248,2.156-6.423,2.66-2.244,3.562-1.107-1.145-2.7-1.816-3,1.606-6.491,2.227-8.164,5.252-2.218-.627-3.358,4.568-4.349,4.036-0.691-1.916.163-7.243-3.372-4.692-1.842,2.491-4.1,2.135-5.764,4.864-2.319-.255-3.017,3.121-3.973,5.045,0.537,3.257-1.441.482-2.828,1.664h0a4.3,4.3,0,0,0-.623,1.274c-0.605,2.575.591,5.188,0.244,7.786,1.789,3.383,4,6.694,7.414,8.627-0.084.006-.169,0.009-0.253,0.013a0.8,0.8,0,0,1-.138.96,0.981,0.981,0,0,0-.328.35,0.8,0.8,0,0,1-.718.27,0.846,0.846,0,0,1-.456.14l-0.149.005c-2.63,2-5.6,3.49-6.546,6.949-1.66,1.95.6,3.117,0.948,3.982,0.844,2,.269,5.982,2.333,6.936C706.631,425.932,707.043,429.028,709.526,429.959Z"/>
  <path id="Leaf_Green" data-name="Leaf Green" class="cls-4" d="M748.244,341.908c4.148,1.954,4.477-.918,3.042-4.158-1.7-2.388.965-2.3,2.577-1.462,1.9,2.435,2.688-.318,4.386.859,2.379,0.912,4.131.211,6.624-.388-1.712-3.863,2.693-1.217,4.922-1.6-0.006-1.965,1.494-1.871,3.108-1.236,2.273-1.13,5.321-.965,8.532-0.314,1.145-1.459-2.359-3.929-3.735-4.754,0.468-2.11-2.89-2.221-4.062-4.287,1.9-1.129.28-2.678-1.185-3.027-2.349-1.4-5.34-1.089-7.666-2.932-0.3-1.479,4.382-.535,4.9-1.957,2.925-.426,5.466-1.716,8.555-2.042-0.388-2.011,7.1-1.941,3.469-4.9-2.644-1.384-1.1-2.663,1.062-2.965-0.073-1.669,2.052-1.5,2.521-2.766,3.411-1.157-1.259-3.3.748-4.329-1.615-1.624,4.232-4.115.737-5.267,2.3-.9,3.191-2.982,5.351-4.439,2.069-.482,7.836-7.426,3.019-5.623-2.184,1.644-4.844,1.507-7.027,2.651a5.466,5.466,0,0,0-4.69.913c-0.178-3.492-3.955.908-4.48-1.028-0.136-3.916-2.716-.468-4.649-0.609-3.36,1.86-2.66-1.414-2.359-3.75-1.579-1.75-4.547.913-6.5,1.425-0.857-1.893-2.323-.344-3.407.461-1.449,2.594-1.784-.63-3.36.206-2.776,2.925-4.409,3.94-6.932,6.836-2.122,2.817-3.336,1.321-1.9-1.44,0.592-2.766,1.905-5.284,1.983-8.357-2.415.015-2.26-1.7-2.13-3.787-1.114-1.049,0-4.838-2.308-4.129-0.679-2.993-2.175-4.538-2.609-7.891-2.389.391-2.657,4.355-3.838,6.253-2.121.189-2.123,6.431-4.989,3.54-1.5,2.289-2,4.327-3.388,6.07,0.448,4.186-1.579-.211-3.247.252-1.356,3.12-3.711,5.773-3.147,9.183-2.129.884,0.2,5.666-.909,5.863-1.73-1.074-4.364-5.782-5.555-1.589,0.1,3.1-1.89,4.216-1.5,7.39-1.977,1.238-.431,4.32.013,6.422,2.44,2.223-.832,1.272-1.187,3.059h0a4.327,4.327,0,0,0,.3,1.387c1.123,2.394,3.682,3.7,5.021,5.955,3.5,1.545,7.293,2.768,11.166,2.17-0.062.057-.127,0.111-0.19,0.168a0.8,0.8,0,0,1,.486.838,0.912,0.912,0,0,1-.05.238,0.942,0.942,0,0,1,.011.24,0.8,0.8,0,0,1-.4.657,0.862,0.862,0,0,1-.271.393l-0.114.1c-0.825,3.2-2.224,6.208-.825,9.511-0.093,2.559,2.4,2.074,3.214,2.535,1.9,1.05,3.92,4.526,6.131,3.994C743.475,340.545,745.719,342.718,748.244,341.908Z"/>
  <path id="Leaf_Green-2" data-name="Leaf Green" class="cls-4" d="M349.305,309.827c1.6-4.3-1.286-4.385-4.4-2.686-2.239,1.892-2.374-.771-1.67-2.447,2.268-2.1-.541-2.652.492-4.442,0.71-2.447-.133-4.134-0.937-6.569-3.708,2.027-1.437-2.583-2-4.773-1.957.17-1.989-1.333-1.489-2.994-1.315-2.171-1.4-5.223-1.022-8.477-1.549-1.02-3.719,2.677-4.427,4.117-2.142-.291-1.974,3.064-3.935,4.4-1.283-1.8-2.692-.056-2.918,1.433-1.2,2.457-.642,5.412-2.286,7.883-1.45.418-.9-4.323-2.357-4.724-0.668-2.88-2.165-5.305-2.745-8.355-1.972.552-2.524-6.911-5.172-3.051-1.16,2.75-2.563,1.315-3.044-.812-1.657.211-1.667-1.921-2.965-2.283-1.437-3.3-3.185,1.528-4.376-.386-1.484,1.744-4.452-3.877-5.31-.3-1.086-2.216-3.237-2.933-4.868-4.964-0.652-2.022-8.051-7.193-5.854-2.543,1.82,2.041,1.9,4.7,3.225,6.783a5.468,5.468,0,0,0,1.3,4.6c-3.465.467,1.233,3.866-.653,4.55-3.891.46-.241,2.746-0.22,4.684,2.131,3.194-1.189,2.767-3.542,2.662-1.613,1.718,1.287,4.456,1.96,6.356-1.816,1.011-.151,2.344.742,3.356,2.706,1.23-.48,1.831.484,3.332,3.145,2.524,4.292,4.067,7.387,6.341,2.984,1.881,1.594,3.215-1.276,2.016-2.806-.361-5.424-1.46-8.493-1.283,0.215,2.406-1.5,2.393-3.6,2.438-0.952,1.2-4.821.4-3.923,2.642-2.926.925-4.341,2.544-7.647,3.255,0.588,2.348,4.561,2.287,6.55,3.306,0.365,2.1,6.585,1.582,3.942,4.678,2.4,1.31,4.477,1.629,6.33,2.873,4.135-.8-0.079,1.59.52,3.215,3.222,1.092,6.062,3.218,9.414,2.373,1.057,2.048,5.629-.669,5.918.419-0.928,1.814-5.4,4.829-1.123,5.668,3.078-.356,4.358,1.533,7.49.887,1.4,1.867,4.341.071,6.4-.546,2.013-2.617,1.337.723,3.147,0.928h0a4.3,4.3,0,0,0,1.357-.415c2.293-1.317,3.385-3.976,5.518-5.5,1.249-3.618,2.153-7.5,1.236-11.308,0.062,0.057.121,0.117,0.183,0.176a0.8,0.8,0,0,1,.8-0.555,0.964,0.964,0,0,1,.241.03,0.94,0.94,0,0,1,.238-0.03,0.8,0.8,0,0,1,.688.34,0.856,0.856,0,0,1,.414.237l0.105,0.106c3.255,0.557,6.371,1.7,9.546.033,2.559-.12,1.868-2.566,2.261-3.413,0.888-1.985,4.184-4.283,3.471-6.442C348.343,314.692,350.323,312.276,349.305,309.827Z"/>
  <path id="Leaf_Green-3" data-name="Leaf Green" class="cls-6" d="M266.305,163.827c1.6-4.295-1.286-4.385-4.4-2.687-2.239,1.893-2.374-.77-1.67-2.446,2.268-2.095-.541-2.652.492-4.442,0.71-2.447-.133-4.134-0.937-6.57-3.708,2.028-1.437-2.582-2-4.772-1.957.17-1.989-1.333-1.489-2.994-1.315-2.171-1.4-5.223-1.022-8.477-1.549-1.02-3.719,2.677-4.428,4.117-2.141-.291-1.973,3.064-3.934,4.4-1.283-1.8-2.692-.057-2.918,1.432-1.2,2.457-.642,5.412-2.286,7.883-1.45.418-.9-4.323-2.357-4.724-0.668-2.88-2.165-5.3-2.745-8.356-1.972.553-2.524-6.91-5.172-3.051-1.16,2.751-2.564,1.316-3.044-.811-1.657.211-1.667-1.921-2.965-2.283-1.437-3.3-3.185,1.528-4.376-.386-1.484,1.744-4.452-3.877-5.31-.3-1.086-2.216-3.237-2.933-4.868-4.964-0.652-2.022-8.051-7.193-5.854-2.543,1.82,2.041,1.9,4.7,3.225,6.783a5.468,5.468,0,0,0,1.3,4.6c-3.465.467,1.233,3.866-.653,4.55-3.891.46-.241,2.746-0.22,4.683,2.131,3.2-1.189,2.768-3.542,2.663-1.613,1.718,1.287,4.455,1.96,6.356-1.816,1.011-.151,2.344.742,3.357,2.7,1.229-.48,1.83.484,3.331,3.145,2.524,4.292,4.067,7.387,6.341,2.984,1.881,1.594,3.215-1.276,2.016-2.806-.361-5.424-1.46-8.493-1.283,0.215,2.406-1.5,2.394-3.6,2.438-0.952,1.2-4.821.4-3.923,2.642-2.927.925-4.341,2.544-7.647,3.255,0.588,2.348,4.56,2.286,6.55,3.306,0.365,2.1,6.585,1.582,3.942,4.678,2.405,1.31,4.477,1.629,6.33,2.873,4.135-.8-0.079,1.59.521,3.214,3.221,1.093,6.061,3.219,9.413,2.374,1.057,2.048,5.629-.669,5.918.419-0.928,1.814-5.4,4.829-1.123,5.668,3.078-.356,4.358,1.533,7.49.887,1.4,1.867,4.341.07,6.4-.546,2.013-2.617,1.337.723,3.147,0.928h0a4.3,4.3,0,0,0,1.357-.415c2.293-1.317,3.385-3.976,5.518-5.5,1.249-3.618,2.153-7.5,1.236-11.308,0.062,0.057.121,0.118,0.183,0.176a0.8,0.8,0,0,1,.795-0.555,0.964,0.964,0,0,1,.241.03,0.94,0.94,0,0,1,.238-0.03,0.8,0.8,0,0,1,.688.34,0.856,0.856,0,0,1,.414.237l0.1,0.106c3.255,0.557,6.371,1.7,9.546.033,2.559-.12,1.868-2.566,2.261-3.413,0.888-1.986,4.184-4.283,3.471-6.442C265.343,168.692,267.323,166.276,266.305,163.827Z"/>
  <path id="Leaf_Red" data-name="Leaf Red" class="cls-7" d="M727.531,195.486c4.582-.156,3.563-2.861.807-5.089-2.6-1.348-.192-2.488,1.625-2.477,2.8,1.3,2.246-1.511,4.294-1.239,2.533-.276,3.771-1.7,5.716-3.371-3.288-2.654,1.84-2.313,3.648-3.67-0.9-1.745.475-2.347,2.2-2.519,1.506-2.043,4.293-3.289,7.447-4.177,0.352-1.82-3.893-2.417-5.494-2.523-0.547-2.091-3.585-.656-5.571-1.958,1.173-1.872-.974-2.51-2.437-2.151-2.729-.173-5.248,1.47-8.159.893-0.94-1.181,3.654-2.478,3.468-3.981,2.408-1.715,4.079-4.024,6.678-5.724-1.264-1.612,5.425-4.967.848-5.944-2.985-.024-2.194-1.868-0.411-3.123-0.827-1.452,1.141-2.274.98-3.612,2.506-2.587-2.627-2.362-1.311-4.192-2.179-.708,1.885-5.594-1.751-5.023,1.634-1.849,1.477-4.11,2.733-6.393,1.62-1.374,3.579-10.185.118-6.381-1.192,2.46-3.622,3.553-5.041,5.568a5.467,5.467,0,0,0-3.755,2.954c-1.753-3.025-3.1,2.614-4.455,1.132-1.909-3.422-2.63.824-4.414,1.582-2.14,3.188-3.011-.044-3.811-2.259-2.2-.836-3.628,2.889-5.129,4.235-1.627-1.293-2.224.755-2.82,1.966-0.105,2.97-1.875.255-2.895,1.718-1.134,3.87-2.123,5.519-3.045,9.247-0.6,3.476-2.364,2.7-2.351-.411-0.736-2.732-.718-5.571-2.052-8.341-2.142,1.116-2.786-.477-3.625-2.4-1.47-.424-2.208-4.305-3.939-2.618-1.971-2.354-4.007-3.044-5.925-5.829-1.947,1.439-.375,5.088-0.558,7.316-1.8,1.137,1.048,6.69-2.822,5.428-0.293,2.723.2,4.76-.242,6.947,2.312,3.519-1.5.533-2.773,1.707,0.219,3.4-.664,6.83,1.395,9.607-1.49,1.758,2.765,4.949,1.87,5.63-2.031-.165-6.524-3.15-5.668,1.124,1.5,2.71.244,4.613,2.036,7.262-1.193,2,1.59,4.04,2.944,5.707,3.187,0.862-.158,1.511.342,3.263h0a4.306,4.306,0,0,0,.9,1.1c2.092,1.618,4.967,1.613,7.186,3,3.821-.225,7.753-0.869,10.925-3.17-0.029.079-.062,0.157-0.092,0.236a0.8,0.8,0,0,1,.815.524,0.955,0.955,0,0,0,.183.443,0.8,0.8,0,0,1-.052.766,0.853,0.853,0,0,1-.061.472l-0.058.138c0.726,3.221.857,6.539,3.61,8.838,1.086,2.32,3.084.748,4.017,0.788,2.174,0.064,5.555,2.235,7.278.752C722.666,196.451,725.655,197.36,727.531,195.486Z"/>
  <path id="Leaf_Red-2" data-name="Leaf Red" class="cls-7" d="M382.006,226.6c2.819-3.615.09-4.569-3.386-3.884-2.7,1.132-2.033-1.448-.858-2.835,2.793-1.317.281-2.692,1.8-4.089,1.413-2.12,1.115-3.983,1.081-6.547-4.146.819-.595-2.895-0.476-5.154-1.917-.426-1.5-1.869-0.52-3.3-0.6-2.466.23-5.4,1.573-8.392-1.171-1.438-4.352,1.435-5.46,2.6-1.956-.921-2.8,2.329-5.077,3.018-0.683-2.1-2.55-.863-3.213.489-1.883,1.983-2.239,4.969-4.549,6.832-1.509-.037.443-4.393-0.829-5.214,0.229-2.947-.47-5.71-0.107-8.794-2.047-.066-0.331-7.349-4.016-4.465-1.933,2.275-2.84.484-2.659-1.688-1.644-.3-1.013-2.333-2.143-3.069-0.377-3.582-3.5.5-4.057-1.683-1.94,1.218-3.082-5.035-4.976-1.879-0.37-2.44-2.2-3.77-3.151-6.2-0.014-2.124-5.517-9.279-4.819-4.184,1.122,2.493.4,5.058,1.037,7.439a5.467,5.467,0,0,0-.142,4.776c-3.446-.6.014,4.057-1.99,4.144-3.85-.731-1.055,2.545-1.618,4.4,1.073,3.687-1.965,2.283-4.177,1.475-2.055,1.154-.112,4.636-0.042,6.652-2.036.418-.847,2.19-0.3,3.423,2.21,1.986-1.008,1.6-.54,3.323,2.241,3.353,2.872,5.17,5.14,8.268,2.281,2.691.554,3.545-1.823,1.54-2.568-1.187-4.735-3.023-7.715-3.776-0.518,2.359-2.154,1.831-4.164,1.243-1.268.856-4.719-1.068-4.535,1.342-3.07,0-4.906,1.122-8.273.807-0.144,2.416,3.663,3.551,5.254,5.121-0.282,2.11,5.806,3.488,2.355,5.646,1.9,1.972,3.78,2.9,5.174,4.642,4.182,0.485-.554,1.494-0.47,3.223,2.745,2.01,4.814,4.891,8.265,5.093,0.393,2.271,5.57,1.054,5.518,2.178-1.429,1.451-6.6,2.983-2.774,5.069,3.043,0.584,3.7,2.771,6.878,3.1,0.772,2.2,4.118,1.372,6.266,1.4,2.706-1.891,1.058,1.091,2.723,1.831h0a4.3,4.3,0,0,0,1.419.012c2.583-.567,4.423-2.775,6.915-3.585,2.278-3.075,4.307-6.5,4.576-10.414,0.042,0.073.081,0.149,0.122,0.222a0.8,0.8,0,0,1,.925-0.289,0.917,0.917,0,0,1,.221.1,0.944,0.944,0,0,1,.236.043,0.8,0.8,0,0,1,.554.53,0.859,0.859,0,0,1,.323.351l0.069,0.133c2.937,1.509,5.565,3.537,9.1,2.9,2.477,0.656,2.553-1.885,3.182-2.575,1.443-1.627,5.278-2.828,5.246-5.1C379.625,230.955,382.24,229.245,382.006,226.6Z"/>
  <path id="Leaf_Green-4" data-name="Leaf Green" class="cls-7" d="M506.641,105.221c3.462-3.006.968-4.467-2.576-4.463-2.871.591-1.715-1.812-.3-2.947,2.994-.755.794-2.587,2.557-3.666,1.794-1.808,1.86-3.694,2.32-6.217-4.226.006-.027-2.956,0.524-5.149-1.8-.787-1.108-2.122.125-3.342-0.116-2.535,1.265-5.258,3.158-7.933-0.873-1.636-4.547.572-5.858,1.5-1.741-1.28-3.2,1.747-5.562,1.985-0.266-2.193-2.337-1.338-3.248-.138-2.229,1.583-3.152,4.445-5.777,5.829-1.474-.326,1.28-4.225.189-5.276,0.791-2.848.637-5.694,1.587-8.651-2-.458,1.089-7.275-3.083-5.153-2.335,1.86-2.88-.071-2.285-2.169-1.556-.608-0.545-2.484-1.512-3.423,0.319-3.588-3.528-.182-3.658-2.433-2.138.822-2.055-5.534-4.521-2.8,0.106-2.465-1.44-4.124-1.9-6.688C477.219,42,473.2,33.918,472.9,39.052c0.622,2.663-.578,5.041-0.413,7.5a5.468,5.468,0,0,0-1.058,4.659c-3.267-1.248-.766,3.984-2.75,3.683-3.637-1.457-1.525,2.3-2.434,4.007,0.344,3.825-2.368,1.862-4.383.644-2.239.737-1,4.528-1.32,6.52-2.078.019-1.253,1.986-.954,3.3,1.788,2.374-1.3,1.378-1.168,3.157,1.554,3.721,1.824,5.626,3.454,9.1,1.721,3.079-.138,3.585-2.086,1.16-2.291-1.659-4.064-3.877-6.844-5.189-0.962,2.215-2.466,1.382-4.325.419-1.409.6-4.425-1.956-4.709,0.445-3.013-.588-5.03.157-8.273-0.8-0.607,2.343,2.911,4.189,4.171,6.036-0.683,2.016,5.026,4.539,1.224,5.994,1.486,2.3,3.152,3.572,4.184,5.551,4.012,1.28-.83,1.359-1.08,3.072,2.307,2.5,3.783,5.726,7.131,6.588-0.052,2.3,5.263,2.105,5,3.2-1.682,1.15-7.052,1.658-3.7,4.441,2.874,1.159,3.094,3.431,6.154,4.361,0.334,2.308,3.777,2.139,5.879,2.581,3.019-1.335.828,1.275,2.32,2.321h0a4.317,4.317,0,0,0,1.39.285c2.644-.06,4.874-1.873,7.476-2.188,2.826-2.58,5.477-5.555,6.494-9.34,0.027,0.08.05,0.162,0.076,0.242a0.8,0.8,0,0,1,.964-0.106,0.9,0.9,0,0,1,.2.141,1,1,0,0,1,.224.088,0.8,0.8,0,0,1,.441.627,0.856,0.856,0,0,1,.25.406l0.042,0.144c2.592,2.046,4.781,4.541,8.368,4.595,2.3,1.119,2.868-1.36,3.617-1.916,1.729-1.319,5.723-1.759,6.13-4C503.468,109.033,506.363,107.858,506.641,105.221Z"/>
  <path id="Leaf_Green-5" data-name="Leaf Green" class="cls-3" d="M234.307,373.478c-3.294-3.189-4.533-.577-4.222,2.953,0.837,2.809-1.657,1.866-2.911.55-1.011-2.917-2.647-.566-3.873-2.229-1.957-1.631-3.842-1.533-6.395-1.773,0.373,4.21-2.942.283-5.175-.076-0.628,1.861-2.018,1.288-3.34.166-2.516.335-5.348-.805-8.177-2.459-1.554,1.011.964,4.48,2,5.706-1.124,1.846,2.017,3.035,2.46,5.369-2.162.456-1.13,2.444,0.144,3.247,1.77,2.084,4.7,2.756,6.308,5.251-0.2,1.5-4.32-.909-5.273.269-2.906-.542-5.728-0.141-8.755-0.831-0.284,2.029-7.343-.454-4.867,3.518,2.056,2.164.178,2.875-1.962,2.464-0.471,1.6-2.428.758-3.28,1.8-3.6-.007.125,3.53-2.106,3.855,1,2.059-5.335,2.527-2.4,4.747-2.465.108-3.983,1.791-6.5,2.473-2.114-.212-9.814,4.5-4.674,4.346,2.6-.851,5.072.139,7.507-0.239a5.469,5.469,0,0,0,4.734.65c-0.96,3.363,4.036.418,3.908,2.42-1.137,3.751,2.419,1.321,4.2,2.078,3.781-.674,2.06,2.2,1.021,4.311,0.929,2.166,4.6.6,6.61,0.75,0.2,2.069,2.087,1.076,3.372.664,2.21-1.987,1.485,1.173,3.246.891,3.573-1.872,5.447-2.3,8.769-4.231,2.918-1.981,3.584-.173,1.337,1.978-1.455,2.426-3.51,4.385-4.577,7.268,2.29,0.766,1.591,2.337.793,4.273,0.715,1.352-1.565,4.578.851,4.652-0.325,3.053.592,5-.08,8.311,2.387,0.4,3.921-3.263,5.652-4.678,2.068,0.506,4.086-5.4,5.865-1.739,2.163-1.679,3.285-3.45,5.167-4.65,0.928-4.107,1.426.71,3.154,0.811,2.291-2.515,5.376-4.266,5.945-7.675,2.3-.149,1.641-5.427,2.753-5.256,1.291,1.576,2.263,6.882,4.745,3.3,0.906-2.964,3.149-3.38,3.811-6.508,2.271-.533,1.8-3.949,2.062-6.082-1.592-2.892,1.2-.935,2.111-2.512h0a4.335,4.335,0,0,0,.163-1.409c-0.289-2.629-2.288-4.694-2.828-7.258-2.815-2.593-6.008-4.975-9.867-5.661l0.235-.1a0.8,0.8,0,0,1-.19-0.95,0.962,0.962,0,0,1,.124-0.209,0.926,0.926,0,0,1,.068-0.231,0.8,0.8,0,0,1,.587-0.494,0.854,0.854,0,0,1,.383-0.284l0.139-.054c1.813-2.759,4.11-5.157,3.852-8.734,0.916-2.393-1.6-2.74-2.222-3.438-1.463-1.609-2.248-5.55-4.512-5.76C238.38,376.308,236.958,373.527,234.307,373.478Z"/>
  <path id="Leaf_Orange" data-name="Leaf Orange" class="cls-7" d="M237.374,285.553c-0.869-4.5-3.382-3.073-5.152,0-0.926,2.781-2.428.578-2.7-1.219,0.846-2.97-1.842-1.982-1.893-4.048-0.668-2.459-2.267-3.46-4.222-5.12-2.109,3.662-2.572-1.456-4.195-3.031-1.582,1.164-2.392-.1-2.831-1.78-2.253-1.169-3.918-3.727-5.287-6.7-1.853-.064-1.781,4.222-1.635,5.82-1.98.867-.089,3.644-1.065,5.809-2.032-.867-2.328,1.354-1.745,2.743,0.255,2.722,2.271,4.954,2.155,7.919-1.02,1.113-3.017-3.222-4.472-2.8-2.071-2.111-4.612-3.4-6.7-5.7-1.4,1.5-5.754-4.584-6,.09,0.442,2.952-1.5,2.458-3.021.892-1.305,1.044-2.424-.771-3.721-0.4-2.946-2.071-1.923,2.964-3.936,1.949-0.359,2.263-5.82-.989-4.688,2.513-2.081-1.325-4.291-.817-6.741-1.7-1.61-1.386-10.619-1.946-6.322.879,2.617,0.794,4.075,3.023,6.287,4.111a5.469,5.469,0,0,0,3.5,3.248c-2.715,2.2,3.066,2.657,1.813,4.224-3.083,2.42,1.223,2.469,2.251,4.112,3.483,1.617.427,2.982-1.637,4.118-0.481,2.307,3.42,3.133,4.984,4.405-1.024,1.809,1.092,2.079,2.382,2.479,2.949-.36.543,1.812,2.148,2.591,4,0.517,5.783,1.237,9.609,1.565,3.527,0.051,3.035,1.914-.039,2.386-2.584,1.154-5.391,1.579-7.919,3.329,1.437,1.941-.037,2.826-1.8,3.955-0.19,1.517-3.908,2.852-1.972,4.3-2.017,2.314-2.381,4.433-4.833,6.762,1.726,1.7,5.084-.424,7.314-0.59,1.4,1.6,6.445-2.08,5.8,1.94,2.736-.135,4.671-0.942,6.9-0.845,3.116-2.832.761,1.4,2.119,2.473,3.319-.746,6.85-0.41,9.272-2.877,1.969,1.2,4.457-3.5,5.27-2.725,0.153,2.031-2.094,6.935,1.994,5.423,2.442-1.908,4.518-.961,6.855-3.144,2.166,0.866,3.742-2.2,5.178-3.8,0.354-3.282,1.517-.079,3.17-0.847h0a4.327,4.327,0,0,0,.942-1.061c1.271-2.319.818-5.157,1.847-7.567-0.819-3.738-2.068-7.522-4.836-10.3,0.083,0.016.165,0.037,0.248,0.055a0.8,0.8,0,0,1,.39-0.888,0.917,0.917,0,0,1,.221-0.1,0.96,0.96,0,0,1,.188-0.15,0.8,0.8,0,0,1,.764-0.068,0.857,0.857,0,0,1,.477-0.013l0.145,0.035c3.068-1.22,6.325-1.866,8.166-4.944,2.122-1.435.258-3.164,0.152-4.091-0.277-2.157,1.341-5.835-.393-7.307C239.087,290.208,239.518,287.114,237.374,285.553Z"/>
  <path id="Leaf_Orange-2" data-name="Leaf Orange" class="cls-5" d="M501.661,213.291c3.778-2.6,1.464-4.329-2.057-4.724-2.92.264-1.5-1.994,0.037-2.962,3.06-.413,1.08-2.482,2.953-3.355,1.987-1.595,2.264-3.461,3-5.916-4.2-.469.306-2.94,1.1-5.057-1.7-.985-0.862-2.234.5-3.307,0.17-2.532,1.849-5.082,4.031-7.527-0.683-1.724-4.582.057-5.989,0.829-1.587-1.468-3.375,1.375-5.75,1.346-0.018-2.209-2.172-1.592-3.212-.5-2.393,1.323-3.632,4.062-6.4,5.142-1.427-.49,1.747-4.054.782-5.221,1.107-2.741,1.274-5.587,2.55-8.418-1.932-.679,1.9-7.106-2.483-5.467-2.529,1.586-2.854-.395-2.026-2.412-1.478-.778-0.262-2.53-1.117-3.572,0.72-3.528-3.486-.577-3.361-2.828-2.217.576-1.42-5.73-4.178-3.292,0.383-2.438-.966-4.26-1.135-6.859,0.626-2.03-2.462-10.511-3.333-5.443,0.318,2.715-1.142,4.943-1.254,7.405a5.468,5.468,0,0,0-1.577,4.511c-3.105-1.607-1.209,3.873-3.146,3.351-3.451-1.858-1.774,2.109-2.87,3.707-0.089,3.84-2.562,1.584-4.428.147-2.307.481-1.5,4.387-2.045,6.33-2.067-.215-1.469,1.832-1.319,3.173,1.509,2.56-1.444,1.224-1.517,3.006,1.126,3.872,1.18,5.795,2.408,9.433,1.364,3.253-.541,3.547-2.2.918-2.09-1.907-3.6-4.31-6.216-5.927-1.206,2.093-2.606,1.1-4.346-.07-1.467.434-4.177-2.441-4.729-.088-2.927-.923-5.015-0.41-8.13-1.725-0.866,2.26,2.421,4.49,3.465,6.467-0.906,1.926,4.483,5.076.542,6.093,1.217,2.453,2.73,3.9,3.533,5.986,3.842,1.724-.978,1.257-1.419,2.931,2.01,2.744,3.115,6.115,6.344,7.349-0.31,2.283,4.993,2.684,4.605,3.74-1.8.953-7.194,0.854-4.174,4,2.726,1.476,2.689,3.757,5.624,5.026,0.072,2.331,3.513,2.55,5.552,3.227,3.15-.987.68,1.359,2.044,2.567h0a4.316,4.316,0,0,0,1.349.439c2.634,0.238,5.054-1.312,7.674-1.333,3.1-2.245,6.068-4.9,7.5-8.549,0.018,0.083.032,0.166,0.049,0.249a0.8,0.8,0,0,1,.969,0,0.963,0.963,0,0,1,.181.164,0.926,0.926,0,0,1,.212.112,0.8,0.8,0,0,1,.368.673,0.842,0.842,0,0,1,.2.432l0.026,0.147c2.345,2.324,4.24,5.05,7.8,5.507,2.164,1.372,3-1.028,3.811-1.5,1.866-1.116,5.884-1.1,6.54-3.282C498.079,216.722,501.088,215.88,501.661,213.291Z"/>
  <path id="Leaf_Red-3" data-name="Leaf Red" class="cls-8" d="M642.007,342.541c4.55,0.56,3.965-2.271,1.59-4.9-2.361-1.737.2-2.488,1.991-2.194,2.565,1.72,2.453-1.142,4.434-.554,2.545,0.122,3.99-1.091,6.172-2.439-2.835-3.135,2.177-2,4.176-3.057-0.621-1.864.834-2.244,2.565-2.145,1.806-1.784,4.753-2.58,8.007-2.966,0.632-1.743-3.468-2.994-5.034-3.348-0.215-2.151-3.439-1.207-5.2-2.8,1.451-1.667-.571-2.632-2.072-2.5-2.669-.6-5.413.634-8.2-0.39-0.744-1.313,3.995-1.878,4.046-3.391,2.645-1.319,4.656-3.339,7.488-4.613-1-1.79,6.133-4.062,1.764-5.74-2.945-.489-1.875-2.187.082-3.149-0.591-1.563,1.48-2.068,1.53-3.415,2.879-2.165-2.227-2.742-.642-4.346-2.042-1.038,2.734-5.231-.946-5.234,1.9-1.571,2.1-3.83,3.7-5.888,1.814-1.105,5.122-9.5,1.111-6.285-1.562,2.244-4.131,2.945-5.847,4.714a5.468,5.468,0,0,0-4.17,2.333c-1.26-3.262-3.473,2.1-4.577.423-1.353-3.677-2.726.4-4.606,0.875-2.611,2.816-2.969-.512-3.413-2.825-2.046-1.169-4.034,2.288-5.727,3.384-1.405-1.531-2.314.4-3.091,1.5-0.566,2.917-1.892-.041-3.128,1.245-1.723,3.646-2.957,5.121-4.448,8.66-1.135,3.339-2.756,2.3-2.258-.773-0.3-2.812.158-5.615-.728-8.558-2.289.769-2.677-.906-3.207-2.932-1.386-.648-1.51-4.6-3.483-3.2-1.58-2.632-3.484-3.632-4.944-6.681-2.147,1.118-1.163,4.967-1.692,7.139-1.955.843-.007,6.772-3.633,4.922-0.714,2.644-.543,4.733-1.321,6.825,1.734,3.836-1.566.292-3.006,1.253-0.313,3.388-1.72,6.644-.119,9.708-1.746,1.5,1.96,5.32.969,5.853-1.98-.48-5.952-4.129-5.774.226,1.063,2.911-.477,4.595.88,7.491-1.491,1.794.941,4.238,2.019,6.1,3.013,1.348-.392,1.468-0.171,3.277h0a4.334,4.334,0,0,0,.72,1.223c1.814,1.924,4.654,2.367,6.63,4.088,3.809,0.373,7.793.35,11.285-1.429-0.041.074-.086,0.146-0.128,0.219a0.8,0.8,0,0,1,.724.644,1,1,0,0,1,.027.242,0.964,0.964,0,0,1,.084.225,0.8,0.8,0,0,1-.171.748,0.843,0.843,0,0,1-.134.457l-0.078.128c0.215,3.294-.173,6.591,2.188,9.291,0.712,2.461,2.931,1.22,3.845,1.4,2.138,0.4,5.139,3.074,7.073,1.878C637.051,342.736,639.861,344.1,642.007,342.541Z"/>
  <path id="Leaf_Green-6" data-name="Leaf Green" class="cls-4" d="M542.232,307.043c4.585,0.027,3.674-2.717,1.009-5.053-2.547-1.45-.094-2.493,1.722-2.41,2.748,1.409,2.3-1.42,4.34-1.067,2.542-.175,3.835-1.548,5.845-3.141-3.179-2.783,1.931-2.238,3.792-3.522-0.833-1.779.567-2.326,2.3-2.429,1.585-1.982,4.42-3.116,7.607-3.877,0.424-1.805-3.794-2.571-5.39-2.74-0.464-2.111-3.556-.8-5.489-2.178,1.247-1.825-.873-2.548-2.349-2.247-2.72-.282-5.3,1.26-8.188.567-0.892-1.217,3.75-2.33,3.624-3.839,2.474-1.618,4.235-3.858,6.9-5.453-1.2-1.662,5.619-4.749,1.084-5.906-2.982-.143-2.117-1.955-0.286-3.137-0.768-1.484,1.23-2.227,1.123-3.571,2.607-2.485-2.531-2.464-1.144-4.241-2.149-.793,2.107-5.514-1.549-5.088,1.707-1.782,1.639-4.048,2.985-6.279,1.674-1.309,3.982-10.034.372-6.372-1.289,2.412-3.76,3.407-5.258,5.363a5.469,5.469,0,0,0-3.87,2.8c-1.631-3.093-3.2,2.488-4.5.953-1.771-3.5-2.66.719-4.473,1.405-2.265,3.1-3.007-.163-3.718-2.408-2.169-.923-3.74,2.742-5.294,4.028-1.574-1.358-2.252.665-2.895,1.852-0.223,2.963-1.884.179-2.962,1.6-1.287,3.822-2.341,5.431-3.41,9.119-0.739,3.449-2.47,2.6-2.333-.5-0.627-2.759-.5-5.6-1.718-8.416-2.185,1.03-2.765-.588-3.527-2.538-1.452-.483-2.035-4.39-3.832-2.774-1.875-2.43-3.883-3.2-5.688-6.06-2,1.361-.577,5.069-0.849,7.288-1.844,1.065.781,6.727-3.035,5.312-0.4,2.709.011,4.764-.519,6.932,2.17,3.608-1.521.473-2.839,1.6,0.084,3.4-.935,6.8,1.011,9.655-1.558,1.7,2.566,5.055,1.645,5.7-2.023-.246-6.393-3.407-5.709.9,1.395,2.768.061,4.62,1.746,7.338-1.272,1.955,1.428,4.1,2.715,5.819,3.15,0.989-.218,1.5.212,3.275h0a4.329,4.329,0,0,0,.856,1.131c2.027,1.7,4.9,1.809,7.061,3.288,3.827-.073,7.781-0.559,11.043-2.732-0.033.078-.069,0.154-0.1,0.232a0.8,0.8,0,0,1,.794.556,0.989,0.989,0,0,1,.055.236,0.978,0.978,0,0,1,.11.214,0.8,0.8,0,0,1-.082.763,0.844,0.844,0,0,1-.081.469l-0.062.136c0.6,3.247.6,6.567,3.255,8.974,0.993,2.361,3.052.871,3.982,0.947,2.17,0.151,5.461,2.455,7.243,1.042C537.332,307.814,540.282,308.841,542.232,307.043Z"/>
  <path id="Geauga" class="cls-9" d="M423.661,913.23a2.239,2.239,0,0,0-1.941,1.355q-1.649.256-6.189,0.476a24.921,24.921,0,0,1-5.9-.11q-2.307-.77-2.344-0.769a0.373,0.373,0,0,0-.4.44,2.814,2.814,0,0,0,.22.915,5.384,5.384,0,0,0,1.208,2.234,4.343,4.343,0,0,0,2.674.623q0.841,0,8.349-.586a74.92,74.92,0,0,1-10.034,9.7q-7.764,6.409-11.975,6.409a3.538,3.538,0,0,1-1.941-.513,6.348,6.348,0,0,1-2.966-5.6,13.11,13.11,0,0,1,.22-2.27q1.208-7.983,7.891-17.395t13.605-13.147a9.329,9.329,0,0,1,4.212-1.245q1.94,0,1.794,1.538a25.3,25.3,0,0,1-1.721,7.434,1.388,1.388,0,0,0-.33-0.037,0.6,0.6,0,0,0-.732.623q0,0.805,1.282,1.062a15.988,15.988,0,0,0,2.673.439,1.6,1.6,0,0,0,1.611-1.1,33.327,33.327,0,0,0,2.161-8.276,10.444,10.444,0,0,0,.146-3.369,1.34,1.34,0,0,0-.805-0.732,7.4,7.4,0,0,0-2.6-.916q-0.769,0-1.062,1.978-3.846-2.82-5.713-2.71-3.663.219-10.034,6.115a64.145,64.145,0,0,0-11.353,14.136q-5.493,9.228-5.933,17.1a7.1,7.1,0,0,0,1.5,4.981A15.439,15.439,0,0,0,393.3,935.2a5.65,5.65,0,0,0,4.431,1.941q4.724,0,12.231-5.787a69.291,69.291,0,0,0,10.108-9.521q-4.25,15.747-8.02,21.387-1.575,2.343-3.443,2.343A4.657,4.657,0,0,1,407,945.2a4.49,4.49,0,0,0-1.355-.366q-1.062,0-1.062.769a1.023,1.023,0,0,0,.586.842q5.786,3.7,7.8,3.7,2.307,0,3.589-3.186a158.874,158.874,0,0,0,7.105-24.133,25.77,25.77,0,0,1,1.135-4.248q0.623-.99,3.149-1.392,1.464-.219,1.465-1.172a1.47,1.47,0,0,0-1.1-1.282,14.356,14.356,0,0,0-4.651-1.5h0Zm30.073,15.491a0.6,0.6,0,0,0-.7-0.659,1.373,1.373,0,0,0-.952.476q-7.581,7.654-11.829,9.155a3.978,3.978,0,0,1-1.135.22q-1.173,0-1.208-1.9a28.63,28.63,0,0,1,.952-7.4,20.2,20.2,0,0,1,1.391-4.431,25.459,25.459,0,0,0,4.981.805,8.512,8.512,0,0,0,5.127-1.648q2.49-1.794,2.49-6.335,0-.659-0.037-2.6t-0.036-3.259a4.529,4.529,0,0,1,.11-0.953,4.63,4.63,0,0,0,.109-0.622q0-.549-1.574-0.549h-1.721a0.938,0.938,0,0,0-.623,1.281,11.77,11.77,0,0,0-3.076-1.062q-1.356,0-3.04,2.051-2.6,3.077-5.859,10.4a2.588,2.588,0,0,0-1.209-.329q-0.768,0-.769.513,0,0.622,1.355,1.318a60.838,60.838,0,0,0-2.673,11.1,5.108,5.108,0,0,0-.073.842q0,2.162,2.746,3.443,2.637,2.38,4.358,2.38,3.625,0,12.525-11.389a1.346,1.346,0,0,0,.366-0.842h0Zm-4.541-10.8a5.333,5.333,0,0,1-1.209,3.626,5.7,5.7,0,0,1-4.431,1.355q-1.832-.109-2.563-0.22,2.709-7.251,6.3-10.144a2.315,2.315,0,0,1,1.171-.586q0.623,0,.623,1.428,0,6.409.11,4.541h0Zm36.7-3.845a2.014,2.014,0,0,0-.916-1.135,7.112,7.112,0,0,0-2.563-1.5q-0.55,0-1.026,1.647-0.294.954-1.282,3.3-1.355,3.186-6.152,9.449a97.379,97.379,0,0,1-8.789,10.034,4.71,4.71,0,0,1-2.966,1.721,0.74,0.74,0,0,1-.733-0.916,3.3,3.3,0,0,1,.037-0.476q0.988-5.858,5.823-13.183,4.174-6.372,7.617-8.9,1.574-1.172,4.175-.073a1.377,1.377,0,0,0,.549.11q0.77,0,.769-0.586a0.839,0.839,0,0,0-.33-0.623q-3.7-3.4-5.017-3.479a4.655,4.655,0,0,0-3.076,1.575,50.74,50.74,0,0,0-9.411,12.14q-4.1,7.2-4.761,12.616a6.519,6.519,0,0,0-.073.915,3.606,3.606,0,0,0,1.94,3.223,4.05,4.05,0,0,0,2.015,1.062,4.84,4.84,0,0,0,2.343-1.062,50.944,50.944,0,0,0,6.922-6.958,87.426,87.426,0,0,0,8.679-11.426A83.657,83.657,0,0,0,475.822,937a3.348,3.348,0,0,0,0,1.611,2.8,2.8,0,0,0,1.135,1.1,5.54,5.54,0,0,0,2.307,1.172q0.66,0,.989-1.465a29.658,29.658,0,0,1,4.578-10.29,1.455,1.455,0,0,0,.293-0.77,0.486,0.486,0,0,0-.55-0.549,1.421,1.421,0,0,0-1.1.659,15.316,15.316,0,0,0-1.117,1.245,19.273,19.273,0,0,1-1.447,1.575,115.352,115.352,0,0,1,4.651-15.674,3.636,3.636,0,0,0,.33-1.538h0Zm35.2-1.025a0.5,0.5,0,0,0,.257-0.293q0-.366-1.465-1.135a5.649,5.649,0,0,0-1.978-.769,2.192,2.192,0,0,0-1.172.439q-1.025.66-2.673,4.395a97.966,97.966,0,0,1-5.713,9.594,87.627,87.627,0,0,1-8.166,11.353,3.775,3.775,0,0,1-1.9,1.355q-0.659,0-.659-1.575A47.553,47.553,0,0,1,499.893,924q2.05-7.032,3.881-9.815l0.806-1.208a0.886,0.886,0,0,0-.513-0.66,6.38,6.38,0,0,0-2.893-1.171,1.837,1.837,0,0,0-1.391.8,17.852,17.852,0,0,0-2.381,4.431,27.34,27.34,0,0,1-2.343,3.809q-0.4.622-.11,0.842a0.619,0.619,0,0,0,.732-0.219q1.245-1.136,1.868-1.722a58.8,58.8,0,0,0-3.809,17.395,5.8,5.8,0,0,0-.073.879q0,2.2,2.527,2.637a4.87,4.87,0,0,0,2.417.842,3.065,3.065,0,0,0,2.307-1.208,130.651,130.651,0,0,0,11.865-16.956,90.359,90.359,0,0,0-3.7,13.88q-0.366,2.05.77,2.856a7.194,7.194,0,0,0,2.856,1.428q0.732,0,1.172-1.831a57.845,57.845,0,0,1,3.076-8.24,1.215,1.215,0,0,0,.11-0.476,0.559,0.559,0,0,0-.549-0.695,0.632,0.632,0,0,0-.586.512q-1.466,2.784-2.491,4.578a75.681,75.681,0,0,1,7.288-21.24A1.118,1.118,0,0,1,521.1,913.047Zm30.454-2.234a6.515,6.515,0,0,0-2.71-1.538q-0.659,0-.659,1.392a12.141,12.141,0,0,1-.622,3.7,53.823,53.823,0,0,1-5.677,11.975,44.646,44.646,0,0,1-8.642,10.8,3.219,3.219,0,0,1-2.088.988q-1.464,0-1.464-2.71a15.944,15.944,0,0,1,.183-2.234,32.6,32.6,0,0,1,3.918-10.546,28.924,28.924,0,0,1,5.6-7.618,4.1,4.1,0,0,1,2.783-1.1,4.565,4.565,0,0,1,2.161.586,2.97,2.97,0,0,0,1.245.329q0.879,0,.879-0.659a1.313,1.313,0,0,0-.549-0.952q-2.71-2.417-2.93-2.6a4.791,4.791,0,0,0-2.747-1.1,5.871,5.871,0,0,0-3.772,1.978,36.785,36.785,0,0,0-7.1,10.437q-3.48,7.106-3.7,11.9a5.589,5.589,0,0,0,3.333,5.639,5.892,5.892,0,0,0,3.259,1.465q1.428,0,3.259-1.868,4.541-4.539,10.657-15.051-10.071,44.311-25.159,44.312-4.724,0-10.693-5.091a1.513,1.513,0,0,0-.989-0.4,0.908,0.908,0,0,0-.989,1.062,1.9,1.9,0,0,0,.7,1.355q7.545,7.14,14.026,7.141,17.981,0.036,29.224-58.3,0.476-2.38-.733-3.3h0Zm33.593,3.259a2.014,2.014,0,0,0-.916-1.135,7.112,7.112,0,0,0-2.563-1.5q-0.55,0-1.026,1.647-0.294.954-1.282,3.3-1.355,3.186-6.152,9.449a97.379,97.379,0,0,1-8.789,10.034,4.71,4.71,0,0,1-2.966,1.721,0.74,0.74,0,0,1-.733-0.916,3.3,3.3,0,0,1,.037-0.476q0.989-5.858,5.823-13.183,4.175-6.372,7.617-8.9,1.573-1.172,4.175-.073a1.377,1.377,0,0,0,.549.11q0.769,0,.769-0.586a0.839,0.839,0,0,0-.33-0.623q-3.7-3.4-5.017-3.479a4.655,4.655,0,0,0-3.076,1.575,50.74,50.74,0,0,0-9.411,12.14q-4.1,7.2-4.761,12.616a6.519,6.519,0,0,0-.073.915,3.606,3.606,0,0,0,1.94,3.223,4.05,4.05,0,0,0,2.015,1.062,4.84,4.84,0,0,0,2.343-1.062,50.944,50.944,0,0,0,6.922-6.958,87.426,87.426,0,0,0,8.679-11.426A83.657,83.657,0,0,0,575.072,937a3.348,3.348,0,0,0,0,1.611,2.8,2.8,0,0,0,1.135,1.1,5.54,5.54,0,0,0,2.307,1.172q0.66,0,.989-1.465a29.658,29.658,0,0,1,4.578-10.29,1.455,1.455,0,0,0,.293-0.77,0.486,0.486,0,0,0-.55-0.549,1.421,1.421,0,0,0-1.1.659,15.316,15.316,0,0,0-1.117,1.245,19.273,19.273,0,0,1-1.447,1.575,115.352,115.352,0,0,1,4.651-15.674,3.636,3.636,0,0,0,.33-1.538h0Z"/>
  <path id="HELP_ME" data-name="HELP ME" class="cls-10" d="M280.187,760.866q0.472-7.1,1.244-9.168a3.874,3.874,0,0,1,2.439-2.581,6.954,6.954,0,0,1,4.791.162q1.262,0.477,2.525.949,0.083-1.315.166-2.632-14.965-5.58-29.743-12.065l-0.192,2.62q1.221,0.537,2.444,1.067a12.177,12.177,0,0,1,4.572,3.711,9.446,9.446,0,0,1,1.882,3.931q0.5,2.617-.014,10l-4.341,62.067q-0.606,8.655-2.027,10.4c-1.5,1.758-3.719,2.014-6.659.74q-1.26-.546-2.518-1.1-0.1,1.311-.193,2.621,15.248,6.693,30.7,12.454,0.083-1.315.166-2.632-1.3-.485-2.6-0.977a11.555,11.555,0,0,1-4.714-3.556,9.048,9.048,0,0,1-2.02-3.923q-0.531-2.615-.044-9.931L278,793.681q16.431,6.486,33.076,11.893-0.817,14.724-1.634,29.449-0.483,8.7-1.947,10.545c-1.486,1.884-3.712,2.337-6.669,1.329q-1.282-.437-2.563-0.88l-0.156,2.635q15.5,5.364,31.154,9.8l0.129-2.643q-1.295-.368-2.588-0.74a10.893,10.893,0,0,1-4.866-3.167,8.379,8.379,0,0,1-2.045-3.732q-0.576-2.567-.192-9.919l3.255-62.457q0.372-7.137,1.094-9.276a4.14,4.14,0,0,1,2.452-2.779,7.106,7.106,0,0,1,4.84-.247q1.255,0.361,2.511.718l0.129-2.644q-15.165-4.3-30.183-9.493l-0.156,2.635q1.243,0.431,2.489.855a10.859,10.859,0,0,1,4.626,3.3,8.565,8.565,0,0,1,2.014,3.784q0.545,2.572.134,9.989-0.767,13.833-1.535,27.666-16.609-5.4-33.019-11.872Q279.27,774.646,280.187,760.866ZM377.863,777.4c3.566,0.7,6.048,1.508,7.441,2.482a11.967,11.967,0,0,1,3.876,5.086q1.269,3.105,2.164,10.97,1.041,0.175,2.083.347-0.095-10.723-.185-21.447a543.3,543.3,0,0,1-55.1-12.111q-0.062,1.321-.125,2.644,1.259,0.346,2.517.685a9.256,9.256,0,0,1,6.172,4.52q1.27,2.5.868,11.725l-2.766,63.028q-0.312,7.083-1.033,9.214a4.3,4.3,0,0,1-2.5,2.827,7.383,7.383,0,0,1-5,.342q-1.3-.351-2.593-0.706-0.061,1.321-.125,2.644a560.119,560.119,0,0,0,56.869,12.5q3.555-11.668,7.063-23.384-1.088-.166-2.174-0.339-3.781,8.416-7.3,12.284a11.066,11.066,0,0,1-5.592,3.56c-1.915.422-4.965,0.248-9.141-.58s-8.346-1.706-12.511-2.632a8.482,8.482,0,0,1-4.094-1.757,5.537,5.537,0,0,1-1.43-2.572q-0.378-1.5-.116-7.942,0.649-16,1.3-32,7.971,1.866,15.973,3.49a14.878,14.878,0,0,1,6.722,2.764,10.032,10.032,0,0,1,3.049,4.538,51.393,51.393,0,0,1,1.222,9.386q1,0.18,2,.358,0.522-16.93,1.045-33.862-0.99-.175-1.979-0.354-0.582,8.264-3.479,11.048c-1.449,1.412-4.252,1.729-8.4.889q-7.986-1.621-15.945-3.484,0.777-19.188,1.555-38.377Q368.008,775.474,377.863,777.4Zm80.78,88.05a15.353,15.353,0,0,1-6.364,5.57c-2.319.982-6.341,1.318-12.057,0.9q-2.721-.2-5.44-0.429c-4.8-.4-7.648-0.937-8.554-1.5a4.961,4.961,0,0,1-1.99-2.434q-0.837-2.317-.727-8.284,0.564-30.617,1.127-61.231,0.161-8.7,1.057-10.907a6.9,6.9,0,0,1,3.244-3.49c1.565-.856,4.266-1.076,8.109-0.712q0.018-1.33.038-2.66-16.374-1.344-32.691-3.7-0.033,1.329-.067,2.657,1.356,0.195,2.713.384a7.961,7.961,0,0,1,6.1,3.983q1.44,2.49,1.244,11.611-0.685,31.429-1.369,62.859-0.181,8.334-1.382,10.488c-1.411,2.511-3.692,3.563-6.835,3.126q-1.4-.194-2.8-0.4-0.033,1.329-.067,2.657A552.311,552.311,0,0,0,459.7,879.2q3.286-13.113,6.519-26.264l-1.8-.554Q461.532,861.357,458.643,865.449Zm35.348-30.181a33.535,33.535,0,0,0,5.766.332c7.249-.255,12.836-3.083,16.733-8.329s5.777-11.883,5.669-19.838a27.694,27.694,0,0,0-4.062-14.887,21.422,21.422,0,0,0-9.568-8.519c-3.758-1.6-8.872-2.271-15.354-2.118q-13.276.309-26.556-.043l-0.012,2.662q1.363,0.036,2.727.065a7.109,7.109,0,0,1,6.2,3.262q1.442,2.244,1.431,11.45l-0.078,63.016q-0.01,8.345-1.114,10.565a6.869,6.869,0,0,1-6.784,3.926q-1.4-.031-2.81-0.068l-0.012,2.662q16.018,0.425,32.041-.084l-0.015-2.662q-1.431.047-2.864,0.084a6.891,6.891,0,0,1-6.345-3.034q-1.548-2.205-1.566-11.417-0.03-14.207-.061-28.414A52.414,52.414,0,0,0,493.991,835.268Zm-6.732-46.061a25.561,25.561,0,0,1,7.01-1.5,12.851,12.851,0,0,1,8.047,2.433,16.355,16.355,0,0,1,5.535,7.879,34.153,34.153,0,0,1,2.045,11.657q0.088,9.206-3.946,15.2c-2.7,3.987-5.932,6.049-9.7,6.157a23.205,23.205,0,0,1-3.8-.264q-2.228-.312-5.106-0.993ZM591.353,868.4q12.81-43.8,24.783-88.189,1.447,32.4,2.894,64.8,0.365,8.154-.723,10.75a8.792,8.792,0,0,1-6.446,5.372q-1.3.318-2.6,0.628,0.054,1.324.109,2.649,15.64-3.732,31.153-8.381-0.069-1.32-.136-2.641-1.264.378-2.53,0.752c-2.872.846-5.025,0.443-6.45-1.183q-1.618-1.788-2.045-10.724l-3.042-63.317q-0.39-8.147.653-10.757a9.146,9.146,0,0,1,6.253-5.57q1.229-.361,2.455-0.729-0.067-1.321-.136-2.642-10.016,3-20.093,5.611-11,41.232-22.734,81.987-14.691-35.25-28.8-71.282-10.191,1.6-20.412,2.814,0.029,1.329.056,2.658c2.947-.349,5.1-0.158,6.449.6a6.17,6.17,0,0,1,2.824,3.118q1.134,2.729,1.291,9.191l1.533,63.63q0.2,8.187-.952,10.65a7.865,7.865,0,0,1-6.6,4.6q-1.317.162-2.635,0.318,0.029,1.331.056,2.659,12.966-1.534,25.886-3.685-0.039-1.327-.077-2.655-1.312.219-2.626,0.431c-2.919.471-5.082-.211-6.483-2.02q-1.536-2-1.765-10.982l-1.668-65.052q15.038,38.91,30.761,76.949,0.9-.18,1.8-0.364h0ZM681.37,748.663c3.459-1.373,5.891-2.009,7.307-1.863a5.943,5.943,0,0,1,4.17,2.714q1.506,2.288,3.125,9.411,1-.426,2-0.858-1.144-10.357-2.284-20.719a560.568,560.568,0,0,1-53.85,19.943l0.141,2.64q1.251-.392,2.5-0.789c2.916-.927,5.046-0.661,6.4.826q1.471,1.691,2,10.883l3.576,62.79a46.462,46.462,0,0,1-.083,9.541,8.108,8.108,0,0,1-2.133,4.191,11.153,11.153,0,0,1-4.785,3.215q-1.288.409-2.576,0.812l0.141,2.64A578.654,578.654,0,0,0,702.6,833.456q2.21-13.371,4.363-26.758-1.041.462-2.082,0.918A84.294,84.294,0,0,1,699.2,823.73a21.862,21.862,0,0,1-4.943,6.666,32.093,32.093,0,0,1-8.736,4.685q-6.081,2.393-12.192,4.638c-1.985.729-3.35,0.941-4.092,0.65a2.864,2.864,0,0,1-1.624-1.674q-0.51-1.236-.9-7.644-0.959-15.912-1.919-31.822,7.825-2.78,15.6-5.8c2.958-1.149,5.177-1.551,6.665-1.177a5.016,5.016,0,0,1,3.339,2.656q0.865,1.689,2.083,8.412,0.966-.4,1.93-0.8-1.17-16.74-2.342-33.48-0.954.4-1.909,0.792,0.261,8.358-2.212,12.725c-1.236,2.2-3.864,4.12-7.894,5.686q-7.764,3.015-15.578,5.79-1.151-19.08-2.3-38.158,9.631-3.42,19.188-7.211h0Z"/>
</svg>
