<?xml version="1.0" encoding="utf-8"?>
<!-- Generator: Adobe Illustrator 24.1.1, SVG Export Plug-In . SVG Version: 6.00 Build 0)  -->
<svg version="1.1" id="Layer_1" xmlns="http://www.w3.org/2000/svg" xmlns:xlink="http://www.w3.org/1999/xlink" x="0px" y="0px"
	 viewBox="0 0 640 480" style="enable-background:new 0 0 640 480;" xml:space="preserve">
<style type="text/css">
	.st0{fill:#FDFDFD;}
	.st1{fill:#2D4E89;}
	.st2{fill:#2C4C88;}
	.st3{fill:#2E4E8A;}
	.st4{fill:#2A4B87;}
	.st5{fill:#2F4F8A;}
	.st6{fill:#2C4D89;}
	.st7{fill:#AFD571;}
	.st8{fill:#B0D573;}
	.st9{fill:#F9FAFB;}
</style>
<g>
	<g>
		<path class="st0" d="M576,335c-170.7,0-341.3,0-512,0c0-70,0-139.9,0-209.9c170.7,0,341.3,0,512,0C576,195,576,265,576,335z
			 M316.4,319.5c22.3,0,44.2,0,65.7,0c1.4-4.4,2.8-8.5,3.9-12.7c0.6-2.3,2.1-4.4,1.8-6.9c-0.1-0.6,0.1-1.3-0.4-1.6c-1.6,0-3,0-4.3,0
			c-2.9,5.1-5.2,10.4-9.9,13.5c-9.3,0-18.4,0-27.4,0c0-9.7,0-19.2,0-28.8c6.3,0,12.4,0,18.8,0c0.9,2.7,1.9,5.5,2.8,8.3
			c0.9,2.8,1,2.8,5,2.6c0-9.5,0-19,0-29c-1.7,0.6-3.3-0.5-4.9,0.7c0.7,2.4-2.2,4-1.4,6.4C365,273,364,274,363,275
			c-5.7,0-11.4,0-17.6,0c1.1-8.5-1.5-17.1,2-25c8.9,0,17.6,0,26.2,0c3.2,3.8,3.8,8.5,5.8,12.5c1.6-0.2,3.1,0.4,4.4-0.4
			c1.4-6.7-2.2-13-1-19.7c-22.5,0-44.5,0-66.6,0c0.1,1.7-0.4,3.2,0.6,5.1c3.5-1.5,6.3,1.2,9.4,1.4c2.5,2.5,2.8,5.3,2.8,8.2
			c-0.1,15.9-0.1,31.8,0,47.7c0,4.5-0.9,8.1-5.7,9.9c-1.9,0-3.7,0-5.2,0C316.3,316,315.7,317.4,316.4,319.5z M421.3,311.9
			c0-8.7,0-16.9,0-25.3c4,0,7.9-0.2,11.6,0.1c3,0.2,5.7-0.5,8.4-1.4c9.3-3.1,14.5-10.1,16.7-19c1.2-5-0.4-10-2.5-14.8
			c-1.7-4-5-6.1-8.9-7.6c-0.2-0.1-0.3-0.3-0.7-0.7c-2.7,0.8-5.3-1-8.1-1.2c-3.2-0.2-6.4,0-9.6,0c-2.6,0-5.1,0-7.7,0
			c-9.5,0-19.1,0-28.7,0c-0.4,1.9-0.6,3.5,0.2,5c3.4-0.3,6.4,1.4,9.6,1.8c0.5,0.1,0.9,0.8,1.3,1.2c0,20.5,0,41,0,61.4
			c-2.8,2.9-6.2,3.3-9.4,3c-1.8,1.6-2.9,3-1.5,4.9c14.3,0,28.6,0,42.9,0c0-1.2,0-2.2,0-3.1c-2.9-2.4-6.3-1.7-9.2-1.8
			C424.2,313.6,422.9,312.8,421.3,311.9z M179.3,222.8c5.4,1.2,9.9-1.2,14.7-1.3c4.9-0.1,9.6,2.4,14.6,1.2c-0.1-1.8,0.4-3.2-0.6-5
			c-3.4,0.6-6.8,0.1-9.7-3.2c0.8-15.6-2.8-31.5-0.7-48.2c16.1,19.7,31.7,39,46.4,57c3.5,1.7,4.5,0.2,5.6-1.2c0-20.3,0-40.6,0-60.7
			c1.3-1.6,1.4-3.7,3.4-4.7c2.8,0.9,5.2-1.2,8-1.7c0-1,0.4-2-0.2-3c-9.7,0-19.4,0-29.1,0c0,1.1,0,2,0,3.3c2.9,0,5.4,2.2,8.5,1.5
			c3.1,6.3,1.4,12.6,1.7,18.8c0.3,6.5,0.1,13,0.1,20.1c-12.2-15-23.8-29.2-35.6-43.7c-8.5,0-17.7,0-26.8,0c-0.1,0-0.3,0.3-0.4,0.4
			c0,0.9,0,1.7,0,2.2c2.8,3.1,7.2,1.5,9.7,3.6c1.6,2.5,2,4.9,1.8,7.4c-0.6,9.8,0.7,19.6-1.1,29.4c-1.1,6.2-0.2,12.7-0.2,19
			c0,0.4-0.3,0.7-0.5,1.3c-1.2,0.7-2.6,1.5-4.5,2.7c-1.2,0-3.1,0-5.1,0C179.3,219.7,179.3,221.1,179.3,222.8z M233.4,245.4
			c-0.9-0.8-1.5-1.6-2.2-1.8c-3.2-1-6.6-2.5-9.7-2.5c-6.8-0.1-13.7-1-20.6,0.8c-5.1,1.3-9.2,3.3-12.4,7.1c-3.3,3.9-5.8,8.2-5.4,13.6
			c0.2,2.3,0,4.6,0,5.8c3.5,9.9,11.1,14.2,18.9,18.2c2.6,1.4,5.5,2.3,7.9,3.9c2.2,1.4,5.4,2,6.3,4.5c1.4,3.9,4.5,7.8,1.4,12.4
			c-0.3,0.4-0.1,1.2-0.2,1.6c-2.2,2.1-4,4.5-8.1,5.6c-0.4,0-2.1,0.1-3.8,0c-5.8-0.3-10.2-2.2-12.5-8.3c-1.3-3.6-1.8-7.7-4.4-10.8
			c-1.4,0.3-2.9-0.6-4.2,0.5c0.2,7.4-2.8,14.7-0.9,22.2c5,2.3,19.9,4.1,23.3,4.1c1.9,0,3.2-1.4,5.2-1.5c5-0.1,10.2-0.7,13.9-4.9
			c4.2-0.5,4.9-4.7,6.9-7.3c2-2.5,3.3-5.9,2.8-9.6c-0.4-3.1-0.1-6.3-0.1-8.2c-3.1-8.5-8.8-12.8-15.4-16.4c-3.6-2-7.4-3.8-11-5.7
			c-3.8-2-7.7-3.7-9.5-9.8c-0.7-4.5,1-9.3,7.8-11.8c2.3,0,5.3,0,8.3,0c1.6,1.7,3.9,1.9,4.8,2.5c4.1,5.1,5,10.4,6.6,15.4
			c1.7-0.3,3.2,0.5,4.6-0.6c0-3.1-0.1-6.3,0-9.4C231.8,252,230.8,248.8,233.4,245.4z M296.1,314.6c-3.5,0.4-6.8-0.2-9.2-2.9
			c0-20.7,0-41.2,0-61.8c4.6,0,9,0,13.3,0c4.6,4,5.8,9.6,7.4,15.1c2,0,4,0.4,5.9-0.3c0.6-5.9-2.2-11.3-1.3-17c0.3-1.8,0-3.7,0-5.4
			c-23.3,0-46.1,0-69.1,0c0,3.7-0.4,7.3,0.1,10.8c0.5,3.7-2.1,6.7-1.4,10.3c0.1,0.6,0.1,1.2,0.3,1.4c2.2,0,4.1,0,5.6,0
			c1.6-4.8,3.1-9.3,4.7-13.9c1.5,0.5,2.1-0.3,2.7-1c4.6,0,9,0,13.5,0c0,20.7,0,41.2,0,61.5c-3,3.8-7,3.2-10.7,3.2
			c-1.8,1.5-2.8,2.9-1.5,4.9c13.8,0,27.6,0,41.3,0C298.8,317.6,298.3,316.2,296.1,314.6z M263.9,155.1c2.8,0.7,5.5,2.3,8.5,2.1
			c2.3,0.6,1,3.4,2.9,4.1c0,15.5-0.3,30.9,0.1,46.4c0.2,6.4-4,11.4-10.4,10.3c-0.3-0.1-0.7,0.3-1.1,0.4c0,1.4,0,2.8,0,4.1
			c0.8,0.8,1.7,0.3,2.5,0.5c4.6,0.9,9-1.3,13.5-1.3c5.8,0,11.5,0,17.3,0c3.6,0,7.5-0.9,10.8,0.2c5.2,1.7,10.3,0.5,15.3,1.2
			c1.8-6.9,4.9-13.2,5.7-20.3c-1.8,0-3.2,0-4.7,0c-2.2,4.8-4.9,9.3-9,12.6c-8.3-0.3-16.6,0.3-24.5-0.3c0-9.1,0-17.7,0-26.3
			c5.5,0,10.8,0,15.9,0c2.6,2.4,3.4,5.2,3,8.1c1.6,1.8,3.1,2.9,4.9,1.5c0-8.8,0-17.4,0-26.2c-1.6,0-3.1,0-4.5,0
			c-0.6,5.3-1.1,6.2-4.8,9.8c-5.1,0-9.9,0-14.7,0c0-7.6,0-15,0-22.2c0.6-0.6,1.1-1.1,1.6-1.6c7.3,0,14.7,0,22,0
			c3.5,3,5.1,6.9,6.1,11.5c1.5-0.6,3.2,0.7,4.2-0.3c1.8-6.3-1.6-11.7-0.8-17.5c-20.3,0-40.1,0-60,0C263.9,153,263.9,154,263.9,155.1
			z M419.6,158c0,19.5,0,38.3,0,57.2c-3.1,1.8-6.3,2.9-9.8,2.8c-0.1,1.9-0.7,3.5,0.6,5.2c11.9-2.6,23.9-1.8,35.6,0
			c0.8-1.3,2.1-1.6,2-3.2c-1-2.5-4-1.3-5.5-2.3c-1.9-1.2-4.9-0.1-5.8-3.1c0-18.5,0-37.3,0-56.3c3.7,0,7.3,0,10.8,0
			c5.3,2.4,6.6,7.1,7.2,12.2c1.3,0.9,1.9,2.8,4.1,2.9c0.6-0.7,1.3-1.4,1.9-2c0.9-5.2-2-9.8-1.2-14.9c0.2-1.5,0.7-3.3-0.3-4.6
			c-20.9,0-41.5,0-62.2,0c-0.7,6.6,1,13.1-1.6,19.1c2.1,1.9,2.1,1.9,4.9,2.1c2.2-4.2,2.5-9.1,5.1-12.8
			C409.9,156.9,414.8,158.5,419.6,158z M338.6,153c-0.7,0.6-1,1.4-0.4,2.2c3.6,4.3,5.1,9.8,7.6,14.6c2.7,5.3,2.2,11,3.4,16.4
			c1.1,4.9-0.4,10.3-1.8,15c-2.1,7.3-5.4,14.3-10.7,20.2c7.3-0.1,20.2-9.3,26.8-19.2c6.6,9,14.4,16.1,25,19.6
			c1.5-2.1-0.4-3.5-0.9-4.2c-2.1-2.6-3.2-5.5-4.2-8.5c-1.1-2.9-3-5.5-3.8-8.7c-0.2-1.1-0.8-2.2-0.8-3.4c0-6.1,0-12.3,0-18.4
			c0-1,0.4-1.9,0.7-2.9c1.7-6.3,4.7-12.1,7.8-17.8c0.7-1.4,1-2.6-0.5-3.8c-4.5,2.2-8.7,4.9-13,7.5c-4.6,2.8-5.9,8.4-10.6,10.7
			C353.3,159.7,352.4,160.8,338.6,153z M354.6,152.2c2,2,3.9,4,5.7,5.9c2.2,0,4.3,0,6.4,0c9.2-5.8,9.4-9.9,1.2-17.8
			c-2.6,0-5.1,0-6.4,0C354.2,142.4,354.3,147.4,354.6,152.2z M389.8,154.3c0.6-0.4,0.6-0.8,0-1.3
			C389.2,153.5,389.2,153.9,389.8,154.3z"/>
		<path class="st1" d="M316.4,319.5c-0.7-2-0.2-3.5,1.7-4.8c1.5,0,3.4,0,5.2,0c4.8-1.8,5.7-5.4,5.7-9.9c-0.1-15.9-0.1-31.8,0-47.7
			c0-3-0.3-5.7-2.8-8.2c-3.1-0.2-5.9-3-9.4-1.4c-1-1.9-0.5-3.3-0.6-5.1c22.1,0,44.1,0,66.6,0c-1.2,6.6,2.4,12.9,1,19.7
			c-1.3,0.8-2.8,0.2-4.4,0.4c-2-4-2.7-8.7-5.8-12.5c-8.5,0-17.2,0-26.2,0c-3.5,7.9-0.9,16.4-2,25c6.2,0,11.9,0,17.6,0
			c1-1,2-2,3.1-3.1c-0.9-2.4,2.1-4,1.4-6.4c1.6-1.2,3.2-0.1,4.9-0.7c0,10,0,19.5,0,29c-4,0.3-4.1,0.2-5-2.6
			c-0.9-2.8-1.9-5.6-2.8-8.3c-6.3,0-12.5,0-18.8,0c0,9.6,0,19.1,0,28.8c9,0,18.1,0,27.4,0c4.7-3.2,7-8.4,9.9-13.5c1.3,0,2.7,0,4.3,0
			c0.5,0.3,0.3,1,0.4,1.6c0.3,2.5-1.2,4.6-1.8,6.9c-1.1,4.2-2.5,8.3-3.9,12.7C360.6,319.5,338.7,319.5,316.4,319.5z"/>
		<path class="st2" d="M421.3,311.9c1.5,0.9,2.9,1.7,4.6,2.7c2.9,0.1,6.3-0.6,9.2,1.8c0,0.9,0,1.9,0,3.1c-14.4,0-28.6,0-42.9,0
			c-1.4-1.9-0.3-3.3,1.5-4.9c3.2,0.3,6.6-0.1,9.4-3c0-20.3,0-40.8,0-61.4c-0.4-0.4-0.8-1.2-1.3-1.2c-3.2-0.5-6.2-2.1-9.6-1.8
			c-0.8-1.5-0.6-3.1-0.2-5c9.6,0,19.1,0,28.7,0c2.6,0,5.1,0,7.7,0c3.2,0,6.4-0.1,9.6,0c2.8,0.2,5.4,2,8.1,1.2
			c0.4,0.4,0.5,0.6,0.7,0.7c3.9,1.5,7.1,3.6,8.9,7.6c2.1,4.7,3.8,9.8,2.5,14.8c-2.2,9-7.5,15.9-16.7,19c-2.7,0.9-5.4,1.6-8.4,1.4
			c-3.8-0.3-7.6-0.1-11.6-0.1C421.3,295,421.3,303.2,421.3,311.9z M421.1,279c3,0,5.5-0.1,8,0c4.1,0.2,8.5-2.6,9.8-8.2
			c0.2-0.8-0.3-1.9,0.1-2.5c2.9-4.7,0.6-8.8-1.3-13.1c-1.7-3.8-4.5-5.6-8.6-5.5c-2.7,0.1-5.4,0.1-8,0.1
			C421.1,259.7,421.1,269,421.1,279z"/>
		<path class="st3" d="M179.3,222.8c0-1.6,0-3.1,0-4.7c2,0,3.8,0,5.1,0c1.9-1.1,3.3-2,4.5-2.7c0.2-0.6,0.5-1,0.5-1.3
			c0-6.4-0.9-12.9,0.2-19c1.8-9.8,0.5-19.6,1.1-29.4c0.2-2.5-0.2-4.8-1.8-7.4c-2.5-2.2-6.9-0.5-9.7-3.6c0-0.5,0-1.3,0-2.2
			c0.1-0.1,0.2-0.4,0.4-0.4c9.1,0,18.2,0,26.8,0c11.8,14.5,23.4,28.7,35.6,43.7c0-7.2,0.2-13.7-0.1-20.1c-0.3-6.1,1.4-12.5-1.7-18.8
			c-3.1,0.8-5.6-1.4-8.5-1.5c0-1.3,0-2.1,0-3.3c9.7,0,19.4,0,29.1,0c0.6,0.9,0.3,2,0.2,3c-2.8,0.5-5.2,2.6-8,1.7
			c-2,1-2.1,3.2-3.4,4.7c0,20.1,0,40.4,0,60.7c-1.1,1.3-2.1,2.8-5.6,1.2c-14.7-18-30.3-37.3-46.4-57c-2.1,16.7,1.5,32.6,0.7,48.2
			c2.9,3.2,6.3,3.7,9.7,3.2c1,1.7,0.5,3.2,0.6,5c-5,1.2-9.7-1.3-14.6-1.2C189.2,221.6,184.7,223.9,179.3,222.8z"/>
		<path class="st4" d="M233.4,245.4c-2.6,3.3-1.6,6.6-1.7,9.6c-0.1,3.2,0,6.3,0,9.4c-1.4,1.1-3,0.4-4.6,0.6
			c-1.6-5-2.5-10.3-6.6-15.4c-0.8-0.6-3.2-0.8-4.8-2.5c-3,0-6,0-8.3,0c-6.8,2.6-8.5,7.4-7.8,11.8c1.8,6.1,5.7,7.8,9.5,9.8
			c3.7,1.9,7.4,3.7,11,5.7c6.6,3.5,12.3,7.9,15.4,16.4c0,1.9-0.3,5.1,0.1,8.2c0.5,3.7-0.9,7.1-2.8,9.6c-2,2.6-2.7,6.7-6.9,7.3
			c-3.7,4.1-8.9,4.8-13.9,4.9c-2,0-3.3,1.4-5.2,1.5c-3.3,0-18.3-1.8-23.3-4.1c-1.8-7.5,1.1-14.7,0.9-22.2c1.3-1.1,2.8-0.3,4.2-0.5
			c2.6,3.2,3.1,7.2,4.4,10.8c2.3,6.1,6.7,8,12.5,8.3c1.7,0.1,3.4,0,3.8,0c4.1-1.1,5.9-3.4,8.1-5.6c0-0.4-0.1-1.2,0.2-1.6
			c3.1-4.5,0-8.5-1.4-12.4c-0.9-2.5-4.1-3.1-6.3-4.5c-2.4-1.6-5.3-2.6-7.9-3.9c-7.8-4-15.4-8.3-18.9-18.2c0-1.2,0.1-3.5,0-5.8
			c-0.4-5.4,2.1-9.8,5.4-13.6c3.2-3.8,7.3-5.8,12.4-7.1c7-1.8,13.8-0.9,20.6-0.8c3.1,0,6.5,1.5,9.7,2.5
			C231.9,243.8,232.5,244.6,233.4,245.4z"/>
		<path class="st5" d="M296.1,314.6c2.1,1.6,2.7,3.1,1.7,5c-13.7,0-27.5,0-41.3,0c-1.3-2-0.3-3.5,1.5-4.9c3.7,0,7.8,0.6,10.7-3.2
			c0-20.3,0-40.8,0-61.5c-4.5,0-8.9,0-13.5,0c-0.6,0.6-1.2,1.5-2.7,1c-1.6,4.6-3.1,9.1-4.7,13.9c-1.5,0-3.3,0-5.6,0
			c-0.2-0.1-0.2-0.7-0.3-1.4c-0.7-3.6,1.9-6.6,1.4-10.3c-0.5-3.5-0.1-7.1-0.1-10.8c23.1,0,45.8,0,69.1,0c0,1.7,0.2,3.6,0,5.4
			c-0.9,5.7,1.9,11,1.3,17c-1.9,0.7-3.9,0.3-5.9,0.3c-1.6-5.5-2.8-11.1-7.4-15.1c-4.3,0-8.7,0-13.3,0c0,20.6,0,41.1,0,61.8
			C289.3,314.4,292.7,315,296.1,314.6z"/>
		<path class="st3" d="M263.9,155.1c0-1,0-2,0-3.2c19.9,0,39.7,0,60,0c-0.7,5.8,2.6,11.2,0.8,17.5c-1.1,1-2.8-0.3-4.2,0.3
			c-1-4.6-2.6-8.4-6.1-11.5c-7.3,0-14.7,0-22,0c-0.6,0.6-1,1-1.6,1.6c0,7.2,0,14.5,0,22.2c4.8,0,9.6,0,14.7,0
			c3.7-3.6,4.1-4.5,4.8-9.8c1.4,0,2.8,0,4.5,0c0,8.7,0,17.4,0,26.2c-1.8,1.4-3.3,0.3-4.9-1.5c0.4-2.9-0.5-5.7-3-8.1
			c-5.1,0-10.4,0-15.9,0c0,8.6,0,17.2,0,26.3c7.9,0.6,16.2,0,24.5,0.3c4.2-3.4,6.9-7.8,9-12.6c1.4,0,2.9,0,4.7,0
			c-0.8,7.1-3.9,13.4-5.7,20.3c-5-0.6-10.1,0.5-15.3-1.2c-3.3-1.1-7.2-0.2-10.8-0.2c-5.8,0-11.5,0-17.3,0c-4.6,0-8.9,2.2-13.5,1.3
			c-0.8-0.2-1.7,0.3-2.5-0.5c0-1.3,0-2.7,0-4.1c0.4-0.2,0.8-0.5,1.1-0.4c6.4,1.1,10.6-3.9,10.4-10.3c-0.4-15.5-0.1-30.9-0.1-46.4
			c-1.8-0.7-0.6-3.5-2.9-4.1C269.3,157.4,266.7,155.8,263.9,155.1z"/>
		<path class="st6" d="M419.6,158c-4.9,0.5-9.8-1.2-14.3,2.4c-2.6,3.6-2.9,8.6-5.1,12.8c-2.7-0.2-2.7-0.2-4.9-2.1
			c2.6-6,0.9-12.6,1.6-19.1c20.7,0,41.3,0,62.2,0c1,1.3,0.6,3.1,0.3,4.6c-0.8,5.1,2.2,9.7,1.2,14.9c-0.6,0.6-1.3,1.3-1.9,2
			c-2.1-0.2-2.7-2.1-4.1-2.9c-0.6-5.1-1.9-9.8-7.2-12.2c-3.5,0-7.1,0-10.8,0c0,18.9,0,37.8,0,56.3c0.9,3,3.9,1.9,5.8,3.1
			c1.6,1,4.5-0.2,5.5,2.3c0.1,1.6-1.2,1.9-2,3.2c-11.8-1.8-23.8-2.6-35.6,0c-1.3-1.7-0.7-3.4-0.6-5.2c3.5,0.1,6.7-1,9.8-2.8
			C419.6,196.4,419.6,177.6,419.6,158z"/>
		<path class="st7" d="M338.6,153c13.8,7.8,14.8,6.7,24.7,19.3c4.8-2.3,6-7.9,10.6-10.7c4.3-2.6,8.4-5.2,13-7.5
			c1.5,1.2,1.2,2.4,0.5,3.8c-3.1,5.7-6.1,11.4-7.8,17.8c-0.3,0.9-0.7,1.9-0.7,2.9c0,6.1,0,12.3,0,18.4c0,1.2,0.5,2.4,0.8,3.4
			c0.7,3.2,2.7,5.7,3.8,8.7c1.1,3,2.1,5.9,4.2,8.5c0.5,0.6,2.4,2,0.9,4.2c-10.5-3.5-18.4-10.7-25-19.6c-6.6,10-19.6,19.2-26.8,19.2
			c5.2-5.9,8.5-12.9,10.7-20.2c1.4-4.8,2.9-10.1,1.8-15c-1.3-5.4-0.7-11-3.4-16.4c-2.5-4.9-4-10.3-7.6-14.6
			C337.6,154.5,337.8,153.6,338.6,153z"/>
		<path class="st8" d="M354.6,152.2c-0.3-4.9-0.4-9.8,6.9-11.9c1.3,0,3.8,0,6.4,0c8.3,7.9,8,12-1.2,17.8c-2.1,0-4.2,0-6.4,0
			C358.5,156.2,356.6,154.3,354.6,152.2z"/>
		<path class="st7" d="M389.8,154.3c-0.6-0.4-0.6-0.8,0-1.3C390.4,153.5,390.4,153.9,389.8,154.3z"/>
		<path class="st9" d="M421.1,279c0-10,0-19.3,0-29.1c2.7,0,5.4-0.1,8-0.1c4.1-0.1,6.9,1.7,8.6,5.5c1.9,4.2,4.2,8.3,1.3,13.1
			c-0.4,0.6,0.1,1.7-0.1,2.5c-1.4,5.6-5.7,8.4-9.8,8.2C426.6,278.9,424.1,279,421.1,279z"/>
	</g>
</g>
</svg>
