<?xml version="1.0" encoding="utf-8"?>
<!-- Generator: Adobe Illustrator 24.1.1, SVG Export Plug-In . SVG Version: 6.00 Build 0)  -->
<svg version="1.1" id="Layer_1" xmlns="http://www.w3.org/2000/svg" xmlns:xlink="http://www.w3.org/1999/xlink" x="0px" y="0px"
	 viewBox="0 0 640 480" style="enable-background:new 0 0 640 480;" xml:space="preserve">
<style type="text/css">
	.st0{fill:#FEFEFE;}
	.st1{fill:#700E1C;}
	.st2{fill:#EC1F27;}
	.st3{fill:#700E1B;}
	.st4{fill:#636363;}
	.st5{fill:#616161;}
	.st6{fill:#606060;}
	.st7{fill:#626262;}
	.st8{fill:#656565;}
	.st9{fill:#040707;}
	.st10{fill:#FDFDFD;}
	.st11{fill:#FBFBFB;}
</style>
<g>
	<g>
		<path class="st0" d="M320,302c-92.1,0-184.3,0-276.4,0c-1.4,0-1.7-0.3-1.5-1.7c0-41.4,0-82.9,0-124.3c0-1.3,0.3-1.4,1.4-1.4
			c184.3,0,368.7,0,552.9,0c1.3,0,1.5,0.3,1.5,1.5c0,41.4,0,82.9,0,124.3c0,1.3-0.3,1.5-1.5,1.5C504.3,302,412.1,302,320,302z
			 M149.7,219.8c-0.4-0.7-0.3-1.3-0.3-2c0-8.8,0-17.7,0-26.5c0-0.7,0.3-1.5-1.1-1.5c-6.1,0-12.3,0-18.4,0c-1,0-1.3,0.4-1.1,1.3
			c0,1.7,0,3.2,0,4.9c0,3.6,0,3.8,3.6,3.6c1.4,0,1.8,0.3,1.8,1.7c0,17.3,0,34.4,0,51.7c0,1.4,0.6,3.2-0.3,4.2
			c-0.7,0.7-2.5,0.1-3.9,0.3h-0.1c-0.7-0.1-1,0.1-1,0.8c0,2.6,0,5.2,0,7.8c0,0.7,0.1,1,1,1c7.8,0,15.6,0,23.4,0c0.8,0,1.1-0.3,1.1-1
			c0-1.8,0-3.6,0-5.3c0-3.3,0-3.3-3.2-3.3c-1.1,0-1.5-0.3-1.5-1.4c0-6,0-12.1,0-18.1c0-1.7,0.3-3.2,0.7-4.7c2-6.6,10.7-7.1,14.1-3.6
			c2.2,2.2,2.9,5,2.9,8.1c0,5.3,0.1,10.7,0.1,16c0,1.3,0.6,2.8-0.3,3.6c-0.7,0.7-2.2,0.3-3.3,0.3c-0.8,0-1.1,0.3-1.1,1.1
			c0,2.5,0,4.9,0,7.4c0,0.8,0.1,1.3,1.1,1.1c7.8,0,15.5,0,23.3,0c1,0,1.1-0.3,1.1-1.1c0-1.5,0-3.1,0-4.6c0-3.8,0-3.9-3.8-3.8
			c-1.3,0-1.5-0.4-1.5-1.5c0-7.7,0.1-15.2-0.1-22.9c-0.1-4.3-0.8-8.5-3.6-12.1c-5.3-6.7-12.4-8.2-20.5-6.7
			C155,214.9,152.1,216.9,149.7,219.8z M252.7,267.9c15.6,0,27.2-11.4,27.2-26.8c0-15.1-11.8-26.9-26.9-26.9
			c-14.8,0-26.8,11.8-26.9,26.6C226.2,256.2,237.6,267.9,252.7,267.9z M123.9,228.6c0.6-20.6-15.8-39.9-39-40.4
			c-22.4-0.6-40.6,16.9-41.1,39.3c-0.6,23.6,18,41.1,40,41.3C106.1,268.9,123.9,250.9,123.9,228.6z M215.2,236.2
			c0-6.6,0-13.2,0-19.8c0-0.7,0.1-1.4-1-1.4c-6.1,0-12.4,0-18.5,0c-1,0-1.1,0.4-1.1,1.3c0,1.7,0,3.3,0,5c0,3.5,0,3.6,3.5,3.5
			c1.5,0,1.7,0.4,1.7,1.8c0,9.1,0,18,0,27c0,1.3,0.4,2.9-0.3,3.8c-0.7,0.8-2.4,0.1-3.6,0.3h-0.1c-0.8-0.1-1.3,0.1-1.1,1.1
			c0,2.5,0,4.9,0,7.4c0,0.8,0.3,1.1,1.1,1.1c7.9,0,15.8,0,23.7,0c1,0,1.1-0.3,1.1-1.1c0-1.5,0-3.1,0-4.6c0-1.3,0.6-2.9-0.3-3.6
			c-0.7-0.6-2.4-0.3-3.5-0.1c-1.1,0.1-1.5-0.3-1.5-1.5C215.2,249.3,215.2,242.8,215.2,236.2z M486.4,211.8c0.4-2.5-1-2.2-2.5-2.2
			c-0.8,0-1.7,0-2.5,0c-0.8,0-1.1,0.1-1.1,1.1c0,5.9,0,11.7,0,17.6c0,0.8,0.3,1.1,1.1,1.1c1.4,0,2.6-0.1,4,0c1.1,0,1.4-0.3,1.4-1.4
			c-0.1-3.8,0-7.5,0-11.3c0-1.1,0.4-1.7,1.4-2c2.5-0.8,4,0.1,4,2.8c0,3.6,0,7.1,0,10.7c0,0.8,0.3,1.1,1.1,1.1c1.4,0,2.6-0.1,4,0
			c1.3,0.1,1.5-0.4,1.5-1.5c0-3.8,0-7.4,0-11.2c0-0.6-0.1-1.1,0.4-1.5c1.1-0.7,2.4-1,3.6-0.6c1.3,0.4,1.4,1.5,1.4,2.6
			c0,2.4,0,4.6,0,7c0,1.7-0.7,3.9,0.3,4.7c1,0.8,3.2,0.3,4.9,0.3c0.1,0,0.3,0,0.6,0c0.7,0,0.8-0.3,0.8-0.8
			c-0.1-4.7,0.3-9.5-0.3-14.2c-0.3-3.2-2.2-4.9-5.3-5c-2.4-0.1-4.5,0.6-6.3,2.1c-0.6,0.6-1,0.7-1.5-0.1c-1-1.3-2.5-1.8-4-2
			C490.8,209.1,488.7,210.2,486.4,211.8z M356.1,216.3c0,3.9,0,7.9,0,11.8c0,1,0.3,1.3,1.3,1.3c3.2-0.1,6.4,0,9.6-0.1
			c6.1-0.3,10.2-3.3,11.4-8.6c0.6-2,0.6-3.9,0.4-6c-0.1-6.1-3.6-10.2-9.6-11.2c-3.9-0.7-7.9-0.1-11.8-0.3c-1.1,0-1.4,0.3-1.4,1.4
			C356.1,208.6,356.1,212.5,356.1,216.3z M404.3,262.3c0,2.5,0,5.2,0,7.7c0,1.8-0.8,4.2,0.4,5c1.1,0.8,3.3,0.1,5.2,0.3
			c1,0,1.3-0.3,1.3-1.3c0-2.6,0-5.3,0-7.9c0-0.7,0-1.1,1-1.1c2.4,0,4.7,0,7,0c0.7,0,1,0.3,1,1c0,1.4,0,2.8,0,4.2
			c0,1.7-0.7,3.9,0.3,4.9c1,0.8,3.2,0.1,4.9,0.3c1.3,0.1,1.5-0.3,1.5-1.5c-0.1-6.4,0-12.8,0-19.2c0-1.7,0.6-4-0.3-5
			c-1.1-1.1-3.5-0.1-5.3-0.4c-1-0.1-1.3,0.3-1.3,1.3c0,2.5,0,4.9,0,7.4c0,0.8-0.3,1.3-1.3,1.3c-2.2,0-4.3,0-6.6,0
			c-1,0-1.3-0.3-1.3-1.3c0-2.4,0-4.7,0-7.1c0-1-0.1-1.5-1.4-1.4s-2.5,0.1-3.6,0c-1.4-0.1-1.8,0.3-1.8,1.7
			C404.5,254.8,404.3,258.5,404.3,262.3z M408.8,212c0.4-2.1-0.6-2.5-2-2.4c-0.8,0.1-1.7,0.1-2.5,0c-1.3-0.1-1.5,0.3-1.5,1.5
			c0,7,0,13.9,0,20.9c0,1.7-0.7,3.8,0.3,4.9c1.1,1.1,3.2,0.1,5,0.4c1.1,0.1,1.4-0.4,1.4-1.4c0-2.5,0-4.9,0-7.5
			c6,3.1,11.2,1.1,13.1-4.7c1-2.8,1-5.7,0.1-8.5c-1.1-3.9-3.8-5.9-7.8-5.9C412.6,209.3,410.8,210.3,408.8,212z M508.6,257.4
			c0-3.2,0-6.1,0-9.1c0-0.8-0.3-1.1-1.1-1.1c-1.4,0-2.6,0.1-4,0c-1.3-0.1-1.5,0.4-1.4,1.5c0,7.1,0,14.4,0,21.5
			c0,1.7-0.7,3.9,0.3,4.7c1,0.8,3.2,0.1,4.9,0.3c1.1,0.1,1.4-0.3,1.4-1.4c0-3.8,0-7.5,0-11.3c0-0.4-0.1-1,0.3-1.4
			c1.4-0.8,2.8-1.1,4.3-0.6c1.3,0.4,1.4,1.7,1.4,2.8c0,2.2,0,4.6,0,6.8c0,1.7-0.7,3.9,0.3,4.7c1,0.8,3.2,0.3,4.9,0.3
			c0.1,0,0.3,0,0.6,0c0.7,0,0.8-0.3,0.8-0.8c-0.1-4.7,0.3-9.5-0.3-14.1c-0.3-3.2-2.2-4.7-5.4-5C513.1,255.2,510.8,256,508.6,257.4z
			 M443.4,220.1c0-1.3,0-2.5,0-3.9c-0.1-4-2-6-5.9-6.7c-2.1-0.4-4.2-0.4-6.3,0c-4.5,0.7-3.5-0.1-3.6,4.3c0,1.1,0.4,1.1,1.3,1
			c1.8-0.3,3.6-0.7,5.4-0.4c1,0.1,1.8,0.3,2.2,1.4c0.3,0.7,0.3,1.1-0.7,1.1c-1.4,0-2.9-0.1-4.3,0c-3.8,0.4-5.9,2.8-6,6.6
			c0,3.6,1.8,6,5,6.4c2.2,0.3,4.3,0,6.1-1.5c0.4-0.3,0.7-0.7,1.1,0c0.8,1.3,2.2,1.5,3.6,1.5c3.2,0,3.8-0.7,3.5-3.8
			c0-0.4,0.1-0.8-0.6-0.8c-1.4,0.1-1.1-0.8-1.1-1.7C443.4,222.4,443.4,221.3,443.4,220.1z M468.7,266.2c0-1.3,0-2.5,0-3.9
			c-0.1-4-2-6.1-5.9-6.8c-2.1-0.4-4.2-0.3-6.3,0c-4.5,0.7-3.3,0-3.5,4.3c0,1.1,0.3,1.3,1.4,1.1c1.8-0.3,3.5-0.7,5.3-0.4
			c1,0.1,2,0.3,2.4,1.4c0.3,0.8,0.3,1.3-0.7,1.3c-1.3,0-2.5,0-3.9,0c-4.2,0.3-6.7,3.1-6.4,7.4c0.3,3.8,2.6,5.9,7,5.7
			c1.7,0,3.1-0.6,4.3-1.7c0.3-0.3,0.6-0.7,1,0c1.3,2,3.3,1.8,5.3,1.5c1.7-0.3,2.8-2.6,2-4.2c-0.1-0.1-0.3-0.3-0.4-0.3
			c-1.7,0.1-1.3-1.1-1.3-2C468.7,268.4,468.7,267.3,468.7,266.2z M355.1,265.5c0,6.4,3.9,10.5,9.9,10.5c6.6,0,10.9-4,10.9-10.2
			c0-6.6-3.9-10.5-10.3-10.5C359.2,255.3,355.1,259.2,355.1,265.5z M541.5,212c0.6-2.4-0.6-2.5-2-2.4c-1,0.1-2,0.1-2.8,0
			c-1-0.1-1.3,0.3-1.3,1.3c0,5.7,0,11.6,0,17.3c0,0.8,0.3,1.3,1.1,1.1c1.4,0,2.8-0.1,4.2,0c1.1,0.1,1.3-0.3,1.3-1.3
			c0-3.8,0-7.7,0-11.4c0-0.6,0-1.3,0.7-1.5c1.4-0.6,2.8-1,4.2-0.3c1.3,0.7,1.1,2,1.1,3.1c0,3.5,0,6.8,0,10.3c0,0.8,0.1,1.3,1.1,1.1
			c1.5-0.1,3.1,0,4.5,0c0.6,0,1,0,1-0.8c-0.1-4.9,0.4-9.8-0.3-14.6c-0.4-2.9-2.4-4.5-5.4-4.6C546.2,209.2,543.9,210,541.5,212z
			 M531.5,223.8c-1.4,0.4-2.5,0.7-3.6,1c-1.1,0.3-2.4,0.3-3.5,0.1c-1.4-0.1-2.6-0.7-3.2-2c-0.4-1-0.4-1.5,0.8-1.5
			c2.1,0.1,4.2,0,6.4,0c3.9,0,3.9,0,3.8-3.9c-0.1-2.9-1.1-5.6-3.8-7.2c-5.4-3.2-12.5-0.1-13.8,5.9c-0.3,1.5-0.4,2.9-0.3,4.5
			c0.3,5,3.3,8.4,8.2,9.1c2,0.3,3.9,0.1,5.9-0.3c3.3-0.7,3.3-0.7,3.3-4C531.5,225.1,531.5,224.5,531.5,223.8z M447.4,269.7
			c-2.2,0.8-4.5,1.5-7,1.3c-1.5-0.1-2.8-0.7-3.3-2.2c-0.3-0.8-0.1-1.3,0.8-1.3c2.2,0,4.3,0,6.6,0c3.9,0,4,0,3.8-4
			c-0.1-2.9-1.1-5.4-3.8-7.1c-5.4-3.3-12.5-0.1-13.9,6c-0.3,1.4-0.4,2.8-0.3,4.2c0.3,5,3.1,8.4,8.1,9.2c1.5,0.3,3.1,0.3,4.6,0
			c4.7-0.7,4.9-1,4.7-5.7C447.6,270.1,447.4,270.1,447.4,269.7z M398.8,223.8c-1.3,0.4-2.4,0.7-3.5,1c-1.1,0.3-2.4,0.3-3.5,0.3
			c-1.4-0.1-2.6-0.6-3.3-2c-0.6-1-0.6-1.7,1-1.5c2.1,0.1,4.2,0,6.4,0c3.8,0,3.8,0,3.6-3.8c-0.1-3.1-1.1-5.7-3.9-7.4
			c-5.3-3.1-12.1-0.3-13.7,5.7c-0.4,1.5-0.6,3.2-0.4,4.7c0.4,3.9,2.1,7.1,6,8.4c3.6,1.3,7.1,0.8,10.6-0.4c0.6-0.1,0.8-0.6,0.7-1.1
			C398.6,226.5,398.8,225.2,398.8,223.8z M380.2,267.9c0,0.8,0,1.7,0,2.5c0.1,1.7-0.7,3.9,0.3,4.7c1,0.8,3.2,0.1,4.9,0.3
			c1.1,0.1,1.4-0.4,1.4-1.4c0-3.8,0.1-7.7,0-11.4c0-1.7,0.4-2.4,2.2-2.1c1.5,0.3,2.2-0.1,2.1-2c-0.1-2.6,0-2.6-2.9-2.8
			c-0.4,0-1,0.3-1.3-0.4c-0.4-1,0.3-2.8,1.4-3.2c0.8-0.4,1.8-0.3,2.6,0c0.8,0.3,1.3,0,1.1-1c-0.3-4.6,1.1-4.2-4.2-4.3
			c-0.4,0-0.8,0-1.4,0c-3.3,0.3-5.7,2.2-6.1,5.2c-0.1,0.8-0.1,1.8-0.1,2.6c0,0.8-0.1,1.3-1.1,1.1c-1.5-0.3-2.1,0.4-1.8,1.8
			c0,0.4,0,0.8,0,1.1c-0.1,1.3,0.1,2.1,1.7,1.8c1.1-0.3,1.3,0.4,1.3,1.4C380.2,263.7,380.2,265.8,380.2,267.9z M559.9,219.8
			c0,1.4,0,2.8,0,4.2c0.1,3.8,2.4,5.9,6,6c0.7,0,1.4,0,2,0c3.5-0.1,3.5-0.1,3.6-3.6c0-1.5-0.3-2-1.8-1.5c-2.2,0.7-3.1-0.1-3.1-2.4
			c0-2,0-3.8,0-5.7c0-2.4,0-2.4,2.4-2.4s2.4,0,2.4-2.4c0-2.4,0-2.4-2.4-2.4c-0.4,0-0.8,0-1.1,0c-1,0.1-1.3-0.3-1.3-1.3
			c0-1.4,0.7-3.3-0.3-4.2c-1-0.7-2.8-0.3-4.2-0.3c-0.1,0-0.3,0-0.3,0c-1.3-0.1-1.8,0.3-1.7,1.5c0.1,0.8,0,1.8,0,2.6
			c0.1,1-0.3,1.5-1.4,1.3c-1.4-0.3-2,0.4-1.7,1.8c0,0.4,0,0.8,0,1.1c-0.3,1.4,0.3,2.1,1.8,1.8c1.1-0.3,1.3,0.4,1.3,1.4
			C559.9,217,559.9,218.4,559.9,219.8z M465.7,219.7c0,1.4,0,2.9,0,4.3c0.1,3.5,2,5.6,5.2,6c0.8,0.1,1.8,0.1,2.6,0
			c3.6-0.1,3.6-0.1,3.6-3.8c0-0.3,0-0.7,0-1c0-0.7-0.3-0.8-0.8-0.7c-0.4,0.1-1,0.3-1.5,0.3c-1.8,0.3-2.6-0.4-2.6-2.2
			c0-1.5,0-3.1,0-4.6c0-3.6,0-3.6,3.5-3.8c0.1,0,0.3,0,0.6,0c0.4,0,0.7-0.1,0.7-0.7c0.6-3.3,0.1-4-3.2-4c-0.1,0-0.3,0-0.6,0
			c-0.8,0.1-1-0.3-1.1-1c0-1.5,0.7-3.5-0.3-4.3c-1.1-0.7-2.9-0.3-4.6-0.3c-0.1,0-0.3,0-0.6,0c-0.8-0.1-1.3,0.3-1.1,1.1
			c0,1.1,0,2.1,0,3.2c0.1,1.1-0.4,1.4-1.4,1.3c-1.5-0.3-1.8,0.4-1.7,1.8c0,0.4,0,0.8,0,1.4c-0.1,1.3,0.3,1.8,1.7,1.7
			c1.1-0.1,1.5,0.3,1.4,1.4C465.5,217,465.7,218.4,465.7,219.7z M498.8,270.5c-0.8,0.1-1.5,0.4-2.2,0.4c-2,0.3-2.6-0.4-2.6-2.4
			c0-1.4,0-2.8,0-4.2c0-1.3-0.6-2.9,0.3-3.9c0.7-0.8,2.4-0.3,3.5-0.3c0.7,0,1-0.3,1-1c0.3-3.8,0.3-3.8-3.5-3.8h-0.1
			c-0.8,0.1-1.1-0.3-1.1-1.1c0-1.1,0-2.4,0-3.5c0-0.4,0-1-0.7-1c-2,0-4-0.4-5.6,0.3c-1,0.4-0.1,2.6-0.3,4v0.1c0.1,0.8-0.3,1.1-1.1,1
			c-1.7-0.3-2.2,0.6-2,2.1c0,0.4,0,0.8,0,1.1c-0.1,1.3,0.3,1.8,1.5,1.5c1.1-0.1,1.5,0.3,1.5,1.4c-0.1,2.6,0,5.3,0,7.9
			c0,3.5,1.5,5.4,4.6,6.1c2.1,0.4,4,0.1,6.1-0.3c0.6-0.1,0.8-0.4,0.8-1.1C498.8,273.3,498.8,271.9,498.8,270.5z M207.4,204
			c2.2,0,4.5,0,6.7,0c0.8,0,1-0.3,1-1c0-4,0-7.9,0-12c0-0.7-0.1-1.1-1-1.1c-4.5,0-8.8,0-13.2,0c-0.8,0-1.1,0.3-1,1c0,4,0,7.9,0,12
			c0,1,0.4,1.1,1.3,1.1C203.2,204,205.3,204,207.4,204z M473.6,260.2c0,3.8,0,7.4,0,11.2c0,2.9,1.4,4.5,4.3,4.6c0.7,0,1.4,0,2.2,0
			c3.3-0.1,3.3-0.3,3.3-3.6c0-1,0-1.7-1.3-1.4c-1.5,0.3-2.1-0.4-2-2c0-5.6,0-11.2,0-16.7c0-1.7,0.7-3.9-0.3-4.7
			c-1-0.8-3.2-0.1-4.9-0.3c-1.1-0.1-1.4,0.3-1.4,1.4C473.8,252.6,473.6,256.5,473.6,260.2z M454.5,213.1c-0.6-1.3,0.4-2.6-0.7-3.2
			c-0.8-0.4-2.2-0.1-3.3-0.1c-0.3,0-0.7,0-1,0c-1.1-0.1-1.4,0.3-1.4,1.4c0,4.3,0,8.8,0,13.1c0,1.7-0.7,3.9,0.3,4.9
			c1.1,1.1,3.3,0.1,5.2,0.4c1,0.1,1.3-0.3,1.1-1.3c0-3.2,0-6.4,0-9.6c0-1,0.4-1.5,1.3-1.8c0.7-0.1,1.3-0.4,2-0.7
			c1.3-0.6,3.1,0.3,3.6-0.8s0.1-2.6,0.1-3.9v-0.1c0.3-1.7-0.6-1.8-2-1.5C457.6,209.9,456.2,211.4,454.5,213.1z M312.8,240.7
			c0,16.4,0,32.9,0,49.3c0,0.4,0,0.8,0,1.4c0,0.3,0.1,0.6,0.6,0.6c0.4,0,0.6-0.1,0.6-0.6c0-0.4,0-0.8,0-1.1c0-32.9,0-65.8,0-98.7
			c0-0.4,0-0.8,0-1.1s-0.1-0.6-0.6-0.6c-0.3,0-0.6,0.1-0.6,0.6c0,0.4,0,0.8,0,1.4C312.8,208.1,312.8,224.4,312.8,240.7z"/>
		<path class="st1" d="M149.7,219.8c2.4-2.9,5.3-4.9,8.9-5.6c8.1-1.5,15.2,0,20.5,6.7c2.8,3.5,3.3,7.8,3.6,12.1
			c0.3,7.7,0.1,15.2,0.1,22.9c0,1.3,0.3,1.7,1.5,1.5c3.8-0.1,3.8,0,3.8,3.8c0,1.5,0,3.1,0,4.6c0,0.8-0.1,1.1-1.1,1.1
			c-7.8,0-15.5,0-23.3,0c-1,0-1.1-0.4-1.1-1.1c0-2.5,0-4.9,0-7.4c0-0.8,0.3-1.1,1.1-1.1c1.1,0,2.6,0.6,3.3-0.3
			c0.8-0.8,0.3-2.4,0.3-3.6c0-5.3,0-10.7-0.1-16c0-3.1-0.8-5.9-2.9-8.1c-3.3-3.5-12.1-2.9-14.1,3.6c-0.4,1.5-0.7,3.1-0.7,4.7
			c0,6,0,12.1,0,18.1c0,1.1,0.3,1.5,1.5,1.4c3.2,0,3.2,0,3.2,3.3c0,1.8,0,3.6,0,5.3c0,0.8-0.3,1-1.1,1c-7.8,0-15.6,0-23.4,0
			c-0.7,0-1-0.3-1-1c0-2.6,0-5.2,0-7.8c0-0.7,0.3-1,1-0.8h0.1c1.4,0,3.2,0.4,3.9-0.3c1-0.8,0.3-2.8,0.3-4.2c0-17.3,0-34.4,0-51.7
			c0-1.4-0.4-1.7-1.8-1.7c-3.6,0.1-3.6,0-3.6-3.6c0-1.7,0-3.2,0-4.9c0-0.8,0.1-1.4,1.1-1.3c6.1,0,12.3,0,18.4,0
			c1.3,0,1.1,0.8,1.1,1.5c0,8.8,0,17.7,0,26.5C149.4,218.4,149.3,219.1,149.7,219.8z"/>
		<path class="st1" d="M252.7,267.9c-15.1,0-26.5-11.7-26.5-27c0-14.8,12.1-26.6,26.9-26.6c15.1,0,26.9,11.8,26.9,26.9
			C280,256.5,268.3,267.9,252.7,267.9z M265.4,241.7c0-4-1-7.1-2.9-9.9c-4.5-6.6-14.8-6.3-19,0.4c-3.3,5.4-3.6,11-0.6,16.6
			c3.2,6,11,8.1,16.6,4.3C263.7,250.3,265.1,245.9,265.4,241.7z"/>
		<path class="st2" d="M123.9,228.6c0,22.3-17.8,40.3-40.1,40.1c-21.9-0.1-40.4-17.7-40-41.3c0.6-22.3,18.7-39.9,41.1-39.3
			C108.2,188.7,124.5,207.9,123.9,228.6z M84.2,194.8c-2.8,0-5.6,0.3-8.2,1c-19.2,5-30,26.1-22.7,44.7c5.9,15.1,21.5,23.8,36.5,20.9
			c18.8-3.6,29.1-21.7,26.9-37.1C114.3,207.7,101.2,195.4,84.2,194.8z"/>
		<path class="st3" d="M215.2,236.2c0,6.6,0,13.1,0,19.7c0,1.1,0.3,1.5,1.5,1.5c1.3-0.1,2.8-0.4,3.5,0.1c0.8,0.7,0.3,2.4,0.3,3.6
			c0,1.5,0,3.1,0,4.6c0,0.8-0.1,1.1-1.1,1.1c-7.9,0-15.8,0-23.7,0c-1,0-1.1-0.3-1.1-1.1c0-2.5,0-4.9,0-7.4c0-0.8,0.3-1.3,1.1-1.1
			h0.1c1.3-0.1,2.9,0.6,3.6-0.3c0.6-0.8,0.3-2.5,0.3-3.8c0-9.1,0-18,0-27c0-1.3-0.1-1.8-1.7-1.8c-3.5,0.1-3.5,0-3.5-3.5
			c0-1.7,0-3.3,0-5c0-0.8,0.1-1.3,1.1-1.3c6.1,0,12.4,0,18.5,0c1.3,0,1,0.7,1,1.4C215.2,223,215.2,229.6,215.2,236.2z"/>
		<path class="st4" d="M486.4,211.8c2.2-1.7,4.3-2.8,7-2.5c1.7,0.1,3.1,0.7,4,2c0.6,0.7,1,0.7,1.5,0.1c1.8-1.5,3.9-2.2,6.3-2.1
			c2.9,0.1,4.9,1.8,5.3,5c0.6,4.7,0.1,9.5,0.3,14.2c0,0.7-0.3,1-0.8,0.8c-0.1,0-0.3,0-0.6,0c-1.7,0-3.9,0.6-4.9-0.3
			c-1.1-0.8-0.3-3.1-0.3-4.7c0-2.4,0-4.6,0-7c0-1.1-0.1-2.1-1.4-2.6c-1.3-0.6-2.5-0.1-3.6,0.6c-0.6,0.4-0.4,1-0.4,1.5
			c0,3.8,0,7.4,0,11.2c0,1.1-0.3,1.5-1.5,1.5c-1.4-0.1-2.6-0.1-4,0c-0.8,0-1.1-0.3-1.1-1.1c0-3.6,0-7.1,0-10.7c0-2.8-1.5-3.8-4-2.8
			c-1,0.3-1.4,0.8-1.4,2c0.1,3.8,0,7.5,0,11.3c0,1.1-0.4,1.4-1.4,1.4c-1.4-0.1-2.6,0-4,0c-0.8,0-1.1-0.1-1.1-1.1
			c0-5.9,0-11.7,0-17.6c0-1,0.3-1.1,1.1-1.1c0.8,0,1.7,0,2.5,0C485.5,209.6,486.9,209.5,486.4,211.8z"/>
		<path class="st5" d="M356.1,216.3c0-3.9,0-7.8,0-11.7c0-1.1,0.3-1.4,1.4-1.4c3.9,0.1,7.9-0.3,11.8,0.3c6,1,9.5,5,9.6,11.2
			c0,2,0,4-0.4,6c-1.4,5.3-5.4,8.4-11.4,8.6c-3.2,0.1-6.4,0-9.6,0.1c-1,0-1.3-0.3-1.3-1.3C356.1,224.3,356.1,220.4,356.1,216.3z
			 M372,215.9c0-2.2-0.3-4.9-3.3-6.1c-1.5-0.7-3.2-0.7-4.9-0.7c-0.7,0-0.8,0.3-0.8,0.8c0,4.2,0,8.5,0,12.7c0,0.7,0.3,0.8,0.8,0.8
			C368.4,223.4,371.9,223,372,215.9z"/>
		<path class="st6" d="M404.3,262.3c0-3.8,0.1-7.5,0-11.3c0-1.4,0.4-1.8,1.8-1.7c1.3,0.1,2.5,0.1,3.6,0c1.1-0.1,1.4,0.4,1.4,1.4
			c0,2.4,0,4.7,0,7.1c0,1,0.3,1.3,1.3,1.3c2.2,0,4.3,0,6.6,0c1,0,1.3-0.4,1.3-1.3c0-2.5,0-4.9,0-7.4c0-1,0.3-1.3,1.3-1.3
			c1.8,0.1,4.2-0.7,5.3,0.4c0.8,0.8,0.3,3.2,0.3,5c0,6.4,0,12.8,0,19.2c0,1.3-0.4,1.7-1.5,1.5c-1.7-0.1-3.9,0.6-4.9-0.3
			c-1.1-1-0.3-3.2-0.3-4.9c0-1.4,0-2.8,0-4.2c0-0.7-0.3-1-1-1c-2.4,0-4.7,0-7,0c-1,0-1,0.4-1,1.1c0,2.6,0,5.3,0,7.9
			c0,1-0.3,1.3-1.3,1.3c-1.8-0.1-4,0.6-5.2-0.3c-1.1-1-0.3-3.3-0.4-5C404.3,267.5,404.3,265,404.3,262.3z"/>
		<path class="st4" d="M408.8,212c2-1.7,3.8-2.6,5.9-2.6c4,0,6.8,2,7.8,5.9c0.7,2.8,0.7,5.7-0.1,8.5c-2,5.9-7.1,7.8-13.1,4.7
			c0,2.5,0,5,0,7.5c0,1-0.1,1.5-1.4,1.4c-1.7-0.1-3.9,0.7-5-0.4c-1-1-0.3-3.2-0.3-4.9c0-7,0-13.9,0-20.9c0-1.3,0.3-1.7,1.5-1.5
			c0.8,0.1,1.7,0.1,2.5,0C408.4,209.5,409.2,209.8,408.8,212z M409.4,219.4c0,1.1,0,2.4,0,3.5c0,0.4,0,0.7,0.3,1.1
			c1.4,1.4,4.3,1.3,5.6-0.3c1.4-1.8,1.4-6.3,0.1-8.1c-1-1.3-2.6-1.5-4.7-1c-1.8,0.4-1.1,1.8-1.3,2.8
			C409.4,218.1,409.4,218.8,409.4,219.4z"/>
		<path class="st4" d="M508.6,257.4c2.2-1.4,4.5-2.2,7-2.1c3.2,0.3,5.2,1.8,5.4,5c0.6,4.7,0.1,9.5,0.3,14.1c0,0.6-0.1,1-0.8,0.8
			c-0.1,0-0.3,0-0.6,0c-1.7,0-3.8,0.6-4.9-0.3c-1.1-0.8-0.3-3.1-0.3-4.7c0-2.2,0-4.6,0-6.8c0-1.1-0.1-2.2-1.4-2.8
			c-1.5-0.6-2.9-0.3-4.3,0.6c-0.6,0.3-0.3,0.8-0.3,1.4c0,3.8,0,7.5,0,11.3c0,1.1-0.3,1.5-1.4,1.4c-1.7-0.1-3.9,0.6-4.9-0.3
			c-1.1-0.8-0.3-3.1-0.3-4.7c0-7.1,0-14.4,0-21.5c0-1.1,0.3-1.5,1.4-1.5c1.4,0.1,2.6,0.1,4,0c0.8,0,1.1,0.3,1.1,1.1
			C508.6,251.4,508.6,254.4,508.6,257.4z"/>
		<path class="st4" d="M443.4,220.1c0,1.3,0,2.5,0,3.6c0,0.8-0.3,1.8,1.1,1.7c0.6,0,0.4,0.6,0.6,0.8c0.3,3.1-0.3,3.8-3.5,3.8
			c-1.5,0-2.8-0.3-3.6-1.5c-0.4-0.7-0.7-0.4-1.1,0c-1.8,1.5-3.9,1.8-6.1,1.5c-3.2-0.4-5.2-2.8-5-6.4c0-3.8,2.2-6.1,6-6.6
			c1.4-0.1,2.9-0.1,4.3,0c1,0,1-0.4,0.7-1.1c-0.4-1.1-1.4-1.3-2.2-1.4c-1.8-0.3-3.6,0.1-5.4,0.4c-1,0.1-1.4,0.1-1.3-1
			c0.1-4.5-0.8-3.6,3.6-4.3c2.1-0.3,4.2-0.3,6.3,0c3.9,0.7,5.7,2.6,5.9,6.7C443.4,217.4,443.4,218.8,443.4,220.1z M436.7,222.4
			c-0.1-0.4,0.4-1.3-0.3-1.7c-0.8-0.6-3.5,0.1-4,1.1c-0.4,0.8-0.6,2,0.1,2.6c0.8,1,2.1,0.6,3.1,0.3
			C437,224.5,436.8,223.6,436.7,222.4z"/>
		<path class="st4" d="M468.7,266.2c0,1.1,0,2.2,0,3.3c0,0.8-0.4,2.1,1.3,2c0.1,0,0.3,0.1,0.4,0.3c0.8,1.5-0.3,3.9-2,4.2
			c-2,0.3-3.9,0.4-5.3-1.5c-0.4-0.7-0.7-0.3-1,0c-1.3,1.1-2.6,1.5-4.3,1.7c-4.2,0.1-6.7-2-7-5.7c-0.3-4.3,2.2-7.1,6.4-7.4
			c1.3-0.1,2.5-0.1,3.9,0c1.1,0,1.1-0.4,0.7-1.3c-0.4-1.1-1.4-1.3-2.4-1.4c-1.8-0.3-3.6,0.1-5.3,0.4c-1,0.1-1.4,0.1-1.4-1.1
			c0.1-4.3-0.8-3.5,3.5-4.3c2.1-0.3,4.2-0.4,6.3,0c4,0.7,5.7,2.8,5.9,6.8C468.7,263.6,468.7,265,468.7,266.2z M462.2,268.6
			c0-2.1,0-2.1-2.1-2c-1.8,0.1-2.6,1.1-2.5,2.6c0.1,1.4,1,2,2.2,1.8C461.2,270.9,462.5,270.8,462.2,268.6z"/>
		<path class="st7" d="M355.1,265.5c0-6.3,4-10.2,10.6-10.2c6.4,0,10.3,4,10.3,10.5c0,6.1-4.3,10.2-10.9,10.2
			C359,276,355.1,271.9,355.1,265.5z M369.2,265.8c0-1.3-0.1-2.4-0.7-3.5c-0.6-1.1-1.5-2-2.9-2c-1.4,0-2.4,0.7-2.9,1.8
			c-1.1,2.4-1.1,4.9,0.1,7.1s4,2.2,5.4,0.1C368.9,268.4,369.2,267.2,369.2,265.8z"/>
		<path class="st4" d="M541.5,212c2.4-2,4.7-2.8,7.4-2.6c3.1,0.1,5,1.7,5.4,4.6c0.7,4.9,0.1,9.8,0.3,14.6c0,0.7-0.4,0.8-1,0.8
			c-1.5,0-3.1,0-4.5,0c-1,0-1.1-0.3-1.1-1.1c0-3.5,0-6.8,0-10.3c0-1.1,0.1-2.5-1.1-3.1c-1.4-0.7-2.8-0.4-4.2,0.3
			c-0.7,0.3-0.7,1-0.7,1.5c0,3.8,0,7.7,0,11.4c0,1-0.3,1.4-1.3,1.3c-1.4-0.1-2.8-0.1-4.2,0c-0.8,0-1.1-0.3-1.1-1.1
			c0-5.7,0-11.6,0-17.3c0-0.8,0.3-1.4,1.3-1.3c1,0.1,2,0.1,2.8,0C540.9,209.5,542.1,209.8,541.5,212z"/>
		<path class="st4" d="M531.5,223.8c0,0.7,0,1.3,0,2c0,3.3,0,3.3-3.3,4c-2,0.4-3.9,0.6-5.9,0.3c-4.9-0.7-7.8-4-8.2-9.1
			c-0.1-1.5,0-2.9,0.3-4.5c1.4-6.1,8.5-9.2,13.8-5.9c2.6,1.7,3.6,4.2,3.8,7.2c0.3,3.9,0.1,3.9-3.8,3.9c-2.1,0-4.2,0-6.4,0
			c-1.4,0-1.4,0.6-0.8,1.5c0.7,1.4,1.8,1.8,3.2,2c1.1,0.1,2.4,0.1,3.5-0.1C529,224.5,530.1,224.1,531.5,223.8z M523.5,217.3
			c0.7-0.3,2,0.6,2.4-0.4c0.3-0.8-0.3-1.8-1.3-2.4c-1.1-0.6-2.2-0.4-3.1,0.4c-0.6,0.6-1,1.4-0.8,2.1c0.3,0.7,1.1,0.1,1.7,0.3
			C522.8,217.4,523.1,217.3,523.5,217.3z"/>
		<path class="st4" d="M447.4,269.7c0.1,0.3,0.1,0.4,0.1,0.6c0.3,4.7,0,5-4.7,5.7c-1.5,0.3-3.1,0.3-4.6,0c-4.9-0.8-7.8-4.2-8.1-9.2
			c0-1.4,0-2.8,0.3-4.2c1.3-6.1,8.5-9.3,13.9-6c2.6,1.5,3.6,4.2,3.8,7.1c0.3,4,0.3,4-3.8,4c-2.2,0-4.3,0-6.6,0c-1,0-1.1,0.3-0.8,1.3
			c0.6,1.5,2,2.1,3.3,2.2C442.8,271.4,445,270.7,447.4,269.7z M439.3,263.4c0.3,0,0.6,0,0.8,0c0.6-0.1,1.7,0.6,1.8-0.4
			c0.1-1-0.4-1.8-1.3-2.4c-1.1-0.6-2.8-0.1-3.3,0.8c-0.3,0.6-0.7,1.1-0.4,1.7c0.3,0.6,1,0.3,1.5,0.3
			C438.8,263.4,439.1,263.4,439.3,263.4z"/>
		<path class="st4" d="M398.8,223.8c0,1.4,0,2.6,0,4c0,0.6-0.3,1-0.7,1.1c-3.5,1.3-7.1,1.7-10.6,0.4c-3.9-1.4-5.6-4.5-6-8.4
			c-0.1-1.7,0-3.2,0.4-4.7c1.5-6,8.4-8.8,13.7-5.7c2.8,1.7,3.8,4.3,3.9,7.4c0.1,3.8,0.1,3.8-3.6,3.8c-2.1,0-4.2,0-6.4,0
			c-1.5,0-1.4,0.7-1,1.5c0.7,1.3,2,1.8,3.3,2c1.1,0.1,2.4,0.1,3.5-0.3C396.3,224.4,397.4,224.1,398.8,223.8z M390.7,217.3
			c0.3,0,0.6,0,0.8,0c0.6-0.1,1.7,0.6,1.8-0.4c0.1-1-0.4-2-1.3-2.4c-1.3-0.6-2.4-0.4-3.3,0.7c-0.4,0.6-0.8,1.3-0.6,1.8
			c0.3,0.6,1,0.1,1.5,0.3C390,217.4,390.3,217.3,390.7,217.3z"/>
		<path class="st4" d="M380.2,267.9c0-2.1,0-4,0-6.1c0-1-0.1-1.5-1.3-1.4c-1.5,0.3-1.8-0.4-1.7-1.8c0-0.4,0-0.8,0-1.1
			c-0.3-1.4,0.3-2.1,1.8-1.8c1,0.1,1.1-0.3,1.1-1.1s-0.1-1.8,0.1-2.6c0.6-2.9,2.8-4.7,6.1-5.2c0.4,0,0.8,0,1.4,0
			c5.3,0.1,3.9-0.3,4.2,4.3c0,1-0.3,1.3-1.1,1c-0.8-0.3-1.8-0.3-2.6,0c-1.1,0.4-1.8,2.2-1.4,3.2c0.3,0.6,0.8,0.4,1.3,0.4
			c2.8,0.1,2.6,0.1,2.9,2.8c0.1,1.8-0.6,2.2-2.1,2c-1.8-0.3-2.2,0.4-2.2,2.1c0.1,3.8,0,7.7,0,11.4c0,1-0.1,1.5-1.4,1.4
			c-1.7-0.1-3.8,0.6-4.9-0.3c-1.1-0.8-0.3-3.1-0.3-4.7C380.2,269.6,380.2,268.7,380.2,267.9z"/>
		<path class="st4" d="M559.9,219.8c0-1.4,0-2.8,0-4.2c0-1-0.1-1.5-1.3-1.4c-1.5,0.3-2-0.4-1.8-1.8c0-0.4,0-0.8,0-1.1
			c-0.3-1.4,0.3-2,1.7-1.8c1,0.1,1.4-0.3,1.4-1.3c0-0.8,0.1-1.8,0-2.6c-0.1-1.4,0.4-1.8,1.7-1.5c0.1,0,0.3,0,0.3,0
			c1.4,0,3.3-0.4,4.2,0.3c1,0.7,0.3,2.6,0.3,4.2c0,1,0.3,1.3,1.3,1.3c0.4,0,0.8,0,1.1,0c2.4,0,2.4,0,2.4,2.4s0,2.4-2.4,2.4
			s-2.4,0-2.4,2.4c0,2,0,3.8,0,5.7c0,2.2,0.8,3.1,3.1,2.4c1.5-0.4,2-0.1,1.8,1.5c-0.1,3.5,0,3.5-3.6,3.6c-0.7,0-1.4,0-2,0
			c-3.6-0.1-5.9-2.2-6-6C559.9,222.6,559.9,221.2,559.9,219.8z"/>
		<path class="st4" d="M465.7,219.7c0-1.4-0.1-2.6,0-4c0.1-1.1-0.4-1.5-1.4-1.4c-1.4,0.3-1.8-0.4-1.7-1.7c0-0.4,0-0.8,0-1.4
			c-0.1-1.4,0.3-2,1.7-1.8c1,0.1,1.4-0.3,1.4-1.3c-0.1-1.1,0-2.1,0-3.2c0-0.8,0.3-1.3,1.1-1.1c0.1,0,0.3,0,0.6,0
			c1.5,0,3.5-0.4,4.6,0.3c1,0.7,0.3,2.8,0.3,4.3c0,0.8,0.3,1.1,1.1,1c0.1,0,0.3,0,0.6,0c3.3,0,3.9,0.7,3.2,4
			c-0.1,0.4-0.3,0.7-0.7,0.7c-0.1,0-0.3,0-0.6,0c-3.5,0.1-3.5,0.1-3.5,3.8c0,1.5,0,3.1,0,4.6c0,1.8,0.7,2.5,2.6,2.2
			c0.6,0,1-0.1,1.5-0.3c0.7-0.1,1,0,0.8,0.7c0,0.3,0,0.7,0,1c0,3.6,0,3.6-3.6,3.8c-0.8,0-1.8,0-2.6,0c-3.2-0.4-5-2.5-5.2-6
			C465.5,222.6,465.7,221.2,465.7,219.7z"/>
		<path class="st4" d="M498.8,270.5c0,1.4,0,2.8,0,4c0,0.6-0.3,1-0.8,1.1c-2.1,0.4-4,0.7-6.1,0.3c-3.1-0.6-4.5-2.6-4.6-6.1
			c0-2.6-0.1-5.3,0-7.9c0-1.3-0.4-1.7-1.5-1.4c-1.3,0.3-1.7-0.3-1.5-1.5c0-0.4,0-0.8,0-1.1c-0.3-1.5,0.3-2.4,2-2.1
			c0.7,0.1,1.1-0.3,1.1-1v-0.1c0.1-1.4-0.6-3.6,0.3-4c1.7-0.7,3.8-0.3,5.6-0.3c0.7,0,0.7,0.4,0.7,1c0,1.1,0,2.4,0,3.5
			c0,0.8,0.3,1.3,1.1,1.1h0.1c3.8,0.1,3.8,0.1,3.5,3.8c0,0.7-0.3,1-1,1c-1.3,0-2.8-0.6-3.5,0.3c-0.8,1-0.1,2.5-0.3,3.9
			c0,1.4,0,2.8,0,4.2c0,2,0.8,2.6,2.6,2.4C497.3,270.8,498,270.7,498.8,270.5z"/>
		<path class="st3" d="M207.4,204c-2.1,0-4.2,0-6.4,0c-0.8,0-1.3-0.1-1.3-1.1c0-4,0-7.9,0-12c0-0.8,0.3-1.1,1-1c4.5,0,8.8,0,13.2,0
			c0.8,0,1,0.3,1,1.1c0,4,0,7.9,0,12c0,0.8-0.3,1.1-1,1C211.9,204,209.6,204,207.4,204z"/>
		<path class="st4" d="M473.6,260.2c0-3.9,0-7.7,0-11.6c0-1.1,0.3-1.5,1.4-1.4c1.7,0.1,3.8-0.6,4.9,0.3c1.1,0.8,0.3,3.1,0.3,4.7
			c0,5.6,0,11.2,0,16.7c0,1.5,0.4,2.2,2,2c1.3-0.3,1.3,0.4,1.3,1.4c0,3.3-0.1,3.3-3.3,3.6c-0.7,0-1.4,0-2.2,0
			c-2.9-0.1-4.3-1.7-4.3-4.6C473.6,267.7,473.6,264,473.6,260.2z"/>
		<path class="st8" d="M454.5,213.1c1.5-1.7,3.1-3.2,5.2-3.6c1.4-0.3,2.2-0.1,2,1.5v0.1c0,1.4,0.4,2.9-0.1,3.9
			c-0.6,1.3-2.4,0.4-3.6,0.8c-0.6,0.3-1.3,0.4-2,0.7c-1,0.3-1.3,0.8-1.3,1.8c0,3.2,0,6.4,0,9.6c0,0.8-0.1,1.4-1.1,1.3
			c-1.8-0.1-4,0.7-5.2-0.4c-1-1-0.3-3.2-0.3-4.9c0-4.3,0-8.8,0-13.1c0-1.1,0.3-1.5,1.4-1.4c0.3,0,0.7,0,1,0c1.1,0,2.4-0.3,3.3,0.1
			C454.9,210.3,454,211.8,454.5,213.1z"/>
		<path class="st9" d="M312.8,240.7c0-16.3,0-32.6,0-49.1c0-0.4,0-0.8,0-1.4c0-0.3,0.1-0.6,0.6-0.6c0.4,0,0.6,0.1,0.6,0.6
			c0,0.4,0,0.8,0,1.1c0,32.9,0,65.8,0,98.7c0,0.4,0,0.8,0,1.1c0,0.3-0.1,0.6-0.6,0.6c-0.3,0-0.6-0.1-0.6-0.6c0-0.4,0-0.8,0-1.4
			C312.8,273.6,312.8,257.1,312.8,240.7z"/>
		<path class="st10" d="M265.4,241.7c-0.3,4.2-1.7,8.6-5.9,11.4c-5.6,3.8-13.4,1.8-16.6-4.3c-2.9-5.6-2.8-11.2,0.6-16.6
			c4.2-6.7,14.5-7,19-0.4C264.3,234.6,265.2,237.6,265.4,241.7z"/>
		<path class="st0" d="M84.2,194.8c17,0.4,30.1,12.8,32.5,29.5c2.1,15.2-8.2,33.5-26.9,37.1c-15.1,2.9-30.7-6-36.5-20.9
			c-7.2-18.7,3.5-39.7,22.7-44.7C78.7,195.1,81.4,194.8,84.2,194.8z"/>
		<path class="st10" d="M372,215.9c0,7.1-3.6,7.5-8.2,7.5c-0.7,0-0.8-0.3-0.8-0.8c0-4.2,0-8.5,0-12.7c0-0.6,0.1-1,0.8-0.8
			c1.7,0.1,3.3,0,4.9,0.7C371.6,211,371.9,213.7,372,215.9z"/>
		<path class="st10" d="M409.4,219.4c0-0.7,0-1.4,0-2c0.1-1-0.6-2.4,1.3-2.8c2.1-0.6,3.8-0.3,4.7,1c1.3,1.8,1.3,6.3-0.1,8.1
			c-1.3,1.5-4.2,1.7-5.6,0.3c-0.3-0.3-0.3-0.7-0.3-1.1C409.4,221.7,409.4,220.6,409.4,219.4z"/>
		<path class="st11" d="M436.7,222.4c0,1.1,0.3,2.1-1,2.5c-1.1,0.3-2.2,0.6-3.1-0.3c-0.7-0.7-0.6-1.7-0.1-2.6c0.4-1,3.2-1.8,4-1.1
			C437.1,221.2,436.7,222,436.7,222.4z"/>
		<path class="st11" d="M462.2,268.6c0.3,2.2-0.8,2.4-2.4,2.5c-1.3,0.1-2.2-0.3-2.2-1.8c-0.1-1.5,0.8-2.4,2.5-2.6
			C462.2,266.5,462.2,266.5,462.2,268.6z"/>
		<path class="st11" d="M369.2,265.8c0,1.3-0.3,2.5-1,3.6c-1.4,2.1-4.2,2.1-5.4-0.1c-1.3-2.4-1.3-4.7-0.1-7.1
			c0.6-1.1,1.5-1.8,2.9-1.8c1.4,0,2.2,0.7,2.9,2C369.1,263.4,369.2,264.7,369.2,265.8z"/>
		<path class="st11" d="M523.5,217.3c-0.4,0-0.8,0-1.1,0c-0.6-0.1-1.4,0.4-1.7-0.3c-0.3-0.7,0.1-1.5,0.8-2.1c1-0.8,2.1-1,3.1-0.4
			c1,0.4,1.5,1.4,1.3,2.4C525.5,218,524.2,217,523.5,217.3z"/>
		<path class="st11" d="M439.3,263.4c-0.3,0-0.7,0-1,0c-0.6-0.1-1.3,0.3-1.5-0.3c-0.3-0.6,0.1-1.1,0.4-1.7c0.7-1,2.4-1.4,3.3-0.8
			c0.8,0.6,1.4,1.4,1.3,2.4c-0.1,1-1.3,0.3-1.8,0.4C440,263.4,439.6,263.4,439.3,263.4z"/>
		<path class="st11" d="M390.7,217.3c-0.3,0-0.7,0-1,0c-0.6,0-1.3,0.3-1.5-0.3c-0.3-0.6,0.1-1.3,0.6-1.8c0.8-1.1,2.1-1.3,3.3-0.7
			c1,0.4,1.4,1.4,1.3,2.4c-0.1,1.1-1.3,0.3-1.8,0.4C391.2,217.4,391,217.3,390.7,217.3z"/>
	</g>
</g>
</svg>
