<?xml version="1.0" encoding="utf-8"?>
<!-- Generator: Adobe Illustrator 24.1.1, SVG Export Plug-In . SVG Version: 6.00 Build 0)  -->
<svg version="1.1" id="Layer_1" xmlns="http://www.w3.org/2000/svg" xmlns:xlink="http://www.w3.org/1999/xlink" x="0px" y="0px"
	 viewBox="0 0 640 480" style="enable-background:new 0 0 640 480;" xml:space="preserve">
<style type="text/css">
	.st0{fill:#FEFEFE;}
	.st1{fill:#EB222A;}
	.st2{fill:#A1A1A1;}
	.st3{fill:#131514;}
	.st4{fill:#101211;}
	.st5{fill:#121413;}
	.st6{fill:#0F1110;}
	.st7{fill:#0E100F;}
	.st8{fill:#111312;}
	.st9{fill:#202221;}
	.st10{fill:#71101E;}
	.st11{fill:#71111F;}
	.st12{fill:#70101D;}
	.st13{fill:#FCFDFC;}
</style>
<g>
	<g>
		<path class="st0" d="M240.5,188.7c122.4,0,244.8,0,367.2,0c1.1,0,1.4,0.3,1.4,1.5c0,22.3,0,44.7,0,67c-0.6-0.6-1-1.4-1.7-1.8
			c-1.6-1-3.5-1.4-5.3-1.9c-0.8-0.3-2-0.5-1.7-1.7c0.3-1.3,1.4-1.2,2.4-1.1c0.8,0.1,1.2,0.5,1.4,1.2c0.1,0.7,0.4,0.7,0.9,0.7
			c1,0,1.9,0,2.8,0c0.7,0,0.8-0.3,0.7-1c-0.4-1.8-1.3-3.2-3.1-3.8c-1.6-0.5-3.3-0.4-4.8-0.2c-2.8,0.4-4.5,2.2-4.7,4.7
			c-0.2,2.8,0.7,4.1,3.9,5.1c1.2,0.4,2.5,0.8,3.8,1.2c0.6,0.2,1,0.6,1,1.4c0,0.8-0.5,1.3-1,1.6c-0.9,0.5-2.8,0.1-3.1-0.9
			c-0.4-1.3-1.2-1.2-2.2-1.2c-0.6,0-1.2,0-1.8,0c-0.7-0.1-0.9,0.3-0.9,1c0.1,1.9,1.9,3.8,3.9,4.3c3.8,0.8,7.1,0.2,9.5-3.4
			c0,7.1,0,14.3,0,21.4c0,0.8-0.1,1.1-0.9,0.9c-0.2,0-0.4,0-0.6,0c-122.3,0-244.7,0-367,0C240.5,251.9,240.5,220.3,240.5,188.7z
			 M264.1,218c0,3.5,0.1,7,0,10.6c0,1.2,0.3,1.5,1.4,1.5c2.6-0.1,5.3,0,7.9-0.1c2.9-0.1,5.3-1.2,7.1-3.8c2.4-3.3,2.6-7.1,2.1-10.9
			c-0.4-4.2-2.5-7.3-6.6-8.4c-3.7-1-7.6-0.4-11.4-0.7c-0.8-0.1-0.6,0.7-0.6,1.1C264.1,210.8,264.1,214.4,264.1,218z M360.9,221.5
			C360.9,221.5,360.9,221.5,360.9,221.5c0.1,1.5,0.1,3,0.1,4.6c0,4,0,4,3.8,3.9c0.8,0,0.9-0.2,0.9-1c0-3.2-0.3-6.5,0.2-9.7
			c0.3-1.9,1-2.7,2.7-2.6c1.5,0,2.2,0.9,2.2,2.9c0.1,2.2,0,4.4,0,6.6c0,3.9,0,3.9,3.7,3.8c1,0,1.2-0.4,1.2-1.4c-0.1-2.1,0-4.3,0-6.5
			c0-1.3-0.1-2.5,0.2-3.8c0.4-1.4,1.3-1.9,2.6-1.8s2.1,0.9,2.1,2.4c0,2.4,0,4.7,0,7.1c0,3.9,0,3.9,3.7,3.9c0.8,0,1.2-0.1,1.2-1.2
			c-0.1-3,0.1-6.1-0.1-9.1c-0.1-1.5-0.1-3.2-1-4.5c-2.1-2.9-6.1-3.2-8.6-0.6c-0.4,0.4-0.7,1.2-1.3,0.2c-1.5-2.4-5.6-2.3-7.4-1.2
			c-0.7,0.4-1.4,1.7-1.8-0.3c0-0.1-0.5-0.1-0.8-0.1c-0.8,0-1.7,0.1-2.5,0c-0.9-0.1-1.1,0.3-1,1.2
			C360.9,216.7,360.9,219.1,360.9,221.5z M434.4,249.9c-2.3-2.8-5.4-3.5-8-1.8c-0.6,0.4-1.4,1.8-1.7-0.3c0-0.1-0.4-0.2-0.7-0.2
			c-1,0-2.1,0-3.1,0c-0.6,0-0.6,0.2-0.6,0.8c0.1,4,0,8,0,12c0,4.2,0,4.1,3.9,4c0.8,0,1-0.3,0.9-1.2c0-3.3-0.4-6.7,0.2-10
			c0.3-1.6,1.3-2.3,2.9-2.1c1.4,0.2,1.8,1.3,1.9,2.6c0.1,2.3,0.1,4.6,0.1,6.9c0,3.8,0,3.8,3.6,3.8c0.8,0,1.2-0.1,1.1-1.2
			c-0.1-3.1-0.2-6.3,0.2-9.4c0.2-1.8,1.2-2.8,2.6-2.7c1.5,0,2.2,0.9,2.3,2.8c0.1,2.2,0,4.4,0,6.6c0,4.1,0,4.1,3.8,3.9
			c0.1,0,0.2,0,0.3,0c0.5,0,0.7-0.2,0.6-0.8c-0.1-3.8,0-7.6-0.1-11.3c0-1.6-0.7-3-2.1-3.9C440,246.4,437,246.9,434.4,249.9z
			 M492.4,256.5c-0.6,0-1.2,0-1.8,0c-0.6,0-0.8,0.2-0.8,0.8c0.2,2.5,0.7,4.9,3,6.3c2.9,1.7,5.9,1.7,9,1c3.5-0.7,6.1-3.8,6.1-7.2
			c0.1-3.5-1.6-5.5-5.7-6.6c-1.7-0.5-3.4-1-5.1-1.5c-1.3-0.4-1.7-1.6-1.4-2.9c0.4-1.6,1.6-2.4,3.1-2.5c1.4-0.1,2.9,0.2,3.2,1.8
			c0.4,2,1.5,2.1,2.9,1.9c0.4-0.1,0.9-0.1,1.3,0c0.7,0.1,1.1-0.2,1-1c-0.3-2.2-1-4.1-3.1-5.2c-2.9-1.6-5.8-1.4-8.9-0.6
			c-4.8,1.3-6.1,7.8-3.4,11c1,1.2,2.4,1.8,3.8,2.2c1.9,0.6,3.8,1.1,5.6,1.9c1.4,0.5,1.8,2.4,0.9,3.6c-1.3,1.7-3.1,1.7-4.8,1.5
			c-1.4-0.2-2.2-1.3-2.3-2.7c-0.1-1.7-1-2-2.3-1.7C492.7,256.5,492.6,256.5,492.4,256.5z M342.4,215.4c0.4-2.6-1.2-2.1-2.5-2.1
			c-0.5,0-1,0-1.5,0c-0.5,0-0.7,0.2-0.6,0.7c0.4,4.1,0.1,8.2,0.2,12.2c0.1,3.9,0,3.9,3.8,3.8c0.8,0,1-0.3,1-1.1c0-2.4,0-4.8,0-7.3
			c0-2.8,1.1-3.9,3.7-4c0.5,0,0.9,0.1,1.2-0.7c0.3-0.7,1.5-0.3,2.2-0.2c0.7,0.1,0.4,0.9,0.4,1.3c0,2.8,0,5.6,0,8.3
			c0,2.1,1.2,3.6,3.2,3.8c1.3,0.1,2.6,0.1,4-0.2c2-0.4,0.7-1.9,1-2.9c0.3-1.2-0.7-0.6-1.2-0.6c-1.8,0-2.3-0.4-2.3-2.4
			c0-1.5,0-3,0-4.6c0-2.8,0-2.9,2.6-2.8c0.9,0,1-0.3,1-1.1c0-0.4,0-0.9,0-1.3c0.1-0.9-0.2-1.3-1.1-1.2c-0.4,0.1-0.9-0.1-1.3,0
			c-1,0.2-1.2-0.3-1.2-1.3c0-3.9,0-3.9-3.5-2.4c-0.9,0.4-1.4,0.8-1.2,1.9c0.3,1.5-0.4,1.9-1.7,1.8
			C346.3,213.1,344.1,212.9,342.4,215.4z M371,248.7c-0.6-0.3-1-0.4-1.3-0.7c-3-1.6-6.3-0.7-8.2,2.3c-1,1.5-1.3,3.2-1.5,5
			c-0.2,2.6,0.2,5.1,1.8,7.2c2.2,2.8,6,2.8,9.4,0.1c-0.4,1.8,0.5,1.7,1.6,1.6c0.7-0.1,1.5-0.1,2.2,0c0.7,0.1,0.9-0.2,0.9-1
			c0-6.3-0.1-12.7-0.1-19.1c0-3.9,0-3.9-3.8-3.9c-1,0-1.2,0.3-1.2,1.3C371.1,244,371,246.2,371,248.7z M303.5,249c0-1.8,0-3.3,0-4.9
			c0-3.6,0-3.5-3.4-3.6c-1.1,0-1.4,0.3-1.4,1.5c0.1,6.5,0,12.9,0,19.4c0,3,0,3,2.8,3c1.1,0,2.1,0.1,1.9-1.6c2.8,2.9,6.7,2.3,8.6,0.4
			c1.2-1.3,1.9-2.9,2.2-4.7c0.4-2.3,0.1-4.5-0.6-6.6C312.5,248.3,308.2,245.4,303.5,249z M307.4,214.9c0-1.5-0.6-1.9-1.8-1.7
			c-0.7,0.1-1.4,0.1-2.1,0c-0.7,0-1,0.1-0.9,1c0.1,6.2,0,12.3,0,18.4c0,3.7,0,3.6,3.5,3.7c1,0,1.4-0.2,1.3-1.4c-0.1-2,0-4,0-6.2
			c4.3,2.9,8,1.2,9.6-1.7c1.5-2.7,1.6-5.7,1-8.9C316.9,212.7,310.6,211.2,307.4,214.9z M388.1,252.4c0,2.7,0,5.4,0,8
			c0,3.9,0,3.9,3.7,3.9c1,0,1.3-0.2,1.2-1.3c-0.1-2.6,0-5.2,0-7.9c0-0.8,0.2-1,0.9-1c1.7,0.1,3.5,0,5.2,0c2.8,0,2.8,0,2.7-3
			c0-0.8-0.2-1.1-1-1.1c-1.2,0.1-2.5,0.1-3.7,0c-1.3-0.1-3,0.6-3.8-0.3c-0.8-0.9-0.1-2.7-0.2-4.1c-0.1-1.1,0.4-1.3,1.3-1.3
			c2.2,0.1,4.4-0.1,6.5,0.1c1.4,0.1,1.8-0.4,1.6-1.7c0-0.3,0-0.5,0-0.8c0.2-1.2-0.3-1.5-1.4-1.5c-3.9,0.1-7.7,0.1-11.6,0
			c-1,0-1.4,0.3-1.3,1.4C388.1,245.4,388.1,248.9,388.1,252.4z M524.7,259.3c-1.2,0-2.4,0-3.6,0c-0.3,0-0.7-0.1-0.9,0.3
			c-0.5,1.5-1.5,2-2.9,1.8c-1.5-0.3-2.1-1.5-2.5-2.9c-0.2-0.8,0-1.2,0.9-1.2c2,0.1,4,0,5.9,0c3.9,0,4,0,3.2-4.1
			c-0.5-2.6-1.6-4.9-4.3-5.8c-3-0.9-5.8-0.7-8,1.8c-2.7,2.9-2.5,6.5-1.9,10.1c0.5,3.1,2.4,4.9,5.2,5.4c1.7,0.3,3.4,0.3,5.1-0.3
			C523.4,263.7,524.5,262,524.7,259.3z M398.4,223c0.7,0,1.4,0,2.1,0c3.1,0,3.2,0,2.9-3.3c-0.5-5.3-4.2-8-8.9-6.8
			c-5.2,1.3-7.7,9.2-4.7,14.4c1.7,2.9,5.3,4,8.9,3.1c2-0.5,3.4-1.7,4.2-3.6c0.6-1.5,0.3-1.8-1.1-1.8c-0.7,0-1.4,0.1-2.1,0
			c-0.7-0.1-0.9,0.2-1.2,0.8c-0.6,1.2-2,1.8-3.1,1.4c-1.1-0.4-2.2-2.2-2.1-3.3c0.1-0.7,0.5-0.7,1-0.7C395.6,223,397,223,398.4,223z
			 M588.7,257.4c1.3,0,2.7-0.1,4,0c1.3,0.1,1.4-0.7,1.3-1.6c-0.1-0.7-0.1-1.5-0.2-2.2c-0.5-3-1.8-5.3-4.6-6.3
			c-2.7-1-6.2-0.1-7.9,2.1c-2.6,3.1-2.4,6.6-1.7,10.3c0.2,1.3,0.8,2.4,1.7,3.3c2.5,2.5,8,2.7,10.6,0.3c0.6-0.6,1.2-1.2,1.4-2.1
			c0.6-2,0.6-2-1.3-2c-0.7,0-1.3,0-1.9,0c-0.5,0-0.7,0.2-1,0.7c-0.6,1.4-1.7,1.8-3,1.5c-1.2-0.3-2.2-2-2.2-3.3
			c0-0.7,0.3-0.8,0.8-0.8C585.9,257.4,587.3,257.4,588.7,257.4z M294.7,223c0.7,0,1.5,0,2.2,0c3.2,0,3.6-0.6,2.8-4.1
			c-0.1-0.3-0.1-0.5-0.1-0.8c-0.8-2.9-2.4-4.9-5.3-5.4c-2.8-0.5-5.4,0.1-7.3,2.7c-2.3,3.1-2.3,6.6-1.4,10.1c1.1,4.5,4.8,5.6,9.1,4.9
			c1.9-0.3,3.5-1.3,4.4-3.2c0.9-2.1,0.8-2.2-1.3-2.2c-0.5,0-1.1,0.1-1.6,0c-0.6-0.1-1,0.2-1.2,0.8c-0.6,1.4-1.7,1.7-2.9,1.4
			c-1.3-0.3-2-1.4-2.2-2.8c-0.1-0.9,0-1.4,1-1.3C292.2,223.1,293.4,223,294.7,223z M452.4,212.9c-5.6-0.4-8.2,3.7-8.3,8.9
			c-0.1,5.1,2.9,8.8,8,8.9c4.2,0,8.1-3.2,8.1-8.8C460.2,216.5,457.1,212.5,452.4,212.9z M334.8,230c-0.3-0.7-0.3-1.4-0.4-2
			c-0.1-3.4,0.1-6.8-0.3-10.2c-0.2-1.7-0.6-3.1-2.2-3.9c-2.6-1.5-5.2-1.4-7.9-0.4c-1.3,0.5-2.2,1.4-2.6,2.7c-0.7,2-0.5,2.1,1.5,2.1
			c0.5,0,1,0,1.5,0c0.7,0.1,1.3,0.1,1.6-1c0.2-0.7,0.8-1.6,1.8-1.5c1,0.2,1.6,0.9,1.8,2c0.2,0.9,0.1,1.6-1.1,1.5
			c-2-0.2-4,0.2-5.6,1.3c-2,1.3-2.6,3.3-2.4,5.6c0.1,1.8,1.4,3.6,3.2,3.9c2.3,0.4,4.7,0.7,6.7-2.2c-0.4,2.1,0.4,2.2,1.4,2.1
			C332.7,229.9,333.7,230,334.8,230z M412.6,262.6c-0.4,1.8,0.5,1.8,1.5,1.7c0.7,0,1.5,0,2.2,0c0.4,0,0.7,0,0.6-0.6
			c-0.6-3.4-0.1-6.8-0.3-10.2c-0.1-2.2-0.3-4.6-2.7-5.6c-2.9-1.3-5.7-1.3-8.5,0.3c-0.9,0.5-1.5,1.3-1.7,2.3
			c-0.5,2.4-0.6,2.1,1.4,2.1c0.5,0,1.1,0,1.6,0c0.8,0.1,1.3,0,1.5-1.1c0.3-1.2,1.8-1.7,2.8-1c0.8,0.6,1,1.6,0.9,2.5
			c-0.1,1-1,0.5-1.5,0.5c-1.8,0-3.5,0.3-5.1,1.3c-2,1.2-2.6,3.1-2.5,5.4c0.1,2.1,1.1,3.7,3,4.2C408.1,265,410.5,265.1,412.6,262.6z
			 M295.8,256c0-5.4-2.9-8.5-7.6-8.7c-5.8-0.4-8.5,4.1-8.5,9c0.1,5.4,3,8.7,8,8.7C292.8,264.9,295.8,261.6,295.8,256z M334.8,262.4
			c-0.3,2.1,0.7,2,1.6,1.9c0.9,0,1.8-0.1,2.6-0.2c0.1,0,0.1-0.5,0.1-0.7c-0.5-3.5-0.1-7.1-0.3-10.7c0-1-0.2-2-0.7-2.8
			c-1.6-2.7-4.1-3.1-6.8-2.9c-2.2,0.2-4.3,0.9-5.4,3.3c-0.7,1.8-0.5,2.2,1.3,2.2c0.4,0,0.8,0,1.2,0c1,0,1.9,0.3,2.1-1.4
			c0.1-0.8,1.1-1.2,2.1-0.9c1.3,0.3,1.7,1.5,1.6,2.7c0,1.2-1.1,0.3-1.7,0.6c-0.4,0.2-0.9,0-1.3,0.1c-3.4,0.3-6.7,2.3-6.2,7
			c0.2,2.1,1.8,3.8,3.7,3.9C331,264.8,333,264.8,334.8,262.4z M347.4,249.2c-0.5-0.5,0.3-1.5-0.7-1.6c-1.3-0.1-2.8-0.3-4,0.2
			c-0.7,0.3,0.1,1.8,0.1,2.8c0,0.2,0,0.4,0,0.6c0,3.2,0,6.4,0,9.6c0,3.6,0,3.5,3.3,3.6c1.1,0,1.4-0.3,1.4-1.5c-0.1-3-0.1-6.1,0-9.1
			c0-1.5,1.2-2.7,2.5-2.8c1.5-0.1,2.1,0.9,2.4,2.4c0.4,2.4,0.1,4.8,0.2,7.2c0.1,4.1,0,4,3.8,3.8c0.7,0,1-0.2,0.9-1
			c0-3.6,0-7.3-0.1-10.9c0-1.7-0.5-3.3-1.9-4.3C352.9,246.4,350,246.7,347.4,249.2z M410.9,215.1c0.3-1.7-0.5-2-1.8-1.8
			c-0.7,0.1-1.5,0-2.2,0c-0.5,0-0.6,0-0.6,0.7c0.1,4.1,0.1,8.3,0.1,12.4c0,3.7,0,3.7,3.6,3.7c0.9,0,1.2-0.3,1.2-1.2
			c-0.1-3,0-6.1,0-9.1c0-1.9,1.1-3,2.7-3c1.5,0,2.3,1,2.3,2.9c0,2.2,0,4.4,0,6.6c0,1.2-0.4,3.1,0.2,3.5c0.8,0.6,2.3,0.2,3.6,0.3
			c0.8,0.1,1-0.3,1-1.1c0-3.4,0-6.8-0.1-10.3c0-3-1.1-4.8-3.2-5.6C415.3,212.3,412.4,213,410.9,215.1z M464.3,247.6
			c-0.1,0.5,0,0.9,0.2,1.3c1.4,3.8,2.5,7.8,4.1,11.5c1.2,2.9,1.2,5.5,0,8.2c-0.1,0.3-0.3,0.7-0.4,1c-0.2,0.7-0.1,1,0.7,1.1
			c3.9,0.2,3.9,0.3,4.8-3.7c0.1-0.2,0.1-0.4,0.2-0.6c1.6-5.4,3.6-10.6,5.5-15.9c1.1-2.9,1.1-2.9-1.8-2.9c-0.4,0-0.7,0-1,0
			c-0.8-0.1-1.1,0.3-1.3,1c-0.9,3.2-1.9,6.4-2.9,10c-0.9-3-1.7-5.7-2.5-8.4c-0.8-2.6-0.8-2.6-3.3-2.6
			C465.9,247.6,465.1,247.6,464.3,247.6z M272.1,249.6c0,2.3,0,4.6,0,6.9c0,0.8,0,1.6-0.2,2.5c-0.4,1.3-1.3,1.6-2.4,1.6
			s-1.6-0.8-1.9-1.8c-0.6-2.3-0.5-2.3-2.7-2.3c-0.7,0-1.3,0-1.9,0c-0.2,0-0.4-0.1-0.5,0.3c-0.4,1.7,0.9,5.5,2.3,6.5
			c2.8,1.9,5.9,1.9,8.7,0.5c2.6-1.3,3.6-4,3.6-7c0-4.1,0-8.2,0-12.3c0-4.2,0-4.2-4-4c-0.9,0-1.1,0.3-1.1,1.2
			C272.1,244.2,272.1,246.9,272.1,249.6z M568.8,255.9c0-1.3,0-2.6,0.6-3.8c0.4-0.8,0.7-1.4,1.6-1.3c0.8,0,1.4,0.6,1.5,1.3
			c0.2,1.6,1.2,1.7,2.3,1.5c0.6-0.1,1.3-0.1,1.9,0c0.7,0.1,0.8-0.3,0.7-0.9c-0.3-2.6-1.7-4.2-3.9-5c-3.7-1.4-8.7,0.4-9.5,5.8
			c-0.7,4.6,0.4,10.8,6.2,11.3c2.8,0.3,6.2-0.9,7-4.5c0.5-2.1,0.4-2.1-1.5-2.2c-1.7-0.1-3.2-0.1-3.5,2.2c-0.1,0.8-0.7,1-1.3,1
			c-0.6,0-1-0.3-1.4-0.9C568.9,258.9,568.9,257.4,568.8,255.9z M546.3,257.9c-0.1,0-0.2,0-0.3,0c-0.7-2.4-1.5-4.7-2.1-7.1
			c-0.9-3.3-0.9-3.3-4.1-3.3c-0.3,0-0.6,0-0.9,0c-1-0.2-1.1,0.2-0.8,1.2c1.3,3.8,2.6,7.7,3.9,11.6c1.5,4.2,1.5,4.2,5.8,3.9
			c0.7,0,0.9-0.3,1.1-0.9c1.4-4.3,2.8-8.6,4.2-12.8c1-3,1-2.9-2-3.1c-1.3,0-1.8,0.4-2.1,1.7C548.2,252.2,547.2,255.1,546.3,257.9z
			 M463.7,223.5c0,0.9,0,1.9,0,2.8c0,1.2-0.4,2.9,0.1,3.4c0.6,0.6,2.1,0.1,3.3,0.3s1.3-0.4,1.3-1.4c-0.1-3.5,0-6.9,0-10.4
			c0-0.7-0.1-1.4,0.9-1.1c1.8,0.4,1.9-0.6,1.9-2.1c0-1.5-0.5-1.8-1.7-1.6c-0.4,0-0.8,0.2-1.1-0.2c-0.8-1.4,0.3-3.5,1.8-3.5
			c0.8,0,1.3,0,1.2-1.2c-0.1-2.6-0.1-2.6-2.5-2.6c-0.4,0-0.8,0-1.2,0c-1.5,0.2-2.9,0.8-3.6,2.3c-0.6,1.2-0.5,2.4-0.4,3.7
			c0.1,1.1-0.2,1.7-1.4,1.5c-0.7-0.1-1.1,0.2-1,1c0.1,0.4,0.1,0.9,0,1.3c-0.1,1.1,0.2,1.7,1.3,1.5c0.9-0.2,1,0.3,1,1.1
			C463.7,219.9,463.7,221.7,463.7,223.5z M430.4,221.2c0-0.5,0-1,0-1.6c0-2.8,0-2.8,2.6-2.9c0.3,0,0.9,0.4,1-0.3
			c0.1-0.9,0.2-2-0.1-2.8c-0.3-0.7-1.2-0.2-1.9-0.3c-0.1,0-0.2,0-0.3,0c-1,0.2-1.4-0.2-1.3-1.4s0-2.3-0.1-3.4
			c-1.1,0.1-2.1,0.8-3.2,1c-1.2,0.3-1.7,0.9-1.4,2.2c0.3,1.4-0.3,1.8-1.5,1.5c-1.3-0.3-1.5,0.4-1.5,1.7c0,1.2,0,2.1,1.5,1.8
			c1.3-0.3,1.6,0.4,1.5,1.7c-0.1,2.6,0,5.1,0,7.7c0,2.5,1.3,4,3.7,4.2c0.7,0,1.5,0,2.2,0c2.3-0.2,2.3-0.2,2.3-2.6
			c0-0.9-0.1-1.3-1.1-1.2c-2.1,0.2-2.5-0.3-2.5-2.6C430.4,223,430.4,222.1,430.4,221.2z M461.9,251.7c0.1-2.8-0.2-6.5,0.1-10.2
			c0.1-0.8-0.3-1.2-1.1-1.1c-0.7,0.1-1.5,0.1-2.2,0c-1.2-0.2-1.6,0.3-1.6,1.6c0.1,6.2,0,12.3,0,18.4c0,4.2,0,4.2,3.9,3.9
			c0.7,0,0.9-0.1,0.9-1C461.9,259.7,461.9,256.1,461.9,251.7z M532.1,250.2c-0.1-2.6-0.1-2.6-2.2-2.6c-0.4,0-0.9,0.1-1.3,0
			c-1.1-0.3-1.1,0.3-1,1.2c0.5,4,0.2,8,0.2,12c0,3.7,0,3.7,3.5,3.7c1,0,1.2-0.4,1.2-1.4c0-2.6,0-5.3,0-7.9c0-1.4,0.7-2.3,1.8-2.7
			c0.7-0.3,1.5-0.2,2.2-0.3c0.8-0.1,0.7,0.6,0.7-3.1c0-0.6,0.3-1.5-0.7-1.5c-0.1,0-0.2,0-0.3,0C534.8,247.7,533.2,248,532.1,250.2z
			 M561.1,256c0-1.5,0-3.1,0-4.6c0-3.9,0-3.8-3.6-3.8c-1,0-1.1,0.3-1.1,1.3c0,3.9,0,7.9,0,11.8c0,3.8,0,3.8,3.6,3.7
			c1,0,1.2-0.4,1.1-1.3C561.1,260.7,561.1,258.3,561.1,256z M448.9,256c0,1.6,0,3.2,0,4.7c0,3.7,0,3.7,3.5,3.7c1,0,1.2-0.3,1.2-1.3
			c-0.1-3.9,0-7.8,0-11.7c0-3.8,0-3.8-3.6-3.8c-0.8,0-1.1,0.2-1.1,1.1C448.9,251.1,448.9,253.6,448.9,256z M451.2,245
			c0.5,0,1.1-0.1,1.6,0c0.8,0.1,1-0.3,1-1.1c0.1-3.5,0.1-3.5-3.2-3.5c-0.1,0-0.2,0-0.3,0c-1.4-0.3-1.8,0.3-1.8,1.8
			C448.7,245,448.6,245,451.2,245z M558.7,245c0.4,0,0.8-0.1,1.2,0c1.1,0.2,1.4-0.2,1.3-1.4c-0.1-3.2-0.1-3.1-3.2-3.2
			c-1.5-0.1-2,0.3-1.9,2C556.3,245,556.2,245,558.7,245z"/>
		<path class="st0" d="M238.1,283.6c-64.6,0-129.1,0-193.6,0c-1.2,0-1.3-0.3-1.3-1.5c0-14.3,0-28.7,0-43c0.4,1.5,0.8,2.9,1.2,4.4
			c1.2,4,3,7.6,5.6,10.8c3.4,4.1,7.5,7.1,12.3,8.8c3.7,1.3,7.5,1.6,11.4,1.4c4.1-0.3,7.9-1.2,11.5-3.2c4.9-2.7,8.6-6.7,11.4-11.5
			c3.2-5.7,4.1-12.1,3.8-18.7c-0.2-5.3-1.8-10-4.2-14.5c-2.5-4.6-6.2-8.1-10.4-10.6c-5.7-3.3-11.9-4.2-18.4-3.3
			c-5,0.7-9.5,2.5-13.4,5.8c-4.6,3.9-8,8.8-9.7,14.9c-0.4,1.4-0.8,2.8-1.2,4.2c0-12.5,0-25,0-37.5c0-1.1,0.2-1.3,1.2-1.3
			c64.6,0,129.2,0,193.8,0C238.1,220.3,238.1,251.9,238.1,283.6z M118.3,228.3c0-0.5,0-1,0-1.5c0-6.3,0-12.6,0-18.9
			c0-0.9-0.1-1.4-1.1-1.3c-3.8,0.1-7.6,0.1-11.4,0.1c-1.2,0-2.8-0.4-3.4,0.2c-0.6,0.6-0.1,2.3-0.1,3.6c0,1.3-0.4,3,0.2,3.8
			c0.7,0.9,2.4,0.2,3.7,0.3c0.1,0,0.2,0,0.3,0c0.7-0.1,0.9,0.2,0.9,1c0,13.1,0,26.3,0,39.4c0,0.9-0.3,1.1-1,1c-1.1-0.1-2.2,0-3.3,0
			c-0.6,0-0.8,0.2-0.8,0.9c0.1,2,0.1,4,0,6c-0.1,1.1,0.4,1.3,1.2,1.3c5.2,0,10.4,0,15.6,0c1.3,0,2.9,0.6,3.7-0.3
			c0.8-0.9,0.2-2.6,0.2-3.9c0-1.2,0.4-2.7-0.1-3.5c-0.7-0.9-2.2-0.3-3.4-0.3c-1,0-1.2-0.3-1.2-1.3c0.1-4.6,0-9.2,0-13.9
			c0-3.7,1.5-6.8,4.5-8.7c2.6-1.7,6.3-1.9,8.4,1.2c1.1,1.7,1.4,3.8,1.4,5.8c0.1,4.4,0,8.8,0,13.3c0,3.6,0,3.6-3.3,3.6
			c-0.2,0-0.4,0-0.6,0c-0.7-0.1-0.9,0.2-0.9,1c0.1,1.8,0.1,3.7,0,5.5c-0.1,1.3,0.2,1.7,1.5,1.6c5.9-0.1,11.9-0.1,17.8,0
			c1.1,0,1.7-0.2,1.5-1.5c-0.1-0.8,0-1.6,0-2.4c-0.1-1.4,0.5-3.1-0.2-4c-0.8-0.9-2.4-0.3-3.7-0.3c-1.1,0-1.4-0.2-1.4-1.5
			c0.1-6.4,0.2-12.8,0-19.2c-0.1-5.1-1.8-9.6-6.7-11.6c-4.5-1.9-9-1.8-13.5,0.4C121.2,224.9,119.8,226.6,118.3,228.3z M178.4,244
			c-0.2,2.8,0.3,5.7,1.2,8.5c1.7,4.9,4.6,8.5,9.1,10.6c4.9,2.4,10.1,2.7,15.3,1.5c6.8-1.7,11.4-6.1,13.5-13.3
			c1.3-4.5,1.3-9.1,0.3-13.7c-1.1-4.6-3.1-8.6-7-11.4c-5.8-4-12-4.6-18.5-2.9c-5.1,1.3-9.1,4.4-11.5,9.4
			C178.9,236.1,178.2,239.9,178.4,244z M168.3,239.7L168.3,239.7c0-4.8-0.1-9.7,0-14.5c0-1.2-0.1-1.7-1.5-1.6c-3.7,0.1-7.4,0-11.1,0
			c-3.4,0-3.4,0-3.4,3.6c0,1.4-0.6,3.2,0.3,4.1c0.7,0.8,2.4,0.3,3.7,0.2c1,0,1.3,0.3,1.3,1.4c-0.1,6.2,0,12.4,0,18.6
			c0,1.4,0.4,3.2-0.2,4.1c-0.7,0.9-2.5,0.2-3.8,0.3c-0.1,0-0.1,0-0.1,0c-0.8-0.1-1.1,0.2-1.1,1.1c0.1,2,0.1,3.9,0,5.8
			c0,0.9,0.3,1.2,1.1,1.1c6.4,0,12.8,0,19.1,0c0.9,0,1.1-0.3,1.1-1.2c-0.1-1.8-0.1-3.7,0-5.5c0.1-1.3-0.4-1.5-1.5-1.4
			c-0.9,0.1-1.8,0-2.7,0c-1,0.1-1.2-0.3-1.2-1.4C168.4,249.6,168.3,244.7,168.3,239.7z M162.8,206.6c-1.6,0-3.3,0-4.9,0
			c-0.6,0-0.9,0.1-0.9,0.9c0,3.2,0,6.5,0,9.8c0,0.7,0.2,1,0.9,1c3.2,0,6.3,0,9.5,0c0.8,0,1-0.3,0.9-1c-0.1-3.2-0.1-6.5,0-9.7
			c0-0.6,0-1-0.8-0.9C166,206.7,164.4,206.6,162.8,206.6z"/>
		<path class="st1" d="M43.2,227.4c0.4-1.4,0.8-2.8,1.2-4.2c1.7-6.1,5.1-11,9.7-14.9c3.9-3.3,8.4-5.1,13.4-5.8
			c6.5-0.9,12.7,0,18.4,3.3c4.3,2.5,7.9,6,10.4,10.6c2.5,4.5,4,9.3,4.2,14.5c0.3,6.6-0.6,13-3.8,18.7c-2.8,4.9-6.5,8.9-11.4,11.5
			c-3.7,2-7.5,2.9-11.5,3.2c-3.9,0.3-7.7-0.1-11.4-1.4c-4.9-1.6-9-4.7-12.3-8.8c-2.6-3.2-4.5-6.8-5.6-10.8c-0.4-1.5-0.8-2.9-1.2-4.4
			C43.2,235.2,43.2,231.3,43.2,227.4z M94.7,232.5c0.1-1.5-0.3-3.8-0.7-6.1c-0.9-4.4-3-8.1-6-11.2c-3.6-3.7-7.9-5.9-13-6.5
			c-5.2-0.6-10.1,0.2-14.7,3c-2.8,1.7-5.1,4-7,6.9c-1.4,2.2-2.6,4.4-3.2,7c-1.6,6.3-1.4,12.6,1.2,18.6c2.3,5.3,6,9.3,11.1,11.7
			c3.6,1.7,7.4,2.2,11.3,2c5.4-0.4,10.1-2.4,14-6.3C92.4,246.5,94.6,240.4,94.7,232.5z"/>
		<ellipse class="st2" cx="239.3" cy="236.1" rx="1.7" ry="67.1"/>
		<path class="st3" d="M609,261.2c-2.3,3.6-5.7,4.2-9.5,3.4c-2.1-0.4-3.8-2.4-3.9-4.3c0-0.8,0.1-1.1,0.9-1c0.6,0.1,1.2,0,1.8,0
			c0.9,0,1.8-0.1,2.2,1.2c0.3,1,2.2,1.4,3.1,0.9c0.6-0.3,1-0.8,1-1.6c0-0.8-0.4-1.2-1-1.4c-1.2-0.4-2.5-0.8-3.8-1.2
			c-3.2-1.1-4.1-2.3-3.9-5.1c0.1-2.4,1.9-4.3,4.7-4.7c1.6-0.2,3.2-0.3,4.8,0.2c1.8,0.6,2.7,2,3.1,3.8c0.1,0.6,0.1,1-0.7,1
			c-1,0-1.9,0-2.8,0c-0.5,0-0.8,0-0.9-0.7c-0.1-0.6-0.6-1.1-1.4-1.2c-1-0.1-2.1-0.2-2.4,1.1c-0.3,1.3,0.8,1.5,1.7,1.7
			c1.8,0.6,3.6,0.9,5.3,1.9c0.7,0.4,1.1,1.2,1.7,1.8C609,258.4,609,259.8,609,261.2z"/>
		<path class="st4" d="M264.1,218c0-3.6,0-7.1,0-10.7c0-0.5-0.2-1.2,0.6-1.1c3.8,0.3,7.6-0.3,11.4,0.7c4.1,1.1,6.1,4.2,6.6,8.4
			c0.4,3.8,0.3,7.6-2.1,10.9c-1.8,2.5-4.3,3.6-7.1,3.8c-2.6,0.1-5.3,0-7.9,0.1c-1.1,0-1.5-0.3-1.4-1.5
			C264.1,225,264.1,221.5,264.1,218z M269,218c0,2.2,0,4.4,0,6.6c0,0.9,0.2,1.4,1.2,1.3c0.7-0.1,1.4,0,2.1,0
			c2.4-0.2,4.1-1.4,4.8-3.9c0.7-2.3,0.9-4.7,0.3-7.1c-0.5-2.2-1.7-3.9-3.9-4.4c-1-0.3-2.1-0.3-3.1-0.3c-0.9,0-1.4,0.3-1.4,1.5
			C269.1,213.7,269,215.9,269,218z"/>
		<path class="st3" d="M360.9,221.5c0-2.4,0-4.7,0-7.1c0-0.9,0.1-1.3,1-1.2c0.8,0.1,1.7,0,2.5,0c0.3,0,0.8,0,0.8,0.1
			c0.4,2,1.1,0.7,1.8,0.3c1.9-1.2,5.9-1.2,7.4,1.2c0.6,0.9,1,0.2,1.3-0.2c2.5-2.6,6.5-2.3,8.6,0.6c1,1.3,1,2.9,1,4.5
			c0.1,3,0,6.1,0.1,9.1c0,1-0.4,1.2-1.2,1.2c-3.7,0-3.7,0.1-3.7-3.9c0-2.4,0-4.7,0-7.1c0-1.5-0.8-2.2-2.1-2.4
			c-1.3-0.2-2.2,0.4-2.6,1.8c-0.4,1.2-0.2,2.5-0.2,3.8c0,2.1-0.1,4.3,0,6.5c0,1-0.2,1.4-1.2,1.4c-3.7,0-3.7,0.1-3.7-3.8
			c0-2.2,0-4.4,0-6.6c-0.1-2-0.8-2.8-2.2-2.9c-1.6-0.1-2.4,0.7-2.7,2.6c-0.4,3.2-0.1,6.5-0.2,9.7c0,0.8-0.1,1-0.9,1
			c-3.8,0.1-3.8,0.1-3.8-3.9C360.9,224.5,360.9,223,360.9,221.5C360.9,221.5,360.9,221.5,360.9,221.5z"/>
		<path class="st4" d="M434.4,249.9c2.6-2.9,5.6-3.5,8.2-1.6c1.3,0.9,2,2.3,2.1,3.9c0.1,3.8,0,7.5,0.1,11.3c0,0.6-0.1,0.8-0.6,0.8
			c-0.1,0-0.2,0-0.3,0c-3.8,0.2-3.8,0.2-3.8-3.9c0-2.2,0-4.4,0-6.6c0-1.9-0.8-2.8-2.3-2.8c-1.4,0-2.3,1-2.6,2.7
			c-0.4,3.1-0.3,6.3-0.2,9.4c0,1.1-0.3,1.2-1.1,1.2c-3.6,0-3.6,0.1-3.6-3.8c0-2.3,0-4.6-0.1-6.9c0-1.3-0.5-2.4-1.9-2.6
			c-1.6-0.3-2.6,0.4-2.9,2.1c-0.6,3.3-0.2,6.7-0.2,10c0,0.9-0.1,1.2-0.9,1.2c-3.9,0.2-3.9,0.2-3.9-4c0-4,0-8,0-12
			c0-0.6,0-0.8,0.6-0.8c1,0.1,2.1,0,3.1,0c0.2,0,0.6,0.1,0.7,0.2c0.3,2.1,1.1,0.6,1.7,0.3C429,246.4,432.2,247.1,434.4,249.9z"/>
		<path class="st5" d="M492.4,256.5c0.1,0,0.3,0,0.4,0c1.3-0.2,2.2,0,2.3,1.7c0.1,1.4,0.9,2.5,2.3,2.7c1.8,0.3,3.6,0.3,4.8-1.5
			c0.9-1.2,0.4-3.1-0.9-3.6c-1.8-0.7-3.7-1.2-5.6-1.9c-1.4-0.5-2.8-1.1-3.8-2.2c-2.7-3.2-1.5-9.7,3.4-11c3-0.8,5.9-1,8.9,0.6
			c2.1,1.1,2.8,3,3.1,5.2c0.1,0.9-0.3,1.1-1,1c-0.4-0.1-0.9-0.1-1.3,0c-1.4,0.2-2.5,0.1-2.9-1.9c-0.3-1.6-1.9-1.9-3.2-1.8
			c-1.4,0.1-2.7,0.9-3.1,2.5c-0.3,1.3,0.1,2.4,1.4,2.9c1.7,0.6,3.4,1.1,5.1,1.5c4,1.1,5.7,3,5.7,6.6c-0.1,3.4-2.6,6.5-6.1,7.2
			c-3.1,0.6-6.2,0.7-9-1c-2.3-1.4-2.8-3.8-3-6.3c-0.1-0.6,0.2-0.9,0.8-0.8C491.2,256.5,491.8,256.5,492.4,256.5z"/>
		<path class="st6" d="M342.4,215.4c1.7-2.5,3.9-2.2,6.1-2.1c1.4,0.1,2-0.3,1.7-1.8c-0.2-1.1,0.3-1.5,1.2-1.9
			c3.5-1.5,3.5-1.6,3.5,2.4c0,1,0.1,1.5,1.2,1.3c0.4-0.1,0.9,0,1.3,0c0.9-0.1,1.2,0.3,1.1,1.2c-0.1,0.4,0,0.9,0,1.3
			c0.1,0.8-0.1,1.1-1,1.1c-2.6-0.1-2.6,0-2.6,2.8c0,1.5,0,3,0,4.6c0,2,0.4,2.3,2.3,2.4c0.4,0,1.5-0.6,1.2,0.6c-0.2,0.9,1,2.5-1,2.9
			c-1.3,0.3-2.6,0.3-4,0.2c-2-0.2-3.2-1.7-3.2-3.8c0-2.8,0-5.6,0-8.3c0-0.4,0.4-1.2-0.4-1.3c-0.7-0.1-1.9-0.4-2.2,0.2
			c-0.3,0.8-0.7,0.7-1.2,0.7c-2.6,0.1-3.7,1.2-3.7,4c0,2.4,0,4.8,0,7.3c0,0.8-0.1,1.1-1,1.1c-3.8,0.2-3.7,0.2-3.8-3.8
			c-0.1-4.1,0.2-8.2-0.2-12.2c-0.1-0.5,0.1-0.8,0.6-0.7c0.5,0,1,0,1.5,0C341.2,213.2,342.7,212.8,342.4,215.4z"/>
		<path class="st3" d="M371,248.7c0-2.5,0-4.8,0-7.1c0-0.9,0.2-1.2,1.2-1.3c3.8,0,3.8-0.1,3.8,3.9c0,6.3,0,12.7,0.1,19.1
			c0,0.8-0.2,1-0.9,1c-0.7-0.1-1.5-0.1-2.2,0c-1,0.1-2,0.1-1.6-1.6c-3.4,2.7-7.3,2.7-9.4-0.1c-1.6-2.1-2-4.6-1.8-7.2
			c0.1-1.8,0.5-3.5,1.5-5c1.9-2.9,5.2-3.8,8.2-2.3C370.1,248.3,370.5,248.4,371,248.7z M371.3,255.7c0.1-1.1-0.1-2.1-0.6-3
			c-0.6-1.1-1.4-1.9-2.6-1.9c-1.2,0.1-2.1,0.8-2.6,2c-0.8,2.2-0.9,4.5,0,6.7c0.8,1.9,2.6,2.3,4.2,1
			C371.1,259.2,371.2,257.4,371.3,255.7z"/>
		<path class="st6" d="M303.5,249c4.7-3.5,9-0.7,10.2,2.7c0.7,2.1,1,4.3,0.6,6.6c-0.3,1.8-0.9,3.4-2.2,4.7c-1.9,1.9-5.8,2.6-8.6-0.4
			c0.1,1.8-0.9,1.7-1.9,1.6c-2.8,0-2.8,0-2.8-3c0-6.5,0-12.9,0-19.4c0-1.2,0.3-1.5,1.4-1.5c3.4,0.1,3.4,0,3.4,3.6
			C303.5,245.6,303.5,247.2,303.5,249z M309.6,256.5c-0.1-1.3,0-2.5-0.5-3.6c-0.5-1.2-1.4-2-2.6-2.1c-1.2-0.1-2,0.7-2.6,1.7
			c-1.1,1.9-0.8,5.9,0.5,7.6c1.3,1.7,3.7,1.4,4.7-0.5C309.6,258.6,309.5,257.5,309.6,256.5z"/>
		<path class="st6" d="M307.4,214.9c3.3-3.7,9.5-2.2,10.6,3.2c0.6,3.1,0.4,6.1-1,8.9c-1.5,2.9-5.4,4.7-9.6,1.7c0,2.2-0.1,4.2,0,6.2
			c0.1,1.1-0.3,1.4-1.3,1.4c-3.5,0-3.5,0-3.5-3.7c0-6.2,0-12.3,0-18.4c0-0.9,0.2-1,0.9-1s1.4,0.1,2.1,0
			C306.7,213.1,307.4,213.5,307.4,214.9z M313.4,221.6c0-0.7,0-1.4-0.1-2.1c-0.2-1.8-1.2-3.1-2.5-3.2c-1.5-0.1-2.7,1-3.2,2.7
			c-0.4,1.6-0.5,3.2-0.2,4.8c0.3,1.5,1.5,2.8,2.6,2.9c1.5,0.2,2.4-0.7,3.1-2.5C313.4,223.4,313.3,222.5,313.4,221.6z"/>
		<path class="st7" d="M388.1,252.4c0-3.5,0.1-7,0-10.5c0-1.1,0.3-1.4,1.3-1.4c3.9,0.1,7.7,0.1,11.6,0c1.1,0,1.6,0.3,1.4,1.5
			c0,0.3,0,0.5,0,0.8c0.2,1.3-0.2,1.8-1.6,1.7c-2.2-0.2-4.3,0-6.5-0.1c-0.9,0-1.4,0.2-1.3,1.3c0.1,1.4-0.5,3.2,0.2,4.1
			c0.8,0.9,2.5,0.3,3.8,0.3c1.2,0.1,2.5,0.1,3.7,0c0.8,0,1,0.3,1,1.1c0.1,3,0.1,3-2.7,3c-1.7,0-3.5,0-5.2,0c-0.7,0-0.9,0.2-0.9,1
			c0,2.6,0,5.2,0,7.9c0,1.1-0.3,1.3-1.2,1.3c-3.7,0-3.7,0-3.7-3.9C388.1,257.8,388.1,255.1,388.1,252.4z"/>
		<path class="st5" d="M524.7,259.3c-0.1,2.7-1.3,4.4-3.7,5.2c-1.7,0.6-3.4,0.7-5.1,0.3c-2.8-0.5-4.7-2.3-5.2-5.4
			c-0.6-3.6-0.8-7.2,1.9-10.1c2.3-2.5,5.1-2.8,8-1.8c2.6,0.9,3.8,3.2,4.3,5.8c0.8,4.1,0.7,4.1-3.2,4.1c-2,0-4,0.1-5.9,0
			c-1,0-1.1,0.4-0.9,1.2c0.4,1.4,1,2.7,2.5,2.9c1.4,0.2,2.4-0.3,2.9-1.8c0.1-0.5,0.6-0.3,0.9-0.3
			C522.3,259.3,523.5,259.3,524.7,259.3z M517.6,253.9c0.3,0,0.6,0.1,0.9,0c0.6-0.1,1.4,0.5,1.7-0.4c0.3-0.9-0.2-1.8-1-2.5
			c-1-0.9-2.9-0.4-3.6,0.9c-0.9,1.7-0.7,2,1.1,2C517,253.9,517.3,253.9,517.6,253.9z"/>
		<path class="st5" d="M398.4,223c-1.4,0-2.8,0-4.2,0c-0.5,0-0.9,0-1,0.7c-0.1,1.1,1,3,2.1,3.3c1.1,0.4,2.5-0.2,3.1-1.4
			c0.3-0.6,0.5-0.9,1.2-0.8c0.7,0.1,1.4,0,2.1,0c1.5,0,1.7,0.4,1.1,1.8c-0.8,1.9-2.2,3.1-4.2,3.6c-3.6,1-7.3-0.2-8.9-3.1
			c-3-5.2-0.5-13.1,4.7-14.4c4.7-1.2,8.4,1.5,8.9,6.8c0.3,3.3,0.2,3.3-2.9,3.3C399.8,223,399.1,223,398.4,223z M396,219.6
			c0.2,0,0.5,0.1,0.7,0c0.6-0.2,1.6,0.5,1.9-0.5c0.3-1-0.4-2-1.2-2.5c-0.7-0.5-1.8-0.5-2.6,0.1c-0.7,0.6-1.5,1.5-1.2,2.5
			c0.3,0.9,1.3,0.2,1.9,0.4C395.7,219.6,395.8,219.6,396,219.6z"/>
		<path class="st5" d="M588.7,257.4c-1.4,0-2.8,0-4.2,0c-0.5,0-0.8,0.1-0.8,0.8c0,1.3,1,3,2.2,3.3c1.3,0.3,2.4-0.1,3-1.5
			c0.2-0.5,0.5-0.7,1-0.7c0.7,0,1.3,0,1.9,0c2,0,1.9,0,1.3,2c-0.3,0.9-0.8,1.6-1.4,2.1c-2.6,2.3-8.1,2.1-10.6-0.3
			c-0.9-0.9-1.5-2.1-1.7-3.3c-0.7-3.6-0.8-7.2,1.7-10.3c1.8-2.1,5.3-3.1,7.9-2.1c2.8,1,4.1,3.3,4.6,6.3c0.1,0.7,0.1,1.5,0.2,2.2
			c0.1,0.9-0.1,1.7-1.3,1.6C591.4,257.2,590,257.4,588.7,257.4z M586.5,253.9c0.7,0,1.3,0,1.9,0c0.6,0,0.8-0.3,0.7-0.8
			c-0.1-1-0.6-1.8-1.4-2.2c-0.8-0.4-1.8-0.4-2.5,0.2c-0.7,0.6-1.2,1.5-1.1,2.4c0.2,0.9,1.1,0.2,1.7,0.4
			C586,254,586.2,253.9,586.5,253.9z"/>
		<path class="st5" d="M294.7,223c-1.3,0-2.6,0.1-3.9,0c-1-0.1-1.2,0.4-1,1.3c0.2,1.4,0.9,2.5,2.2,2.8c1.2,0.3,2.4,0,2.9-1.4
			c0.3-0.6,0.6-0.8,1.2-0.8c0.5,0.1,1.1,0,1.6,0c2.1,0,2.2,0.2,1.3,2.2c-0.9,2-2.4,2.9-4.4,3.2c-4.3,0.7-8-0.3-9.1-4.9
			c-0.9-3.5-0.9-7,1.4-10.1c1.9-2.5,4.4-3.2,7.3-2.7c2.9,0.5,4.5,2.5,5.3,5.4c0.1,0.3,0.1,0.5,0.1,0.8c0.8,3.5,0.4,4.1-2.8,4.1
			C296.2,223,295.5,223,294.7,223z M292.6,219.6c0.5,0,1,0,1.5,0c1.1,0.1,1.2-0.3,0.9-1.4c-0.4-1.1-1-1.7-2.1-2
			c-1.2-0.3-1.9,0.6-2.6,1.5c-0.4,0.4-0.4,1-0.3,1.5c0.2,0.6,0.8,0.3,1.2,0.3C291.7,219.7,292.2,219.6,292.6,219.6z"/>
		<path class="st8" d="M452.4,212.9c4.7-0.4,7.8,3.6,7.8,8.9c0,5.6-3.9,8.8-8.1,8.8c-5.1,0-8.1-3.7-8-8.9
			C444.2,216.6,446.8,212.5,452.4,212.9z M449.2,221.8c0,0.7-0.1,1.4,0,2.1c0.2,1.7,1.5,3,2.9,3c1.8,0.1,2.6-0.7,3.1-2.6
			c0.4-1.9,0.4-3.8-0.1-5.6c-0.4-1.3-1.2-2.3-2.7-2.3c-1.5-0.1-2.4,0.8-2.9,2.2C449.1,219.6,449,220.7,449.2,221.8z"/>
		<path class="st5" d="M334.8,230c-1.1,0-2-0.1-2.9,0c-1.1,0.1-1.9,0-1.4-2.1c-2,2.9-4.4,2.6-6.7,2.2c-1.7-0.3-3-2.1-3.2-3.9
			c-0.2-2.3,0.4-4.4,2.4-5.6c1.7-1.1,3.7-1.5,5.6-1.3c1.2,0.1,1.3-0.5,1.1-1.5c-0.2-1.1-0.8-1.8-1.8-2c-1-0.2-1.6,0.7-1.8,1.5
			c-0.3,1-0.9,1-1.6,1c-0.5,0-1,0-1.5,0c-2,0-2.2-0.2-1.5-2.1c0.4-1.3,1.3-2.2,2.6-2.7c2.7-1,5.4-1.1,7.9,0.4c1.5,0.9,2,2.2,2.2,3.9
			c0.4,3.4,0.1,6.8,0.3,10.2C334.4,228.6,334.4,229.2,334.8,230z M329.7,223.8c0-0.8,0.2-1.7-0.8-1.6c-1,0.1-2,0.2-2.8,0.9
			c-1.1,0.9-1.2,2.2-0.3,3.4c0.7,0.9,1.9,0.8,2.8,0C329.3,225.6,329.8,224.8,329.7,223.8z"/>
		<path class="st5" d="M412.6,262.6c-2,2.5-4.4,2.4-6.7,1.8c-1.9-0.5-2.9-2.1-3-4.2c-0.1-2.2,0.5-4.2,2.5-5.4
			c1.6-0.9,3.3-1.3,5.1-1.3c0.5,0,1.4,0.6,1.5-0.5c0.1-0.9,0-1.9-0.9-2.5c-1-0.7-2.5-0.2-2.8,1c-0.2,1-0.8,1.1-1.5,1.1
			c-0.5,0-1.1,0-1.6,0c-2,0-1.9,0.3-1.4-2.1c0.2-1,0.9-1.8,1.7-2.3c2.8-1.6,5.6-1.6,8.5-0.3c2.4,1,2.6,3.4,2.7,5.6
			c0.2,3.4-0.3,6.8,0.3,10.2c0.1,0.6-0.3,0.6-0.6,0.6c-0.7,0-1.5,0-2.2,0C413.1,264.4,412.2,264.4,412.6,262.6z M412,257.7
			c-0.3-0.2,0.6-1.3-0.5-1.2c-1,0.1-2.1,0.2-3.1,0.9c-1,0.7-1.2,2.1-0.7,3c0.6,0.9,2,1.3,2.9,0.6C411.6,260.2,412.2,259.2,412,257.7
			z"/>
		<path class="st8" d="M295.8,256c0,5.6-3,9-8.1,9c-4.9,0-7.9-3.3-8-8.7c0-4.9,2.7-9.3,8.5-9C292.9,247.5,295.8,250.6,295.8,256z
			 M291.1,256c-0.1-0.8-0.1-1.8-0.4-2.7c-0.4-1.3-1-2.4-2.6-2.5c-1.6-0.2-2.6,0.7-3,2.1c-0.7,2.1-0.7,4.1-0.1,6.2
			c0.4,1.4,1.2,2.1,2.6,2.1c1.4,0.1,2.4-0.4,2.9-1.9C290.8,258.3,291,257.2,291.1,256z"/>
		<path class="st5" d="M334.8,262.4c-1.8,2.4-3.8,2.4-5.9,2.2c-2-0.1-3.5-1.9-3.7-3.9c-0.5-4.8,2.7-6.7,6.2-7c0.4,0,1,0.1,1.3-0.1
			c0.6-0.3,1.6,0.6,1.7-0.6c0-1.1-0.3-2.3-1.6-2.7c-1-0.3-1.9,0.2-2.1,0.9c-0.2,1.6-1.2,1.4-2.1,1.4c-0.4,0-0.8,0-1.2,0
			c-1.8,0-2.1-0.3-1.3-2.2c1-2.5,3.1-3.2,5.4-3.3c2.7-0.2,5.2,0.1,6.8,2.9c0.5,0.9,0.6,1.8,0.7,2.8c0.1,3.6-0.2,7.1,0.3,10.7
			c0,0.2,0,0.7-0.1,0.7c-0.9,0.1-1.8,0.1-2.6,0.2C335.5,264.4,334.5,264.5,334.8,262.4z M331.8,261.3c1.6,0,2.6-1.5,2.7-3.8
			c0-0.7-0.2-1-0.9-1c-2.1,0-3.7,1.2-3.7,2.8C329.7,260.3,330.7,261.3,331.8,261.3z"/>
		<path class="st4" d="M347.4,249.2c2.6-2.5,5.5-2.8,7.9-1c1.5,1.1,1.9,2.7,1.9,4.3c0.1,3.6,0,7.2,0.1,10.9c0,0.8-0.2,0.9-0.9,1
			c-3.8,0.2-3.8,0.2-3.8-3.8c0-2.4,0.2-4.8-0.2-7.2c-0.2-1.5-0.9-2.4-2.4-2.4c-1.3,0-2.4,1.2-2.5,2.8c-0.1,3-0.1,6.1,0,9.1
			c0,1.2-0.2,1.5-1.4,1.5c-3.3-0.1-3.3,0-3.3-3.6c0-3.2,0-6.4,0-9.6c0-0.2,0-0.4,0-0.6c0.1-1-0.7-2.5-0.1-2.8c1.2-0.5,2.7-0.3,4-0.2
			C347.6,247.6,346.9,248.7,347.4,249.2z"/>
		<path class="st7" d="M410.9,215.1c1.6-2.1,4.5-2.8,6.8-2c2.2,0.8,3.2,2.6,3.2,5.6c0,3.4,0,6.8,0.1,10.3c0,0.8-0.2,1.1-1,1.1
			c-1.2-0.1-2.8,0.4-3.6-0.3c-0.6-0.4-0.2-2.3-0.2-3.5c0-2.2,0-4.4,0-6.6c0-1.9-0.8-2.9-2.3-2.9c-1.6,0-2.7,1.1-2.7,3
			c0,3.1-0.1,6.1,0,9.1c0,0.9-0.2,1.2-1.2,1.2c-3.6,0-3.6,0.1-3.6-3.7c0-4.1,0-8.3-0.1-12.4c0-0.7,0.1-0.7,0.6-0.7
			c0.7,0,1.5,0.1,2.2,0C410.4,213,411.2,213.4,410.9,215.1z"/>
		<path class="st8" d="M464.3,247.6c0.8,0,1.6,0,2.4,0c2.5,0,2.5,0,3.3,2.6c0.8,2.7,1.6,5.4,2.5,8.4c1-3.5,2-6.8,2.9-10
			c0.2-0.8,0.5-1.2,1.3-1c0.3,0.1,0.7,0,1,0c2.9,0,2.9,0,1.8,2.9c-1.9,5.2-4,10.5-5.5,15.9c-0.1,0.2-0.1,0.4-0.2,0.6
			c-1,4-1,3.9-4.8,3.7c-0.8-0.1-0.9-0.4-0.7-1.1c0.1-0.3,0.2-0.7,0.4-1c1.2-2.7,1.2-5.4,0-8.2c-1.6-3.7-2.8-7.6-4.1-11.5
			C464.3,248.5,464.2,248.1,464.3,247.6z"/>
		<path class="st8" d="M272.1,249.6c0-2.7,0-5.4,0-8c0-0.9,0.2-1.2,1.1-1.2c4-0.1,4-0.1,4,4c0,4.1,0,8.2,0,12.3c0,3-1,5.7-3.6,7
			c-2.9,1.5-5.9,1.5-8.7-0.5c-1.5-1-2.7-4.7-2.3-6.5c0.1-0.4,0.3-0.3,0.5-0.3c0.7,0,1.3,0,1.9,0c2.2,0,2.1,0,2.7,2.3
			c0.2,1,0.7,1.8,1.9,1.8c1.1,0,2-0.3,2.4-1.6c0.3-0.8,0.2-1.6,0.2-2.5C272.1,254.2,272.1,251.9,272.1,249.6z"/>
		<path class="st5" d="M568.8,255.9c0.1,1.5,0.1,3,0.8,4.4c0.4,0.7,0.8,0.9,1.4,0.9c0.6,0,1.2-0.2,1.3-1c0.3-2.3,1.8-2.3,3.5-2.2
			c2,0.1,2,0.2,1.5,2.2c-0.8,3.7-4.2,4.8-7,4.5c-5.8-0.5-6.9-6.7-6.2-11.3c0.9-5.4,5.8-7.2,9.5-5.8c2.2,0.8,3.6,2.4,3.9,5
			c0.1,0.7-0.1,1-0.7,0.9c-0.7-0.1-1.3-0.1-1.9,0c-1.2,0.1-2.1,0.1-2.3-1.5c-0.1-0.7-0.6-1.3-1.5-1.3c-0.9,0-1.2,0.6-1.6,1.3
			C568.8,253.3,568.9,254.6,568.8,255.9z"/>
		<path class="st5" d="M546.3,257.9c0.9-2.9,1.9-5.8,2.7-8.7c0.4-1.3,0.9-1.7,2.1-1.7c3.1,0.1,3.1,0,2,3.1
			c-1.4,4.3-2.8,8.5-4.2,12.8c-0.2,0.7-0.5,0.9-1.1,0.9c-4.3,0.2-4.3,0.3-5.8-3.9c-1.3-3.8-2.6-7.7-3.9-11.6
			c-0.3-0.9-0.2-1.4,0.8-1.2c0.3,0,0.6,0,0.9,0c3.2,0,3.2,0,4.1,3.3c0.7,2.4,1.4,4.7,2.1,7.1C546.1,258,546.2,258,546.3,257.9z"/>
		<path class="st4" d="M463.7,223.5c0-1.8,0-3.6,0-5.4c0-0.9-0.1-1.3-1-1.1c-1.2,0.2-1.5-0.3-1.3-1.5c0.1-0.4,0.1-0.9,0-1.3
			c-0.1-0.9,0.2-1.2,1-1c1.2,0.2,1.5-0.4,1.4-1.5c-0.1-1.2-0.1-2.5,0.4-3.7c0.7-1.6,2.1-2.1,3.6-2.3c0.4-0.1,0.8,0,1.2,0
			c2.5,0,2.4,0,2.5,2.6c0.1,1.2-0.4,1.2-1.2,1.2c-1.5,0-2.6,2.2-1.8,3.5c0.3,0.4,0.7,0.3,1.1,0.2c1.2-0.2,1.7,0.1,1.7,1.6
			c0,1.6-0.2,2.5-1.9,2.1c-0.9-0.2-0.9,0.5-0.9,1.1c0,3.5,0,6.9,0,10.4c0,1-0.1,1.5-1.3,1.4c-1.1-0.1-2.6,0.4-3.3-0.3
			c-0.6-0.5-0.1-2.2-0.1-3.4C463.7,225.4,463.7,224.4,463.7,223.5z"/>
		<path class="st8" d="M430.4,221.2c0,0.9,0,1.8,0,2.7c0,2.2,0.4,2.8,2.5,2.6c1-0.1,1.1,0.3,1.1,1.2c0,2.4,0,2.5-2.3,2.6
			c-0.7,0.1-1.5,0.1-2.2,0c-2.3-0.2-3.7-1.6-3.7-4.2c0-2.6-0.1-5.1,0-7.7c0-1.3-0.2-2-1.5-1.7c-1.5,0.3-1.5-0.6-1.5-1.8
			c0-1.2,0.2-1.9,1.5-1.7c1.2,0.2,1.8-0.2,1.5-1.5c-0.2-1.3,0.3-1.9,1.4-2.2c1.1-0.3,2.1-1,3.2-1c0,1.1,0.1,2.3,0.1,3.4
			s0.3,1.5,1.3,1.4c0.1,0,0.2,0,0.3,0c0.7,0.1,1.6-0.4,1.9,0.3c0.3,0.8,0.1,1.9,0.1,2.8c-0.1,0.7-0.6,0.3-1,0.3
			c-2.6,0.1-2.6,0.1-2.6,2.9C430.4,220.1,430.4,220.6,430.4,221.2z"/>
		<path class="st7" d="M461.9,251.7c0,4.4,0,8.1,0,11.7c0,0.8-0.2,0.9-0.9,1c-3.9,0.2-3.9,0.2-3.9-3.9c0-6.2,0-12.3,0-18.4
			c0-1.4,0.4-1.7,1.6-1.6c0.7,0.1,1.5,0.1,2.2,0c0.9-0.1,1.2,0.3,1.1,1.1C461.7,245.2,462.1,248.9,461.9,251.7z"/>
		<path class="st8" d="M532.1,250.2c1-2.2,2.6-2.5,4.2-2.7c0.1,0,0.2-0.1,0.3,0c1,0.1,0.7,0.9,0.7,1.5c0,3.7,0.1,3-0.7,3.1
			c-0.7,0.1-1.5,0-2.2,0.3c-1.1,0.5-1.8,1.4-1.8,2.7c0,2.6-0.1,5.3,0,7.9c0,1-0.1,1.4-1.2,1.4c-3.5,0-3.5,0.1-3.5-3.7
			c0-4,0.2-8-0.2-12c-0.1-0.8-0.1-1.5,1-1.2c0.4,0.1,0.9,0,1.3,0C532,247.6,532,247.6,532.1,250.2z"/>
		<path class="st8" d="M561.1,256c0,2.4,0,4.7,0,7.1c0,0.9-0.1,1.3-1.1,1.3c-3.6,0-3.6,0.1-3.6-3.7c0-3.9,0-7.9,0-11.8
			c0-0.9,0.1-1.3,1.1-1.3c3.6,0,3.6-0.1,3.6,3.8C561.1,252.9,561.1,254.4,561.1,256z"/>
		<path class="st8" d="M448.9,256c0-2.4,0-4.8,0-7.3c0-0.9,0.2-1.1,1.1-1.1c3.6-0.1,3.6-0.1,3.6,3.8c0,3.9,0,7.8,0,11.7
			c0,1-0.3,1.3-1.2,1.3c-3.4,0-3.4,0-3.5-3.7C448.9,259.1,448.9,257.5,448.9,256z"/>
		<path class="st9" d="M451.2,245c-2.6,0-2.5,0-2.6-2.8c-0.1-1.5,0.4-2.1,1.8-1.8c0.1,0,0.2,0,0.3,0c3.3,0,3.3,0,3.2,3.5
			c0,0.8-0.2,1.2-1,1.1C452.3,245,451.8,245,451.2,245z"/>
		<path class="st9" d="M558.7,245c-2.6,0-2.4,0-2.6-2.7c-0.1-1.7,0.4-2.1,1.9-2c3.1,0.1,3,0,3.2,3.2c0.1,1.2-0.2,1.6-1.3,1.4
			C559.5,245,559.1,245,558.7,245z"/>
		<path class="st10" d="M118.3,228.3c1.5-1.7,2.9-3.3,4.8-4.3c4.4-2.2,8.9-2.2,13.5-0.4c4.9,2.1,6.6,6.5,6.7,11.6
			c0.2,6.4,0.1,12.8,0,19.2c0,1.2,0.3,1.5,1.4,1.5c1.2,0,2.9-0.6,3.7,0.3c0.7,0.9,0.2,2.6,0.2,4c0,0.8-0.1,1.6,0,2.4
			c0.2,1.3-0.4,1.5-1.5,1.5c-5.9-0.1-11.9-0.1-17.8,0c-1.3,0-1.5-0.4-1.5-1.6c0.1-1.8,0.1-3.7,0-5.5c0-0.8,0.1-1.1,0.9-1
			c0.2,0,0.4,0,0.6,0c3.3,0,3.3,0,3.3-3.6c0-4.4,0.1-8.8,0-13.3c0-2-0.3-4.1-1.4-5.8c-2.1-3.1-5.8-2.9-8.4-1.2c-3,2-4.5,5-4.5,8.7
			c0,4.6,0,9.2,0,13.9c0,1,0.3,1.3,1.2,1.3c1.2,0,2.7-0.6,3.4,0.3c0.6,0.8,0.2,2.3,0.1,3.5c0,1.4,0.6,3.1-0.2,3.9
			c-0.8,0.9-2.4,0.3-3.7,0.3c-5.2,0-10.4,0-15.6,0c-0.9,0-1.3-0.1-1.2-1.3c0.1-2,0.1-4,0-6c0-0.7,0.2-0.9,0.8-0.9c1.1,0,2.2,0,3.3,0
			c0.7,0,1-0.2,1-1c0-13.1,0-26.3,0-39.4c0-0.8-0.2-1.1-0.9-1c-0.1,0-0.2,0-0.3,0c-1.3-0.1-2.9,0.6-3.7-0.3
			c-0.6-0.7-0.2-2.5-0.2-3.8c0-1.2-0.4-3,0.1-3.6c0.6-0.6,2.2-0.2,3.4-0.2c3.8,0,7.6,0,11.4-0.1c1,0,1.1,0.5,1.1,1.3
			c0,6.3,0,12.6,0,18.9C118.3,227.3,118.3,227.8,118.3,228.3z"/>
		<path class="st11" d="M178.4,244c-0.2-4.1,0.5-7.9,2.3-11.3c2.5-5,6.4-8.1,11.5-9.4c6.5-1.7,12.8-1,18.5,2.9c3.9,2.7,6,6.7,7,11.4
			c1,4.5,1,9.1-0.3,13.7c-2,7.3-6.6,11.6-13.5,13.3c-5.2,1.3-10.4,0.9-15.3-1.5c-4.5-2.1-7.5-5.8-9.1-10.6
			C178.7,249.6,178.2,246.8,178.4,244z M189.7,244.3c0,2.5,0.3,5.3,1.7,7.9c1.6,3,4,4.6,7.3,4.5c3.1-0.1,5.3-1.6,6.8-4.6
			c1-2,1.5-4.2,1.6-6.4c0.3-4.4-0.1-8.6-2.9-12.2c-2.7-3.4-8.5-3.5-11.3-0.2C190.2,236.3,189.6,240,189.7,244.3z"/>
		<path class="st12" d="M168.3,239.7c0,4.9,0,9.9,0,14.8c0,1,0.2,1.5,1.2,1.4c0.9-0.1,1.8,0.1,2.7,0c1.1-0.1,1.5,0.2,1.5,1.4
			c-0.1,1.8-0.1,3.7,0,5.5c0,0.9-0.2,1.2-1.1,1.2c-6.4,0-12.8,0-19.1,0c-0.8,0-1.1-0.3-1.1-1.1c0.1-2,0.1-3.9,0-5.8
			c0-0.9,0.3-1.3,1.1-1.1c0.1,0,0.1,0,0.1,0c1.3-0.1,3.1,0.6,3.8-0.3c0.7-0.9,0.2-2.7,0.2-4.1c0-6.2,0-12.4,0-18.6
			c0-1.1-0.3-1.4-1.3-1.4c-1.3,0.1-3,0.6-3.7-0.2c-0.8-0.9-0.2-2.7-0.3-4.1c0-3.6,0-3.6,3.4-3.6c3.7,0,7.4,0.1,11.1,0
			c1.3,0,1.5,0.4,1.5,1.6C168.2,230.1,168.3,234.9,168.3,239.7C168.3,239.7,168.3,239.7,168.3,239.7z"/>
		<path class="st11" d="M162.8,206.6c1.6,0,3.2,0.1,4.8,0c0.8-0.1,0.8,0.3,0.8,0.9c-0.1,3.2-0.1,6.5,0,9.7c0,0.7-0.1,1-0.9,1
			c-3.2,0-6.3,0-9.5,0c-0.7,0-0.9-0.3-0.9-1c0-3.2,0-6.5,0-9.8c0-0.7,0.2-0.9,0.9-0.9C159.5,206.6,161.2,206.6,162.8,206.6z"/>
		<path class="st0" d="M94.7,232.5c-0.1,8-2.2,14-7.1,18.9c-3.9,3.9-8.6,6-14,6.3c-3.9,0.3-7.7-0.3-11.3-2
			c-5.1-2.4-8.8-6.3-11.1-11.7c-2.6-6-2.7-12.3-1.2-18.6c0.6-2.5,1.8-4.8,3.2-7c1.9-2.9,4.2-5.2,7-6.9c4.5-2.8,9.5-3.6,14.7-3
			c5.1,0.6,9.4,2.9,13,6.5c3,3.1,5.1,6.8,6,11.2C94.4,228.7,94.8,231,94.7,232.5z"/>
		<path class="st13" d="M269,218c0-2.1,0.1-4.3,0-6.4c-0.1-1.2,0.5-1.5,1.4-1.5c1,0,2.1,0.1,3.1,0.3c2.2,0.5,3.4,2.2,3.9,4.4
			c0.6,2.4,0.4,4.8-0.3,7.1c-0.8,2.5-2.4,3.7-4.8,3.9c-0.7,0.1-1.4,0-2.1,0c-1,0.1-1.2-0.3-1.2-1.3C269.1,222.4,269,220.2,269,218z"
			/>
		<path class="st0" d="M371.3,255.7c-0.1,1.8-0.1,3.5-1.6,4.8c-1.5,1.3-3.4,0.9-4.2-1c-0.9-2.2-0.8-4.4,0-6.7c0.4-1.3,1.3-2,2.6-2
			c1.3-0.1,2.1,0.8,2.6,1.9C371.2,253.6,371.4,254.6,371.3,255.7z"/>
		<path class="st13" d="M309.6,256.5c-0.1,1,0,2.1-0.5,3.1c-1,2-3.3,2.2-4.7,0.5c-1.3-1.7-1.6-5.7-0.5-7.6c0.6-1,1.4-1.8,2.6-1.7
			c1.2,0.1,2.1,0.9,2.6,2.1C309.6,254,309.6,255.2,309.6,256.5z"/>
		<path class="st0" d="M313.4,221.6c-0.1,0.9,0,1.8-0.3,2.7c-0.7,1.8-1.6,2.6-3.1,2.5c-1.1-0.1-2.3-1.5-2.6-2.9
			c-0.3-1.6-0.3-3.2,0.2-4.8c0.5-1.8,1.8-2.9,3.2-2.7c1.3,0.1,2.3,1.3,2.5,3.2C313.4,220.2,313.4,220.9,313.4,221.6z"/>
		<path class="st0" d="M517.6,253.9c-0.3,0-0.6,0-0.9,0c-1.8,0-2-0.3-1.1-2c0.7-1.3,2.6-1.7,3.6-0.9c0.7,0.6,1.2,1.5,1,2.5
			c-0.2,0.9-1.1,0.2-1.7,0.4C518.2,254,517.9,253.9,517.6,253.9z"/>
		<path class="st0" d="M396,219.6c-0.1,0-0.3,0-0.4,0c-0.7-0.2-1.7,0.5-1.9-0.4c-0.3-1,0.4-1.9,1.2-2.5c0.8-0.7,1.8-0.7,2.6-0.1
			c0.7,0.5,1.4,1.5,1.2,2.5c-0.3,1-1.2,0.3-1.9,0.5C396.5,219.7,396.2,219.6,396,219.6z"/>
		<path class="st0" d="M586.5,253.9c-0.2,0-0.5,0.1-0.7,0c-0.6-0.2-1.5,0.5-1.7-0.4c-0.2-0.9,0.3-1.9,1.1-2.4
			c0.8-0.6,1.7-0.6,2.5-0.2c0.8,0.4,1.3,1.3,1.4,2.2c0.1,0.6-0.1,0.9-0.7,0.8C587.8,253.9,587.1,253.9,586.5,253.9z"/>
		<path class="st0" d="M292.6,219.6c-0.4,0-0.9,0-1.3,0c-0.4-0.1-1,0.3-1.2-0.3c-0.1-0.5-0.1-1,0.3-1.5c0.7-0.9,1.3-1.8,2.6-1.5
			c1,0.2,1.7,0.8,2.1,2c0.4,1.1,0.2,1.5-0.9,1.4C293.6,219.6,293.1,219.6,292.6,219.6z"/>
		<path class="st0" d="M449.2,221.8c-0.1-1.1,0-2.2,0.3-3.2c0.4-1.4,1.3-2.3,2.9-2.2c1.5,0.1,2.4,1,2.7,2.3c0.5,1.8,0.5,3.7,0.1,5.6
			c-0.5,1.9-1.3,2.7-3.1,2.6c-1.4-0.1-2.6-1.3-2.9-3C449.1,223.2,449.2,222.5,449.2,221.8z"/>
		<path class="st0" d="M329.7,223.8c0.1,1-0.4,1.9-1.1,2.6c-0.9,0.9-2.2,0.9-2.8,0c-0.9-1.2-0.8-2.5,0.3-3.4
			c0.8-0.6,1.8-0.8,2.8-0.9C329.9,222.1,329.7,223,329.7,223.8z"/>
		<path class="st0" d="M412,257.7c0.2,1.5-0.4,2.5-1.4,3.2c-0.9,0.7-2.3,0.3-2.9-0.6c-0.6-0.9-0.3-2.3,0.7-3c0.9-0.7,2-0.8,3.1-0.9
			C412.6,256.4,411.6,257.5,412,257.7z"/>
		<path class="st0" d="M291.1,256c-0.1,1.3-0.3,2.4-0.6,3.4c-0.5,1.5-1.5,2-2.9,1.9c-1.4-0.1-2.1-0.8-2.6-2.1
			c-0.6-2.1-0.6-4.2,0.1-6.2c0.4-1.5,1.4-2.3,3-2.1c1.5,0.1,2.2,1.2,2.6,2.5C291,254.2,291,255.2,291.1,256z"/>
		<path class="st0" d="M331.8,261.3c-1,0-2-0.9-2-2c0-1.6,1.6-2.8,3.7-2.8c0.7,0,1,0.3,0.9,1C334.4,259.8,333.4,261.2,331.8,261.3z"
			/>
		<path class="st0" d="M189.7,244.3c0-4.3,0.6-8,3.2-11c2.8-3.3,8.6-3.2,11.3,0.2c2.9,3.6,3.2,7.8,2.9,12.2
			c-0.2,2.2-0.6,4.4-1.6,6.4c-1.5,2.9-3.7,4.5-6.8,4.6c-3.3,0.1-5.7-1.5-7.3-4.5C190,249.6,189.6,246.8,189.7,244.3z"/>
	</g>
</g>
</svg>
