<?xml version="1.0" encoding="utf-8"?>
<!-- Generator: Adobe Illustrator 24.1.1, SVG Export Plug-In . SVG Version: 6.00 Build 0)  -->
<svg version="1.1" id="Layer_1" xmlns="http://www.w3.org/2000/svg" xmlns:xlink="http://www.w3.org/1999/xlink" x="0px" y="0px"
	 viewBox="0 0 640 480" style="enable-background:new 0 0 640 480;" xml:space="preserve">
<style type="text/css">
	.st0{fill:#FDFCFC;}
	.st1{fill:#040404;}
	.st2{fill:#E41E3B;}
	.st3{fill:#830427;}
	.st4{fill:#E41D3B;}
	.st5{fill:#E41D3A;}
	.st6{fill:#840428;}
	.st7{fill:#E5203D;}
	.st8{fill:#840628;}
	.st9{fill:#EFEFEF;}
	.st10{fill:#F1F1F2;}
	.st11{fill:#EE7284;}
	.st12{fill:#EAEAEA;}
	.st13{fill:#FEFAFB;}
	.st14{fill:#FBF8F9;}
	.st15{fill:#FEFCFC;}
</style>
<g>
	<g>
		<path class="st0" d="M148,412c0-114.7,0-229.3,0-344c114.7,0,229.3,0,344,0c0,114.7,0,229.3,0,344C377.3,412,262.7,412,148,412z
			 M474.9,383.4L474.9,383.4c0.7,0.1,1.6,0.1,1.8-0.7c0.7-2.1,0.9-4.2-0.2-6.2c-0.1-0.1-0.7,0-1,0c-0.6-0.9-1.2-1.9-1.8-2.8
			c0.2-1-0.2-1.7-1.2-1.7c-0.8,0-1.2,0.5-1.3,1.2c-1.5,0-2.9,0.1-4.4,0.1c-0.2-0.1-0.4-0.2-0.6-0.1c-1.3-0.1-2.6-0.3-2.9,1.5
			l0.1,0.2c-1.8,1.8-1.2,4.1-1.1,6.2c0.2,4,3.3,5,6.4,5.7c1.9,0.4,4.1,0.4,5-2.2l0,0C474.6,384.7,475,384.3,474.9,383.4z
			 M162.3,209.7c-1,1.6-0.6,3.1-0.6,4.6c0,18.5,0,36.9,0,55.4c0,6.2,0,6.2,6.4,6.2c70.2,0,140.5,0,210.7,0c26.8,0,53.7,0,80.5,0
			c4,0,4.1,0.3,4.1-4c0-19.8,0-39.6,0-59.4c0-0.9,0.3-1.9-0.7-2.9C362.6,209.7,262.4,209.7,162.3,209.7z M339.3,376.6
			c1.9,1,2.9,2.7,4.1,4.1c3.3,4,7.6,6.3,12.6,7.1c2.8,0.4,5.7,0.2,8.5,0.2c5.9,0,11-2.1,15.5-6c6.9-6.1,10.1-13.9,10.5-23
			c0.1-3.8,0-7.6,0-11.4c-0.1-5.8-2-11.1-4.7-16.1c-7.9-14.4-31.6-19.1-44.7-2.6c0-12.5,0-24.4,0-36.7c-9,0-17.5,0-26,0
			c-1.8,0-2.3,0.8-2.2,2.4c0.1,0.8,0,1.5,0,2.3c0.2,2.4-1,5.3,0.6,7.2c1.5,1.7,4.3,0.5,6.5,0.7c1.4,0.1,2.1,0.6,2.2,2
			c0,1.3,0,2.7,0,4c0,18.5,0,36.9,0,55.4c0,2.2,0.9,4.9-0.5,6.6c-1.3,1.7-3.9,0.5-6,0.7c-1.9,0.1-2.8,0.9-2.8,2.8
			c0,2.3,0.1,4.6,0,6.8c-0.2,2.2,0.6,3.1,2.9,3c5.1-0.1,10.3,0,15.4,0c2.4,0,5.5,0.7,7.2-0.5c1.9-1.3,0.5-4.6,0.8-7
			C339,377.9,339.1,377.4,339.3,376.6z M296.4,95.2c-6.5,0-12.5,0-18.5,0c-7.6,0-7.6,0-7.5,7.5c0.1,3.7,0,3.8,4.4,4.2
			c1.6,0.1,2.5,0.6,2.4,2.3c0,0.9,0,1.9,0,2.9c0,21.3,0,42.6,0,63.9c0,1.1,0,2.3,0,3.4c0,1.1-0.7,1.6-1.8,1.7
			c-1.6,0.2-3.8-0.9-4.7,0.9c-0.7,1.4-0.2,3.3-0.3,5c0,1,0.1,1.9,0,2.9c-0.3,2.3,0.7,3,2.9,3c6.3-0.1,12.6,0,18.8-0.1
			c3.2,0,7.3,1.4,9.4-0.5c2.3-2.2,0.6-6.5,0.8-9.8c0-0.3-0.3-0.6-0.6-1.2c-1.5-0.7-3.7,0.6-5.2-1.1c0-4.9,0-9.8,0-14.8
			c0-4-0.1-8,0.1-12c0.4-6.1,4.5-10.4,10.2-11c5.7-0.6,9.7,2.4,11.8,8.4c0.7,1.9,0.8,3.7,0.8,5.6c0,6.5,0,12.9,0,19.4
			c0,5,0,4.9-5,5.5c-0.3,0-0.5,0.5-0.8,0.8c0,2.8,0.1,5.7,0,8.5c0,1.7,0.7,2.3,2.4,2.3c6.5,0,12.9,0.1,19.4-0.1
			c3.3-0.1,7.7,1.6,9.7-0.9c1.9-2.3,0.5-6.6,0.5-9.9c0-0.1-0.2-0.3-0.5-0.6c-0.4-0.1-0.9-0.2-1.4-0.3c-4.7-0.2-4.8-0.2-4.8-5
			c0-9.1,0.3-18.3-0.1-27.4c-0.8-19.8-19-26.4-32-22.3c-3.8,1.2-6.9,3.6-10.3,7C296.4,120.2,296.4,107.9,296.4,95.2z M271.9,388
			c3.7,0.2,7.7-0.1,11.5-1.2c9.4-2.7,16.6-8.3,20.6-17.3c3.8-8.7,4.1-17.7,1.9-26.9c-2.6-11-9.4-18-19.5-21.8
			c-8.8-3.3-18-3.4-27.2-0.4c-7.1,2.3-12.9,6.3-16.8,12.7c-5.1,8.4-6.4,17.6-4.8,27.2c1.6,9.3,5.7,17.2,14,22.2
			C257.9,386.3,264.4,388.4,271.9,388z M205.3,307.8c1.2,1.2,0.9,2.2,0.9,3.1c0,17.1,0,34.2,0,51.4c0,2.9-0.9,5.5-2,8.1
			c-1,2.2-2.7,3.2-4.7,3.9c-6.4,2.1-11.8-1.5-12.8-8.2c-0.5-3.3-1-6.6-1.5-10.2c-5.4,0-10.7,0.1-16,0c-2.4-0.1-2.9,1.1-2.7,3.2
			c0.3,3.4,0.4,6.8,1,10.1c1.7,8.5,6,15.2,14.8,17.6c9.7,2.6,19.5,2.2,29-1.3c5.1-1.9,9-5.3,11.3-10.5c2-4.4,3-8.9,3-13.7
			c0-15,0-30.1,0-45.1c0-2.6-1.1-5.8,0.7-7.7c1.6-1.6,4.7-0.6,7.1-0.6c2,0,2.7-0.8,2.6-2.7c-0.1-2.7-0.2-5.3,0-8
			c0.1-2.3-0.7-2.9-2.9-2.9c-10.7,0.1-21.3,0-32,0.1c-3.1,0-6.4-0.8-9.4,0.7c-0.1,3.2-0.3,6.4-0.2,9.6c0,2.7,0.4,3.1,3.5,3.2
			C198.6,307.9,202.2,307.8,205.3,307.8z M428,193.9c17.7,1.1,33.9-13,34.1-33.3c0.2-19.9-15.8-34.7-33.8-34.6
			c-17.7,0.1-33.7,12.6-34.1,33.7C393.8,180.5,409.7,194.7,428,193.9z M415.9,379.9c5.9,6.6,13,8.5,21.2,8.2
			c10.5-0.5,18.6-6.8,21.1-17.1c2.2-8.8-1.7-17.3-9.8-21.3c-4.8-2.4-10-3.3-15.2-3.9c-3.4-0.4-6.7-1.3-9.8-2.5
			c-2.2-0.8-3.7-2.6-3.6-5.3c0.1-2.5,1.1-4.2,3.3-5.5c6.1-3.7,18.4-1.2,18.6,7.8c0,1.5,0.9,1.9,2.2,1.9c3.4,0,6.9-0.1,10.3,0
			c1.7,0,2.4-0.5,2.4-2.3c-0.1-3.8,0.1-7.6-0.1-11.4c-0.1-2.6,1.3-6-0.8-7.5c-1.6-1.2-4.7-0.5-7.2-0.5c-5.5,0-5.5,0-6.2,5.8
			c-2.9-2.9-5.9-5.6-9.8-6.8c-6.2-1.9-12.1-1.2-18.3,0.8c-13.7,4.4-15.7,20.6-10,30c1,1.7,2.3,2.8,3.9,4c4.4,3.3,9.7,4,14.8,5.2
			c4.4,1,9,1,13.2,3c5.6,2.6,5,8.2,0.9,11.3c-0.9,0.7-2,1.3-3,1.5c-7.7,1.6-16.9-2-17.6-9.8c-0.2-1.9-1.4-2.4-3.2-2.4
			c-3.8,0.1-7.5,0-11.6,0c0,7.3,0,14.1,0,21c0,1.4,0.6,2,2,2c3.8,0,7.5,0,11,0C416,383.9,414.9,382,415.9,379.9z M213.4,195
			c13.6,0.7,25.3-4.7,35.1-13.8c10.6-9.8,15.7-22.8,15.6-37c-0.1-13.5-4.5-25.9-14.5-35.8c-10-9.9-21.7-14.8-35.9-15.5
			c-25.9-1.2-51.2,21.9-51.4,50.8C162.3,172.9,187.3,196.3,213.4,195z M353.7,138.9c1.8,0,2.9,0.1,4,0c2.6-0.3,3.3,1,3.1,3.3
			c-0.1,2.8,0,5.7,0,8.6c0,9.1,0,18.3,0,27.4c0,1.7-0.1,2.8-2.3,3c-4.6,0.3-4.6,0.5-4.6,5.1c0,1.1,0,2.3,0,3.4
			c0.1,3.1,0.1,3.2,3.1,3.2c7.2,0.1,14.4,0.1,21.7,0c2.6,0,5.9,1.2,7.6-0.7c1.7-1.8,0.5-5.1,0.6-7.7c0.1-3.1-0.1-3.1-3.5-3.4
			c-3.3-0.2-3.3-0.2-3.3-3.6c0-8.7,0-17.5,0-26.2c0-7-0.1-14.1,0-21.1c0-2.2-0.6-3.1-2.9-3c-4.4,0.1-8.7,0-13.1,0.1
			c-3.2,0.1-6.4-0.4-9.6,0.3C353.1,131,354.1,134.6,353.7,138.9z M369.3,112.6c3.1,0,5.8,0,8.4,0c1.3,0,2.2-0.3,2.2-1.8
			c0-4.5,0-9.1,0-13.6c0-1.4-0.7-2-2.1-2c-3,0-6.1-0.1-9.1,0c-2.6,0.1-5.9-1.2-7.6,0.7c-1.7,1.8-0.5,5.1-0.6,7.7
			c0,2.8-1.2,6.4,0.5,8.2C363.1,114,366.9,112.2,369.3,112.6z"/>
		<path class="st1" d="M162.3,209.7c100.1,0,200.3,0,300.4,0c1,1,0.7,2,0.7,2.9c0,19.8,0,39.6,0,59.4c0,4.3-0.1,4-4.1,4
			c-26.8,0-53.7,0-80.5,0c-70.2,0-140.5,0-210.7,0c-6.4,0-6.4,0-6.4-6.2c0-18.5,0-36.9,0-55.4C161.7,212.9,161.3,211.3,162.3,209.7z
			 M226.3,250.6c-1.6-5.9-2.9-10.9-4.3-15.9c-2.9-10.4-2.9-10.3-13.8-9.9c-2.3,0.1-2.9,0.8-2.9,3c0.1,10.5,0,20.9,0.1,31.4
			c0,1.3-0.5,2.7,0.7,3.7c7.1,0.3,7.1,0.3,7.1-6.4c0-2.5-0.1-5,0-7.4c0.1-5-0.4-10,0.4-15.7c1.1,3.2,2.1,5.6,2.8,8.1
			c1.7,5.8,3.3,11.6,5.2,17.4c0.5,1.5,0.6,3.5,2.6,4.1c3.3,1.1,5.7-0.1,6.8-3.4c0.2-0.7,0.4-1.5,0.6-2.2c2.4-7.4,4.9-14.8,7.4-22.7
			c1,2.3,0.6,4.3,0.6,6.1c0.1,6.3,0,12.6,0,18.8c0,1.1-0.2,2.6,1.1,3c2.2,0.7,4.6,0.9,6.6-0.1c1.7-0.8,1-2.7,1-4.2
			c0-9.9,0-19.8,0-29.7c0-1.3,0.5-2.7-0.8-3.9c-3,0-6.3,0.2-9.5-0.1c-2.5-0.2-3.4,1.2-4,3.1c-0.9,2.9-1.6,5.8-2.6,8.7
			C229.9,240.9,229.1,245.6,226.3,250.6z M356.5,234.6c3.5,7.4,6.9,14.6,10.2,21.8c3.2,7,3.2,7.1,10.8,6.7c3.4-0.2,3.5-0.2,3.6-3.6
			c0-10.3,0-20.5,0-30.8c0-1.3,0.5-2.7-0.8-3.7c-7-0.2-7-0.2-7,6.6c0,2.5,0,4.9,0,7.4c0,4.2,0,8.5,0,12.7c-4-6.3-7.2-12.7-10.2-19.2
			c-4.4-9.5-2.1-7.4-12-7.6c-3.5-0.1-3.7,0.2-3.7,4c0,9.9,0,19.8,0,29.6c0,4.5,0.3,4.7,4.9,4.6c3.1-0.1,3.4-0.4,3.5-3.7
			c0-6.3,0-12.5,0-18.8C355.7,238.7,355.1,236.8,356.5,234.6z M408.4,263.5c1.3,0,2.7,0.1,4,0c3.5-0.3,6.6-1.8,9.1-4.3
			c5.4-5.5,3.9-13.1-2.9-16.4c-2.2-1.1-4.6-1.7-7-2.2c-1.8-0.4-3.7-0.9-5.4-1.7c-1.4-0.6-2.4-1.8-2.4-3.6c0-1.9,0.9-3.2,2.6-4
			c3.6-1.8,6.4-1,8.6,2.6c0.6,0.9,0.6,2.3,2.2,2.2c1.9-0.1,3.8,0,5.6-0.4c1.1-0.2,0.7-1.6,0.5-2.5c-0.7-4.2-4.4-7.7-9-8.3
			c-2.6-0.4-5.3-0.4-8-0.1c-6,0.5-10.8,4.8-11.4,10.2c-0.6,5.3,2.1,9.1,8.3,11.3c1.6,0.6,3.3,0.9,4.9,1.4c1.5,0.4,3,0.7,4.4,1.2
			c1.6,0.6,3.1,1.5,3.1,3.6c0,2.1-0.8,3.5-2.8,4.5c-4.6,2.2-8.3,0.8-10.2-4.2c-0.5-1.3-1.1-1.9-2.4-1.9c-1.5,0-3,0-4.6,0
			c-1.5,0-2,0.7-1.9,2.1c0.2,4.5,2.6,7.8,6.8,9.6C403.2,263.6,405.8,263.5,408.4,263.5z M317.3,224.9c-4.8,0-4.9,0-6.4,4.4
			c-3.3,9.3-6.7,18.5-10,27.8c-0.4,1.2-0.8,2.5-1.2,3.8c-0.2,0.7-0.2,1.5,0.6,2c2.1,1.3,6.3,0.1,7.2-2.1c0.4-0.9,0.6-1.8,0.8-2.7
			c0.7-2.6,2.1-3.9,4.9-3.5c0.9,0.1,1.9,0.1,2.8,0c5.2-0.7,9.3,0.1,10.2,6.4c0.3,2,6.5,3.1,7.8,1.7c0.3-0.3,0.4-1.1,0.3-1.6
			c-0.3-1.3-0.7-2.6-1.1-3.8c-3.2-9.3-6.3-18.6-9.5-27.9C322.3,224.9,322.2,224.9,317.3,224.9z M263.2,243.8c0,5.5,0,11,0,16.5
			c0,1.8,0.5,2.8,2.6,2.8c6.8-0.1,13.7-0.1,20.5,0c2.7,0,2.5-1.7,2.5-3.4c0-1.8,0.2-3.4-2.5-3.3c-3.2,0.2-6.5,0-9.7,0
			c-5.7,0-5.2,0.6-5.2-5.2c0-0.8,0.1-1.5,0-2.3c-0.2-2,0.7-2.7,2.7-2.6c3.6,0.1,7.2-0.1,10.8,0.1c2.7,0.1,2.4-1.6,2.5-3.4
			c0.1-1.8-0.3-2.9-2.4-2.9c-3.6,0.1-7.2,0-10.8,0c-1.8,0-2.8-0.8-2.7-2.7c0-0.8,0-1.5,0-2.3c0-3.8,0-3.8,3.6-3.9
			c3.6,0,7.2-0.1,10.8,0c2.6,0.1,2.7-1.3,2.6-3.2c-0.1-1.7,0.4-3.4-2.4-3.4c-6.6,0.1-13.3,0.1-20,0c-2.4,0-2.9,0.9-2.9,3
			C263.2,233.2,263.2,238.5,263.2,243.8z"/>
		<path class="st2" d="M339.3,376.6c-0.1,0.7-0.3,1.3-0.3,1.8c-0.3,2.4,1.1,5.6-0.8,7c-1.7,1.2-4.7,0.5-7.2,0.5
			c-5.1,0-10.3-0.1-15.4,0c-2.2,0-3-0.8-2.9-3c0.2-2.3,0-4.6,0-6.8c0-1.9,0.9-2.7,2.8-2.8c2-0.2,4.6,1,6-0.7
			c1.4-1.8,0.5-4.4,0.5-6.6c0-18.5,0-36.9,0-55.4c0-1.3,0-2.7,0-4c0-1.4-0.8-1.9-2.2-2c-2.2-0.2-5.1,1.1-6.5-0.7
			c-1.5-1.8-0.4-4.7-0.6-7.2c-0.1-0.8,0-1.5,0-2.3c-0.1-1.6,0.4-2.5,2.2-2.4c8.5,0,17,0,26,0c0,12.3,0,24.2,0,36.7
			c13.1-16.5,36.8-11.8,44.7,2.6c2.7,5,4.6,10.3,4.7,16.1c0.1,3.8,0.2,7.6,0,11.4c-0.3,9.1-3.5,16.9-10.5,23c-4.4,3.9-9.5,6-15.5,6
			c-2.9,0-5.8,0.2-8.5-0.2c-5-0.8-9.3-3.1-12.6-7.1C342.1,379.3,341.1,377.6,339.3,376.6z M340,353.2c0,2.1-0.3,4.2,0.1,6.3
			c1,6.4,3.2,12,10.2,14.3c2.8,0.9,5.6,0.6,8.4,0.8c3.3,0.2,5.6-1.6,7.8-3.8c2-2.1,3.3-4.7,4.1-7.4c2-7.6,1.8-15.3-1.1-22.7
			c-1.6-4.1-4.6-7.1-8.7-8.4c-7.7-2.4-15.9,1.8-19.2,9.3C339.9,345.3,339.8,349.2,340,353.2z"/>
		<path class="st3" d="M296.4,95.2c0,12.7,0,25,0,38.2c3.4-3.5,6.5-5.8,10.3-7c12.9-4.1,31.1,2.4,32,22.3c0.4,9.1,0.1,18.3,0.1,27.4
			c0,4.8,0,4.8,4.8,5c0.5,0,1.1,0.2,1.4,0.3c0.3,0.3,0.5,0.4,0.5,0.6c0.1,3.4,1.4,7.6-0.5,9.9c-2,2.5-6.4,0.8-9.7,0.9
			c-6.5,0.2-12.9,0-19.4,0.1c-1.7,0-2.4-0.5-2.4-2.3c0.1-2.9,0-5.7,0-8.5c0.3-0.3,0.5-0.8,0.8-0.8c5-0.5,5-0.5,5-5.5
			c0-6.5,0-12.9,0-19.4c0-1.9-0.1-3.7-0.8-5.6c-2.1-5.9-6.1-8.9-11.8-8.4c-5.7,0.6-9.9,4.9-10.2,11c-0.2,4-0.1,8-0.1,12
			c0,4.9,0,9.9,0,14.8c1.6,1.7,3.7,0.4,5.2,1.1c0.3,0.6,0.6,0.9,0.6,1.2c-0.2,3.4,1.5,7.6-0.8,9.8c-2,1.9-6.2,0.5-9.4,0.5
			c-6.3,0.1-12.6,0-18.8,0.1c-2.2,0-3.2-0.7-2.9-3c0.1-0.9,0-1.9,0-2.9c0-1.7-0.4-3.6,0.3-5c0.9-1.8,3.1-0.7,4.7-0.9
			c1.1-0.1,1.8-0.6,1.8-1.7c0-1.1,0-2.3,0-3.4c0-21.3,0-42.6,0-63.9c0-1,0-1.9,0-2.9c0.1-1.7-0.7-2.2-2.4-2.3
			c-4.4-0.3-4.4-0.4-4.4-4.2c-0.1-7.5-0.1-7.5,7.5-7.5C283.9,95.2,290,95.2,296.4,95.2z"/>
		<path class="st4" d="M271.9,388c-7.5,0.5-14.1-1.7-20.2-5.4c-8.3-5.1-12.4-12.9-14-22.2c-1.7-9.6-0.3-18.8,4.8-27.2
			c3.9-6.4,9.6-10.4,16.8-12.7c9.2-3,18.3-2.9,27.2,0.4c10.1,3.8,16.9,10.8,19.5,21.8c2.2,9.3,1.9,18.3-1.9,26.9
			c-4,9-11.2,14.5-20.6,17.3C279.6,387.9,275.7,388.2,271.9,388z M256.6,353.4c-0.6,4.1,0.6,8.2,2.2,12.3c2.3,5.6,6.3,8.6,12.5,8.9
			c6.6,0.4,11.5-2.1,14.2-8.2c3.9-8.9,4.1-17.8-0.3-26.7c-2.6-5.3-6.8-7.7-12.7-7.9c-6-0.2-10.1,2.5-12.9,7.6
			C257.3,343.6,256.2,348.1,256.6,353.4z"/>
		<path class="st5" d="M205.3,307.8c-3.1,0-6.7,0.1-10.3,0c-3.1-0.1-3.5-0.4-3.5-3.2c-0.1-3.2,0.1-6.4,0.2-9.6
			c3.1-1.4,6.3-0.6,9.4-0.7c10.7-0.1,21.3,0,32-0.1c2.2,0,3.1,0.6,2.9,2.9c-0.2,2.7-0.1,5.3,0,8c0.1,1.9-0.6,2.7-2.6,2.7
			c-2.4,0-5.5-1.1-7.1,0.6c-1.8,1.9-0.6,5.1-0.7,7.7c-0.1,15,0,30.1,0,45.1c0,4.8-1,9.3-3,13.7c-2.3,5.2-6.2,8.6-11.3,10.5
			c-9.5,3.5-19.3,3.8-29,1.3c-8.8-2.3-13.1-9-14.8-17.6c-0.6-3.3-0.7-6.8-1-10.1c-0.2-2,0.3-3.2,2.7-3.2c5.3,0.1,10.6,0,16,0
			c0.5,3.6,1,6.9,1.5,10.2c1.1,6.8,6.4,10.3,12.8,8.2c1.9-0.6,3.7-1.7,4.7-3.9c1.1-2.6,2-5.2,2-8.1c0-17.1,0-34.2,0-51.4
			C206.3,310,206.5,309,205.3,307.8z"/>
		<path class="st6" d="M428,193.9c-18.3,0.8-34.2-13.4-33.8-34.2c0.4-21.1,16.4-33.6,34.1-33.7c18.1-0.1,34,14.7,33.8,34.6
			C461.9,180.9,445.7,195,428,193.9z M427.8,177.8c5.5,0,7.6-1,11.1-4.4c5.9-5.7,7.1-17.4,1.4-25.1c-6.7-9-20.8-7.9-25.8,2.7
			c-2.9,6.2-3,12.4,0.2,18.5C417.5,174.9,421.7,178.3,427.8,177.8z"/>
		<path class="st4" d="M415.9,379.9c-1,2.2,0,4-1.3,6c-3.4,0-7.2,0-11,0c-1.4,0-2-0.6-2-2c0-6.8,0-13.6,0-21c4.1,0,7.9,0,11.6,0
			c1.8,0,3,0.5,3.2,2.4c0.7,7.9,9.9,11.4,17.6,9.8c1.1-0.2,2.2-0.8,3-1.5c4.1-3.1,4.7-8.7-0.9-11.3c-4.2-1.9-8.8-1.9-13.2-3
			c-5.1-1.2-10.4-1.9-14.8-5.2c-1.6-1.2-2.9-2.3-3.9-4c-5.7-9.4-3.7-25.5,10-30c6.2-2,12.1-2.7,18.3-0.8c3.9,1.2,6.8,3.9,9.8,6.8
			c0.7-5.8,0.7-5.9,6.2-5.8c2.4,0,5.6-0.7,7.2,0.5c2,1.6,0.7,5,0.8,7.5c0.2,3.8,0,7.6,0.1,11.4c0,1.7-0.7,2.3-2.4,2.3
			c-3.4-0.1-6.9,0-10.3,0c-1.3,0-2.1-0.4-2.2-1.9c-0.3-9-12.6-11.5-18.6-7.8c-2.2,1.3-3.2,3-3.3,5.5c-0.1,2.7,1.3,4.4,3.6,5.3
			c3.2,1.2,6.4,2.1,9.8,2.5c5.2,0.6,10.4,1.5,15.2,3.9c8.1,4,11.9,12.5,9.8,21.3c-2.5,10.3-10.6,16.7-21.1,17.1
			C429,388.4,421.8,386.5,415.9,379.9z"/>
		<path class="st7" d="M213.4,195c-26.1,1.4-51.1-22-51-51.3c0.1-28.8,25.5-52,51.4-50.8c14.3,0.7,25.9,5.6,35.9,15.5
			c10,9.9,14.4,22.3,14.5,35.8c0.1,14.2-5.1,27.2-15.6,37C238.7,190.3,227,195.7,213.4,195z M213.1,186.7c2.3,0,4.6,0.4,6.8-0.1
			c22.1-4.7,35.8-22.6,35.3-44.2c-0.3-12.5-5.6-22.9-15.1-31.2c-9.4-8.2-20.6-11.8-32.6-9.8c-25.1,4.2-40.7,27.4-35.2,52.3
			C176.8,173.8,193.9,186.8,213.1,186.7z"/>
		<path class="st8" d="M353.7,138.9c0.5-4.3-0.6-7.9,0.7-11.4c3.2-0.7,6.4-0.3,9.6-0.3c4.4-0.1,8.7,0.1,13.1-0.1
			c2.3-0.1,2.9,0.8,2.9,3c-0.1,7,0,14.1,0,21.1c0,8.7,0,17.5,0,26.2c0,3.4,0.1,3.4,3.3,3.6c3.4,0.2,3.5,0.2,3.5,3.4
			c0,2.6,1.1,5.9-0.6,7.7c-1.7,1.8-5,0.6-7.6,0.7c-7.2,0.1-14.4,0.1-21.7,0c-3,0-3-0.1-3.1-3.2c0-1.1,0-2.3,0-3.4
			c0-4.6,0-4.7,4.6-5.1c2.2-0.2,2.3-1.3,2.3-3c0-9.1,0-18.3,0-27.4c0-2.9-0.1-5.7,0-8.6c0.1-2.3-0.5-3.6-3.1-3.3
			C356.6,139,355.4,138.9,353.7,138.9z"/>
		<path class="st6" d="M369.3,112.6c-2.5-0.5-6.2,1.4-8.2-0.8c-1.7-1.9-0.5-5.4-0.5-8.2c0-2.6-1.1-5.8,0.6-7.7
			c1.7-1.9,5-0.6,7.6-0.7c3-0.1,6.1,0,9.1,0c1.4,0,2.1,0.5,2.1,2c0,4.5,0,9.1,0,13.6c0,1.5-0.9,1.8-2.2,1.8
			C375.1,112.6,372.5,112.6,369.3,112.6z"/>
		<path class="st9" d="M473.7,373.7c0.6,0.9,1.2,1.9,1.8,2.8c1.5,2.5-0.7,4.6-0.7,6.9l0,0c-0.8,0-1.2,0.3-1.2,1.2l0,0
			c-0.4-0.1-0.8-0.2-1.2-0.3c0-0.3,0-0.6,0-0.9c-0.3-1.2,1-2.9-1.1-3.4l0,0c0.1-1-0.5-1.5-1.2-1.8c0.2-0.1,0.3-0.2,0.5-0.4
			c2.4-0.2,2.3-1.4,0.9-2.8c-1.4-1.4-3.2-0.6-4.8-0.8c0-0.4,0-0.7,0-1.1c1.5,0,2.9-0.1,4.4-0.1C472,373.3,472.9,373.5,473.7,373.7z"
			/>
		<path class="st10" d="M466.9,373.3c0,0.4,0,0.7,0,1.1c0,0.4,0.1,0.8,0.1,1.2c0,2.6,0,5.1,0,7.7l-0.2,0.2c-2.3,0.9-1.9-2.2-3.5-2.3
			c0.1-2.1,0.1-4.2,0.2-6.3l-0.1-0.2c1.2-0.1,2.3-0.3,2.9-1.5C466.5,373.1,466.7,373.2,466.9,373.3z"/>
		<path class="st11" d="M463.3,381.1c1.6,0.1,1.3,3.2,3.5,2.3c1.6,2.3,3.8,0.9,5.7,0.9c0.4,0.1,0.8,0.2,1.2,0.3
			c-0.8,2.6-3.1,2.6-5,2.2c-3.1-0.6-6.1-1.7-6.4-5.7C462.7,381.1,463,381.1,463.3,381.1z"/>
		<path class="st11" d="M474.9,383.5c0-2.3,2.2-4.5,0.7-6.9c0.4,0,1-0.1,1,0c1,2,0.8,4.2,0.2,6.2
			C476.5,383.6,475.6,383.5,474.9,383.5z"/>
		<path class="st7" d="M463.3,381.1c-0.3,0-0.6,0-0.9-0.1c-0.1-2.2-0.8-4.4,1.1-6.2C463.4,376.9,463.4,379,463.3,381.1z"/>
		<path class="st11" d="M473.7,373.7c-0.8-0.2-1.7-0.3-2.5-0.5c0.1-0.8,0.5-1.3,1.3-1.2C473.6,372,473.9,372.7,473.7,373.7z"/>
		<path class="st11" d="M466.3,373.1c-0.6,1.2-1.7,1.4-2.9,1.5C463.7,372.8,465,373,466.3,373.1z"/>
		<path class="st11" d="M473.7,384.6c-0.1-0.8,0.3-1.2,1.2-1.2C475,384.3,474.6,384.7,473.7,384.6z"/>
		<path class="st12" d="M226.3,250.6c2.8-5,3.6-9.7,5.1-14.1c1-2.9,1.7-5.8,2.6-8.7c0.6-1.9,1.5-3.3,4-3.1c3.2,0.3,6.4,0.1,9.5,0.1
			c1.4,1.3,0.8,2.7,0.8,3.9c0,9.9,0,19.8,0,29.7c0,1.4,0.7,3.4-1,4.2c-2.1,0.9-4.5,0.8-6.6,0.1c-1.3-0.4-1.1-1.9-1.1-3
			c0-6.3,0-12.6,0-18.8c0-1.9,0.3-3.8-0.6-6.1c-2.6,7.8-5,15.2-7.4,22.7c-0.2,0.7-0.4,1.5-0.6,2.2c-1.1,3.3-3.5,4.5-6.8,3.4
			c-2.1-0.7-2.1-2.7-2.6-4.1c-1.9-5.8-3.4-11.6-5.2-17.4c-0.8-2.5-1.7-5-2.8-8.1c-0.8,5.7-0.3,10.7-0.4,15.7c-0.1,2.5,0,4.9,0,7.4
			c0,6.7,0,6.7-7.1,6.4c-1.2-1.1-0.7-2.5-0.7-3.7c0-10.5,0-20.9-0.1-31.4c0-2.1,0.6-2.9,2.9-3c10.8-0.4,10.9-0.4,13.8,9.9
			C223.3,239.7,224.7,244.7,226.3,250.6z"/>
		<path class="st10" d="M356.5,234.6c-1.3,2.2-0.8,4.1-0.8,6c-0.1,6.3,0,12.5,0,18.8c0,3.3-0.3,3.6-3.5,3.7c-4.6,0.2-4.9,0-4.9-4.6
			c0-9.9,0-19.8,0-29.6c0-3.8,0.2-4.1,3.7-4c9.9,0.2,7.6-1.9,12,7.6c3,6.5,6.2,12.9,10.2,19.2c0-4.2,0-8.5,0-12.7c0-2.5,0-4.9,0-7.4
			c0-6.8,0-6.8,7-6.6c1.3,1,0.8,2.4,0.8,3.7c0,10.3,0.1,20.5,0,30.8c0,3.4-0.2,3.4-3.6,3.6c-7.6,0.3-7.6,0.3-10.8-6.7
			C363.3,249.2,359.9,242,356.5,234.6z"/>
		<path class="st9" d="M408.4,263.5c-2.7,0.1-5.3,0.1-7.8-1c-4.2-1.8-6.6-5.2-6.8-9.6c0-1.4,0.4-2.1,1.9-2.1c1.5,0,3,0,4.6,0
			c1.3,0,1.9,0.6,2.4,1.9c1.9,5,5.6,6.4,10.2,4.2c2-0.9,2.8-2.3,2.8-4.5c0-2.1-1.5-3-3.1-3.6c-1.4-0.5-2.9-0.8-4.4-1.2
			c-1.6-0.5-3.3-0.8-4.9-1.4c-6.2-2.2-8.9-6-8.3-11.3c0.6-5.3,5.3-9.7,11.4-10.2c2.6-0.2,5.4-0.2,8,0.1c4.6,0.6,8.3,4.1,9,8.3
			c0.2,0.9,0.5,2.3-0.5,2.5c-1.8,0.4-3.7,0.3-5.6,0.4c-1.5,0.1-1.6-1.3-2.2-2.2c-2.2-3.6-5.1-4.4-8.6-2.6c-1.7,0.9-2.6,2.1-2.6,4
			c0,1.8,1,3,2.4,3.6c1.7,0.8,3.6,1.3,5.4,1.7c2.4,0.5,4.8,1.2,7,2.2c6.9,3.2,8.3,10.9,2.9,16.4c-2.5,2.5-5.5,4-9.1,4.3
			C411.1,263.6,409.8,263.5,408.4,263.5z"/>
		<path class="st10" d="M317.3,224.9c4.9,0,4.9,0,6.5,4.4c3.2,9.3,6.4,18.6,9.5,27.9c0.4,1.3,0.8,2.5,1.1,3.8c0.1,0.5,0,1.2-0.3,1.6
			c-1.3,1.5-7.5,0.3-7.8-1.7c-0.9-6.4-5-7.1-10.2-6.4c-0.9,0.1-1.9,0.1-2.8,0c-2.8-0.4-4.3,0.9-4.9,3.5c-0.2,0.9-0.5,1.8-0.8,2.7
			c-0.9,2.2-5,3.4-7.2,2.1c-0.8-0.5-0.8-1.2-0.6-2c0.3-1.3,0.7-2.5,1.2-3.8c3.3-9.3,6.6-18.5,10-27.8
			C312.5,224.9,312.5,224.9,317.3,224.9z M317.7,234.9c-2.8,4.2-4.7,8.5-5.4,13.6c3.5-0.2,6.5,0.4,9.6-0.6
			C320.4,243.4,319.1,239.1,317.7,234.9z"/>
		<path class="st10" d="M263.2,243.8c0-5.3,0-10.6,0-16c0-2.1,0.5-3.1,2.9-3c6.6,0.1,13.3,0.1,20,0c2.8-0.1,2.4,1.7,2.4,3.4
			c0.1,1.9-0.1,3.3-2.6,3.2c-3.6-0.2-7.2-0.1-10.8,0c-3.6,0-3.6,0.1-3.6,3.9c0,0.8,0,1.5,0,2.3c-0.1,1.9,0.9,2.7,2.7,2.7
			c3.6,0,7.2,0.1,10.8,0c2.1-0.1,2.5,1.1,2.4,2.9c-0.1,1.7,0.2,3.5-2.5,3.4c-3.6-0.1-7.2,0-10.8-0.1c-2-0.1-2.8,0.7-2.7,2.6
			c0.1,0.8,0,1.5,0,2.3c0,5.8-0.4,5.1,5.2,5.2c3.2,0,6.5,0.1,9.7,0c2.7-0.1,2.5,1.5,2.5,3.3c0,1.7,0.3,3.4-2.5,3.4
			c-6.8-0.1-13.7-0.1-20.5,0c-2.1,0-2.6-0.9-2.6-2.8C263.2,254.8,263.2,249.3,263.2,243.8z"/>
		<path class="st13" d="M340,353.2c-0.2-4-0.1-7.9,1.5-11.7c3.2-7.5,11.4-11.7,19.2-9.3c4.2,1.3,7.2,4.3,8.7,8.4
			c2.9,7.4,3.1,15.1,1.1,22.7c-0.7,2.7-2.1,5.2-4.1,7.4c-2.1,2.3-4.4,4-7.8,3.8c-2.8-0.1-5.6,0.2-8.4-0.8
			c-6.9-2.3-9.1-7.9-10.2-14.3C339.7,357.4,340,355.3,340,353.2z"/>
		<path class="st13" d="M256.6,353.4c-0.4-5.2,0.7-9.7,3-14c2.8-5.1,6.8-7.7,12.9-7.6c5.9,0.2,10.1,2.6,12.7,7.9
			c4.3,8.8,4.1,17.8,0.3,26.7c-2.6,6.1-7.6,8.5-14.2,8.2c-6.2-0.3-10.2-3.3-12.5-8.9C257.2,361.6,256,357.4,256.6,353.4z"/>
		<path class="st14" d="M427.8,177.8c-6.1,0.5-10.3-2.9-13.1-8.4c-3.1-6.1-3-12.4-0.2-18.5c4.9-10.6,19.1-11.7,25.8-2.7
			c5.7,7.7,4.5,19.4-1.4,25.1C435.4,176.8,433.2,177.8,427.8,177.8z"/>
		<path class="st15" d="M213.1,186.7c-19.2,0.1-36.3-12.9-40.8-32.9c-5.5-24.9,10.1-48.1,35.2-52.3c12-2,23.2,1.6,32.6,9.8
			c9.5,8.3,14.8,18.7,15.1,31.2c0.5,21.6-13.2,39.5-35.3,44.2C217.8,187.1,215.4,186.7,213.1,186.7z"/>
		<path class="st10" d="M472.6,384.3c-2,0.1-4.1,1.5-5.7-0.9l0.2-0.2c1.8-0.4,0.7-2.3,1.6-3.2c0.5,0,0.9,0,1.4,0c0.5,0,1,0,1.5,0
			l0,0c-0.1,1.3-0.8,2.8,1.1,3.4C472.6,383.8,472.6,384,472.6,384.3z"/>
		<path class="st11" d="M467,375.5c0-0.4-0.1-0.8-0.1-1.2c1.6,0.2,3.4-0.6,4.8,0.8c1.4,1.4,1.4,2.5-0.9,2.8c0-2.3-1.6-1.1-2.6-1.2
			C468,376.1,467.8,375.5,467,375.5z"/>
		<path class="st12" d="M468.1,376.7c1,0.1,2.6-1.1,2.6,1.2c-0.2,0.1-0.3,0.3-0.5,0.4c-0.1,0.6-0.2,1.2-0.3,1.8c-0.5,0-0.9,0-1.4,0
			C468.4,378.9,468.3,377.8,468.1,376.7z"/>
		<path class="st11" d="M472.6,383.5c-2-0.6-1.2-2.1-1.1-3.4C473.6,380.6,472.3,382.3,472.6,383.5z"/>
		<path class="st7" d="M470,380.1c0.1-0.6,0.2-1.2,0.3-1.8c0.8,0.4,1.3,0.9,1.2,1.8C471,380.1,470.5,380.1,470,380.1z"/>
		<path class="st7" d="M468.1,376.7c0.2,1.1,0.3,2.2,0.5,3.4c-0.9,0.9,0.3,2.8-1.6,3.2c0-2.6,0-5.1,0-7.7
			C467.8,375.5,468,376.1,468.1,376.7z"/>
		<path class="st1" d="M317.7,234.9c1.4,4.3,2.8,8.5,4.2,13c-3.1,1-6.1,0.4-9.6,0.6C313,243.4,314.8,239.1,317.7,234.9z"/>
	</g>
</g>
</svg>
