<svg id="Layer_1" data-name="Layer 1" xmlns="http://www.w3.org/2000/svg" viewBox="0 0 83.28 101.28"><defs><style>.cls-1{fill:#fff;}</style></defs><path class="cls-1" d="M278,290.28V189h83.28V290.28Zm41.81-100.39,0,.21c-1.74.11-3.5.14-5.22.36-3.27.4-6.57.72-9.78,1.42-3.38.74-6.68,1.89-10,2.87-5.3,1.56-9.57,4.44-11.61,9.75A13.7,13.7,0,0,0,282,211a117.45,117.45,0,0,0,2.92,12.16c.46,1.78,1,3.52,1.48,5.29,1.21,4.64,2.39,9.29,3.58,13.94,1,3.74,2,7.47,2.91,11.21,1.07,4.2,2.12,8.4,3.21,12.59.66,2.53,1.49,5,2.05,7.56A14.32,14.32,0,0,0,303,282a26.14,26.14,0,0,0,10.38,5.16,26.8,26.8,0,0,0,9.35.4,23.12,23.12,0,0,0,8.84-2.95c4.38-2.51,7.67-5.81,8.84-10.88q.71-3,1.36-6.06,1-4.63,2-9.28,1.1-5.25,2.17-10.51c.72-3.51,1.41-7,2.17-10.55.84-3.85,1.77-7.69,2.61-11.54,1-4.58,2.05-9.15,2.84-13.77a18.16,18.16,0,0,0,0-6.11,26.93,26.93,0,0,0-2.07-5.27,11.08,11.08,0,0,0-3.72-4.31c-2.45-1.93-5.51-2.54-8.4-3.38a67.67,67.67,0,0,0-9-1.74C326.86,190.65,323.33,190.31,319.81,189.89Zm27.76,89.83a3.24,3.24,0,1,0,.05-6.48,3.24,3.24,0,1,0-.05,6.48Z" transform="translate(-278 -189)"/><path d="M319.81,189.89c3.52.42,7.05.76,10.56,1.28a67.67,67.67,0,0,1,9,1.74c2.89.84,6,1.45,8.4,3.38a11.08,11.08,0,0,1,3.72,4.31,26.93,26.93,0,0,1,2.07,5.27,18.16,18.16,0,0,1,0,6.11c-.79,4.62-1.84,9.19-2.84,13.77-.84,3.85-1.77,7.69-2.61,11.54-.76,3.51-1.45,7-2.17,10.55s-1.44,7-2.17,10.51q-1,4.65-2,9.28-.66,3-1.36,6.06c-1.17,5.07-4.46,8.37-8.84,10.88a23.12,23.12,0,0,1-8.84,2.95,26.8,26.8,0,0,1-9.35-.4A26.14,26.14,0,0,1,303,282a14.32,14.32,0,0,1-4.86-8.2c-.56-2.55-1.39-5-2.05-7.56-1.09-4.19-2.14-8.39-3.21-12.59-1-3.74-1.95-7.47-2.91-11.21-1.19-4.65-2.37-9.3-3.58-13.94-.46-1.77-1-3.51-1.48-5.29A117.45,117.45,0,0,1,282,211a13.7,13.7,0,0,1,1.17-6.51c2-5.31,6.31-8.19,11.61-9.75,3.33-1,6.63-2.13,10-2.87,3.21-.7,6.51-1,9.78-1.42,1.72-.22,3.48-.25,5.22-.36Zm-1.23.73c-1.34.12-3.83.23-6.3.56-3,.41-6,.89-9,1.55-2.35.52-4.65,1.32-6.95,2-4.46,1.39-8.55,3.23-11.25,7.41a14.66,14.66,0,0,0-1.95,12.14c.63,2.46,1.42,4.87,2.07,7.32,1,3.59,1.84,7.19,2.78,10.77.58,2.23,1.23,4.44,1.8,6.67s1,4.33,1.53,6.49c.5,2,1.08,4,1.59,6,.89,3.48,1.74,7,2.65,10.44.86,3.28,1.7,6.58,2.69,9.82a31.24,31.24,0,0,0,2.41,6.32c2,3.47,5.34,5.54,8.89,7A23.67,23.67,0,0,0,321.23,287a24.56,24.56,0,0,0,10-2.93c3.73-2.14,6.9-4.82,8.12-9.11.91-3.23,1.5-6.55,2.22-9.83,1-4.46,2-8.92,2.94-13.39.8-3.7,1.56-7.42,2.35-11.12,1-4.82,2.05-9.63,3.11-14.44.85-3.9,1.76-7.78,2.59-11.67a31.52,31.52,0,0,0,.73-4.52,15.12,15.12,0,0,0-1.94-8.6,13.25,13.25,0,0,0-7.64-6.46c-3.19-1-6.46-1.78-9.71-2.6A67,67,0,0,0,318.58,190.62Z" transform="translate(-278 -189)"/><path d="M347.57,279.72a3.24,3.24,0,1,1,.05-6.48,3.24,3.24,0,1,1-.05,6.48Zm1.78-1.5a2.13,2.13,0,0,0,.23-3.35,2.61,2.61,0,0,0-3.75-.22,2.3,2.3,0,0,0-.17,3.52,2.56,2.56,0,0,0,3.72,0Z" transform="translate(-278 -189)"/><path class="cls-1" d="M318.58,190.62A67,67,0,0,1,334,192.31c3.25.82,6.52,1.59,9.71,2.6a13.25,13.25,0,0,1,7.64,6.46,15.12,15.12,0,0,1,1.94,8.6,31.52,31.52,0,0,1-.73,4.52c-.83,3.89-1.74,7.77-2.59,11.67-1.06,4.81-2.08,9.62-3.11,14.44-.79,3.7-1.55,7.42-2.35,11.12-1,4.47-1.95,8.93-2.94,13.39-.72,3.28-1.31,6.6-2.22,9.83-1.22,4.29-4.39,7-8.12,9.11a24.56,24.56,0,0,1-10,2.93,23.67,23.67,0,0,1-11.72-1.81c-3.55-1.5-6.91-3.57-8.89-7a31.24,31.24,0,0,1-2.41-6.32c-1-3.24-1.83-6.54-2.69-9.82-.91-3.47-1.76-7-2.65-10.44-.51-2-1.09-4-1.59-6-.53-2.16-1-4.34-1.53-6.49s-1.22-4.44-1.8-6.67c-.94-3.58-1.82-7.18-2.78-10.77-.65-2.45-1.44-4.86-2.07-7.32a14.66,14.66,0,0,1,1.95-12.14c2.7-4.18,6.79-6,11.25-7.41,2.3-.71,4.6-1.51,6.95-2,3-.66,6-1.14,9-1.55C314.75,190.85,317.24,190.74,318.58,190.62ZM298.72,244.5l0,0c-.29.09-.66.35-.84.25-2.35-1.2-4.67-2.45-4.84-5.57a3.66,3.66,0,0,0,1,3.7c.2.18.17.58.32.84.42.77.26,1.93,1.44,2.21l0,0c0,.12,0,.28.06.35,1.15,1.36,2.39,2.64,3.45,4.06a7,7,0,0,0,3.07,2.6c.39.15.68.54,1.06.74a15.72,15.72,0,0,0,2.39,1.12c.56.19.9.27,1.08,1a23.75,23.75,0,0,0,4,9.25c1.68,2.15,3.69,3.53,6.54,3.24a8.7,8.7,0,0,1,2.25-.21c3.06.52,5.51-1.19,8.12-2.23a16.64,16.64,0,0,0,3.87-2.58c1.05-.83,1.95-1.86,2.92-2.8l-.26-.3-5,2.5-.1-.31,3.11-8.39a14.28,14.28,0,0,0,2.09.14,14.3,14.3,0,0,1,2-.43c2.26.17,3.29-1.17,4-3l0,0c.81-.57.86-1.06.29-2.52,2.2-1.54,2.21-1.54,2.74-4.08.14-.65-.07-1.44.23-2a9.89,9.89,0,0,0,1.29-5,1.25,1.25,0,0,1,.34-.94,8,8,0,0,0,2.8-4.59,11,11,0,0,0,.14-4.39c-.2-1.24-.76-2.41-.2-3.69.08-.19,0-.47,0-.7-.3-2.57-.56-5.15-.92-7.72-.19-1.39-.52-2.77-.83-4.15a10.32,10.32,0,0,0-.61-1.88c-.86-1.86-1.59-3.83-3.35-4.72-.29,2.45-.5,5-.92,7.43a38.85,38.85,0,0,1-3.34,9.53A26.48,26.48,0,0,1,328,232.46a1.13,1.13,0,0,1-1-.15,9.89,9.89,0,0,0-4.2-2.2,23.25,23.25,0,0,0-2.36-.22c-2.25-.17-4.6-.33-6.58.79a30.3,30.3,0,0,0-4.46,3.76L301,227.38l0,0c-.44-.64-.85-1.3-1.32-1.92-3.57-4.71-6.61-9.69-7.61-15.66-.19-1.12-.53-2.21-.8-3.32l-.38-.09a12.05,12.05,0,0,0-1.15,2.48c-.3,1.41-.35,2.88-.53,4.32a13.55,13.55,0,0,1-.58,3.47,4.33,4.33,0,0,0,.26,3.83,2.69,2.69,0,0,1,.11,1.3,5.24,5.24,0,0,0,1,4.1c.91,1,1.82,2.06,2.66,3.14,1,1.29,1.92,2.65,2.87,4l-.11.2-2.29-2.12-.19.17,3.05,3.58-.28.24-4.9-4.71-.41.26c2.19,2.07,4.77,4,3.71,7.51,0,0-.08,0-.13,0a28.26,28.26,0,0,1-3.38-2.63,5.74,5.74,0,0,1-1.36-2.69c-.18-.79.31-1.71.23-2.54a17.83,17.83,0,0,0-.73-2.61c-.05-.19.12-.44.18-.66.14-.5.27-1,.4-1.51a1,1,0,0,0-.59.54c-.91,2.14.07,4.29,0,6.44-.06,3.25,2.22,5.16,5.16,6.23,1.45.52,1.95,1.26,1.93,3.28l-2.19-2.56c.78,2.33,3,3.29,4.52,4.95C298.34,244.51,298.56,244.48,298.72,244.5ZM326.38,216l2.19-7c-1-.6-1.32-.52-1.68.53s-.81,2.41-1.21,3.61a17.27,17.27,0,0,1-1.14-3.15,6.3,6.3,0,0,0-.82-1.32,5.29,5.29,0,0,0-.94,1.2c-.43,1.05-.73,2.15-1.08,3.23a9.25,9.25,0,0,1-1.15-3.17c-.15-1.43-.92-1.39-1.94-1.18.63,2.09,1.34,4.11,1.82,6.19.23,1,.62,1.34,1.63,1.09l1.54-4.58c.45,1.42.87,2.46,1.11,3.55C324.92,215.94,325.32,216.34,326.38,216Zm-16.95,52.41c-2-.34-3.89,1.62-3.84,3.89a3.55,3.55,0,0,0,3.84,3.79,3.93,3.93,0,0,0,3.86-3.92C313.32,270.54,311.71,268,309.43,268.44Zm18.83,0a4,4,0,0,0,.1,7.91,3.94,3.94,0,0,0,3.85-3.8A4.06,4.06,0,0,0,328.26,268.45Zm-17.58-57.34c.73-.61,1.28-1.07.09-1.76s-3.33-.94-4.32-.19c-1.77,1.35-2.12,2.64-1.34,4.84.65,1.84,2.42,2.67,4.74,2.11,1.22-.3,2.27-2.24,2.09-3.73a15.88,15.88,0,0,0-2.45-.29c-.34,0-.67.45-1,.7a4.08,4.08,0,0,0,.89.67,3.85,3.85,0,0,0,1.08.1c-.3,1.18-1.09,1.37-2,1.36-1.27,0-1.9-.49-2.25-1.94a2.36,2.36,0,0,1,1-2.64C308.37,209.52,309,209.67,310.68,211.11Zm18.44,12.65a3.5,3.5,0,0,0-3.7-3.79,3.68,3.68,0,0,0-3.72,3.72,3.77,3.77,0,0,0,3.8,3.95C327.71,227.66,329.11,226.15,329.12,223.76Zm-10.88-7.71v-7.32h-1.38v2.74H314v-2.68c-1.62-.2-1.73-.08-1.62,1.43,0,.65,0,1.32,0,2a23.08,23.08,0,0,0,.05,3c0,.34.58.62.9.93.24-.33.61-.62.7-1s0-1,0-1.55a1.1,1.1,0,0,1,.4-.77,1.6,1.6,0,0,1,2.46,1.57,3.84,3.84,0,0,1,0,.48C316.76,215.87,317.14,216.33,318.24,216.05Zm.89,54a2.07,2.07,0,0,0-.29.52c-.16.79,0,1.95-.5,2.29s-1.56,0-2.38-.1c-.07,0-.13-.07-.29-.16l.28-2.88h-1.6c-.12,2.2-.26,4.39-.32,6.58,0,.34.41.7.63,1a3.91,3.91,0,0,0,.75-1.1,15.63,15.63,0,0,0,.32-2.22,13.79,13.79,0,0,0,1.81.19c.8,0,1.11.3,1,1.07s-.18,1.45-.28,2.24h1.41l.73-7.3Zm-1-42.64v-2.67c1.42.85,1.41,3.27,3.79,2.59l-2.08-3,.53-.3a2,2,0,0,0,1.08-2.24,2,2,0,0,0-1.78-1.77,21.89,21.89,0,0,0-2.92,0v7.41ZM296.28,216c1.16.3,1.5-.18,1.41-1.17a5.22,5.22,0,0,1,0-1.31,1.11,1.11,0,0,1,.43-.74c1.42-.61,2.43.08,2.43,1.62v.6c0,1.13.14,1.2,1.38.91v-7.19h-1.42v2.81h-2.8c-.13-2.95-.13-2.95-1.44-2.73Zm16.35,11.26c-.92-2.4-1.8-4.76-2.76-7.1a1,1,0,0,0-1.74.05c-.93,2.3-1.76,4.64-2.77,7.36.8-.26,1.62-.33,1.66-.56.36-1.76,1.68-1.35,2.78-1.28a1.37,1.37,0,0,1,1,.73C311.07,227.59,311.74,227.48,312.63,227.29Zm7.62-22c-.91-2.31-1.76-4.52-2.7-6.7a1.33,1.33,0,0,0-1-.62c-.28,0-.7.39-.83.7-.8,1.89-1.55,3.82-2.28,5.74a3.55,3.55,0,0,0-.12.89c.85.11,1.53.2,1.71-.83,0-.22.48-.49.76-.52a8.05,8.05,0,0,1,1.9,0c.28,0,.72.29.77.51C318.64,205.49,319.36,205.38,320.25,205.25ZM334.17,216c-.84-2.23-1.64-4.38-2.5-6.51a1.09,1.09,0,0,0-.85-.54c-.39,0-1,.22-1.11.52-.92,2.13-1.74,4.32-2.58,6.47,1.45.63,1.71-.45,2.11-1.27a17.78,17.78,0,0,1,2.2,0c.35,0,.87.29,1,.57C332.71,216.2,333.3,216.25,334.17,216Zm-4.86-17.13-3.68-.59c-.37,2.35-.73,4.55-1,6.76a.92.92,0,0,0,.54.71c1,.16,2,.2,3,.27a2.53,2.53,0,0,0,.46-.06v-1l-2.39-.4c.1-.55.11-1.35.27-1.38a12.8,12.8,0,0,1,2.33-.06l.39-1.15c-.61-.09-1.17-.15-1.72-.26-.72-.13-.81-.66-.71-1.26s.42-.72,1-.5a6,6,0,0,0,1.56.1ZM302.24,223.5v1.44a7.28,7.28,0,0,0,0,1.55c.08.33.42.61.64.91.25-.25.6-.45.73-.75a1.49,1.49,0,0,0-.08-.92c-.22-.69-.21-1.18.7-1.22a5.38,5.38,0,0,0,1-.24,2.07,2.07,0,0,0,1.47-2.45,3.3,3.3,0,0,0-1.36-1.8,4.48,4.48,0,0,0-2.07-.28c-.67,0-1.13.19-1.09,1S302.24,222.59,302.24,223.5Zm6.65-24.4c-.43-.24-.65-.39-.89-.5a2.35,2.35,0,0,0-3.13,1.2,2,2,0,0,0,1.18,2.87,4,4,0,0,0,1.2.45.74.74,0,0,1,.7,1.09c-.12.3-.66.49-1.05.6-.22.07-.53-.21-.77-.16a1.89,1.89,0,0,0-.88.47c-.1.09,0,.59,0,.6a10.43,10.43,0,0,0,2.33.35,1.87,1.87,0,0,0,1.76-2,3.15,3.15,0,0,0-.87-2.06c-.36-.4-1.19-.33-1.74-.6a1.23,1.23,0,0,1-.61-.89,1.13,1.13,0,0,1,.68-.81c.3-.09.7.17,1,.27Zm23.72,10c1.46,2,2.64,4,2.31,6.57-.13.92.7.69,1.51.67-.79-2.85.65-5,2.18-7.23-2.23-.76-1.92,1.57-3,2.12C334.63,210.56,334.82,208.37,332.61,209.07Zm-19.34,18.27c1.73.11,1.77,0,1.62-1.49a28.34,28.34,0,0,1-.13-3.8,1.3,1.3,0,0,1,.78-.86c.82-.26.84-.19.71-1.15h-4.44l.12,1.08,1.34.1Zm-2.35-21.84h1.42l-.29-6.12,1.46-.13-.07-1.13c-1.08,0-2.08-.06-3.07,0-.74.07-1.5.29-1,1.39l1.22.07Zm9.06-6.57,1.51.54c-.1,1.74-.23,3.47-.26,5.2,0,.29.43.59.66.88.25-.27.68-.52.72-.82a22.39,22.39,0,0,0,.24-3.65c-.06-1.23.12-2.06,1.62-1.78.31-1.2-.63-1.06-1.17-1.15-.69-.12-1.49.14-2.12-.1C320.18,197.67,320.12,198.21,320,198.93Zm11.29,27.28v-6l-1.35.06v7.08c.87.11,1.65.22,2.43.3,1.13.1,1.22-.51,1-1.43Zm-8.41,43.1c-.63.4-1.34.65-1.33.86.16,2.38.43,4.74.67,7.1h1.41ZM302.8,208.75v7.31h1.36c0-2.12,0-4.19,0-6.25C304.2,208.78,303.76,208.53,302.8,208.75Zm-12.46,25c1.06,1.53,2.58,2.91,3.71,3l-.55.54Zm1.07-3.83L289.83,227A2.39,2.39,0,0,0,291.41,229.89Z" transform="translate(-278 -189)"/><path class="cls-1" d="M349.38,278.19a2.56,2.56,0,0,1-3.72,0,2.3,2.3,0,0,1,.17-3.52,2.61,2.61,0,0,1,3.75.22,2.13,2.13,0,0,1-.23,3.35c-.39-.28-.76-.57-1.14-.86l.47-.16c.06-.64.38-1.62.11-1.84a9.49,9.49,0,0,0-2.54-1v3.85l.32.1.54-1.3C348,277.14,348.14,278.83,349.38,278.19Z" transform="translate(-278 -189)"/><path d="M340.46,250.6c-.72,1.82-1.75,3.16-4,3a14.3,14.3,0,0,0-2,.43,14.28,14.28,0,0,1-2.09-.14l-3.11,8.39.1.31,5-2.5.26.3c-1,.94-1.87,2-2.92,2.8a16.64,16.64,0,0,1-3.87,2.58c-2.61,1-5.06,2.75-8.12,2.23a8.7,8.7,0,0,0-2.25.21c-2.85.29-4.86-1.09-6.54-3.24a23.75,23.75,0,0,1-4-9.25c-.18-.71-.52-.79-1.08-1a15.72,15.72,0,0,1-2.39-1.12c-.38-.2-.67-.59-1.06-.74a7,7,0,0,1-3.07-2.6c-1.06-1.42-2.3-2.7-3.45-4.06-.07-.07,0-.23-.06-.35l2.53,1.16-1.23.15c.85,1,.88,2.41,2.83,2.34,1.58-.06,3.19.83,4.78,1.32a3.4,3.4,0,0,1,.69.36c1.05-1.12-1.57-1.6-.28-2.66l-.61-.87.84-.11,0-.34-2.48-.73,1,3.05-3.17-1.14.73-.22-1.53-.89L300,247l2.91,1.33a4,4,0,0,0-4.28-3,3.9,3.9,0,0,1-1.76-.45,16.57,16.57,0,0,1-1.85-1.33l-.26.26,1,2c-1.18-.28-1-1.44-1.44-2.21-.15-.26-.12-.66-.32-.84a3.66,3.66,0,0,1-1-3.7c.17,3.12,2.49,4.37,4.84,5.57.18.1.55-.16.84-.26l1.81.46.21-.3-3.43-3.88.21-.19,2.3,2.2,1-.73c-1.16-1.51-2.48-2.58-4.65-2a5,5,0,0,0,.36,1.35c.69,1.07,1.46,2.09,2.2,3.12-.16,0-.38,0-.46-.08-1.5-1.66-3.74-2.62-4.52-4.95l2.19,2.56c0-2-.48-2.76-1.93-3.28-2.94-1.07-5.22-3-5.16-6.23,0-2.15-.94-4.3,0-6.44a1,1,0,0,1,.59-.54c-.13.51-.26,1-.4,1.51-.06.22-.23.47-.18.66a17.83,17.83,0,0,1,.73,2.61c.08.83-.41,1.75-.23,2.54a5.74,5.74,0,0,0,1.36,2.69,28.26,28.26,0,0,0,3.38,2.63c.05,0,.16,0,.13,0,1.06-3.54-1.52-5.44-3.71-7.51l.41-.26,4.9,4.71.28-.24L293,231.29l.19-.17,2.29,2.12.11-.2c-.95-1.32-1.87-2.68-2.87-4-.84-1.08-1.75-2.11-2.66-3.14a5.24,5.24,0,0,1-1-4.1,2.69,2.69,0,0,0-.11-1.3,4.33,4.33,0,0,1-.26-3.83,13.55,13.55,0,0,0,.58-3.47c.18-1.44.23-2.91.53-4.32a12.05,12.05,0,0,1,1.15-2.48l.38.09c.27,1.11.61,2.2.8,3.32,1,6,4,10.95,7.61,15.66.47.62.88,1.28,1.32,1.92a3.24,3.24,0,0,1-.73-.5c-.89-1.14-1.83-2.26-2.61-3.47-1.87-2.88-3.91-5.66-4.85-9-.61-2.18-1.22-4.37-1.92-6.85-.68,2.16-1.46,4-1.1,6.14a1.73,1.73,0,0,1,0,.62c-1,.22-.49,1-.59,1.54a10,10,0,0,0-.22,1.62,8.78,8.78,0,0,0,.13,2.24,4.34,4.34,0,0,1,.38,2.09c-.26,1.52-.26,3.08,1.26,4.19a21.12,21.12,0,0,1,2,2.08,4,4,0,0,0,.94.51l.27.52c.21,1.19.41,2.38,1.87,2.76.2,1.31-.5,2.94,1.18,3.9l-2.6-.51c.11.84.21,1.46.25,2.08a2,2,0,0,0,2.23,2.07,3.43,3.43,0,0,1,3.28,1.27,2.33,2.33,0,0,0,.6.4l.18-.19-2.32-3.09a5.2,5.2,0,0,0,4.75,1.49l-1.27-1.9c1.18.78,2,2.06,3.62,2.25a6.44,6.44,0,0,1-.23-1.06,4.2,4.2,0,0,1,.11-.85l-1.05-1.17,1.07.44.15-1.39-1.77-2.76.3-.2,1.3,2,0-.35c.3,0,.59,0,.89,0,.07,0,.13.12.23.21l-.74.14c.06.41.14.79.16,1.17s0,.87,0,1.31c0,1.48.26,1.65,1.82,1l-1.34-2.73.22-.12,1.39,2.22a8.16,8.16,0,0,1,.65-1.47c.52-.76.3-1.22-.4-1.71-1.5-1-2.8-2.43-4.81-2.56l1.06-.34-3.72-2.9c-.69,1.5.41,3.74,2.1,4.78l.18-.3,1.26,3.53a11.92,11.92,0,0,0-2.4-.76c-.75-.08-1.55.37-2.14-.52-.47-.68-1-1.29-1.56-1.94,0-.36.09-.85-.1-1.07-1.5-1.76-3.11-3.44-4.61-5.22a14.61,14.61,0,0,1-2.9-5.53A63.76,63.76,0,0,0,298.76,232c.69-.77.22-1.21-.22-1.71-1.27-1.47-2.52-3-3.76-4.47a2.21,2.21,0,0,1-.23-.67l.15-.06.9,1.06.16-.12-.79-1.73.17-.08,5.05,6.46.4-.28-.89-2h1.76l-.44-1,8.36,7.06a30.3,30.3,0,0,1,4.46-3.76c2-1.12,4.33-1,6.58-.79a23.25,23.25,0,0,1,2.36.22,9.89,9.89,0,0,1,4.2,2.2,1.13,1.13,0,0,0,1,.15,26.48,26.48,0,0,0,10.08-11.26,38.85,38.85,0,0,0,3.34-9.53c.42-2.47.63-5,.92-7.43,1.76.89,2.49,2.86,3.35,4.72a10.32,10.32,0,0,1,.61,1.88c.31,1.38.64,2.76.83,4.15.36,2.57.62,5.15.92,7.72,0,.23.12.51,0,.7-.56,1.28,0,2.45.2,3.69a11,11,0,0,1-.14,4.39,8,8,0,0,1-2.8,4.59,1.25,1.25,0,0,0-.34.94,9.89,9.89,0,0,1-1.29,5c-.3.54-.09,1.33-.23,2-.53,2.54-.54,2.54-2.74,4.08.57,1.46.52,1.95-.3,2.52a4.84,4.84,0,0,1,.17-.54c.33-.66.15-1.17-.55-1.34a4.14,4.14,0,0,0-1.3.09v.35c-1.61-.5-2.08-.43-3.59.64l1.46.72h-5.06l-.08.95-1.06.33a4.72,4.72,0,0,0,5.83,1.22,1.57,1.57,0,0,1,1.43-.07c.25.1.8-.29,1.1-.57C339.38,251.86,339.91,251.21,340.46,250.6ZM331,247.09l1.41,1.11-2-.39c1.8,1.66,1.8,1.66,3.12.78-.1-1-.15-2-1.5-2a5.56,5.56,0,0,0,.19-1.5c0-.32-.44-.84-.66-.83-.4,0-.79.35-1.19.55.22.31.43.63.67.93a1.71,1.71,0,0,0,.41.27v.33c-1.26-.62-2.46-.85-3.38.36C329,247,329.89,248,331,247.09Zm1.7-4.1,1.45.74-1.76.44c.47.5.76,1,1.17,1.18.56.18,1.23-1.12,1.23-2.32h-2.12c.45-1,1.11-1.91.48-3.38a12.1,12.1,0,0,0-2.15.92c-.32.21-.66,1-.53,1.19.56.71.91,0,1.3-.35l.42-.35c0,1-1.78,1.21-.94,2.3Zm1.66-1.9-.58,1.2c2.24.08,2.86-2.23,4.52-2.68l.47.52-2.17,1.52.13.12,1.46-.85-.72,1.59c-1.65,0-1.66,0-2.1,2.15l3.06-1.09c-.18.21-.39.35-.46.55a8.34,8.34,0,0,0-.29,1.09,2.82,2.82,0,0,0,1.09-.27c1.5-1.19,3-2.43,4.44-3.69s1.23-2.85,1.49-4.38l-.27-.14L343,238.48l.14.11.76-.42L340,243.62v-1.37h-1.73c1.43-.89,1.73-2.19,1.27-4l-3.91,1.58c.3-.6.44-1.41.92-1.74,1.06-.71,1.06-1.68,1.23-2.7-1.78-.19-1.75-.16-2.78,1.08a22.42,22.42,0,0,1-1.8,1.71,10.19,10.19,0,0,0-.8.94l.4.45,2.79-2.17a17,17,0,0,1-1.44,2C333.68,240,333.12,240.71,334.38,241.09Zm4.29-7.15a6.88,6.88,0,0,1,.6-1.14c.76-1,1.56-2,2.34-3l4.33-5.79.21.13-.47,1.18,1.23.4a21.06,21.06,0,0,0,.41-3.21,32.09,32.09,0,0,0-.44-3.63l-.09-.72a28.85,28.85,0,0,0-2.3,4.35c-.32.72-.51,1.52-.86,2.23-.64,1.29-1.36,2.54-2,3.81-.39.48-.8,1-1.17,1.46-.16.21-.23.49-.4.68-1.17,1.29-2.36,2.57-3.54,3.85l.37.41,1.85-1.08-.66,3.44.24.16c.13-.2.25-.41.39-.6,1.89-2.53,3.69-5.14,5.74-7.53a8.33,8.33,0,0,0,1.75-3.44,4.28,4.28,0,0,0-.89.58c-.43.5-.77,1.08-1.21,1.58-.88,1-1.79,2-2.71,3S339.56,233,338.67,233.94Zm-19.38,7.84c.16-1.25,1.24-1.71,2-2.44a16.41,16.41,0,0,0,1.48-1.81l-.3-.35a7,7,0,0,0-1.85.52c-2.18,1.28-3.16,3.45-3.74,5.74a22.49,22.49,0,0,0-.58,8.19,15,15,0,0,0,2.94,7.53,3.82,3.82,0,0,0,2.86,1.62c2.68.21,4-1.45,5.08-3.51.63-1.2.61-1.21.14-1.82l-1.11,1,.36-1.51c-1.58,1.77-2.19,2.12-3.28,2.29-1.72.26-3.44-1.61-4.06-3.26a14.17,14.17,0,0,1-.72-6.92c.29-2.22.86-4.33,2.81-5.67.76-.53.89-1,.67-2.18Zm.78-11.21a4.61,4.61,0,0,1-2.55,0c-.38-.16-1.18.55-1.5.36a1.76,1.76,0,0,0-2.22.47,14.48,14.48,0,0,0-3.26,3.52,26.88,26.88,0,0,0-3.46,12.75,46.33,46.33,0,0,0,.46,6.86,19.26,19.26,0,0,0,4.56,10.72c.82.93,1.69,2.05,3.17,1.95l.29-.32-1.11-.65c1.27.43,2.22,1.45,3.73,1.2l-.54-.6,2.61.72a34.21,34.21,0,0,1-3.56-3.86c-2.87-4.24-3.72-9.13-3.84-14.1a30,30,0,0,1,1.59-10.2C315.58,236,317.05,232.83,320.07,230.57Zm10.73,25.54c-2.17-.53-2.11-.5-2.95,1.41-1.74,3.94-6.1,5.55-9,2.21a12.73,12.73,0,0,1-2.9-6.41,23.46,23.46,0,0,1,.47-10.57c1-3.33,2.64-6.06,6.55-6.48a1.08,1.08,0,0,0,.51-.26c1.18-.91,2.36-1.83,3.69-2.88-1-.74-1.76-1.41-2.61-2a4.75,4.75,0,0,0-4.21.08,12.85,12.85,0,0,0-4.64,6.36,30.74,30.74,0,0,0-2,15.4c.56,4.35,1.63,8.49,4.68,11.81s4.8,3.07,7.65.52S330,259.65,330.8,256.11Zm-9.18-5.9c1.78-1.23,4.06-1,5.35-3.12h-1.35c1.2-.65,2-1.41,1.41-3l-3.11,2.68-.22-.27c3-3.7,3-3.7,2.43-5,2.11-2.79,3.67-5.58,2.72-9.48-.59.63-1,1.5-1.63,2.09-1,.95-2.55,1.48-3.25,2.58-1.68,2.61-2,4.42.27,7.39l.52-2.1c.28,1.09.57,1.88-.06,2.69-.49.62-.92,1.3-1.44,1.9a18.56,18.56,0,0,1-1.34,1.32l-.31-.3,1.13-1.61a15.22,15.22,0,0,0-1.91.87,1.66,1.66,0,0,0-.79.94,14.94,14.94,0,0,0,0,3c.19,1.81.94,2.3,2.36,1.76l-.95-.94.22-.41,2.34,1.17c.1-.45.4-1,.23-1.25s-.81-.47-1.27-.62A11.09,11.09,0,0,0,321.62,250.21ZM335,230.1l.52-.26a13.85,13.85,0,0,0,5.4-6.94c.12-.33.13-.83.36-1,1.35-.8,1.42-2.34,2-3.52a33.25,33.25,0,0,0,1.5-4.91,7.51,7.51,0,0,0-.06-5.52,21.25,21.25,0,0,0-1.78-2.76c-.5,3.75-.84,7.27-2,10.66a50.33,50.33,0,0,1-5.3,10.64c-.44.69-.92,1.34-1.38,2l.34.24,4-5C337.54,226,335.35,227.41,335,230.1ZM345.73,212c0,.17,0,.35-.05.52,0,1.27.21,2.62-1,3.58a.72.72,0,0,0-.19.54c.15,1.68-1,2.9-1.57,4.3-.75,1.75-1.67,3.43-2.54,5.18l.94.35-1.48.73a24.56,24.56,0,0,1-3.1,3c-1,.64-1.29,1.22-.9,2.26.15.42.23.86.37,1.37.89-1.08,1.74-2.14,2.62-3.17a28.83,28.83,0,0,0,4.21-6.35c1-2.16,2.18-4.27,3-6.5A7.4,7.4,0,0,0,345.73,212Zm-5.22,28c.67-.77,1.21-1.49,1.86-2.1,1.06-1,2.28-1.84,3.25-2.92a15.53,15.53,0,0,0,1.83-2.91c1.08-1.93.61-3.83-.17-5.91l-1.22,3.3-.23-1-.26-.09-2.22,5.34V232.3a2.9,2.9,0,0,0-1.77,2.21,1.14,1.14,0,0,1-.63.73,3,3,0,0,0-1.56,2.88c3-1.69,4.77-4.43,6.61-7.11l.7.49-1.31,1.39.9-.09c-.83.79-1.55,1.47-2.28,2.14-.11.11-.37.15-.38.24a2.71,2.71,0,0,1-1.88,2.17C340.55,237.85,340.21,238.55,340.51,239.92ZM329.92,236c3.1-1,3.78-4,3.82-6.9-2.48,1.22-4.88,3.27-3.8,4.81l2.47-2.57.22.22C329.9,235,329.9,235,329.92,236Zm-7.61,6.19-.15-.41c-.43.23-1,.36-1.26.72a10.56,10.56,0,0,0-1.36,2.57,12.12,12.12,0,0,0-.44,6,14.6,14.6,0,0,0,1.41,3.9,2.31,2.31,0,0,0,3.6,1c-2.19-.16-2.94-.87-3.8-2.95a10.73,10.73,0,0,1-.55-4.18A8.43,8.43,0,0,1,322.31,242.21Zm15.8,5.57c.92.46,2-.05,2.75-.42,1.81-.83,2.32-2.52,2.13-4.64l-5.19,3.67.25.4,3.44-2.08.2.3ZM331,251.07c-.15-.68-.29-1.29-.42-1.89a3.22,3.22,0,0,0-2.52-1.83,2.59,2.59,0,0,0-.83.53c.23.21.45.45.7.64s.67.46,1,.69l-.16.23-1.52-.49C327.87,251.47,327.87,251.47,331,251.07Zm3.28-17,.3.11-1.5,3.19c1.78-.3,2.49-2.4,2.15-6.34-1.52.61-2.81,3.61-2.22,5.54Zm-32.19,0c0-.53.16-.86.05-1.07a4.42,4.42,0,0,0-.87-1.14c-.49-.46-1.06-.85-1.73-1.37-.51,3.54-.19,3.95,3.49,4.82Zm26.68,8.56.2.2c-.4.42-1,.77-1.17,1.27a5.65,5.65,0,0,0,0,1.89c2.46-.46,3-1.7,2-4.77-.95.6-2.47.56-2.54,2.43Zm1.15-2a4.29,4.29,0,0,0,2.17-2.44,2.3,2.3,0,0,0-.19-2.41,11.28,11.28,0,0,0-1.4.77,1.36,1.36,0,0,0-.56.81C329.86,238.38,329.9,239.41,329.9,240.64Zm-3.23,13.48a30,30,0,0,0,3.42.82c.44.05,1-.39,1.43-.61-.29-.5-.46-1.2-.89-1.44a19.56,19.56,0,0,0-2.87-1.12c.2,1.2,1.51,1.78,2.79,2.81C329.05,254.28,328.07,252.75,326.67,254.12ZM304,239.72c.83,3.38,1,3.59,2.73,3.61l-.83-1.92,1.42-.45v-.3Zm31.66,6.22,0,.29h-2.47a2.49,2.49,0,0,0,4.36-.58c-1.27-1-1.93-1-2.75-.13Zm-35.47-3.52,1.66,3.71c1.17-1.27,0-1.75-.33-2.45l.29-.22,1.82,2.22a3.76,3.76,0,0,0-.71-2.37C302.3,242.79,301.28,242.75,300.17,242.42Zm25.07,8.5c-.18.41-.69,1-.59,1.46a1.69,1.69,0,0,0,1.24,1.09,1.87,1.87,0,0,0,1.48-.9C327.64,251.94,326.45,251,325.24,250.92Zm-21.1-7.62-1.51-2,.19-.15,1.19,1c-.25-1.92-.5-2.17-2.38-2.41C301.36,241.54,301.87,242.35,304.14,243.3Zm-4,7c.59,1.57,2.53,2.45,4.54,2.18l-2.49-1,.09-.24,2.27.36.07-.48Zm33.3-.84.1.34a4.83,4.83,0,0,0,1.16-.31c.89-.48,1.75-1,2.68-1.6-.23-.72-.52-.71-1.34.16C334.06,246.63,334.35,249.17,333.46,249.47Zm-4-12-2.26,3.75A2.69,2.69,0,0,0,329.44,237.47Zm-2.38,13.18.34-.28c-.37-.45-.67-1.16-1.13-1.31-.82-.25-1.59.1-2.07,1.31Zm-20.58-4.33-1.17-1.84.23-.27-1.75-.55-.18.29a5.31,5.31,0,0,0,.86,1.58A7.76,7.76,0,0,0,306.48,246.32Zm0,6.52-2.69.33-.09.37,2.78.94Z" transform="translate(-278 -189)"/><path d="M326.38,216c-1.06.31-1.46-.09-1.67-1-.24-1.09-.66-2.13-1.11-3.55l-1.54,4.58c-1,.25-1.4-.06-1.63-1.09-.48-2.08-1.19-4.1-1.82-6.19,1-.21,1.79-.25,1.94,1.18a9.25,9.25,0,0,0,1.15,3.17c.35-1.08.65-2.18,1.08-3.23a5.29,5.29,0,0,1,.94-1.2,6.3,6.3,0,0,1,.82,1.32,17.27,17.27,0,0,0,1.14,3.15c.4-1.2.79-2.41,1.21-3.61s.66-1.13,1.68-.53Z" transform="translate(-278 -189)"/><path d="M309.43,268.44c2.28-.4,3.89,2.1,3.86,3.76a3.93,3.93,0,0,1-3.86,3.92,3.55,3.55,0,0,1-3.84-3.79C305.54,270.06,307.4,268.1,309.43,268.44Zm-.2,6.24a2.59,2.59,0,0,0,2.61-2.61,2.64,2.64,0,0,0-2.43-2.43,2.61,2.61,0,0,0-2.37,2.61C307,273.93,307.72,274.68,309.23,274.68Z" transform="translate(-278 -189)"/><path d="M328.26,268.45a4.06,4.06,0,0,1,3.95,4.11,3.94,3.94,0,0,1-3.85,3.8,4,4,0,0,1-.1-7.91ZM326,272.29a2.76,2.76,0,0,0,2.26,2.86,2.87,2.87,0,0,0,2.54-2.63,2.8,2.8,0,0,0-2.49-2.64A2.2,2.2,0,0,0,326,272.29Z" transform="translate(-278 -189)"/><path d="M310.68,211.11c-1.68-1.44-2.31-1.59-3.5-.77a2.36,2.36,0,0,0-1,2.64c.35,1.45,1,1.93,2.25,1.94.92,0,1.71-.18,2-1.36a3.85,3.85,0,0,1-1.08-.1,4.08,4.08,0,0,1-.89-.67c.33-.25.66-.7,1-.7a15.88,15.88,0,0,1,2.45.29c.18,1.49-.87,3.43-2.09,3.73-2.32.56-4.09-.27-4.74-2.11-.78-2.2-.43-3.49,1.34-4.84,1-.75,3-.58,4.32.19S311.41,210.5,310.68,211.11Z" transform="translate(-278 -189)"/><path d="M329.12,223.76c0,2.39-1.41,3.9-3.62,3.88a3.77,3.77,0,0,1-3.8-3.95,3.68,3.68,0,0,1,3.72-3.72A3.5,3.5,0,0,1,329.12,223.76Zm-3.71,2.44a2.29,2.29,0,0,0,2.51-2.37,2.73,2.73,0,0,0-2.49-2.66,2.6,2.6,0,0,0-2.31,2.62C323.1,224.91,324.06,226.53,325.41,226.2Z" transform="translate(-278 -189)"/><path d="M318.24,216.05c-1.1.28-1.48-.18-1.36-1.18a3.84,3.84,0,0,0,0-.48,1.6,1.6,0,0,0-2.46-1.57,1.1,1.1,0,0,0-.4.77c-.07.51.07,1.06,0,1.55s-.46.65-.7,1c-.32-.31-.86-.59-.9-.93a23.08,23.08,0,0,1-.05-3c0-.65.08-1.32,0-2-.11-1.51,0-1.63,1.62-1.43v2.68h2.89v-2.74h1.38Z" transform="translate(-278 -189)"/><path d="M319.13,270l1.29.17-.73,7.3h-1.41c.1-.79.19-1.51.28-2.24s-.22-1.09-1-1.07a13.79,13.79,0,0,1-1.81-.19,15.63,15.63,0,0,1-.32,2.22,3.91,3.91,0,0,1-.75,1.1c-.22-.34-.63-.7-.63-1,.06-2.19.2-4.38.32-6.58H316l-.28,2.88c.16.09.22.16.29.16.82.07,1.88.47,2.38.1s.34-1.5.5-2.29A2.07,2.07,0,0,1,319.13,270Z" transform="translate(-278 -189)"/><path d="M318.11,227.38h-1.38V220a21.89,21.89,0,0,1,2.92,0,2,2,0,0,1,1.78,1.77,2,2,0,0,1-1.08,2.24l-.53.3,2.08,3c-2.38.68-2.37-1.74-3.79-2.59Zm-.06-4.15c.94.17,1.6.12,1.72-.95.08-.76-.28-1.21-1-1.09C317.41,221.44,318.37,222.52,318.05,223.23Z" transform="translate(-278 -189)"/><path d="M296.28,216v-7.2c1.31-.22,1.31-.22,1.44,2.73h2.8v-2.81h1.42v7.19c-1.24.29-1.35.22-1.38-.91v-.6c0-1.54-1-2.23-2.43-1.62a1.11,1.11,0,0,0-.43.74,5.22,5.22,0,0,0,0,1.31C297.78,215.85,297.44,216.33,296.28,216Z" transform="translate(-278 -189)"/><path d="M312.63,227.29c-.89.19-1.56.3-1.8-.8a1.37,1.37,0,0,0-1-.73c-1.1-.07-2.42-.48-2.78,1.28,0,.23-.86.3-1.66.56,1-2.72,1.84-5.06,2.77-7.36a1,1,0,0,1,1.74-.05C310.83,222.53,311.71,224.89,312.63,227.29Zm-2.58-2.82L309,221.91l-.86,2.56Z" transform="translate(-278 -189)"/><path d="M320.25,205.25c-.89.13-1.61.24-1.82-.84-.05-.22-.49-.47-.77-.51a8.05,8.05,0,0,0-1.9,0c-.28,0-.72.3-.76.52-.18,1-.86.94-1.71.83a3.55,3.55,0,0,1,.12-.89c.73-1.92,1.48-3.85,2.28-5.74.13-.31.55-.71.83-.7a1.33,1.33,0,0,1,1,.62C318.49,200.73,319.34,202.94,320.25,205.25Zm-4.65-2.56,1.78-.16a12.79,12.79,0,0,0-.22-1.38,8.93,8.93,0,0,0-.48-1.19Z" transform="translate(-278 -189)"/><path d="M334.17,216c-.87.24-1.46.19-1.77-.73-.09-.28-.61-.53-1-.57a17.78,17.78,0,0,0-2.2,0c-.4.82-.66,1.9-2.11,1.27.84-2.15,1.66-4.34,2.58-6.47.12-.3.72-.5,1.11-.52a1.09,1.09,0,0,1,.85.54C332.53,211.63,333.33,213.78,334.17,216Zm-2.52-2.59-.86-2.53-.27,0-.77,2.5Z" transform="translate(-278 -189)"/><path d="M329.31,198.88V200a6,6,0,0,1-1.56-.1c-.6-.22-.92-.12-1,.5s0,1.13.71,1.26c.55.11,1.11.17,1.72.26l-.39,1.15a12.8,12.8,0,0,0-2.33.06c-.16,0-.17.83-.27,1.38l2.39.4v1a2.53,2.53,0,0,1-.46.06c-1-.07-2-.11-3-.27a.92.92,0,0,1-.54-.71c.29-2.21.65-4.41,1-6.76Z" transform="translate(-278 -189)"/><path d="M302.24,223.5c0-.91,0-1.83,0-2.75s.42-1.05,1.09-1a4.48,4.48,0,0,1,2.07.28,3.3,3.3,0,0,1,1.36,1.8,2.07,2.07,0,0,1-1.47,2.45,5.38,5.38,0,0,1-1,.24c-.91,0-.92.53-.7,1.22a1.49,1.49,0,0,1,.08.92c-.13.3-.48.5-.73.75-.22-.3-.56-.58-.64-.91a7.28,7.28,0,0,1,0-1.55Zm.76-1.42c.58.47,1,1,1.21.94a4.45,4.45,0,0,0,1.14-1c-.36-.35-.67-.89-1.09-1C304,220.93,303.59,221.55,303,222.08Z" transform="translate(-278 -189)"/><path d="M308.89,199.1l-1,.9c-.33-.1-.73-.36-1-.27a1.13,1.13,0,0,0-.68.81,1.23,1.23,0,0,0,.61.89c.55.27,1.38.2,1.74.6a3.15,3.15,0,0,1,.87,2.06,1.87,1.87,0,0,1-1.76,2,10.43,10.43,0,0,1-2.33-.35s-.12-.51,0-.6a1.89,1.89,0,0,1,.88-.47c.24-.05.55.23.77.16.39-.11.93-.3,1.05-.6a.74.74,0,0,0-.7-1.09,4,4,0,0,1-1.2-.45,2,2,0,0,1-1.18-2.87,2.35,2.35,0,0,1,3.13-1.2C308.24,198.71,308.46,198.86,308.89,199.1Z" transform="translate(-278 -189)"/><path d="M332.61,209.07c2.21-.7,2,1.49,3,2.13,1.05-.55.74-2.88,3-2.12-1.53,2.2-3,4.38-2.18,7.23-.81,0-1.64.25-1.51-.67C335.25,213.08,334.07,211.09,332.61,209.07Z" transform="translate(-278 -189)"/><path d="M313.27,227.34v-6.12l-1.34-.1-.12-1.08h4.44c.13,1,.11.89-.71,1.15a1.3,1.3,0,0,0-.78.86,28.34,28.34,0,0,0,.13,3.8C315,227.36,315,227.45,313.27,227.34Z" transform="translate(-278 -189)"/><path d="M310.92,205.5l-.37-5.9-1.22-.07c-.46-1.1.3-1.32,1-1.39,1-.08,2,0,3.07,0l.07,1.13-1.46.13.29,6.12Z" transform="translate(-278 -189)"/><path d="M320,198.93c.14-.72.2-1.26,1.2-.88.63.24,1.43,0,2.12.1.54.09,1.48-.05,1.17,1.15-1.5-.28-1.68.55-1.62,1.78a22.39,22.39,0,0,1-.24,3.65c0,.3-.47.55-.72.82-.23-.29-.66-.59-.66-.88,0-1.73.16-3.46.26-5.2Z" transform="translate(-278 -189)"/><path d="M331.27,226.21h2.05c.25.92.16,1.53-1,1.43-.78-.08-1.56-.19-2.43-.3v-7.08l1.35-.06Z" transform="translate(-278 -189)"/><path d="M322.86,269.31l.75,8H322.2c-.24-2.36-.51-4.72-.67-7.1C321.52,270,322.23,269.71,322.86,269.31Z" transform="translate(-278 -189)"/><path d="M302.8,208.75c1-.22,1.4,0,1.38,1.06-.06,2.06,0,4.13,0,6.25H302.8Z" transform="translate(-278 -189)"/><path d="M290.34,233.72l3.16,3.57.55-.54C292.92,236.63,291.4,235.25,290.34,233.72Z" transform="translate(-278 -189)"/><path d="M291.41,229.89a2.39,2.39,0,0,1-1.58-2.89Z" transform="translate(-278 -189)"/><path d="M349.38,278.19c-1.24.64-1.37-1.05-2.27-1.15l-.54,1.3-.32-.1v-3.85a9.49,9.49,0,0,1,2.54,1c.27.22-.05,1.2-.11,1.84l-.47.16c.38.29.75.58,1.14.86Z" transform="translate(-278 -189)"/><path class="cls-1" d="M320.07,230.57c-3,2.26-4.49,5.41-5.63,8.82a30,30,0,0,0-1.59,10.2c.12,5,1,9.86,3.84,14.1a34.21,34.21,0,0,0,3.56,3.86l-2.61-.72.54.6c-1.51.25-2.46-.77-3.73-1.2l1.11.65-.29.32c-1.48.1-2.35-1-3.17-1.95a19.26,19.26,0,0,1-4.56-10.72,46.33,46.33,0,0,1-.46-6.86,26.88,26.88,0,0,1,3.46-12.75,14.48,14.48,0,0,1,3.26-3.52,1.76,1.76,0,0,1,2.22-.47c.32.19,1.12-.52,1.5-.36A4.61,4.61,0,0,0,320.07,230.57Z" transform="translate(-278 -189)"/><path class="cls-1" d="M330.8,256.11c-.81,3.54-2,6.8-4.72,9.22s-4.67,2.72-7.65-.52-4.12-7.46-4.68-11.81a30.74,30.74,0,0,1,2-15.4,12.85,12.85,0,0,1,4.64-6.36,4.75,4.75,0,0,1,4.21-.08c.85.56,1.64,1.23,2.61,2-1.33,1.05-2.51,2-3.69,2.88a1.08,1.08,0,0,1-.51.26c-3.91.42-5.55,3.15-6.55,6.48a23.46,23.46,0,0,0-.47,10.57,12.73,12.73,0,0,0,2.9,6.41c2.89,3.34,7.25,1.73,9-2.21C328.69,255.61,328.63,255.58,330.8,256.11Z" transform="translate(-278 -189)"/><path class="cls-1" d="M301,227.38l.44,1H299.7l.89,2-.4.28-5.05-6.46-.17.08.79,1.73-.16.12-.9-1.06-.15.06a2.21,2.21,0,0,0,.23.67c1.24,1.5,2.49,3,3.76,4.47.44.5.91.94.22,1.71A63.76,63.76,0,0,1,291,221.56a14.61,14.61,0,0,0,2.9,5.53c1.5,1.78,3.11,3.46,4.61,5.22.19.22.07.71.1,1.07l0,0-2.92-2.92,0,0-1.22-1.69-2.7-3.78-.34.24,2.3,3.28a4,4,0,0,1-.94-.51,21.12,21.12,0,0,0-2-2.08c-1.52-1.11-1.52-2.67-1.26-4.19a4.34,4.34,0,0,0-.38-2.09,8.78,8.78,0,0,1-.13-2.24,10,10,0,0,1,.22-1.62c.1-.54-.4-1.32.59-1.54a1.73,1.73,0,0,0,0-.62c-.36-2.11.42-4,1.1-6.14.7,2.48,1.31,4.67,1.92,6.85.94,3.38,3,6.16,4.85,9,.78,1.21,1.72,2.33,2.61,3.47a3.24,3.24,0,0,0,.73.5ZM290.6,215.11c0,2.7,1.52,4.55,3.42,6.18C293,219.15,291.41,217.35,290.6,215.11Zm8.74,12-5.18-7.21C294.1,221.49,298,226.13,299.34,227.08ZM291.75,213c.11,2.32,1.36,4.91,2.24,5.35Zm-.32,6.21-.28.24,2.72,3.32.25-.21Z" transform="translate(-278 -189)"/><path class="cls-1" d="M321.62,250.21a11.09,11.09,0,0,1,1.33.25c.46.15,1,.28,1.27.62s-.13.8-.23,1.25l-2.34-1.17-.22.41.95.94c-1.42.54-2.17.05-2.36-1.76a14.94,14.94,0,0,1,0-3,1.66,1.66,0,0,1,.79-.94,15.22,15.22,0,0,1,1.91-.87l-1.13,1.61.31.3a18.56,18.56,0,0,0,1.34-1.32c.52-.6.95-1.28,1.44-1.9.63-.81.34-1.6.06-2.69l-.52,2.1c-2.29-3-1.95-4.78-.27-7.39.7-1.1,2.24-1.63,3.25-2.58.65-.59,1-1.46,1.63-2.09.95,3.9-.61,6.69-2.72,9.48.55,1.33.55,1.33-2.43,5l.22.27,3.11-2.68c.55,1.59-.21,2.35-1.41,3H327C325.68,249.19,323.4,249,321.62,250.21Zm6.94-15.76-.15-.08-1.7,2.91a2,2,0,0,0,1.34-.82A9.55,9.55,0,0,0,328.56,234.45Z" transform="translate(-278 -189)"/><path class="cls-1" d="M335,230.1c.39-2.69,2.58-4.12,3.52-6.33l-4,5-.34-.24c.46-.67.94-1.32,1.38-2a50.33,50.33,0,0,0,5.3-10.64c1.19-3.39,1.53-6.91,2-10.66a21.25,21.25,0,0,1,1.78,2.76,7.51,7.51,0,0,1,.06,5.52,33.25,33.25,0,0,1-1.5,4.91c-.58,1.18-.65,2.72-2,3.52-.23.13-.24.63-.36,1a13.85,13.85,0,0,1-5.4,6.94Zm7.46-13.37-2.28,3.8.26.16c.68-1.06,1.39-2.1,2-3.18.11-.18,0-.51,0-.76.51-1.06,1.44-2,1.05-3.38l-1.81,3.77Zm.91-9.46V212C343.69,210.52,344.38,209,343.33,207.27Z" transform="translate(-278 -189)"/><path class="cls-1" d="M326.25,256.41l1.11-1c.47.61.49.62-.14,1.82-1.07,2.06-2.4,3.72-5.08,3.51a3.82,3.82,0,0,1-2.86-1.62,15,15,0,0,1-2.94-7.53,22.49,22.49,0,0,1,.58-8.19c.58-2.29,1.56-4.46,3.74-5.74a7,7,0,0,1,1.85-.52l.3.35a16.41,16.41,0,0,1-1.48,1.81c-.8.73-1.88,1.19-2,2.44l-1.24,2.67c-.93,2.12-.79,4.38-.63,6.58a17.19,17.19,0,0,0,1.11,3.72c.17.35.35.71.51,1.07.81,1.77,2.66,3,4.22,2.86A3.88,3.88,0,0,0,326.25,256.41Z" transform="translate(-278 -189)"/><path class="cls-1" d="M298.63,233.38c.52.65,1.09,1.26,1.56,1.94.59.89,1.39.44,2.14.52a11.92,11.92,0,0,1,2.4.76l0,0,1.05,1.17a4.2,4.2,0,0,0-.11.85,6.44,6.44,0,0,0,.23,1.06c-1.65-.19-2.44-1.47-3.62-2.25l1.27,1.9a5.2,5.2,0,0,1-4.75-1.49l2.32,3.09-.18.19a2.33,2.33,0,0,1-.6-.4,3.43,3.43,0,0,0-3.28-1.27,2,2,0,0,1-2.23-2.07c0-.62-.14-1.24-.25-2.08l2.6.51c-1.68-1-1-2.59-1.18-3.9-1.46-.38-1.66-1.57-1.87-2.76l1.69,1.43,0,0,1.17,1.49-.32.18-.11.08c.56.38,1.06.76,1.6,1.09.15.1.39.06.58.08Zm-1.35.15c1.22,2.57,3.83,5.12,4.85,4.9Z" transform="translate(-278 -189)"/><path class="cls-1" d="M345.73,212a7.4,7.4,0,0,1,.3,5.79c-.81,2.23-2,4.34-3,6.5a28.83,28.83,0,0,1-4.21,6.35c-.88,1-1.73,2.09-2.62,3.17-.14-.51-.22-.95-.37-1.37-.39-1-.06-1.62.9-2.26a24.56,24.56,0,0,0,3.1-3l1.48-.73-.94-.35c.87-1.75,1.79-3.43,2.54-5.18.61-1.4,1.72-2.62,1.57-4.3a.72.72,0,0,1,.19-.54c1.21-1,1-2.31,1-3.58C345.69,212.3,345.72,212.12,345.73,212Z" transform="translate(-278 -189)"/><path class="cls-1" d="M340.51,239.92c-.3-1.37,0-2.07,1.24-2.57a2.71,2.71,0,0,0,1.88-2.17c0-.09.27-.13.38-.24.73-.67,1.45-1.35,2.28-2.14l-.9.09,1.31-1.39L346,231c-1.84,2.68-3.6,5.42-6.61,7.11a3,3,0,0,1,1.56-2.88,1.14,1.14,0,0,0,.63-.73,2.9,2.9,0,0,1,1.77-2.21v1.37l2.22-5.34.26.09.23,1,1.22-3.3c.78,2.08,1.25,4,.17,5.91a15.53,15.53,0,0,1-1.83,2.91c-1,1.08-2.19,1.92-3.25,2.92C341.72,238.43,341.18,239.15,340.51,239.92Z" transform="translate(-278 -189)"/><path class="cls-1" d="M304.73,236.6l-1.26-3.53-.18.3c-1.69-1-2.79-3.28-2.1-4.78l3.72,2.9-1.06.34c2,.13,3.31,1.51,4.81,2.56.7.49.92,1,.4,1.71a8.16,8.16,0,0,0-.65,1.47L307,235.35l-.22.12,1.34,2.73c-1.56.61-1.81.44-1.82-1,0-.44,0-.88,0-1.31s-.1-.76-.16-1.17l.74-.14c-.1-.09-.16-.2-.23-.21-.3,0-.59,0-.89,0l0,.35-1.3-2-.3.2,1.77,2.76-.15,1.39-1.07-.44Z" transform="translate(-278 -189)"/><path class="cls-1" d="M295.78,245.9l-1-2,.26-.26a16.57,16.57,0,0,0,1.85,1.33,3.9,3.9,0,0,0,1.76.45,4,4,0,0,1,4.28,3L300,247l-.13.25,1.53.89-.73.22,3.17,1.14-1-3.05,2.48.73,0,.34-.84.11.61.87c-1.29,1.06,1.33,1.54.28,2.66a3.4,3.4,0,0,0-.69-.36c-1.59-.49-3.2-1.38-4.78-1.32-1.95.07-2-1.3-2.83-2.34l1.23-.15-2.53-1.16Z" transform="translate(-278 -189)"/><path class="cls-1" d="M340.46,250.6c-.55.61-1.08,1.26-1.68,1.82-.3.28-.85.67-1.1.57a1.57,1.57,0,0,0-1.43.07,4.72,4.72,0,0,1-5.83-1.22l1.06-.33.08-.95h5.06l-1.46-.72c1.51-1.07,2-1.14,3.59-.64v-.35a4.14,4.14,0,0,1,1.3-.09c.7.17.88.68.55,1.34a4.84,4.84,0,0,0-.17.54Zm-3.84.93-4.53-.52C333.52,251.74,335,252.27,336.62,251.53Z" transform="translate(-278 -189)"/><path class="cls-1" d="M326.25,256.41a3.88,3.88,0,0,1-3,2.27c-1.56.17-3.41-1.09-4.22-2.86-.16-.36-.34-.72-.51-1.07a2.11,2.11,0,0,0,0-.71,15,15,0,0,1-.7-7.5,20.54,20.54,0,0,0,.22-2.09l1.24-2.67,2.74-2.62c.22,1.14.09,1.65-.67,2.18-1.95,1.34-2.52,3.45-2.81,5.67a14.17,14.17,0,0,0,.72,6.92c.62,1.65,2.34,3.52,4.06,3.26,1.09-.17,1.7-.52,3.28-2.29Z" transform="translate(-278 -189)"/><path class="cls-1" d="M341.59,228.58c.68-1.27,1.4-2.52,2-3.81.35-.71.54-1.51.86-2.23a28.85,28.85,0,0,1,2.3-4.35l.09.72a32.09,32.09,0,0,1,.44,3.63,21.06,21.06,0,0,1-.41,3.21l-1.23-.4.47-1.18-.21-.13-4.33,5.79Z" transform="translate(-278 -189)"/><path class="cls-1" d="M338.25,242.25H340v1.37l3.93-5.45-.76.42-.14-.11,1.44-1.75.27.14c-.26,1.53-.13,3.2-1.49,4.38s-2.94,2.5-4.44,3.69a2.82,2.82,0,0,1-1.09.27,8.34,8.34,0,0,1,.29-1.09c.07-.2.28-.34.46-.55l-3.06,1.09c.44-2.11.45-2.12,2.1-2.15Z" transform="translate(-278 -189)"/><path class="cls-1" d="M338.67,233.94c.89-.94,1.8-1.86,2.68-2.81s1.83-2,2.71-3c.44-.5.78-1.08,1.21-1.58a4.28,4.28,0,0,1,.89-.58,8.33,8.33,0,0,1-1.75,3.44c-2.05,2.39-3.85,5-5.74,7.53-.14.19-.26.4-.39.6l-.24-.16.66-3.44Z" transform="translate(-278 -189)"/><path class="cls-1" d="M329.92,236c0-1.07,0-1.07,2.71-4.44l-.22-.22-2.47,2.57c-1.08-1.54,1.32-3.59,3.8-4.81C333.7,232,333,235,329.92,236Z" transform="translate(-278 -189)"/><path class="cls-1" d="M334.38,241.09c-1.26-.38-.7-1.06-.25-1.67a17,17,0,0,0,1.44-2l-2.79,2.17-.4-.45a10.19,10.19,0,0,1,.8-.94,22.42,22.42,0,0,0,1.8-1.71c1-1.24,1-1.27,2.78-1.08-.17,1-.17,2-1.23,2.7-.48.33-.62,1.14-.92,1.74Z" transform="translate(-278 -189)"/><path class="cls-1" d="M322.31,242.21a8.43,8.43,0,0,0-2.55,6.68,10.73,10.73,0,0,0,.55,4.18c.86,2.08,1.61,2.79,3.8,2.95a2.31,2.31,0,0,1-3.6-1,14.6,14.6,0,0,1-1.41-3.9,12.12,12.12,0,0,1,.44-6,10.56,10.56,0,0,1,1.36-2.57c.25-.36.83-.49,1.26-.72Z" transform="translate(-278 -189)"/><path class="cls-1" d="M298.72,244.5c-.74-1-1.51-2.05-2.2-3.12a5,5,0,0,1-.36-1.35c2.17-.59,3.49.48,4.65,2l-1,.73-2.3-2.2-.21.19,3.43,3.88-.21.3-1.81-.46Z" transform="translate(-278 -189)"/><path class="cls-1" d="M334.38,241.09l1.23-1.23,3.91-1.58c.46,1.78.16,3.08-1.27,4l-.76.26.72-1.59-1.46.85-.13-.12,2.17-1.52-.47-.52c-1.66.45-2.28,2.76-4.52,2.68Z" transform="translate(-278 -189)"/><path class="cls-1" d="M338.11,247.78l3.58-2.77-.2-.3-3.44,2.08-.25-.4,5.19-3.67c.19,2.12-.32,3.81-2.13,4.64C340.07,247.73,339,248.24,338.11,247.78Z" transform="translate(-278 -189)"/><path class="cls-1" d="M331,251.07c-3.11.4-3.11.4-3.74-2.12l1.52.49.16-.23c-.34-.23-.69-.44-1-.69s-.47-.43-.7-.64a2.59,2.59,0,0,1,.83-.53,3.22,3.22,0,0,1,2.52,1.83C330.69,249.78,330.83,250.39,331,251.07Z" transform="translate(-278 -189)"/><path class="cls-1" d="M334.26,234.08l-1.27,2.5c-.59-1.93.7-4.93,2.22-5.54.34,3.94-.37,6-2.15,6.34l1.5-3.19Z" transform="translate(-278 -189)"/><path class="cls-1" d="M302.07,234l.94,1.24c-3.68-.87-4-1.28-3.49-4.82.67.52,1.24.91,1.73,1.37a4.42,4.42,0,0,1,.87,1.14C302.23,233.18,302.11,233.51,302.07,234Z" transform="translate(-278 -189)"/><path class="cls-1" d="M328.75,242.6l-1.52,1c.07-1.87,1.59-1.83,2.54-2.43,1,3.07.42,4.31-2,4.77a5.65,5.65,0,0,1,0-1.89c.18-.5.77-.85,1.17-1.27Z" transform="translate(-278 -189)"/><path class="cls-1" d="M329.9,240.64c0-1.23,0-2.26,0-3.27a1.36,1.36,0,0,1,.56-.81,11.28,11.28,0,0,1,1.4-.77,2.3,2.3,0,0,1,.19,2.41A4.29,4.29,0,0,1,329.9,240.64Z" transform="translate(-278 -189)"/><path class="cls-1" d="M326.67,254.12c1.4-1.37,2.38.16,3.88.46-1.28-1-2.59-1.61-2.79-2.81a19.56,19.56,0,0,1,2.87,1.12c.43.24.6.94.89,1.44-.48.22-1,.66-1.43.61A30,30,0,0,1,326.67,254.12Z" transform="translate(-278 -189)"/><path class="cls-1" d="M332.72,243l-1.45.37c-.84-1.09,1-1.31.94-2.3l-.42.35c-.39.32-.74,1.06-1.3.35-.13-.18.21-1,.53-1.19a12.1,12.1,0,0,1,2.15-.92c.63,1.47,0,2.4-.48,3.38Z" transform="translate(-278 -189)"/><path class="cls-1" d="M341.59,228.58l0,1.25c-.78,1-1.58,2-2.34,3a6.88,6.88,0,0,0-.6,1.14l0,0L336.85,235l-.37-.41c1.18-1.28,2.37-2.56,3.54-3.85.17-.19.24-.47.4-.68C340.79,229.54,341.2,229.06,341.59,228.58Z" transform="translate(-278 -189)"/><path class="cls-1" d="M331,247.09c-1.13.89-2-.12-3-.39.92-1.21,2.12-1,3.38-.36V246a1.71,1.71,0,0,1-.41-.27c-.24-.3-.45-.62-.67-.93.4-.2.79-.54,1.19-.55.22,0,.61.51.66.83a5.56,5.56,0,0,1-.19,1.5Z" transform="translate(-278 -189)"/><path class="cls-1" d="M304,239.72l3.31.94v.3l-1.42.45.83,1.92C305,243.31,304.81,243.1,304,239.72Z" transform="translate(-278 -189)"/><path class="cls-1" d="M335.64,245.94l-.89-.42c.82-.89,1.48-.86,2.75.13a2.49,2.49,0,0,1-4.36.58h2.47Z" transform="translate(-278 -189)"/><path class="cls-1" d="M300.17,242.42c1.11.33,2.13.37,2.73.89a3.76,3.76,0,0,1,.71,2.37l-1.82-2.22-.29.22c.3.7,1.5,1.18.33,2.45Z" transform="translate(-278 -189)"/><path class="cls-1" d="M325.24,250.92c1.21,0,2.4,1,2.13,1.65a1.87,1.87,0,0,1-1.48.9,1.69,1.69,0,0,1-1.24-1.09C324.55,251.92,325.06,251.33,325.24,250.92Z" transform="translate(-278 -189)"/><path class="cls-1" d="M304.14,243.3c-2.27-1-2.78-1.76-2.51-3.6,1.88.24,2.13.49,2.38,2.41l-1.19-1-.19.15Z" transform="translate(-278 -189)"/><path class="cls-1" d="M331,247.09l1-.5c1.35,0,1.4,1,1.5,2-1.32.88-1.32.88-3.12-.78l2,.39Z" transform="translate(-278 -189)"/><path class="cls-1" d="M300.16,250.31l4.48.82-.07.48-2.27-.36-.09.24,2.49,1C302.69,252.76,300.75,251.88,300.16,250.31Z" transform="translate(-278 -189)"/><path class="cls-1" d="M333.46,249.47c.89-.3.6-2.84,2.6-1.41.82-.87,1.11-.88,1.34-.16-.93.57-1.79,1.12-2.68,1.6a4.83,4.83,0,0,1-1.16.31Z" transform="translate(-278 -189)"/><path class="cls-1" d="M329.44,237.47a2.69,2.69,0,0,1-2.26,3.75Z" transform="translate(-278 -189)"/><path class="cls-1" d="M327.06,250.65l-2.86-.28c.48-1.21,1.25-1.56,2.07-1.31.46.15.76.86,1.13,1.31Z" transform="translate(-278 -189)"/><path class="cls-1" d="M332.69,243h2.12c0,1.2-.67,2.5-1.23,2.32-.41-.14-.7-.68-1.17-1.18l1.76-.44-1.45-.74Z" transform="translate(-278 -189)"/><path class="cls-1" d="M306.48,246.32a7.76,7.76,0,0,1-2-.79,5.31,5.31,0,0,1-.86-1.58l.18-.29,1.75.55-.23.27Z" transform="translate(-278 -189)"/><path class="cls-1" d="M306.52,252.84v1.64l-2.78-.94.09-.37Z" transform="translate(-278 -189)"/><path d="M295.78,230.54l-1.69-1.43-.27-.52-2.3-3.28.34-.24,2.7,3.78Z" transform="translate(-278 -189)"/><path class="cls-1" d="M309.23,274.68c-1.51,0-2.19-.75-2.19-2.43a2.61,2.61,0,0,1,2.37-2.61,2.64,2.64,0,0,1,2.43,2.43A2.59,2.59,0,0,1,309.23,274.68Z" transform="translate(-278 -189)"/><path class="cls-1" d="M326,272.29a2.2,2.2,0,0,1,2.31-2.41,2.8,2.8,0,0,1,2.49,2.64,2.87,2.87,0,0,1-2.54,2.63A2.76,2.76,0,0,1,326,272.29Z" transform="translate(-278 -189)"/><path class="cls-1" d="M325.41,226.2c-1.35.33-2.31-1.29-2.29-2.41a2.6,2.6,0,0,1,2.31-2.62,2.73,2.73,0,0,1,2.49,2.66A2.29,2.29,0,0,1,325.41,226.2Z" transform="translate(-278 -189)"/><path class="cls-1" d="M318.05,223.23c.32-.71-.64-1.79.74-2,.7-.12,1.06.33,1,1.09C319.65,223.35,319,223.4,318.05,223.23Z" transform="translate(-278 -189)"/><path class="cls-1" d="M310.05,224.47h-1.93l.86-2.56Z" transform="translate(-278 -189)"/><path class="cls-1" d="M315.6,202.69l1.08-2.73a8.93,8.93,0,0,1,.48,1.19,12.79,12.79,0,0,1,.22,1.38Z" transform="translate(-278 -189)"/><path class="cls-1" d="M331.65,213.42h-1.9l.77-2.5.27,0Z" transform="translate(-278 -189)"/><path class="cls-1" d="M303,222.08c.59-.53,1-1.15,1.26-1.09.42.1.73.64,1.09,1a4.45,4.45,0,0,1-1.14,1C304,223.1,303.58,222.55,303,222.08Z" transform="translate(-278 -189)"/><path d="M290.6,215.11c.81,2.24,2.42,4,3.42,6.18C292.12,219.66,290.59,217.81,290.6,215.11Z" transform="translate(-278 -189)"/><path d="M299.34,227.08c-1.36-1-5.24-5.59-5.18-7.21Z" transform="translate(-278 -189)"/><path d="M291.75,213l2.24,5.35C293.11,217.94,291.86,215.35,291.75,213Z" transform="translate(-278 -189)"/><path d="M298.66,233.42c-.19,0-.43,0-.58-.08-.54-.33-1-.71-1.6-1.09l.11-.08.32-.18-1.17-1.49Z" transform="translate(-278 -189)"/><path d="M291.43,219.24l2.69,3.35-.25.21-2.72-3.32Z" transform="translate(-278 -189)"/><path d="M328.56,234.45a9.55,9.55,0,0,1-.51,2,2,2,0,0,1-1.34.82l1.7-2.91Z" transform="translate(-278 -189)"/><path d="M343.33,207.27c1.05,1.76.36,3.25,0,4.75Z" transform="translate(-278 -189)"/><path d="M342.43,216.72l-.79.42,1.81-3.77c.39,1.4-.54,2.32-1.05,3.38Z" transform="translate(-278 -189)"/><path d="M342.4,216.75c0,.25.15.58,0,.76-.65,1.08-1.36,2.12-2,3.18l-.26-.16,2.28-3.8Z" transform="translate(-278 -189)"/><path d="M318.05,244.45a20.54,20.54,0,0,1-.22,2.09,15,15,0,0,0,.7,7.5,2.11,2.11,0,0,1,0,.71,17.19,17.19,0,0,1-1.11-3.72C317.26,248.83,317.12,246.57,318.05,244.45Z" transform="translate(-278 -189)"/><path d="M297.28,233.53l4.85,4.9C301.11,238.65,298.5,236.1,297.28,233.53Z" transform="translate(-278 -189)"/><path d="M336.62,251.53c-1.65.74-3.1.21-4.53-.52Z" transform="translate(-278 -189)"/></svg>