<?xml version="1.0" encoding="utf-8"?>
<!-- Generator: Adobe Illustrator 24.1.1, SVG Export Plug-In . SVG Version: 6.00 Build 0)  -->
<svg version="1.1" id="Layer_1" xmlns="http://www.w3.org/2000/svg" xmlns:xlink="http://www.w3.org/1999/xlink" x="0px" y="0px"
	 viewBox="0 0 640 480" style="enable-background:new 0 0 640 480;" xml:space="preserve">
<style type="text/css">
	.st0{fill:url(#SVGID_1_);}
	.st1{fill:none;stroke:url(#SVGID_2_);stroke-width:6.5824;stroke-linecap:round;stroke-linejoin:round;stroke-miterlimit:1;}
	.st2{fill:none;stroke:#FFFFFF;stroke-width:2.4684;stroke-linecap:round;stroke-linejoin:round;stroke-miterlimit:1;}
</style>
<g>
	
		<image style="overflow:visible;opacity:0.3;" width="208" height="222" xlink:href="62DB71D9.png"  transform="matrix(1 0 0 1 214.9921 128.9921)">
	</image>
	<g>
		<linearGradient id="SVGID_1_" gradientUnits="userSpaceOnUse" x1="253.4007" y1="182.7334" x2="469.4728" y2="298.805">
			<stop  offset="5.618000e-03" style="stop-color:#FBCA00"/>
			<stop  offset="0.2528" style="stop-color:#FFF9D1"/>
			<stop  offset="0.2984" style="stop-color:#FAF0C0"/>
			<stop  offset="0.3891" style="stop-color:#ECD793"/>
			<stop  offset="0.515" style="stop-color:#D7B04B"/>
			<stop  offset="0.5955" style="stop-color:#C8951A"/>
			<stop  offset="0.816" style="stop-color:#E9CD76"/>
			<stop  offset="0.8708" style="stop-color:#F1DC8D"/>
			<stop  offset="1" style="stop-color:#FFF9D1"/>
		</linearGradient>
		<path class="st0" d="M319.3,324.3c-15.2-33.2-58.2-32.4-72.8-53.5c-14.5-21-14.4-34,4.4-60.7c18.8-26.7-10.1-44.1-10.1-44.1
			l19.5-22.4c34,34,59,0.7,59,0.7s25,33.3,59-0.7l19.5,22.4c0,0-29,17.3-10.1,44.1c18.8,26.8,18.8,41.2,4.4,60.7
			C376.8,291.5,334.5,291.1,319.3,324.3z"/>
		<linearGradient id="SVGID_2_" gradientUnits="userSpaceOnUse" x1="232.8986" y1="233.9882" x2="405.7023" y2="233.9882">
			<stop  offset="0" style="stop-color:#FFF9D1"/>
			<stop  offset="0.1292" style="stop-color:#F1DC8D"/>
			<stop  offset="0.184" style="stop-color:#E9CD76"/>
			<stop  offset="0.4045" style="stop-color:#C8951A"/>
			<stop  offset="0.485" style="stop-color:#D7B04B"/>
			<stop  offset="0.6109" style="stop-color:#ECD793"/>
			<stop  offset="0.7016" style="stop-color:#FAF0C0"/>
			<stop  offset="0.7472" style="stop-color:#FFF9D1"/>
			<stop  offset="0.9944" style="stop-color:#FBCA00"/>
		</linearGradient>
		<path class="st1" d="M319.3,324.3c-15.2-33.2-58.2-32.4-72.8-53.5c-14.5-21-14.4-34,4.4-60.7c18.8-26.7-10.1-44.1-10.1-44.1
			l19.5-22.4c34,34,59,0.7,59,0.7s25,33.3,59-0.7l19.5,22.4c0,0-29,17.3-10.1,44.1c18.8,26.8,18.8,41.2,4.4,60.7
			C376.8,291.5,334.5,291.1,319.3,324.3z"/>
		<path class="st2" d="M319.3,319.2c-9.6-16.9-26.8-24.4-42-31.1c-11.8-5.2-23-10.1-28.8-18.6c-13.3-19.3-14.7-31,4.3-58
			c5.8-8.3,7.9-16.6,6.2-24.7c-2.3-10.8-10.7-18.1-14.8-21.2l16.2-18.6c10,9.5,20.3,14.2,30.6,14.2c14.2,0,24.3-9,28.2-13.3
			c4,4.3,14,13.3,28.2,13.3c10.3,0,20.6-4.8,30.6-14.2l16.2,18.6c-4.1,3-12.5,10.4-14.8,21.2c-1.7,8.1,0.4,16.4,6.2,24.7
			c17.7,25.1,18.7,38.7,4.4,58c-6,8.1-17,13-28.6,18.1C346.3,294.4,329,302.1,319.3,319.2z"/>
	</g>
</g>
</svg>
