<svg id="Layer_1" data-name="Layer 1" xmlns="http://www.w3.org/2000/svg" xmlns:xlink="http://www.w3.org/1999/xlink" viewBox="0 0 545.66 410.5"><defs><linearGradient id="linear-gradient" x1="846.07" y1="164.65" x2="1132.54" y2="194.04" gradientTransform="translate(-714.45 44.53) scale(0.87)" gradientUnits="userSpaceOnUse"><stop offset="0"/><stop offset="1" stop-opacity="0"/></linearGradient><radialGradient id="radial-gradient" cx="137.78" cy="-1128.97" r="109.57" gradientTransform="matrix(1.44, -0.02, 0, 0.13, -141.45, 433.62)" xlink:href="#linear-gradient"/><linearGradient id="linear-gradient-2" x1="-50.67" y1="355.89" x2="247.57" y2="69.88" gradientTransform="translate(-4.46 31.39) scale(0.87)" gradientUnits="userSpaceOnUse"><stop offset="0" stop-color="#782121"/><stop offset="0.55" stop-color="#a02c2c"/><stop offset="1" stop-color="#782121"/></linearGradient><linearGradient id="linear-gradient-3" x1="88.63" y1="136.94" x2="146.01" y2="197.44" gradientTransform="translate(-4.46 31.39) scale(0.87)" gradientUnits="userSpaceOnUse"><stop offset="0" stop-color="#e6e6e6"/><stop offset="0.5" stop-color="#fff"/><stop offset="1" stop-color="#e6e6e6"/></linearGradient><radialGradient id="radial-gradient-2" cx="736.9" cy="206.21" r="33.34" gradientTransform="matrix(2.23, 4.51, -6.62, 3.27, -196.28, -3705.66)" gradientUnits="userSpaceOnUse"><stop offset="0" stop-color="red"/><stop offset="1" stop-color="#a00"/></radialGradient><linearGradient id="linear-gradient-4" x1="701.45" y1="232.91" x2="679.32" y2="223.75" gradientTransform="translate(-4675.42 -1273.67) scale(6.94)" gradientUnits="userSpaceOnUse"><stop offset="0" stop-color="#1a1a1a"/><stop offset="1"/></linearGradient><linearGradient id="linear-gradient-5" x1="688.92" y1="231.89" x2="719.63" y2="213.34" gradientTransform="translate(-4675.42 -1273.67) scale(6.94)" gradientUnits="userSpaceOnUse"><stop offset="0" stop-color="#fff" stop-opacity="0"/><stop offset="0.6" stop-color="#fff"/><stop offset="1" stop-color="#fff" stop-opacity="0"/></linearGradient><linearGradient id="linear-gradient-6" x1="706.72" y1="224.42" x2="660.91" y2="243.85" gradientTransform="translate(-4675.42 -1273.67) scale(6.94)" gradientUnits="userSpaceOnUse"><stop offset="0" stop-color="#a00"/><stop offset="1" stop-color="maroon"/></linearGradient><linearGradient id="linear-gradient-7" x1="673.96" y1="240.57" x2="752.02" y2="200.31" gradientTransform="translate(-4675.42 -1273.67) scale(6.94)" gradientUnits="userSpaceOnUse"><stop offset="0" stop-color="#fff" stop-opacity="0.7"/><stop offset="1" stop-color="#fff" stop-opacity="0"/></linearGradient><radialGradient id="radial-gradient-3" cx="688.57" cy="264.42" r="26.45" gradientTransform="matrix(4.06, -0.14, 0.11, 3.27, -2684.1, -512.56)" gradientUnits="userSpaceOnUse"><stop offset="0" stop-color="#fff"/><stop offset="1" stop-color="#fff" stop-opacity="0"/></radialGradient><linearGradient id="linear-gradient-8" x1="261.16" y1="505.64" x2="266.48" y2="545.93" gradientTransform="translate(8.22 -95.05) scale(0.95)" xlink:href="#linear-gradient"/><linearGradient id="linear-gradient-9" x1="231.62" y1="434.39" x2="233.68" y2="470.12" gradientTransform="translate(-12.48 -23.71) rotate(-6.05) scale(0.95)" gradientUnits="userSpaceOnUse"><stop offset="0" stop-color="#ccc"/><stop offset="0.5" stop-color="#fff"/><stop offset="1" stop-color="#ccc"/></linearGradient><linearGradient id="linear-gradient-10" x1="269.55" y1="431.01" x2="270.65" y2="465.22" gradientTransform="translate(-12.48 -23.71) rotate(-6.05) scale(0.95)" gradientUnits="userSpaceOnUse"><stop offset="0"/><stop offset="0.5" stop-color="#333"/><stop offset="1"/></linearGradient><linearGradient id="linear-gradient-11" x1="81.29" y1="444.16" x2="81.28" y2="459.21" gradientTransform="translate(-12.48 -23.71) rotate(-6.05) scale(0.95)" gradientUnits="userSpaceOnUse"><stop offset="0" stop-color="#333"/><stop offset="1"/></linearGradient><linearGradient id="linear-gradient-12" x1="210.8" y1="433.78" x2="211.35" y2="462.66" gradientTransform="translate(-12.48 -23.71) rotate(-6.05) scale(0.95)" gradientUnits="userSpaceOnUse"><stop offset="0" stop-color="#a00"/><stop offset="0.5" stop-color="#ff2a2a"/><stop offset="1" stop-color="#a00"/></linearGradient><linearGradient id="linear-gradient-13" x1="382.21" y1="415.67" x2="384.66" y2="446.04" gradientTransform="translate(-12.48 -23.71) rotate(-6.05) scale(0.95)" xlink:href="#linear-gradient"/><linearGradient id="linear-gradient-14" x1="-13.38" y1="451.88" x2="2.66" y2="452.67" xlink:href="#linear-gradient-9"/><radialGradient id="radial-gradient-4" cx="-127.66" cy="2248.76" r="28.91" gradientTransform="translate(563.41 114.8) scale(0.95 0.13)" xlink:href="#linear-gradient"/></defs><line x1="334.66" y1="270.8" x2="334.66" y2="270.8" fill="none"/><line x1="291.66" y1="226.8" x2="291.66" y2="226.8" fill="none"/><line x1="291.66" y1="226.8" x2="291.66" y2="226.8" fill="none"/><line x1="291.66" y1="226.8" x2="291.66" y2="226.8" fill="none"/><line x1="291.66" y1="226.8" x2="291.66" y2="226.8" fill="none"/><path d="M328.2,272.8c-6.4-6.4-11.5-13.8-16.9-21a38.75,38.75,0,0,1-4-5.7,46.47,46.47,0,0,0-3.9-5.5c-1.3-1.7-1.6-2.8-2.8-3.8a8.39,8.39,0,0,0-3-1.5c3.3.7,6.6,1.3,9.9,2a11.61,11.61,0,0,1,5.5,3,118.51,118.51,0,0,1,9.9,14.4c1.5,2.6,3.9,4.6,5.6,7.1a53.22,53.22,0,0,0,5.6,7.6c3.8,3.8,6.3,9.6,11.5,11.4-6.4-1.7-12.7-2.7-17.4-8" transform="translate(-4.54 -8)" fill="#542901"/><line x1="302.16" y1="229.3" x2="302.16" y2="229.3" fill="none"/><line x1="302.16" y1="229.3" x2="302.16" y2="229.3" fill="none"/><line x1="302.16" y1="229.3" x2="302.16" y2="229.3" fill="none"/><path d="M261.2,297.8c1.1-10.2,2-21.1,4.1-31.3.5-2.6.8-5.3,1.2-8s1.5-5.3,2.1-8c.3-1.1.3-2.3.6-3.4.4-1.6.1-1.9,1.6-1.5,3.1.7,6.2,1.5,9.3,2.2-1.2,5-1.2,9.8-2.1,14.8s-2.7,10.2-3.8,15.3.3,10.5-.5,15.7c-.5,3.1,1.1,7.7.4,12.2-4.3-1.2-13.4-1.6-12.9-8" transform="translate(-4.54 -8)" fill="#542901"/><line x1="275.16" y1="240.3" x2="275.16" y2="240.3" fill="none"/><line x1="275.16" y1="240.3" x2="275.16" y2="240.3" fill="none"/><line x1="273.16" y1="242.8" x2="273.16" y2="242.8" fill="none"/><path d="M261.2,250.3c-2.1-1.9-1.7-6.6.2-8.7a74.9,74.9,0,0,1,6.3-6.3c2.4-2.2,5.7-3.6,8.5-5a78.5,78.5,0,0,1,10.4-4.3c3.3-1.1,7.4-1.1,10.9-1.5,3.8-.5,7,.4,10.8.9,1.2.2,3.3,1.1,4.4.8s1.6-1.6,2.3-2.3c1.6-1.6,2.6-7,3.3-9.3,1.7-5.8,1.8-11.9,3-17.8s1.8-12.2,2.7-18.3c.9-6.4,3.1-12.5,5.1-18.6a16,16,0,0,1,2.3-4,7.26,7.26,0,0,1,3.1-1.7c3.5.3,7,.9,10.5,1.2a17.16,17.16,0,0,0-5.8,7.5c-.6,1.9-1.4,3-1.7,5.1-.3,1.9.3,3.6,0,5.6-1,7.1-3.7,14.3-3.7,21.5,0,1.6-2,3.3-2.3,4.9s-.3,3.4-.7,4.9c-.4,1.7-.3,3.4-.9,5.1a43.7,43.7,0,0,0-1.2,4.9c-.8,4-2,15.1-8,13.3a41.84,41.84,0,0,0-32.9,4.4c-5.5,3.3-24.7,14.3-14.4,21.2-4.1-.9-9-1.3-12.2-3.5" transform="translate(-4.54 -8)" fill="#542901"/><line x1="506.16" y1="312.8" x2="506.16" y2="312.8" fill="none"/><line x1="506.16" y1="312.8" x2="506.16" y2="312.8" fill="none"/><line x1="505.66" y1="312.8" x2="505.66" y2="312.8" fill="none"/><line x1="505.66" y1="312.8" x2="505.66" y2="312.8" fill="none"/><line x1="443.16" y1="279.3" x2="443.16" y2="279.3" fill="none"/><line x1="443.16" y1="279.3" x2="443.16" y2="279.3" fill="none"/><path d="M523.2,324.3c-4-1-8.1-2.1-12.1-3.1-2.6-.7-5.3-1.2-7.2-3.2a76.14,76.14,0,0,1-11.7-15.8c-3.5-6.2-7.1-12.2-10.3-18.6-.7-1.4-1.5-3-2.1-4.3-.5-1-2-2.2-2-3.3,0-.5-1.5-1-1.5-1.5,0-.8-2.5-.6-3-1.3,3.9.8,7.8,1.7,11.7,2.5,2,.4,5,1.1,6.3,2.5.1.1,1.4.6,1.4.8,0,.6.3-.1.5.3s.4,1.4.8,1.8a11.13,11.13,0,0,1,2.2,4,35.07,35.07,0,0,0,4.8,9.2,20.11,20.11,0,0,1,2.2,4.4,34.19,34.19,0,0,0,2.6,4c1.8,3.1,2.3,6.1,4.1,9.2,3,5.3,7.2,10.9,13.3,12.4" transform="translate(-4.54 -8)" fill="#542901"/><line x1="474.16" y1="270.8" x2="474.16" y2="270.8" fill="none"/><path d="M454.1,344.3c1.9-11.6,1.3-23.3,3.6-34.8,1.1-5.6,3.4-11.2,5.1-16.6a6.71,6.71,0,0,0-.8-3.1c-1.3-.3-2.7-.7-4-1-3.3-.8-6.6-1.7-10-2.5,0,3.1-1.6,6.1-2.1,9.1-.6,3.6-1.6,7-2.3,10.6-1.5,7.4-1.8,15-3.5,22.4a95.67,95.67,0,0,0-2.1,19.2,8.68,8.68,0,0,0,.9,4.5c.4.9,2.5,1.1,3.3,1.4,3.9,1.1,8,2,12,3.1-3.7-2.2-.5-9.5-.1-12.3Z" transform="translate(-4.54 -8)" fill="#542901"/><path d="M455.1,287.8c.9-2.6,2-5.9,3.9-7.8a56.88,56.88,0,0,1,7-6c6.1-4.6,12.3-6,19.6-8,1.5-.4,3-1.4,4.6-1.6a13.84,13.84,0,0,1,6.4.4c1.6.5,8.5,2.3,8.5-.6a9.28,9.28,0,0,1,.1-3.3,34.61,34.61,0,0,0,1.9-5.4c.7-3.5,2.6-7,3.5-10.4,1.3-5.2,2-10.7,2.9-16,.9-5.7.5-11.3,1.3-17s3.1-11.5,4.8-16.8c1.6-4.7,1.7-11.1,6.4-13.4-4.2-.6-8.6-1.6-12.8-2.2-3.6-.5-4.5,3-5.9,5.6-1.5,2.8-2.3,6.8-3.2,9.8-1,3.6-1.6,7.3-2.5,11-1.8,7.3-2.6,14.9-3.8,22.3-.3,1.7-.7,4.6-.8,5.6s-.4,2.2-.8,4.2-1.2,7.1-1.8,10.6c-.3,1.7-.7,3.4-1.1,5.2a24.79,24.79,0,0,1-1.7,4.8c-1.1,2.1-1.6,4.2-4.1,4.2-1.6,0-3.1-.9-4.8-1.1a43.5,43.5,0,0,0-6.3-.4,28.15,28.15,0,0,0-10.7,2.3c-6.3,2.7-12.7,5.5-17.6,10.3-4.4,4.4-9.3,8.9-9.3,15.6,0,3,2.3,4.2,4.8,4.8,3.9.8,7.8,1.7,11.7,2.5-3.9-1.5-1.1-6.4-.2-9.2Z" transform="translate(-4.54 -8)" fill="#542901"/><path d="M452.8,337H439.3a4.27,4.27,0,0,1-4.3-4.3V92.6a4.27,4.27,0,0,1,4.3-4.3h13.5a4.27,4.27,0,0,1,4.3,4.3V332.7A4.27,4.27,0,0,1,452.8,337Z" transform="translate(-4.54 -8)" fill="#755a11"/><path d="M477.8,105.8H391a25,25,0,0,1-25-25V33A25,25,0,0,1,391,8h86.8a25,25,0,0,1,25,25V80.8A25,25,0,0,1,477.8,105.8Z" transform="translate(-4.54 -8)" fill="#4bc136"/><path d="M456.9,137.2H380.7a30.34,30.34,0,0,1-30.3-30.3V69.7a30.34,30.34,0,0,1,30.3-30.3h76.2a30.34,30.34,0,0,1,30.3,30.3v37.2A30.28,30.28,0,0,1,456.9,137.2Z" transform="translate(-4.54 -8)" fill="#49b232"/><path d="M506.1,130.1H419.3a25,25,0,0,1-25-25V57.3a25,25,0,0,1,25-25h86.8a25,25,0,0,1,25,25v47.8A25,25,0,0,1,506.1,130.1Z" transform="translate(-4.54 -8)" fill="#55c63e"/><line x1="306.66" y1="218.3" x2="306.66" y2="218.3" fill="none"/><path d="M347.7,270.3a39,39,0,0,1-6.8-6c-2.4-2.8-4.6-6-6.8-8.5-2.4-2.9-4.5-6-6.7-9.1-.9-1.3-1.7-2.8-2.6-4.1a16.76,16.76,0,0,0-2.7-3.7,9.11,9.11,0,0,0,3.1-.9,38.42,38.42,0,0,0,3.6-3.1,8.3,8.3,0,0,0,1.9-2.7c.6-1.7,1.3-3.3,1.8-5,1.1-3.4,2.5-6.4,3.1-9.9.6-3.7,1.2-7.4,2-11.1,1.6-7.4,1.6-15.1,3.4-22.4.9-3.4,1.1-6.9,2.1-10.3.3-.9.9-3.5,1.3-4.3.5-1.1.2-2.1,1-3.5,1.4-2.4,2.9-5.7,1.3-8.3-2.7-4.1-4.7.1-6.5,2.8-2,3-2.5,6.7-3.6,10.1a60.83,60.83,0,0,0-2.3,11.1c-.5,3.5-1.1,6.9-1.8,10.3s-.7,7-1.6,10.5c-.8,3.3-.8,6.7-1.6,10s-1.2,6.7-2.3,10c-.8,2.3-1.9,5.9-4.3,6.3a9.34,9.34,0,0,1-4.4-.8,29.6,29.6,0,0,0-5.2-.7,40.94,40.94,0,0,0-21.8,3.5c-6,3-11.8,5.8-16.6,10.5-1.9,1.9-4.5,4.8-4.5,7.7,0,2.4,1.5,5.9,4.5,5.3,1.1-.2,2.4-1.7,2.9-2.7a11.48,11.48,0,0,1,2.6-3.3c-.9,3.4-1.7,6.8-2.6,10.2-.9,3.6-1,7.3-1.8,10.9a195.44,195.44,0,0,0-3.8,25.3c-.2,3.1-.4,3.7-.4,6.9.1,3.5,2.6,6.7,5.7,3.6,1-1,2.3-2,2.3-3.6a35.32,35.32,0,0,1,.5-5.6c.6-3.4.7-6.9,1.2-10.4,1.3-7.5,2-15.1,3.3-22.6.5-3.2,1.7-6.6,2.5-9.7a20.72,20.72,0,0,1,1.4-4.2,12.66,12.66,0,0,0,.6-1.8c.3-.6.8-1.1,1.1-1.8,2.5-5,8.6-7.7,14.1-7.7,2.7,0,4.9.1,6.8,2,.5.5,1.3,1.6,2,2.5a30.87,30.87,0,0,1,2.6,3.7c1.3,2.6,3.2,4.8,4.7,7.3,1.6,2.7,3.8,4.9,5.7,7.5,3.5,4.8,6.8,9.8,11,14,2.5,2.5,8.9,8.8,12.5,6.5,2.1-1.3,2.5-4.1,2.5-6.3a4.63,4.63,0,0,0-1.5-3.3c-.7-.7-1.4-.1-2.9-1.1Z" transform="translate(-4.54 -8)" fill="#7f3e01"/><path d="M491.2,278.3c.2.4,2.7,5.2,3.5,7,1.4,3.4,4.8,9.2,5.4,10.4a31.25,31.25,0,0,0,1.9,3.6c1.2,1.8,2.3,3.7,3.4,5.6,1.8,3.1,3.8,6.2,5.7,9.3,2,3.3,9.2,12,13.1,9.6,2.6-1.7,3.2-5.1,3-8-.2-3.4-3.1-2.6-5.2-4.7-9.3-9.3-15.1-22.3-20.8-33.8,1,.2,2.3-.9,3.2-1.4a10.27,10.27,0,0,0,3-2.5,17.07,17.07,0,0,0,1.4-2.7,21,21,0,0,0,1.3-2.6c.6-1.8.7-2.9,1.4-4.6a46.41,46.41,0,0,0,1.2-4.7c.5-2,1.1-3.9,1.4-5.9.6-3.5,1.5-7,2.1-10.6,2.5-14.6,4.3-29.4,7.9-43.8.7-2.9,2.1-5.2,3-8,.8-2.5,2.4-7.1-.7-8.6-1.6-.8-2.2,0-3.3,1.4a18.1,18.1,0,0,0-2.6,4.7c-1.2,3.5-2.6,6.9-3.5,10.6-3.5,14-4.3,28.8-7.2,42.9-.7,3.5-1.6,7-2.2,10.6a54.46,54.46,0,0,1-3,9.7,12,12,0,0,1-1.5,3c-1,1.3-1.5.8-3,.5-1.8-.4-3.6-.7-5.4-1.2s-3.4.2-5.3.2c-7.5,0-14.4,3.6-20.7,7.4-2.7,1.6-5.2,4.1-7.6,6.1a24,24,0,0,0-5.9,7.2c-.9,1.8-2.6,3.7-2.6,6,0,2.1.1,5,2,5.8s3.6-.7,4.4-2.2c.9-1.7,2-3.1,3.1-4.8a83,83,0,0,1-2.8,10.9c-1.2,3.5-1.4,7.5-2.1,11.2-1.4,7.3-2.3,14.6-3.2,22-.5,3.7-.9,7.4-1.5,11.1-.5,3-1.7,6.9-.3,9.7,2,4.1,4.9,1.4,6.4-1.8.7-1.5.6-3.2.9-4.8a46.78,46.78,0,0,0,.8-5.4c1.5-14.8,3.5-29.7,7.1-44.1,1.5-6,2.5-11.5,6.7-16.2a11.82,11.82,0,0,1,5.3-4,29.23,29.23,0,0,1,4.5-1.4,7.14,7.14,0,0,1,2-.2,14.8,14.8,0,0,1,2,.1,7.8,7.8,0,0,1,3.3,1.4Z" transform="translate(-4.54 -8)" fill="#7f3e01"/><line x1="244.16" y1="140.8" x2="244.16" y2="140.8" fill="none"/><line x1="244.16" y1="140.8" x2="244.16" y2="140.8" fill="none"/><line x1="244.16" y1="140.8" x2="244.16" y2="140.8" fill="none"/><line x1="244.16" y1="140.8" x2="244.16" y2="140.8" fill="none"/><line x1="244.16" y1="140.8" x2="244.16" y2="140.8" fill="none"/><polygon points="242.66 139.8 545.16 183.3 545.66 183.8 545.66 184.3 545.16 185.3 544.16 187.3 543.66 188.8 542.96 190.6 542.46 192.6 541.96 194.1 541.66 194.8 541.46 195.5 541.46 195.9 541.26 196.4 541.16 196.9 540.66 197.3 239.16 150.3 238.56 149.9 238.16 149.3 237.96 148.6 237.96 148.1 237.96 147.2 238.06 146.5 238.46 145.4 238.66 144.8 239.16 143.8 239.46 143.2 239.96 142.2 240.26 141.6 240.76 140.7 241.46 140.2 242.16 139.8 242.66 139.8" fill="#4f2703"/><polygon points="229.46 191.7 229.26 192.1 229.16 192.6 228.96 193.2 228.86 193.6 228.76 194.1 228.66 194.8 228.66 195.3 228.66 196.3 228.66 197.3 228.86 198 229.16 198.8 229.66 199.3 529.16 258.8 529.66 258.7 529.96 257.9 530.16 256.3 530.56 254.9 530.86 253.4 531.16 251.7 531.46 250.3 531.66 249.3 531.86 248.3 532.06 247.3 532.16 246.3 532.26 245 532.16 244.3 232.66 187.8 232.16 187.8 231.46 188.1 230.66 188.7 230.16 189.3 229.86 190.1 229.66 190.8 229.56 191.3 229.46 191.7" fill="#4f2703"/><line x1="233.66" y1="182.3" x2="233.66" y2="182.3" fill="none"/><line x1="233.66" y1="182.8" x2="233.66" y2="182.8" fill="none"/><line x1="233.66" y1="182.8" x2="233.66" y2="182.8" fill="none"/><polygon points="235.16 171.3 234.66 171.5 233.96 171.8 233.16 172.3 232.76 172.8 232.46 173.5 232.16 174.5 231.96 175.3 231.86 176.2 231.66 176.8 231.66 177.8 231.66 178.8 231.66 179.3 231.66 180.3 231.66 181.3 231.86 181.9 232.16 182.3 232.96 183 233.66 183.3 533.16 238.3 533.66 238.3 533.86 237.7 533.86 237 533.96 235.9 534.16 234.8 534.56 232.4 534.96 230.3 535.16 228.3 535.66 225.8 535.76 224.2 535.66 223.3 235.16 171.3" fill="#4f2703"/><polygon points="238.16 155.3 539.66 202.8 539.16 204.8 538.66 207.8 538.16 210.3 537.66 212.8 537.16 215.3 536.66 217.8 236.16 166.8 235.46 166.6 234.66 166 234.26 165.5 234.16 164.8 234.16 163.8 234.16 162.8 234.16 161.8 234.16 161.3 234.36 160.2 234.56 159.3 234.66 158.8 234.96 157.8 235.16 156.8 235.66 156.2 236.06 155.7 236.66 155.3 237.46 155.2 238.16 155.3" fill="#4f2703"/><line x1="524.66" y1="265.3" x2="524.66" y2="265.3" fill="none"/><polygon points="225.26 204.6 225.06 204.8 224.66 204.7 224.36 204.5 223.56 204.6 222.96 204.7 222.56 204.9 221.86 205.4 221.16 206.2 221.06 207 221.36 207.4 221.86 207.6 222.26 207.7 222.66 207.8 223.16 207.9 223.56 208 223.86 208.1 224.66 208.3 524.16 270.3 524.36 270.2 524.96 270 525.16 269.8 525.46 269.5 525.66 269.3 525.96 269.1 526.16 268.8 526.46 268.4 526.66 267.8 526.96 267.4 527.16 266.8 527.56 266.1 527.66 265.3 527.66 264.9 527.16 264.2 526.66 263.8 227.66 203.3 227.16 203.3 226.46 203.6 225.96 204 225.66 204.3 225.26 204.6" fill="#4f2703"/><line x1="510.16" y1="268.8" x2="510.16" y2="268.8" fill="none"/><line x1="510.16" y1="268.8" x2="510.16" y2="268.8" fill="none"/><polygon points="208.66 206.3 510.16 269.3 511.36 269.4 512.96 269.3 514.46 269.2 515.86 269.1 516.96 269 518.06 268.7 518.16 267.8 518.16 266.3 517.86 265.3 517.66 264.8 517.16 264.3 216.16 202.8 215.66 202.7 215.06 202.7 214.06 202.6 213.56 202.6 213.06 202.6 212.06 202.7 211.66 202.7 211.16 202.8 210.16 203.3 209.66 203.8 209.16 204.3 208.66 205.3 208.66 206.3" fill="#4f2703"/><line x1="501.56" y1="267.6" x2="501.56" y2="267.6" fill="none"/><line x1="502.16" y1="267.3" x2="502.16" y2="267.3" fill="none"/><line x1="503.16" y1="266.8" x2="503.16" y2="266.8" fill="none"/><line x1="503.46" y1="266.6" x2="503.46" y2="266.6" fill="none"/><polygon points="195.66 208.8 498.66 273.3 499.16 273.3 500.26 272.9 500.86 272.5 501.46 272.3 502.26 271.9 502.86 271.6 503.66 271.3 504.26 271 504.86 270.9 505.76 270.6 506.66 270.1 507.06 269.7 506.86 268.7 506.66 267.8 506.16 266.8 505.66 266.3 203.66 203.8 202.66 203.7 202.06 203.7 201.56 203.7 201.06 203.7 200.56 203.7 200.06 203.7 199.46 203.9 198.86 204.1 198.36 204.2 197.96 204.3 197.16 204.8 196.66 205.3 196.06 206.2 195.66 206.8 195.46 208 195.66 208.8" fill="#4f2703"/><polygon points="182.66 214.8 486.66 282.3 487.46 282 487.96 281.5 488.46 281 489.46 280 490.86 278.9 491.66 278.3 492.76 277.4 494.16 276.3 495.16 275.3 495.16 274.8 494.66 273.8 494.16 272.8 190.66 208.3 189.76 207.9 189.16 207.8 188.26 208.1 187.66 208.3 186.96 208.6 186.26 209 185.66 209.3 185.06 209.7 184.16 210.3 183.66 210.8 183.16 211.3 182.46 212.2 182.16 212.8 182.16 213.8 182.66 214.8" fill="#4f2703"/><line x1="172.16" y1="227.3" x2="172.16" y2="227.3" fill="none"/><line x1="171.66" y1="226.8" x2="171.66" y2="226.8" fill="none"/><line x1="171.66" y1="226.8" x2="171.66" y2="226.8" fill="none"/><line x1="178.66" y1="217.3" x2="178.66" y2="217.3" fill="none"/><line x1="178.66" y1="217.3" x2="178.66" y2="217.3" fill="none"/><line x1="178.66" y1="217.3" x2="178.66" y2="217.3" fill="none"/><line x1="178.66" y1="217.3" x2="178.66" y2="217.3" fill="none"/><polygon points="172.16 227.3 477.16 298.8 477.46 298.5 477.46 297.5 477.46 296.5 477.76 295.5 477.86 294.9 478.16 294.3 478.66 292.8 479.66 291.3 480.16 290.3 480.96 289.2 481.76 287.9 482.76 286.9 483.16 286.3 483.26 285.8 483.16 285.3 482.16 284.3 177.66 216.3 177.16 216.3 176.16 216.3 175.66 216.8 174.66 217.3 174.16 217.8 173.66 218.3 172.66 219.3 172.16 219.8 171.66 220.8 171.16 221.8 170.66 222.8 170.66 223.3 170.66 224.3 170.66 225.3 171.16 226.3 171.66 226.8 172.16 227.3" fill="#4f2703"/><path d="M31,289.25c-1.4-.37-4.77-1.12-7.47-1.68-9.81-2.15-12-3.17-15.32-6.91-4.48-5,2.71-8.21,1.68-16.15-.56-4.58-.56-4.67,1.12-18.49l1.78-13.91,2.33-7.19c1.31-3.92,2.52-7.47,2.9-7.75s1.68-3.64,3.17-7.38,3.46-8.68,4.58-11A25.55,25.55,0,0,0,28,192.89c.19-1.68,4.39-10.64,6.82-14.56a37.42,37.42,0,0,1,3.08-4.39c.94-1.12,2.52-3.36,3.64-4.95,2.52-3.64,14.94-17.84,16.81-19.05a26.93,26.93,0,0,0,2.15-2.24c4.57-4.86,15.87-13.54,23.34-18.11,1.21-.75,3.36-2.06,4.76-3a154.52,154.52,0,0,1,18.4-9.34c2.14-.84,5-2,6.25-2.52,9.9-4,23.16-7.38,26.8-7,1.68.18,24.65-2.62,26.24-3.18a34.34,34.34,0,0,1,6.72-.65c3-.09,6.16-.28,7-.37,2.06-.29,23.16,2.42,23.44,3a3,3,0,0,0,1.68.56c2.9.28,8.5,2.62,11.21,4.77a44.14,44.14,0,0,1,9.43,11.2c3.73,6.44,4,9.43,2.52,24.46-1.59,15.32-3.74,25.12-8.69,40.43-4.29,13.26-25.77,26.89-34.36,38.38-25.95,34.83-59.76,52-104.95,63.31-8.77,2.14-12.6,1.3-20.91,1.12-3.46-.1-8.22,0-10.55.09A70.73,70.73,0,0,1,31,289.25Z" transform="translate(-4.54 -8)" fill="url(#linear-gradient)"/><path d="M208,289c0,5.79-43.7,10.55-97.57,10.55S12.85,294.83,12.85,289s43.7-10.55,97.58-10.55S208,283.07,208,289Z" transform="translate(-4.54 -8)" opacity="0.7" fill="url(#radial-gradient)" style="isolation:isolate"/><path d="M39.75,294.37c-1.5-.19-5-.47-7.66-.75-10-.93-12.23-1.68-16.06-4.95-5.14-4.39-8.4-10.18-10.37-18-1.12-4.48-1.12-4.58-1.12-18.49v-14l1.4-7.38a51.37,51.37,0,0,1,1.87-8,54.59,54.59,0,0,0,2.24-7.66c.94-3.92,2.34-9.05,3.18-11.57a34.12,34.12,0,0,0,1.4-6.07c0-1.68,3-11,4.95-15.32.65-1.4,1.77-3.55,2.52-4.76s2.15-3.64,3-5.32c2.05-3.92,12.6-19.61,14.28-21a27.23,27.23,0,0,0,1.87-2.43c3.92-5.32,14.1-15.4,20.91-20.82,1.12-.93,3.09-2.52,4.3-3.55a159.67,159.67,0,0,1,17.09-11.58c2-1.12,4.67-2.61,5.88-3.26,9.34-5.23,22-10.18,25.68-10.18,1.68,0,24.18-5.6,25.58-6.44a34,34,0,0,1,6.54-1.5c2.89-.46,6.07-1,6.91-1.21,2-.56,23.34-.47,23.62.09a3,3,0,0,0,1.77.38c2.9-.1,8.69,1.58,11.77,3.36a42.68,42.68,0,0,1,10.74,10c4.48,5.88,5.22,8.87,5.5,24,.38,15.41-.56,25.4-3.64,41.18-2.61,13.63-10,33.24-17,45.75-21.38,37.82-55.28,63.31-98.51,74.14a122.55,122.55,0,0,1-20.63,3.74c-3.36.37-8.13.93-10.55,1.4a99.12,99.12,0,0,1-17.46.28Z" transform="translate(-4.54 -8)" fill="url(#linear-gradient-2)"/><path d="M112.86,181.67c-.47,0-.66.28-.47.84a1.33,1.33,0,0,1-.37,1.3c-.47.38-.47.56-.1,1,.19.19.28.28.38.28s.28-.28.37-.84.37-1.4.56-1.77C113.51,181.85,113.42,181.67,112.86,181.67Z" transform="translate(-4.54 -8)" fill="maroon"/><path d="M124.71,184.84c0-.19-.46-.47-1-.47h-.47c-.37,0-.37.19-.19.38.75.74.56,1.49-.65,2.05s-1.87,2-.93,2c.28,0,.46-.28.46-.65a1.06,1.06,0,0,1,.75-.93A4.43,4.43,0,0,0,124.71,184.84Z" transform="translate(-4.54 -8)" fill="maroon"/><path d="M134.89,167.47a.31.31,0,0,0,.19-.09,7.58,7.58,0,0,0,.56-2.61c.09-1.22,0-1.87-.1-1.87s-.46.93-.65,2.61C134.8,166.82,134.8,167.47,134.89,167.47Z" transform="translate(-4.54 -8)" fill="maroon"/><path d="M133.58,166.07a.76.76,0,0,0-.65.84c0,.47-.28.84-.56.84-.65,0-1.31,1.59-.84,2l.09.1a.53.53,0,0,0,.38-.28,8.31,8.31,0,0,1,1.21-1.68,5.21,5.21,0,0,0,1-1.5C134.24,166.17,134,166.07,133.58,166.07Z" transform="translate(-4.54 -8)" fill="maroon"/><path d="M99.5,218.92a.68.68,0,0,0-.18-1,1.31,1.31,0,0,1-.38-1.3c.19-.66,0-.94-.46-.94h0c-.56,0-.66.19-.47.94a15.56,15.56,0,0,1,.47,1.68c.18.75.37,1,.56,1S99.32,219.2,99.5,218.92Z" transform="translate(-4.54 -8)" fill="maroon"/><path d="M131.72,175.88a.41.41,0,0,0-.38-.38c-.18,0-.37.38-.37.75a2,2,0,0,1-.47,1.21,1.44,1.44,0,0,0-.28,1.22c.1.19.1.28.19.28s.37-.38.65-1.12A8.87,8.87,0,0,0,131.72,175.88Z" transform="translate(-4.54 -8)" fill="maroon"/><path d="M75.6,235.64h0a.31.31,0,0,0-.19.09,7.58,7.58,0,0,0-.56,2.61c-.28,2.9.47,2.15.75-.84C75.79,236.29,75.79,235.64,75.6,235.64Z" transform="translate(-4.54 -8)" fill="maroon"/><path d="M77,237a.76.76,0,0,0,.65-.84c0-.47.28-.84.56-.84.66,0,1.31-1.59.84-2L79,233.3h-.09c-.1,0-.19.09-.19.28a8.31,8.31,0,0,1-1.21,1.68,5.21,5.21,0,0,0-1,1.5C76.35,236.94,76.63,237,77,237Z" transform="translate(-4.54 -8)" fill="maroon"/><path d="M83.54,223.31a14.6,14.6,0,0,1-.47-1.68c-.19-.75-.37-1-.56-1s-.28.1-.47.38a.67.67,0,0,0,.19,1,1.32,1.32,0,0,1,.37,1.31c-.18.65,0,.93.47.93C83.72,224.24,83.82,224.06,83.54,223.31Z" transform="translate(-4.54 -8)" fill="maroon"/><path d="M78.77,227.23a.41.41,0,0,0,.38.38c.18,0,.37-.38.37-.75a2,2,0,0,1,.47-1.22,1.42,1.42,0,0,0,.28-1.21c-.09-.19-.09-.28-.19-.28h0c-.09,0-.37.37-.65,1.12S78.77,227.05,78.77,227.23Z" transform="translate(-4.54 -8)" fill="maroon"/><path d="M127.42,178.87h-.19c-.37.09-.46.28-.28.93a14.6,14.6,0,0,1,.47,1.68c.19.75.38,1,.56,1s.28-.1.47-.38a.66.66,0,0,0-.19-1,1.34,1.34,0,0,1-.37-1.31C128.08,179.05,128,178.87,127.42,178.87Z" transform="translate(-4.54 -8)" fill="maroon"/><path d="M89.14,214.35c-.28,0-.47.28-.47.65a1.07,1.07,0,0,1-.74.93,4.13,4.13,0,0,0-2.15,2.43c0,.19.46.47,1,.47.75,0,.94-.1.66-.38-.75-.74-.56-1.49.65-2S90,214.35,89.14,214.35Z" transform="translate(-4.54 -8)" fill="maroon"/><path d="M127.7,175.78a3.21,3.21,0,0,0,.19.56c.09,0,.19-.28.47-.74a12.47,12.47,0,0,1,1.12-2c.46-.56.46-.94.18-.94s-.65.47-.84,1a1.82,1.82,0,0,1-.84,1.12C127.8,174.85,127.61,175.32,127.7,175.78Z" transform="translate(-4.54 -8)" fill="maroon"/><path d="M131.72,166.45c.18,0,.56-.47.84-1s.65-1,.93-1a1.14,1.14,0,0,0,.84-.65c.19-.37.09-.56,0-.56-.28,0-.84.37-1.68,1.21C131.34,165.7,131,166.45,131.72,166.45Z" transform="translate(-4.54 -8)" fill="maroon"/><path d="M110.71,127.14h-.47c-.37,0-.37.18-.19.37.75.75.56,1.49-.65,2s-1.87,2-.93,2c.28,0,.46-.28.46-.66a1.06,1.06,0,0,1,.75-.93,4.16,4.16,0,0,0,2.15-2.43A1.45,1.45,0,0,0,110.71,127.14Z" transform="translate(-4.54 -8)" fill="maroon"/><path d="M118.36,118.36c-.18,0-.37.37-.37.75a2,2,0,0,1-.47,1.21,1.42,1.42,0,0,0-.28,1.21c.1.19.1.28.19.28s.37-.37.65-1.12a8.7,8.7,0,0,0,.66-2C118.83,118.55,118.64,118.36,118.36,118.36Z" transform="translate(-4.54 -8)" fill="maroon"/><path d="M66.17,174.57a1.34,1.34,0,0,1-.37,1.31c-.47.37-.47.56-.1,1,.19.19.28.28.38.28s.28-.28.37-.84.37-1.4.56-1.77c.19-.56.09-.75-.37-.75S66.08,174,66.17,174.57Z" transform="translate(-4.54 -8)" fill="maroon"/><path d="M88.21,152a.76.76,0,0,0-.66.84c0,.47-.28.84-.56.84-.65,0-1.31,1.59-.84,2l.09.09a.5.5,0,0,0,.38-.28,8.31,8.31,0,0,1,1.21-1.68,5.21,5.21,0,0,0,1-1.5A.73.73,0,0,0,88.21,152Z" transform="translate(-4.54 -8)" fill="maroon"/><path d="M84.75,164.58c.09.19.09.28.19.28s.37-.37.65-1.12a9.22,9.22,0,0,0,.65-2,.4.4,0,0,0-.37-.38c-.19,0-.37.38-.37.75a2,2,0,0,1-.47,1.22A1.42,1.42,0,0,0,84.75,164.58Z" transform="translate(-4.54 -8)" fill="maroon"/><path d="M78.21,170.18h-.46c-.38,0-.38.19-.19.37.75.75.56,1.5-.65,2.06s-1.87,2-.94,2c.28,0,.47-.28.47-.65a1.08,1.08,0,0,1,.75-.94,4.12,4.12,0,0,0,2.14-2.43C79.33,170.46,78.87,170.27,78.21,170.18Z" transform="translate(-4.54 -8)" fill="maroon"/><path d="M81.58,165.61a15.38,15.38,0,0,1,.46,1.68c.19.74.38,1,.56,1s.28-.09.47-.37a.67.67,0,0,0-.19-1,1.33,1.33,0,0,1-.37-1.3c.19-.66,0-.94-.47-.94C81.39,164.77,81.3,165,81.58,165.61Z" transform="translate(-4.54 -8)" fill="maroon"/><path d="M106,204.26a.28.28,0,0,0,.18-.09,7.13,7.13,0,0,0,.56-2.62c.1-1.21,0-1.77-.09-1.77s-.47.93-.65,2.61C105.76,203.61,105.76,204.26,106,204.26Z" transform="translate(-4.54 -8)" fill="maroon"/><path d="M104.64,202.86a.76.76,0,0,0-.65.84c0,.47-.28.84-.57.84-.65,0-1.3,1.59-.84,2l.1.1a.51.51,0,0,0,.37-.28,8.47,8.47,0,0,1,1.22-1.68,5.09,5.09,0,0,0,1-1.5A.73.73,0,0,0,104.64,202.86Z" transform="translate(-4.54 -8)" fill="maroon"/><path d="M102.77,212.67a.41.41,0,0,0-.37-.38c-.19,0-.38.38-.38.75a2,2,0,0,1-.46,1.21,1.4,1.4,0,0,0-.28,1.22c.09.18.09.28.18.28s.38-.38.66-1.12A9.22,9.22,0,0,0,102.77,212.67Z" transform="translate(-4.54 -8)" fill="maroon"/><path d="M105.39,200.62c.18-.47.09-.65-.1-.56h0a6.53,6.53,0,0,0-1.68,1.21l-.56.56h0c-.09,0-.28.19-.47.38a.18.18,0,0,0,0,.28c-.28.47-.18.75.19.75.19,0,.56-.47.84-1s.66-1,.94-1A1.08,1.08,0,0,0,105.39,200.62Z" transform="translate(-4.54 -8)" fill="maroon"/><path d="M100.72,209.49h0c-.28,0-.66.47-.84,1a1.86,1.86,0,0,1-.84,1.12c-.28.09-.38.56-.28.93a2.85,2.85,0,0,0,.18.56c.1,0,.19-.28.47-.74a14,14,0,0,1,1.12-2C101,209.77,101,209.49,100.72,209.49Z" transform="translate(-4.54 -8)" fill="maroon"/><path d="M166.17,138.25c.19,0,.56-.47.84-1s.65-1,.93-1a1.13,1.13,0,0,0,.85-.65c.18-.47.09-.65-.1-.56a6.53,6.53,0,0,0-1.68,1.21C165.8,137.5,165.42,138.25,166.17,138.25Z" transform="translate(-4.54 -8)" fill="maroon"/><path d="M144.51,141.61c.19.19.28.28.37.28s.28-.28.38-.84a17.11,17.11,0,0,1,.56-1.77c.18-.56.09-.75-.38-.75s-.65.28-.46.84a1.32,1.32,0,0,1-.38,1.31C144.14,141,144.14,141.24,144.51,141.61Z" transform="translate(-4.54 -8)" fill="maroon"/><path d="M182.32,127c.38,0,.66-.37.66-.84s.28-.84.56-.84c.65,0,1.31-1.58.84-2l-.09-.09h-.1c-.09,0-.19.09-.19.28a8.31,8.31,0,0,1-1.21,1.68,5.22,5.22,0,0,0-1,1.49C181.67,126.86,182,127,182.32,127Z" transform="translate(-4.54 -8)" fill="maroon"/><path d="M192.6,170.09a18.19,18.19,0,0,1,.56-1.78c.18-.56.09-.74-.38-.74s-.65.28-.46.84a1.31,1.31,0,0,1-.38,1.3c-.47.38-.47.56-.09,1,.19.19.28.28.37.28C192.41,170.84,192.5,170.65,192.6,170.09Z" transform="translate(-4.54 -8)" fill="maroon"/><path d="M165.8,147.31c-.19,0-.38.37-.38.74a2,2,0,0,1-.46,1.22,1.39,1.39,0,0,0-.28,1.21c.09.19.09.28.18.28s.38-.37.66-1.12a9,9,0,0,0,.65-2A.4.4,0,0,0,165.8,147.31Z" transform="translate(-4.54 -8)" fill="maroon"/><path d="M168,137.87c-.38,0-.66.38-.66.85s-.28.84-.56.84c-.65,0-1.3,1.58-.84,2l.1.09a.49.49,0,0,0,.37-.28,8.31,8.31,0,0,1,1.21-1.68,4.87,4.87,0,0,0,1-1.5C168.69,138,168.41,137.87,168,137.87Z" transform="translate(-4.54 -8)" fill="maroon"/><path d="M162.44,146.56c-.28.09-.38.56-.28.93a2.85,2.85,0,0,0,.18.56c.1,0,.19-.28.47-.74a14,14,0,0,1,1.12-2c.47-.56.47-.93.19-.93s-.66.47-.84,1A1.89,1.89,0,0,1,162.44,146.56Z" transform="translate(-4.54 -8)" fill="maroon"/><path d="M161.41,151.51a15.56,15.56,0,0,1,.47,1.68c.18.74.37,1,.56,1s.28-.09.46-.37a.68.68,0,0,0-.18-1,1.31,1.31,0,0,1-.38-1.3c.19-.66,0-.94-.46-.94S161.22,150.85,161.41,151.51Z" transform="translate(-4.54 -8)" fill="maroon"/><path d="M180.92,125.55a.28.28,0,0,0-.18.09,7.13,7.13,0,0,0-.56,2.62c-.28,2.89.46,2.14.74-.84C181.11,126.2,181.11,125.64,180.92,125.55Z" transform="translate(-4.54 -8)" fill="maroon"/><path d="M169.35,139.28a.27.27,0,0,0,.18-.1,7.06,7.06,0,0,0,.56-2.61c.1-1.22,0-1.78-.09-1.78s-.47.94-.65,2.62C169.25,138.62,169.25,139.28,169.35,139.28Z" transform="translate(-4.54 -8)" fill="maroon"/><path d="M100.25,130.22c.19.18.28.28.37.28s.28-.28.38-.84a18.19,18.19,0,0,1,.56-1.78c.18-.56.09-.74-.38-.74s-.65.28-.46.84a1.31,1.31,0,0,1-.38,1.3C99.88,129.66,99.88,129.84,100.25,130.22Z" transform="translate(-4.54 -8)" fill="maroon"/><path d="M114.07,122.56a17,17,0,0,1,.47,1.68c.18.75.37,1,.56,1s.28-.09.46-.37a.68.68,0,0,0-.18-1,1.32,1.32,0,0,1-.38-1.31c.19-.65,0-.93-.46-.93S113.88,121.91,114.07,122.56Z" transform="translate(-4.54 -8)" fill="maroon"/><path d="M80,281c.56,0,.65-.18.47-.93A14.6,14.6,0,0,1,80,278.4c-.19-.75-.37-1-.56-1s-.28.1-.47.38a.66.66,0,0,0,.19,1,1.32,1.32,0,0,1,.37,1.31C79.33,280.83,79.52,281,80,281Z" transform="translate(-4.54 -8)" fill="maroon"/><path d="M85,273.17c1.12-.56,1.87-2,.93-2-.28,0-.46.28-.46.65a1.08,1.08,0,0,1-.75.94,4.15,4.15,0,0,0-2.15,2.42c0,.19.47.47,1,.47.75,0,.93-.09.65-.37C83.63,274.38,83.82,273.73,85,273.17Z" transform="translate(-4.54 -8)" fill="maroon"/><path d="M39.28,154.31a2,2,0,0,1-.47,1.21,1.44,1.44,0,0,0-.28,1.22c.09.18.09.28.19.28s.37-.38.65-1.12a8.72,8.72,0,0,0,.66-2,.41.41,0,0,0-.38-.37C39.47,153.56,39.28,153.93,39.28,154.31Z" transform="translate(-4.54 -8)" fill="maroon"/><path d="M34.61,280.27c.56,0,.65-.19.47-.94a13.56,13.56,0,0,1-.47-1.68c-.19-.74-.37-1-.56-1s-.28.09-.47.37a.68.68,0,0,0,.19,1,1.31,1.31,0,0,1,.37,1.3C34,280,34.05,280.27,34.61,280.27Z" transform="translate(-4.54 -8)" fill="maroon"/><path d="M82.32,161.68a3.21,3.21,0,0,0,.19.56c.09,0,.19-.28.47-.74a12.47,12.47,0,0,1,1.12-2c.46-.56.46-.94.18-.94s-.65.47-.84,1a1.82,1.82,0,0,1-.84,1.12C82.32,160.84,82.23,161.22,82.32,161.68Z" transform="translate(-4.54 -8)" fill="maroon"/><path d="M173,191.75c-.19-.19-.28-.28-.38-.28s-.28.28-.37.84-.37,1.4-.56,1.77c-.19.56-.09.75.37.75s.66-.28.47-.84a1.34,1.34,0,0,1,.37-1.31C173.36,192.4,173.36,192.22,173,191.75Z" transform="translate(-4.54 -8)" fill="maroon"/><path d="M158.14,198.29c.19-.56.37-1.4.56-1.78.19-.56.09-.74-.37-.74h-.19c-.37.09-.47.28-.28.84a1.33,1.33,0,0,1-.37,1.3c-.47.38-.47.56-.1,1,.19.19.28.28.38.28A1.48,1.48,0,0,0,158.14,198.29Z" transform="translate(-4.54 -8)" fill="maroon"/><path d="M129.38,232.55c-.46,0-.65.28-.46.84a1.32,1.32,0,0,1-.38,1.31c-.46.37-.46.56-.09,1,.19.19.28.28.37.28s.28-.28.38-.84a18.19,18.19,0,0,1,.56-1.78C129.94,232.74,129.85,232.55,129.38,232.55Z" transform="translate(-4.54 -8)" fill="maroon"/><path d="M52.26,207.34c.46,0,.65-.28.46-.84a1.31,1.31,0,0,1,.38-1.3c.46-.38.46-.56.09-1-.19-.19-.28-.28-.37-.28s-.28.28-.38.84a17.11,17.11,0,0,1-.56,1.77C51.6,207.16,51.7,207.34,52.26,207.34Z" transform="translate(-4.54 -8)" fill="maroon"/><path d="M82.79,227.33a2.65,2.65,0,0,0-.19-.57c-.09,0-.18.29-.46.75a13.32,13.32,0,0,1-1.12,2c-.47.56-.47.94-.19.94s.65-.47.84-1a1.86,1.86,0,0,1,.84-1.12C82.79,228.26,83,227.79,82.79,227.33Z" transform="translate(-4.54 -8)" fill="maroon"/><path d="M78.77,236.66c-.18,0-.56.47-.84,1s-.65,1-.93,1a1.14,1.14,0,0,0-.84.65c-.37,1,.37.75,1.77-.65S79.52,236.66,78.77,236.66Z" transform="translate(-4.54 -8)" fill="maroon"/><path d="M187.93,116.77c-.1,0-.19.28-.47.75a13.85,13.85,0,0,1-1.12,2c-.47.56-.47.93-.19.93s.66-.46.84-1a1.86,1.86,0,0,1,.84-1.12c.28-.1.38-.56.28-.94S188,116.77,187.93,116.77Z" transform="translate(-4.54 -8)" fill="maroon"/><path d="M181.48,129.28c-.37,1,.38.75,1.78-.65s1.59-2,.84-2h0c-.19,0-.56.46-.84,1s-.66,1-.94,1A1.14,1.14,0,0,0,181.48,129.28Z" transform="translate(-4.54 -8)" fill="maroon"/><path d="M155.25,159.07c-.19,0-.38.28-.38.65s.19.66.38.66.18-.1.28-.19a.34.34,0,0,0,.37.37c.28,0,.47-.28.47-.65a1.07,1.07,0,0,1,.74-.93c.1,0,.1-.1.19-.1l-.37.38c-.28.37-.38.65-.1.65a.92.92,0,0,0,.66-.65c.09-.28.18-.47.09-.56a4.2,4.2,0,0,0,1.59-2.06c0-.18-.47-.46-1-.46h-.47c-.37,0-.37.18-.18.37.74.75.56,1.49-.66,2a2.89,2.89,0,0,0-1.21,1.12h0C155.62,159.35,155.43,159.07,155.25,159.07Z" transform="translate(-4.54 -8)" fill="maroon"/><path d="M201.09,150.57a1.31,1.31,0,0,1,.38-1.3c.46-.38.46-.56.09-1-.19-.19-.28-.28-.37-.28s-.28.28-.38.84a17.11,17.11,0,0,1-.56,1.77c-.19.56-.09.75.38.75S201.28,151.13,201.09,150.57Z" transform="translate(-4.54 -8)" fill="maroon"/><path d="M122,110.33a.28.28,0,0,0,.18-.09,7.13,7.13,0,0,0,.56-2.62c.1-1.21,0-1.77-.09-1.77s-.47.93-.65,2.61C121.82,109.68,121.82,110.33,122,110.33Z" transform="translate(-4.54 -8)" fill="maroon"/><path d="M115.1,117.61c-.28.1-.38.56-.28.94a3.21,3.21,0,0,0,.18.56c.1,0,.19-.28.47-.75a13.85,13.85,0,0,1,1.12-2c.47-.56.47-.93.19-.93s-.66.46-.84,1S115.38,117.52,115.1,117.61Z" transform="translate(-4.54 -8)" fill="maroon"/><path d="M118.83,109.3c.19,0,.56-.46.84-1s.66-1,.94-1a1.14,1.14,0,0,0,.84-.65c.18-.47.09-.66-.1-.57a6.68,6.68,0,0,0-1.68,1.22C118.36,108.56,118.08,109.3,118.83,109.3Z" transform="translate(-4.54 -8)" fill="maroon"/><path d="M157.58,97.35c.47,0,.65-.28.47-.84a1.32,1.32,0,0,1,.37-1.31c.47-.37.47-.56.09-1-.18-.19-.28-.28-.37-.28s-.28.28-.37.84-.38,1.4-.56,1.77C156.93,97.16,157,97.35,157.58,97.35Z" transform="translate(-4.54 -8)" fill="maroon"/><path d="M93.62,224a4.15,4.15,0,0,0,2.15-2.42c0-.19-.47-.47-1-.47h-.47c-.37,0-.37.19-.18.37.74.75.56,1.5-.66,2.06s-1.86,2-.93,2c.28,0,.47-.28.47-.66S93.15,224.15,93.62,224Z" transform="translate(-4.54 -8)" fill="maroon"/><path d="M76.07,284.38c.18,0,.37-.38.37-.75a2,2,0,0,1,.47-1.22,1.42,1.42,0,0,0,.28-1.21c-.1-.19-.1-.28-.19-.28s-.37.37-.65,1.12a8.87,8.87,0,0,0-.66,2A.41.41,0,0,0,76.07,284.38Z" transform="translate(-4.54 -8)" fill="maroon"/><path d="M95.39,261.41a1.32,1.32,0,0,1,.38-1.31c.47-.37.47-.56.09-1-.18-.19-.28-.28-.37-.28s-.28.28-.38.84a18.19,18.19,0,0,1-.56,1.78c-.18.56-.09.74.38.74S95.58,262,95.39,261.41Z" transform="translate(-4.54 -8)" fill="maroon"/><path d="M38.34,274.76c.75,0,.94-.1.66-.38-.75-.74-.56-1.49.65-2.05s1.87-2,.94-2c-.28,0-.47.28-.47.65a1.08,1.08,0,0,1-.75.94,4.15,4.15,0,0,0-2.15,2.42A1.85,1.85,0,0,0,38.34,274.76Z" transform="translate(-4.54 -8)" fill="maroon"/><path d="M49.64,263.37a1.32,1.32,0,0,1,.38-1.31c.46-.37.46-.56.09-1-.19-.18-.28-.28-.37-.28s-.28.28-.38.84a18.19,18.19,0,0,1-.56,1.78c-.18.56-.09.74.38.74S49.74,263.93,49.64,263.37Z" transform="translate(-4.54 -8)" fill="maroon"/><path d="M144,237.88a1.34,1.34,0,0,1,.37-1.31c.47-.37.47-.56.1-1-.19-.18-.28-.28-.38-.28s-.28.28-.37.84-.38,1.4-.56,1.78c-.19.56-.1.74.37.74S144.14,238.44,144,237.88Z" transform="translate(-4.54 -8)" fill="maroon"/><path d="M131.81,269.16h0c-.28,0-.47.28-.47.65a1.07,1.07,0,0,1-.74.93,4.16,4.16,0,0,0-2.15,2.43v.09c.37-.18.84-.46,1.21-.65-.09-.47.28-.93,1.12-1.31C132,270.65,132.65,269.16,131.81,269.16Z" transform="translate(-4.54 -8)" fill="maroon"/><path d="M79.43,285.12c.28-.09.37-.56.28-.93a2.67,2.67,0,0,0-.19-.56c-.09,0-.19.28-.47.75a12.94,12.94,0,0,1-1.12,2c-.46.56-.46.93-.18.93s.65-.47.84-1A1.86,1.86,0,0,1,79.43,285.12Z" transform="translate(-4.54 -8)" fill="maroon"/><path d="M29.75,166.82c.28,0,.47-.28.47-.65a1.08,1.08,0,0,1,.75-.94,4.15,4.15,0,0,0,2.15-2.42c0-.19-.47-.47-1-.47h-.47c-.37,0-.37.18-.18.37.74.75.56,1.5-.66,2.06S28.91,166.82,29.75,166.82Z" transform="translate(-4.54 -8)" fill="maroon"/><path d="M35.82,159.54c.19.74.38,1,.56,1s.28-.09.47-.37a.67.67,0,0,0-.19-1,1.33,1.33,0,0,1-.37-1.3c.19-.66,0-.94-.47-.94s-.65.19-.46.94C35.45,158.32,35.73,159.07,35.82,159.54Z" transform="translate(-4.54 -8)" fill="maroon"/><path d="M30.41,289.42l-.1-.1h-.09c-.09,0-.19.1-.19.28a8.31,8.31,0,0,1-1.21,1.68,5.21,5.21,0,0,0-1,1.5c0,.19.28.28.66.28s.65-.37.65-.84.28-.84.56-.84C30.22,291.38,30.87,289.88,30.41,289.42Z" transform="translate(-4.54 -8)" fill="maroon"/><path d="M34,284.28c.28-.09.37-.56.28-.93a3.21,3.21,0,0,0-.19-.56c-.09,0-.19.28-.47.75a12.94,12.94,0,0,1-1.12,2c-.46.56-.46.93-.18.93s.65-.47.84-1A2.23,2.23,0,0,1,34,284.28Z" transform="translate(-4.54 -8)" fill="maroon"/><path d="M194.46,104.35c-.28,0-.46.28-.46.66a1.08,1.08,0,0,1-.75.93,4.16,4.16,0,0,0-2.15,2.43c0,.19.47.47,1,.47.75,0,.93-.1.65-.38-.74-.74-.56-1.49.66-2S195.3,104.35,194.46,104.35Z" transform="translate(-4.54 -8)" fill="maroon"/><path d="M187.46,111a.67.67,0,0,0,.19,1,1.34,1.34,0,0,1,.37,1.31c-.19.65,0,.93.47.93s.65-.19.46-.93a16.71,16.71,0,0,1-.46-1.68c-.19-.75-.38-1-.56-1S187.55,110.7,187.46,111Z" transform="translate(-4.54 -8)" fill="maroon"/><path d="M184.19,117.15a.41.41,0,0,0,.38.37c.18,0,.37-.37.37-.75a2,2,0,0,1,.47-1.21,1.44,1.44,0,0,0,.28-1.22c-.1-.18-.1-.28-.19-.28s-.37.38-.65,1.13A10.5,10.5,0,0,0,184.19,117.15Z" transform="translate(-4.54 -8)" fill="maroon"/><path d="M30.69,283.54c.18,0,.37-.38.37-.75a2,2,0,0,1,.47-1.22,1.42,1.42,0,0,0,.28-1.21c-.09-.19-.09-.28-.19-.28s-.37.37-.65,1.12a8.7,8.7,0,0,0-.66,2C30.22,283.44,30.41,283.54,30.69,283.54Z" transform="translate(-4.54 -8)" fill="maroon"/><path d="M34.61,222.19a17,17,0,0,1-.47-1.68c-.18-.75-.37-1-.56-1s-.28.1-.46.38a.67.67,0,0,0,.18,1,1.32,1.32,0,0,1,.38,1.31c-.19.65,0,.93.46.93S34.8,222.84,34.61,222.19Z" transform="translate(-4.54 -8)" fill="maroon"/><path d="M29.85,226a.4.4,0,0,0,.37.37c.19,0,.37-.37.37-.75a2,2,0,0,1,.47-1.21,1.39,1.39,0,0,0,.28-1.21c-.09-.19-.09-.28-.18-.28s-.38.37-.66,1.12A9,9,0,0,0,29.85,226Z" transform="translate(-4.54 -8)" fill="maroon"/><path d="M86.34,152.35c.18,0,.56-.47.84-1s.65-1,.93-1a1.12,1.12,0,0,0,.84-.65c.19-.47.1-.65-.09-.56a6.53,6.53,0,0,0-1.68,1.21C85.87,151.6,85.59,152.35,86.34,152.35Z" transform="translate(-4.54 -8)" fill="maroon"/><path d="M120.7,108.84c-.37,0-.65.37-.65.84s-.28.84-.57.84c-.65,0-1.3,1.58-.84,2l.1.09a.49.49,0,0,0,.37-.28,8.47,8.47,0,0,1,1.22-1.68,5.1,5.1,0,0,0,1-1.49A1,1,0,0,0,120.7,108.84Z" transform="translate(-4.54 -8)" fill="maroon"/><path d="M89.51,153.37a.29.29,0,0,0,.19-.09,7.11,7.11,0,0,0,.56-2.61c.09-1.22,0-1.78-.09-1.78s-.47.94-.66,2.62C89.33,152.72,89.33,153.37,89.51,153.37Z" transform="translate(-4.54 -8)" fill="maroon"/><path d="M36.85,217.15c0,.18.47.46,1,.46.74,0,.93-.09.65-.37-.75-.75-.56-1.49.66-2.05s1.86-2,.93-2c-.28,0-.47.28-.47.65a1.06,1.06,0,0,1-.75.93A4.55,4.55,0,0,0,36.85,217.15Z" transform="translate(-4.54 -8)" fill="maroon"/><path d="M29.85,235.45c-.19,0-.56.47-.84,1s-.66,1-.94,1a1.13,1.13,0,0,0-.84.66c-.37,1,.38.74,1.78-.66S30.59,235.45,29.85,235.45Z" transform="translate(-4.54 -8)" fill="maroon"/><path d="M28,235.82c.37,0,.65-.37.65-.84s.28-.84.56-.84c.66,0,1.31-1.59.84-2l-.09-.09h-.09c-.1,0-.19.09-.19.28a8.6,8.6,0,0,1-1.21,1.68,5.22,5.22,0,0,0-1,1.49C27.42,235.73,27.7,235.82,28,235.82Z" transform="translate(-4.54 -8)" fill="maroon"/><path d="M33.86,226.2a3.21,3.21,0,0,0-.18-.56h0c-.1,0-.19.28-.47.75a13.32,13.32,0,0,1-1.12,2c-.47.56-.47.94-.19.94s.66-.47.84-1a1.86,1.86,0,0,1,.84-1.12C33.86,227.05,34,226.58,33.86,226.2Z" transform="translate(-4.54 -8)" fill="maroon"/><path d="M26.67,236.29c.1-1.22.1-1.87,0-1.87a.28.28,0,0,0-.18.09,7.19,7.19,0,0,0-.56,2.62C25.65,239.93,26.39,239.28,26.67,236.29Z" transform="translate(-4.54 -8)" fill="maroon"/><path d="M164.4,89.6c0,.19.09.28.18.19a.35.35,0,0,0,.1-.19Z" transform="translate(-4.54 -8)" fill="maroon"/><path d="M188.67,92.4c0,.28.1.38.19.28a.31.31,0,0,0,.09-.18Z" transform="translate(-4.54 -8)" fill="maroon"/><path d="M102.4,103.14l-.38.19h.19A.21.21,0,0,0,102.4,103.14Z" transform="translate(-4.54 -8)" fill="maroon"/><path d="M95.77,106.13l-.56.28c.09,0,.09,0,.18-.09Z" transform="translate(-4.54 -8)" fill="maroon"/><path d="M84.19,112.29l-.56.28-.19.09h.19c.19,0,.37-.18.56-.37Z" transform="translate(-4.54 -8)" fill="maroon"/><path d="M78.4,115.84,78,116h0C78.12,116,78.21,115.93,78.4,115.84Z" transform="translate(-4.54 -8)" fill="maroon"/><path d="M207.35,117.8v.09c0,.1,0,.1.09.19a.76.76,0,0,1-.09-.28Z" transform="translate(-4.54 -8)" fill="maroon"/><path d="M66.26,124.34l-.18.09h0a.09.09,0,0,0,.09.09c.09.1.09,0,.09-.18Z" transform="translate(-4.54 -8)" fill="maroon"/><path d="M207.81,130.4l-.09.1c0,.09,0,.09.09.09Z" transform="translate(-4.54 -8)" fill="maroon"/><path d="M31.81,161.4c-.09.1-.19.28-.28.38C31.72,161.78,31.81,161.59,31.81,161.4Z" transform="translate(-4.54 -8)" fill="maroon"/><path d="M14.53,198.38c0,.19-.09.47-.09.75h.09v-.75Z" transform="translate(-4.54 -8)" fill="maroon"/><path d="M174.76,233c-.09,0-.09.09-.09.47.09-.1.18-.19.18-.28S174.76,233.11,174.76,233Z" transform="translate(-4.54 -8)" fill="maroon"/><path d="M171.87,236.76c-.1,0-.19.09-.19.28v.09a1.31,1.31,0,0,0,.28-.37Z" transform="translate(-4.54 -8)" fill="maroon"/><path d="M4.54,238.44v.28C4.64,238.62,4.64,238.44,4.54,238.44Z" transform="translate(-4.54 -8)" fill="maroon"/><path d="M162.16,247.77a.3.3,0,0,0-.28.28Z" transform="translate(-4.54 -8)" fill="maroon"/><path d="M4.54,254.78v0Z" transform="translate(-4.54 -8)" fill="maroon"/><path d="M139.37,266.54c-.37.09-.65.28-.65.37h0l.65-.37Z" transform="translate(-4.54 -8)" fill="maroon"/><path d="M121.63,276.81c-.09,0-.18.1-.28.1C121.54,276.81,121.54,276.81,121.63,276.81Z" transform="translate(-4.54 -8)" fill="maroon"/><path d="M110.52,281.76a.66.66,0,0,0-.37.19l.37-.19Z" transform="translate(-4.54 -8)" fill="maroon"/><path d="M106,283.35a.69.69,0,0,0-.38.19c.19-.1.38-.1.56-.19H106Z" transform="translate(-4.54 -8)" fill="maroon"/><path d="M69.9,292.22c-.09,0-.18.09-.28.19.19,0,.38,0,.47-.1s-.09-.09-.19-.09Z" transform="translate(-4.54 -8)" fill="maroon"/><path d="M137.13,96.32a101.76,101.76,0,0,0-12.32,4.49C100,112.1,76.44,128,58,148.05c-18.86,20.36-32.86,45-44,70.5l1.69,1.31c10.92-25.5,24.93-50.24,43.69-70.41,18.4-19.79,41.65-35.57,66.2-46.78a91,91,0,0,1,11.86-4.29l-.37-.19a18.68,18.68,0,0,1,.09-1.87Z" transform="translate(-4.54 -8)" fill="#1a1a1a" opacity="0.7" style="isolation:isolate"/><path d="M144.88,91.66a18.81,18.81,0,0,0-4,1c-1.12.56-15,4.11-22,5.7,8.69,7.28,24.19,20.35,32.87,28.66,13.63,13,38.84,40.43,39.31,41,.09-.18.09-.28.19-.46,2.89-6.35,5.51-15.5,7.75-24.75-3.92-4.48-19.89-22.59-29.88-31.65-6.16-5.79-17.37-14.29-24.28-19.51ZM15.1,195.11a11.6,11.6,0,0,0-.47,2.34,32.47,32.47,0,0,1-1.4,6.07c-.75,2.42-2.24,7.65-3.18,11.57-.74,3-1.49,5.61-1.86,6.91,4.76,5.7,17.92,21.29,26,29.88,9.62,10.37,30,30,30,30l.09-.09,20.17-8.68c1.21-.56,2.42-1.22,3.73-1.78-.37-.37-25.3-24-37.25-36.51C39.47,222.94,20.14,200.9,15.1,195.11Z" transform="translate(-4.54 -8)" fill="url(#linear-gradient-3)"/><path d="M205.39,110.61s-1.5,9.8-4,21.85-6.07,26.33-10,35.11c-11.2,24.55-27,47.9-46.78,66.2-22.59,21-50.79,36-79.55,47.52C51.23,286.9,20.6,291.38,20.6,291.38v.09a18.64,18.64,0,0,0,4.77,1.22c8.87-1.5,29.31-5.05,40.43-9.53,28.85-11.58,57.33-26.8,80.2-48,20.08-18.58,35.86-42.11,47.25-66.86,4.11-9.05,7.66-23.43,10.18-35.48,1.68-8.21,2.89-15.12,3.54-18.86a21.89,21.89,0,0,0-.74-3.17l-.84-.19Z" transform="translate(-4.54 -8)" fill="#1a1a1a" opacity="0.7" style="isolation:isolate"/><path d="M102.58,105.47l-4.76,2.25,2,3.17c-2,1.31-3.45,2.33-5.13,3.55-.66.47-1.31.84-2,1.31l-2-2.71-4.58,2.71,2.24,3a8.42,8.42,0,0,0-.93.75c-2,1.49-3.92,3.08-5.79,4.58l-1.87-2.71L75.23,124l2.33,3.27c-2.43,1.68-4.85,3.17-7.1,5l-2-2.61L64,132.37,66.73,136c-2.15,2.42-4.11,5.13-6.07,7.75l-3.55-3.27L53.19,144l4.3,3.83c-1.68,2-3.27,4.2-4.86,6.34l-4.11-3.82-3.92,3.54,4.86,4.39c-.38.56-.84,1.12-1.22,1.68-1.31,1.68-2.52,3.37-3.83,5.05l-4.2-3.93-4,3.37L41,168.78a68,68,0,0,0-5,5.42,37.49,37.49,0,0,0-2.71,4.48l-3-2.8-3.92,3.55,12.51,11.29,2.34-4.67-3.55-3.26c.56-.66,1.21-1.4,1.59-1.87,2.05-2.71,3.54-5.88,5.41-8.78l4.11,3.74L51,171.21,47.68,168c1.78-2.14,3.64-4.2,5.51-6.35L57,165.14l2.33-4.67-2.89-2.71c1.68-2.14,3.27-4.29,4.85-6.44l4.3,3.92,2.33-4.67-3.45-3.26.19-.19c1.86-2.15,3.64-4.3,5.6-6.26L74,145.81l3.18-4.2L74,137.22l.1-.09c2.14-1.87,5-2.9,7-4.86l3.83,5.32,3.27-4.1L84.1,127.7c.18-.19.28-.38.46-.56A33.55,33.55,0,0,1,91,122.28l5.13,7,3.27-4.1-4-5.61c.1-.09.19-.09.29-.18,2-1.31,4.76-3.18,6.53-4.39l4.3,7.09,3.54-3.82-7.47-12.8Z" transform="translate(-4.54 -8)"/><path d="M122.1,109.12h-.19s-4.29.74-9.52,2-11.3,3.17-15,5.51c-24.37,15.5-42.21,40-57.71,64.15-4.39,6.81-9.52,21.94-9.52,21.94L29.75,204l1.22-.37s3-1,6.53-2.71,7.66-3.73,10-5.88c5.5-5.14,7.74-12.89,11.48-19,2-3.17,3.55-6.63,5.88-9.33,3-3.36,7.38-5.61,10.83-8.87,5.23-5.05,8.78-11.68,14.38-15.88,6.91-5.23,16.16-7,23.81-11.86,3.74-2.33,8.5-4.38,10.65-8.68.84-1.68.93-4.2.93-6.35a21.38,21.38,0,0,0-.37-3.92v-.28l-.28-.09-2.52-1.5-.19-.18Zm-.19,1.3,2.06,1.22a25.83,25.83,0,0,1,.28,3.55,13.7,13.7,0,0,1-.75,5.78c-1.87,3.74-6.35,5.79-10.18,8.22C106,134,96.7,135.63,89.51,141.14c-5.79,4.39-9.33,11.11-14.47,16-3.36,3.17-7.75,5.32-10.92,9-2.53,2.9-4.11,6.45-6.07,9.53C54.12,182,52,189.42,46.75,194.36c-2.15,2-6.16,4.11-9.71,5.7-2.34,1-4.11,1.77-5.23,2.15.65-2,5-14.47,8.87-20.45C56.18,157.58,74,133.3,98.1,117.89c3.46-2.14,9.53-4.11,14.66-5.32a79.91,79.91,0,0,1,9.15-2.15Z" transform="translate(-4.54 -8)" opacity="0.7" style="isolation:isolate"/><path d="M101.74,104.26,97,106.5l2,3.18c-2,1.3-3.45,2.33-5.13,3.54-.66.47-1.31.84-2,1.31l-2-2.71-4.58,2.71,2.24,3a8.42,8.42,0,0,0-.93.75c-2,1.49-3.92,3.08-5.79,4.57L79,120.13l-4.57,2.62L76.72,126c-2.43,1.68-4.85,3.17-7.1,5l-2-2.62-4.48,2.71,2.71,3.64c-2.15,2.43-4.11,5.14-6.07,7.75l-3.55-3.26-3.92,3.54,4.3,3.83c-1.69,2.06-3.27,4.2-4.86,6.35l-4.11-3.83-3.92,3.55,4.86,4.39c-.38.56-.84,1.12-1.22,1.68-1.31,1.68-2.52,3.36-3.83,5l-4.2-3.92-3.92,3.55,4.76,4.29a69.82,69.82,0,0,0-5,5.42,37.49,37.49,0,0,0-2.71,4.48l-3-2.8-3.92,3.55,12.51,11.39,2.34-4.67-3.55-3.27c.56-.65,1.21-1.4,1.59-1.86,2.05-2.71,3.55-5.89,5.41-8.78L48,174.94l2.34-4.67-3.37-3.17c1.78-2.15,3.65-4.2,5.51-6.35l3.83,3.46,2.34-4.67-2.9-2.71c1.68-2.15,3.27-4.3,4.86-6.44l4.29,3.92,2.34-4.67-3.46-3.27.19-.19c1.87-2.14,3.64-4.29,5.6-6.25l3.74,4.95,3.17-4.2-3.17-4.39.09-.1c2.15-1.86,5-2.89,7-4.85l3.83,5.32,3.27-4.11-4.11-5.79c.19-.18.28-.37.47-.56a33,33,0,0,1,6.44-4.85l5.13,7,3.27-4.11-4-5.6c.09-.09.18-.09.28-.19,2-1.3,4.76-3.17,6.53-4.39l4.3,7.1,3.55-3.83-7.57-13.07Z" transform="translate(-4.54 -8)" fill="#ececec"/><path d="M126.93,244.55a28,28,0,0,0-6.59.79c-16.33,2.37-32.92,7.9-45.56,18.17-9.22,7.38-16.07,17.91-20,29.24-4.22,12.38-3.95,26.08-2.37,39,1,9.75,4.21,19,7.9,27.92,4.48,10.8,8.17,23.18,17.38,30.56a53.7,53.7,0,0,0,37.67,11.06c7.64-.79,16.07-4.74,20.28-11.33,5.27-7.9,4.22-19,2.37-28.44a24.83,24.83,0,0,0-7.11-13.17c-1.84-1.85-8.95-2.11-6.58-3.16,8.69-3.69,15.8,6.58,22.91,11.32s15.54,9.48,23.71,9a28.28,28.28,0,0,0,20-10.8c6.84-9,6.05-19.23,3.16-30-1.32-5.27-7.38-9.22-6.32-14.75,1.05-5.27,10.27-4.21,15-6.59,8.43-4.47,24.23-15,24.23-15l-40,.79s-7.12-19.23-14.23-26.6-16.59-12.38-26.34-15.54a60.56,60.56,0,0,0-19.49-2.37Zm40.3,75.86a20.19,20.19,0,0,1,3.42,4.47,10.9,10.9,0,0,1,.79,4.22,9.86,9.86,0,0,1-1.31,4.74,8.08,8.08,0,0,1-3.43,2.37,10.39,10.39,0,0,1-6.85-.79,6.81,6.81,0,0,1-2.63-3.42c-1.05-2.38-.53-7.91-.53-7.91ZM92.42,359.92a11,11,0,0,1,4,1.05,8.59,8.59,0,0,1,5.79,9.48,14.2,14.2,0,0,1-2.63,5.27A8.47,8.47,0,0,1,94,378.35,10.09,10.09,0,0,1,87.16,377a9.26,9.26,0,0,1-3.43-7.12,9.86,9.86,0,0,1,2.11-6.58c1.32-1.58,3.16-3.16,5.27-3.42Z" transform="translate(-4.54 -8)" fill="url(#radial-gradient-2)"/><path d="M187,307.5l-4.75,4.74-76.38,27.13s7.64,2.9,13.43,5c2.64,1.05,7.64-2.64,11.06-.8,2.37,1.32,6.06,2.9,8.17,4.75a107.15,107.15,0,0,0,16.33,11.32c5.27,2.9,8.69,4.74,14,4.48,4.48-.26,9.22-1.05,13.17-3.42,5-3.16,9.48-7.91,11.33-13.44,2.1-6.32.52-13.43-.79-20-.79-3.42-4.48-7.9-6.06-11.59-1.32-4,.53-8.16.53-8.16Zm-20,12.64a27.21,27.21,0,0,1,3.68,4.48,10.85,10.85,0,0,1,.79,4.21,9.9,9.9,0,0,1-1.31,4.75A8.08,8.08,0,0,1,166.7,336a10.42,10.42,0,0,1-6.84-.79,6.76,6.76,0,0,1-2.64-3.43c-1.05-2.37-.53-7.9-.53-7.9Z" transform="translate(-4.54 -8)" fill="url(#linear-gradient-4)"/><path d="M105.86,338.58s25.55-21.34,39.77-29.76c12.91-7.91,41.09-19.5,41.09-19.5s-29.5,9.49-42.67,17.39c-14.22,8.43-38.19,31.87-38.19,31.87Z" transform="translate(-4.54 -8)" opacity="0.5" fill="url(#linear-gradient-5)" style="isolation:isolate"/><path d="M105.59,339.11s25.82-22.13,40.3-30.82c12.91-7.9,41.09-19,41.09-19l40-1.05s-31.34,20-48.46,27.39c-23.18,10.28-73,23.45-73,23.45Z" transform="translate(-4.54 -8)" fill="url(#linear-gradient-6)"/><path d="M224.65,289.06l-37.4.79h0c-.53.26-28.19,11.06-40.83,18.7-13.17,7.9-33.71,25.55-37.66,28.71,5.26-1.31,47.93-12.9,70.06-22.65,15.8-6.32,42.41-23.18,45.83-25.55Z" transform="translate(-4.54 -8)" fill="url(#linear-gradient-7)"/><path d="M126.93,244.55a28,28,0,0,0-6.59.79c-16.33,2.37-32.92,7.9-45.56,18.17-9.22,7.38-16.07,17.91-20,29.24-4.22,12.38-3.95,26.08-2.37,39,1,9.75,4.21,19,7.9,27.92,1.84,4.48,3.69,9.22,5.79,14l124.59-84.55H187s-7.12-19.23-14.23-26.6-16.59-12.38-26.34-15.54a60.56,60.56,0,0,0-19.49-2.37Z" transform="translate(-4.54 -8)" opacity="0.8" fill="url(#radial-gradient-3)" style="isolation:isolate"/><path d="M27.8,409.6l456.7-45.5,5.1,31.1Z" transform="translate(-4.54 -8)" opacity="0.5" fill="url(#linear-gradient-8)" style="isolation:isolate"/><path d="M21.8,410.3c-1.9-6.7-1.6-14.8.6-17.8,2.5-3.3,7-3,9.3.7,1.6,2.5,2,2.6,6.2,2.2,7-.7,30.2-3.5,46.9-5.6,8.3-1.1,27.1-3.3,41.8-5.1s28.5-3.4,30.7-3.7,10.5-1.2,18.6-2c18.3-1.9,61.5-9.1,85.3-14.3l34.1-7.4c37.7-8.1,69.6-13.1,140-22,40.4-5.1,42.5-5.2,44.6-2.7.9,1.1,2.5,8.1,3.6,15.6,2.9,19.9,4,18.9-22,22.4-69.8,9.4-123.6,14-181.8,15.8-52,1.5-86.1,4.3-138.5,11.2-21,2.8-73.1,9.2-87.9,10.9l-17.2,1.9-2,3.6c-3.7,7.2-9.7,5.4-12.3-3.7Z" transform="translate(-4.54 -8)" fill="url(#linear-gradient-9)"/><path d="M293.2,357.9c-3.9.8-8.8,1.9-13.7,2.9l2.6,25.5c4.5-.1,9-.3,13.5-.5l-2.4-27.9Z" transform="translate(-4.54 -8)" fill="url(#linear-gradient-10)"/><path d="M184.6,377.9,176,379c-8,.8-16.4,1.7-18.6,2s-16,2-30.7,3.7-33.5,4-41.8,5.1c-16.7,2.1-39.9,4.9-46.9,5.6-3.2.3-4.2.3-5.3-.8l2,18.7,1.6-2.8,17.2-1.9c14.8-1.7,66.9-8.1,87.9-10.9,16.3-2.2,30.9-3.9,44.8-5.4l-1.6-14.4Z" transform="translate(-4.54 -8)" fill="url(#linear-gradient-11)"/><path d="M280.1,360.7l-18.9,4.1c-21.8,4.7-59.6,11.1-80,13.6l2.2,14.2c31.7-3.4,59.6-5.1,96.4-6.2,1.3,0,2.5-.1,3.8-.1l-3.5-25.6Z" transform="translate(-4.54 -8)" fill="url(#linear-gradient-12)"/><path d="M439.8,334.8l-4.4.6h-.1a25.92,25.92,0,0,1-1.3,2.5c-.7,1-1,1.6-1.4,2.1a9.68,9.68,0,0,0-.7.9,4.41,4.41,0,0,1-1.1,1.2c-.3.1-.5,0-.5-.2a4.59,4.59,0,0,1,.1-1c.6-1.8,1-3.3,1.6-4.9l-4.4.6c-.6,1.2-1,2.1-1.3,2.6-.6.9-.9,1.3-1.2,1.8-.1.1-.1.2-.2.3-.3.4-.7.9-1.1,1.4s-.8.8-1,.8-.2-.2-.3-.5a2.51,2.51,0,0,1,.3-1.6c.6-1.8,1.1-3.1,1.4-4a.76.76,0,0,0,.1-.4l-9,1.2a11.82,11.82,0,0,0-1.1,1.8,16.4,16.4,0,0,1-1.6,2.3,7.05,7.05,0,0,0-.7.9.91.91,0,0,0-.3.5,4.35,4.35,0,0,0-.6.7c-.1.1-.1.1-.2.1s-.3.1-.4,0a15.87,15.87,0,0,0,.9-2,11.06,11.06,0,0,0,.4-1.3,7.26,7.26,0,0,0,.1-2.6l-3.3.4a11.64,11.64,0,0,0-.6,1.5,7.86,7.86,0,0,0-.4,3.3,2.64,2.64,0,0,0,.7,1.6.31.31,0,0,1-.1.2c-.1.1-.1.1-.1.2-.4.9-.9,1.4-1.6,1.5s-1-.2-1.1-.9a13,13,0,0,1,.8-3.1c.5-1.3.9-2.7,1.4-4.1-1.5.2-2.8.4-4.2.6a22.2,22.2,0,0,1-3,4.9,1.38,1.38,0,0,1-.3.4,12.45,12.45,0,0,0-1,1.3,7.52,7.52,0,0,1-1.5,1.6,3,3,0,0,1-1.6.8q-1,.15-1.2-1.2a9.94,9.94,0,0,0,4.2-3.7A4.59,4.59,0,0,0,400,341a.91.91,0,0,0-.3-.7c-1.8.2-3.6.5-5.4.7l-.3.3a20.89,20.89,0,0,0-2.4,3.1,10.2,10.2,0,0,1-1.1,1.6l-.3.3a2,2,0,0,1-.8.8,3.49,3.49,0,0,0-.5-1.3l-.7-1.3a4.45,4.45,0,0,1-.5-1.3.73.73,0,0,1,.2-.6,1,1,0,0,1,1-.2h.2a1,1,0,0,0,.8-.5c.1-.1.2-.2.2-.3-1.9.3-3.6.5-5.4.8a5.55,5.55,0,0,0-.6.8c-1.5,2.3-2.6,3.9-3.2,4.9a.37.37,0,0,0-.1.3,5.5,5.5,0,0,1-.7.9c-.5.6-.9.8-1,.8s-.2-.2-.2-.5a3.19,3.19,0,0,1,.2-1.6c.6-1.8,1.1-3.1,1.4-4,.1-.4.2-.7.3-1-2.9.4-6,.9-8.8,1.3l-.4.4a20.62,20.62,0,0,0-1.1,1.8,14,14,0,0,1-1.6,2.2c-.2.3-.5.6-.7.9a1.55,1.55,0,0,0-.3.6c.1.4.1.7.3.7s.3.1.7,0a4.27,4.27,0,0,0-.2,1.9,2,2,0,0,0,.8,1.4,2.13,2.13,0,0,0,1.6.3,3.81,3.81,0,0,0,1.7-.8,12.4,12.4,0,0,0,2-2c0,.3-.1.6,0,.8a1.44,1.44,0,0,0,.6,1,2.54,2.54,0,0,0,1.2.2,3.4,3.4,0,0,0,1.5-.7,14.55,14.55,0,0,0,1.6-1.7,15.06,15.06,0,0,0,1.6-2,3.51,3.51,0,0,0,.5-.8c.1-.1.6-1,1.7-2.7a13.82,13.82,0,0,1,1.9-2.5,8,8,0,0,0,.1,2.1,6.26,6.26,0,0,1,.2,2.2c-.9,0-1.4.1-1.8.1a4.71,4.71,0,0,0-1.5.6,1.71,1.71,0,0,0-.7,1.8,4.24,4.24,0,0,0,.6,1.4c.6.7,1.6,1,3.2.8a3.72,3.72,0,0,0,1.9-.9,5,5,0,0,0,1.7-3,4.19,4.19,0,0,0,1.4-.9c.1-.1.3-.2.4-.3a.6.6,0,0,0-.1.4v.8a2.66,2.66,0,0,0,.5,1.3,2.89,2.89,0,0,0,1.5,1.2,2.2,2.2,0,0,0,1.4.1c1.7-.3,3.5-1.5,5.3-3.7a9.14,9.14,0,0,0,1.2-1.7l.5-.5c.7-1.3,1.4-2.5,2-3.5l-.9,2.7a8.12,8.12,0,0,0-.5,2.5,3.7,3.7,0,0,0,.8,1.8,2.36,2.36,0,0,0,2.4.8c1.4-.2,2.8-1.3,4.2-3.4a2.77,2.77,0,0,0,.9.1,2.39,2.39,0,0,0,1.3-.7,8.18,8.18,0,0,1,.8-.9h.1a4.27,4.27,0,0,0-.2,1.9,2,2,0,0,0,.8,1.3,2.13,2.13,0,0,0,1.6.3,3,3,0,0,0,1.7-.8,12.4,12.4,0,0,0,2-2v.8a1.44,1.44,0,0,0,.6,1,1.72,1.72,0,0,0,1.2.2,2.78,2.78,0,0,0,1.5-.8,14.55,14.55,0,0,0,1.6-1.7c.8-.9,1.3-1.6,1.6-2,.1-.2.3-.4.4-.6a19.34,19.34,0,0,0,2.3-3.9c-1.3,3.2-1.9,5.4-1.7,6.4a.76.76,0,0,0,.2.5,1.93,1.93,0,0,0,1.8.8,5.34,5.34,0,0,0,2.5-1.4,14.08,14.08,0,0,0,1.9-2.3,14.8,14.8,0,0,0,.8-1.3c.1-.1.1-.2.2-.3l.2-.3a27.66,27.66,0,0,0,1.9-3.4c-1.3,3.2-1.9,5.4-1.8,6.4a.76.76,0,0,0,.2.5,1.93,1.93,0,0,0,1.8.8,5.34,5.34,0,0,0,2.5-1.4,22.62,22.62,0,0,0,1.9-2.3l1.2-1.8c.1-.1.1-.2,0-.4s-.2-.4-.6-.4c-.2,0-.6.4-1.1,1.1a4.41,4.41,0,0,1-1.1,1.2c-.3.1-.5,0-.5-.2a4.59,4.59,0,0,1,.1-1,16.92,16.92,0,0,0,2-4.6Zm-20.1,3.1c.3,0,.5.1.6.5a6,6,0,0,1-.8,2.9,15.05,15.05,0,0,1-1,1.7c-.6.8-1,1.2-1.3,1.2s-.5-.1-.5-.5a6.38,6.38,0,0,1,1-2.9C418.5,339,419.2,338,419.7,337.9Zm-21.9,3c.2,0,.3.1.3.4a2.5,2.5,0,0,1-.5,1.8c-.7,1-1.2,1.6-1.5,1.6s-.4-.1-.4-.3a2.87,2.87,0,0,1,.6-1.6C397,341.6,397.5,341,397.8,340.9Zm-32.1,3.9c-1.7.3-3.4.5-5.1.7a.85.85,0,0,0,.6.2h1.1c.4.1.8.6,1,1.4a.9.9,0,0,1,.1.5,7.82,7.82,0,0,1-.2,2.6,5.07,5.07,0,0,1-.8,1.8,3,3,0,0,1-1.8,1.3,2.26,2.26,0,0,1-1.7-.5,1.35,1.35,0,0,1-.5-.9,2.62,2.62,0,0,1,.5-1.9,4.51,4.51,0,0,1,2-1.6c.5-.2.7-.4.7-.8a.44.44,0,0,0-.6-.4.76.76,0,0,0-.4.1c-.3.1-.7.4-1.3.7a23.32,23.32,0,0,0,.6-2.5c-1.3.2-2.6.4-3.8.6-.3.7-.5,1.3-.8,2.1a39.22,39.22,0,0,1-1.6,3.8,8,8,0,0,1-2.2,2.6,2.85,2.85,0,0,1-1.4.6,1.39,1.39,0,0,1-1.3-.4.86.86,0,0,1-.3-.6c-.1-.5.3-1,1-1.7a1.65,1.65,0,0,0,.5-1.5,1.44,1.44,0,0,0-.7-1.1,1.93,1.93,0,0,0-2.6.2,3.48,3.48,0,0,0-1.1,3.2,4.35,4.35,0,0,0,1.3,2.5,4.22,4.22,0,0,0,2.1,1.1,6.47,6.47,0,0,0,2.4.1,7.26,7.26,0,0,0,2.6-.8,9.9,9.9,0,0,0,3.4-3.6,4.65,4.65,0,0,0,2.3,2.3,4,4,0,0,0,2.2.3,8.1,8.1,0,0,0,3.3-1.5,5.27,5.27,0,0,0,2-2.8,8.37,8.37,0,0,0,.4-3.7,4.92,4.92,0,0,0-.6-1.7C366.5,345.6,366.2,345.2,365.7,344.8Zm-12.9,1.9-1.9.3a4.13,4.13,0,0,0,.7,1.1,1.93,1.93,0,0,0,1.8.7c.2,0,.3-.1.4-.1a1,1,0,0,0,.5-1.1q0-.45-.9-.6C353.3,346.9,353,346.9,352.8,346.7Zm23.4-2.5c.3,0,.5.1.6.5a6,6,0,0,1-.8,2.9,15.05,15.05,0,0,1-1,1.7,3.13,3.13,0,0,1-1.3,1.2c-.3,0-.5-.1-.5-.5s.3-1.5,1-3C375,345.2,375.7,344.3,376.2,344.2Zm8,4.5a6.7,6.7,0,0,1,1.7-.1q-.45,1.35-1.2,1.5a.76.76,0,0,1-.4-.1.63.63,0,0,1-.5-.6,1.08,1.08,0,0,1,.3-.7c-.1.1,0,0,.1,0Z" transform="translate(-4.54 -8)" fill="url(#linear-gradient-13)"/><path d="M25.9,390.3a5.36,5.36,0,0,0-3.4,2.2c-2.3,3-2.6,11-.7,17.8,2.6,9.1,8.6,11,12.5,3.8l2-3.6h.4a29.94,29.94,0,0,0,.1-6.7,24.87,24.87,0,0,0-2.2-8.2c-1.3-.2-1.9-.8-2.9-2.3a5.56,5.56,0,0,0-5.8-3Z" transform="translate(-4.54 -8)" fill="url(#linear-gradient-14)"/><path d="M173.6,379.3l-.4,14.4.9-.1.4-14.4Zm-14.3,1.5c-.3,0-.8.1-1,.1l-2.1,14.8c.3,0,.6-.1,1-.1l2.1-14.8Zm-15,1.8c-.3,0-.7.1-1,.1l-2.9,15,1-.1ZM124.6,385l-2.4,15.1,1-.1,2.4-15.1-1,.1Zm-15.4,1.8-2.7,15.3,1-.1,2.7-15.2Zm-14.5,1.8-1,.1-4.8,15.5,1-.1Zm-14.8,1.8-1.1.1L74.3,406c.3,0,.7-.1,1-.1Zm-18.4,2.3-6.1,15.6,1.1-.1,6.1-15.6c-.4,0-.8.1-1.1.1Zm-13.9,1.6-5.4,15.5,1.1-.1,5.4-15.4Z" transform="translate(-4.54 -8)"/><path d="M224.1,288.4c-.1,0-.2,0-.2.1s-32.6,19.9-49.9,27.3c-21.1,9-63.4,19.7-63.4,19.7-.3.1.3.7.4,1a.62.62,0,0,0,.6.4s41.6-11,62.8-20.1c17.5-7.5,50.1-27.4,50.1-27.4.3-.2,0-1.1-.4-1Z" transform="translate(-4.54 -8)" fill="#fff" opacity="0.7" style="isolation:isolate"/><path d="M469.5,396.1c0,2-12.3,3.6-27.4,3.6s-27.5-1.6-27.5-3.6h0c0-2,12.3-3.6,27.5-3.6s27.4,1.6,27.4,3.6Z" transform="translate(-4.54 -8)" opacity="0.5" fill="url(#radial-gradient-4)" style="isolation:isolate"/><path d="M385.2,379.5c0,18.1,15.1,32.9,33.7,32.9s33.7-14.7,33.7-32.9-15.1-32.9-33.7-32.9S385.2,361.4,385.2,379.5Z" transform="translate(-4.54 -8)" fill="#f0ebe6" fill-rule="evenodd"/><path d="M421.8,347.5c-.8.7,3.2,3.4,3.2,5s-2.4,2.6-3.4,4.1-.1,3-2.3,5.1-7.5,4.5-10.9,7.6-6.3,8.1-9.2,10.5-6.7,2.1-8.4,3.8-2.1,3.7-1.8,6.3.9,6.5,3.3,9.4,5.6,7.3,11.2,7.7c5.6.2,15.7-1,22.4-6.1s13.9-18.1,17.2-24.5,2.3-10.3,1.9-13.8-2.7-5.1-4.4-7a25.39,25.39,0,0,0-5.9-4.7,13.33,13.33,0,0,0-5.1-2.4c-2.1-.7-7-1.7-7.8-1Z" transform="translate(-4.54 -8)" fill="#e1ddd8" fill-rule="evenodd"/><path d="M433.9,351.1c-.7.6,1.1,3.1.8,5.3s-1.8,4.8-3,7.4-1.6,5.8-3.9,7.8-8.4,1.7-10.3,3.9,1.5,7.5-1.4,9.2-12.2-.7-15.9.6-4.8,4.9-5.9,7.3a9.11,9.11,0,0,0-.6,7c.8,2.2,3.1,4.6,5.4,6.3s5.7,2.6,8.1,3.3,3,1.5,6.2,1.2,9.1-.6,12.8-3.4,5.8-9.4,9.1-13.5,8.4-6,10.4-10.6,1.6-12.8,1.4-16.9-1-5.5-2.4-7.6-4.1-4-5.9-5.3-4.2-2.5-4.9-2Z" transform="translate(-4.54 -8)" fill="#d8d4cf" fill-rule="evenodd"/><path d="M450.2,367.5c-.6-1.7-.7-2.6-1.6-3.8s-3.2-3.9-4.1-3.3-.8,3.2-1.6,6.8-2,11.1-3.7,14.3-4.5,2.4-6.3,4.2-1.8,4.8-4.4,6.4-8,1.1-11.3,3.3-5.4,7.6-8.2,9.5-9.2.4-8.8,1.5,6.7,4.2,11.2,5.1,10.6,1.5,15.7.2a35.43,35.43,0,0,0,14.3-7.6,37.3,37.3,0,0,0,9.4-13.8c1.7-5.1,1.3-12.8,1.2-16.6s-1.3-4.5-1.8-6.2Z" transform="translate(-4.54 -8)" fill="#d0ccc8" fill-rule="evenodd"/><path d="M406.6,409.6c.2.3,7.7,2,11.6,2.1a32.07,32.07,0,0,0,11.8-1.6c3.8-1.5,8.8-5.3,11.1-7.1s4.6-4.6,2.8-4-9,5.8-13.5,7.6a53.09,53.09,0,0,1-13.1,3.2c-4,.5-10.8-.5-10.7-.2Z" transform="translate(-4.54 -8)" fill="#b1a59c" fill-rule="evenodd"/><path d="M402.5,364.1a1.72,1.72,0,0,0-.8-.1c-.3-.1-.7-.3-1-.4a5.39,5.39,0,0,0-1-.3c-.3-.1-.7.1-1,0s-.6-.4-.9-.5-.9,0-1.2-.1a3.71,3.71,0,0,0-.9-.2c-.3,0-.4.2-.6.2s-.9-.1-1.2-.1a2.35,2.35,0,0,0-.8.2,6.21,6.21,0,0,0-1,.3c-.1.1.2,0,.5,0a1.9,1.9,0,0,1,.9-.3h2.1c.2,0,.1-.1.2-.1a1.76,1.76,0,0,1,.6.1,5.28,5.28,0,0,1,1.2.1,11.73,11.73,0,0,1,1.1.5c.3.1.5-.1.9-.1s.7.3,1.1.4.5.1.8.2a2.07,2.07,0,0,0,.6.2c.1.1.4.1.4,0Z" transform="translate(-4.54 -8)" fill="#a52914" fill-rule="evenodd"/><path d="M390.4,364.5a4.3,4.3,0,0,0-.7.7,4.35,4.35,0,0,0-.6.7,7,7,0,0,0-.8,1,5.76,5.76,0,0,1-.4.5l.9-.9a8.74,8.74,0,0,0,.8-1C389.8,365.2,390.4,364.6,390.4,364.5Z" transform="translate(-4.54 -8)" fill="#a52914" fill-rule="evenodd"/><path d="M387,371.5a4,4,0,0,0-.1-1.5c-.1-.3-.2-.4-.3-.4s-.2.3-.2.6-.4.2-.3.4S386.9,371.6,387,371.5Z" transform="translate(-4.54 -8)" fill="#e2391c" fill-rule="evenodd"/><path d="M386.5,373.2a2.93,2.93,0,0,0-.3-1c-.1-.2-.3-.3-.3-.2a2.08,2.08,0,0,0,0,.8,1.91,1.91,0,0,0,.3.8C386.3,373.6,386.5,373.5,386.5,373.2Z" transform="translate(-4.54 -8)" fill="#e2391c" fill-rule="evenodd"/><path d="M385.9,375.9v-.8c-.1-.2-.3-.5-.4-.5s-.2.3-.2.7.4,1,.5,1.2S385.9,376.1,385.9,375.9Z" transform="translate(-4.54 -8)" fill="#cf341a" fill-rule="evenodd"/><path d="M385.6,378.4c0-.1-.1-.8-.1-1s-.2-.3-.3-.2-.1.4-.1.6S385.6,378.5,385.6,378.4Z" transform="translate(-4.54 -8)" fill="#cf341a" fill-rule="evenodd"/><path d="M385.5,379.9c-.1,0-.3.6-.4.9s.1.4.2.4.2-.1.3-.3,0-1-.1-1Z" transform="translate(-4.54 -8)" fill="#cf341a" fill-rule="evenodd"/><path d="M385.7,383.1a.68.68,0,0,0-.3.7c0,.2.1.6.2.6a6.37,6.37,0,0,0,.2-.7A1.45,1.45,0,0,0,385.7,383.1Z" transform="translate(-4.54 -8)" fill="#cf341a" fill-rule="evenodd"/><path d="M401.3,364.1c-.3.5-1.4,2-1.8,2.7s-.6,1.3-.8,1.4-.2-.7-.2-1-.4-.3-.2-.7a7.34,7.34,0,0,1,1.4-1.8,4,4,0,0,1,1.4-.9C401.4,363.7,401.6,363.7,401.3,364.1Z" transform="translate(-4.54 -8)" fill="#f13d2f" fill-rule="evenodd"/><path d="M396.3,367.5c.2-.3.9-1.6,1.2-2.2a3.53,3.53,0,0,1,.9-1.1c.2-.3.8-.8.6-.8a4.82,4.82,0,0,0-1.5.7,7.41,7.41,0,0,0-1.2,1.3,1.55,1.55,0,0,0-.3,1.1c0,.3,0,1.2.3,1Z" transform="translate(-4.54 -8)" fill="#f13d2f" fill-rule="evenodd"/><path d="M394.5,366.9c.2-.3.6-1.6,1-2.3a11.16,11.16,0,0,1,1.2-1.7c.1-.3-.2-.1-.5.1a6.34,6.34,0,0,0-1.3,1.1,4.15,4.15,0,0,0-.7,1.3,1.34,1.34,0,0,0,.1.9C394.3,366.6,394.3,367.2,394.5,366.9Z" transform="translate(-4.54 -8)" fill="#f13d2f" fill-rule="evenodd"/><path d="M392.9,366.8a18.31,18.31,0,0,0,1-2c.3-.5.6-1,.8-1.3s.3-.5.2-.6a1.79,1.79,0,0,0-.8.4,15,15,0,0,0-1.1,1.3,1.38,1.38,0,0,0-.5.9C392.5,365.9,392.6,366.9,392.9,366.8Z" transform="translate(-4.54 -8)" fill="#f13d2f" fill-rule="evenodd"/><path d="M391.6,366.8a10.63,10.63,0,0,0,.3-1.4,6.12,6.12,0,0,1,.5-1.2,6.38,6.38,0,0,1,1-1.4c0-.1-.5.3-.8.6a2.58,2.58,0,0,0-.9.9,4.07,4.07,0,0,0-.6,1.1,1,1,0,0,0,.1.9C391.2,366.5,391.5,367,391.6,366.8Z" transform="translate(-4.54 -8)" fill="#f13d2f" fill-rule="evenodd"/><path d="M391.6,363.7a3.21,3.21,0,0,0-.7,1,10.93,10.93,0,0,0-.5,1.7,8.92,8.92,0,0,0-.2,1.1c-.1.1-.1-.2-.2-.5a2,2,0,0,1-.1-1.1,5.17,5.17,0,0,1,.6-1.3,1.7,1.7,0,0,1,.6-.6C391.2,363.7,391.6,363.5,391.6,363.7Z" transform="translate(-4.54 -8)" fill="#f13d2f" fill-rule="evenodd"/><path d="M389,368.8a4.67,4.67,0,0,1-.4-1.4,3.67,3.67,0,0,1,.6-1.4c.1-.2.3,0,.3.3a4.23,4.23,0,0,0-.4,1.2,3.42,3.42,0,0,0,.1,1.1C389.1,368.8,389.1,369,389,368.8Z" transform="translate(-4.54 -8)" fill="#f13d2f" fill-rule="evenodd"/><path d="M387.8,369.9c0-.2-.2-.8-.2-1.2a7.54,7.54,0,0,1,.4-1.5c0-.2-.4.3-.5.6a1.49,1.49,0,0,0-.3.8,5.85,5.85,0,0,0,.2,1.3C387.5,370.1,387.8,370.1,387.8,369.9Z" transform="translate(-4.54 -8)" fill="#f13d2f" fill-rule="evenodd"/><path d="M394.9,362.8c-.2-.1-.3-.3-.3-.7a2.55,2.55,0,0,1,0-1.5,7,7,0,0,1,1.4-2.1c.3-.2.2.3.2.7s-.5,1.3-.6,1.9.3,1.1.1,1.4A.91.91,0,0,1,394.9,362.8Z" transform="translate(-4.54 -8)" fill="#f13d2f" fill-rule="evenodd"/><path d="M397,363a7.93,7.93,0,0,1-.2-1.7,2.25,2.25,0,0,1,.1-1.2,1.9,1.9,0,0,1,.7-1.1c.3-.3,1.2-.8,1.3-.6s-.8.8-1,1.5a5.09,5.09,0,0,0-.4,2c-.1.5,0,.8-.1.9S397.1,363.2,397,363Z" transform="translate(-4.54 -8)" fill="#f13d2f" fill-rule="evenodd"/><path d="M398.9,363.3a7,7,0,0,1-.1-2.1,3.81,3.81,0,0,1,.5-1.5,3.72,3.72,0,0,1,.9-1.1c.1,0-.1.5-.2,1.2s-.1,2.4-.2,3-.2.4-.3.4C399.4,363.4,399,363.7,398.9,363.3Z" transform="translate(-4.54 -8)" fill="#f13d2f" fill-rule="evenodd"/><path d="M401.2,363.9a3.84,3.84,0,0,1-.1-1.9,7.66,7.66,0,0,1,.6-2.4.52.52,0,0,1,.9,0c.1.3-.3,1-.3,1.7a6.56,6.56,0,0,0,.1,2c0,.4.1.6,0,.8C402.1,364.1,401.4,364.3,401.2,363.9Z" transform="translate(-4.54 -8)" fill="#f13d2f" fill-rule="evenodd"/><path d="M393.9,362.8c.1-.1-.1-.2-.1-.7s.3-1.9.3-2.2-.4-.3-.6-.1a3.31,3.31,0,0,0-.4,1.5,1.84,1.84,0,0,0,.1,1.3A.54.54,0,0,0,393.9,362.8Z" transform="translate(-4.54 -8)" fill="#f13d2f" fill-rule="evenodd"/><path d="M392.2,363.2c.1-.2-.2-.4-.2-.8a13.7,13.7,0,0,0,.2-1.6c-.1-.2-.5.2-.6.5a2.38,2.38,0,0,0-.3,1.2,2.51,2.51,0,0,0,.2,1A1.14,1.14,0,0,0,392.2,363.2Z" transform="translate(-4.54 -8)" fill="#f13d2f" fill-rule="evenodd"/><path d="M390.9,364c.1-.3-.2-.6-.2-1a7.75,7.75,0,0,1,.1-.9c-.2-.1-.6.2-.8.4s-.2.1-.2.3a3.75,3.75,0,0,0,.1,1c.1.3.2.6.4.7S390.8,364.2,390.9,364Z" transform="translate(-4.54 -8)" fill="#f13d2f" fill-rule="evenodd"/><path d="M389.4,365.6c0-.2-.2-.4-.2-.8s.1-1,.1-1.1-.3.1-.4.3-.2.1-.2.3,0,.9.2,1.1C388.9,365.6,389.3,365.6,389.4,365.6Z" transform="translate(-4.54 -8)" fill="#f13d2f" fill-rule="evenodd"/><path d="M388.5,366.6c0-.1-.2-.3-.2-.4s0-.6,0-.5-.4.3-.5.5a.75.75,0,0,0-.1.5c0,.2,0,.6.2.6A4.35,4.35,0,0,0,388.5,366.6Z" transform="translate(-4.54 -8)" fill="#f13d2f" fill-rule="evenodd"/><path d="M403.1,364.5h1a2.48,2.48,0,0,1,.9.1c.2.1.2.2.4.4a8.11,8.11,0,0,0,1.1.3h.3c.2,0,.9-.2.9-.1a4.65,4.65,0,0,1-.9.3c-.3,0-.6-.1-.8-.1a9.44,9.44,0,0,1-.9-.3c-.2-.1-.2-.3-.4-.3s-.7.1-1,.1A6.13,6.13,0,0,1,403.1,364.5Z" transform="translate(-4.54 -8)" fill="#a52914" fill-rule="evenodd"/><path d="M411.6,365.8c.1-.1.8.2,1.2.2s.4-.1.8-.1.8-.2,1.2-.1.5.3.9.4,1.7.1,1.8.2a6.66,6.66,0,0,1-1.6.1c-.4-.1-.6-.3-1-.4s-1.1.2-1.5.2a2.79,2.79,0,0,1-1-.1c-.3-.1-.9-.4-.8-.4Z" transform="translate(-4.54 -8)" fill="#a52914" fill-rule="evenodd"/><path d="M403.8,364.5a7,7,0,0,1-.1-2.1,3.81,3.81,0,0,1,.5-1.5,3.72,3.72,0,0,1,.9-1.1c.1,0-.1.5-.2,1.2s-.1,2.4-.2,3-.2.4-.3.4C404.3,364.6,403.9,364.9,403.8,364.5Z" transform="translate(-4.54 -8)" fill="#f13d2f" fill-rule="evenodd"/><path d="M407,365.3a3.36,3.36,0,0,1-.4-1.9,6.51,6.51,0,0,1,.2-2.5c.2-.4.7-.4.8-.1a12.27,12.27,0,0,1-.1,1.7c.1.6.2,1.5.3,2s.2.6.1.8C407.8,365.3,407.2,365.6,407,365.3Z" transform="translate(-4.54 -8)" fill="#f13d2f" fill-rule="evenodd"/><path d="M410.4,365.9a6.73,6.73,0,0,1-.9-1.9,2.73,2.73,0,0,1-.2-1.5c0-.5.2-1.3.4-1.4s.1.5.3,1.2.9,2.2,1.1,2.8,0,.4-.1.5-.3.5-.6.3Z" transform="translate(-4.54 -8)" fill="#f13d2f" fill-rule="evenodd"/><path d="M413.6,366.1c-.2-.2,0-.5-.2-1s-.9-1.6-1.1-2-.2-.8,0-.9.6,0,.9.4a8.06,8.06,0,0,1,1.2,1.8,3.38,3.38,0,0,1,.4,1,1.07,1.07,0,0,1-.2.6,1.8,1.8,0,0,1-1,.1Z" transform="translate(-4.54 -8)" fill="#f13d2f" fill-rule="evenodd"/><path d="M401.2,368.7c.2-.3.9-1.6,1.2-2.2a3.53,3.53,0,0,1,.9-1.1c.2-.3.8-.8.6-.8a4.82,4.82,0,0,0-1.5.7,7.41,7.41,0,0,0-1.2,1.3,1.55,1.55,0,0,0-.3,1.1c0,.3.1,1.2.3,1Z" transform="translate(-4.54 -8)" fill="#f13d2f" fill-rule="evenodd"/><path d="M404.8,369.5c.2-.3.7-1.6,1.1-2.3s1.2-1.5,1.3-1.7-.2-.1-.5.1a11,11,0,0,0-1.4,1.1,3.07,3.07,0,0,0-.8,1.3.94.94,0,0,0,.1.9C404.5,369.1,404.6,369.8,404.8,369.5Z" transform="translate(-4.54 -8)" fill="#f13d2f" fill-rule="evenodd"/><path d="M410.5,366.1c-.3.5-1.4,2-1.8,2.7s-.6,1.3-.8,1.4-.2-.7-.2-1-.4-.3-.2-.7a7.34,7.34,0,0,1,1.4-1.8,4,4,0,0,1,1.4-.9C410.5,365.6,410.7,365.6,410.5,366.1Z" transform="translate(-4.54 -8)" fill="#f13d2f" fill-rule="evenodd"/><path d="M411.5,370.2a1,1,0,0,1-.2-1,4.92,4.92,0,0,1,.6-1.7,2.8,2.8,0,0,1,.8-1.2.62.62,0,0,1,.7-.1c.2.1.4-.1.3.5s-.9,2.5-1.2,3.1c-.5.6-.8.5-1,.4Z" transform="translate(-4.54 -8)" fill="#f13d2f" fill-rule="evenodd"/><path d="M415.2,369.9c-.2-.1-.1-.3.1-.8a17.38,17.38,0,0,1,1-1.9,3,3,0,0,1,.9-1c.1-.1,0-.5-.3-.9s-1.1-1.5-1.3-1.9-.2-.9,0-.9a5.87,5.87,0,0,1,1.4,1.2,13.39,13.39,0,0,1,1.6,2.2c.1.5-.4.3-.7.8s-.6,1.6-.9,2.2a4.21,4.21,0,0,1-.9,1.4c-.3.2-.6.1-.9-.4Z" transform="translate(-4.54 -8)" fill="#f13d2f" fill-rule="evenodd"/><path d="M423.2,370.4c-.2-.1-.2-.3-.1-.8a8.64,8.64,0,0,1,.7-2.1c.3-.6.4-1,.7-1.2a1.63,1.63,0,0,0-.4-.9c-.4-.5-1.3-1.4-1.6-1.8s-.4-.9-.1-.9a4.34,4.34,0,0,1,1.6,1,9.28,9.28,0,0,1,1.9,2.1c.2.5-.4.3-.5.9s-.3,1.7-.5,2.4a4,4,0,0,1-.7,1.6C424,371,423.6,370.8,423.2,370.4Z" transform="translate(-4.54 -8)" fill="#f13d2f" fill-rule="evenodd"/><path d="M421.2,366.6c-.2-.2-.1-.5-.4-1s-1.3-1.5-1.6-2-.3-.9-.1-1,.6-.1,1,.2a13.25,13.25,0,0,1,1.6,1.7,2.84,2.84,0,0,1,.6,1,.82.82,0,0,1-.1.7c-.3.2-.8.5-1,.4Z" transform="translate(-4.54 -8)" fill="#f13d2f" fill-rule="evenodd"/><path d="M419.1,370.9a1.61,1.61,0,0,1-.3-1.1,6.7,6.7,0,0,1,.7-1.8,4.13,4.13,0,0,1,.8-1.2.63.63,0,0,1,.7-.1c.2.1.4-.1.3.6a28.06,28.06,0,0,1-1.3,3.3C419.6,371,419.2,371,419.1,370.9Z" transform="translate(-4.54 -8)" fill="#f13d2f" fill-rule="evenodd"/><path d="M427.2,366.8c0-.1.5-.2.7-.3s.5-.2.8-.3a3.75,3.75,0,0,1,1.1-.1,4.8,4.8,0,0,0,1.2,0,12.09,12.09,0,0,1,1.8-.5,1.74,1.74,0,0,1,1.2.3,3.45,3.45,0,0,0-1.2-.1c-.4.1-.9.6-1.4.7a3.64,3.64,0,0,1-1.5-.2,1.39,1.39,0,0,0-.9,0,16.59,16.59,0,0,1-1.6.6c-.3.2-.3,0-.2-.1Z" transform="translate(-4.54 -8)" fill="#a52914" fill-rule="evenodd"/><path d="M426.9,370.6c-.2-.1-.2-.3-.1-.8a16.55,16.55,0,0,1,.6-2.1,3.26,3.26,0,0,1,.6-1.2,4.38,4.38,0,0,0-.5-.9c-.3-.4-.8-.9-1.1-1.3s-.8-1.3-.5-1.3,1.1.5,1.7,1a6.27,6.27,0,0,1,1.7,2c.2.5-.4.3-.5.9a18.66,18.66,0,0,0-.4,2.5,4.11,4.11,0,0,1-.6,1.6,1.12,1.12,0,0,1-.9-.4Z" transform="translate(-4.54 -8)" fill="#e2391c" fill-rule="evenodd"/><path d="M431.5,366.1c-.2-.1-.2-.5-.6-.9s-1.6-1.5-2-1.8-.5-.6-.2-.6a2.87,2.87,0,0,1,1.5.5,10.46,10.46,0,0,1,1.9,1.7c.3.4.3.7.2.8a.83.83,0,0,1-.8.3Z" transform="translate(-4.54 -8)" fill="#e2391c" fill-rule="evenodd"/><path d="M431,370.2c-.1-.2.1-.7.1-1.2s-.4-1.7-.4-2.1.4-.4.6-.3a1.41,1.41,0,0,1,.8,1.1,6.2,6.2,0,0,1-.4,2.3C431.5,370.4,431.1,370.4,431,370.2Z" transform="translate(-4.54 -8)" fill="#e2391c" fill-rule="evenodd"/><path d="M434.2,369.8c-.1-.3.3-1.2.3-1.8s-.4-1.6-.3-1.9.3-.3.5-.1a3.17,3.17,0,0,1,.5,1.4,4.64,4.64,0,0,1,.1,2C435.1,369.8,434.3,370,434.2,369.8Z" transform="translate(-4.54 -8)" fill="#e2391c" fill-rule="evenodd"/><path d="M434.8,366.2a1.49,1.49,0,0,0,.3-.8c0-.3.3-.7-.3-1.2a20.75,20.75,0,0,0-3.3-2c-.5-.2-.1.4.3.8s1.5,1,1.9,1.5.4,1.1.6,1.4.4.4.5.3Z" transform="translate(-4.54 -8)" fill="#e2391c" fill-rule="evenodd"/><path d="M437.1,368.9c-.1,0-.2-.3-.2-.7a13.55,13.55,0,0,1,.2-2,2.78,2.78,0,0,1,.4-1.2,1.87,1.87,0,0,0-.6-.7c-.3-.3-.9-.7-1.2-1s-.9-1-.7-1.1a3.62,3.62,0,0,1,1.8.6,7.42,7.42,0,0,1,1.9,1.5c.3.4-.3.4-.3.9s.1,1.6.1,2.3a6.27,6.27,0,0,1-.2,1.6c-.4.2-.7.1-1.2-.2Z" transform="translate(-4.54 -8)" fill="#cf341a" fill-rule="evenodd"/><path d="M437.8,352.3c.1-.1.7,0,1,.2a1.33,1.33,0,0,1,.3.7c-.1.1-.3-.1-.5-.3S437.7,352.4,437.8,352.3Z" transform="translate(-4.54 -8)" fill="#a52914" fill-rule="evenodd"/><path d="M439.7,353.6a2.92,2.92,0,0,1,.9.2,3.33,3.33,0,0,1,.6.3c.1.1.1.2,0,.4a.59.59,0,0,1,.7.1,1.51,1.51,0,0,1,.4.9,1.55,1.55,0,0,1,.6.3,6,6,0,0,1,.8.8c0,.1-.6-.1-.8-.3a2.1,2.1,0,0,1-.8-.6,2.18,2.18,0,0,0-.4-.5,1.61,1.61,0,0,0-.7-.4c-.1-.2-.2-.4-.3-.4s-.3-.1-.4-.2c-.3-.2-.5-.3-.6-.6Z" transform="translate(-4.54 -8)" fill="#a52914" fill-rule="evenodd"/><path d="M442,356.6a4.25,4.25,0,0,1,1.1.2,2.73,2.73,0,0,1,1.2.6,3.46,3.46,0,0,1,.7,1.2c-.6-.3-1.1-.7-1.6-1A7.1,7.1,0,0,1,442,356.6Z" transform="translate(-4.54 -8)" fill="#a52914" fill-rule="evenodd"/><path d="M445.3,359.6a5.55,5.55,0,0,1,.6.8c.2.3.5.6.8,1a.8.8,0,0,0-.2-.9,3.09,3.09,0,0,0-1.2-.9Z" transform="translate(-4.54 -8)" fill="#a52914" fill-rule="evenodd"/><path d="M445,359.9a1.17,1.17,0,0,0-.7-1.1,6.55,6.55,0,0,0-2-.7,4.62,4.62,0,0,0,.7.7,7,7,0,0,0,.9.6c.2.1.4.1.5.2S444.7,359.8,445,359.9Z" transform="translate(-4.54 -8)" fill="#a52914" fill-rule="evenodd"/><path d="M447,362.5c-.1-.2-.7-.9-.9-1.2s-.8-.6-.7-.4a13.28,13.28,0,0,0,1.2,1.6c.2.2.5.2.4,0Z" transform="translate(-4.54 -8)" fill="#a52914" fill-rule="evenodd"/><path d="M444.7,361.1c-.1.1-.5-.6-1.1-.9s-2-.8-2.2-1,.3-.2.6-.1a4.28,4.28,0,0,1,1.3.5c.3.1.4,0,.6.3A3.55,3.55,0,0,1,444.7,361.1Z" transform="translate(-4.54 -8)" fill="#a52914" fill-rule="evenodd"/><path d="M446.7,365.2a7.14,7.14,0,0,0-.5-1.8,5.67,5.67,0,0,0-1-1.1c-.3-.3-.4-.4-.6-.4s-.3.3-.4.3-.1-.4-.3-.6a2,2,0,0,0-.9-.9,10.35,10.35,0,0,0-2.4-.6c-.3,0,.5.2,1,.6a15.75,15.75,0,0,1,1.9,1.5c.2.3-.3.4-.2.7s.4.4.7.8.8,1.1,1,1.6a2.35,2.35,0,0,1,.1,1.1,3,3,0,0,0,.2-1.6c-.2-.6-1.2-1.7-1.3-2.1s.2-.4.4-.3.6.3,1,.7,1.1,2,1.3,2.1Z" transform="translate(-4.54 -8)" fill="#a52914" fill-rule="evenodd"/><path d="M439,361.2a2.27,2.27,0,0,1,1.6.1,6,6,0,0,1,1.9,1.6c.3.4-.4.5-.3.9s.6.8.8,1.4a7.29,7.29,0,0,1,.2,1.8c-.1,0-.5-1.3-.8-1.7s-.8-.8-.9-1.1.6-.5.4-.9-1.2-.9-1.7-1.3S438.9,361.3,439,361.2Z" transform="translate(-4.54 -8)" fill="#c03018" fill-rule="evenodd"/><path d="M436.9,361.8c0,.2,2.3,1.8,2.8,2.3s-.1.3,0,.6a4.54,4.54,0,0,1,.3.8,28.35,28.35,0,0,0,.7,2.8c.2.2.5-1.1.5-1.7a15,15,0,0,0-.7-2c-.1-.4.4-.2.3-.5a2.51,2.51,0,0,0-1-1.2C439,362.5,436.9,361.6,436.9,361.8Z" transform="translate(-4.54 -8)" fill="#c03018" fill-rule="evenodd"/><path d="M394.4,401.8c-.1,0,.1.6.3.9s.6.4.7.5.1-.4-.1-.6a3,3,0,0,0-.9-.8Z" transform="translate(-4.54 -8)" fill="#c03018" fill-rule="evenodd"/><path d="M396.9,404.3c-.1,0,.2.4.3.6s.3.3.4.2a.3.3,0,0,0,0-.4A5.74,5.74,0,0,0,396.9,404.3Z" transform="translate(-4.54 -8)" fill="#c03018" fill-rule="evenodd"/><path d="M399.5,406.6a.9.9,0,0,1-.1-.5v-.5l-.6-.2a2,2,0,0,0,.4.8C399.2,406.5,399.3,406.6,399.5,406.6Z" transform="translate(-4.54 -8)" fill="#c03018" fill-rule="evenodd"/><path d="M401,407.5a.9.9,0,0,1-.1-.5v-.5l-.7-.1a2,2,0,0,0,.4.8A1.38,1.38,0,0,1,401,407.5Z" transform="translate(-4.54 -8)" fill="#c03018" fill-rule="evenodd"/><path d="M403,408.7a2,2,0,0,1-.1-.7v-.7l-.8-.2a3.58,3.58,0,0,0,.4,1.1A.82.82,0,0,0,403,408.7Z" transform="translate(-4.54 -8)" fill="#c03018" fill-rule="evenodd"/><path d="M405,409.5c-.1-.3-.1-.6-.2-.9v-.8l-.9-.2a5,5,0,0,0,.4,1.3,1.34,1.34,0,0,0,.7.6Z" transform="translate(-4.54 -8)" fill="#c03018" fill-rule="evenodd"/><path d="M407.1,410a1,1,0,0,1-.7-.4,6.87,6.87,0,0,1-.6-1.3c0-.1.5.3.8.6s.5.7.6.9h0a2.09,2.09,0,0,1,.6.4c.1.1.4.3.4.4a.61.61,0,0,1-.6.1A1.28,1.28,0,0,1,407.1,410Z" transform="translate(-4.54 -8)" fill="#c03018" fill-rule="evenodd"/><path d="M409.7,410.6a1,1,0,0,1-.8-.5,6.12,6.12,0,0,1-.7-1.5c.1-.1.6.4.9.8s.6.9.8,1.1h0a5.74,5.74,0,0,0,.7.4c.2.1.5.3.5.4a1,1,0,0,1-.8.1,1.83,1.83,0,0,1-.6-.8Z" transform="translate(-4.54 -8)" fill="#c03018" fill-rule="evenodd"/><path d="M412.3,410.6a1.11,1.11,0,0,1-1.2-.5,9.53,9.53,0,0,1-1.3-2.3c0-.2.9.8,1.4,1.3l1.2,1.2h0a10.37,10.37,0,0,1,1,.4c.3.1.7.3.7.4a1.08,1.08,0,0,1-.9.3c-.3.1-.6-.2-.9-.8Z" transform="translate(-4.54 -8)" fill="#c03018" fill-rule="evenodd"/><path d="M413.6,409.6a2.43,2.43,0,0,1-1.4-1,3.21,3.21,0,0,1-.3-1.8c.1-.2.6.4,1,.9s.6,1,1,1.8a14.64,14.64,0,0,1,2.4,1c.1.1-1,.1-1.5,0a8.11,8.11,0,0,1-1.1-.3C413.5,410.1,413.5,409.9,413.6,409.6Z" transform="translate(-4.54 -8)" fill="#c03018" fill-rule="evenodd"/><path d="M415.9,408.5l.3-.4a1.8,1.8,0,0,1-.8-.9c-.3-.4-.5-1.5-.7-1.6s-.5.4-.5.7a1.25,1.25,0,0,0,.3,1.1,4,4,0,0,0,1.1,1.2c-.2.2-.3.4-.1.6a2.47,2.47,0,0,0,1.1.4,9.49,9.49,0,0,0,2.4,0,6.83,6.83,0,0,1-2-.6c-.5-.3-1-.3-1.1-.5Z" transform="translate(-4.54 -8)" fill="#c03018" fill-rule="evenodd"/><path d="M418.8,407.3l.3-.3a2.09,2.09,0,0,1-.8-1c-.2-.5-.4-1.6-.6-1.7s-.5.4-.6.7a1.88,1.88,0,0,0,.2,1.2,4.15,4.15,0,0,0,1.1,1.4c-.3.2-.4.4-.2.6s.5.4,1.1.5,1.5.2,2.6.3a11.66,11.66,0,0,1-2.1-.8,1.79,1.79,0,0,1-1-.9Z" transform="translate(-4.54 -8)" fill="#c03018" fill-rule="evenodd"/><path d="M421.2,406.1l.3-.4a3.82,3.82,0,0,1-.9-.9c-.3-.4-.6-1.5-.8-1.6s-.5.5-.5.8a1.68,1.68,0,0,0,.3,1.1,5.12,5.12,0,0,0,1.3,1.2c-.2.2-.3.5-.1.6s.5.3,1.1.4,1.5,0,2.6-.1a10.29,10.29,0,0,1-2.2-.5,1.87,1.87,0,0,1-1.1-.6Z" transform="translate(-4.54 -8)" fill="#c03018" fill-rule="evenodd"/><path d="M423.6,404.4c.2.2.8.1,1-.4a9.86,9.86,0,0,0-.3-2.4c-.2-.5-.6-.8-.6-.6a3.81,3.81,0,0,0-.1,1.3,4.93,4.93,0,0,0,0,2.1Z" transform="translate(-4.54 -8)" fill="#c03018" fill-rule="evenodd"/><path d="M424,404.8c0,.1,0,.1-.1.3a6.82,6.82,0,0,1-.7.5,2.26,2.26,0,0,0,1.1.5,4.68,4.68,0,0,0,1.7.2,2,2,0,0,0,1.1-.6,2.86,2.86,0,0,1-1.6-.1A3.68,3.68,0,0,1,424,404.8Z" transform="translate(-4.54 -8)" fill="#c03018" fill-rule="evenodd"/><path d="M428.7,402.4c0,.1.1,0,.3-.2s.3-.5.5-.9a1,1,0,0,1,.5-.4c.2-.1.6-.1.8-.2s.4,0,.7-.2.4-.9.7-1.1a2.55,2.55,0,0,1,1.3-.2,4.12,4.12,0,0,0,1.2-.1c.3-.2.3-.5.5-.7s.3-.6.6-.7.9,0,1.3-.1a5.64,5.64,0,0,0,1.2-.4c-.7.3-1.2.5-1.6.7s-.6.1-.8.3-.1.6-.6.8a25.58,25.58,0,0,0-2.7.5c-.6.2-.5.8-.9,1.1s-1.5.2-1.9.4-.3.7-.4.9-.5.1-.6.2c-.1.4-.1.4-.1.3Z" transform="translate(-4.54 -8)" fill="#a52914" fill-rule="evenodd"/><path d="M429.3,401.2c.2.2.8.1,1-.4a9.86,9.86,0,0,0-.3-2.4c-.2-.5-.6-.8-.6-.6a3.81,3.81,0,0,0-.1,1.3,4.9,4.9,0,0,0,0,2.1Z" transform="translate(-4.54 -8)" fill="#c03018" fill-rule="evenodd"/><path d="M429.8,401.6c.1.1,0,.2-.1.4a5.92,5.92,0,0,1-.6.4,7.6,7.6,0,0,1,1.1.4,6.12,6.12,0,0,0,1.2.5,1.37,1.37,0,0,0,1-.6,2.71,2.71,0,0,1-.8-.3A17.78,17.78,0,0,0,429.8,401.6Z" transform="translate(-4.54 -8)" fill="#c03018" fill-rule="evenodd"/><path d="M428,402.8c0-.1-.8-.1-.9,0s-.2.3-.4.6-1.2.6-1.3.7.5.2.7.1a5,5,0,0,1,.7-.8,12.89,12.89,0,0,1,1.2-.6Z" transform="translate(-4.54 -8)" fill="#a52914" fill-rule="evenodd"/><path d="M426.2,402.9a.6.6,0,0,0,.9-.4,6.61,6.61,0,0,0-.3-2.4c-.2-.5-.6-.8-.6-.6a3.81,3.81,0,0,0-.1,1.3,12.79,12.79,0,0,0,.1,2.1Z" transform="translate(-4.54 -8)" fill="#c03018" fill-rule="evenodd"/><path d="M426.7,403.4c0,.1,0,.1-.1.3a6.82,6.82,0,0,1-.7.5,2.26,2.26,0,0,0,1.1.5,4.68,4.68,0,0,0,1.7.2,2,2,0,0,0,1.1-.6,2.86,2.86,0,0,1-1.6-.1,2.75,2.75,0,0,1-1.5-.8Z" transform="translate(-4.54 -8)" fill="#c03018" fill-rule="evenodd"/><path d="M432.4,399.5c-.2-.1-.2-.6-.2-1.2a5.92,5.92,0,0,1,.1-1.9c.1-.4.4-.6.5-.4a5.29,5.29,0,0,1,.4,1.6,4.12,4.12,0,0,1-.1,1.2c-.1.4-.5.8-.7.7Z" transform="translate(-4.54 -8)" fill="#a52914" fill-rule="evenodd"/><path d="M432.3,400a4.91,4.91,0,0,1,1,.4,12.62,12.62,0,0,1,1.6.7c.1.2-.5.6-1,.5a5.47,5.47,0,0,1-2-1.1C431.6,400.3,432.1,400,432.3,400Z" transform="translate(-4.54 -8)" fill="#a52914" fill-rule="evenodd"/><path d="M435.5,398.4a6.19,6.19,0,0,1-.1-2,3.11,3.11,0,0,1,.5-1.7c.2-.1.5.7.5,1.3a11.24,11.24,0,0,1-.2,2C436,398.4,435.7,398.6,435.5,398.4Z" transform="translate(-4.54 -8)" fill="#a52914" fill-rule="evenodd"/><path d="M434.9,399.4c.6.3,1.2.5,1.7.7a5,5,0,0,0,1.5.2c.1-.1-.3-.6-.7-.8a6.4,6.4,0,0,0-1.9-.5.78.78,0,0,1-.4.4C435.1,399.3,435,399.4,434.9,399.4Z" transform="translate(-4.54 -8)" fill="#a52914" fill-rule="evenodd"/><path d="M437.9,397.5a3,3,0,0,0,.8-1.8c.1-.8-.1-2.3,0-2.8s.6-.3.8,0a5,5,0,0,1,.2,1.9,8.93,8.93,0,0,1-.6,2,5.12,5.12,0,0,1,1.3,1.2,1.61,1.61,0,0,1,.2,1.1,2.26,2.26,0,0,1-1.3-.2,4.62,4.62,0,0,1-1.4-1.4Z" transform="translate(-4.54 -8)" fill="#a52914" fill-rule="evenodd"/><path d="M440,396.4a.78.78,0,0,0,.8-.2,4,4,0,0,0,.6-1.3c.2-.7.3-2.3.5-2.9s.5-.7.6-.4a11.88,11.88,0,0,1,0,1.9c0,.5-.2,1-.1,1.2s.1.3.2.1a.78.78,0,0,0-.4.4c-.1.1-.3.4-.2.6s.3.3.5.6.6.8.5,1.2-.7.7-1,.6-.6-1.1-.9-1.4A1.5,1.5,0,0,0,440,396.4Z" transform="translate(-4.54 -8)" fill="#a52914" fill-rule="evenodd"/><path d="M442.9,395c.2.1.4.1.6-.2a2,2,0,0,0,.7-1.1c.2-.8.1-2.7.3-3.2s.6-.4.8.1a11.42,11.42,0,0,1-.2,2.5c-.1.5-.3.5-.2.6a.76.76,0,0,0,.7.1,1.54,1.54,0,0,0,.7-.7,14.58,14.58,0,0,0,.4-1.7,17.05,17.05,0,0,1,.4-2.3c.1-.1.4,1,.4,1.5s-.5,1.3-.5,1.6.3.3.8.1a1.51,1.51,0,0,0-.8.4,1.29,1.29,0,0,0-.1.7c0,.3.3.9.2,1.3a2.8,2.8,0,0,1-.8,1.2,1.72,1.72,0,0,0-.2-1.3c-.2-.3-.8-.6-1-.5s-.1.3-.1.8a11,11,0,0,1-.2,1.8c-.1.4-.3.5-.6.4a2.36,2.36,0,0,0,0-1.2c-.1-.3-.4-.4-.7-.5a4.65,4.65,0,0,1-.9-.3c0-.1.1-.1.3-.1Z" transform="translate(-4.54 -8)" fill="#910000" fill-rule="evenodd"/><path d="M447.9,392c.2-.1.3-.3.5-.8a13.89,13.89,0,0,1,.6-1.9c.1-.6.2-1.3.4-1.4s.3.2.3.9a27.46,27.46,0,0,1-.7,3,1,1,0,0,0,.7-.5,8.1,8.1,0,0,0,.6-1.3c.1-.6.2-1.9.3-2.1s.3.1.4.4a3.22,3.22,0,0,1,0,1.4,14.24,14.24,0,0,1-.5,1.6,6.15,6.15,0,0,1,.1,1.4,5.35,5.35,0,0,1-.6,1.3c-.1,0,.2-.8.1-1.2s-.3-.7-.5-.7a.55.55,0,0,0-.7.3c-.2.3.1.9,0,1.4a3.15,3.15,0,0,1-.9,1.2,2,2,0,0,0,.4-1.3,8.1,8.1,0,0,0-.6-1.3c-.1-.5,0-.6.1-.4Z" transform="translate(-4.54 -8)" fill="#910000" fill-rule="evenodd"/></svg>