<?xml version="1.0" encoding="utf-8"?>
<!-- Generator: Adobe Illustrator 24.1.1, SVG Export Plug-In . SVG Version: 6.00 Build 0)  -->
<svg version="1.1" id="Layer_1" xmlns="http://www.w3.org/2000/svg" xmlns:xlink="http://www.w3.org/1999/xlink" x="0px" y="0px"
	 viewBox="0 0 640 480" style="enable-background:new 0 0 640 480;" xml:space="preserve">
<style type="text/css">
	.st0{fill:none;}
	.st1{fill:#542901;}
	.st2{fill:#755A11;}
	.st3{fill:#4BC136;}
	.st4{fill:#49B232;}
	.st5{fill:#55C63E;}
	.st6{fill:#7F3E01;}
	.st7{fill:#4F2703;}
	.st8{fill:url(#SVGID_1_);}
	.st9{opacity:0.7;fill:url(#SVGID_2_);enable-background:new    ;}
	.st10{fill:url(#SVGID_3_);}
	.st11{fill:#800000;}
	.st12{opacity:0.7;fill:#1A1A1A;enable-background:new    ;}
	.st13{fill:url(#SVGID_4_);}
	.st14{opacity:0.7;enable-background:new    ;}
	.st15{fill:#ECECEC;}
	.st16{fill:url(#SVGID_5_);}
	.st17{fill:url(#SVGID_6_);}
	.st18{opacity:0.5;fill:url(#SVGID_7_);enable-background:new    ;}
	.st19{fill:url(#SVGID_8_);}
	.st20{fill:url(#SVGID_9_);}
	.st21{opacity:0.8;fill:url(#SVGID_10_);enable-background:new    ;}
	.st22{opacity:0.5;fill:url(#SVGID_11_);enable-background:new    ;}
	.st23{fill:url(#SVGID_12_);}
	.st24{fill:url(#SVGID_13_);}
	.st25{fill:url(#SVGID_14_);}
	.st26{fill:url(#SVGID_15_);}
	.st27{fill:url(#SVGID_16_);}
	.st28{fill:url(#SVGID_17_);}
	.st29{opacity:0.7;fill:#FFFFFF;enable-background:new    ;}
	.st30{opacity:0.5;fill:url(#SVGID_18_);enable-background:new    ;}
	.st31{fill-rule:evenodd;clip-rule:evenodd;fill:#F0EBE6;}
	.st32{fill-rule:evenodd;clip-rule:evenodd;fill:#E1DDD8;}
	.st33{fill-rule:evenodd;clip-rule:evenodd;fill:#D8D4CF;}
	.st34{fill-rule:evenodd;clip-rule:evenodd;fill:#D0CCC8;}
	.st35{fill-rule:evenodd;clip-rule:evenodd;fill:#B1A59C;}
	.st36{fill-rule:evenodd;clip-rule:evenodd;fill:#A52914;}
	.st37{fill-rule:evenodd;clip-rule:evenodd;fill:#E2391C;}
	.st38{fill-rule:evenodd;clip-rule:evenodd;fill:#CF341A;}
	.st39{fill-rule:evenodd;clip-rule:evenodd;fill:#F13D2F;}
	.st40{fill-rule:evenodd;clip-rule:evenodd;fill:#C03018;}
	.st41{fill-rule:evenodd;clip-rule:evenodd;fill:#910000;}
</style>
<g>
	<line class="st0" x1="385.1" y1="278.8" x2="385.1" y2="278.8"/>
	<line class="st0" x1="342.1" y1="234.8" x2="342.1" y2="234.8"/>
	<line class="st0" x1="342.1" y1="234.8" x2="342.1" y2="234.8"/>
	<line class="st0" x1="342.1" y1="234.8" x2="342.1" y2="234.8"/>
	<line class="st0" x1="342.1" y1="234.8" x2="342.1" y2="234.8"/>
	<path class="st1" d="M374.1,272.8c-6.4-6.4-11.5-13.8-16.9-21c-1.4-1.8-2.9-3.6-4-5.7c-0.9-1.7-2.6-3.8-3.9-5.5s-1.6-2.8-2.8-3.8
		c-0.8-0.7-1.6-1-3-1.5c3.3,0.7,6.6,1.3,9.9,2c2,0.4,4.6,1.9,5.5,3c3.7,4.6,6.9,9.3,9.9,14.4c1.5,2.6,3.9,4.6,5.6,7.1
		c1.6,2.4,3.6,5.6,5.6,7.6c3.8,3.8,6.3,9.6,11.5,11.4C385.1,279.1,378.8,278.1,374.1,272.8"/>
	<line class="st0" x1="352.6" y1="237.3" x2="352.6" y2="237.3"/>
	<line class="st0" x1="352.6" y1="237.3" x2="352.6" y2="237.3"/>
	<line class="st0" x1="352.6" y1="237.3" x2="352.6" y2="237.3"/>
	<path class="st1" d="M307.1,297.8c1.1-10.2,2-21.1,4.1-31.3c0.5-2.6,0.8-5.3,1.2-8c0.5-2.7,1.5-5.3,2.1-8c0.3-1.1,0.3-2.3,0.6-3.4
		c0.4-1.6,0.1-1.9,1.6-1.5c3.1,0.7,6.2,1.5,9.3,2.2c-1.2,5-1.2,9.8-2.1,14.8c-0.8,5.1-2.7,10.2-3.8,15.3c-1.2,5.2,0.3,10.5-0.5,15.7
		c-0.5,3.1,1.1,7.7,0.4,12.2C315.7,304.6,306.6,304.2,307.1,297.8"/>
	<line class="st0" x1="325.6" y1="248.3" x2="325.6" y2="248.3"/>
	<line class="st0" x1="325.6" y1="248.3" x2="325.6" y2="248.3"/>
	<line class="st0" x1="323.6" y1="250.8" x2="323.6" y2="250.8"/>
	<path class="st1" d="M307.1,250.3c-2.1-1.9-1.7-6.6,0.2-8.7c2-2.2,4-4.3,6.3-6.3c2.4-2.2,5.7-3.6,8.5-5c3.4-1.7,6.8-3.1,10.4-4.3
		c3.3-1.1,7.4-1.1,10.9-1.5c3.8-0.5,7,0.4,10.8,0.9c1.2,0.2,3.3,1.1,4.4,0.8c1.1-0.3,1.6-1.6,2.3-2.3c1.6-1.6,2.6-7,3.3-9.3
		c1.7-5.8,1.8-11.9,3-17.8c1.2-6,1.8-12.2,2.7-18.3c0.9-6.4,3.1-12.5,5.1-18.6c0.5-1.4,1.4-2.8,2.3-4c0.2-0.4,2.6-1.8,3.1-1.7
		c3.5,0.3,7,0.9,10.5,1.2c-2.4,1.8-4.8,4.6-5.8,7.5c-0.6,1.9-1.4,3-1.7,5.1c-0.3,1.9,0.3,3.6,0,5.6c-1,7.1-3.7,14.3-3.7,21.5
		c0,1.6-2,3.3-2.3,4.9c-0.3,1.6-0.3,3.4-0.7,4.9c-0.4,1.7-0.3,3.4-0.9,5.1c-0.5,1.6-0.9,3.3-1.2,4.9c-0.8,4-2,15.1-8,13.3
		c-10.7-3.2-23.2-1.5-32.9,4.4c-5.5,3.3-24.7,14.3-14.4,21.2C315.2,252.9,310.3,252.5,307.1,250.3"/>
	<line class="st0" x1="556.6" y1="320.8" x2="556.6" y2="320.8"/>
	<line class="st0" x1="556.6" y1="320.8" x2="556.6" y2="320.8"/>
	<line class="st0" x1="556.1" y1="320.8" x2="556.1" y2="320.8"/>
	<line class="st0" x1="556.1" y1="320.8" x2="556.1" y2="320.8"/>
	<line class="st0" x1="493.6" y1="287.3" x2="493.6" y2="287.3"/>
	<line class="st0" x1="493.6" y1="287.3" x2="493.6" y2="287.3"/>
	<path class="st1" d="M569.1,324.3c-4-1-8.1-2.1-12.1-3.1c-2.6-0.7-5.3-1.2-7.2-3.2c-4.5-4.5-8.5-10.2-11.7-15.8
		c-3.5-6.2-7.1-12.2-10.3-18.6c-0.7-1.4-1.5-3-2.1-4.3c-0.5-1-2-2.2-2-3.3c0-0.5-1.5-1-1.5-1.5c0-0.8-2.5-0.6-3-1.3
		c3.9,0.8,7.8,1.7,11.7,2.5c2,0.4,5,1.1,6.3,2.5c0.1,0.1,1.4,0.6,1.4,0.8c0,0.6,0.3-0.1,0.5,0.3c0.3,0.5,0.4,1.4,0.8,1.8
		c1,1,1.7,2.6,2.2,4c1,3,2.9,6.7,4.8,9.2c1,1.3,1.5,2.8,2.2,4.4c0.6,1.4,1.8,2.7,2.6,4c1.8,3.1,2.3,6.1,4.1,9.2
		C558.8,317.2,563,322.8,569.1,324.3"/>
	<line class="st0" x1="524.6" y1="278.8" x2="524.6" y2="278.8"/>
	<path class="st1" d="M500,344.3c1.9-11.6,1.3-23.3,3.6-34.8c1.1-5.6,3.4-11.2,5.1-16.6c0.2-0.5-0.6-3.1-0.8-3.1
		c-1.3-0.3-2.7-0.7-4-1c-3.3-0.8-6.6-1.7-10-2.5c0,3.1-1.6,6.1-2.1,9.1c-0.6,3.6-1.6,7-2.3,10.6c-1.5,7.4-1.8,15-3.5,22.4
		c-1.3,6-2.1,13.1-2.1,19.2c0,1.8,0.1,2.9,0.9,4.5c0.4,0.9,2.5,1.1,3.3,1.4c3.9,1.1,8,2,12,3.1C496.4,354.4,499.6,347.1,500,344.3
		L500,344.3z"/>
	<path class="st1" d="M501,287.8c0.9-2.6,2-5.9,3.9-7.8c2.2-2.2,4.5-4.2,7-6c6.1-4.6,12.3-6,19.6-8c1.5-0.4,3-1.4,4.6-1.6
		c2.6-0.3,3.9-0.3,6.4,0.4c1.6,0.5,8.5,2.3,8.5-0.6c0-0.8-0.3-2.3,0.1-3.3c0.7-1.8,1.5-3.5,1.9-5.4c0.7-3.5,2.6-7,3.5-10.4
		c1.3-5.2,2-10.7,2.9-16c0.9-5.7,0.5-11.3,1.3-17c0.7-5.6,3.1-11.5,4.8-16.8c1.6-4.7,1.7-11.1,6.4-13.4c-4.2-0.6-8.6-1.6-12.8-2.2
		c-3.6-0.5-4.5,3-5.9,5.6c-1.5,2.8-2.3,6.8-3.2,9.8c-1,3.6-1.6,7.3-2.5,11c-1.8,7.3-2.6,14.9-3.8,22.3c-0.3,1.7-0.7,4.6-0.8,5.6
		c-0.1,1.1-0.4,2.2-0.8,4.2c-0.4,2-1.2,7.1-1.8,10.6c-0.3,1.7-0.7,3.4-1.1,5.2c-0.5,1.8-0.9,3.2-1.7,4.8c-1.1,2.1-1.6,4.2-4.1,4.2
		c-1.6,0-3.1-0.9-4.8-1.1c-2.1-0.3-4.1-0.4-6.3-0.4c-3.6,0-7.4,0.9-10.7,2.3c-6.3,2.7-12.7,5.5-17.6,10.3c-4.4,4.4-9.3,8.9-9.3,15.6
		c0,3,2.3,4.2,4.8,4.8c3.9,0.8,7.8,1.7,11.7,2.5C497.3,295.5,500.1,290.6,501,287.8L501,287.8z"/>
	<g>
		<path class="st2" d="M498.7,337h-13.5c-2.4,0-4.3-1.9-4.3-4.3V92.6c0-2.4,1.9-4.3,4.3-4.3h13.5c2.4,0,4.3,1.9,4.3,4.3v240.1
			C503,335.1,501.1,337,498.7,337z"/>
		<path class="st3" d="M523.7,105.8h-86.8c-13.8,0-25-11.2-25-25V33c0-13.8,11.2-25,25-25h86.8c13.8,0,25,11.2,25,25v47.8
			C548.7,94.6,537.5,105.8,523.7,105.8z"/>
		<path class="st4" d="M502.8,137.2h-76.2c-16.7,0-30.3-13.6-30.3-30.3V69.7c0-16.7,13.6-30.3,30.3-30.3h76.2
			c16.7,0,30.3,13.6,30.3,30.3v37.2C533.1,123.6,519.6,137.2,502.8,137.2z"/>
		<path class="st5" d="M552,130.1h-86.8c-13.8,0-25-11.2-25-25V57.3c0-13.8,11.2-25,25-25H552c13.8,0,25,11.2,25,25v47.8
			C577,118.9,565.8,130.1,552,130.1z"/>
	</g>
</g>
<g>
	<line class="st0" x1="357.1" y1="226.3" x2="357.1" y2="226.3"/>
	<path class="st6" d="M393.6,270.3c-1.5-1-4.3-3.2-6.8-6c-2.4-2.8-4.6-6-6.8-8.5c-2.4-2.9-4.5-6-6.7-9.1c-0.9-1.3-1.7-2.8-2.6-4.1
		c-0.7-1.1-1.7-2.9-2.7-3.7c0.5,0.1,2.6-0.6,3.1-0.9c0.8-0.5,3.1-2.6,3.6-3.1c0.8-0.8,1.5-1.7,1.9-2.7c0.6-1.7,1.3-3.3,1.8-5
		c1.1-3.4,2.5-6.4,3.1-9.9c0.6-3.7,1.2-7.4,2-11.1c1.6-7.4,1.6-15.1,3.4-22.4c0.9-3.4,1.1-6.9,2.1-10.3c0.3-0.9,0.9-3.5,1.3-4.3
		c0.5-1.1,0.2-2.1,1-3.5c1.4-2.4,2.9-5.7,1.3-8.3c-2.7-4.1-4.7,0.1-6.5,2.8c-2,3-2.5,6.7-3.6,10.1c-1.2,3.5-1.8,7.5-2.3,11.1
		c-0.5,3.5-1.1,6.9-1.8,10.3c-0.7,3.5-0.7,7-1.6,10.5c-0.8,3.3-0.8,6.7-1.6,10c-0.8,3.3-1.2,6.7-2.3,10c-0.8,2.3-1.9,5.9-4.3,6.3
		c-1.6,0.2-3-0.3-4.4-0.8c-1.6-0.5-3.5-0.5-5.2-0.7c-6.8-0.9-15.6,0.4-21.8,3.5c-6,3-11.8,5.8-16.6,10.5c-1.9,1.9-4.5,4.8-4.5,7.7
		c0,2.4,1.5,5.9,4.5,5.3c1.1-0.2,2.4-1.7,2.9-2.7c0.6-1.3,1.5-2.2,2.6-3.3c-0.9,3.4-1.7,6.8-2.6,10.2c-0.9,3.6-1,7.3-1.8,10.9
		c-1.6,7.3-3.3,17.8-3.8,25.3c-0.2,3.1-0.4,3.7-0.4,6.9c0.1,3.5,2.6,6.7,5.7,3.6c1-1,2.3-2,2.3-3.6c0-1.9,0.2-3.7,0.5-5.6
		c0.6-3.4,0.7-6.9,1.2-10.4c1.3-7.5,2-15.1,3.3-22.6c0.5-3.2,1.7-6.6,2.5-9.7c0.4-1.5,0.7-2.8,1.4-4.2c0.3-0.6,0.4-1.2,0.6-1.8
		c0.3-0.6,0.8-1.1,1.1-1.8c2.5-5,8.6-7.7,14.1-7.7c2.7,0,4.9,0.1,6.8,2c0.5,0.5,1.3,1.6,2,2.5c0.8,1,2,2.6,2.6,3.7
		c1.3,2.6,3.2,4.8,4.7,7.3c1.6,2.7,3.8,4.9,5.7,7.5c3.5,4.8,6.8,9.8,11,14c2.5,2.5,8.9,8.8,12.5,6.5c2.1-1.3,2.5-4.1,2.5-6.3
		c0-1.1-0.6-2.6-1.5-3.3C395.8,270.7,395.1,271.3,393.6,270.3L393.6,270.3z"/>
	<path class="st6" d="M537.1,278.3c0.2,0.4,2.7,5.2,3.5,7c1.4,3.4,4.8,9.2,5.4,10.4c0.7,1.2,1,2.4,1.9,3.6c1.2,1.8,2.3,3.7,3.4,5.6
		c1.8,3.1,3.8,6.2,5.7,9.3c2,3.3,9.2,12,13.1,9.6c2.6-1.7,3.2-5.1,3-8c-0.2-3.4-3.1-2.6-5.2-4.7c-9.3-9.3-15.1-22.3-20.8-33.8
		c1,0.2,2.3-0.9,3.2-1.4c1.3-0.6,2-1.5,3-2.5c0.3-0.3,1.2-2.2,1.4-2.7c0.4-0.8,1-1.7,1.3-2.6c0.6-1.8,0.7-2.9,1.4-4.6
		c0.6-1.6,0.8-3.2,1.2-4.7c0.5-2,1.1-3.9,1.4-5.9c0.6-3.5,1.5-7,2.1-10.6c2.5-14.6,4.3-29.4,7.9-43.8c0.7-2.9,2.1-5.2,3-8
		c0.8-2.5,2.4-7.1-0.7-8.6c-1.6-0.8-2.2,0-3.3,1.4c-1.1,1.5-2,3-2.6,4.7c-1.2,3.5-2.6,6.9-3.5,10.6c-3.5,14-4.3,28.8-7.2,42.9
		c-0.7,3.5-1.6,7-2.2,10.6c-0.6,3.5-1.8,6.4-3,9.7c-0.4,1-0.8,2.1-1.5,3c-1,1.3-1.5,0.8-3,0.5c-1.8-0.4-3.6-0.7-5.4-1.2
		c-1.8-0.5-3.4,0.2-5.3,0.2c-7.5,0-14.4,3.6-20.7,7.4c-2.7,1.6-5.2,4.1-7.6,6.1c-2.4,2-4.5,4.5-5.9,7.2c-0.9,1.8-2.6,3.7-2.6,6
		c0,2.1,0.1,5,2,5.8c1.9,0.7,3.6-0.7,4.4-2.2c0.9-1.7,2-3.1,3.1-4.8c-0.7,3.6-1.6,7.4-2.8,10.9c-1.2,3.5-1.4,7.5-2.1,11.2
		c-1.4,7.3-2.3,14.6-3.2,22c-0.5,3.7-0.9,7.4-1.5,11.1c-0.5,3-1.7,6.9-0.3,9.7c2,4.1,4.9,1.4,6.4-1.8c0.7-1.5,0.6-3.2,0.9-4.8
		c0.4-1.7,0.6-3.6,0.8-5.4c1.5-14.8,3.5-29.7,7.1-44.1c1.5-6,2.5-11.5,6.7-16.2c1.3-1.5,2.7-3.1,5.3-4c2.6-0.9,3.7-1.3,4.5-1.4
		c0.8-0.2,1.3-0.2,2-0.2c0.7,0,1.1,0,2,0.1S536.9,277.9,537.1,278.3L537.1,278.3z"/>
</g>
<g>
	<line class="st0" x1="294.6" y1="148.8" x2="294.6" y2="148.8"/>
	<line class="st0" x1="294.6" y1="148.8" x2="294.6" y2="148.8"/>
	<line class="st0" x1="294.6" y1="148.8" x2="294.6" y2="148.8"/>
	<line class="st0" x1="294.6" y1="148.8" x2="294.6" y2="148.8"/>
	<line class="st0" x1="294.6" y1="148.8" x2="294.6" y2="148.8"/>
	<polygon class="st7" points="293.1,147.8 595.6,191.3 596.1,191.8 596.1,192.3 595.6,193.3 594.6,195.3 594.1,196.8 593.4,198.6 
		592.9,200.6 592.4,202.1 592.1,202.8 591.9,203.5 591.9,203.9 591.7,204.4 591.6,204.9 591.1,205.3 289.6,158.3 289,157.9 
		288.6,157.3 288.4,156.6 288.4,156.1 288.4,155.2 288.5,154.5 288.9,153.4 289.1,152.8 289.6,151.8 289.9,151.2 290.4,150.2 
		290.7,149.6 291.2,148.7 291.9,148.2 292.6,147.8 	"/>
	<polygon class="st7" points="279.9,199.7 279.7,200.1 279.6,200.6 279.4,201.2 279.3,201.6 279.2,202.1 279.1,202.8 279.1,203.3 
		279.1,204.3 279.1,205.3 279.3,206 279.6,206.8 280.1,207.3 579.6,266.8 580.1,266.7 580.4,265.9 580.6,264.3 581,262.9 
		581.3,261.4 581.6,259.7 581.9,258.3 582.1,257.3 582.3,256.3 582.5,255.3 582.6,254.3 582.7,253 582.6,252.3 283.1,195.8 
		282.6,195.8 281.9,196.1 281.1,196.7 280.6,197.3 280.3,198.1 280.1,198.8 280,199.3 	"/>
	<line class="st0" x1="284.1" y1="190.3" x2="284.1" y2="190.3"/>
	<line class="st0" x1="284.1" y1="190.8" x2="284.1" y2="190.8"/>
	<line class="st0" x1="284.1" y1="190.8" x2="284.1" y2="190.8"/>
	<polygon class="st7" points="285.6,179.3 285.1,179.5 284.4,179.8 283.6,180.3 283.2,180.8 282.9,181.5 282.6,182.5 282.4,183.3 
		282.3,184.2 282.1,184.8 282.1,185.8 282.1,186.8 282.1,187.3 282.1,188.3 282.1,189.3 282.3,189.9 282.6,190.3 283.4,191 
		284.1,191.3 583.6,246.3 584.1,246.3 584.3,245.7 584.3,245 584.4,243.9 584.6,242.8 585,240.4 585.4,238.3 585.6,236.3 
		586.1,233.8 586.2,232.2 586.1,231.3 	"/>
	<polygon class="st7" points="288.6,163.3 590.1,210.8 589.6,212.8 589.1,215.8 588.6,218.3 588.1,220.8 587.6,223.3 587.1,225.8 
		286.6,174.8 285.9,174.6 285.1,174 284.7,173.5 284.6,172.8 284.6,171.8 284.6,170.8 284.6,169.8 284.6,169.3 284.8,168.2 
		285,167.3 285.1,166.8 285.4,165.8 285.6,164.8 286.1,164.2 286.5,163.7 287.1,163.3 287.9,163.2 	"/>
	<line class="st0" x1="575.1" y1="273.3" x2="575.1" y2="273.3"/>
	<polygon class="st7" points="275.7,212.6 275.5,212.8 275.1,212.7 274.8,212.5 274,212.6 273.4,212.7 273,212.9 272.3,213.4 
		271.6,214.2 271.5,215 271.8,215.4 272.3,215.6 272.7,215.7 273.1,215.8 273.6,215.9 274,216 274.3,216.1 275.1,216.3 574.6,278.3 
		574.8,278.2 575.4,278 575.6,277.8 575.9,277.5 576.1,277.3 576.4,277.1 576.6,276.8 576.9,276.4 577.1,275.8 577.4,275.4 
		577.6,274.8 578,274.1 578.1,273.3 578.1,272.9 577.6,272.2 577.1,271.8 278.1,211.3 277.6,211.3 276.9,211.6 276.4,212 
		276.1,212.3 	"/>
	<line class="st0" x1="560.6" y1="276.8" x2="560.6" y2="276.8"/>
	<line class="st0" x1="560.6" y1="276.8" x2="560.6" y2="276.8"/>
	<polygon class="st7" points="259.1,214.3 560.6,277.3 561.8,277.4 563.4,277.3 564.9,277.2 566.3,277.1 567.4,277 568.5,276.7 
		568.6,275.8 568.6,274.3 568.3,273.3 568.1,272.8 567.6,272.3 266.6,210.8 266.1,210.7 265.5,210.7 264.5,210.6 264,210.6 
		263.5,210.6 262.5,210.7 262.1,210.7 261.6,210.8 260.6,211.3 260.1,211.8 259.6,212.3 259.1,213.3 	"/>
	<line class="st0" x1="552" y1="275.6" x2="552" y2="275.6"/>
	<line class="st0" x1="552.6" y1="275.3" x2="552.6" y2="275.3"/>
	<line class="st0" x1="553.6" y1="274.8" x2="553.6" y2="274.8"/>
	<line class="st0" x1="553.9" y1="274.6" x2="553.9" y2="274.6"/>
	<polygon class="st7" points="246.1,216.8 549.1,281.3 549.6,281.3 550.7,280.9 551.3,280.5 551.9,280.3 552.7,279.9 553.3,279.6 
		554.1,279.3 554.7,279 555.3,278.9 556.2,278.6 557.1,278.1 557.5,277.7 557.3,276.7 557.1,275.8 556.6,274.8 556.1,274.3 
		254.1,211.8 253.1,211.7 252.5,211.7 252,211.7 251.5,211.7 251,211.7 250.5,211.7 249.9,211.9 249.3,212.1 248.8,212.2 
		248.4,212.3 247.6,212.8 247.1,213.3 246.5,214.2 246.1,214.8 245.9,216 	"/>
	<polygon class="st7" points="233.1,222.8 537.1,290.3 537.9,290 538.4,289.5 538.9,289 539.9,288 541.3,286.9 542.1,286.3 
		543.2,285.4 544.6,284.3 545.6,283.3 545.6,282.8 545.1,281.8 544.6,280.8 241.1,216.3 240.2,215.9 239.6,215.8 238.7,216.1 
		238.1,216.3 237.4,216.6 236.7,217 236.1,217.3 235.5,217.7 234.6,218.3 234.1,218.8 233.6,219.3 232.9,220.2 232.6,220.8 
		232.6,221.8 	"/>
	<line class="st0" x1="222.6" y1="235.3" x2="222.6" y2="235.3"/>
	<line class="st0" x1="222.1" y1="234.8" x2="222.1" y2="234.8"/>
	<line class="st0" x1="222.1" y1="234.8" x2="222.1" y2="234.8"/>
	<line class="st0" x1="229.1" y1="225.3" x2="229.1" y2="225.3"/>
	<line class="st0" x1="229.1" y1="225.3" x2="229.1" y2="225.3"/>
	<line class="st0" x1="229.1" y1="225.3" x2="229.1" y2="225.3"/>
	<line class="st0" x1="229.1" y1="225.3" x2="229.1" y2="225.3"/>
	<polygon class="st7" points="222.6,235.3 527.6,306.8 527.9,306.5 527.9,305.5 527.9,304.5 528.2,303.5 528.3,302.9 528.6,302.3 
		529.1,300.8 530.1,299.3 530.6,298.3 531.4,297.2 532.2,295.9 533.2,294.9 533.6,294.3 533.7,293.8 533.6,293.3 532.6,292.3 
		228.1,224.3 227.6,224.3 226.6,224.3 226.1,224.8 225.1,225.3 224.6,225.8 224.1,226.3 223.1,227.3 222.6,227.8 222.1,228.8 
		221.6,229.8 221.1,230.8 221.1,231.3 221.1,232.3 221.1,233.3 221.6,234.3 222.1,234.8 	"/>
</g>
<g transform="matrix(.93372 0 0 .93372 -372.09 308.58)">
	
		<linearGradient id="SVGID_1_" gradientUnits="userSpaceOnUse" x1="904.4442" y1="323.9883" x2="1190.9198" y2="294.5962" gradientTransform="matrix(0.9337 0 0 -0.9337 -372.019 173.491)">
		<stop  offset="0" style="stop-color:#000000"/>
		<stop  offset="1" style="stop-color:#000000;stop-opacity:0"/>
	</linearGradient>
	<path class="st8" d="M480.9-20.7c-1.5-0.4-5.1-1.2-8-1.8c-10.5-2.3-12.8-3.4-16.4-7.4c-4.8-5.4,2.9-8.8,1.8-17.3
		c-0.6-4.9-0.6-5,1.2-19.8l1.9-14.9l2.5-7.7c1.4-4.2,2.7-8,3.1-8.3s1.8-3.9,3.4-7.9c1.5-4,3.7-9.3,4.9-11.8c1.2-2.5,2.2-5.3,2.3-6.3
		c0.2-1.8,4.7-11.4,7.3-15.6c0.8-1.4,2.3-3.5,3.3-4.7c1-1.2,2.7-3.6,3.9-5.3c2.7-3.9,16-19.1,18-20.4c0.2-0.1,1.2-1.2,2.3-2.4
		c4.9-5.2,17-14.5,25-19.4c1.3-0.8,3.6-2.2,5.1-3.2c3.7-2.4,14.6-8,19.7-10c2.3-0.9,5.3-2.1,6.7-2.7c10.6-4.3,24.8-7.9,28.7-7.5
		c1.8,0.2,26.4-2.8,28.1-3.4c0.7-0.3,4-0.6,7.2-0.7c3.2-0.1,6.6-0.3,7.5-0.4c2.2-0.3,24.8,2.6,25.1,3.2c0.1,0.2,0.9,0.5,1.8,0.6
		c3.1,0.3,9.1,2.8,12,5.1c3.4,2.7,7.3,7.3,10.1,12c4,6.9,4.3,10.1,2.7,26.2c-1.7,16.4-4,26.9-9.3,43.3
		c-4.6,14.2-27.6,28.8-36.8,41.1c-27.8,37.3-64,55.7-112.4,67.8c-9.4,2.3-13.5,1.4-22.4,1.2c-3.7-0.1-8.8,0-11.3,0.1
		C494.9-18.6,485.7-19.5,480.9-20.7L480.9-20.7z"/>
</g>
<g transform="matrix(.93372 0 0 .93372 -4.9256 110.33)">
	
		<radialGradient id="SVGID_2_" cx="158.142" cy="2012.0771" r="109.5717" gradientTransform="matrix(1.5458 -2.054702e-02 -1.799447e-03 -0.1342 -126.9401 465.1731)" gradientUnits="userSpaceOnUse">
		<stop  offset="0" style="stop-color:#000000"/>
		<stop  offset="1" style="stop-color:#000000;stop-opacity:0"/>
	</radialGradient>
	<path class="st9" d="M277.2,191.3c0,6.2-46.8,11.3-104.5,11.3s-104.5-5-104.5-11.3c0-6.2,46.8-11.3,104.5-11.3
		S277.2,185,277.2,191.3z"/>
	
		<linearGradient id="SVGID_3_" gradientUnits="userSpaceOnUse" x1="7.7005" y1="132.8125" x2="305.9389" y2="418.8158" gradientTransform="matrix(0.9337 0 0 -0.9337 -4.8546 371.741)">
		<stop  offset="0" style="stop-color:#782121"/>
		<stop  offset="0.5504" style="stop-color:#A02C2C"/>
		<stop  offset="1" style="stop-color:#782121"/>
	</linearGradient>
	<path class="st10" d="M97,197.1c-1.6-0.2-5.3-0.5-8.2-0.8c-10.7-1-13.1-1.8-17.2-5.3c-5.5-4.7-9-10.9-11.1-19.3
		c-1.2-4.8-1.2-4.9-1.2-19.8l0-15l1.5-7.9c0.8-4.4,1.7-8.2,2-8.6c0.3-0.4,1.4-4.1,2.4-8.2c1-4.2,2.5-9.7,3.4-12.4
		c0.8-2.6,1.5-5.6,1.5-6.5c0-1.8,3.2-11.8,5.3-16.4c0.7-1.5,1.9-3.8,2.7-5.1c0.8-1.3,2.3-3.9,3.2-5.7c2.2-4.2,13.5-21,15.3-22.5
		c0.1-0.1,1.1-1.3,2-2.6c4.2-5.7,15.1-16.5,22.4-22.3c1.2-1,3.3-2.7,4.6-3.8c3.4-2.9,13.5-9.7,18.3-12.4c2.2-1.2,5-2.8,6.3-3.5
		c10-5.6,23.6-10.9,27.5-10.9c1.8,0,25.9-6,27.4-6.9c0.7-0.4,3.9-1.1,7-1.6s6.5-1.1,7.4-1.3c2.1-0.6,25-0.5,25.3,0.1
		c0.1,0.2,1,0.4,1.9,0.4c3.1-0.1,9.3,1.7,12.6,3.6c3.7,2.2,8.2,6.4,11.5,10.7c4.8,6.3,5.6,9.5,5.9,25.7c0.4,16.5-0.6,27.2-3.9,44.1
		c-2.8,14.6-10.7,35.6-18.2,49c-22.9,40.5-59.2,67.8-105.5,79.4c-9.4,2.4-13.2,3-22.1,4c-3.6,0.4-8.7,1-11.3,1.5
		C111.2,197.4,102,197.6,97,197.1L97,197.1z"/>
	<path class="st11" d="M175.3,76.4c-0.5,0-0.7,0.3-0.5,0.9c0.1,0.5,0,1.1-0.4,1.4c-0.5,0.4-0.5,0.6-0.1,1.1c0.2,0.2,0.3,0.3,0.4,0.3
		c0.2,0,0.3-0.3,0.4-0.9c0.2-0.6,0.4-1.5,0.6-1.9C176,76.6,175.9,76.4,175.3,76.4z"/>
	<path class="st11" d="M188,79.8c0-0.2-0.5-0.5-1.1-0.5c-0.2,0-0.4,0-0.5,0v0c-0.4,0-0.4,0.2-0.2,0.4c0.8,0.8,0.6,1.6-0.7,2.2
		c-1.2,0.6-2,2.1-1,2.1c0.3,0,0.5-0.3,0.5-0.7c0-0.4,0.3-0.8,0.8-1C186.6,82,188,80.4,188,79.8z"/>
	<path class="st11" d="M198.9,61.2c0,0,0.1,0,0.2-0.1c0.2-0.2,0.5-1.5,0.6-2.8c0.1-1.3,0-2-0.1-2c-0.2,0-0.5,1-0.7,2.8
		C198.8,60.5,198.8,61.2,198.9,61.2z"/>
	<path class="st11" d="M197.5,59.7c-0.4,0-0.7,0.4-0.7,0.9c0,0.5-0.3,0.9-0.6,0.9c-0.7,0-1.4,1.7-0.9,2.1c0,0,0.1,0.1,0.1,0.1
		c0.1,0,0.3-0.1,0.4-0.3c0.1-0.3,0.7-1.1,1.3-1.8c0.6-0.7,1.1-1.4,1.1-1.6C198.2,59.8,197.9,59.7,197.5,59.7z"/>
	<path class="st11" d="M161,116.3c0.3-0.4,0.2-0.8-0.2-1.1c-0.4-0.3-0.5-0.9-0.4-1.4c0.2-0.7,0-1-0.5-1v0c-0.6,0-0.7,0.2-0.5,1
		c0.2,0.5,0.4,1.4,0.5,1.8c0.2,0.8,0.4,1.1,0.6,1.1C160.6,116.7,160.8,116.6,161,116.3z"/>
	<path class="st11" d="M195.5,70.2c0-0.2-0.2-0.4-0.4-0.4s-0.4,0.4-0.4,0.8c0,0.4-0.2,1-0.5,1.3c-0.3,0.3-0.4,0.9-0.3,1.3
		c0.1,0.2,0.1,0.3,0.2,0.3c0.1,0,0.4-0.4,0.7-1.2C195.2,71.4,195.5,70.4,195.5,70.2z"/>
	<path class="st11" d="M135.4,134.2L135.4,134.2c0,0-0.1,0-0.2,0.1c-0.2,0.2-0.5,1.5-0.6,2.8c-0.3,3.1,0.5,2.3,0.8-0.9
		C135.6,134.9,135.6,134.2,135.4,134.2z"/>
	<path class="st11" d="M136.9,135.7c0.4,0,0.7-0.4,0.7-0.9c0-0.5,0.3-0.9,0.6-0.9c0.7,0,1.4-1.7,0.9-2.1c0,0-0.1-0.1-0.1-0.1
		c0,0-0.1,0-0.1,0c-0.1,0-0.2,0.1-0.2,0.3c-0.1,0.3-0.7,1.1-1.3,1.8c-0.6,0.7-1.1,1.4-1.1,1.6C136.2,135.6,136.5,135.7,136.9,135.7z
		"/>
	<path class="st11" d="M143.9,121c-0.2-0.5-0.4-1.4-0.5-1.8c-0.2-0.8-0.4-1.1-0.6-1.1c-0.1,0-0.3,0.1-0.5,0.4
		c-0.3,0.4-0.2,0.8,0.2,1.1c0.4,0.3,0.5,0.9,0.4,1.4c-0.2,0.7,0,1,0.5,1C144.1,122,144.2,121.8,143.9,121z"/>
	<path class="st11" d="M138.8,125.2c0,0.2,0.2,0.4,0.4,0.4c0.2,0,0.4-0.4,0.4-0.8s0.2-1,0.5-1.3c0.3-0.3,0.4-0.9,0.3-1.3
		c-0.1-0.2-0.1-0.3-0.2-0.3v0c-0.1,0-0.4,0.4-0.7,1.2C139.2,124,138.8,125,138.8,125.2z"/>
	<path class="st11" d="M190.9,73.4c-0.1,0-0.1,0-0.2,0c-0.4,0.1-0.5,0.3-0.3,1c0.2,0.5,0.4,1.4,0.5,1.8c0.2,0.8,0.4,1.1,0.6,1.1
		c0.1,0,0.3-0.1,0.5-0.4c0.3-0.4,0.2-0.8-0.2-1.1c-0.4-0.3-0.5-0.9-0.4-1.4C191.6,73.6,191.5,73.4,190.9,73.4z"/>
	<path class="st11" d="M149.9,111.4c-0.3,0-0.5,0.3-0.5,0.7c0,0.4-0.3,0.8-0.8,1c-0.9,0.3-2.3,1.9-2.3,2.6c0,0.2,0.5,0.5,1.1,0.5
		c0.8,0,1-0.1,0.7-0.4c-0.8-0.8-0.6-1.6,0.7-2.2C150.1,113,150.8,111.4,149.9,111.4z"/>
	<path class="st11" d="M191.2,70.1c0.1,0.4,0.2,0.6,0.2,0.6c0.1,0,0.2-0.3,0.5-0.8c0.3-0.6,0.8-1.6,1.2-2.1c0.5-0.6,0.5-1,0.2-1
		c-0.3,0-0.7,0.5-0.9,1.1c-0.2,0.6-0.6,1.1-0.9,1.2C191.3,69.1,191.1,69.6,191.2,70.1z"/>
	<path class="st11" d="M195.5,60.1c0.2,0,0.6-0.5,0.9-1.1c0.2-0.6,0.7-1.1,1-1.1c0.3,0,0.7-0.3,0.9-0.7c0.2-0.4,0.1-0.6,0-0.6
		c-0.3,0-0.9,0.4-1.8,1.3C195.1,59.3,194.7,60.1,195.5,60.1z"/>
	<path class="st11" d="M173,18c-0.2,0-0.4,0-0.5,0c-0.4,0-0.4,0.2-0.2,0.4c0.8,0.8,0.6,1.6-0.7,2.2c-1.2,0.6-2,2.1-1,2.1
		c0.3,0,0.5-0.3,0.5-0.7c0-0.4,0.3-0.8,0.8-1c0.9-0.3,2.3-1.9,2.3-2.6C174.2,18.3,173.7,18,173,18z"/>
	<path class="st11" d="M181.2,8.6c-0.2,0-0.4,0.4-0.4,0.8c0,0.4-0.2,1-0.5,1.3c-0.3,0.3-0.4,0.9-0.3,1.3c0.1,0.2,0.1,0.3,0.2,0.3
		c0.1,0,0.4-0.4,0.7-1.2c0.4-0.9,0.7-1.9,0.7-2.1C181.7,8.8,181.5,8.6,181.2,8.6z"/>
	<path class="st11" d="M125.3,68.8c0.1,0.5,0,1.1-0.4,1.4c-0.5,0.4-0.5,0.6-0.1,1.1c0.2,0.2,0.3,0.3,0.4,0.3c0.2,0,0.3-0.3,0.4-0.9
		c0.2-0.6,0.4-1.5,0.6-1.9c0.2-0.6,0.1-0.8-0.4-0.8C125.3,68,125.2,68.2,125.3,68.8z"/>
	<path class="st11" d="M148.9,44.6c-0.4,0-0.7,0.4-0.7,0.9c0,0.5-0.3,0.9-0.6,0.9c-0.7,0-1.4,1.7-0.9,2.1c0,0,0.1,0.1,0.1,0.1
		c0.1,0,0.3-0.1,0.4-0.3c0.1-0.3,0.7-1.1,1.3-1.8c0.6-0.7,1.1-1.4,1.1-1.6C149.5,44.7,149.2,44.6,148.9,44.6z"/>
	<path class="st11" d="M145.2,58.1c0.1,0.2,0.1,0.3,0.2,0.3c0.1,0,0.4-0.4,0.7-1.2c0.4-0.9,0.7-1.9,0.7-2.1c0-0.2-0.2-0.4-0.4-0.4
		c-0.2,0-0.4,0.4-0.4,0.8c0,0.4-0.2,1-0.5,1.3C145.2,57.1,145.1,57.7,145.2,58.1z"/>
	<path class="st11" d="M138.2,64.1c-0.2,0-0.4,0-0.5,0c-0.4,0-0.4,0.2-0.2,0.4c0.8,0.8,0.6,1.6-0.7,2.2c-1.2,0.6-2,2.1-1,2.1
		c0.3,0,0.5-0.3,0.5-0.7c0-0.4,0.3-0.8,0.8-1c0.9-0.3,2.3-1.9,2.3-2.6C139.4,64.4,138.9,64.2,138.2,64.1z"/>
	<path class="st11" d="M141.8,59.2c0.2,0.5,0.4,1.4,0.5,1.8c0.2,0.8,0.4,1.1,0.6,1.1c0.1,0,0.3-0.1,0.5-0.4c0.3-0.4,0.2-0.8-0.2-1.1
		c-0.4-0.3-0.5-0.9-0.4-1.4c0.2-0.7,0-1-0.5-1C141.6,58.3,141.5,58.5,141.8,59.2z"/>
	<path class="st11" d="M167.9,100.6c0,0,0.1,0,0.2-0.1c0.2-0.2,0.5-1.5,0.6-2.8c0.1-1.3,0-1.9-0.1-1.9c-0.2,0-0.5,1-0.7,2.8
		C167.7,99.9,167.7,100.6,167.9,100.6z"/>
	<path class="st11" d="M166.5,99.1c-0.4,0-0.7,0.4-0.7,0.9c0,0.5-0.3,0.9-0.6,0.9c-0.7,0-1.4,1.7-0.9,2.1c0,0,0.1,0.1,0.1,0.1
		c0.1,0,0.3-0.1,0.4-0.3c0.1-0.3,0.7-1.1,1.3-1.8c0.6-0.7,1.1-1.4,1.1-1.6C167.1,99.2,166.8,99.1,166.5,99.1z"/>
	<path class="st11" d="M164.5,109.6c0-0.2-0.2-0.4-0.4-0.4c-0.2,0-0.4,0.4-0.4,0.8c0,0.4-0.2,1-0.5,1.3c-0.3,0.3-0.4,0.9-0.3,1.3
		c0.1,0.2,0.1,0.3,0.2,0.3c0.1,0,0.4-0.4,0.7-1.2C164.2,110.8,164.5,109.8,164.5,109.6z"/>
	<path class="st11" d="M167.3,96.7c0.2-0.5,0.1-0.7-0.1-0.6h0c-0.3,0.1-0.9,0.5-1.8,1.3c-0.2,0.2-0.4,0.4-0.6,0.6c0,0,0,0,0,0
		c-0.1,0-0.3,0.2-0.5,0.4c-0.1,0.1-0.1,0.2,0,0.3c-0.3,0.5-0.2,0.8,0.2,0.8c0.2,0,0.6-0.5,0.9-1.1c0.2-0.6,0.7-1.1,1-1.1
		S167.2,97,167.3,96.7z"/>
	<path class="st11" d="M162.3,106.2L162.3,106.2c-0.3,0-0.7,0.5-0.9,1.1c-0.2,0.6-0.6,1.1-0.9,1.2c-0.3,0.1-0.4,0.6-0.3,1
		c0.1,0.4,0.2,0.6,0.2,0.6c0.1,0,0.2-0.3,0.5-0.8c0.3-0.6,0.8-1.6,1.2-2.1C162.6,106.5,162.6,106.2,162.3,106.2z"/>
	<path class="st11" d="M232.4,29.9c0.2,0,0.6-0.5,0.9-1.1c0.2-0.6,0.7-1.1,1-1.1s0.7-0.3,0.9-0.7c0.2-0.5,0.1-0.7-0.1-0.6
		c-0.3,0.1-0.9,0.5-1.8,1.3C232,29.1,231.6,29.9,232.4,29.9z"/>
	<path class="st11" d="M209.2,33.5c0.2,0.2,0.3,0.3,0.4,0.3c0.2,0,0.3-0.3,0.4-0.9c0.2-0.6,0.4-1.5,0.6-1.9c0.2-0.6,0.1-0.8-0.4-0.8
		c-0.5,0-0.7,0.3-0.5,0.9c0.1,0.5,0,1.1-0.4,1.4C208.8,32.8,208.8,33.1,209.2,33.5z"/>
	<path class="st11" d="M249.7,17.9c0.4,0,0.7-0.4,0.7-0.9c0-0.5,0.3-0.9,0.6-0.9c0.7,0,1.4-1.7,0.9-2.1c0,0-0.1-0.1-0.1-0.1
		c0,0-0.1,0-0.1,0c-0.1,0-0.2,0.1-0.2,0.3c-0.1,0.3-0.7,1.1-1.3,1.8c-0.6,0.7-1.1,1.4-1.1,1.6C249,17.7,249.3,17.9,249.7,17.9z"/>
	<path class="st11" d="M260.7,64c0.2-0.6,0.4-1.5,0.6-1.9c0.2-0.6,0.1-0.8-0.4-0.8c-0.5,0-0.7,0.3-0.5,0.9c0.1,0.5,0,1.1-0.4,1.4
		c-0.5,0.4-0.5,0.6-0.1,1.1c0.2,0.2,0.3,0.3,0.4,0.3C260.5,64.8,260.6,64.6,260.7,64z"/>
	<path class="st11" d="M232,39.6c-0.2,0-0.4,0.4-0.4,0.8c0,0.4-0.2,1-0.5,1.3c-0.3,0.3-0.4,0.9-0.3,1.3c0.1,0.2,0.1,0.3,0.2,0.3
		c0.1,0,0.4-0.4,0.7-1.2c0.4-0.9,0.7-1.9,0.7-2.1C232.4,39.8,232.2,39.6,232,39.6z"/>
	<path class="st11" d="M234.4,29.5c-0.4,0-0.7,0.4-0.7,0.9c0,0.5-0.3,0.9-0.6,0.9c-0.7,0-1.4,1.7-0.9,2.1c0,0,0.1,0.1,0.1,0.1
		c0.1,0,0.3-0.1,0.4-0.3c0.1-0.3,0.7-1.1,1.3-1.8c0.6-0.7,1.1-1.4,1.1-1.6C235.1,29.6,234.8,29.5,234.4,29.5z"/>
	<path class="st11" d="M228.4,38.8c-0.3,0.1-0.4,0.6-0.3,1c0.1,0.4,0.2,0.6,0.2,0.6c0.1,0,0.2-0.3,0.5-0.8c0.3-0.6,0.8-1.6,1.2-2.1
		c0.5-0.6,0.5-1,0.2-1c-0.3,0-0.7,0.5-0.9,1.1C229.1,38.2,228.7,38.7,228.4,38.8z"/>
	<path class="st11" d="M227.3,44.1c0.2,0.5,0.4,1.4,0.5,1.8c0.2,0.8,0.4,1.1,0.6,1.1c0.1,0,0.3-0.1,0.5-0.4c0.3-0.4,0.2-0.8-0.2-1.1
		c-0.4-0.3-0.5-0.9-0.4-1.4c0.2-0.7,0-1-0.5-1C227.2,43.2,227.1,43.4,227.3,44.1z"/>
	<path class="st11" d="M248.2,16.3c0,0-0.1,0-0.2,0.1c-0.2,0.2-0.5,1.5-0.6,2.8c-0.3,3.1,0.5,2.3,0.8-0.9
		C248.4,17,248.4,16.4,248.2,16.3z"/>
	<path class="st11" d="M235.8,31c0,0,0.1,0,0.2-0.1c0.2-0.2,0.5-1.5,0.6-2.8c0.1-1.3,0-1.9-0.1-1.9c-0.2,0-0.5,1-0.7,2.8
		C235.7,30.3,235.7,31,235.8,31z"/>
	<path class="st11" d="M161.8,21.3c0.2,0.2,0.3,0.3,0.4,0.3c0.2,0,0.3-0.3,0.4-0.9c0.2-0.6,0.4-1.5,0.6-1.9c0.2-0.6,0.1-0.8-0.4-0.8
		c-0.5,0-0.7,0.3-0.5,0.9c0.1,0.5,0,1.1-0.4,1.4C161.4,20.7,161.4,20.9,161.8,21.3z"/>
	<path class="st11" d="M176.6,13.1c0.2,0.5,0.4,1.4,0.5,1.8c0.2,0.8,0.4,1.1,0.6,1.1c0.1,0,0.3-0.1,0.5-0.4c0.3-0.4,0.2-0.8-0.2-1.1
		c-0.4-0.3-0.5-0.9-0.4-1.4c0.2-0.7,0-1-0.5-1C176.5,12.1,176.4,12.4,176.6,13.1z"/>
	<path class="st11" d="M140.1,182.8c0.6,0,0.7-0.2,0.5-1c-0.2-0.5-0.4-1.4-0.5-1.8c-0.2-0.8-0.4-1.1-0.6-1.1c-0.1,0-0.3,0.1-0.5,0.4
		c-0.3,0.4-0.2,0.8,0.2,1.1c0.4,0.3,0.5,0.9,0.4,1.4C139.4,182.6,139.6,182.8,140.1,182.8z"/>
	<path class="st11" d="M145.5,174.4c1.2-0.6,2-2.1,1-2.1c-0.3,0-0.5,0.3-0.5,0.7c0,0.4-0.3,0.8-0.8,1c-0.9,0.3-2.3,1.9-2.3,2.6
		c0,0.2,0.5,0.5,1.1,0.5c0.8,0,1-0.1,0.7-0.4C144,175.7,144.2,175,145.5,174.4z"/>
	<path class="st11" d="M96.5,47.1c0,0.4-0.2,1-0.5,1.3c-0.3,0.3-0.4,0.9-0.3,1.3c0.1,0.2,0.1,0.3,0.2,0.3c0.1,0,0.4-0.4,0.7-1.2
		c0.4-0.9,0.7-1.9,0.7-2.1s-0.2-0.4-0.4-0.4S96.5,46.7,96.5,47.1z"/>
	<path class="st11" d="M91.5,182c0.6,0,0.7-0.2,0.5-1c-0.2-0.5-0.4-1.4-0.5-1.8c-0.2-0.8-0.4-1.1-0.6-1.1c-0.1,0-0.3,0.1-0.5,0.4
		c-0.3,0.4-0.2,0.8,0.2,1.1c0.4,0.3,0.5,0.9,0.4,1.4C90.8,181.7,90.9,182,91.5,182z"/>
	<path class="st11" d="M142.6,55c0.1,0.4,0.2,0.6,0.2,0.6c0.1,0,0.2-0.3,0.5-0.8c0.3-0.6,0.8-1.6,1.2-2.1c0.5-0.6,0.5-1,0.2-1
		c-0.3,0-0.7,0.5-0.9,1.1c-0.2,0.6-0.6,1.1-0.9,1.2S142.5,54.5,142.6,55z"/>
	<path class="st11" d="M239.7,87.2c-0.2-0.2-0.3-0.3-0.4-0.3c-0.2,0-0.3,0.3-0.4,0.9c-0.2,0.6-0.4,1.5-0.6,1.9
		c-0.2,0.6-0.1,0.8,0.4,0.8c0.5,0,0.7-0.3,0.5-0.9c-0.1-0.5,0-1.1,0.4-1.4C240.1,87.9,240.1,87.7,239.7,87.2z"/>
	<path class="st11" d="M223.8,94.2c0.2-0.6,0.4-1.5,0.6-1.9c0.2-0.6,0.1-0.8-0.4-0.8c-0.1,0-0.1,0-0.2,0c-0.4,0.1-0.5,0.3-0.3,0.9
		c0.1,0.5,0,1.1-0.4,1.4c-0.5,0.4-0.5,0.6-0.1,1.1c0.2,0.2,0.3,0.3,0.4,0.3C223.6,95,223.7,94.8,223.8,94.2z"/>
	<path class="st11" d="M193,130.9c-0.5,0-0.7,0.3-0.5,0.9c0.1,0.5,0,1.1-0.4,1.4c-0.5,0.4-0.5,0.6-0.1,1.1c0.2,0.2,0.3,0.3,0.4,0.3
		c0.2,0,0.3-0.3,0.4-0.9c0.2-0.6,0.4-1.5,0.6-1.9C193.6,131.1,193.5,130.9,193,130.9z"/>
	<path class="st11" d="M110.4,103.9c0.5,0,0.7-0.3,0.5-0.9c-0.1-0.5,0-1.1,0.4-1.4c0.5-0.4,0.5-0.6,0.1-1.1
		c-0.2-0.2-0.3-0.3-0.4-0.3c-0.2,0-0.3,0.3-0.4,0.9c-0.2,0.6-0.4,1.5-0.6,1.9C109.7,103.7,109.8,103.9,110.4,103.9z"/>
	<path class="st11" d="M143.1,125.3c-0.1-0.4-0.2-0.6-0.2-0.6c-0.1,0-0.2,0.3-0.5,0.8c-0.3,0.6-0.8,1.6-1.2,2.1
		c-0.5,0.6-0.5,1-0.2,1c0.3,0,0.7-0.5,0.9-1.1s0.6-1.1,0.9-1.2C143.1,126.3,143.3,125.8,143.1,125.3z"/>
	<path class="st11" d="M138.8,135.3c-0.2,0-0.6,0.5-0.9,1.1c-0.2,0.6-0.7,1.1-1,1.1s-0.7,0.3-0.9,0.7c-0.4,1.1,0.4,0.8,1.9-0.7
		C139.3,136.1,139.6,135.3,138.8,135.3z"/>
	<path class="st11" d="M255.7,6.9c-0.1,0-0.2,0.3-0.5,0.8c-0.3,0.6-0.8,1.6-1.2,2.1c-0.5,0.6-0.5,1-0.2,1c0.3,0,0.7-0.5,0.9-1.1
		c0.2-0.6,0.6-1.1,0.9-1.2c0.3-0.1,0.4-0.6,0.3-1C255.9,7.1,255.8,6.9,255.7,6.9z"/>
	<path class="st11" d="M248.8,20.3c-0.4,1.1,0.4,0.8,1.9-0.7c1.4-1.4,1.7-2.2,0.9-2.2h0c-0.2,0-0.6,0.5-0.9,1.1
		c-0.2,0.6-0.7,1.1-1,1.1S249,19.9,248.8,20.3z"/>
	<path class="st11" d="M220.7,52.2c-0.2,0-0.4,0.3-0.4,0.7s0.2,0.7,0.4,0.7c0.1,0,0.2-0.1,0.3-0.2c0,0.2,0.1,0.4,0.4,0.4
		c0.3,0,0.5-0.3,0.5-0.7c0-0.4,0.3-0.8,0.8-1c0.1,0,0.1-0.1,0.2-0.1c-0.1,0.1-0.2,0.2-0.4,0.4c-0.3,0.4-0.4,0.7-0.1,0.7
		c0.2,0,0.6-0.3,0.7-0.7c0.1-0.3,0.2-0.5,0.1-0.6c0.8-0.6,1.7-1.7,1.7-2.2c0-0.2-0.5-0.5-1.1-0.5c-0.2,0-0.4,0-0.5,0
		c-0.4,0-0.4,0.2-0.2,0.4c0.8,0.8,0.6,1.6-0.7,2.2c-0.6,0.3-1.1,0.8-1.3,1.2c0,0,0,0,0,0C221.1,52.5,220.9,52.2,220.7,52.2z"/>
	<path class="st11" d="M269.8,43.1c-0.1-0.5,0-1.1,0.4-1.4c0.5-0.4,0.5-0.6,0.1-1.1c-0.2-0.2-0.3-0.3-0.4-0.3
		c-0.2,0-0.3,0.3-0.4,0.9c-0.2,0.6-0.4,1.5-0.6,1.9c-0.2,0.6-0.1,0.8,0.4,0.8C269.8,44,270,43.7,269.8,43.1z"/>
	<path class="st11" d="M185.1,0c0,0,0.1,0,0.2-0.1c0.2-0.2,0.5-1.5,0.6-2.8c0.1-1.3,0-1.9-0.1-1.9c-0.2,0-0.5,1-0.7,2.8
		C184.9-0.7,184.9,0,185.1,0z"/>
	<path class="st11" d="M177.7,7.8c-0.3,0.1-0.4,0.6-0.3,1c0.1,0.4,0.2,0.6,0.2,0.6c0.1,0,0.2-0.3,0.5-0.8c0.3-0.6,0.8-1.6,1.2-2.1
		c0.5-0.6,0.5-1,0.2-1c-0.3,0-0.7,0.5-0.9,1.1C178.4,7.1,178,7.7,177.7,7.8z"/>
	<path class="st11" d="M181.7-1.1c0.2,0,0.6-0.5,0.9-1.1c0.2-0.6,0.7-1.1,1-1.1s0.7-0.3,0.9-0.7c0.2-0.5,0.1-0.7-0.1-0.6
		c-0.3,0.1-0.9,0.5-1.8,1.3C181.2-1.9,180.9-1.1,181.7-1.1z"/>
	<path class="st11" d="M223.2-13.9c0.5,0,0.7-0.3,0.5-0.9c-0.1-0.5,0-1.1,0.4-1.4c0.5-0.4,0.5-0.6,0.1-1.1c-0.2-0.2-0.3-0.3-0.4-0.3
		c-0.2,0-0.3,0.3-0.4,0.9c-0.2,0.6-0.4,1.5-0.6,1.9C222.5-14.1,222.6-13.9,223.2-13.9z"/>
	<path class="st11" d="M154.7,121.7c0.9-0.3,2.3-1.9,2.3-2.6c0-0.2-0.5-0.5-1.1-0.5c-0.2,0-0.4,0-0.5,0c-0.4,0-0.4,0.2-0.2,0.4
		c0.8,0.8,0.6,1.6-0.7,2.2c-1.2,0.6-2,2.1-1,2.1c0.3,0,0.5-0.3,0.5-0.7C153.9,122.3,154.2,121.9,154.7,121.7z"/>
	<path class="st11" d="M135.9,186.4c0.2,0,0.4-0.4,0.4-0.8s0.2-1,0.5-1.3c0.3-0.3,0.4-0.9,0.3-1.3c-0.1-0.2-0.1-0.3-0.2-0.3
		c-0.1,0-0.4,0.4-0.7,1.2c-0.4,0.9-0.7,1.9-0.7,2.1C135.5,186.2,135.7,186.4,135.9,186.4z"/>
	<path class="st11" d="M156.6,161.8c-0.1-0.5,0-1.1,0.4-1.4c0.5-0.4,0.5-0.6,0.1-1.1c-0.2-0.2-0.3-0.3-0.4-0.3
		c-0.2,0-0.3,0.3-0.4,0.9c-0.2,0.6-0.4,1.5-0.6,1.9c-0.2,0.6-0.1,0.8,0.4,0.8C156.6,162.6,156.8,162.4,156.6,161.8z"/>
	<path class="st11" d="M95.5,176.1c0.8,0,1-0.1,0.7-0.4c-0.8-0.8-0.6-1.6,0.7-2.2c1.2-0.6,2-2.1,1-2.1c-0.3,0-0.5,0.3-0.5,0.7
		c0,0.4-0.3,0.8-0.8,1c-0.9,0.3-2.3,1.9-2.3,2.6C94.4,175.8,94.9,176.1,95.5,176.1z"/>
	<path class="st11" d="M107.6,163.9c-0.1-0.5,0-1.1,0.4-1.4c0.5-0.4,0.5-0.6,0.1-1.1c-0.2-0.2-0.3-0.3-0.4-0.3
		c-0.2,0-0.3,0.3-0.4,0.9c-0.2,0.6-0.4,1.5-0.6,1.9c-0.2,0.6-0.1,0.8,0.4,0.8C107.6,164.7,107.7,164.5,107.6,163.9z"/>
	<path class="st11" d="M208.6,136.6c-0.1-0.5,0-1.1,0.4-1.4c0.5-0.4,0.5-0.6,0.1-1.1c-0.2-0.2-0.3-0.3-0.4-0.3
		c-0.2,0-0.3,0.3-0.4,0.9c-0.2,0.6-0.4,1.5-0.6,1.9c-0.2,0.6-0.1,0.8,0.4,0.8C208.6,137.5,208.8,137.2,208.6,136.6z"/>
	<path class="st11" d="M195.6,170.1L195.6,170.1c-0.3,0-0.5,0.3-0.5,0.7c0,0.4-0.3,0.8-0.8,1c-0.9,0.3-2.3,1.9-2.3,2.6
		c0,0,0,0.1,0,0.1c0.4-0.2,0.9-0.5,1.3-0.7c-0.1-0.5,0.3-1,1.2-1.4C195.8,171.7,196.5,170.1,195.6,170.1z"/>
	<path class="st11" d="M139.5,187.2c0.3-0.1,0.4-0.6,0.3-1c-0.1-0.4-0.2-0.6-0.2-0.6c-0.1,0-0.2,0.3-0.5,0.8
		c-0.3,0.6-0.8,1.6-1.2,2.1c-0.5,0.6-0.5,1-0.2,1c0.3,0,0.7-0.5,0.9-1.1C138.8,187.8,139.2,187.3,139.5,187.2z"/>
	<path class="st11" d="M86.3,60.5c0.3,0,0.5-0.3,0.5-0.7c0-0.4,0.3-0.8,0.8-1c0.9-0.3,2.3-1.9,2.3-2.6c0-0.2-0.5-0.5-1.1-0.5
		c-0.2,0-0.4,0-0.5,0c-0.4,0-0.4,0.2-0.2,0.4c0.8,0.8,0.6,1.6-0.7,2.2C86.2,58.9,85.4,60.5,86.3,60.5z"/>
	<path class="st11" d="M92.8,52.7c0.2,0.8,0.4,1.1,0.6,1.1c0.1,0,0.3-0.1,0.5-0.4c0.3-0.4,0.2-0.8-0.2-1.1c-0.4-0.3-0.5-0.9-0.4-1.4
		c0.2-0.7,0-1-0.5-1c-0.6,0-0.7,0.2-0.5,1C92.4,51.4,92.7,52.2,92.8,52.7z"/>
	<path class="st11" d="M87,191.8c0,0-0.1-0.1-0.1-0.1c0,0-0.1,0-0.1,0c-0.1,0-0.2,0.1-0.2,0.3c-0.1,0.3-0.7,1.1-1.3,1.8
		c-0.6,0.7-1.1,1.4-1.1,1.6c0,0.2,0.3,0.3,0.7,0.3c0.4,0,0.7-0.4,0.7-0.9c0-0.5,0.3-0.9,0.6-0.9C86.8,193.9,87.5,192.3,87,191.8z"/>
	<path class="st11" d="M90.8,186.3c0.3-0.1,0.4-0.6,0.3-1c-0.1-0.4-0.2-0.6-0.2-0.6c-0.1,0-0.2,0.3-0.5,0.8
		c-0.3,0.6-0.8,1.6-1.2,2.1c-0.5,0.6-0.5,1-0.2,1c0.3,0,0.7-0.5,0.9-1.1C90.1,187,90.5,186.4,90.8,186.3z"/>
	<path class="st11" d="M262.7-6.4c-0.3,0-0.5,0.3-0.5,0.7s-0.3,0.8-0.8,1c-0.9,0.3-2.3,1.9-2.3,2.6c0,0.2,0.5,0.5,1.1,0.5
		c0.8,0,1-0.1,0.7-0.4c-0.8-0.8-0.6-1.6,0.7-2.2C262.9-4.9,263.6-6.4,262.7-6.4z"/>
	<path class="st11" d="M255.2,0.7c-0.3,0.4-0.2,0.8,0.2,1.1c0.4,0.3,0.5,0.9,0.4,1.4c-0.2,0.7,0,1,0.5,1c0.6,0,0.7-0.2,0.5-1
		c-0.2-0.5-0.4-1.4-0.5-1.8c-0.2-0.8-0.4-1.1-0.6-1.1C255.5,0.2,255.3,0.4,255.2,0.7z"/>
	<path class="st11" d="M251.7,7.3c0,0.2,0.2,0.4,0.4,0.4c0.2,0,0.4-0.4,0.4-0.8c0-0.4,0.2-1,0.5-1.3c0.3-0.3,0.4-0.9,0.3-1.3
		c-0.1-0.2-0.1-0.3-0.2-0.3c-0.1,0-0.4,0.4-0.7,1.2C252,6.2,251.7,7.1,251.7,7.3z"/>
	<path class="st11" d="M87.3,185.5c0.2,0,0.4-0.4,0.4-0.8s0.2-1,0.5-1.3c0.3-0.3,0.4-0.9,0.3-1.3c-0.1-0.2-0.1-0.3-0.2-0.3
		c-0.1,0-0.4,0.4-0.7,1.2c-0.4,0.9-0.7,1.9-0.7,2.1C86.8,185.4,87,185.5,87.3,185.5z"/>
	<path class="st11" d="M91.5,119.8c-0.2-0.5-0.4-1.4-0.5-1.8c-0.2-0.8-0.4-1.1-0.6-1.1c-0.1,0-0.3,0.1-0.5,0.4
		c-0.3,0.4-0.2,0.8,0.2,1.1c0.4,0.3,0.5,0.9,0.4,1.4c-0.2,0.7,0,1,0.5,1C91.6,120.8,91.7,120.5,91.5,119.8z"/>
	<path class="st11" d="M86.4,123.9c0,0.2,0.2,0.4,0.4,0.4c0.2,0,0.4-0.4,0.4-0.8c0-0.4,0.2-1,0.5-1.3c0.3-0.3,0.4-0.9,0.3-1.3
		c-0.1-0.2-0.1-0.3-0.2-0.3c-0.1,0-0.4,0.4-0.7,1.2C86.7,122.7,86.4,123.7,86.4,123.9z"/>
	<path class="st11" d="M146.9,45c0.2,0,0.6-0.5,0.9-1.1c0.2-0.6,0.7-1.1,1-1.1s0.7-0.3,0.9-0.7c0.2-0.5,0.1-0.7-0.1-0.6
		c-0.3,0.1-0.9,0.5-1.8,1.3C146.4,44.2,146.1,45,146.9,45z"/>
	<path class="st11" d="M183.7-1.6c-0.4,0-0.7,0.4-0.7,0.9c0,0.5-0.3,0.9-0.6,0.9c-0.7,0-1.4,1.7-0.9,2.1c0,0,0.1,0.1,0.1,0.1
		c0.1,0,0.3-0.1,0.4-0.3c0.1-0.3,0.7-1.1,1.3-1.8c0.6-0.7,1.1-1.4,1.1-1.6C184.3-1.4,184-1.6,183.7-1.6z"/>
	<path class="st11" d="M150.3,46.1c0,0,0.1,0,0.2-0.1c0.2-0.2,0.5-1.5,0.6-2.8c0.1-1.3,0-1.9-0.1-1.9c-0.2,0-0.5,1-0.7,2.8
		C150.1,45.4,150.1,46.1,150.3,46.1z"/>
	<path class="st11" d="M93.9,114.4c0,0.2,0.5,0.5,1.1,0.5c0.8,0,1-0.1,0.7-0.4c-0.8-0.8-0.6-1.6,0.7-2.2c1.2-0.6,2-2.1,1-2.1
		c-0.3,0-0.5,0.3-0.5,0.7s-0.3,0.8-0.8,1C95.4,112.1,94,113.7,93.9,114.4z"/>
	<path class="st11" d="M86.4,134c-0.2,0-0.6,0.5-0.9,1.1c-0.2,0.6-0.7,1.1-1,1.1c-0.3,0-0.7,0.3-0.9,0.7c-0.4,1.1,0.4,0.8,1.9-0.7
		C86.9,134.8,87.2,134,86.4,134z"/>
	<path class="st11" d="M84.4,134.4c0.4,0,0.7-0.4,0.7-0.9c0-0.5,0.3-0.9,0.6-0.9c0.7,0,1.4-1.7,0.9-2.1c0,0-0.1-0.1-0.1-0.1
		c0,0-0.1,0-0.1,0c-0.1,0-0.2,0.1-0.2,0.3c-0.1,0.3-0.7,1.1-1.3,1.8c-0.6,0.7-1.1,1.4-1.1,1.6S84.1,134.4,84.4,134.4z"/>
	<path class="st11" d="M90.7,124.1c-0.1-0.4-0.2-0.6-0.2-0.6v0c-0.1,0-0.2,0.3-0.5,0.8c-0.3,0.6-0.8,1.6-1.2,2.1
		c-0.5,0.6-0.5,1-0.2,1c0.3,0,0.7-0.5,0.9-1.1c0.2-0.6,0.6-1.1,0.9-1.2C90.7,125,90.8,124.5,90.7,124.1z"/>
	<path class="st11" d="M83,134.9c0.1-1.3,0.1-2,0-2c0,0-0.1,0-0.2,0.1c-0.2,0.2-0.5,1.5-0.6,2.8C81.9,138.8,82.7,138.1,83,134.9z"/>
	<path class="st11" d="M230.5-22.2c0,0.2,0.1,0.3,0.2,0.2c0,0,0.1-0.1,0.1-0.2H230.5L230.5-22.2z"/>
	<path class="st11" d="M256.5-19.2c0,0.3,0.1,0.4,0.2,0.3c0,0,0.1-0.1,0.1-0.2L256.5-19.2z"/>
	<path class="st11" d="M164.1-7.7l-0.4,0.2c0,0,0.1,0,0.2,0C164-7.5,164.1-7.6,164.1-7.7z"/>
	<path class="st11" d="M157-4.5c-0.2,0.1-0.4,0.2-0.6,0.3c0.1,0,0.1,0,0.2-0.1C156.8-4.4,157-4.5,157-4.5z"/>
	<path class="st11" d="M144.6,2.1L144,2.4l-0.2,0.1c0,0,0.1,0,0.1,0c0,0,0.1,0,0.1,0C144.2,2.5,144.4,2.3,144.6,2.1L144.6,2.1z"/>
	<path class="st11" d="M138.4,5.9L138,6.1c0,0,0,0,0,0C138.1,6.1,138.2,6,138.4,5.9z"/>
	<path class="st11" d="M276.5,8c0,0,0,0.1,0,0.1c0,0.1,0,0.1,0.1,0.2C276.5,8.1,276.5,8,276.5,8L276.5,8z"/>
	<path class="st11" d="M125.4,15l-0.2,0.1c0,0,0,0,0,0c0,0,0,0.1,0.1,0.1C125.4,15.3,125.4,15.2,125.4,15L125.4,15z"/>
	<path class="st11" d="M277,21.5c0,0-0.1,0.1-0.1,0.1c0,0.1,0,0.1,0.1,0.1C277,21.6,277,21.6,277,21.5z"/>
	<path class="st11" d="M88.5,54.7c-0.1,0.1-0.2,0.3-0.3,0.4C88.4,55.1,88.5,54.9,88.5,54.7z"/>
	<path class="st11" d="M70,94.3c0,0.2-0.1,0.5-0.1,0.8c0,0,0.1,0,0.1,0C70,94.9,70,94.6,70,94.3L70,94.3z"/>
	<path class="st11" d="M241.6,131.4c-0.1,0-0.1,0.1-0.1,0.5c0.1-0.1,0.2-0.2,0.2-0.3C241.6,131.5,241.6,131.5,241.6,131.4z"/>
	<path class="st11" d="M238.5,135.4c-0.1,0-0.2,0.1-0.2,0.3c0,0,0,0.1,0,0.1c0.1-0.1,0.2-0.2,0.3-0.4c0,0,0,0-0.1,0
		C238.5,135.4,238.5,135.4,238.5,135.4L238.5,135.4z"/>
	<path class="st11" d="M59.3,137.2v0.3C59.4,137.4,59.4,137.2,59.3,137.2z"/>
	<path class="st11" d="M228.1,147.2c-0.2,0-0.3,0.2-0.3,0.3L228.1,147.2z"/>
	<path class="st11" d="M59.3,154.7c0,0.1,0,0.1,0,0.2C59.3,154.8,59.3,154.8,59.3,154.7z"/>
	<path class="st11" d="M203.7,167.3c-0.4,0.1-0.7,0.3-0.7,0.4c0,0,0,0,0,0L203.7,167.3L203.7,167.3z"/>
	<path class="st11" d="M184.7,178.3c-0.1,0-0.2,0.1-0.3,0.1C184.6,178.3,184.6,178.3,184.7,178.3z"/>
	<path class="st11" d="M172.8,183.6c-0.1,0-0.3,0.1-0.4,0.2L172.8,183.6L172.8,183.6L172.8,183.6z"/>
	<path class="st11" d="M167.9,185.3c-0.1,0-0.3,0.1-0.4,0.2c0.2-0.1,0.4-0.1,0.6-0.2c0,0-0.1,0-0.1,0
		C168,185.3,168,185.3,167.9,185.3L167.9,185.3z"/>
	<path class="st11" d="M129.3,194.8c-0.1,0-0.2,0.1-0.3,0.2c0.2,0,0.4,0,0.5-0.1C129.5,194.8,129.4,194.8,129.3,194.8L129.3,194.8z"
		/>
	<path class="st12" d="M201.3-15c-4.9,1.5-9.5,3.1-13.2,4.8c-26.6,12.1-51.8,29.1-71.6,50.6c-20.2,21.8-35.2,48.2-47.1,75.5l1.8,1.4
		C82.9,90,97.9,63.5,118,41.9c19.7-21.2,44.6-38.1,70.9-50.1c3.5-1.6,7.9-3.2,12.7-4.6l-0.4-0.2C201.2-13,201.2-14.3,201.3-15
		L201.3-15z"/>
	
		<linearGradient id="SVGID_4_" gradientUnits="userSpaceOnUse" x1="147.008" y1="351.7312" x2="204.3836" y2="291.2403" gradientTransform="matrix(0.9337 0 0 -0.9337 -4.8546 371.741)">
		<stop  offset="0" style="stop-color:#E6E6E6"/>
		<stop  offset="0.5" style="stop-color:#FFFFFF"/>
		<stop  offset="1" style="stop-color:#E6E6E6"/>
	</linearGradient>
	<path class="st13" d="M209.6-20c-2.1,0.4-3.8,0.8-4.3,1.1c-1.2,0.6-16.1,4.4-23.5,6.1C191.1-5,207.7,9,217,17.9
		c14.6,13.9,41.6,43.3,42.1,43.9c0.1-0.2,0.1-0.3,0.2-0.5c3.1-6.8,5.9-16.6,8.3-26.5c-4.2-4.8-21.3-24.2-32-33.9
		C229-5.3,217-14.4,209.6-20L209.6-20z M70.6,90.8c-0.3,1.2-0.5,2-0.5,2.5c0,1-0.7,3.9-1.5,6.5c-0.8,2.6-2.4,8.2-3.4,12.4
		c-0.8,3.2-1.6,6-2,7.4c5.1,6.1,19.2,22.8,27.8,32c10.3,11.1,32.1,32.1,32.1,32.1l0.1-0.1l21.6-9.3c1.3-0.6,2.6-1.3,4-1.9
		c-0.4-0.4-27.1-25.7-39.9-39.1C96.7,120.6,76,97,70.6,90.8L70.6,90.8z"/>
	<path class="st12" d="M274.4,0.3c0,0-1.6,10.5-4.3,23.4s-6.5,28.2-10.7,37.6c-12,26.3-28.9,51.3-50.1,70.9
		c-24.2,22.5-54.4,38.6-85.2,50.9c-14.8,6-47.6,10.8-47.6,10.8l0,0.1c1.4,0.6,3,1,5.1,1.3c9.5-1.6,31.4-5.4,43.3-10.2
		c30.9-12.4,61.4-28.7,85.9-51.4c21.5-19.9,38.4-45.1,50.6-71.6c4.4-9.7,8.2-25.1,10.9-38c1.8-8.8,3.1-16.2,3.8-20.2
		c-0.2-1.3-0.5-2.4-0.8-3.4L274.4,0.3L274.4,0.3z"/>
	<path d="M164.3-5.2l-5.1,2.4l2.1,3.4c-2.1,1.4-3.7,2.5-5.5,3.8c-0.7,0.5-1.4,0.9-2.1,1.4l-2.1-2.9l-4.9,2.9l2.4,3.2
		c-0.4,0.3-0.7,0.5-1,0.8c-2.1,1.6-4.2,3.3-6.2,4.9l-2-2.9l-4.9,2.8l2.5,3.5c-2.6,1.8-5.2,3.4-7.6,5.4l-2.1-2.8l-4.8,2.9l2.9,3.9
		c-2.3,2.6-4.4,5.5-6.5,8.3l-3.8-3.5l-4.2,3.8l4.6,4.1c-1.8,2.2-3.5,4.5-5.2,6.8l-4.4-4.1l-4.2,3.8l5.2,4.7
		c-0.4,0.6-0.9,1.2-1.3,1.8c-1.4,1.8-2.7,3.6-4.1,5.4l-4.5-4.2L93.2,58l5.1,4.6c-1.8,1.9-3.8,3.7-5.4,5.8c-0.9,1.2-2,3.1-2.9,4.8
		l-3.2-3L82.6,74L96,86.1l2.5-5l-3.8-3.5c0.6-0.7,1.3-1.5,1.7-2c2.2-2.9,3.8-6.3,5.8-9.4l4.4,4l2.5-5l-3.6-3.4
		c1.9-2.3,3.9-4.5,5.9-6.8l4.1,3.7l2.5-5l-3.1-2.9c1.8-2.3,3.5-4.6,5.2-6.9l4.6,4.2l2.5-5l-3.7-3.5l0.2-0.2c2-2.3,3.9-4.6,6-6.7
		l4,5.3l3.4-4.5l-3.4-4.7l0.1-0.1c2.3-2,5.4-3.1,7.5-5.2l4.1,5.7l3.5-4.4l-4.4-6.2c0.2-0.2,0.3-0.4,0.5-0.6c2-2.1,4.4-3.6,6.9-5.2
		l5.5,7.5l3.5-4.4l-4.3-6c0.1-0.1,0.2-0.1,0.3-0.2c2.1-1.4,5.1-3.4,7-4.7l4.6,7.6l3.8-4.1L164.3-5.2L164.3-5.2z"/>
	<path class="st14" d="M185.2-1.3l-0.2,0c0,0-4.6,0.8-10.2,2.2c-5.6,1.4-12.1,3.4-16.1,5.9c-26.1,16.6-45.2,42.8-61.8,68.7
		c-4.7,7.3-10.2,23.5-10.2,23.5l-0.4,1.3l1.3-0.4c0,0,3.2-1.1,7-2.9c3.8-1.7,8.2-4,10.7-6.3c5.9-5.5,8.3-13.8,12.3-20.3
		c2.1-3.4,3.8-7.1,6.3-10c3.2-3.6,7.9-6,11.6-9.5c5.6-5.4,9.4-12.5,15.4-17c7.4-5.6,17.3-7.5,25.5-12.7c4-2.5,9.1-4.7,11.4-9.3
		c0.9-1.8,1-4.5,1-6.8s-0.4-4.2-0.4-4.2l0-0.3l-0.3-0.1l-2.7-1.6L185.2-1.3L185.2-1.3z M185,0.1l2.2,1.3c0,0.2,0.3,1.7,0.3,3.8
		c0.1,2.2-0.1,4.8-0.8,6.2c-2,4-6.8,6.2-10.9,8.8c-7.8,5.1-17.8,6.9-25.5,12.8c-6.2,4.7-10,11.9-15.5,17.1
		c-3.6,3.4-8.3,5.7-11.7,9.6c-2.7,3.1-4.4,6.9-6.5,10.2c-4.2,6.8-6.5,14.8-12.1,20.1c-2.3,2.1-6.6,4.4-10.4,6.1
		c-2.5,1.1-4.4,1.9-5.6,2.3c0.7-2.1,5.4-15.5,9.5-21.9c16.6-25.9,35.7-51.9,61.5-68.4c3.7-2.3,10.2-4.4,15.7-5.7
		C180.4,0.9,184.7,0.1,185,0.1L185,0.1z"/>
	<path class="st15" d="M163.4-6.5l-5.1,2.4l2.1,3.4c-2.1,1.4-3.7,2.5-5.5,3.8c-0.7,0.5-1.4,0.9-2.1,1.4l-2.1-2.9l-4.9,2.9l2.4,3.2
		c-0.4,0.3-0.7,0.5-1,0.8c-2.1,1.6-4.2,3.3-6.2,4.9l-2-2.9l-4.9,2.8l2.5,3.5c-2.6,1.8-5.2,3.4-7.6,5.4l-2.1-2.8l-4.8,2.9l2.9,3.9
		c-2.3,2.6-4.4,5.5-6.5,8.3l-3.8-3.5l-4.2,3.8l4.6,4.1c-1.8,2.2-3.5,4.5-5.2,6.8l-4.4-4.1l-4.2,3.8l5.2,4.7
		c-0.4,0.6-0.9,1.2-1.3,1.8c-1.4,1.8-2.7,3.6-4.1,5.4l-4.5-4.2l-4.2,3.8l5.1,4.6c-1.8,1.9-3.8,3.7-5.4,5.8c-0.9,1.2-2,3.1-2.9,4.8
		l-3.2-3l-4.2,3.8l13.4,12.2l2.5-5l-3.8-3.5c0.6-0.7,1.3-1.5,1.7-2c2.2-2.9,3.8-6.3,5.8-9.4l4.4,4l2.5-5l-3.6-3.4
		c1.9-2.3,3.9-4.5,5.9-6.8l4.1,3.7l2.5-5l-3.1-2.9c1.8-2.3,3.5-4.6,5.2-6.9l4.6,4.2l2.5-5l-3.7-3.5l0.2-0.2c2-2.3,3.9-4.6,6-6.7
		l4,5.3l3.4-4.5l-3.4-4.7l0.1-0.1c2.3-2,5.4-3.1,7.5-5.2l4.1,5.7l3.5-4.4l-4.4-6.2c0.2-0.2,0.3-0.4,0.5-0.6c2-2.1,4.4-3.6,6.9-5.2
		l5.5,7.5l3.5-4.4l-4.3-6c0.1-0.1,0.2-0.1,0.3-0.2c2.1-1.4,5.1-3.4,7-4.7l4.6,7.6l3.8-4.1L163.4-6.5L163.4-6.5z"/>
</g>
<g transform="matrix(2.634 0 0 2.634 -1222.4 -268.03)">
	
		<radialGradient id="SVGID_5_" cx="694.8691" cy="228.594" r="33.338" gradientTransform="matrix(0.8477 1.7135 2.5118 -1.2426 -649.5219 -692.7811)" gradientUnits="userSpaceOnUse">
		<stop  offset="0" style="stop-color:#FF0000"/>
		<stop  offset="1" style="stop-color:#AA0000"/>
	</radialGradient>
	<path class="st16" d="M529.7,194.6c-0.8,0-1.7,0.1-2.5,0.3c-6.2,0.9-12.5,3-17.3,6.9c-3.5,2.8-6.1,6.8-7.6,11.1
		c-1.6,4.7-1.5,9.9-0.9,14.8c0.4,3.7,1.6,7.2,3,10.6c1.7,4.1,3.1,8.8,6.6,11.6c3.9,3.1,9.3,4.7,14.3,4.2c2.9-0.3,6.1-1.8,7.7-4.3
		c2-3,1.6-7.2,0.9-10.8c-0.4-1.9-1.3-3.7-2.7-5c-0.7-0.7-3.4-0.8-2.5-1.2c3.3-1.4,6,2.5,8.7,4.3c2.7,1.8,5.9,3.6,9,3.4
		c3-0.2,5.8-1.8,7.6-4.1c2.6-3.4,2.3-7.3,1.2-11.4c-0.5-2-2.8-3.5-2.4-5.6c0.4-2,3.9-1.6,5.7-2.5c3.2-1.7,9.2-5.7,9.2-5.7l-15.2,0.3
		c0,0-2.7-7.3-5.4-10.1c-2.7-2.8-6.3-4.7-10-5.9C534.7,194.8,532.2,194.5,529.7,194.6L529.7,194.6z M545,223.4c0,0,1,1,1.3,1.7
		c0.2,0.5,0.3,1,0.3,1.6c0,0.6-0.2,1.3-0.5,1.8c-0.3,0.4-0.8,0.7-1.3,0.9c-0.8,0.2-1.8,0.1-2.6-0.3c-0.5-0.3-0.8-0.8-1-1.3
		c-0.4-0.9-0.2-3-0.2-3L545,223.4z M516.6,238.4c0.5,0,1,0.2,1.5,0.4c0.7,0.3,1.3,0.7,1.7,1.3c0.4,0.7,0.6,1.5,0.5,2.3
		c-0.1,0.6-0.6,1.5-1,2c-0.5,0.6-1.3,0.9-2.1,1c-0.9,0.1-1.9,0-2.6-0.5c-0.8-0.6-1.3-1.7-1.3-2.7c-0.1-0.9,0.3-1.8,0.8-2.5
		c0.5-0.6,1.2-1.2,2-1.3C516.2,238.4,516.4,238.4,516.6,238.4L516.6,238.4z"/>
	
		<linearGradient id="SVGID_6_" gradientUnits="userSpaceOnUse" x1="674.7036" y1="196.5965" x2="652.5735" y2="205.7565" gradientTransform="matrix(2.634 0 0 -2.634 -1223.0204 749.4097)">
		<stop  offset="0" style="stop-color:#1A1A1A"/>
		<stop  offset="1" style="stop-color:#000000"/>
	</linearGradient>
	<path class="st17" d="M552.5,218.5l-1.8,1.8l-29,10.3c0,0,2.9,1.1,5.1,1.9c1,0.4,2.9-1,4.2-0.3c0.9,0.5,2.3,1.1,3.1,1.8
		c1.9,1.6,4.2,3.2,6.2,4.3c2,1.1,3.3,1.8,5.3,1.7c1.7-0.1,3.5-0.4,5-1.3c1.9-1.2,3.6-3,4.3-5.1c0.8-2.4,0.2-5.1-0.3-7.6
		c-0.3-1.3-1.7-3-2.3-4.4C551.8,220.1,552.5,218.5,552.5,218.5L552.5,218.5z M544.9,223.3c0,0,1.1,1.1,1.4,1.7
		c0.2,0.5,0.3,1,0.3,1.6c0,0.6-0.2,1.3-0.5,1.8c-0.3,0.4-0.8,0.7-1.3,0.9c-0.8,0.2-1.8,0.1-2.6-0.3c-0.5-0.3-0.8-0.8-1-1.3
		c-0.4-0.9-0.2-3-0.2-3L544.9,223.3z"/>
	
		<linearGradient id="SVGID_7_" gradientUnits="userSpaceOnUse" x1="662.1544" y1="197.5764" x2="692.8644" y2="216.1264" gradientTransform="matrix(2.634 0 0 -2.634 -1223.0204 749.4097)">
		<stop  offset="0" style="stop-color:#FFFFFF;stop-opacity:0"/>
		<stop  offset="0.5954" style="stop-color:#FFFFFF"/>
		<stop  offset="1" style="stop-color:#FFFFFF;stop-opacity:0"/>
	</linearGradient>
	<path class="st18" d="M521.7,230.3c0,0,9.7-8.1,15.1-11.3c4.9-3,15.6-7.4,15.6-7.4s-11.2,3.6-16.2,6.6
		C530.8,221.4,521.7,230.3,521.7,230.3L521.7,230.3z"/>
	
		<linearGradient id="SVGID_8_" gradientUnits="userSpaceOnUse" x1="679.9712" y1="205.0172" x2="634.1612" y2="185.5872" gradientTransform="matrix(2.634 0 0 -2.634 -1223.0204 749.4097)">
		<stop  offset="0" style="stop-color:#AA0000"/>
		<stop  offset="1" style="stop-color:#800000"/>
	</linearGradient>
	<path class="st19" d="M521.6,230.5c0,0,9.8-8.4,15.3-11.7c4.9-3,15.6-7.2,15.6-7.2l15.2-0.4c0,0-11.9,7.6-18.4,10.4
		C540.5,225.5,521.6,230.5,521.6,230.5L521.6,230.5z"/>
	
		<linearGradient id="SVGID_9_" gradientUnits="userSpaceOnUse" x1="647.2136" y1="188.8661" x2="725.2736" y2="229.1261" gradientTransform="matrix(2.634 0 0 -2.634 -1223.0204 749.4097)">
		<stop  offset="0" style="stop-color:#FFFFFF;stop-opacity:0.7"/>
		<stop  offset="1" style="stop-color:#FFFFFF;stop-opacity:0"/>
	</linearGradient>
	<path class="st20" d="M566.8,211.5l-14.2,0.3h0c-0.2,0.1-10.7,4.2-15.5,7.1c-5,3-12.8,9.7-14.3,10.9c2-0.5,18.2-4.9,26.6-8.6
		C555.4,218.8,565.5,212.4,566.8,211.5L566.8,211.5z"/>
	
		<radialGradient id="SVGID_10_" cx="670.9524" cy="173.7" r="26.448" gradientTransform="matrix(1.5408 -5.154738e-02 -4.151184e-02 -1.2412 -492.1757 450.055)" gradientUnits="userSpaceOnUse">
		<stop  offset="0" style="stop-color:#FFFFFF"/>
		<stop  offset="1" style="stop-color:#FFFFFF;stop-opacity:0"/>
	</radialGradient>
	<path class="st21" d="M529.7,194.6c-0.8,0-1.7,0.1-2.5,0.3c-6.2,0.9-12.5,3-17.3,6.9c-3.5,2.8-6.1,6.8-7.6,11.1
		c-1.6,4.7-1.5,9.9-0.9,14.8c0.4,3.7,1.6,7.2,3,10.6c0.7,1.7,1.4,3.5,2.2,5.3l47.3-32.1l-1.4,0c0,0-2.7-7.3-5.4-10.1
		c-2.7-2.8-6.3-4.7-10-5.9C534.7,194.8,532.2,194.5,529.7,194.6L529.7,194.6z"/>
</g>
<linearGradient id="SVGID_11_" gradientUnits="userSpaceOnUse" x1="311.4694" y1="-22.5712" x2="316.7894" y2="-62.8612" gradientTransform="matrix(0.9506 0 0 -0.9506 6.295 364.1505)">
	<stop  offset="0" style="stop-color:#000000"/>
	<stop  offset="1" style="stop-color:#000000;stop-opacity:0"/>
</linearGradient>
<path class="st22" d="M73.7,409.6l456.7-45.5l5.1,31.1L73.7,409.6z"/>
<linearGradient id="SVGID_12_" gradientUnits="userSpaceOnUse" x1="288.0687" y1="38.9275" x2="290.1287" y2="3.1975" gradientTransform="matrix(0.9453 -0.1002 -0.1002 -0.9453 27.5694 429.3513)">
	<stop  offset="0" style="stop-color:#CCCCCC"/>
	<stop  offset="0.5" style="stop-color:#FFFFFF"/>
	<stop  offset="1" style="stop-color:#CCCCCC"/>
</linearGradient>
<path class="st23" d="M67.7,410.3c-1.9-6.7-1.6-14.8,0.6-17.8c2.5-3.3,7-3,9.3,0.7c1.6,2.5,2,2.6,6.2,2.2c7-0.7,30.2-3.5,46.9-5.6
	c8.3-1.1,27.1-3.3,41.8-5.1c14.7-1.7,28.5-3.4,30.7-3.7s10.5-1.2,18.6-2c18.3-1.9,61.5-9.1,85.3-14.3l34.1-7.4
	c37.7-8.1,69.6-13.1,140-22c40.4-5.1,42.5-5.2,44.6-2.7c0.9,1.1,2.5,8.1,3.6,15.6c2.9,19.9,4,18.9-22,22.4
	c-69.8,9.4-123.6,14-181.8,15.8c-52,1.5-86.1,4.3-138.5,11.2c-21,2.8-73.1,9.2-87.9,10.9l-17.2,1.9l-2,3.6
	C76.3,421.2,70.3,419.4,67.7,410.3L67.7,410.3z"/>
<linearGradient id="SVGID_13_" gradientUnits="userSpaceOnUse" x1="325.9185" y1="42.2995" x2="327.0184" y2="8.0895" gradientTransform="matrix(0.9453 -0.1002 -0.1002 -0.9453 27.5694 429.3513)">
	<stop  offset="0" style="stop-color:#000000"/>
	<stop  offset="0.5" style="stop-color:#333333"/>
	<stop  offset="1" style="stop-color:#000000"/>
</linearGradient>
<path class="st24" d="M339.1,357.9c-3.9,0.8-8.8,1.9-13.7,2.9l2.6,25.5c4.5-0.1,9-0.3,13.5-0.5L339.1,357.9L339.1,357.9z"/>
<linearGradient id="SVGID_14_" gradientUnits="userSpaceOnUse" x1="137.6793" y1="29.1497" x2="137.6693" y2="14.0997" gradientTransform="matrix(0.9453 -0.1002 -0.1002 -0.9453 27.5694 429.3513)">
	<stop  offset="0" style="stop-color:#333333"/>
	<stop  offset="1" style="stop-color:#000000"/>
</linearGradient>
<path class="st25" d="M230.5,377.9c-3.2,0.4-6.2,0.8-8.6,1.1c-8,0.8-16.4,1.7-18.6,2c-2.2,0.3-16,2-30.7,3.7
	c-14.7,1.7-33.5,4-41.8,5.1c-16.7,2.1-39.9,4.9-46.9,5.6c-3.2,0.3-4.2,0.3-5.3-0.8l2,18.7l1.6-2.8l17.2-1.9
	c14.8-1.7,66.9-8.1,87.9-10.9c16.3-2.2,30.9-3.9,44.8-5.4L230.5,377.9L230.5,377.9z"/>
<linearGradient id="SVGID_15_" gradientUnits="userSpaceOnUse" x1="267.2832" y1="39.5345" x2="267.8332" y2="10.6545" gradientTransform="matrix(0.9453 -0.1002 -0.1002 -0.9453 27.5694 429.3513)">
	<stop  offset="0" style="stop-color:#AA0000"/>
	<stop  offset="0.5" style="stop-color:#FF2A2A"/>
	<stop  offset="1" style="stop-color:#AA0000"/>
</linearGradient>
<path class="st26" d="M326,360.7l-18.9,4.1c-21.8,4.7-59.6,11.1-80,13.6l2.2,14.2c31.7-3.4,59.6-5.1,96.4-6.2c1.3,0,2.5-0.1,3.8-0.1
	L326,360.7L326,360.7z"/>
<linearGradient id="SVGID_16_" gradientUnits="userSpaceOnUse" x1="438.635" y1="57.6477" x2="441.085" y2="27.2778" gradientTransform="matrix(0.9453 -0.1002 -0.1002 -0.9453 27.5694 429.3513)">
	<stop  offset="0" style="stop-color:#000000"/>
	<stop  offset="1" style="stop-color:#000000;stop-opacity:0"/>
</linearGradient>
<path class="st27" d="M485.7,334.8l-4.4,0.6l-0.1,0c-0.5,1.1-1,2-1.3,2.5c-0.7,1-1,1.6-1.4,2.1c-0.2,0.2-0.4,0.5-0.7,0.9
	c-0.5,0.7-0.9,1.1-1.1,1.2c-0.3,0.1-0.5,0-0.5-0.2c0-0.2,0-0.5,0.1-1c0.6-1.8,1-3.3,1.6-4.9c-1.5,0.2-2.9,0.4-4.4,0.6
	c-0.6,1.2-1,2.1-1.3,2.6c-0.6,0.9-0.9,1.3-1.2,1.8c-0.1,0.1-0.1,0.2-0.2,0.3c-0.3,0.4-0.7,0.9-1.1,1.4c-0.5,0.6-0.8,0.8-1,0.8
	c-0.1,0-0.2-0.2-0.3-0.5c-0.1-0.4,0-1,0.3-1.6c0.6-1.8,1.1-3.1,1.4-4c0.1-0.2,0.1-0.3,0.1-0.4l-9,1.2c-0.3,0.4-0.7,1-1.1,1.8
	c-0.7,1.1-1.2,1.9-1.6,2.3c-0.2,0.3-0.5,0.5-0.7,0.9c-0.2,0.2-0.3,0.4-0.3,0.5c-0.2,0.2-0.4,0.4-0.6,0.7c-0.1,0.1-0.1,0.1-0.2,0.1
	c-0.2,0.1-0.3,0.1-0.4,0c0.4-0.8,0.7-1.4,0.9-2c0.1-0.2,0.2-0.6,0.4-1.3c0.2-0.7,0.2-1.6,0.1-2.6l-3.3,0.4c-0.2,0.4-0.4,0.9-0.6,1.5
	c-0.4,1.2-0.5,2.3-0.4,3.3c0.1,0.7,0.3,1.2,0.7,1.6c0,0,0,0.1-0.1,0.2s-0.1,0.1-0.1,0.2c-0.4,0.9-0.9,1.4-1.6,1.5
	c-0.6,0.1-1-0.2-1.1-0.9c0-0.3,0.2-1.4,0.8-3.1c0.5-1.3,0.9-2.7,1.4-4.1c-1.5,0.2-2.8,0.4-4.2,0.6c-0.8,1.8-1.8,3.4-3,4.9
	c-0.1,0.2-0.2,0.3-0.3,0.4c-0.2,0.2-0.5,0.6-1,1.3c-0.4,0.6-0.9,1.1-1.5,1.6c-0.6,0.5-1.2,0.8-1.6,0.8c-0.7,0.1-1.1-0.3-1.2-1.2
	c1.7-0.8,3.1-2,4.2-3.7c0.8-1.2,1.2-2.1,1.1-2.9c0-0.3-0.1-0.5-0.3-0.7c-1.8,0.2-3.6,0.5-5.4,0.7c-0.1,0.1-0.2,0.2-0.3,0.3
	c-0.8,0.8-1.6,1.9-2.4,3.1c-0.5,0.8-0.8,1.3-1.1,1.6c-0.1,0.1-0.2,0.2-0.3,0.3c-0.2,0.4-0.5,0.6-0.8,0.8c-0.1-0.4-0.2-0.9-0.5-1.3
	l-0.7-1.3c-0.3-0.6-0.5-1.1-0.5-1.3c0-0.2,0-0.4,0.2-0.6c0.2-0.2,0.5-0.3,1-0.2c0.1,0,0.2,0,0.2,0c0.3,0,0.6-0.2,0.8-0.5
	c0.1-0.1,0.2-0.2,0.2-0.3c-1.9,0.3-3.6,0.5-5.4,0.8c-0.2,0.2-0.4,0.5-0.6,0.8c-1.5,2.3-2.6,3.9-3.2,4.9c-0.1,0.1-0.1,0.2-0.1,0.3
	c-0.2,0.3-0.4,0.6-0.7,0.9c-0.5,0.6-0.9,0.8-1,0.8c-0.1,0-0.2-0.2-0.2-0.5c-0.1-0.4,0-1,0.2-1.6c0.6-1.8,1.1-3.1,1.4-4
	c0.1-0.4,0.2-0.7,0.3-1c-2.9,0.4-6,0.9-8.8,1.3c-0.1,0.1-0.3,0.3-0.4,0.4c-0.3,0.4-0.7,1.1-1.1,1.8c-0.7,1.1-1.2,1.8-1.6,2.2
	c-0.2,0.3-0.5,0.6-0.7,0.9c-0.2,0.3-0.3,0.5-0.3,0.6c0.1,0.4,0.1,0.7,0.3,0.7c0.1,0.1,0.3,0.1,0.7,0c-0.2,0.7-0.3,1.3-0.2,1.9
	c0.1,0.6,0.3,1,0.8,1.4c0.4,0.3,1,0.4,1.6,0.3c0.6-0.1,1.2-0.4,1.7-0.8c0.6-0.4,1.2-1.1,2-2c0,0.3-0.1,0.6,0,0.8
	c0.1,0.5,0.3,0.8,0.6,1c0.4,0.2,0.8,0.2,1.2,0.2c0.5-0.1,1-0.3,1.5-0.7c0.3-0.2,0.8-0.8,1.6-1.7c0.8-0.9,1.3-1.5,1.6-2
	c0.2-0.3,0.4-0.5,0.5-0.8c0.1-0.1,0.6-1,1.7-2.7c0.8-1.3,1.5-2.1,1.9-2.5c-0.1,0.5,0,1.2,0.1,2.1c0.2,1,0.3,1.7,0.2,2.2
	c-0.9,0-1.4,0.1-1.8,0.1c-0.5,0.1-1,0.3-1.5,0.6c-0.6,0.4-0.8,1-0.7,1.8c0.1,0.5,0.3,0.9,0.6,1.4c0.6,0.7,1.6,1,3.2,0.8
	c0.7-0.1,1.3-0.4,1.9-0.9c0.9-0.7,1.4-1.7,1.7-3c0.5-0.2,1-0.5,1.4-0.9c0.1-0.1,0.3-0.2,0.4-0.3c-0.1,0.1-0.1,0.3-0.1,0.4
	c0,0.1,0,0.4,0,0.8c0,0.4,0.2,0.8,0.5,1.3c0.4,0.6,0.9,1,1.5,1.2c0.4,0.2,0.9,0.2,1.4,0.1c1.7-0.3,3.5-1.5,5.3-3.7
	c0.6-0.7,1-1.3,1.2-1.7c0.1-0.1,0.3-0.3,0.5-0.5c0.7-1.3,1.4-2.5,2-3.5l-0.9,2.7c-0.4,1.2-0.5,2-0.5,2.5c0.1,0.7,0.4,1.3,0.8,1.8
	c0.6,0.7,1.4,1,2.4,0.8c1.4-0.2,2.8-1.3,4.2-3.4c0.3,0.1,0.6,0.1,0.9,0.1c0.5-0.1,0.9-0.3,1.3-0.7c0.3-0.4,0.6-0.7,0.8-0.9l0.1,0
	c-0.2,0.7-0.3,1.3-0.2,1.9c0.1,0.6,0.4,1,0.8,1.3c0.4,0.3,1,0.4,1.6,0.3c0.6-0.1,1.2-0.3,1.7-0.8c0.6-0.4,1.2-1.1,2-2
	c0,0.3,0,0.6,0,0.8c0.1,0.5,0.3,0.8,0.6,1c0.4,0.2,0.8,0.3,1.2,0.2c0.5-0.1,1-0.3,1.5-0.8c0.3-0.2,0.8-0.8,1.6-1.7
	c0.8-0.9,1.3-1.6,1.6-2c0.1-0.2,0.3-0.4,0.4-0.6c0.5-0.5,1.3-1.9,2.3-3.9c-1.3,3.2-1.9,5.4-1.7,6.4c0,0.2,0.1,0.4,0.2,0.5
	c0.5,0.6,1.1,0.9,1.8,0.8c0.7-0.1,1.6-0.6,2.5-1.4c0.4-0.4,1.1-1.1,1.9-2.3c0.3-0.4,0.5-0.8,0.8-1.3c0.1-0.1,0.1-0.2,0.2-0.3
	l0.2-0.3c0.5-0.7,1.1-1.8,1.9-3.4c-1.3,3.2-1.9,5.4-1.8,6.4c0,0.2,0.1,0.4,0.2,0.5c0.5,0.6,1.1,0.9,1.8,0.8c0.7-0.1,1.6-0.6,2.5-1.4
	c0.4-0.4,1-1.1,1.9-2.3c0.4-0.6,0.8-1.2,1.2-1.8c0.1-0.1,0.1-0.2,0-0.4c0-0.3-0.2-0.4-0.6-0.4c-0.2,0-0.6,0.4-1.1,1.1
	c-0.5,0.7-0.9,1.1-1.1,1.2c-0.3,0.1-0.5,0-0.5-0.2c0-0.2,0-0.5,0.1-1C484.7,337.9,485.2,336.4,485.7,334.8L485.7,334.8z
	 M465.6,337.9c0.3,0,0.5,0.1,0.6,0.5c0.1,0.6-0.2,1.6-0.8,2.9c-0.3,0.6-0.6,1.1-1,1.7c-0.6,0.8-1,1.2-1.3,1.2
	c-0.3,0-0.5-0.1-0.5-0.5c-0.1-0.5,0.3-1.5,1-2.9C464.4,339,465.1,338,465.6,337.9z M443.7,340.9c0.2,0,0.3,0.1,0.3,0.4
	c0.1,0.6-0.1,1.2-0.5,1.8c-0.7,1-1.2,1.6-1.5,1.6c-0.2,0-0.4-0.1-0.4-0.3c0-0.3,0.1-0.9,0.6-1.6C442.9,341.6,443.4,341,443.7,340.9z
	 M411.6,344.8c-1.7,0.3-3.4,0.5-5.1,0.7c0.1,0.1,0.3,0.2,0.6,0.2c0.7,0,1.1,0,1.1,0c0.4,0.1,0.8,0.6,1,1.4c0.1,0.2,0.1,0.3,0.1,0.5
	c0.1,0.8,0,1.7-0.2,2.6c-0.2,0.8-0.5,1.4-0.8,1.8c-0.6,0.8-1.2,1.2-1.8,1.3c-0.6,0.1-1.1-0.1-1.7-0.5c-0.3-0.2-0.4-0.5-0.5-0.9
	c-0.1-0.7,0.1-1.3,0.5-1.9c0.7-0.9,1.4-1.4,2-1.6c0.5-0.2,0.7-0.4,0.7-0.8c0-0.3-0.3-0.5-0.6-0.4c-0.1,0-0.2,0-0.4,0.1
	c-0.3,0.1-0.7,0.4-1.3,0.7c0.2-0.6,0.4-1.5,0.6-2.5c-1.3,0.2-2.6,0.4-3.8,0.6c-0.3,0.7-0.5,1.3-0.8,2.1c-0.7,1.9-1.3,3.2-1.6,3.8
	c-0.6,1.1-1.3,1.9-2.2,2.6c-0.5,0.3-0.9,0.6-1.4,0.6c-0.6,0.1-1-0.1-1.3-0.4c-0.2-0.2-0.3-0.4-0.3-0.6c-0.1-0.5,0.3-1,1-1.7
	c0.4-0.4,0.6-0.9,0.5-1.5c-0.1-0.5-0.3-0.9-0.7-1.1c-0.4-0.3-0.9-0.4-1.4-0.4c-0.5,0.1-0.9,0.3-1.2,0.6c-0.9,0.9-1.3,1.9-1.1,3.2
	c0.1,0.9,0.6,1.8,1.3,2.5c0.5,0.5,1.2,0.9,2.1,1.1c0.8,0.2,1.6,0.2,2.4,0.1c1.1-0.2,2-0.4,2.6-0.8c1.2-0.7,2.4-1.9,3.4-3.6
	c0.4,0.9,1.1,1.7,2.3,2.3c0.6,0.3,1.4,0.4,2.2,0.3c1.1-0.2,2.2-0.7,3.3-1.5s1.7-1.8,2-2.8c0.4-1.4,0.6-2.7,0.4-3.7
	c-0.1-0.6-0.3-1.2-0.6-1.7C412.4,345.6,412.1,345.2,411.6,344.8z M398.7,346.7l-1.9,0.3c0.2,0.4,0.4,0.8,0.7,1.1
	c0.5,0.6,1.2,0.8,1.8,0.7c0.2,0,0.3-0.1,0.4-0.1c0.4-0.2,0.6-0.6,0.5-1.1c0-0.3-0.3-0.5-0.9-0.6
	C399.2,346.9,398.9,346.9,398.7,346.7z M422.1,344.2c0.3,0,0.5,0.1,0.6,0.5c0.1,0.6-0.2,1.6-0.8,2.9c-0.3,0.6-0.6,1.1-1,1.7
	c-0.6,0.8-1,1.1-1.3,1.2c-0.3,0-0.5-0.1-0.5-0.5c-0.1-0.5,0.3-1.5,1-3C420.9,345.2,421.6,344.3,422.1,344.2z M430.1,348.7
	c0.3-0.1,0.8-0.1,1.7-0.1c-0.3,0.9-0.7,1.4-1.2,1.5c-0.1,0-0.2,0-0.4-0.1c-0.3-0.1-0.5-0.3-0.5-0.6c0-0.2,0.1-0.5,0.3-0.7
	C429.9,348.8,430,348.7,430.1,348.7L430.1,348.7z"/>
<linearGradient id="SVGID_17_" gradientUnits="userSpaceOnUse" x1="42.9841" y1="21.443" x2="59.0208" y2="20.653" gradientTransform="matrix(0.9453 -0.1002 -0.1002 -0.9453 27.5694 429.3513)">
	<stop  offset="0" style="stop-color:#CCCCCC"/>
	<stop  offset="0.5" style="stop-color:#FFFFFF"/>
	<stop  offset="1" style="stop-color:#CCCCCC"/>
</linearGradient>
<path class="st28" d="M71.8,390.3c-1.3,0.2-2.5,1-3.4,2.2c-2.3,3-2.6,11-0.7,17.8c2.6,9.1,8.6,11,12.5,3.8l2-3.6l0.4,0
	c0.3-2.2,0.3-4.4,0.1-6.7c-0.3-2.9-1-5.7-2.2-8.2c-1.3-0.2-1.9-0.8-2.9-2.3C76.2,390.9,73.9,389.9,71.8,390.3L71.8,390.3z"/>
<path d="M219.5,379.3l-0.4,14.4l0.9-0.1l0.4-14.4L219.5,379.3z M205.2,380.8c-0.3,0-0.8,0.1-1,0.1l-2.1,14.8c0.3,0,0.6-0.1,1-0.1
	L205.2,380.8L205.2,380.8z M190.2,382.6c-0.3,0-0.7,0.1-1,0.1l-2.9,15l1-0.1L190.2,382.6z M170.5,385l-2.4,15.1l1-0.1l2.4-15.1
	L170.5,385L170.5,385z M155.1,386.8l-2.7,15.3l1-0.1l2.7-15.2C155.8,386.8,155.5,386.8,155.1,386.8L155.1,386.8z M140.6,388.6
	l-1,0.1l-4.8,15.5l1-0.1L140.6,388.6z M125.8,390.4l-1.1,0.1l-4.5,15.5c0.3,0,0.7-0.1,1-0.1L125.8,390.4z M107.4,392.7l-6.1,15.6
	l1.1-0.1l6.1-15.6C108.1,392.6,107.7,392.7,107.4,392.7L107.4,392.7z M93.5,394.3l-5.4,15.5l1.1-0.1l5.4-15.4L93.5,394.3L93.5,394.3
	z"/>
<path class="st29" d="M270,288.4c-0.1,0-0.2,0-0.2,0.1c0,0-32.6,19.9-49.9,27.3c-21.1,9-63.4,19.7-63.4,19.7c-0.3,0.1,0.3,0.7,0.4,1
	c0.1,0.3,0.4,0.4,0.6,0.4c0,0,41.6-11,62.8-20.1c17.5-7.5,50.1-27.4,50.1-27.4C270.7,289.2,270.4,288.3,270,288.4L270,288.4z"/>
<radialGradient id="SVGID_18_" cx="-77.3183" cy="-1355.7924" r="28.8897" gradientTransform="matrix(0.9506 0 0 -0.1251 561.4794 226.5131)" gradientUnits="userSpaceOnUse">
	<stop  offset="0" style="stop-color:#000000"/>
	<stop  offset="1" style="stop-color:#000000;stop-opacity:0"/>
</radialGradient>
<path class="st30" d="M515.4,396.1c0,2-12.3,3.6-27.4,3.6s-27.5-1.6-27.5-3.6c0,0,0,0,0,0c0-2,12.3-3.6,27.5-3.6
	C503.1,392.5,515.4,394.1,515.4,396.1C515.4,396.1,515.4,396.1,515.4,396.1z"/>
<path class="st31" d="M431.1,379.5c0,18.1,15.1,32.9,33.7,32.9c18.6,0,33.7-14.7,33.7-32.9c0-18.1-15.1-32.9-33.7-32.9
	C446.2,346.7,431.1,361.4,431.1,379.5z"/>
<path class="st32" d="M467.7,347.5c-0.8,0.7,3.2,3.4,3.2,5c-0.1,1.5-2.4,2.6-3.4,4.1c-1,1.5-0.1,3-2.3,5.1
	c-2.3,2.1-7.5,4.5-10.9,7.6c-3.4,3-6.3,8.1-9.2,10.5c-3,2.4-6.7,2.1-8.4,3.8c-1.7,1.7-2.1,3.7-1.8,6.3c0.2,2.6,0.9,6.5,3.3,9.4
	c2.4,2.9,5.6,7.3,11.2,7.7c5.6,0.2,15.7-1,22.4-6.1c6.6-5.2,13.9-18.1,17.2-24.5c3.2-6.5,2.3-10.3,1.9-13.8c-0.5-3.5-2.7-5.1-4.4-7
	c-1.7-2-4-3.5-5.9-4.7c-1.8-1.2-2.9-1.9-5.1-2.4C473.4,347.8,468.5,346.8,467.7,347.5L467.7,347.5z"/>
<path class="st33" d="M479.8,351.1c-0.7,0.6,1.1,3.1,0.8,5.3c-0.4,2.2-1.8,4.8-3,7.4c-1.2,2.5-1.6,5.8-3.9,7.8
	c-2.4,1.9-8.4,1.7-10.3,3.9c-1.9,2.2,1.5,7.5-1.4,9.2c-3,1.6-12.2-0.7-15.9,0.6c-3.7,1.3-4.8,4.9-5.9,7.3c-1.1,2.4-1.4,4.8-0.6,7
	c0.8,2.2,3.1,4.6,5.4,6.3c2.3,1.6,5.7,2.6,8.1,3.3c2.4,0.8,3,1.5,6.2,1.2c3.2-0.4,9.1-0.6,12.8-3.4c3.6-2.9,5.8-9.4,9.1-13.5
	c3.3-4.1,8.4-6,10.4-10.6c1.9-4.7,1.6-12.8,1.4-16.9c-0.2-4.1-1-5.5-2.4-7.6c-1.5-2.2-4.1-4-5.9-5.3
	C482.9,351.8,480.5,350.6,479.8,351.1L479.8,351.1z"/>
<path class="st34" d="M496.1,367.5c-0.6-1.7-0.7-2.6-1.6-3.8c-1-1.2-3.2-3.9-4.1-3.3c-1,0.6-0.8,3.2-1.6,6.8
	c-0.9,3.6-2,11.1-3.7,14.3c-1.7,3.1-4.5,2.4-6.3,4.2c-1.8,1.8-1.8,4.8-4.4,6.4c-2.7,1.6-8,1.1-11.3,3.3c-3.3,2.2-5.4,7.6-8.2,9.5
	c-2.9,1.8-9.2,0.4-8.8,1.5c0.4,1.1,6.7,4.2,11.2,5.1c4.5,0.9,10.6,1.5,15.7,0.2c5-1.3,10.3-4,14.3-7.6c4-3.7,7.5-8.7,9.4-13.8
	c1.7-5.1,1.3-12.8,1.2-16.6C497.7,369.9,496.6,369.2,496.1,367.5L496.1,367.5z"/>
<path class="st35" d="M452.5,409.6c0.2,0.3,7.7,2,11.6,2.1c3.9,0.1,7.9-0.2,11.8-1.6c3.8-1.5,8.8-5.3,11.1-7.1
	c2.3-1.9,4.6-4.6,2.8-4c-1.9,0.6-9,5.8-13.5,7.6c-4.5,1.8-9.1,2.7-13.1,3.2C459.2,410.3,452.4,409.3,452.5,409.6L452.5,409.6z"/>
<path class="st36" d="M448.4,364.1c-0.1-0.1-0.5-0.1-0.8-0.1c-0.3-0.1-0.7-0.3-1-0.4c-0.4-0.1-0.7-0.3-1-0.3c-0.3-0.1-0.7,0.1-1,0
	c-0.3-0.1-0.6-0.4-0.9-0.5c-0.4-0.1-0.9,0-1.2-0.1c-0.3-0.1-0.7-0.2-0.9-0.2c-0.3,0-0.4,0.2-0.6,0.2c-0.3,0-0.9-0.1-1.2-0.1
	c-0.3,0-0.5,0.1-0.8,0.2c-0.3,0.1-0.9,0.2-1,0.3c-0.1,0.1,0.2,0,0.5,0c0.2-0.1,0.5-0.3,0.9-0.3c0.2,0,0.5,0,0.9,0c0.4,0,0.9,0,1.2,0
	c0.2,0,0.1-0.1,0.2-0.1c0.1,0,0.3,0,0.6,0.1c0.3,0,0.8,0,1.2,0.1c0.4,0.1,0.8,0.4,1.1,0.5c0.3,0.1,0.5-0.1,0.9-0.1
	c0.3,0,0.7,0.3,1.1,0.4c0.3,0.1,0.5,0.1,0.8,0.2c0.2,0.1,0.5,0.2,0.6,0.2C448.1,364.2,448.4,364.2,448.4,364.1L448.4,364.1z"/>
<path class="st36" d="M436.3,364.5c0,0-0.5,0.4-0.7,0.7c-0.2,0.2-0.4,0.4-0.6,0.7c-0.3,0.3-0.6,0.7-0.8,1c-0.2,0.3-0.5,0.6-0.4,0.5
	c0.1-0.1,0.6-0.6,0.9-0.9c0.3-0.3,0.5-0.6,0.8-1C435.7,365.2,436.3,364.6,436.3,364.5z"/>
<path class="st37" d="M432.9,371.5c0.1-0.1,0-1.2-0.1-1.5c-0.1-0.3-0.2-0.4-0.3-0.4c-0.1,0-0.2,0.3-0.2,0.6
	c-0.1,0.2-0.4,0.2-0.3,0.4C432.2,370.9,432.8,371.6,432.9,371.5z"/>
<path class="st37" d="M432.4,373.2c0-0.3-0.2-0.8-0.3-1c-0.1-0.2-0.3-0.3-0.3-0.2c0,0.1-0.1,0.5,0,0.8c0,0.2,0.2,0.7,0.3,0.8
	C432.2,373.6,432.4,373.5,432.4,373.2z"/>
<path class="st38" d="M431.8,375.9c0-0.2,0-0.6,0-0.8c-0.1-0.2-0.3-0.5-0.4-0.5c-0.1,0-0.2,0.3-0.2,0.7c0.1,0.3,0.4,1,0.5,1.2
	C431.8,376.6,431.8,376.1,431.8,375.9z"/>
<path class="st38" d="M431.5,378.4c0-0.1-0.1-0.8-0.1-1c-0.1-0.2-0.2-0.3-0.3-0.2c-0.1,0.1-0.1,0.4-0.1,0.6
	C431.1,378,431.5,378.5,431.5,378.4z"/>
<path class="st38" d="M431.4,379.9c-0.1,0-0.3,0.6-0.4,0.9c0,0.2,0.1,0.4,0.2,0.4c0.1,0,0.2-0.1,0.3-0.3
	C431.6,380.6,431.5,379.9,431.4,379.9L431.4,379.9z"/>
<path class="st38" d="M431.6,383.1c-0.1,0-0.4,0.4-0.3,0.7c0,0.2,0.1,0.6,0.2,0.6c0-0.1,0.2-0.5,0.2-0.7
	C431.7,383.4,431.6,383,431.6,383.1z"/>
<path class="st39" d="M447.2,364.1c-0.3,0.5-1.4,2-1.8,2.7c-0.5,0.7-0.6,1.3-0.8,1.4c-0.2,0.1-0.2-0.7-0.2-1
	c-0.1-0.3-0.4-0.3-0.2-0.7c0.2-0.4,0.9-1.4,1.4-1.8c0.5-0.5,1.1-0.8,1.4-0.9C447.3,363.7,447.5,363.7,447.2,364.1z"/>
<path class="st39" d="M442.2,367.5c0.2-0.3,0.9-1.6,1.2-2.2c0.3-0.6,0.6-0.8,0.9-1.1c0.2-0.3,0.8-0.8,0.6-0.8
	c-0.2,0-1.1,0.4-1.5,0.7c-0.4,0.3-0.9,0.9-1.2,1.3c-0.3,0.4-0.3,0.7-0.3,1.1C441.9,366.8,441.9,367.7,442.2,367.5L442.2,367.5z"/>
<path class="st39" d="M440.4,366.9c0.2-0.3,0.6-1.6,1-2.3c0.3-0.7,1.1-1.5,1.2-1.7c0.1-0.3-0.2-0.1-0.5,0.1
	c-0.4,0.2-0.9,0.7-1.3,1.1c-0.3,0.4-0.6,0.9-0.7,1.3c-0.1,0.3,0,0.7,0.1,0.9C440.2,366.6,440.2,367.2,440.4,366.9z"/>
<path class="st39" d="M438.8,366.8c0.2-0.1,0.7-1.5,1-2c0.3-0.5,0.6-1,0.8-1.3c0.2-0.3,0.3-0.5,0.2-0.6c-0.1,0-0.4,0.1-0.8,0.4
	c-0.3,0.3-0.8,0.9-1.1,1.3c-0.3,0.3-0.5,0.6-0.5,0.9C438.4,365.9,438.5,366.9,438.8,366.8z"/>
<path class="st39" d="M437.5,366.8c0.1-0.2,0.2-0.9,0.3-1.4c0.1-0.4,0.3-0.8,0.5-1.2c0.2-0.5,0.9-1.3,1-1.4c0-0.1-0.5,0.3-0.8,0.6
	c-0.3,0.2-0.7,0.5-0.9,0.9c-0.3,0.4-0.5,0.8-0.6,1.1c-0.1,0.3-0.1,0.6,0.1,0.9C437.1,366.5,437.4,367,437.5,366.8z"/>
<path class="st39" d="M437.5,363.7c-0.1,0.1-0.5,0.5-0.7,1c-0.2,0.5-0.4,1.2-0.5,1.7c-0.1,0.4-0.2,1-0.2,1.1
	c-0.1,0.1-0.1-0.2-0.2-0.5c-0.1-0.3-0.2-0.7-0.1-1.1c0.1-0.4,0.4-1,0.6-1.3c0.2-0.3,0.4-0.5,0.6-0.6
	C437.1,363.7,437.5,363.5,437.5,363.7z"/>
<path class="st39" d="M434.9,368.8c-0.1-0.2-0.4-1-0.4-1.4c0-0.5,0.5-1.2,0.6-1.4c0.1-0.2,0.3,0,0.3,0.3c-0.1,0.3-0.4,0.8-0.4,1.2
	c0,0.4,0,0.9,0.1,1.1C435,368.8,435,369,434.9,368.8z"/>
<path class="st39" d="M433.7,369.9c0-0.2-0.2-0.8-0.2-1.2c0-0.5,0.4-1.4,0.4-1.5c0-0.2-0.4,0.3-0.5,0.6c-0.1,0.2-0.3,0.4-0.3,0.8
	c0,0.3,0.1,1,0.2,1.3C433.4,370.1,433.7,370.1,433.7,369.9z"/>
<path class="st39" d="M440.8,362.8c-0.2-0.1-0.3-0.3-0.3-0.7c-0.1-0.4-0.2-1,0-1.5c0.2-0.6,1.1-1.9,1.4-2.1c0.3-0.2,0.2,0.3,0.2,0.7
	c-0.1,0.4-0.5,1.3-0.6,1.9c-0.1,0.6,0.3,1.1,0.1,1.4C441.4,362.8,441,362.8,440.8,362.8z"/>
<path class="st39" d="M442.9,363c-0.1-0.3-0.2-1.2-0.2-1.7c-0.1-0.5,0-0.9,0.1-1.2c0.1-0.4,0.3-0.8,0.7-1.1c0.3-0.3,1.2-0.8,1.3-0.6
	c0,0.1-0.8,0.8-1,1.5c-0.3,0.6-0.4,1.5-0.4,2c-0.1,0.5,0,0.8-0.1,0.9C443.2,363,443,363.2,442.9,363z"/>
<path class="st39" d="M444.8,363.3c-0.1-0.4-0.2-1.5-0.1-2.1c0.1-0.6,0.2-1,0.5-1.5c0.2-0.4,0.8-1.1,0.9-1.1c0.1,0-0.1,0.5-0.2,1.2
	c-0.1,0.7-0.1,2.4-0.2,3c-0.1,0.5-0.2,0.4-0.3,0.4C445.3,363.4,444.9,363.7,444.8,363.3z"/>
<path class="st39" d="M447.1,363.9c-0.2-0.4-0.2-1.2-0.1-1.9c0.1-0.7,0.3-2,0.6-2.4c0.2-0.4,0.7-0.3,0.9,0c0.1,0.3-0.3,1-0.3,1.7
	c-0.1,0.6,0,1.5,0.1,2c0,0.4,0.1,0.6,0,0.8C448,364.1,447.3,364.3,447.1,363.9z"/>
<path class="st39" d="M439.8,362.8c0.1-0.1-0.1-0.2-0.1-0.7c0-0.5,0.3-1.9,0.3-2.2c-0.1-0.4-0.4-0.3-0.6-0.1
	c-0.2,0.2-0.4,1.1-0.4,1.5c-0.1,0.5-0.1,1,0.1,1.3C439.3,362.9,439.7,362.9,439.8,362.8z"/>
<path class="st39" d="M438.1,363.2c0.1-0.2-0.2-0.4-0.2-0.8c0-0.5,0.3-1.4,0.2-1.6c-0.1-0.2-0.5,0.2-0.6,0.5
	c-0.2,0.3-0.3,0.8-0.3,1.2c0,0.4,0.1,0.8,0.2,1C437.7,363.5,438,363.3,438.1,363.2z"/>
<path class="st39" d="M436.8,364c0.1-0.3-0.2-0.6-0.2-1c0-0.3,0.1-0.9,0.1-0.9c-0.2-0.1-0.6,0.2-0.8,0.4c-0.1,0.1-0.2,0.1-0.2,0.3
	c0,0.2,0,0.7,0.1,1c0.1,0.3,0.2,0.6,0.4,0.7C436.4,364.5,436.7,364.2,436.8,364z"/>
<path class="st39" d="M435.3,365.6c0-0.2-0.2-0.4-0.2-0.8c0-0.3,0.1-1,0.1-1.1c-0.1-0.1-0.3,0.1-0.4,0.3c-0.1,0.1-0.2,0.1-0.2,0.3
	c0,0.2,0,0.9,0.2,1.1C434.8,365.6,435.2,365.6,435.3,365.6z"/>
<path class="st39" d="M434.4,366.6c0-0.1-0.2-0.3-0.2-0.4c-0.1-0.2,0-0.6,0-0.5c-0.1,0-0.4,0.3-0.5,0.5c-0.1,0.1-0.1,0.3-0.1,0.5
	c0,0.2,0,0.6,0.2,0.6C433.9,367.2,434.3,366.8,434.4,366.6z"/>
<path class="st36" d="M449,364.5c0.3,0,0.7,0,1,0c0.3,0,0.7,0,0.9,0.1c0.2,0.1,0.2,0.2,0.4,0.4c0.3,0.1,0.6,0.2,1.1,0.3
	c0,0,0.1,0,0.3,0c0.2,0,0.9-0.2,0.9-0.1c0,0-0.7,0.3-0.9,0.3c-0.3,0-0.6-0.1-0.8-0.1c-0.3-0.1-0.7-0.2-0.9-0.3
	c-0.2-0.1-0.2-0.3-0.4-0.3c-0.2-0.1-0.7,0.1-1,0.1C449.5,364.8,449.2,364.7,449,364.5z"/>
<path class="st36" d="M457.5,365.8c0.1-0.1,0.8,0.2,1.2,0.2c0.3,0,0.4-0.1,0.8-0.1c0.4,0,0.8-0.2,1.2-0.1c0.3,0,0.5,0.3,0.9,0.4
	c0.5,0.1,1.7,0.1,1.8,0.2c0,0.1-1.2,0.1-1.6,0.1c-0.4-0.1-0.6-0.3-1-0.4c-0.4,0-1.1,0.2-1.5,0.2c-0.4,0-0.8,0-1-0.1
	C458,366.1,457.4,365.8,457.5,365.8L457.5,365.8z"/>
<path class="st39" d="M449.7,364.5c-0.1-0.4-0.2-1.5-0.1-2.1c0.1-0.6,0.2-1,0.5-1.5c0.2-0.4,0.8-1.1,0.9-1.1c0.1,0-0.1,0.5-0.2,1.2
	c-0.1,0.7-0.1,2.4-0.2,3c-0.1,0.5-0.2,0.4-0.3,0.4C450.2,364.6,449.8,364.9,449.7,364.5z"/>
<path class="st39" d="M452.9,365.3c-0.3-0.4-0.4-1.1-0.4-1.9c-0.1-0.8,0-2,0.2-2.5c0.2-0.4,0.7-0.4,0.8-0.1c0.1,0.2-0.1,1.1-0.1,1.7
	c0.1,0.6,0.2,1.5,0.3,2c0.1,0.4,0.2,0.6,0.1,0.8C453.7,365.3,453.1,365.6,452.9,365.3z"/>
<path class="st39" d="M456.3,365.9c-0.3-0.3-0.7-1.3-0.9-1.9c-0.2-0.6-0.3-1-0.2-1.5c0-0.5,0.2-1.3,0.4-1.4c0.1,0,0.1,0.5,0.3,1.2
	c0.2,0.7,0.9,2.2,1.1,2.8c0.2,0.5,0,0.4-0.1,0.5C456.8,365.7,456.6,366.1,456.3,365.9L456.3,365.9z"/>
<path class="st39" d="M459.5,366.1c-0.2-0.2,0-0.5-0.2-1c-0.3-0.5-0.9-1.6-1.1-2c-0.2-0.5-0.2-0.8,0-0.9c0.1-0.1,0.6,0,0.9,0.4
	c0.4,0.3,0.9,1.3,1.2,1.8c0.2,0.4,0.4,0.8,0.4,1c0,0.3-0.1,0.4-0.2,0.6C460.2,366.1,459.7,366.2,459.5,366.1L459.5,366.1z"/>
<path class="st39" d="M447.1,368.7c0.2-0.3,0.9-1.6,1.2-2.2c0.3-0.6,0.6-0.8,0.9-1.1c0.2-0.3,0.8-0.8,0.6-0.8
	c-0.2,0-1.1,0.4-1.5,0.7c-0.4,0.3-0.9,0.9-1.2,1.3c-0.3,0.4-0.3,0.7-0.3,1.1C446.8,368,446.9,368.9,447.1,368.7L447.1,368.7z"/>
<path class="st39" d="M450.7,369.5c0.2-0.3,0.7-1.6,1.1-2.3c0.4-0.7,1.2-1.5,1.3-1.7c0.1-0.3-0.2-0.1-0.5,0.1
	c-0.3,0.2-1,0.7-1.4,1.1c-0.4,0.4-0.7,0.9-0.8,1.3c-0.1,0.3-0.1,0.7,0.1,0.9C450.4,369.1,450.5,369.8,450.7,369.5z"/>
<path class="st39" d="M456.4,366.1c-0.3,0.5-1.4,2-1.8,2.7c-0.4,0.7-0.6,1.3-0.8,1.4c-0.2,0.1-0.2-0.7-0.2-1
	c-0.1-0.3-0.4-0.3-0.2-0.7c0.2-0.4,0.9-1.4,1.4-1.8c0.5-0.5,1.1-0.8,1.4-0.9C456.4,365.6,456.6,365.6,456.4,366.1z"/>
<path class="st39" d="M457.4,370.2c-0.2-0.2-0.3-0.5-0.2-1c0.1-0.5,0.3-1.3,0.6-1.7c0.2-0.5,0.5-1,0.8-1.2c0.2-0.2,0.5-0.2,0.7-0.1
	c0.2,0.1,0.4-0.1,0.3,0.5c-0.2,0.6-0.9,2.5-1.2,3.1C457.9,370.4,457.6,370.3,457.4,370.2L457.4,370.2z"/>
<path class="st39" d="M461.1,369.9c-0.2-0.1-0.1-0.3,0.1-0.8c0.2-0.5,0.7-1.4,1-1.9c0.3-0.5,0.6-0.8,0.9-1c0.1-0.1,0-0.5-0.3-0.9
	c-0.3-0.5-1.1-1.5-1.3-1.9c-0.2-0.5-0.2-0.9,0-0.9c0.2,0.1,0.9,0.6,1.4,1.2c0.5,0.6,1.4,1.7,1.6,2.2c0.1,0.5-0.4,0.3-0.7,0.8
	c-0.3,0.5-0.6,1.6-0.9,2.2c-0.3,0.6-0.6,1.2-0.9,1.4C461.7,370.5,461.4,370.4,461.1,369.9L461.1,369.9z"/>
<path class="st39" d="M469.1,370.4c-0.2-0.1-0.2-0.3-0.1-0.8c0.1-0.5,0.4-1.6,0.7-2.1c0.3-0.6,0.4-1,0.7-1.2c0-0.2-0.1-0.5-0.4-0.9
	c-0.4-0.5-1.3-1.4-1.6-1.8c-0.3-0.5-0.4-0.9-0.1-0.9c0.3,0,1,0.5,1.6,1c0.6,0.5,1.6,1.5,1.9,2.1c0.2,0.5-0.4,0.3-0.5,0.9
	c-0.2,0.6-0.3,1.7-0.5,2.4c-0.2,0.7-0.4,1.3-0.7,1.6C469.9,371,469.5,370.8,469.1,370.4z"/>
<path class="st39" d="M467.1,366.6c-0.2-0.2-0.1-0.5-0.4-1c-0.4-0.5-1.3-1.5-1.6-2c-0.3-0.5-0.3-0.9-0.1-1c0.1-0.2,0.6-0.1,1,0.2
	c0.4,0.3,1.2,1.2,1.6,1.7c0.4,0.4,0.5,0.8,0.6,1c0.1,0.3,0,0.5-0.1,0.7C467.8,366.4,467.3,366.7,467.1,366.6L467.1,366.6z"/>
<path class="st39" d="M465,370.9c-0.2-0.2-0.3-0.6-0.3-1.1c0.1-0.5,0.4-1.3,0.7-1.8c0.3-0.5,0.5-1,0.8-1.2c0.3-0.2,0.5-0.2,0.7-0.1
	c0.2,0.1,0.4-0.1,0.3,0.6c-0.2,0.6-0.9,2.6-1.3,3.3C465.5,371,465.1,371,465,370.9z"/>
<path class="st36" d="M473.1,366.8c0-0.1,0.5-0.2,0.7-0.3c0.3-0.1,0.5-0.2,0.8-0.3c0.3-0.1,0.7-0.1,1.1-0.1c0.4,0,0.7,0.1,1.2,0
	c0.5-0.1,1.3-0.5,1.8-0.5c0.5-0.1,1.1,0.2,1.2,0.3c0,0-0.8-0.2-1.2-0.1c-0.4,0.1-0.9,0.6-1.4,0.7c-0.5,0.1-1.1-0.1-1.5-0.2
	c-0.4-0.1-0.5-0.1-0.9,0c-0.4,0.1-1.3,0.6-1.6,0.6C473,367.1,473,366.9,473.1,366.8L473.1,366.8z"/>
<path class="st37" d="M472.8,370.6c-0.2-0.1-0.2-0.3-0.1-0.8c0.1-0.5,0.4-1.6,0.6-2.1c0.2-0.6,0.4-1,0.6-1.2
	c-0.1-0.2-0.2-0.5-0.5-0.9c-0.3-0.4-0.8-0.9-1.1-1.3c-0.3-0.4-0.8-1.3-0.5-1.3c0.2-0.1,1.1,0.5,1.7,1c0.6,0.5,1.5,1.4,1.7,2
	c0.2,0.5-0.4,0.3-0.5,0.9c-0.2,0.6-0.3,1.8-0.4,2.5c-0.2,0.7-0.3,1.3-0.6,1.6C473.5,371,473.2,371,472.8,370.6L472.8,370.6z"/>
<path class="st37" d="M477.4,366.1c-0.2-0.1-0.2-0.5-0.6-0.9c-0.5-0.5-1.6-1.5-2-1.8c-0.4-0.4-0.5-0.6-0.2-0.6
	c0.3,0,0.9,0.1,1.5,0.5c0.6,0.4,1.5,1.2,1.9,1.7c0.3,0.4,0.3,0.7,0.2,0.8C478,366,477.7,366.2,477.4,366.1L477.4,366.1z"/>
<path class="st37" d="M476.9,370.2c-0.1-0.2,0.1-0.7,0.1-1.2c-0.1-0.6-0.4-1.7-0.4-2.1c0-0.4,0.4-0.4,0.6-0.3
	c0.3,0.1,0.7,0.5,0.8,1.1c0.1,0.5-0.2,1.8-0.4,2.3C477.4,370.4,477,370.4,476.9,370.2z"/>
<path class="st37" d="M480.1,369.8c-0.1-0.3,0.3-1.2,0.3-1.8c0-0.6-0.4-1.6-0.3-1.9c0-0.3,0.3-0.3,0.5-0.1c0.2,0.2,0.4,0.8,0.5,1.4
	c0.1,0.6,0.3,1.6,0.1,2C481,369.8,480.2,370,480.1,369.8z"/>
<path class="st37" d="M480.7,366.2c0.1-0.1,0.3-0.5,0.3-0.8c0-0.3,0.3-0.7-0.3-1.2c-0.7-0.6-2.8-1.8-3.3-2c-0.5-0.2-0.1,0.4,0.3,0.8
	c0.3,0.4,1.5,1,1.9,1.5c0.4,0.4,0.4,1.1,0.6,1.4C480.4,366.2,480.6,366.3,480.7,366.2L480.7,366.2z"/>
<path class="st38" d="M483,368.9c-0.1,0-0.2-0.3-0.2-0.7c0-0.5,0.1-1.5,0.2-2c0.1-0.5,0.2-1,0.4-1.2c-0.1-0.2-0.3-0.5-0.6-0.7
	c-0.3-0.3-0.9-0.7-1.2-1c-0.3-0.4-0.9-1-0.7-1.1c0.2-0.1,1.1,0.2,1.8,0.6c0.6,0.4,1.6,1,1.9,1.5c0.3,0.4-0.3,0.4-0.3,0.9
	c0,0.5,0.1,1.6,0.1,2.3c0,0.6-0.1,1.3-0.2,1.6C483.8,369.3,483.5,369.2,483,368.9L483,368.9z"/>
<path class="st36" d="M483.7,352.3c0.1-0.1,0.7,0,1,0.2c0.2,0.2,0.3,0.6,0.3,0.7c-0.1,0.1-0.3-0.1-0.5-0.3
	C484.2,352.8,483.6,352.4,483.7,352.3z"/>
<path class="st36" d="M485.6,353.6c0.3,0,0.6,0.1,0.9,0.2c0.2,0.1,0.5,0.2,0.6,0.3c0.1,0.1,0.1,0.2,0,0.4c0.3-0.1,0.5-0.1,0.7,0.1
	c0.2,0.2,0.3,0.4,0.4,0.9c0.1,0,0.3,0.1,0.6,0.3c0.2,0.2,0.7,0.6,0.8,0.8c0,0.1-0.6-0.1-0.8-0.3c-0.3-0.1-0.5-0.3-0.8-0.6
	c-0.1-0.2-0.3-0.4-0.4-0.5c-0.2-0.2-0.4-0.3-0.7-0.4c-0.1-0.2-0.2-0.4-0.3-0.4c-0.1-0.1-0.3-0.1-0.4-0.2
	C485.9,354,485.7,353.9,485.6,353.6L485.6,353.6z"/>
<path class="st36" d="M487.9,356.6c0.4,0,0.7,0.1,1.1,0.2c0.4,0.1,0.9,0.3,1.2,0.6c0.3,0.3,0.5,0.7,0.7,1.2c-0.6-0.3-1.1-0.7-1.6-1
	C488.8,357.3,488.3,357,487.9,356.6z"/>
<path class="st36" d="M491.2,359.6c0.2,0.2,0.4,0.5,0.6,0.8c0.2,0.3,0.5,0.6,0.8,1c0.1-0.3,0.1-0.6-0.2-0.9
	C492.2,360.2,491.8,359.9,491.2,359.6L491.2,359.6z"/>
<path class="st36" d="M490.9,359.9c0-0.5-0.2-0.8-0.7-1.1c-0.5-0.3-1.1-0.5-2-0.7c0.2,0.2,0.4,0.5,0.7,0.7c0.2,0.2,0.6,0.4,0.9,0.6
	c0.2,0.1,0.4,0.1,0.5,0.2C490.4,359.6,490.6,359.8,490.9,359.9z"/>
<path class="st36" d="M492.9,362.5c-0.1-0.2-0.7-0.9-0.9-1.2c-0.3-0.3-0.8-0.6-0.7-0.4c0.1,0.2,0.9,1.3,1.2,1.6
	C492.7,362.7,493,362.7,492.9,362.5L492.9,362.5z"/>
<path class="st36" d="M490.6,361.1c-0.1,0.1-0.5-0.6-1.1-0.9c-0.6-0.4-2-0.8-2.2-1c-0.3-0.2,0.3-0.2,0.6-0.1c0.3,0,0.9,0.3,1.3,0.5
	c0.3,0.1,0.4,0,0.6,0.3C490.1,360.1,490.6,361,490.6,361.1z"/>
<path class="st36" d="M492.6,365.2c0.1,0-0.3-1.3-0.5-1.8c-0.3-0.5-0.8-0.9-1-1.1c-0.3-0.3-0.4-0.4-0.6-0.4c-0.2,0-0.3,0.3-0.4,0.3
	c-0.1-0.1-0.1-0.4-0.3-0.6c-0.2-0.3-0.4-0.7-0.9-0.9c-0.6-0.3-2.2-0.6-2.4-0.6c-0.3,0,0.5,0.2,1,0.6c0.5,0.4,1.6,1.1,1.9,1.5
	c0.2,0.3-0.3,0.4-0.2,0.7c0.1,0.2,0.4,0.4,0.7,0.8c0.2,0.4,0.8,1.1,1,1.6c0.2,0.5,0.1,1.1,0.1,1.1c0-0.1,0.4-0.9,0.2-1.6
	c-0.2-0.6-1.2-1.7-1.3-2.1c-0.2-0.4,0.2-0.4,0.4-0.3c0.3,0,0.6,0.3,1,0.7C491.7,363.5,492.4,365.1,492.6,365.2L492.6,365.2z"/>
<path class="st40" d="M484.9,361.2c0.1-0.1,1-0.2,1.6,0.1c0.6,0.3,1.6,1.1,1.9,1.6c0.3,0.4-0.4,0.5-0.3,0.9c0.1,0.4,0.6,0.8,0.8,1.4
	c0.1,0.5,0.3,1.8,0.2,1.8c-0.1,0-0.5-1.3-0.8-1.7c-0.3-0.5-0.8-0.8-0.9-1.1c-0.1-0.4,0.6-0.5,0.4-0.9c-0.2-0.4-1.2-0.9-1.7-1.3
	C485.6,361.7,484.8,361.3,484.9,361.2z"/>
<path class="st40" d="M482.8,361.8c0,0.2,2.3,1.8,2.8,2.3c0.4,0.5-0.1,0.3,0,0.6c0.1,0.2,0.1,0.2,0.3,0.8c0.2,0.6,0.5,2.6,0.7,2.8
	c0.2,0.2,0.5-1.1,0.5-1.7c-0.1-0.7-0.6-1.6-0.7-2c-0.1-0.4,0.4-0.2,0.3-0.5c-0.1-0.3-0.4-0.8-1-1.2
	C484.9,362.5,482.8,361.6,482.8,361.8z"/>
<path class="st40" d="M440.3,401.8c-0.1,0,0.1,0.6,0.3,0.9c0.2,0.2,0.6,0.4,0.7,0.5c0.1,0,0.1-0.4-0.1-0.6
	C441,402.3,440.4,401.8,440.3,401.8L440.3,401.8z"/>
<path class="st40" d="M442.8,404.3c-0.1,0,0.2,0.4,0.3,0.6c0.1,0.1,0.3,0.3,0.4,0.2c0.1-0.1,0.1-0.3,0-0.4
	C443.3,404.6,442.9,404.3,442.8,404.3z"/>
<path class="st40" d="M445.4,406.6c-0.1-0.2-0.1-0.3-0.1-0.5c0-0.2,0-0.3,0-0.5l-0.6-0.2c0.1,0.3,0.2,0.6,0.4,0.8
	C445.1,406.5,445.2,406.6,445.4,406.6z"/>
<path class="st40" d="M446.9,407.5c-0.1-0.2-0.1-0.3-0.1-0.5c0-0.2,0-0.3,0-0.5l-0.7-0.1c0.1,0.3,0.2,0.6,0.4,0.8
	C446.7,407.3,446.8,407.4,446.9,407.5z"/>
<path class="st40" d="M448.9,408.7c-0.1-0.3-0.1-0.5-0.1-0.7c0-0.2,0-0.5,0-0.7l-0.8-0.2c0.1,0.4,0.2,0.8,0.4,1.1
	C448.5,408.5,448.7,408.6,448.9,408.7z"/>
<path class="st40" d="M450.9,409.5c-0.1-0.3-0.1-0.6-0.2-0.9c0-0.3,0-0.5,0-0.8l-0.9-0.2c0.1,0.5,0.2,0.9,0.4,1.3
	C450.4,409.2,450.6,409.4,450.9,409.5L450.9,409.5z"/>
<path class="st40" d="M453,410c-0.3,0-0.5-0.2-0.7-0.4c-0.2-0.3-0.6-1.2-0.6-1.3c0-0.1,0.5,0.3,0.8,0.6c0.2,0.3,0.5,0.7,0.6,0.9
	c0.1,0.1,0.1,0.1,0,0c0.2,0.1,0.4,0.2,0.6,0.4c0.1,0.1,0.4,0.3,0.4,0.4c-0.1,0.1-0.4,0.2-0.6,0.1C453.3,410.6,453.1,410.3,453,410z"
	/>
<path class="st40" d="M455.6,410.6c-0.3,0-0.6-0.2-0.8-0.5c-0.3-0.4-0.7-1.4-0.7-1.5c0.1-0.1,0.6,0.4,0.9,0.8
	c0.3,0.3,0.6,0.9,0.8,1.1c0.1,0.2,0.1,0.2,0,0c0.3,0.2,0.5,0.3,0.7,0.4c0.2,0.1,0.5,0.3,0.5,0.4c-0.1,0.1-0.5,0.2-0.8,0.1
	C456,411.3,455.8,411,455.6,410.6L455.6,410.6z"/>
<path class="st40" d="M458.2,410.6c-0.4,0.1-0.8,0-1.2-0.5c-0.5-0.5-1.3-2.2-1.3-2.3c0-0.2,0.9,0.8,1.4,1.3c0.4,0.4,1,1,1.2,1.2
	c0.2,0.2,0.2,0.2,0,0c0.4,0.1,0.7,0.3,1,0.4c0.3,0.1,0.7,0.3,0.7,0.4c0,0.1-0.6,0.4-0.9,0.3C458.8,411.5,458.5,411.2,458.2,410.6
	L458.2,410.6z"/>
<path class="st40" d="M459.5,409.6c-0.6-0.2-1.1-0.5-1.4-1c-0.3-0.5-0.4-1.6-0.3-1.8c0.1-0.2,0.6,0.4,1,0.9c0.3,0.5,0.6,1,1,1.8
	c1.5,0.5,2.2,0.9,2.4,1c0.1,0.1-1,0.1-1.5,0c-0.4-0.1-0.9-0.2-1.1-0.3C459.4,410.1,459.4,409.9,459.5,409.6z"/>
<path class="st40" d="M461.8,408.5l0.3-0.4c-0.3-0.2-0.6-0.4-0.8-0.9c-0.3-0.4-0.5-1.5-0.7-1.6c-0.2-0.2-0.5,0.4-0.5,0.7
	c-0.1,0.3,0,0.7,0.3,1.1c0.2,0.4,0.6,0.8,1.1,1.2c-0.2,0.2-0.3,0.4-0.1,0.6c0.1,0.1,0.5,0.3,1.1,0.4c0.6,0.1,1.4,0.1,2.4,0
	c-0.9-0.2-1.5-0.3-2-0.6S461.9,408.7,461.8,408.5L461.8,408.5z"/>
<path class="st40" d="M464.7,407.3l0.3-0.3c-0.3-0.2-0.6-0.5-0.8-1c-0.2-0.5-0.4-1.6-0.6-1.7c-0.2-0.2-0.5,0.4-0.6,0.7
	c-0.1,0.3,0,0.7,0.2,1.2c0.2,0.4,0.5,0.9,1.1,1.4c-0.3,0.2-0.4,0.4-0.2,0.6c0.1,0.2,0.5,0.4,1.1,0.5c0.6,0.1,1.5,0.2,2.6,0.3
	c-0.9-0.3-1.6-0.5-2.1-0.8C465.1,407.9,464.8,407.6,464.7,407.3L464.7,407.3z"/>
<path class="st40" d="M467.1,406.1l0.3-0.4c-0.3-0.2-0.6-0.5-0.9-0.9c-0.3-0.4-0.6-1.5-0.8-1.6c-0.3-0.1-0.5,0.5-0.5,0.8
	c-0.1,0.3,0.1,0.7,0.3,1.1c0.3,0.4,0.7,0.8,1.3,1.2c-0.2,0.2-0.3,0.5-0.1,0.6c0.1,0.2,0.5,0.3,1.1,0.4c0.6,0,1.5,0,2.6-0.1
	c-0.9-0.1-1.6-0.3-2.2-0.5C467.6,406.6,467.3,406.3,467.1,406.1L467.1,406.1z"/>
<path class="st40" d="M469.5,404.4c0.2,0.2,0.8,0.1,1-0.4c0.1-0.5-0.2-1.9-0.3-2.4c-0.2-0.5-0.6-0.8-0.6-0.6
	c-0.1,0.1-0.1,0.7-0.1,1.3C469.4,402.8,469.3,404.1,469.5,404.4L469.5,404.4z"/>
<path class="st40" d="M469.9,404.8c0,0.1,0,0.1-0.1,0.3c-0.1,0.1-0.4,0.3-0.7,0.5c0.2,0.2,0.6,0.4,1.1,0.5c0.4,0.1,1.2,0.3,1.7,0.2
	c0.5-0.1,0.8-0.3,1.1-0.6c-0.6,0.1-1.1,0.1-1.6-0.1C470.9,405.5,470.4,405.2,469.9,404.8z"/>
<path class="st36" d="M474.6,402.4c0,0.1,0.1,0,0.3-0.2c0.1-0.2,0.3-0.5,0.5-0.9c0.1-0.2,0.3-0.3,0.5-0.4c0.2-0.1,0.6-0.1,0.8-0.2
	c0.2-0.1,0.4,0,0.7-0.2c0.2-0.2,0.4-0.9,0.7-1.1c0.3-0.2,0.8-0.2,1.3-0.2c0.5,0,0.9,0,1.2-0.1c0.3-0.2,0.3-0.5,0.5-0.7
	c0.2-0.3,0.3-0.6,0.6-0.7c0.3-0.1,0.9,0,1.3-0.1c0.4-0.1,0.8-0.2,1.2-0.4c-0.7,0.3-1.2,0.5-1.6,0.7c-0.4,0.2-0.6,0.1-0.8,0.3
	c-0.2,0.2-0.1,0.6-0.6,0.8c-0.6,0.2-2.1,0.2-2.7,0.5c-0.6,0.2-0.5,0.8-0.9,1.1c-0.5,0.2-1.5,0.2-1.9,0.4c-0.4,0.2-0.3,0.7-0.4,0.9
	c-0.2,0.2-0.5,0.1-0.6,0.2C474.6,402.5,474.6,402.5,474.6,402.4L474.6,402.4z"/>
<path class="st40" d="M475.2,401.2c0.2,0.2,0.8,0.1,1-0.4c0.1-0.5-0.2-1.9-0.3-2.4c-0.2-0.5-0.6-0.8-0.6-0.6
	c-0.1,0.1-0.1,0.7-0.1,1.3C475.1,399.7,475,400.9,475.2,401.2L475.2,401.2z"/>
<path class="st40" d="M475.7,401.6c0.1,0.1,0,0.2-0.1,0.4c-0.1,0.1-0.3,0.2-0.6,0.4c0.3,0.1,0.7,0.2,1.1,0.4
	c0.4,0.2,0.8,0.4,1.2,0.5c0.3,0,0.7-0.2,1-0.6c-0.1,0-0.4-0.1-0.8-0.3C477.1,402.2,476.5,401.9,475.7,401.6z"/>
<path class="st36" d="M473.9,402.8c0-0.1-0.8-0.1-0.9,0c-0.2,0.1-0.2,0.3-0.4,0.6c-0.3,0.2-1.2,0.6-1.3,0.7
	c-0.1,0.1,0.5,0.2,0.7,0.1c0.2-0.2,0.4-0.6,0.7-0.8C473.1,403.1,473.8,402.9,473.9,402.8L473.9,402.8z"/>
<path class="st40" d="M472.1,402.9c0.2,0.2,0.8,0.1,0.9-0.4c0.1-0.5-0.1-1.9-0.3-2.4c-0.2-0.5-0.6-0.8-0.6-0.6
	c-0.1,0.1-0.1,0.7-0.1,1.3C472,401.4,472,402.6,472.1,402.9L472.1,402.9z"/>
<path class="st40" d="M472.6,403.4c0,0.1,0,0.1-0.1,0.3c-0.1,0.1-0.4,0.3-0.7,0.5c0.2,0.2,0.6,0.4,1.1,0.5c0.4,0.1,1.2,0.3,1.7,0.2
	c0.5-0.1,0.8-0.3,1.1-0.6c-0.6,0.1-1.1,0.1-1.6-0.1C473.5,404.1,473,403.8,472.6,403.4L472.6,403.4z"/>
<path class="st36" d="M478.3,399.5c-0.2-0.1-0.2-0.6-0.2-1.2c0-0.5-0.1-1.5,0.1-1.9c0.1-0.4,0.4-0.6,0.5-0.4
	c0.1,0.2,0.4,1.1,0.4,1.6c0,0.5,0,0.9-0.1,1.2C478.9,399.2,478.5,399.6,478.3,399.5L478.3,399.5z"/>
<path class="st36" d="M478.2,400c0.2,0,0.5,0.2,1,0.4c0.4,0.2,1.4,0.5,1.6,0.7c0.1,0.2-0.5,0.6-1,0.5c-0.5-0.1-1.8-0.8-2-1.1
	C477.5,400.3,478,400,478.2,400z"/>
<path class="st36" d="M481.4,398.4c-0.1-0.3-0.2-1.4-0.1-2c0-0.6,0.3-1.6,0.5-1.7c0.2-0.1,0.5,0.7,0.5,1.3c0,0.6-0.1,1.6-0.2,2
	C481.9,398.4,481.6,398.6,481.4,398.4z"/>
<path class="st36" d="M480.8,399.4c0.6,0.3,1.2,0.5,1.7,0.7c0.6,0.2,1.3,0.2,1.5,0.2c0.1-0.1-0.3-0.6-0.7-0.8
	c-0.4-0.2-1.1-0.4-1.9-0.5c-0.1,0.2-0.2,0.3-0.4,0.4C481,399.3,480.9,399.4,480.8,399.4z"/>
<path class="st36" d="M483.8,397.5c0.4-0.4,0.7-1,0.8-1.8c0.1-0.8-0.1-2.3,0-2.8c0.1-0.5,0.6-0.3,0.8,0c0.2,0.3,0.2,1.2,0.2,1.9
	c-0.1,0.6-0.3,1.3-0.6,2c0.6,0.4,1,0.8,1.3,1.2c0.2,0.4,0.3,0.9,0.2,1.1c-0.2,0.1-0.8,0-1.3-0.2
	C484.7,398.6,484.3,398.2,483.8,397.5L483.8,397.5z"/>
<path class="st36" d="M485.9,396.4c0.3,0.1,0.6,0,0.8-0.2c0.2-0.3,0.4-0.6,0.6-1.3c0.2-0.7,0.3-2.3,0.5-2.9c0.2-0.6,0.5-0.7,0.6-0.4
	c0.1,0.3,0,1.3,0,1.9c0,0.5-0.2,1-0.1,1.2c0,0.2,0.1,0.3,0.2,0.1c-0.2,0.1-0.3,0.2-0.4,0.4c-0.1,0.1-0.3,0.4-0.2,0.6
	c0,0.2,0.3,0.3,0.5,0.6c0.2,0.3,0.6,0.8,0.5,1.2c-0.1,0.3-0.7,0.7-1,0.6c-0.3-0.2-0.6-1.1-0.9-1.4
	C486.7,396.5,486.3,396.4,485.9,396.4z"/>
<path class="st41" d="M488.8,395c0.2,0.1,0.4,0.1,0.6-0.2c0.2-0.2,0.5-0.4,0.7-1.1c0.2-0.8,0.1-2.7,0.3-3.2c0.2-0.5,0.6-0.4,0.8,0.1
	c0.1,0.4-0.1,1.9-0.2,2.5c-0.1,0.5-0.3,0.5-0.2,0.6c0.1,0.1,0.4,0.2,0.7,0.1c0.2-0.1,0.5-0.3,0.7-0.7c0.2-0.4,0.2-1,0.4-1.7
	c0.1-0.7,0.3-2.2,0.4-2.3c0.1-0.1,0.4,1,0.4,1.5c-0.1,0.5-0.5,1.3-0.5,1.6c0,0.3,0.3,0.3,0.8,0.1c-0.4,0.1-0.6,0.2-0.8,0.4
	c-0.1,0.2-0.1,0.3-0.1,0.7c0,0.3,0.3,0.9,0.2,1.3c-0.1,0.4-0.4,0.8-0.8,1.2c0.1-0.6,0-1-0.2-1.3c-0.2-0.3-0.8-0.6-1-0.5
	c-0.2,0-0.1,0.3-0.1,0.8c0,0.4-0.1,1.4-0.2,1.8c-0.1,0.4-0.3,0.5-0.6,0.4c0.1-0.5,0.1-1,0-1.2c-0.1-0.3-0.4-0.4-0.7-0.5
	c-0.3-0.1-0.8-0.2-0.9-0.3C488.5,395,488.6,395,488.8,395L488.8,395z"/>
<path class="st41" d="M493.8,392c0.2-0.1,0.3-0.3,0.5-0.8c0.1-0.5,0.4-1.4,0.6-1.9c0.1-0.6,0.2-1.3,0.4-1.4c0.1-0.1,0.3,0.2,0.3,0.9
	c-0.1,0.6-0.3,1.6-0.7,3c0.2,0,0.5-0.2,0.7-0.5c0.2-0.3,0.4-0.8,0.6-1.3c0.1-0.6,0.2-1.9,0.3-2.1c0.1-0.3,0.3,0.1,0.4,0.4
	c0.1,0.3,0.1,0.8,0,1.4c-0.1,0.5-0.3,1-0.5,1.6c0.1,0.4,0.1,0.9,0.1,1.4c-0.1,0.4-0.5,1.2-0.6,1.3c-0.1,0,0.2-0.8,0.1-1.2
	c-0.1-0.3-0.3-0.7-0.5-0.7c-0.2-0.1-0.6,0-0.7,0.3c-0.2,0.3,0.1,0.9,0,1.4c-0.2,0.4-0.4,0.8-0.9,1.2c0.3-0.4,0.4-0.8,0.4-1.3
	c-0.1-0.5-0.5-1-0.6-1.3C493.6,391.9,493.7,391.8,493.8,392L493.8,392z"/>
</svg>
