<?xml version="1.0" encoding="utf-8"?>
<!-- Generator: Adobe Illustrator 24.1.1, SVG Export Plug-In . SVG Version: 6.00 Build 0)  -->
<svg version="1.1" id="Layer_1" xmlns="http://www.w3.org/2000/svg" xmlns:xlink="http://www.w3.org/1999/xlink" x="0px" y="0px"
	 viewBox="0 0 470.2 361.9" style="enable-background:new 0 0 470.2 361.9;" xml:space="preserve">
<style type="text/css">
	.st0{fill:#5F230F;}
	.st1{fill:#A51E26;}
	.st2{fill:#050606;}
	.st3{fill:#FFFFFF;}
	.st4{fill:#FDFEFE;stroke:#000000;stroke-miterlimit:10;}
	.st5{fill:#F6A91C;}
</style>
<g>
	<polygon class="st0" points="446.8,153.1 234.9,153.1 23,153.1 0,213.2 234.9,213.2 469.8,213.2 	"/>
	<polygon class="st1" points="468.9,338.9 468.9,215.3 275.7,215.3 275.7,96.4 276.4,96.4 276.4,50.6 275.9,50.6 235.3,0 
		195.1,50.6 194.6,50.6 194.6,96.4 195.3,96.4 195.3,215.3 2.1,215.3 2.1,338.9 2.1,360.4 470.2,360.4 470.2,338.9 	"/>
	<g>
		<g>
			<rect x="223.7" y="114.7" class="st2" width="22.5" height="36.2"/>
			<path class="st3" d="M222.7,114.5v38.2h24.4v-38.2L222.7,114.5z M245.1,124h-6.5v-7.6h6.5V124z M231.7,141.5v-7.2h6v7.2H231.7z
				 M237.7,143.1v7.6h-6v-7.6H237.7z M237.7,125.6v7.2h-6v-7.2H237.7z M231.7,124v-7.6h6v7.6H231.7z M230.7,132.8h-6.1v-7.2h6.1
				V132.8z M230.7,134.3v7.2h-6.1v-7.2H230.7z M238.7,134.3h6.5v7.2h-6.5V134.3z M238.7,132.8v-7.2h6.5v7.2H238.7z M230.7,116.4v7.6
				h-6.1v-7.6H230.7z M224.6,143.1h6.1v7.6h-6.1V143.1z M238.7,150.7v-7.6h6.5v7.6H238.7z"/>
		</g>
		<g>
			<rect x="223.7" y="165.5" class="st2" width="22.5" height="36.2"/>
			<path class="st3" d="M222.7,165.3v38.2h24.4v-38.2H222.7z M245.1,174.8h-6.5v-7.6h6.5V174.8z M231.7,192.3v-7.2h6v7.2H231.7z
				 M237.7,193.9v7.6h-6v-7.6H237.7z M237.7,176.4v7.2h-6v-7.2H237.7z M231.7,174.8v-7.6h6v7.6H231.7z M230.7,183.6h-6.1v-7.2h6.1
				V183.6z M230.7,185.2v7.2h-6.1v-7.2H230.7z M238.7,185.2h6.5v7.2h-6.5V185.2z M238.7,183.6v-7.2h6.5v7.2H238.7z M230.7,167.3v7.6
				h-6.1v-7.6H230.7z M224.6,193.9h6.1v7.6h-6.1V193.9z M238.7,201.5v-7.6h6.5v7.6H238.7z"/>
		</g>
	</g>
	<g>
		<g>
			<rect x="28.2" y="251.9" class="st2" width="22.5" height="36.2"/>
			<path class="st3" d="M27.2,251.7v38.2h24.4v-38.2H27.2z M49.7,261.2h-6.5v-7.6h6.5V261.2z M36.2,278.7v-7.2h6v7.2H36.2z
				 M42.2,280.3v7.6h-6v-7.6H42.2z M42.2,262.8v7.2h-6v-7.2H42.2z M36.2,261.2v-7.6h6v7.6H36.2z M35.2,270h-6.1v-7.2h6.1V270z
				 M35.2,271.5v7.2h-6.1v-7.2H35.2z M43.2,271.5h6.5v7.2h-6.5V271.5z M43.2,270v-7.2h6.5v7.2H43.2z M35.2,253.6v7.6h-6.1v-7.6H35.2
				z M29.2,280.3h6.1v7.6h-6.1V280.3z M43.2,287.9v-7.6h6.5v7.6H43.2z"/>
		</g>
		<g>
			<rect x="28.2" y="302.7" class="st2" width="22.5" height="36.2"/>
			<path class="st3" d="M27.2,302.5v38.2h24.4v-38.2H27.2z M49.7,312h-6.5v-7.6h6.5V312z M36.2,329.5v-7.1h6v7.2h-6V329.5z
				 M42.2,331.1v7.6h-6v-7.6H42.2z M42.2,313.6v7.2h-6v-7.2H42.2z M36.2,312v-7.6h6v7.6H36.2z M35.2,320.8h-6.1v-7.2h6.1V320.8z
				 M35.2,322.4v7.2h-6.1v-7.2H35.2z M43.2,322.4h6.5v7.2h-6.5V322.4z M43.2,320.8v-7.2h6.5v7.2H43.2z M35.2,304.5v7.6h-6.1v-7.6
				H35.2z M29.2,331.1h6.1v7.6h-6.1V331.1z M43.2,338.7v-7.6h6.5v7.6H43.2z"/>
		</g>
		<g>
			<g>
				<rect x="67.5" y="251.9" class="st2" width="22.5" height="36.2"/>
				<path class="st3" d="M66.5,251.7v38.2H91v-38.2H66.5z M89,261.2h-6.5v-7.6H89V261.2z M75.6,278.7v-7.2h6v7.2H75.6z M81.5,280.3
					v7.6h-6v-7.6H81.5z M81.5,262.8v7.2h-6v-7.2H81.5z M75.6,261.2v-7.6h6v7.6H75.6z M74.6,270h-6.1v-7.2h6.1V270z M74.6,271.5v7.2
					h-6.1v-7.2H74.6z M82.5,271.5H89v7.2h-6.5V271.5z M82.5,270v-7.2H89v7.2H82.5z M74.6,253.6v7.6h-6.1v-7.6H74.6z M68.5,280.3h6.1
					v7.6h-6.1V280.3z M82.5,287.9v-7.6H89v7.6H82.5z"/>
			</g>
			<g>
				<rect x="67.5" y="302.7" class="st2" width="22.5" height="36.2"/>
				<path class="st3" d="M66.5,302.5v38.2H91v-38.2H66.5z M89,312h-6.5v-7.6H89V312z M75.6,329.5v-7.1h6v7.2h-6V329.5z M81.5,331.1
					v7.6h-6v-7.6H81.5z M81.5,313.6v7.2h-6v-7.2H81.5z M75.6,312v-7.6h6v7.6H75.6z M74.6,320.8h-6.1v-7.2h6.1V320.8z M74.6,322.4
					v7.2h-6.1v-7.2H74.6z M82.5,322.4H89v7.2h-6.5V322.4z M82.5,320.8v-7.2H89v7.2H82.5z M74.6,304.5v7.6h-6.1v-7.6H74.6z
					 M68.5,331.1h6.1v7.6h-6.1V331.1z M82.5,338.7v-7.6H89v7.6H82.5z"/>
			</g>
		</g>
		<g>
			<g>
				<rect x="106.9" y="251.9" class="st2" width="22.5" height="36.2"/>
				<path class="st3" d="M105.9,251.7v38.2h24.4v-38.2H105.9z M128.4,261.2h-6.5v-7.6h6.5V261.2z M114.9,278.7v-7.2h6v7.2H114.9z
					 M120.9,280.3v7.6h-6v-7.6H120.9z M120.9,262.8v7.2h-6v-7.2H120.9z M114.9,261.2v-7.6h6v7.6H114.9z M113.9,270h-6.1v-7.2h6.1
					V270z M113.9,271.5v7.2h-6.1v-7.2H113.9z M121.9,271.5h6.5v7.2h-6.5V271.5z M121.9,270v-7.2h6.5v7.2H121.9z M113.9,253.6v7.6
					h-6.1v-7.6H113.9z M107.9,280.3h6.1v7.6h-6.1V280.3z M121.9,287.9v-7.6h6.5v7.6H121.9z"/>
			</g>
			<g>
				<rect x="106.9" y="302.7" class="st2" width="22.5" height="36.2"/>
				<path class="st3" d="M105.9,302.5v38.2h24.4v-38.2H105.9z M128.4,312h-6.5v-7.6h6.5V312z M114.9,329.5v-7.1h6v7.2h-6V329.5z
					 M120.9,331.1v7.6h-6v-7.6H120.9z M120.9,313.6v7.2h-6v-7.2H120.9z M114.9,312v-7.6h6v7.6H114.9z M113.9,320.8h-6.1v-7.2h6.1
					V320.8z M113.9,322.4v7.2h-6.1v-7.2H113.9z M121.9,322.4h6.5v7.2h-6.5V322.4z M121.9,320.8v-7.2h6.5v7.2H121.9z M113.9,304.5
					v7.6h-6.1v-7.6H113.9z M107.9,331.1h6.1v7.6h-6.1V331.1z M121.9,338.7v-7.6h6.5v7.6H121.9z"/>
			</g>
		</g>
		<g>
			<g>
				<rect x="146.2" y="251.9" class="st2" width="22.5" height="36.2"/>
				<path class="st3" d="M145.2,251.7v38.2h24.4v-38.2H145.2z M167.7,261.2h-6.5v-7.6h6.5V261.2z M154.3,278.7v-7.2h6v7.2H154.3z
					 M160.2,280.3v7.6h-6v-7.6H160.2z M160.2,262.8v7.2h-6v-7.2H160.2z M154.3,261.2v-7.6h6v7.6H154.3z M153.3,270h-6.1v-7.2h6.1
					V270z M153.3,271.5v7.2h-6.1v-7.2H153.3z M161.2,271.5h6.5v7.2h-6.5V271.5z M161.2,270v-7.2h6.5v7.2H161.2z M153.3,253.6v7.6
					h-6.1v-7.6H153.3z M147.2,280.3h6.1v7.6h-6.1V280.3z M161.2,287.9v-7.6h6.5v7.6H161.2z"/>
			</g>
			<g>
				<rect x="146.2" y="302.7" class="st2" width="22.5" height="36.2"/>
				<path class="st3" d="M145.2,302.5v38.2h24.4v-38.2H145.2z M167.7,312h-6.5v-7.6h6.5V312z M154.3,329.5v-7.1h6v7.2h-6V329.5z
					 M160.2,331.1v7.6h-6v-7.6H160.2z M160.2,313.6v7.2h-6v-7.2H160.2z M154.3,312v-7.6h6v7.6H154.3z M153.3,320.8h-6.1v-7.2h6.1
					V320.8z M153.3,322.4v7.2h-6.1v-7.2H153.3z M161.2,322.4h6.5v7.2h-6.5V322.4z M161.2,320.8v-7.2h6.5v7.2H161.2z M153.3,304.5
					v7.6h-6.1v-7.6H153.3z M147.2,331.1h6.1v7.6h-6.1V331.1z M161.2,338.7v-7.6h6.5v7.6H161.2z"/>
			</g>
		</g>
		<g>
			<g>
				<rect x="303.6" y="251.9" class="st2" width="22.5" height="36.2"/>
				<path class="st3" d="M302.6,251.7v38.2H327v-38.2H302.6z M325.1,261.2h-6.5v-7.6h6.5V261.2z M311.6,278.7v-7.2h6v7.2H311.6z
					 M317.6,280.3v7.6h-6v-7.6H317.6z M317.6,262.8v7.2h-6v-7.2H317.6z M311.6,261.2v-7.6h6v7.6H311.6z M310.7,270h-6.1v-7.2h6.1
					V270z M310.7,271.5v7.2h-6.1v-7.2H310.7z M318.6,271.5h6.5v7.2h-6.5V271.5z M318.6,270v-7.2h6.5v7.2H318.6z M310.7,253.6v7.6
					h-6.1v-7.6H310.7z M304.6,280.3h6.1v7.6h-6.1V280.3z M318.6,287.9v-7.6h6.5v7.6H318.6z"/>
			</g>
			<g>
				<rect x="303.6" y="302.7" class="st2" width="22.5" height="36.2"/>
				<path class="st3" d="M302.6,302.5v38.2H327v-38.2H302.6z M325.1,312h-6.5v-7.6h6.5V312z M311.6,329.5v-7.1h6v7.2h-6V329.5z
					 M317.6,331.1v7.6h-6v-7.6H317.6z M317.6,313.6v7.2h-6v-7.2H317.6z M311.6,312v-7.6h6v7.6H311.6z M310.7,320.8h-6.1v-7.2h6.1
					V320.8z M310.7,322.4v7.2h-6.1v-7.2H310.7z M318.6,322.4h6.5v7.2h-6.5V322.4z M318.6,320.8v-7.2h6.5v7.2H318.6z M310.7,304.5
					v7.6h-6.1v-7.6H310.7z M304.6,331.1h6.1v7.6h-6.1V331.1z M318.6,338.7v-7.6h6.5v7.6H318.6z"/>
			</g>
		</g>
		<g>
			<rect x="184.8" y="251.9" class="st2" width="22.5" height="36.2"/>
			<path class="st3" d="M183.8,251.7v38.2h24.4v-38.2H183.8z M206.2,261.2h-6.5v-7.6h6.5V261.2z M192.8,278.7v-7.2h6v7.2H192.8z
				 M198.8,280.3v7.6h-6v-7.6H198.8z M198.8,262.8v7.2h-6v-7.2H198.8z M192.8,261.2v-7.6h6v7.6H192.8z M191.8,270h-6.1v-7.2h6.1V270
				z M191.8,271.5v7.2h-6.1v-7.2H191.8z M199.8,271.5h6.5v7.2h-6.5V271.5z M199.8,270v-7.2h6.5v7.2H199.8z M191.8,253.6v7.6h-6.1
				v-7.6H191.8z M185.7,280.3h6.1v7.6h-6.1V280.3z M199.8,287.9v-7.6h6.5v7.6H199.8z"/>
		</g>
		<g>
			<rect x="223.5" y="251.9" class="st2" width="22.5" height="36.2"/>
			<path class="st3" d="M222.5,251.7v38.2h24.4v-38.2H222.5z M244.9,261.2h-6.5v-7.6h6.5V261.2z M231.5,278.7v-7.2h6v7.2H231.5z
				 M237.5,280.3v7.6h-6v-7.6H237.5z M237.5,262.8v7.2h-6v-7.2H237.5z M231.5,261.2v-7.6h6v7.6H231.5z M230.5,270h-6.1v-7.2h6.1V270
				z M230.5,271.5v7.2h-6.1v-7.2H230.5z M238.5,271.5h6.5v7.2h-6.5V271.5z M238.5,270v-7.2h6.5v7.2H238.5z M230.5,253.6v7.6h-6.1
				v-7.6H230.5z M224.4,280.3h6.1v7.6h-6.1V280.3z M238.5,287.9v-7.6h6.5v7.6H238.5z"/>
		</g>
		<g>
			<rect x="263.6" y="251.9" class="st2" width="22.5" height="36.2"/>
			<path class="st3" d="M262.6,251.7v38.2H287v-38.2H262.6z M285.1,261.2h-6.5v-7.6h6.5V261.2z M271.7,278.7v-7.2h6v7.2H271.7z
				 M277.6,280.3v7.6h-6v-7.6H277.6z M277.6,262.8v7.2h-6v-7.2H277.6z M271.7,261.2v-7.6h6v7.6H271.7z M270.7,270h-6.1v-7.2h6.1V270
				z M270.7,271.5v7.2h-6.1v-7.2H270.7z M278.6,271.5h6.5v7.2h-6.5V271.5z M278.6,270v-7.2h6.5v7.2H278.6z M270.7,253.6v7.6h-6.1
				v-7.6H270.7z M264.6,280.3h6.1v7.6h-6.1V280.3z M278.6,287.9v-7.6h6.5v7.6H278.6z"/>
		</g>
		<g>
			<g>
				<rect x="342.9" y="251.9" class="st2" width="22.5" height="36.2"/>
				<path class="st3" d="M342,251.7v38.2h24.4v-38.2H342z M364.4,261.2h-6.5v-7.6h6.5V261.2z M351,278.7v-7.2h6v7.2H351z M357,280.3
					v7.6h-6v-7.6H357z M357,262.8v7.2h-6v-7.2H357z M351,261.2v-7.6h6v7.6H351z M350,270h-6.1v-7.2h6.1V270z M350,271.5v7.2h-6.1
					v-7.2H350z M358,271.5h6.5v7.2H358V271.5z M358,270v-7.2h6.5v7.2H358z M350,253.6v7.6h-6.1v-7.6H350z M343.9,280.3h6.1v7.6h-6.1
					V280.3z M358,287.9v-7.6h6.5v7.6H358z"/>
			</g>
			<g>
				<rect x="342.9" y="302.7" class="st2" width="22.5" height="36.2"/>
				<path class="st3" d="M342,302.5v38.2h24.4v-38.2H342z M364.4,312h-6.5v-7.6h6.5V312z M351,329.5v-7.1h6v7.2h-6V329.5z
					 M357,331.1v7.6h-6v-7.6H357z M357,313.6v7.2h-6v-7.2H357z M351,312v-7.6h6v7.6H351z M350,320.8h-6.1v-7.2h6.1V320.8z
					 M350,322.4v7.2h-6.1v-7.2H350z M358,322.4h6.5v7.2H358V322.4z M358,320.8v-7.2h6.5v7.2H358z M350,304.5v7.6h-6.1v-7.6H350z
					 M343.9,331.1h6.1v7.6h-6.1V331.1z M358,338.7v-7.6h6.5v7.6H358z"/>
			</g>
		</g>
		<g>
			<g>
				<rect x="382.3" y="251.9" class="st2" width="22.5" height="36.2"/>
				<path class="st3" d="M381.3,251.7v38.2h24.4v-38.2H381.3z M403.8,261.2h-6.5v-7.6h6.5V261.2z M390.3,278.7v-7.2h6v7.2H390.3z
					 M396.3,280.3v7.6h-6v-7.6H396.3z M396.3,262.8v7.2h-6v-7.2H396.3z M390.3,261.2v-7.6h6v7.6H390.3z M389.3,270h-6.1v-7.2h6.1
					V270z M389.3,271.5v7.2h-6.1v-7.2H389.3z M397.3,271.5h6.5v7.2h-6.5V271.5z M397.3,270v-7.2h6.5v7.2H397.3z M389.3,253.6v7.6
					h-6.1v-7.6H389.3z M383.3,280.3h6.1v7.6h-6.1V280.3z M397.3,287.9v-7.6h6.5v7.6H397.3z"/>
			</g>
			<g>
				<rect x="382.3" y="302.7" class="st2" width="22.5" height="36.2"/>
				<path class="st3" d="M381.3,302.5v38.2h24.4v-38.2H381.3z M403.8,312h-6.5v-7.6h6.5V312z M390.3,329.5v-7.1h6v7.2h-6V329.5z
					 M396.3,331.1v7.6h-6v-7.6H396.3z M396.3,313.6v7.2h-6v-7.2H396.3z M390.3,312v-7.6h6v7.6H390.3z M389.3,320.8h-6.1v-7.2h6.1
					V320.8z M389.3,322.4v7.2h-6.1v-7.2H389.3z M397.3,322.4h6.5v7.2h-6.5V322.4z M397.3,320.8v-7.2h6.5v7.2H397.3z M389.3,304.5
					v7.6h-6.1v-7.6H389.3z M383.3,331.1h6.1v7.6h-6.1V331.1z M397.3,338.7v-7.6h6.5v7.6H397.3z"/>
			</g>
		</g>
		<g>
			<g>
				<rect x="421.6" y="251.9" class="st2" width="22.5" height="36.2"/>
				<path class="st3" d="M420.6,251.7v38.2H445v-38.2H420.6z M443.1,261.2h-6.5v-7.6h6.5V261.2z M429.7,278.7v-7.2h6v7.2H429.7z
					 M435.7,280.3v7.6h-6v-7.6H435.7z M435.7,262.8v7.2h-6v-7.2H435.7z M429.7,261.2v-7.6h6v7.6H429.7z M428.7,270h-6.1v-7.2h6.1
					V270z M428.7,271.5v7.2h-6.1v-7.2H428.7z M436.6,271.5h6.5v7.2h-6.5V271.5z M436.6,270v-7.2h6.5v7.2H436.6z M428.7,253.6v7.6
					h-6.1v-7.6H428.7z M422.6,280.3h6.1v7.6h-6.1V280.3z M436.6,287.9v-7.6h6.5v7.6H436.6z"/>
			</g>
			<g>
				<rect x="421.6" y="302.7" class="st2" width="22.5" height="36.2"/>
				<path class="st3" d="M420.6,302.5v38.2H445v-38.2H420.6z M443.1,312h-6.5v-7.6h6.5V312z M429.7,329.5v-7.1h6v7.2h-6V329.5z
					 M435.7,331.1v7.6h-6v-7.6H435.7z M435.7,313.6v7.2h-6v-7.2H435.7z M429.7,312v-7.6h6v7.6H429.7z M428.7,320.8h-6.1v-7.2h6.1
					V320.8z M428.7,322.4v7.2h-6.1v-7.2H428.7z M436.6,322.4h6.5v7.2h-6.5V322.4z M436.6,320.8v-7.2h6.5v7.2H436.6z M428.7,304.5
					v7.6h-6.1v-7.6H428.7z M422.6,331.1h6.1v7.6h-6.1V331.1z M436.6,338.7v-7.6h6.5v7.6H436.6z"/>
			</g>
		</g>
	</g>
	<circle class="st4" cx="234.9" cy="63.1" r="19.8"/>
	<path d="M245.1,53.8l-0.8-0.7l-8.7,9.4c-0.3-0.1-0.6-0.2-0.9-0.2c-0.3,0-0.7,0.1-1,0.2l-11.6-12.6l-0.8,0.7l11.5,12.5
		c-0.5,0.5-0.7,1.1-0.7,1.8c0,1.4,1.2,2.6,2.6,2.6s2.6-1.2,2.6-2.6c0-0.7-0.3-1.4-0.8-1.8L245.1,53.8z"/>
	<rect x="181" y="220.9" class="st3" width="109.9" height="20.3"/>
	<g>
		<path d="M191.1,234.1c0.8,0.4,1.9,0.8,3.2,0.8s2-0.5,2-1.4c0-0.8-0.6-1.2-2.1-1.8c-2.1-0.7-3.5-1.9-3.5-3.7c0-2.2,1.8-3.8,4.8-3.8
			c1.4,0,2.5,0.3,3.2,0.6l-0.6,2.3c-0.5-0.2-1.4-0.6-2.6-0.6s-1.8,0.6-1.8,1.2c0,0.8,0.7,1.2,2.3,1.8c2.2,0.8,3.3,2,3.3,3.8
			c0,2.1-1.6,3.9-5.1,3.9c-1.4,0-2.9-0.4-3.6-0.8L191.1,234.1z"/>
		<path d="M214.2,236.6c-0.5,0.3-1.7,0.5-3.2,0.5c-4.4,0-6.6-2.7-6.6-6.3c0-4.3,3.1-6.7,6.9-6.7c1.5,0,2.6,0.3,3.1,0.6l-0.6,2.3
			c-0.6-0.2-1.4-0.5-2.4-0.5c-2.3,0-4,1.4-4,4.2c0,2.5,1.5,4.1,4,4.1c0.9,0,1.8-0.2,2.4-0.4L214.2,236.6z"/>
		<path d="M222.7,224.4v4.9h4.7v-4.9h2.8V237h-2.8v-5.3h-4.7v5.3h-2.9v-12.6H222.7z"/>
		<path d="M248.1,230.6c0,4.1-2.5,6.7-6.2,6.7s-5.9-2.8-5.9-6.4c0-3.8,2.4-6.6,6.1-6.6C246,224.2,248.1,227.1,248.1,230.6z
			 M239,230.7c0,2.5,1.2,4.2,3.1,4.2c1.9,0,3-1.8,3-4.3c0-2.3-1.1-4.2-3.1-4.2C240.1,226.4,239,228.3,239,230.7z"/>
		<path d="M265.3,230.6c0,4.1-2.5,6.7-6.2,6.7s-5.9-2.8-5.9-6.4c0-3.8,2.4-6.6,6.1-6.6C263.2,224.2,265.3,227.1,265.3,230.6z
			 M256.2,230.7c0,2.5,1.2,4.2,3.1,4.2c1.9,0,3-1.8,3-4.3c0-2.3-1.1-4.2-3.1-4.2C257.3,226.4,256.2,228.3,256.2,230.7z"/>
		<path d="M271,224.4h2.9v10.2h5v2.4H271V224.4z"/>
	</g>
	<g>
		<rect x="198.8" y="302.7" class="st5" width="71.9" height="57.7"/>
		<g>
			<g>
				<rect x="205" y="307" class="st2" width="26.2" height="36.2"/>
				<path class="st3" d="M203.8,306.8V345h28.4v-38.2H203.8z M230,316.3h-7.5v-7.6h7.5V316.3z M214.3,333.8v-7.2h6.9v7.2H214.3z
					 M221.3,335.4v7.6h-6.9v-7.6H221.3z M221.3,317.9v7.2h-6.9v-7.2H221.3z M214.3,316.3v-7.6h6.9v7.6H214.3z M213.2,325.1h-7.1
					v-7.2h7.1V325.1z M213.2,326.7v7.2h-7.1v-7.2H213.2z M222.4,326.7h7.5v7.2h-7.5V326.7z M222.4,325.1v-7.2h7.5v7.2H222.4z
					 M213.2,308.7v7.6h-7.1v-7.6H213.2z M206.1,335.4h7.1v7.6h-7.1V335.4z M222.4,343v-7.6h7.5v7.6H222.4z"/>
			</g>
			<g>
				<rect x="204.7" y="323.9" class="st2" width="26.2" height="36.2"/>
				<path class="st3" d="M203.6,323.7v38.2H232v-38.2H203.6z M229.7,333.2h-7.5v-7.6h7.5V333.2z M214.1,350.7v-7.2h6.9v7.2H214.1z
					 M221,352.3v7.6h-6.9v-7.6H221z M221,334.8v7.2h-6.9v-7.2H221z M214.1,333.2v-7.6h6.9v7.6H214.1z M212.9,342h-7.1v-7.2h7.1V342z
					 M212.9,343.5v7.2h-7.1v-7.2H212.9z M222.2,343.5h7.5v7.2h-7.5V343.5z M222.2,342v-7.2h7.5v7.2H222.2z M212.9,325.6v7.6h-7.1
					v-7.6H212.9z M205.9,352.3h7.1v7.6h-7.1V352.3z M222.2,359.9v-7.6h7.5v7.6H222.2z"/>
			</g>
		</g>
		<g>
			<g>
				<rect x="238.9" y="307" class="st2" width="26.2" height="36.2"/>
				<path class="st3" d="M237.8,306.8V345h28.4v-38.2H237.8z M263.9,316.3h-7.5v-7.6h7.5V316.3z M248.3,333.8v-7.2h6.9v7.2H248.3z
					 M255.2,335.4v7.6h-6.9v-7.6H255.2z M255.2,317.9v7.2h-6.9v-7.2H255.2z M248.3,316.3v-7.6h6.9v7.6H248.3z M247.1,325.1H240v-7.2
					h7.1V325.1z M247.1,326.7v7.2H240v-7.2H247.1z M256.4,326.7h7.5v7.2h-7.5V326.7z M256.4,325.1v-7.2h7.5v7.2H256.4z M247.1,308.7
					v7.6H240v-7.6H247.1z M240.1,335.4h7.1v7.6h-7.1V335.4z M256.4,343v-7.6h7.5v7.6H256.4z"/>
			</g>
			<g>
				<rect x="238.7" y="323.9" class="st2" width="26.2" height="36.2"/>
				<path class="st3" d="M237.5,323.7v38.2h28.4v-38.2H237.5z M263.7,333.2h-7.5v-7.6h7.5V333.2z M248,350.7v-7.2h6.9v7.2H248z
					 M255,352.3v7.6h-7v-7.6H255z M255,334.8v7.2h-7v-7.2H255z M248,333.2v-7.6h6.9v7.6H248z M246.9,342h-7.1v-7.2h7.1V342z
					 M246.9,343.5v7.2h-7.1v-7.2H246.9z M256.1,343.5h7.5v7.2h-7.5V343.5z M256.1,342v-7.2h7.5v7.2H256.1z M246.9,325.6v7.6h-7.1
					v-7.6H246.9z M239.8,352.3h7.1v7.6h-7.1V352.3z M256.1,359.9v-7.6h7.5v7.6H256.1z"/>
			</g>
		</g>
	</g>
</g>
</svg>
