<?xml version="1.0" encoding="utf-8"?>
<!-- Generator: Adobe Illustrator 24.1.1, SVG Export Plug-In . SVG Version: 6.00 Build 0)  -->
<svg version="1.1" id="Layer_1" xmlns="http://www.w3.org/2000/svg" xmlns:xlink="http://www.w3.org/1999/xlink" x="0px" y="0px"
	 viewBox="0 0 640 480" style="enable-background:new 0 0 640 480;" xml:space="preserve">
<style type="text/css">
	.st0{fill:#5F230F;}
	.st1{fill:#A51E26;}
	.st2{fill:#050606;}
	.st3{fill:#FFFFFF;}
	.st4{fill:#FDFEFE;stroke:#000000;stroke-miterlimit:10;}
	.st5{fill:#F6A91C;}
	.st6{fill:url(#SVGID_1_);}
	.st7{fill:#E3DEDB;}
	.st8{fill:url(#SVGID_2_);}
	.st9{fill:#FF9191;}
	.st10{fill:#FFC700;}
	.st11{fill:#FFDA00;}
	.st12{fill:#FF8A00;}
	.st13{fill:#FFA100;}
	.st14{fill:url(#SVGID_3_);}
	.st15{opacity:0.8;fill:#FFFFFF;enable-background:new    ;}
</style>
<g>
	<polygon class="st0" points="530.6,160.4 318.7,160.4 106.8,160.4 83.8,220.5 318.7,220.5 553.6,220.5 	"/>
	<polygon class="st1" points="552.7,346.2 552.7,222.6 359.5,222.6 359.5,103.7 360.2,103.7 360.2,57.9 359.7,57.9 319.1,7.3 
		278.9,57.9 278.4,57.9 278.4,103.7 279.1,103.7 279.1,222.6 85.9,222.6 85.9,346.2 85.9,367.7 554,367.7 554,346.2 	"/>
	<g>
		<g>
			<rect x="307.5" y="122" class="st2" width="22.5" height="36.2"/>
			<path class="st3" d="M306.5,121.8V160h24.4v-38.2L306.5,121.8z M328.9,131.3h-6.5v-7.6h6.5V131.3z M315.5,148.8v-7.2h6v7.2H315.5
				z M321.5,150.4v7.6h-6v-7.6H321.5z M321.5,132.9v7.2h-6v-7.2H321.5z M315.5,131.3v-7.6h6v7.6H315.5z M314.5,140.1h-6.1v-7.2h6.1
				V140.1z M314.5,141.6v7.2h-6.1v-7.2H314.5z M322.5,141.6h6.5v7.2h-6.5V141.6z M322.5,140.1v-7.2h6.5v7.2H322.5z M314.5,123.7v7.6
				h-6.1v-7.6H314.5z M308.4,150.4h6.1v7.6h-6.1V150.4z M322.5,158v-7.6h6.5v7.6H322.5z"/>
		</g>
		<g>
			<rect x="307.5" y="172.8" class="st2" width="22.5" height="36.2"/>
			<path class="st3" d="M306.5,172.6v38.2h24.4v-38.2H306.5z M328.9,182.1h-6.5v-7.6h6.5V182.1z M315.5,199.6v-7.2h6v7.2H315.5z
				 M321.5,201.2v7.6h-6v-7.6H321.5z M321.5,183.7v7.2h-6v-7.2H321.5z M315.5,182.1v-7.6h6v7.6H315.5z M314.5,190.9h-6.1v-7.2h6.1
				V190.9z M314.5,192.5v7.2h-6.1v-7.2H314.5z M322.5,192.5h6.5v7.2h-6.5V192.5z M322.5,190.9v-7.2h6.5v7.2H322.5z M314.5,174.6v7.6
				h-6.1v-7.6H314.5z M308.4,201.2h6.1v7.6h-6.1V201.2z M322.5,208.8v-7.6h6.5v7.6H322.5z"/>
		</g>
	</g>
	<g>
		<g>
			<rect x="112" y="259.2" class="st2" width="22.5" height="36.2"/>
			<path class="st3" d="M111,259v38.2h24.4V259H111z M133.5,268.5H127v-7.6h6.5V268.5z M120,286v-7.2h6v7.2H120z M126,287.6v7.6h-6
				v-7.6H126z M126,270.1v7.2h-6v-7.2H126z M120,268.5v-7.6h6v7.6H120z M119,277.3h-6.1v-7.2h6.1V277.3z M119,278.8v7.2h-6.1v-7.2
				H119z M127,278.8h6.5v7.2H127V278.8z M127,277.3v-7.2h6.5v7.2H127z M119,260.9v7.6h-6.1v-7.6H119z M113,287.6h6.1v7.6H113V287.6z
				 M127,295.2v-7.6h6.5v7.6H127z"/>
		</g>
		<g>
			<rect x="112" y="310" class="st2" width="22.5" height="36.2"/>
			<path class="st3" d="M111,309.8V348h24.4v-38.2H111z M133.5,319.3H127v-7.6h6.5V319.3z M120,336.8v-7.1h6v7.2h-6V336.8z
				 M126,338.4v7.6h-6v-7.6H126z M126,320.9v7.2h-6v-7.2H126z M120,319.3v-7.6h6v7.6H120z M119,328.1h-6.1v-7.2h6.1V328.1z
				 M119,329.7v7.2h-6.1v-7.2H119z M127,329.7h6.5v7.2H127V329.7z M127,328.1v-7.2h6.5v7.2H127z M119,311.8v7.6h-6.1v-7.6H119z
				 M113,338.4h6.1v7.6H113V338.4z M127,346v-7.6h6.5v7.6H127z"/>
		</g>
		<g>
			<g>
				<rect x="151.3" y="259.2" class="st2" width="22.5" height="36.2"/>
				<path class="st3" d="M150.3,259v38.2h24.5V259H150.3z M172.8,268.5h-6.5v-7.6h6.5V268.5z M159.4,286v-7.2h6v7.2H159.4z
					 M165.3,287.6v7.6h-6v-7.6H165.3z M165.3,270.1v7.2h-6v-7.2H165.3z M159.4,268.5v-7.6h6v7.6H159.4z M158.4,277.3h-6.1v-7.2h6.1
					V277.3z M158.4,278.8v7.2h-6.1v-7.2H158.4z M166.3,278.8h6.5v7.2h-6.5V278.8z M166.3,277.3v-7.2h6.5v7.2H166.3z M158.4,260.9
					v7.6h-6.1v-7.6H158.4z M152.3,287.6h6.1v7.6h-6.1V287.6z M166.3,295.2v-7.6h6.5v7.6H166.3z"/>
			</g>
			<g>
				<rect x="151.3" y="310" class="st2" width="22.5" height="36.2"/>
				<path class="st3" d="M150.3,309.8V348h24.5v-38.2H150.3z M172.8,319.3h-6.5v-7.6h6.5V319.3z M159.4,336.8v-7.1h6v7.2h-6V336.8z
					 M165.3,338.4v7.6h-6v-7.6H165.3z M165.3,320.9v7.2h-6v-7.2H165.3z M159.4,319.3v-7.6h6v7.6H159.4z M158.4,328.1h-6.1v-7.2h6.1
					V328.1z M158.4,329.7v7.2h-6.1v-7.2H158.4z M166.3,329.7h6.5v7.2h-6.5V329.7z M166.3,328.1v-7.2h6.5v7.2H166.3z M158.4,311.8
					v7.6h-6.1v-7.6H158.4z M152.3,338.4h6.1v7.6h-6.1V338.4z M166.3,346v-7.6h6.5v7.6H166.3z"/>
			</g>
		</g>
		<g>
			<g>
				<rect x="190.7" y="259.2" class="st2" width="22.5" height="36.2"/>
				<path class="st3" d="M189.7,259v38.2h24.4V259H189.7z M212.2,268.5h-6.5v-7.6h6.5V268.5z M198.7,286v-7.2h6v7.2H198.7z
					 M204.7,287.6v7.6h-6v-7.6H204.7z M204.7,270.1v7.2h-6v-7.2H204.7z M198.7,268.5v-7.6h6v7.6H198.7z M197.7,277.3h-6.1v-7.2h6.1
					V277.3z M197.7,278.8v7.2h-6.1v-7.2H197.7z M205.7,278.8h6.5v7.2h-6.5V278.8z M205.7,277.3v-7.2h6.5v7.2H205.7z M197.7,260.9
					v7.6h-6.1v-7.6H197.7z M191.7,287.6h6.1v7.6h-6.1V287.6z M205.7,295.2v-7.6h6.5v7.6H205.7z"/>
			</g>
			<g>
				<rect x="190.7" y="310" class="st2" width="22.5" height="36.2"/>
				<path class="st3" d="M189.7,309.8V348h24.4v-38.2H189.7z M212.2,319.3h-6.5v-7.6h6.5V319.3z M198.7,336.8v-7.1h6v7.2h-6V336.8z
					 M204.7,338.4v7.6h-6v-7.6H204.7z M204.7,320.9v7.2h-6v-7.2H204.7z M198.7,319.3v-7.6h6v7.6H198.7z M197.7,328.1h-6.1v-7.2h6.1
					V328.1z M197.7,329.7v7.2h-6.1v-7.2H197.7z M205.7,329.7h6.5v7.2h-6.5V329.7z M205.7,328.1v-7.2h6.5v7.2H205.7z M197.7,311.8
					v7.6h-6.1v-7.6H197.7z M191.7,338.4h6.1v7.6h-6.1V338.4z M205.7,346v-7.6h6.5v7.6H205.7z"/>
			</g>
		</g>
		<g>
			<g>
				<rect x="230" y="259.2" class="st2" width="22.5" height="36.2"/>
				<path class="st3" d="M229,259v38.2h24.4V259H229z M251.5,268.5H245v-7.6h6.5V268.5z M238.1,286v-7.2h6v7.2H238.1z M244,287.6
					v7.6h-6v-7.6H244z M244,270.1v7.2h-6v-7.2H244z M238.1,268.5v-7.6h6v7.6H238.1z M237.1,277.3H231v-7.2h6.1V277.3z M237.1,278.8
					v7.2H231v-7.2H237.1z M245,278.8h6.5v7.2H245V278.8z M245,277.3v-7.2h6.5v7.2H245z M237.1,260.9v7.6H231v-7.6H237.1z M231,287.6
					h6.1v7.6H231V287.6z M245,295.2v-7.6h6.5v7.6H245z"/>
			</g>
			<g>
				<rect x="230" y="310" class="st2" width="22.5" height="36.2"/>
				<path class="st3" d="M229,309.8V348h24.4v-38.2H229z M251.5,319.3H245v-7.6h6.5V319.3z M238.1,336.8v-7.1h6v7.2h-6V336.8z
					 M244,338.4v7.6h-6v-7.6H244z M244,320.9v7.2h-6v-7.2H244z M238.1,319.3v-7.6h6v7.6H238.1z M237.1,328.1H231v-7.2h6.1V328.1z
					 M237.1,329.7v7.2H231v-7.2H237.1z M245,329.7h6.5v7.2H245V329.7z M245,328.1v-7.2h6.5v7.2H245z M237.1,311.8v7.6H231v-7.6
					H237.1z M231,338.4h6.1v7.6H231V338.4z M245,346v-7.6h6.5v7.6H245z"/>
			</g>
		</g>
		<g>
			<g>
				<rect x="387.4" y="259.2" class="st2" width="22.5" height="36.2"/>
				<path class="st3" d="M386.4,259v38.2h24.4V259H386.4z M408.9,268.5h-6.5v-7.6h6.5V268.5z M395.4,286v-7.2h6v7.2H395.4z
					 M401.4,287.6v7.6h-6v-7.6H401.4z M401.4,270.1v7.2h-6v-7.2H401.4z M395.4,268.5v-7.6h6v7.6H395.4z M394.5,277.3h-6.1v-7.2h6.1
					V277.3z M394.5,278.8v7.2h-6.1v-7.2H394.5z M402.4,278.8h6.5v7.2h-6.5V278.8z M402.4,277.3v-7.2h6.5v7.2H402.4z M394.5,260.9
					v7.6h-6.1v-7.6H394.5z M388.4,287.6h6.1v7.6h-6.1V287.6z M402.4,295.2v-7.6h6.5v7.6H402.4z"/>
			</g>
			<g>
				<rect x="387.4" y="310" class="st2" width="22.5" height="36.2"/>
				<path class="st3" d="M386.4,309.8V348h24.4v-38.2H386.4z M408.9,319.3h-6.5v-7.6h6.5V319.3z M395.4,336.8v-7.1h6v7.2h-6V336.8z
					 M401.4,338.4v7.6h-6v-7.6H401.4z M401.4,320.9v7.2h-6v-7.2H401.4z M395.4,319.3v-7.6h6v7.6H395.4z M394.5,328.1h-6.1v-7.2h6.1
					V328.1z M394.5,329.7v7.2h-6.1v-7.2H394.5z M402.4,329.7h6.5v7.2h-6.5V329.7z M402.4,328.1v-7.2h6.5v7.2H402.4z M394.5,311.8
					v7.6h-6.1v-7.6H394.5z M388.4,338.4h6.1v7.6h-6.1V338.4z M402.4,346v-7.6h6.5v7.6H402.4z"/>
			</g>
		</g>
		<g>
			<rect x="268.6" y="259.2" class="st2" width="22.5" height="36.2"/>
			<path class="st3" d="M267.6,259v38.2H292V259H267.6z M290,268.5h-6.5v-7.6h6.5V268.5z M276.6,286v-7.2h6v7.2H276.6z M282.6,287.6
				v7.6h-6v-7.6H282.6z M282.6,270.1v7.2h-6v-7.2H282.6z M276.6,268.5v-7.6h6v7.6H276.6z M275.6,277.3h-6.1v-7.2h6.1V277.3z
				 M275.6,278.8v7.2h-6.1v-7.2H275.6z M283.6,278.8h6.5v7.2h-6.5V278.8z M283.6,277.3v-7.2h6.5v7.2H283.6z M275.6,260.9v7.6h-6.1
				v-7.6H275.6z M269.5,287.6h6.1v7.6h-6.1V287.6z M283.6,295.2v-7.6h6.5v7.6H283.6z"/>
		</g>
		<g>
			<rect x="307.3" y="259.2" class="st2" width="22.5" height="36.2"/>
			<path class="st3" d="M306.3,259v38.2h24.4V259H306.3z M328.7,268.5h-6.5v-7.6h6.5V268.5z M315.3,286v-7.2h6v7.2H315.3z
				 M321.3,287.6v7.6h-6v-7.6H321.3z M321.3,270.1v7.2h-6v-7.2H321.3z M315.3,268.5v-7.6h6v7.6H315.3z M314.3,277.3h-6.1v-7.2h6.1
				V277.3z M314.3,278.8v7.2h-6.1v-7.2H314.3z M322.3,278.8h6.5v7.2h-6.5V278.8z M322.3,277.3v-7.2h6.5v7.2H322.3z M314.3,260.9v7.6
				h-6.1v-7.6H314.3z M308.2,287.6h6.1v7.6h-6.1V287.6z M322.3,295.2v-7.6h6.5v7.6H322.3z"/>
		</g>
		<g>
			<rect x="347.4" y="259.2" class="st2" width="22.5" height="36.2"/>
			<path class="st3" d="M346.4,259v38.2h24.4V259H346.4z M368.9,268.5h-6.5v-7.6h6.5V268.5z M355.5,286v-7.2h6v7.2H355.5z
				 M361.4,287.6v7.6h-6v-7.6H361.4z M361.4,270.1v7.2h-6v-7.2H361.4z M355.5,268.5v-7.6h6v7.6H355.5z M354.5,277.3h-6.1v-7.2h6.1
				V277.3z M354.5,278.8v7.2h-6.1v-7.2H354.5z M362.4,278.8h6.5v7.2h-6.5V278.8z M362.4,277.3v-7.2h6.5v7.2H362.4z M354.5,260.9v7.6
				h-6.1v-7.6H354.5z M348.4,287.6h6.1v7.6h-6.1V287.6z M362.4,295.2v-7.6h6.5v7.6H362.4z"/>
		</g>
		<g>
			<g>
				<rect x="426.7" y="259.2" class="st2" width="22.5" height="36.2"/>
				<path class="st3" d="M425.8,259v38.2h24.4V259H425.8z M448.2,268.5h-6.5v-7.6h6.5V268.5z M434.8,286v-7.2h6v7.2H434.8z
					 M440.8,287.6v7.6h-6v-7.6H440.8z M440.8,270.1v7.2h-6v-7.2H440.8z M434.8,268.5v-7.6h6v7.6H434.8z M433.8,277.3h-6.1v-7.2h6.1
					V277.3z M433.8,278.8v7.2h-6.1v-7.2H433.8z M441.8,278.8h6.5v7.2h-6.5V278.8z M441.8,277.3v-7.2h6.5v7.2H441.8z M433.8,260.9
					v7.6h-6.1v-7.6H433.8z M427.7,287.6h6.1v7.6h-6.1V287.6z M441.8,295.2v-7.6h6.5v7.6H441.8z"/>
			</g>
			<g>
				<rect x="426.7" y="310" class="st2" width="22.5" height="36.2"/>
				<path class="st3" d="M425.8,309.8V348h24.4v-38.2H425.8z M448.2,319.3h-6.5v-7.6h6.5V319.3z M434.8,336.8v-7.1h6v7.2h-6V336.8z
					 M440.8,338.4v7.6h-6v-7.6H440.8z M440.8,320.9v7.2h-6v-7.2H440.8z M434.8,319.3v-7.6h6v7.6H434.8z M433.8,328.1h-6.1v-7.2h6.1
					V328.1z M433.8,329.7v7.2h-6.1v-7.2H433.8z M441.8,329.7h6.5v7.2h-6.5V329.7z M441.8,328.1v-7.2h6.5v7.2H441.8z M433.8,311.8
					v7.6h-6.1v-7.6H433.8z M427.7,338.4h6.1v7.6h-6.1V338.4z M441.8,346v-7.6h6.5v7.6H441.8z"/>
			</g>
		</g>
		<g>
			<g>
				<rect x="466.1" y="259.2" class="st2" width="22.5" height="36.2"/>
				<path class="st3" d="M465.1,259v38.2h24.4V259H465.1z M487.6,268.5h-6.5v-7.6h6.5V268.5z M474.1,286v-7.2h6v7.2H474.1z
					 M480.1,287.6v7.6h-6v-7.6H480.1z M480.1,270.1v7.2h-6v-7.2H480.1z M474.1,268.5v-7.6h6v7.6H474.1z M473.1,277.3H467v-7.2h6.1
					V277.3z M473.1,278.8v7.2H467v-7.2H473.1z M481.1,278.8h6.5v7.2h-6.5V278.8z M481.1,277.3v-7.2h6.5v7.2H481.1z M473.1,260.9v7.6
					H467v-7.6H473.1z M467.1,287.6h6.1v7.6h-6.1V287.6z M481.1,295.2v-7.6h6.5v7.6H481.1z"/>
			</g>
			<g>
				<rect x="466.1" y="310" class="st2" width="22.5" height="36.2"/>
				<path class="st3" d="M465.1,309.8V348h24.4v-38.2H465.1z M487.6,319.3h-6.5v-7.6h6.5V319.3z M474.1,336.8v-7.1h6v7.2h-6V336.8z
					 M480.1,338.4v7.6h-6v-7.6H480.1z M480.1,320.9v7.2h-6v-7.2H480.1z M474.1,319.3v-7.6h6v7.6H474.1z M473.1,328.1H467v-7.2h6.1
					V328.1z M473.1,329.7v7.2H467v-7.2H473.1z M481.1,329.7h6.5v7.2h-6.5V329.7z M481.1,328.1v-7.2h6.5v7.2H481.1z M473.1,311.8v7.6
					H467v-7.6H473.1z M467.1,338.4h6.1v7.6h-6.1V338.4z M481.1,346v-7.6h6.5v7.6H481.1z"/>
			</g>
		</g>
		<g>
			<g>
				<rect x="505.4" y="259.2" class="st2" width="22.5" height="36.2"/>
				<path class="st3" d="M504.4,259v38.2h24.4V259H504.4z M526.9,268.5h-6.5v-7.6h6.5V268.5z M513.5,286v-7.2h6v7.2H513.5z
					 M519.5,287.6v7.6h-6v-7.6H519.5z M519.5,270.1v7.2h-6v-7.2H519.5z M513.5,268.5v-7.6h6v7.6H513.5z M512.5,277.3h-6.1v-7.2h6.1
					V277.3z M512.5,278.8v7.2h-6.1v-7.2H512.5z M520.4,278.8h6.5v7.2h-6.5V278.8z M520.4,277.3v-7.2h6.5v7.2H520.4z M512.5,260.9
					v7.6h-6.1v-7.6H512.5z M506.4,287.6h6.1v7.6h-6.1V287.6z M520.4,295.2v-7.6h6.5v7.6H520.4z"/>
			</g>
			<g>
				<rect x="505.4" y="310" class="st2" width="22.5" height="36.2"/>
				<path class="st3" d="M504.4,309.8V348h24.4v-38.2H504.4z M526.9,319.3h-6.5v-7.6h6.5V319.3z M513.5,336.8v-7.1h6v7.2h-6V336.8z
					 M519.5,338.4v7.6h-6v-7.6H519.5z M519.5,320.9v7.2h-6v-7.2H519.5z M513.5,319.3v-7.6h6v7.6H513.5z M512.5,328.1h-6.1v-7.2h6.1
					V328.1z M512.5,329.7v7.2h-6.1v-7.2H512.5z M520.4,329.7h6.5v7.2h-6.5V329.7z M520.4,328.1v-7.2h6.5v7.2H520.4z M512.5,311.8
					v7.6h-6.1v-7.6H512.5z M506.4,338.4h6.1v7.6h-6.1V338.4z M520.4,346v-7.6h6.5v7.6H520.4z"/>
			</g>
		</g>
	</g>
	<circle class="st4" cx="318.7" cy="70.4" r="19.8"/>
	<path d="M328.9,61.1l-0.8-0.7l-8.7,9.4c-0.3-0.1-0.6-0.2-0.9-0.2c-0.3,0-0.7,0.1-1,0.2l-11.6-12.6l-0.8,0.7l11.5,12.5
		c-0.5,0.5-0.7,1.1-0.7,1.8c0,1.4,1.2,2.6,2.6,2.6s2.6-1.2,2.6-2.6c0-0.7-0.3-1.4-0.8-1.8L328.9,61.1z"/>
	<rect x="264.8" y="228.2" class="st3" width="109.9" height="20.3"/>
	<g>
		<path d="M274.9,241.4c0.8,0.4,1.9,0.8,3.2,0.8s2-0.5,2-1.4c0-0.8-0.6-1.2-2.1-1.8c-2.1-0.7-3.5-1.9-3.5-3.7c0-2.2,1.8-3.8,4.8-3.8
			c1.4,0,2.5,0.3,3.2,0.6l-0.6,2.3c-0.5-0.2-1.4-0.6-2.6-0.6s-1.8,0.6-1.8,1.2c0,0.8,0.7,1.2,2.3,1.8c2.2,0.8,3.3,2,3.3,3.8
			c0,2.1-1.6,3.9-5.1,3.9c-1.4,0-2.9-0.4-3.6-0.8L274.9,241.4z"/>
		<path d="M298,243.9c-0.5,0.3-1.7,0.5-3.2,0.5c-4.4,0-6.6-2.7-6.6-6.3c0-4.3,3.1-6.7,6.9-6.7c1.5,0,2.6,0.3,3.1,0.6l-0.6,2.3
			c-0.6-0.2-1.4-0.5-2.4-0.5c-2.3,0-4,1.4-4,4.2c0,2.5,1.5,4.1,4,4.1c0.9,0,1.8-0.2,2.4-0.4L298,243.9z"/>
		<path d="M306.5,231.7v4.9h4.7v-4.9h2.8v12.6h-2.8V239h-4.7v5.3h-2.9v-12.6H306.5z"/>
		<path d="M331.9,237.9c0,4.1-2.5,6.7-6.2,6.7s-5.9-2.8-5.9-6.4c0-3.8,2.4-6.6,6.1-6.6C329.8,231.5,331.9,234.4,331.9,237.9z
			 M322.8,238c0,2.5,1.2,4.2,3.1,4.2c1.9,0,3-1.8,3-4.3c0-2.3-1.1-4.2-3.1-4.2C323.9,233.7,322.8,235.6,322.8,238z"/>
		<path d="M349.1,237.9c0,4.1-2.5,6.7-6.2,6.7s-5.9-2.8-5.9-6.4c0-3.8,2.4-6.6,6.1-6.6C347,231.5,349.1,234.4,349.1,237.9z M340,238
			c0,2.5,1.2,4.2,3.1,4.2c1.9,0,3-1.8,3-4.3c0-2.3-1.1-4.2-3.1-4.2C341.1,233.7,340,235.6,340,238z"/>
		<path d="M354.8,231.7h2.9v10.2h5v2.4h-7.9V231.7z"/>
	</g>
	<g>
		<rect x="282.6" y="310" class="st5" width="71.9" height="57.7"/>
		<g>
			<g>
				<rect x="288.8" y="314.3" class="st2" width="26.2" height="36.2"/>
				<path class="st3" d="M287.6,314.1v38.2H316v-38.2H287.6z M313.8,323.6h-7.5V316h7.5V323.6z M298.1,341.1v-7.2h6.9v7.2H298.1z
					 M305.1,342.7v7.6h-6.9v-7.6H305.1z M305.1,325.2v7.2h-6.9v-7.2H305.1z M298.1,323.6V316h6.9v7.6H298.1z M297,332.4h-7.1v-7.2
					h7.1V332.4z M297,334v7.2h-7.1V334H297z M306.2,334h7.5v7.2h-7.5V334z M306.2,332.4v-7.2h7.5v7.2H306.2z M297,316v7.6h-7.1V316
					H297z M289.9,342.7h7.1v7.6h-7.1V342.7z M306.2,350.3v-7.6h7.5v7.6H306.2z"/>
			</g>
			<g>
				<rect x="288.5" y="331.2" class="st2" width="26.2" height="36.2"/>
				<path class="st3" d="M287.4,331v38.2h28.4V331H287.4z M313.5,340.5H306v-7.6h7.5V340.5z M297.9,358v-7.2h6.9v7.2H297.9z
					 M304.8,359.6v7.6h-6.9v-7.6H304.8z M304.8,342.1v7.2h-6.9v-7.2H304.8z M297.9,340.5v-7.6h6.9v7.6H297.9z M296.7,349.3h-7.1
					v-7.2h7.1V349.3z M296.7,350.8v7.2h-7.1v-7.2H296.7z M306,350.8h7.5v7.2H306V350.8z M306,349.3v-7.2h7.5v7.2H306z M296.7,332.9
					v7.6h-7.1v-7.6H296.7z M289.7,359.6h7.1v7.6h-7.1V359.6z M306,367.2v-7.6h7.5v7.6H306z"/>
			</g>
		</g>
		<g>
			<g>
				<rect x="322.7" y="314.3" class="st2" width="26.2" height="36.2"/>
				<path class="st3" d="M321.6,314.1v38.2H350v-38.2H321.6z M347.7,323.6h-7.5V316h7.5V323.6z M332.1,341.1v-7.2h6.9v7.2H332.1z
					 M339,342.7v7.6h-6.9v-7.6H339z M339,325.2v7.2h-6.9v-7.2H339z M332.1,323.6V316h6.9v7.6H332.1z M330.9,332.4h-7.1v-7.2h7.1
					V332.4z M330.9,334v7.2h-7.1V334H330.9z M340.2,334h7.5v7.2h-7.5V334z M340.2,332.4v-7.2h7.5v7.2H340.2z M330.9,316v7.6h-7.1
					V316H330.9z M323.9,342.7h7.1v7.6h-7.1V342.7z M340.2,350.3v-7.6h7.5v7.6H340.2z"/>
			</g>
			<g>
				<rect x="322.5" y="331.2" class="st2" width="26.2" height="36.2"/>
				<path class="st3" d="M321.3,331v38.2h28.4V331H321.3z M347.5,340.5H340v-7.6h7.5V340.5z M331.8,358v-7.2h6.9v7.2H331.8z
					 M338.8,359.6v7.6h-7v-7.6H338.8z M338.8,342.1v7.2h-7v-7.2H338.8z M331.8,340.5v-7.6h6.9v7.6H331.8z M330.7,349.3h-7.1v-7.2
					h7.1V349.3z M330.7,350.8v7.2h-7.1v-7.2H330.7z M339.9,350.8h7.5v7.2h-7.5V350.8z M339.9,349.3v-7.2h7.5v7.2H339.9z
					 M330.7,332.9v7.6h-7.1v-7.6H330.7z M323.6,359.6h7.1v7.6h-7.1V359.6z M339.9,367.2v-7.6h7.5v7.6H339.9z"/>
			</g>
		</g>
	</g>
</g>
<g>
	<g transform="translate(-209.34 -272.78)">
		
			<linearGradient id="SVGID_1_" gradientUnits="userSpaceOnUse" x1="68.8124" y1="940.342" x2="105.5928" y2="940.342" gradientTransform="matrix(2.664155e-02 -2.8995 -2.8996 9.408300e-03 3077.9028 940.7411)">
			<stop  offset="0" style="stop-color:#FF9191"/>
			<stop  offset="1" style="stop-color:#B55858"/>
		</linearGradient>
		<path class="st6" d="M311.5,697c-0.3,29.4,7.7,53.1,17.8,53.1c0.7,0,1.4-0.1,2-0.3l63.9-0.2l0.1-9.6l0.3-37.5l0.1-12.1l0.4-47.1
			l-66,0.2c0,0.1-0.1,0.1-0.2,0.2l0,0.1l-0.1,0C320,644.3,311.8,668,311.5,697L311.5,697z"/>
		<path class="st7" d="M378,749.7l59.7-0.2l6.9,0l0.1-9.6l0.9-96.7l-66.6,0.2l-0.5,53.2L378,740L378,749.7L378,749.7z"/>
		<path d="M400.5,643.3l-1,106.3l4.8,0l2.4,0l1-106.3l-2.4,0L400.5,643.3L400.5,643.3z"/>
		<path d="M388.5,643.3l-1,106.3l4.8,0l2.4,0l1-106.3l-2.4,0L388.5,643.3L388.5,643.3z"/>
		<path d="M412.8,643l-1,106.3l4.8,0l2.4,0l1-106.3l-2.4,0L412.8,643L412.8,643z"/>
		
			<linearGradient id="SVGID_2_" gradientUnits="userSpaceOnUse" x1="249.6037" y1="804.3331" x2="283.636" y2="804.3331" gradientTransform="matrix(2.868566e-02 -3.125 -3.1251 1.011236e-02 3097.9036 1520.8658)">
			<stop  offset="0" style="stop-color:#FFFFFF"/>
			<stop  offset="1" style="stop-color:#FFDD7C"/>
		</linearGradient>
		<path class="st8" d="M428.9,749.5l228.6-0.7l96.9-53.5l-8.7-4.8l-87.2-48.1l-228.6,0.7l-0.2,20.6l-0.1,7.2l-0.2,19.3l0,2.4
			l-0.1,7.2l0,2.4l-0.2,19.3l-0.1,7.2l-0.1,11L428.9,749.5L428.9,749.5z"/>
		<path d="M716.7,674.5l-0.2,20.9l-0.2,20.9l38.1-21L716.7,674.5L716.7,674.5z"/>
		<path class="st9" d="M330,643.7c0-0.1,0.1-0.1,0.2-0.2l-0.2,0L330,643.7L330,643.7z"/>
		<path class="st10" d="M428.9,749.5l228.6-0.7l-24.8-26.5l25.2-26.7l-24.8-26.5l25.2-26.7l-228.6,0.7l-0.2,26.6l-0.2,26.6
			l-0.2,26.6L428.9,749.5L428.9,749.5z"/>
		<path class="st11" d="M428.9,749.5l228.6-0.7l-24.8-26.5l-203.6,0.7L428.9,749.5L428.9,749.5z"/>
		<path class="st12" d="M633.3,669.1l25.2-26.7l-228.6,0.7l-0.2,26.6L633.3,669.1L633.3,669.1z"/>
		<path class="st13" d="M658,695.6l-24.8-26.5l-203.6,0.7l-0.2,26.6L658,695.6L658,695.6z"/>
		
			<linearGradient id="SVGID_3_" gradientUnits="userSpaceOnUse" x1="253.6034" y1="827.7683" x2="271.6352" y2="827.7683" gradientTransform="matrix(2.868566e-02 -3.125 -3.1251 1.011236e-02 3097.9036 1520.8658)">
			<stop  offset="0" style="stop-color:#FFFFFF;stop-opacity:0.8265"/>
			<stop  offset="1" style="stop-color:#FFFFFF;stop-opacity:0"/>
		</linearGradient>
		<path class="st14" d="M379.1,723.2c0,1.9,0.3,3.8,1,5.5s1.7,3.1,3,4.4c1.3,1.3,2.7,2.3,4.4,3c1.7,0.7,3.5,1.1,5.5,1.1l36.1-0.1
			l214.6-0.7c0.7,0,1.2-0.3,1.9-0.4l-12.8-13.6l25.2-26.6L643.4,680l-213.8,0.7l-36.1,0.1c-1.9,0-3.8,0.4-5.5,1.1
			c-1.7,0.7-3.1,1.8-4.4,3c-1.3,1.3-2.3,2.7-3.1,4.4c-0.7,1.7-1.1,3.5-1.1,5.5L379.1,723.2L379.1,723.2z"/>
		<path class="st15" d="M716.5,695.4l-0.1,13.9l38-14L716.5,695.4L716.5,695.4z"/>
	</g>
</g>
</svg>
