<svg xmlns="http://www.w3.org/2000/svg" viewBox="0 0 372.12 77"><defs><style>.cls-1{fill:#ef3a42;}.cls-2{fill:#fff;}.cls-3{fill:#231f20;}</style></defs><title>Artboard 2</title><g id="text_2_below" data-name="text 2 below"><path class="cls-1" d="M49.44,13.63H.51A100.65,100.65,0,0,0,4.72,40.87H25v5.45H6.55C7.23,48.14,8,50,8.81,51.77H25v5.45H11.58c1,1.85,2.19,3.68,3.43,5.45H25v5.45H19.33A54.05,54.05,0,0,0,25,73.57C46.82,55.38,49.44,23.06,49.44,13.63Z"/><path class="cls-2" d="M25,62.67H15a60,60,0,0,0,4.32,5.45H25Z"/><path class="cls-2" d="M25,51.77H8.81c.83,1.83,1.76,3.65,2.77,5.45H25Z"/><path class="cls-2" d="M25,40.87H4.72q.81,2.7,1.83,5.45H25Z"/><path class="cls-2" d="M22.27,20.46V26H16.82v-5.5H14.1v7.86c0,2.32-.74,3.84-2.82,3.84s-2.82-1.52-2.82-3.84V20.46H5.73v8.7c0,3.64,2.07,5.14,5.55,5.14s5.43-1.42,5.54-4.85h0V28.1h5.45v6H25V20.46Z"/><path class="cls-1" d="M44,6.8c0,2.26-1.22,4.09-2.72,4.09S38.56,9.06,38.56,6.8s1.22-4.08,2.72-4.08S44,4.55,44,6.8"/><path class="cls-3" d="M31,51.77a40.37,40.37,0,0,0,9.53-26.46,42.27,42.27,0,0,0-1.58-11.54A38.35,38.35,0,0,0,32.31,0H29.05a38.35,38.35,0,0,1,6.6,13.77,42.66,42.66,0,0,1,1.58,11.54A40.37,40.37,0,0,1,27.7,51.77Z"/><path class="cls-3" d="M54.9,21.85h3.27v9.41c0,2.78.89,4.6,3.39,4.6s3.38-1.82,3.38-4.6V21.85h3.27V32.27c0,4.36-2.48,6.16-6.65,6.16s-6.66-1.8-6.66-6.16Z"/><path class="cls-3" d="M71.59,26.12h3v1.64h0a4.49,4.49,0,0,1,4-1.92c2.84,0,4.08,2,4.08,4.72v7.59H79.5V31.73c0-1.47,0-3.46-2-3.46-2.26,0-2.75,2.46-2.75,4v5.88H71.59Z"/><path class="cls-3" d="M85.92,20.94h3.13v3H85.92Zm0,5.18h3.13v12H85.92Z"/><path class="cls-3" d="M91,26.12h3.36l3,8.76h0l2.89-8.76h3.13L99,38.15H95.47Z"/><path class="cls-3" d="M115,37.48a8.27,8.27,0,0,1-4.13,1c-4,0-6.28-2.29-6.28-6.23,0-3.48,1.84-6.36,5.58-6.36,4.45,0,5.72,3.06,5.72,7.27h-8.31a3.13,3.13,0,0,0,3.43,3,8.17,8.17,0,0,0,4-1.21ZM112.86,31c-.1-1.52-.8-2.83-2.55-2.83s-2.63,1.22-2.77,2.83Z"/><path class="cls-3" d="M118.37,26.12h2.77v2.74h0a3.69,3.69,0,0,1,3.29-3,3.24,3.24,0,0,1,1,.1v3.15a3.23,3.23,0,0,0-1.4-.26c-2.55,0-2.55,3.18-2.55,4.91v4.41h-3.12Z"/><path class="cls-3" d="M134.52,28.65a7.63,7.63,0,0,0-2.8-.52c-.84,0-1.85.31-1.85,1.33,0,1.92,5.44.7,5.44,5,0,2.8-2.5,3.92-5,3.92a14.22,14.22,0,0,1-3.55-.51l.19-2.57a6.87,6.87,0,0,0,3.08.79c.79,0,2-.3,2-1.47,0-2.36-5.43-.74-5.43-5.09,0-2.59,2.26-3.74,4.71-3.74a14.39,14.39,0,0,1,3.41.45Z"/><path class="cls-3" d="M137.81,20.94h3.13v3h-3.13Zm0,5.18h3.13v12h-3.13Z"/><path class="cls-3" d="M145.25,28.41h-2.31V26.12h2.31v-2.4l3.13-1v3.41h2.78v2.29h-2.78V34c0,1,.28,2,1.47,2a2.83,2.83,0,0,0,1.43-.32l.09,2.47a8.11,8.11,0,0,1-2.31.28,3.54,3.54,0,0,1-3.81-3.9Z"/><path class="cls-3" d="M158.3,34.91h0l2.89-8.79h3.18l-4.51,11.94c-1,2.66-1.73,5.28-5,5.28A8,8,0,0,1,152.7,43l.21-2.31a4.62,4.62,0,0,0,1.61.21,2,2,0,0,0,2-2.15L152,26.12h3.46Z"/><path class="cls-3" d="M173.05,21.85h3.27v6.59h6.54V21.85h3.26v16.3h-3.26V31h-6.54v7.14h-3.27Z"/><path class="cls-3" d="M195.13,25.84a6,6,0,0,1,6.3,6.38,6.29,6.29,0,0,1-12.58,0A6,6,0,0,1,195.13,25.84Zm0,10.16c2.41,0,3-2.15,3-4.15s-1-3.58-3-3.58-3,1.78-3,3.58C192.12,33.83,192.75,36,195.13,36Z"/><path class="cls-3" d="M211,28.65a7.63,7.63,0,0,0-2.8-.52c-.84,0-1.85.31-1.85,1.33,0,1.92,5.44.7,5.44,5,0,2.8-2.5,3.92-5,3.92a14.22,14.22,0,0,1-3.55-.51l.19-2.57a6.87,6.87,0,0,0,3.08.79c.79,0,2.05-.3,2.05-1.47,0-2.36-5.43-.74-5.43-5.09,0-2.59,2.26-3.74,4.71-3.74a14.39,14.39,0,0,1,3.41.45Z"/><path class="cls-3" d="M214.25,26.12h3v1.71h0a4.08,4.08,0,0,1,3.74-2c3.69,0,5,2.95,5,6.26s-1.35,6.33-5.11,6.33a4.1,4.1,0,0,1-3.53-1.66h0v6.29h-3.13Zm3.15,6c0,1.71.68,3.9,2.75,3.9s2.64-2.24,2.64-3.9-.56-3.83-2.59-3.83S217.4,30.42,217.4,32.1Z"/><path class="cls-3" d="M228.58,20.94h3.13v3h-3.13Zm0,5.18h3.13v12h-3.13Z"/><path class="cls-3" d="M236,28.41h-2.32V26.12H236v-2.4l3.12-1v3.41h2.78v2.29h-2.78V34c0,1,.28,2,1.47,2a2.83,2.83,0,0,0,1.43-.32l.09,2.47a8.11,8.11,0,0,1-2.31.28c-2.45,0-3.8-1.52-3.8-3.9Z"/><path class="cls-3" d="M244.61,26.75a10.8,10.8,0,0,1,4.18-.91c3.67,0,5.18,1.52,5.18,5.07v1.54c0,1.22,0,2.13.05,3s.07,1.75.14,2.68h-2.75a13.39,13.39,0,0,1-.14-1.8h-.05a4.27,4.27,0,0,1-3.71,2.08c-2.12,0-4.2-1.28-4.2-3.57a3.52,3.52,0,0,1,2.05-3.43,9.42,9.42,0,0,1,4-.7h1.73c0-1.94-.87-2.6-2.71-2.6a6.31,6.31,0,0,0-3.71,1.31Zm3.67,9.39a2.65,2.65,0,0,0,2.19-1.07,4,4,0,0,0,.66-2.48h-1.36c-1.4,0-3.47.24-3.47,2.08C246.3,35.7,247.16,36.14,248.28,36.14Z"/><path class="cls-3" d="M257.13,20.63h3.12V38.15h-3.12Z"/><path class="cls-3" d="M270.69,28.65a7.63,7.63,0,0,0-2.8-.52c-.85,0-1.85.31-1.85,1.33,0,1.92,5.44.7,5.44,5,0,2.8-2.5,3.92-5,3.92a14.16,14.16,0,0,1-3.55-.51l.19-2.57a6.84,6.84,0,0,0,3.08.79c.79,0,2-.3,2-1.47,0-2.36-5.44-.74-5.44-5.09,0-2.59,2.27-3.74,4.72-3.74a14.39,14.39,0,0,1,3.41.45Z"/><path class="cls-3" d="M56.42,72.41H58V64.78H55.57v1.65H54.26V63.62h8.89v2.81H61.83V64.78h-2.4v7.63H61v1.16H56.42Z"/><path class="cls-3" d="M64,72.46h1.19V63.13H64V62h2.58v5.5a4.14,4.14,0,0,1,2.66-1.12,2,2,0,0,1,2.06,2.22v3.84h1.19v1.11H68.76V72.46H70v-3.7c0-.76-.27-1.24-1.09-1.24a3.71,3.71,0,0,0-2.24,1v3.92h1.19v1.11H64Z"/><path class="cls-3" d="M73.59,70.09c0-2.17,1.24-3.69,3.33-3.69S80,68.1,80,69.86a4.36,4.36,0,0,1,0,.62H75a2.16,2.16,0,0,0,2.35,2.17A4.72,4.72,0,0,0,79.65,72V73.1a4.91,4.91,0,0,1-2.5.65A3.34,3.34,0,0,1,73.59,70.09Zm1.4-.62h3.73c-.07-1-.51-2-1.79-2S75.12,68.34,75,69.47Z"/><path class="cls-3" d="M85.31,73.24V70.92h1.3v1.42a8.37,8.37,0,0,0,2,.26C90,72.6,91,72.15,91,71.1c0-2.55-5.52-1.35-5.52-4.93,0-1.83,1.46-2.75,3.56-2.75a10,10,0,0,1,3,.51v2.29H90.75V64.78a7.79,7.79,0,0,0-1.67-.2c-1.35,0-2.22.52-2.22,1.46,0,2.38,5.52,1.27,5.52,5,0,2-1.6,2.76-3.66,2.76A13.28,13.28,0,0,1,85.31,73.24Z"/><path class="cls-3" d="M93.46,70.09a3.4,3.4,0,0,1,3.65-3.69,7.69,7.69,0,0,1,2.47.47v2.19h-1.2V67.65a4.26,4.26,0,0,0-1.14-.18c-1.57,0-2.34,1-2.34,2.57s.82,2.61,2.37,2.61A4.69,4.69,0,0,0,99.54,72v1.13a4.91,4.91,0,0,1-2.46.64A3.34,3.34,0,0,1,93.46,70.09Z"/><path class="cls-3" d="M100.9,72.46h1.18V67.69H100.9V66.58h2.59v5.88h1.17v1.11H100.9Zm1.78-9.32a1,1,0,1,1-1,1A1,1,0,0,1,102.68,63.14Z"/><path class="cls-3" d="M105.77,70.09c0-2.17,1.25-3.69,3.34-3.69s3.1,1.7,3.1,3.46a4.36,4.36,0,0,1,0,.62h-5a2.16,2.16,0,0,0,2.35,2.17,4.72,4.72,0,0,0,2.31-.67V73.1a4.91,4.91,0,0,1-2.5.65A3.34,3.34,0,0,1,105.77,70.09Zm1.41-.62h3.73c-.07-1-.51-2-1.79-2S107.31,68.34,107.18,69.47Z"/><path class="cls-3" d="M113.47,72.46h1.18V67.69h-1.18V66.58H116v1a4.09,4.09,0,0,1,2.7-1.16,2,2,0,0,1,2.06,2.22v3.84H122v1.11H118.2V72.46h1.19v-3.7c0-.76-.28-1.24-1.09-1.24a3.69,3.69,0,0,0-2.24,1v3.92h1.17v1.11h-3.76Z"/><path class="cls-3" d="M123,70.09a3.4,3.4,0,0,1,3.65-3.69,7.68,7.68,0,0,1,2.46.47v2.19h-1.19V67.65a4.26,4.26,0,0,0-1.14-.18c-1.57,0-2.34,1-2.34,2.57s.82,2.61,2.37,2.61A4.75,4.75,0,0,0,129.1,72v1.13a4.92,4.92,0,0,1-2.47.64A3.34,3.34,0,0,1,123,70.09Z"/><path class="cls-3" d="M130.49,70.09c0-2.17,1.25-3.69,3.34-3.69s3.1,1.7,3.1,3.46a4.36,4.36,0,0,1,0,.62h-5a2.15,2.15,0,0,0,2.35,2.17,4.75,4.75,0,0,0,2.31-.67V73.1a4.91,4.91,0,0,1-2.5.65A3.34,3.34,0,0,1,130.49,70.09Zm1.41-.62h3.72c-.06-1-.5-2-1.78-2S132,68.34,131.9,69.47Z"/><path class="cls-3" d="M142,70.07a3.57,3.57,0,1,1,3.57,3.68A3.39,3.39,0,0,1,142,70.07Zm5.69,0c0-1.52-.73-2.6-2.12-2.6s-2.13,1.08-2.13,2.6.74,2.6,2.13,2.6S147.72,71.59,147.72,70.07Z"/><path class="cls-3" d="M150.55,72.46h1.24V67.7h-1.4V66.58h1.4V64.24a2.21,2.21,0,0,1,2.52-2.4,7.83,7.83,0,0,1,1.29.13v1a5.89,5.89,0,0,0-.95-.08c-.9,0-1.47.33-1.47,1.34v2.31h1.88V67.7h-1.88v4.76h1.51v1.11h-4.14Z"/><path class="cls-3" d="M160.12,72.41h1.47V64.78h-1.47V63.62h4.38v1.16H163V68h5.32V64.78h-1.47V63.62h4.36v1.16h-1.45v7.63h1.45v1.16h-4.36V72.41h1.47V69.17H163v3.24h1.47v1.16h-4.38Z"/><path class="cls-3" d="M172.2,70.09c0-2.17,1.24-3.69,3.33-3.69s3.11,1.7,3.11,3.46a3.28,3.28,0,0,1,0,.62h-5A2.16,2.16,0,0,0,176,72.65a4.71,4.71,0,0,0,2.3-.67V73.1a4.91,4.91,0,0,1-2.5.65A3.34,3.34,0,0,1,172.2,70.09Zm1.4-.62h3.73c-.07-1-.51-2-1.78-2S173.73,68.34,173.6,69.47Z"/><path class="cls-3" d="M179.52,71.66c0-1.74,1.6-2.16,3.2-2.16h1.38V69c0-1.06-.41-1.47-1.64-1.47a7.94,7.94,0,0,0-2.37.41V66.82a8.92,8.92,0,0,1,2.65-.42c1.81,0,2.75.7,2.75,2.5v3.56h1.16v1.11h-2.5v-.85a3.44,3.44,0,0,1-2.39,1A2,2,0,0,1,179.52,71.66Zm4.58.14V70.42h-1.31c-1,0-1.86.24-1.86,1.19a1.07,1.07,0,0,0,1.22,1.11A3,3,0,0,0,184.1,71.8Z"/><path class="cls-3" d="M187.37,72.46h1.19V63.13h-1.19V62H190V72.46h1.19v1.11h-3.77Z"/><path class="cls-3" d="M193,71.69v-4h-1.23V66.58H193v-1.8h1.39v1.8h2.07V67.7h-2.07v3.91c0,.8.39,1,1.11,1a3.29,3.29,0,0,0,1.08-.18v1a4.91,4.91,0,0,1-1.49.23A1.82,1.82,0,0,1,193,71.69Z"/><path class="cls-3" d="M197.34,72.46h1.19V63.13h-1.19V62h2.58v5.5a4.16,4.16,0,0,1,2.67-1.12,2,2,0,0,1,2.06,2.22v3.84h1.19v1.11h-3.78V72.46h1.2v-3.7c0-.76-.28-1.24-1.1-1.24a3.74,3.74,0,0,0-2.24,1v3.92h1.2v1.11h-3.78Z"/><path class="cls-3" d="M207.13,72.8a.92.92,0,1,1,1.83,0,.92.92,0,1,1-1.83,0Z"/><path class="cls-3" d="M215.73,72.41h1.57l1.34-7.63h-2.38L216,66.43h-1.31l.49-2.81H224l-.49,2.81h-1.3l.27-1.65h-2.37l-1.35,7.63h1.58l-.21,1.16h-4.59Z"/><path class="cls-3" d="M225.72,63.13h-1.24l.19-1.11h2.65l-1,5.6a4.55,4.55,0,0,1,2.72-1.22c1.23,0,2,.88,1.74,2.36l-.54,3.14c-.1.52.08.75.54.75a2.52,2.52,0,0,0,.85-.18l-.2,1.08a3.72,3.72,0,0,1-1.13.18c-1.34,0-1.62-.9-1.44-1.91l.53-3c.13-.77,0-1.33-.8-1.33a4.4,4.4,0,0,0-2.49,1.34l-.83,4.71h-1.41Z"/><path class="cls-3" d="M232.44,70.61a4,4,0,0,1,3.94-4.21c1.4,0,2.14.73,2.14,1.78,0,1.89-2.39,2.51-4.69,2.63a1.74,1.74,0,0,0,2,1.84,5.39,5.39,0,0,0,2.25-.58l-.22,1.16a4.9,4.9,0,0,1-2.21.52A2.9,2.9,0,0,1,232.44,70.61Zm4.79-2.4c0-.41-.23-.77-.92-.77a2.67,2.67,0,0,0-2.42,2.32C235.54,69.7,237.23,69.29,237.23,68.21Z"/><path class="cls-3" d="M242.59,72.41h1.28l4.39-7.63h-1.42l.2-1.16h3.56l2,8.79h1.29l-.21,1.16h-4.19l.2-1.16h1.47l-.43-1.91h-4.24l-1.08,1.91h1.47l-.21,1.16h-4.27Zm7.9-3.07L249.57,65l-2.45,4.33Z"/><path class="cls-3" d="M255.92,67.7h-1.21l.21-1.12h2.55l-.23,1.25a3.63,3.63,0,0,1,2.52-1.43,1.09,1.09,0,0,1,1.2,1.22,3.42,3.42,0,0,1-.22,1.16l-1.26-.08a2.56,2.56,0,0,0,.13-.67.38.38,0,0,0-.43-.43c-.78,0-1.68,1-2.1,1.41l-.8,4.56h-1.41Z"/><path class="cls-3" d="M262.1,71.62l.68-3.93h-1.19l.2-1.11H263l.31-1.8h1.4l-.32,1.8h2l-.21,1.11h-2l-.71,4c-.11.68.22.94.84.94a4.15,4.15,0,0,0,1.42-.34l-.2,1.06a3.9,3.9,0,0,1-1.68.38A1.62,1.62,0,0,1,262.1,71.62Z"/><path class="cls-3" d="M270.91,70.6a4,4,0,0,1,4-4.2A2.88,2.88,0,0,1,278,69.55a4,4,0,0,1-4,4.2A2.88,2.88,0,0,1,270.91,70.6Zm5.67-1c0-1.23-.56-2.06-1.7-2.06-1.52,0-2.52,1.49-2.52,3.11,0,1.24.56,2.07,1.7,2.07C275.58,72.67,276.58,71.17,276.58,69.55Z"/><path class="cls-3" d="M277.2,76.89l.2-1.1a3.44,3.44,0,0,0,.78.1c.57,0,1.1-.18,1.28-1.16l1.22-7h-1.37l.21-1.14h1.36l.41-2.29a2.6,2.6,0,0,1,2.86-2.45,6.78,6.78,0,0,1,1.26.13l-.2,1.06a7.23,7.23,0,0,0-.85-.08,1.47,1.47,0,0,0-1.67,1.37l-.41,2.26h1.93L284,67.72h-1.91l-1.23,7a2.43,2.43,0,0,1-2.6,2.32A5.31,5.31,0,0,1,277.2,76.89Z"/><path class="cls-3" d="M288.69,69.24a5.71,5.71,0,0,1,5.94-5.82,8.55,8.55,0,0,1,3.54.79l-.42,2.56h-1.34l.32-1.83a7.2,7.2,0,0,0-2.09-.34,4.42,4.42,0,0,0-4.48,4.61,3.08,3.08,0,0,0,3.37,3.33,7.33,7.33,0,0,0,3.53-1l-.23,1.41a7.74,7.74,0,0,1-3.45.84C290.69,73.76,288.69,72.18,288.69,69.24Z"/><path class="cls-3" d="M298.57,70.6a4,4,0,0,1,4-4.2,2.88,2.88,0,0,1,3.12,3.15,4,4,0,0,1-4,4.2A2.88,2.88,0,0,1,298.57,70.6Zm5.67-1c0-1.23-.56-2.06-1.7-2.06C301,67.49,300,69,300,70.6c0,1.24.56,2.07,1.7,2.07C303.24,72.67,304.24,71.17,304.24,69.55Z"/><path class="cls-3" d="M308,67.7h-1.21l.2-1.12h2.53l-.18,1a3.72,3.72,0,0,1,2.44-1.14,1.58,1.58,0,0,1,1.68,1.27A3.92,3.92,0,0,1,316,66.4c1.13,0,1.93.76,1.67,2.25l-.58,3.25c-.08.52.09.75.56.75a2.4,2.4,0,0,0,.83-.18l-.18,1.08a3.84,3.84,0,0,1-1.14.18c-1.32,0-1.62-.9-1.44-1.91l.54-3.12c.13-.72-.1-1.18-.73-1.18a3.56,3.56,0,0,0-2.11,1.13l-.85,4.92h-1.39l.85-4.87c.13-.72-.1-1.18-.74-1.18a3.61,3.61,0,0,0-2.12,1.16l-.87,4.89H307Z"/><path class="cls-3" d="M321.42,72.44l-.76,4.38h-1.41l1.62-9.12h-1.18l.2-1.12h2.45l-.17,1a3.13,3.13,0,0,1,2.42-1.19c1.52,0,2.7,1.11,2.7,3.18,0,2.49-1.67,4.17-3.64,4.17A2.34,2.34,0,0,1,321.42,72.44Zm4.45-2.84c0-1.34-.66-2.13-1.72-2.13-1.42,0-2.47,1.44-2.47,3.11,0,1.26.61,2.09,1.72,2.09C324.81,72.67,325.87,71.31,325.87,69.6Z"/><path class="cls-3" d="M328.29,70.56A3.86,3.86,0,0,1,332,66.4a2.35,2.35,0,0,1,2.21,1.32l.21-1.14h1.39l-.93,5.32c-.1.51.06.75.54.75a2.41,2.41,0,0,0,.84-.18L336,73.55a3.79,3.79,0,0,1-1.11.18c-1,0-1.39-.47-1.42-1.24a3.2,3.2,0,0,1-2.5,1.26C329.47,73.75,328.29,72.64,328.29,70.56Zm5.6-1c0-1.27-.6-2.11-1.69-2.11-1.41,0-2.47,1.36-2.47,3.08,0,1.34.65,2.12,1.7,2.12C332.85,72.67,333.89,71.23,333.89,69.58Z"/><path class="cls-3" d="M337,73.27l.18-1a6.16,6.16,0,0,0,2.18.46c1.06,0,1.52-.43,1.52-1,0-1.34-3.17-1-3.17-3.22,0-1.13.85-2.12,2.69-2.12a6.43,6.43,0,0,1,2.13.39l-.18,1a6,6,0,0,0-1.88-.36c-1.1,0-1.39.48-1.39.88,0,1.33,3.19,1,3.19,3.24,0,1-.64,2.19-2.9,2.19A5.89,5.89,0,0,1,337,73.27Z"/><path class="cls-3" d="M343.33,73.27l.18-1a6.1,6.1,0,0,0,2.17.46c1.07,0,1.52-.43,1.52-1,0-1.34-3.17-1-3.17-3.22,0-1.13.85-2.12,2.7-2.12a6.31,6.31,0,0,1,2.12.39l-.18,1a5.87,5.87,0,0,0-1.88-.36c-1.09,0-1.38.48-1.38.88,0,1.33,3.18,1,3.18,3.24,0,1-.64,2.19-2.89,2.19A5.82,5.82,0,0,1,343.33,73.27Z"/><path class="cls-3" d="M350.59,71.82l.72-4.12h-1.23l.2-1.12h2.63l-1,5.32c-.08.52.1.75.54.75a2.42,2.42,0,0,0,.85-.18l-.18,1.08a3.82,3.82,0,0,1-1.13.18C350.7,73.73,350.41,72.85,350.59,71.82Zm.91-7.66a1,1,0,1,1,1,1A1,1,0,0,1,351.5,64.16Z"/><path class="cls-3" d="M354.23,70.6a4,4,0,0,1,4-4.2,2.88,2.88,0,0,1,3.12,3.15,4,4,0,0,1-4,4.2A2.89,2.89,0,0,1,354.23,70.6Zm5.67-1c0-1.23-.55-2.06-1.69-2.06-1.52,0-2.52,1.49-2.52,3.11,0,1.24.55,2.07,1.7,2.07C358.91,72.67,359.9,71.17,359.9,69.55Z"/><path class="cls-3" d="M363.5,67.7h-1.21l.2-1.12h2.57l-.2,1.07a4.64,4.64,0,0,1,2.76-1.25c1.23,0,2,.88,1.75,2.36l-.56,3.14c-.09.52.09.75.54.75a2.47,2.47,0,0,0,.85-.18L370,73.55a3.84,3.84,0,0,1-1.14.18c-1.32,0-1.62-.9-1.44-1.91l.52-3c.15-.77,0-1.33-.8-1.33a4.29,4.29,0,0,0-2.46,1.34l-.84,4.71h-1.4Z"/><path class="cls-3" d="M371.2,72.8a.92.92,0,1,1,1.83,0,.92.92,0,1,1-1.83,0Z"/></g></svg>