<?xml version="1.0" encoding="utf-8"?>
<!-- Generator: Adobe Illustrator 24.1.1, SVG Export Plug-In . SVG Version: 6.00 Build 0)  -->
<svg version="1.1" id="Layer_1" xmlns="http://www.w3.org/2000/svg" xmlns:xlink="http://www.w3.org/1999/xlink" x="0px" y="0px"
	 viewBox="0 0 640 480" style="enable-background:new 0 0 640 480;" xml:space="preserve">
<style type="text/css">
	.st0{fill:#F8F8F9;}
	.st1{fill:#3C416F;}
	.st2{fill:#102261;}
	.st3{fill:#424573;}
	.st4{fill:#3F4471;}
	.st5{fill:#3F4270;}
	.st6{fill:#454874;}
	.st7{fill:#00145F;}
	.st8{fill:#3E4370;}
	.st9{fill:#040157;}
	.st10{fill:#040060;}
	.st11{fill:#F9F9FA;}
	.st12{fill:#F8F8F8;}
	.st13{fill:#F6F6F7;}
	.st14{fill:#F1F2F3;}
	.st15{fill:#EFF0F1;}
	.st16{fill:#F4F4F5;}
	.st17{fill:#404572;}
	.st18{fill:#2F3865;}
	.st19{fill:#BCBFC9;}
	.st20{fill:#3A406F;}
	.st21{fill:#EAEAEC;}
	.st22{fill:#3C426F;}
	.st23{fill:#3C4270;}
</style>
<g>
	<g>
		<path class="st0" d="M96,356.5c0-77.6,0-155.2,0-233c149.2,0,298.5,0,448,0c0,77.6,0,155.3,0,233
			C394.8,356.5,245.4,356.5,96,356.5z M176.4,313.7c0,0.4,0,0.9,0,1.3c-0.7,1.4-0.4,2.9-0.4,4.4c0,7.6,0,15.1,0,22.7
			c0,1.8,0.5,3.9-1.7,5.4c-3-0.1-2.6-2.4-2.7-4.4c-0.2-9,0.4-18.1-0.3-27.1c0-0.5,0-1,0-1.5c0.4-0.4,0.4-0.8,0-1.2
			c0-0.8,0-1.6,0-2.4c0.1-0.1,0.3-0.3,0.2-0.3c-0.1-0.2-0.3-0.4-0.4-0.5c-0.2-0.3-0.5-0.3-0.8-0.2c-1.2-0.3-2.4-0.3-3.6,0
			c-1,0-1.2,0.7-1.2,1.5c0.2,12-0.5,24.1,0.4,36.1c1.6,4.7,4.4,6.7,8.6,6.4c4.1-0.3,6.3-2.4,7.4-7.3c0.6-11.7,0.1-23.4,0.3-35.2
			c0-0.8-0.1-1.5-1.1-1.6c-1.2-0.3-2.4-0.3-3.6,0c-0.3-0.1-0.6-0.1-0.8,0.2C175.4,311.2,176.1,312.4,176.4,313.7z M293.2,310
			c-1.1,1.5-0.7,3-0.3,4.6c0,0.4,0,0.9,0,1.3c-0.9,8.6-0.1,17.1-0.4,25.7c-0.1,2,0.6,4.2-1.4,5.8c-0.4,0-1,0.2-1.3,0
			c-0.7-0.5-1.3-1.1-2-1.7c0-9.8,0-19.6,0.1-29.4c0.4-0.4,0.4-0.8,0-1.2c0-1.4,0-2.8,0-4.2c0.4-0.4,0.5-0.8-0.2-0.9
			c-0.2-0.3-0.5-0.3-0.8-0.2c-1.2-0.3-2.4-0.3-3.6,0c-0.7,0-1.2,0.4-1.2,1c0.2,12.2-0.5,24.4,0.4,36.6c1.6,4.7,4.3,6.7,8.6,6.4
			c4-0.3,6.3-2.5,7.5-7.3c0.6-11.7,0.1-23.4,0.2-35.1c0-0.8-0.1-1.5-1.1-1.6c-1.2-0.3-2.4-0.3-3.6,0
			C293.7,309.7,293.5,309.8,293.2,310z M351.3,351.2c1.1,4,3.7,1.1,5.7,1.6c0-2.2,0-4.1,0-6c0.8-6.6,0-13.3,2.3-19.8
			c1.8-5.1,2.8-10.5,4.1-16c-2.3-0.6-4.1-0.8-6.2,0.2c-0.4,4-1.1,7.9-3.2,12.2c-1.2-4.6-2.2-8.7-3.2-12.9c-2,0.3-3.8-0.3-5.8,0.6
			c2.1,8.6,4.2,17.2,6.3,25.8c0,2.9,0,5.8,0,8.6C350.8,347.5,350.8,349.3,351.3,351.2z M304.3,329.6c0,0.9,0,1.8,0,2.7
			c-0.6,5.7-0.2,11.4-0.2,17.1c0,1.2-0.8,2.6,0.8,3.5c1.6,0.2,3.2,0.7,4.6-0.4c0-7.7,0-15.3,0-22.8c2.4,0,1.7,2.2,2,3.3
			c2,6.7,3.7,13.4,5.6,20.1c1.8,0,3.2,0,4.7,0c0.4,0,0.7,0.1,1.1,0.1c0-14.1,0-28.3,0-42.4c-1.8-0.2-3.3-0.2-4.6-1
			c-2.1,0.7-1,2.5-1,3.7c-0.1,6.8-0.1,13.6-0.1,20.4c-1.2-0.9-1.3-2.2-1.7-3.5c-1.8-6.7-3.7-13.3-5.5-20c-2.1,0-4,0.2-5.9-0.4
			c0.1,0.6,0.2,1.1,0.3,1.5c0,0.6,0,1.1,0,1.7c0,0.3,0,0.6,0,0.9c0,4.2,0,8.4,0,12.5C303.9,327.8,303.9,328.7,304.3,329.6z
			 M536.1,126.6c-0.3,0-0.6,0-0.9,0c-0.6,0-1.2,0-1.8,0c-1.2-0.1-2.4-0.3-3.5-0.3c-53.7,0-107.4,0-161.1,0c-1.3,0-2.7-0.2-4,0.4
			c-1.2,0-2.3,0-3.5,0c-1.6-0.7-3.2-0.3-4.9-0.3c-83.3,0-166.5,0-249.8,0c-1.6,0-3.3-0.3-4.9,0.4c-0.6,0.1-1,0.4-0.9,1.1
			c0,1.2,0,2.5,0,3.7c-0.1,1.3-0.3,2.7-0.3,4c0,54.1,0,108.2,0,162.3c0,1.3,0.2,2.7,0.3,4c-0.2,1.6-0.4,3.2,0.1,4.7
			c0.8,0.6,1.5,0.4,2.2,0.2c1.8,0.1,3.6,0.3,5.3,0.3c142.1,0,284.3,0,426.4,0c1.4,0,3,0.4,4.5-0.6c0.1-0.5,0.2-1.1,0.2-1.6
			c0-58.5,0-117,0-175.6c0-0.9,0.7-2.2-0.8-2.6C537.8,126.6,537,126.6,536.1,126.6z M325.5,310.7c-0.2,1.7-0.4,3.5,0.2,5.5
			c2,0,3.9,0,5.8,0c0,12.2,0,24.5,0,37.1c2.5-0.7,4.6,1,6.2-1.3c0-11.9,0-23.8,0-35.6c2.3-0.2,3.6-0.3,4.9-0.4
			c2.3-1.8,0.7-4,0.9-6.3c-5.6,0-10.7,0-15.9,0C326.8,309.8,325.7,309.4,325.5,310.7z M139,352c0.2-1.8,0.6-3.5-0.9-4.9
			c-2.4-0.4-4.8,0.3-7-0.6c0-4,0-7.6,0-11.1c1.8-1.1,3.8,0.2,5.4-1.2c0-2.2,1.2-4.7-1.5-6.4c-1.3-0.3-2.3,1.5-4.1,0.1
			c0.1-3.6-0.5-7.5,0.3-11.4c2.7-0.8,5.3,0.2,7.7-0.7c0-1.7,0-3.3,0-5c-4.7-2.5-9.5-0.4-14.3-1.1c0,14.9,0,29.1,0,43.8
			c4.5,0,8.7,0,13,0C138.6,353.4,139,352.9,139,352z M256.3,316.2c-1.6-6.2-2.2-6.5-12.3-6.2c-1.9,1.2-3.3,2.9-3.7,5.2
			c-0.2,0.9-0.6,1.7-0.6,2.6c0,9-0.1,18.1,0,27.1c0,1.4,0,3,1.3,4.1c3.2,5,7.9,6.3,12.1,3.3c3.8-2.7,4.7-10.1,1.8-13.9
			c-1.3,0.5-2.6,1-3.9,1.4c-0.3,5.7-0.3,5.7-2.4,7.7c-1.4,0.1-2.1-0.8-2.9-1.7c0-9.6,0.1-19.1,0.1-28.7c0.8-0.5,1.1-1.7,2.2-1.7
			c1-0.2,1.5,0.7,2.3,0.8c0.9,2.5,0,5.3,0.8,8c1.8,0.1,3.5,0.5,5.2-0.3C256.6,321.2,256.8,318.7,256.3,316.2z M199.8,352
			c0.9,2,2.3,1,3.5,1c0-7.2,0-14.1,0-20.8c-2.8,0-5.3,0-8.6,0c1.3,1.6-0.9,3.5,1.6,4.6c1.9,4,1.5,9.1-0.9,11.4
			c-1.3,0.2-1.6-1.1-2.4-1.6c0-9.8,0-19.6,0-29.5c1-0.8,1.7-2.2,3.3-1.5c0.1,0.2,0.3,0.3,0.5,0.3c0.2,0.4,0.3,0.7,0.5,1.1
			c0,2.1,0,4.3,0,6.4c0,1.2,0.2,2,1.7,1.7c1.5,0.1,3,0.6,4.6-1.4c-0.1-3.4,1-7.3-1.6-11c-3.1-4.4-7.3-2.9-11.5-2.2
			c-1,0.9-2.2,1.7-2.3,3.4c-1.5,1.5-1.4,3.6-1.5,5.4c-0.1,8.5-0.1,17,0,25.4c0,1.9,0,3.9,1.5,5.4c1.5,3.5,4.3,4,7.6,3.5
			C197.3,353.5,198.2,351.9,199.8,352z M108.7,317.1c0.7-0.8,1-2.2,2.5-1.8l0.3,0.2c0,0,0.4,0,0.4,0c0.4,0.5,0.8,1.1,1.2,1.6
			c0,2.2,0,4.5,0,6.7c0,1.2,0.5,1.6,1.7,1.4c1.5,0.1,3,0.6,4.4-1.1c0.6-2.3,0.4-5,0.1-7.6c-0.5-3.5-2.9-5.9-6.1-6.8
			c-3.8-1.2-6.8,0.3-9.2,3.9c-1.5,1.7-1.6,3.8-1.6,5.9c-0.1,8.5-0.1,17,0,25.5c0,1.9,0,3.9,1.5,5.4c0.1,0.3,0.1,0.6,0.3,0.8
			c3.4,4.5,7.4,2.6,11.3,0.9c0.9,1.9,2.3,1,3.5,0.9c0-7.2,0-14.1,0-20.8c-2.8,0-5.3,0-8.2,0c0.5,1.7-1.2,3.5,1.2,4.6
			c2,4.4,1.4,9.5-1.4,12.1c-0.7-0.7-1.3-1.5-2-2.2C108.7,336.7,108.7,326.9,108.7,317.1z M276.9,315.3c0-3-3-3.6-4.1-5.6
			c-1.4,0.1-2.6,0.1-3.7,0.2c-1.3,0-2.6,0-3.9,0c-3.1,2.5-3.1,2.5-4.2,6.3c-0.5,10.1-0.5,20.3,0,30.4c1.5,5.8,5.4,8.4,10.5,7
			c3.2-0.9,4.4-3.3,5.5-6.1C277.6,336.7,277.6,326,276.9,315.3z M227.8,352.9c-2.2-14.3-4.4-28.7-6.5-43.1c-2.9,0.4-5.3,0.8-8,1.2
			c-2.1,14-4.2,27.9-6.3,41.9c2.3,0.6,4.2,0.8,6,0c1.1-2.7,0.1-5.8,2-8.4c1.7,0.1,3.4-0.4,5.5,0.4c0.4,2.7,0.9,5.4,1.4,8.4
			C223.7,353.3,225.6,353.8,227.8,352.9z M156.6,353.3c1.8,0,3.4,0.6,4.8-0.6c-1.3-14.1-3.6-28.1-5.9-42c-3,0-5.4-0.3-8.1,0.3
			c-2.1,14.1-4.2,28-6.2,41.9c2.4,0.7,3.9,0.8,5.4,0.2c1.7-2.6,0.9-5.6,2.2-8.6c2,0.4,4-0.7,5.9,0.7
			C155.3,347.8,155.1,350.5,156.6,353.3z"/>
		<path class="st1" d="M538.7,126.6c1.5,0.5,0.8,1.7,0.8,2.6c0,58.5,0,117,0,175.6c0,0.6-0.1,1.1-0.2,1.6c-1.5,1-3,0.6-4.5,0.6
			c-142.1,0-284.3,0-426.4,0c-1.8,0-3.6-0.2-5.3-0.3c1.7-1,3.5-0.5,5.3-0.5c141,0,282,0,423.1,0c1.5,0,3.1,0.3,4.6-0.9
			c-144.7,0-289.3,0-433.8,0c0-59.4,0-118.4,0-177.4c0.4,0,0.9,0,1.3,0c87.1,0,174.2,0,261.3,0c48.6,0,97.3,0,145.9,0.1
			c8.1,0,16.1,0,24.2,0C536.2,127.9,538,128.8,538.7,126.6z M398.8,237.1L398.8,237.1c0.9,0.1,2,0.2,2.1-1.4
			c-0.6-0.1-1.2-0.2-1.7-0.2c0-0.4-0.1-0.9-0.1-1.3c1.3,0.9,2.4,0.1,3.6-0.4c0.7,0.5,1.5,1,2.6,1.7c0.4-2.8,5-1.8,4.2-5.6
			c0.6-1.4,1.9-1.8,3.1-2.4c0.5,0.9,1,1.7,1.6,2.7c1.5-0.7,2.9-1.4,4.3-2.1c0.3-2.2-0.7-4-1-5.9c-2.1-13.5,2-24.6,12.5-33.5
			c5.7-4.8,11.8-7.7,19.4-7.1c3.1,0.3,6.1-1.3,9.2-0.6c6.5,1.4,12.3,4.2,17.1,8.8c4.9,4.8,9.4,9.9,10.3,17.1
			c-0.3,5.5-0.3,10.9,0.2,16.4l0.2,0.3c-0.3-0.1-0.5-0.4-0.7,0.1c0.2,0.1,0.4,0.2,0.6,0.4c0.2,2.4-1.6,4.3-1.6,6.8
			c1.8,0.7,3.2,2.8,5.4,1c1.1,0.6,2.5,0.9,2.9,2.5c-0.1,2.1-0.9,4.1-2.6,5.6c-1.3,0.8-2.4,2-4.1,2.3c-0.1-1.6,1.3-2.6,0.6-4.1
			c-3.3-3.7-3.7-3.7-11.3,0.8c-1.7-4.8-3.5-5.5-7.7-2.7c-3.4,2.3-6.6,4.8-9.9,7.2c-3,0-4.6,1.8-5.3,4.6c-4.7-1.2-7.9-4.8-11.9-7.2
			c-12-7.2-24-8.4-36.4-1.2c-2.2,1.3-4.5,2.4-6.6,3.7c-4.7,2.8-5.3,4.5-2.5,9.4c3.3,5.7,7.6,10.5,12.8,14.8c4.9,4,10.1,7.2,15.7,9.8
			c7.2,3.4,15,4.9,22.7,6.2c-0.6,0.4-1.5-0.1-2.1,1c4.5,0,8.8,0,13.2,0c0.9,0,1.7-0.2,2.1-1.3c4.4-1.2,8.9-1.6,13.3-3.1
			c15-5.2,26.9-14.2,35.8-27.3c1.3-2,2.7-4,1.7-6.4c-3.6-4.5-7.9-2.1-12.6-1.3c0.8-2.7-0.6-4.2-2.2-5.6c0.3-1.2,0.6-2.3,0.9-3.5
			c1.1,0.3,2.2,0.5,3.3,0.8c1.3-0.2,2.7-0.5,4-0.7c-0.1,0.7,0.1,1.5-0.6,2.1c1,1.1,2.6,2.5,3.4,2.5c2.6,0.2,4.5,2.2,7,2.2
			c11.5-21.1,9.1-55.4-14.9-77.3c-29.1-26.5-67.1-23-92.2-0.9c-23.8,20.9-27.6,55.6-17,75.9c2.8-0.3,5-2.6,7.9-2.9
			C398.1,238,398.6,237.7,398.8,237.1z M445.5,223.9c-1.3,4.1-1.3,8.3,0,12.4c0.4,0.3,0.8,0.6,1.2,0.9c3.2,2.6,7.8,2.6,11,0
			c0.4-0.3,1-0.5,1-0.8c0.3-6,1.2-12-0.4-18c0.3-2.2,1.8-3.7,3.3-5.1c4-4,8.1-8,12-12c1.1-1.1,2.7-2,2.5-4.3c-1-2.2-2.4-4.4-5.1-4.9
			c-2,0.2-2.8,1.6-3.8,2.6c-3.7,3.7-7.4,7.4-11.1,11c-3,2.9-4.7,2.9-7.6,0c-4-3.8-7.8-7.8-11.7-11.7c-1-1-1.9-2.4-4-2.1
			c-1.6,1.5-3.8,2.8-4.6,5.1c0.1,1.2,0.7,1.9,1.3,2.5c3.5,3.5,7.4,6.8,10.5,10.7c2.3,2.8,6.3,4.6,6.6,8.9
			C444.9,220.6,445.9,222.4,445.5,223.9z M520.9,287.3c-2.8,0.7-1.3,3.6-2.7,4.8c1.1,3.2,3.6,4.4,5.9,6.1c1.5-1.1,3-2,4.2-3.3
			c3.1-3.4,1.6-7.4-3.1-8.3c-1.1,0-2.4-0.2-2.7,1.4c-0.3,0-0.6,0-0.9,0c-0.1-0.6-0.1-1.2-0.2-1.7
			C520.8,286.4,520.9,286.9,520.9,287.3z M108.4,295.5c0.1,0.8,0.2,1.6,1.2,1.8c0.5,0,0.7,0.2,0.7,0.7c0,0.4,0,0.8-0.1,1.2
			c0.3,0.5,0.5,0.6,0.9,0c2.1,0,4.2,0,6.4,0c0.9,1.1,2.2,0.8,3.3,0.8c19.3,0,38.5,0,57.8,0c1.2,0,2.4,0.3,3.3-0.8
			c4.8,0,9.6,0,14.4,0c2.4,1.3,4.7,1.3,7.1,0c2.4,0,4.8,0,7.3,0c2.4,1.3,4.7,1.3,7.1,0c2.4,0,4.8,0,7.3,0c0.6,0.8,1.5,0.8,2.4,0.8
			c7.9,0,15.8,0,23.7,0c0.9,0,1.8,0,2.4-0.8c2.4,0,4.8,0,7.3,0c2.4,1.3,4.7,1.3,7.1,0c2.4,0,4.8,0,7.3,0c2.4,1.3,4.7,1.3,7.1,0
			c4.8,0,9.6,0,14.4,0c1.2,1.3,2.8,0.9,4.2,0.8c5.4-0.4,10.9,1.1,16.3-0.8c1.2,0,2.5,0,3.7,0c0.6,0.9,1.1,0.9,1.7,0
			c0.9,0,1.9,0,2.8,0c2.4,1.3,4.7,1.3,7.1,0c2.4,0,4.8,0,7.3,0c4.7,1.3,9.5,1.3,14.2,0c2.4,0,4.8,0,7.3,0c0.6,0.9,1.1,0.9,1.7,0
			c0.9-0.1,1.6-0.4,1.8-1.4c0.1-0.5,0.1-0.9,0.2-1.4c2.7-0.7,1.6-2.9,1.6-4.5c0.1-50.5,0-101.1,0-151.6c0-1,0-2.1-0.1-3.1
			c-0.1-0.8-0.9-1.1-1.7-1.2l-0.2-0.2l0.1-0.2c-1-2.3-3.1-1.4-4.7-1.4c-81.7,0-163.3,0-245,0c-1.3,0-2.6-0.5-4.3,0.7
			c2.1,0,3.7,0,5.4,0c79.9,0,159.7,0,239.6,0c1.9,0,3.9-0.3,5.8,0.4c-1.6,0.7-3.2,0.4-4.9,0.4c-80.4,0-160.9,0-241.3,0
			c-1.9,0-3.9,0.2-5.8,0.3c-1,0.2-1.1,1-1.2,1.8c-1.4,1.2-0.8,2.8-0.8,4.2c0,49.8,0,99.5,0,149.3
			C107.6,292.7,107.1,294.3,108.4,295.5z M537.8,302.7c0.1,0.4,0,0.9,0.6,0.9c0-57.9,0-115.8,0-174.7c-0.4,1.2-0.5,1.5-0.6,1.8
			c-1.3,1-0.8,2.5-0.8,3.7c0,26.8,0,53.5,0,80.3c0,1.3-0.4,2.7,0.8,3.7c0,1.2,0,2.4,0,3.6c-1.3,1-0.8,2.5-0.8,3.7
			c0,24.4,0,48.8,0,73.1C537,300.2,536.6,301.7,537.8,302.7z M447.5,187.5c-4.6,6.9-3.9,9,4.6,14.3c8.4-4.6,9.1-6.3,5.7-13.5
			C454.6,186,451.4,185.7,447.5,187.5z"/>
		<path class="st2" d="M102.2,127.9c0,59,0,118,0,177.4c144.5,0,289.2,0,433.8,0c-1.5,1.2-3,0.9-4.6,0.9c-141,0-282,0-423.1,0
			c-1.7,0-3.6-0.5-5.3,0.5c-0.7,0.1-1.4,0.4-2.2-0.2c-0.5-1.5-0.3-3.1-0.1-4.7c1-1.3,0.5-2.9,0.5-4.3c0-53.9,0-107.7,0-161.6
			c0-1.5,0.4-3-0.5-4.3c0-1.2,0-2.5,0-3.7C101.3,127.8,101.8,127.9,102.2,127.9z"/>
		<path class="st3" d="M227.8,352.9c-2.1,0.9-4,0.4-6,0.3c-0.5-2.9-0.9-5.7-1.4-8.4c-2.1-0.7-3.8-0.2-5.5-0.4
			c-1.9,2.6-0.9,5.7-2,8.4c-1.8,0.8-3.7,0.7-6,0c2.1-14,4.2-27.9,6.3-41.9c2.7-0.4,5.1-0.8,8-1.2
			C223.4,324.2,225.6,338.6,227.8,352.9z M215.3,337.6c1.5-0.1,2.8,0.6,4.2-0.6c-0.9-3.8-0.4-8-2.4-12.8
			C216.1,329.2,215.4,333.2,215.3,337.6z"/>
		<path class="st4" d="M156.6,353.3c-1.4-2.8-1.3-5.5-1.8-8.2c-1.9-1.4-4-0.3-5.9-0.7c-1.3,3-0.5,6.1-2.2,8.6
			c-1.4,0.6-3,0.5-5.4-0.2c2.1-13.8,4.1-27.7,6.2-41.9c2.6-0.6,5.1-0.3,8.1-0.3c2.2,13.9,4.6,27.9,5.9,42
			C160,353.9,158.3,353.3,156.6,353.3z M152,323.8c-2.2,4.4-2.3,9-2.4,13.8c1.5,0,2.8,0.6,4-0.6C153.2,332.6,152.6,328.2,152,323.8z
			"/>
		<path class="st5" d="M304.8,352.9c-1.5-0.9-0.8-2.4-0.8-3.5c0.1-5.7-0.4-11.4,0.2-17.1c1.5,5.9,0,12,1.1,17.9
			c0.3-12.2,0.3-24.4,0.3-36.5c0-1-0.3-1.7-1.4-1.9c-0.1-0.4-0.2-0.8-0.3-1.5c1.9,0.6,3.8,0.3,5.9,0.4c1.8,6.6,3.7,13.3,5.5,20
			c0.3,1.3,0.5,2.6,1.7,3.5c1.8-0.9,1.1-2.6,1.1-4c0.1-6.7,0-13.4,0-20.2c1.3,0.7,2.8,0.7,4.6,1c0,14.2,0,28.3,0,42.4
			c-0.4,0-0.7-0.1-1.1-0.1c-1.5,0-2.9,0-4.7,0c-1.9-6.8-3.6-13.5-5.6-20.1c-0.3-1.2,0.3-3.3-2-3.3c-0.1-0.1-0.2-0.2-0.4-0.2
			c-0.1,0-0.4,0-0.4,0.1c-0.1,1.3-0.3,2.6-0.3,3.9c0,6.1,0,12.1,0,17.7C307,352.3,305.5,351.6,304.8,352.9z"/>
		<path class="st6" d="M166.8,309.9c1.2-0.3,2.4-0.3,3.6,0c0,11.7,0,23.3,0,35c1.1-9.6,0.2-19.3,1-28.9c0.8,9,0.1,18.1,0.3,27.1
			c0,2-0.3,4.3,2.7,4.4c2.1-1.5,1.6-3.6,1.7-5.4c0.1-7.6,0-15.1,0-22.7c0-1.5-0.3-3,0.4-4.4c0.9,9.9-0.1,19.8,1.1,29.7
			c0-11.6,0-23.2,0-34.8c1.2-0.3,2.4-0.3,3.6,0c0,11,0,22,0,33c0,1.3-0.5,2.7,0.8,3.7c-1.2,4.9-3.4,7-7.4,7.3
			c-4.2,0.3-6.9-1.7-8.6-6.4c1.4-1.2,0.8-2.8,0.8-4.2C166.8,332.2,166.8,321,166.8,309.9z"/>
		<path class="st3" d="M261,316.2c1.1-3.8,1.1-3.8,4.2-6.3c1.2,0,2.6,0,3.9,0c1.2,0,2.3-0.1,3.7-0.2c1.1,2.1,4.1,2.7,4.1,5.6
			c-0.2,0.2-0.6,0.4-0.6,0.7c-0.4,10.3-0.4,20.6,0,30.9c0,0.2,0.4,0.4,0.6,0.7c-1,2.7-2.3,5.2-5.5,6.1c-5.2,1.4-9-1.1-10.5-7
			C262.4,336.4,262.3,326.3,261,316.2z M271.4,317.1c-0.9-0.8-1.4-2.3-3-1.6c-1.4,0.5-1.2,1.9-2,2.7c-0.3-0.1-0.5-0.3-0.8-0.2
			c-0.2,0-0.3,0.4-0.3,0.6c0,8.5,0,17.1,0,25.6c0,0.9,0.5,0.8,1.1,0.4c0.8,1,0.6,2.6,2.7,3c1.1,0.3,1.4-1.3,2.2-1.9
			c1.1-0.4,1.1-1.3,1.1-2.2c0-8.1,0-16.2,0-24.3C272.5,318.3,272.5,317.4,271.4,317.1z"/>
		<path class="st5" d="M115.6,352c-3.9,1.7-7.9,3.5-11.3-0.9c-0.2-0.2-0.2-0.5-0.3-0.8c0-12.3,0-24.6,0.1-36.8
			c2.4-3.6,5.3-5.1,9.2-3.9c3.2,1,5.6,3.3,6.1,6.8c0.3,2.6,0.6,5.3-0.1,7.6c-1.4,1.7-2.9,1.2-4.4,1.1c0-1.7,0-3.4,0-5.1
			c0-1.3,0.2-2.7-1.7-2.9c-0.4-0.5-0.8-1.1-1.2-1.6c-0.2-0.1-0.4-0.2-0.7-0.2c-1.5-0.3-1.8,1.1-2.5,1.8c-1.3,0.5-1.1,1.6-1.1,2.6
			c0,8.1,0,16.2,0,24.3c0,1-0.2,2.1,1.1,2.6c0.7,0.7,1.3,1.5,2,2.2c2.8-2.6,3.4-7.7,1.4-12.1c0.2-1.1-0.4-2.4,0.8-3.4
			c1.7-0.2,3.4-0.5,5.2,0.3c0,6,0,12,0,18C117,351.9,116.3,352,115.6,352z"/>
		<path class="st6" d="M298.5,346.6c-1.1,4.8-3.4,7-7.5,7.3c-4.2,0.3-6.9-1.7-8.6-6.4c1.3-1,0.8-2.5,0.8-3.7c0-11.3,0-22.6,0-33.9
			c1.2-0.3,2.4-0.3,3.6,0c0,10.6,0,21.2,0,31.8c0,1.4-0.7,3,0.9,4.1c0.7,0.6,1.3,1.2,2,1.7c0.3,0.2,0.9,0,1.3,0
			c2-1.6,1.3-3.8,1.4-5.8c0.3-8.6-0.5-17.2,0.4-25.7c0.9,9.6-0.1,19.2,1.1,28.8c0-11.6,0-23.2,0-34.8c1.2-0.3,2.4-0.3,3.6,0
			c0,10.9,0,21.7,0,32.6C297.7,343.8,297,345.5,298.5,346.6z"/>
		<path class="st5" d="M188.2,313.9c0.1-1.7,1.4-2.5,2.3-3.4c4.2-0.7,8.3-2.2,11.5,2.2c2.6,3.7,1.5,7.6,1.6,11
			c-1.6,1.9-3.1,1.5-4.6,1.4c0-1.6,0-3.1,0-4.7c0-1.4,0.3-3-1.7-3.4c-0.2-0.4-0.3-0.7-0.5-1.1c0.1-0.3,0.4-0.6,0-0.8
			c-0.2,0.2-0.3,0.3-0.4,0.5c-1.6-0.6-2.4,0.8-3.3,1.5c-1.3,0.5-1.1,1.6-1.1,2.6c0,8.1,0,16.2,0,24.3c0,1-0.2,2.1,1.1,2.6
			c0.9,0.5,1.1,1.8,2.4,1.6c2.4-2.3,2.8-7.4,0.9-11.4c0.2-1.1-0.4-2.4,0.8-3.4c1.7-0.2,3.4-0.6,5.2,0.3c0,6,0,12,0,18
			c-1,0.1-1.8,0.2-2.5,0.3c-1.6-0.1-2.5,1.4-4,1.7c-3.3,0.5-6.1,0-7.6-3.5c0.2-0.2,0.6-0.4,0.6-0.6
			C187.6,337.7,188.7,325.8,188.2,313.9z"/>
		<path class="st1" d="M240.3,315.2c0.4-2.3,1.8-4,3.7-5.2c10.1-0.3,10.7,0,12.3,6.2c-1.7,2,0.2,4.7-1.4,6.9
			c-0.9,0.1-1.9,0.5-2.6-0.6c-1.3-1.9,1.1-4.9-1.8-6.3c-0.8-0.2-1.4-1-2.3-0.8c-1.2,0-1.4,1.3-2.2,1.7c-0.8,0.3-1.1,1-1.1,1.7
			c0,8.4,0,16.7,0,25.1c0,0.8,0.2,1.5,1,1.9c0.8,0.9,1.6,1.8,2.9,1.7c2.1-1.9,2.1-1.9,2.4-7.7c1.2-0.4,2.5-0.9,3.9-1.4
			c3,3.8,2,11.1-1.8,13.9c-4.2,3-8.9,1.7-12.1-3.3c0.1-10.3,0.1-20.6,0.2-30.9C241.2,317,241.3,316,240.3,315.2z"/>
		<path class="st3" d="M139,310.8c0,1.6,0,3.2,0,5c-2.4,1-5-0.1-7.7,0.7c-0.8,3.8-0.2,7.8-0.3,11.4c1.8,1.5,2.8-0.4,4.1-0.1
			c2.6,1.7,1.4,4.2,1.5,6.4c-1.6,1.3-3.6,0-5.4,1.2c0,3.5,0,7.2,0,11.1c2.2,0.9,4.6,0.1,7,0.6c1.5,1.4,1.1,3.2,0.9,4.9
			c-4.4,0-8.8,0-13.1,0c0-14.1,0-27.4,0-41.3C130.4,310.8,134.7,310.8,139,310.8z"/>
		<path class="st6" d="M351.3,336.9c-2.1-8.6-4.2-17.2-6.3-25.8c2-0.9,3.8-0.3,5.8-0.6c1,4.2,2,8.3,3.2,12.9
			c2.1-4.3,2.8-8.3,3.2-12.2c2.1-0.9,4-0.7,6.2-0.2c-1.4,5.4-2.3,10.9-4.1,16c-2.3,6.5-1.5,13.2-2.3,19.8c-0.9-3.9,0.1-8-1.1-12
			c0,5.5,0,11.1,0,16.4c-1.5,0.8-2.4,0.9-3.5-0.3c0-5.1,0-10.6,0-16c-0.1,0-0.3,0-0.4,0C351.7,335.6,351.5,336.3,351.3,336.9z"/>
		<path class="st3" d="M342.5,316c-1.3,0.1-2.6,0.2-4.9,0.4c0,11.8,0,23.7,0,35.6c-1.5-0.3-3.3,0.5-5-1c0-10,0-20.2,0-30.5
			c0-1.5,0.8-3.3-1.1-4.4c-1.9,0-3.8,0-5.8,0c-0.5-2-0.4-3.7-0.2-5.5c5.5,0,11,0,16.3,0C342.8,312.8,342.3,314.5,342.5,316z
			 M336.3,350.1c0.1,0,0.3,0,0.4,0c0-11,0-21.9,0-32.9c-0.1,0-0.3,0-0.4,0C336.3,328.2,336.3,339.1,336.3,350.1z"/>
		<path class="st7" d="M102.2,127.9c-0.4,0-0.9-0.1-1.3-0.1c-0.1-0.7,0.3-1,0.9-1.1c1.9,0.7,3.8,0.4,5.8,0.4c83,0,165.9,0,248.9,0
			c1.6,0,3.3,0.4,4.8-0.4c1.2,0,2.3,0,3.5,0c-0.1,0.2,0,0.4,0.1,0.6c0,0.2,0,0.4,0,0.6c-87.1,0-174.2,0-261.3,0
			C103.1,127.9,102.7,127.9,102.2,127.9z"/>
		<path class="st1" d="M361.2,126.7c-1.6,0.8-3.2,0.4-4.8,0.4c-83,0-165.9,0-248.9,0c-1.9,0-3.9,0.3-5.8-0.4
			c1.6-0.7,3.2-0.4,4.9-0.4c83.3,0,166.5,0,249.8,0C358,126.4,359.7,126.1,361.2,126.7z"/>
		<path class="st2" d="M364.9,127.9c0-0.2,0-0.4,0-0.6c1.8,0,3.6-0.1,5.4-0.1c52.6,0,105.3,0,157.9,0c1.7,0,3.6,0.5,5.3-0.5
			c0.6,0,1.2,0,1.8,0c0.3,0.4,0.6,0.4,0.9,0c0.9,0,1.7,0,2.6,0c-0.6,2.2-2.5,1.3-3.8,1.3c-8.1,0.1-16.1,0-24.2,0
			C462.1,127.9,413.5,127.9,364.9,127.9z"/>
		<path class="st1" d="M100.9,131.5c1,1.3,0.5,2.9,0.5,4.3c0,53.9,0,107.7,0,161.6c0,1.5,0.4,3-0.5,4.3c-0.1-1.3-0.3-2.7-0.3-4
			c0-54.1,0-108.2,0-162.3C100.6,134.2,100.8,132.8,100.9,131.5z"/>
		<path class="st1" d="M533.4,126.6c-1.7,1-3.5,0.5-5.3,0.5c-52.6,0-105.3,0-157.9,0c-1.8,0-3.6,0.1-5.4,0.1
			c-0.1-0.2-0.1-0.4-0.1-0.6c1.3-0.6,2.6-0.4,4-0.4c53.7,0,107.4,0,161.1,0C531,126.3,532.2,126.5,533.4,126.6z"/>
		<path class="st2" d="M139,310.8c-4.3,0-8.5,0-13.1,0c0,13.8,0,27.1,0,41.3c4.3,0,8.7,0,13.1,0c0.1,0.9-0.3,1.4-1.3,1.4
			c-4.3,0-8.6,0-13,0c0-14.6,0-28.9,0-43.8C129.5,310.3,134.3,308.3,139,310.8z"/>
		<path class="st4" d="M104,313.5c0,12.3,0,24.6-0.1,36.8c-1.5-1.5-1.5-3.5-1.5-5.4c-0.1-8.5-0.1-17,0-25.5
			C102.4,317.3,102.5,315.2,104,313.5z"/>
		<path class="st4" d="M188.2,313.9c0.5,11.9-0.5,23.8,0.7,35.7c0,0.2-0.4,0.4-0.6,0.6c-1.5-1.5-1.5-3.5-1.5-5.4
			c-0.1-8.5-0.1-17,0-25.4C186.7,317.5,186.7,315.5,188.2,313.9z"/>
		<path class="st8" d="M240.3,315.2c1,0.7,0.9,1.8,0.9,2.8c-0.1,10.3-0.1,20.6-0.2,30.9c-1.3-1.1-1.3-2.7-1.3-4.1
			c-0.1-9,0-18.1,0-27.1C239.7,317,240.1,316.1,240.3,315.2z"/>
		<path class="st2" d="M304.3,311.7c1.1,0.2,1.4,0.9,1.4,1.9c0,12.2,0,24.4-0.3,36.5c-1.2-5.9,0.4-12-1.1-17.9c0-0.9,0-1.8,0-2.7
			c0.9-0.9,0.9-1.8,0-2.7c0-4.2,0-8.4,0-12.5c0.1-0.1,0.3-0.2,0.3-0.3c-0.1-0.2-0.2-0.4-0.3-0.7
			C304.3,312.9,304.3,312.3,304.3,311.7z"/>
		<path class="st9" d="M331.4,316.2c2,1,1.1,2.9,1.1,4.4c0.1,10.2,0,20.5,0,30.5c1.7,1.5,3.4,0.7,5,1c-1.6,2.3-3.7,0.6-6.2,1.3
			C331.4,340.7,331.4,328.4,331.4,316.2z"/>
		<path class="st9" d="M351.3,336.9c0.2-0.7,0.4-1.3,0.6-2c0.1,0,0.3,0,0.4,0c0,5.4,0,10.8,0,16c1.1,1.2,2.1,1.1,3.5,0.3
			c0-5.3,0-10.9,0-16.4c1.3,4,0.2,8,1.1,12c0,1.9,0,3.8,0,6c-1.9-0.6-4.6,2.4-5.7-1.6c0.4-1.9,0.4-3.8,0-5.7
			C351.3,342.7,351.3,339.8,351.3,336.9z"/>
		<path class="st9" d="M166.8,309.9c0,11.1,0,22.3,0,33.4c0,1.4,0.6,3-0.8,4.2c-0.9-12-0.2-24.1-0.4-36.1
			C165.6,310.6,165.8,309.9,166.8,309.9z"/>
		<path class="st9" d="M283.3,309.9c0,11.3,0,22.6,0,33.9c0,1.3,0.5,2.7-0.8,3.7c-0.9-12.2-0.2-24.4-0.4-36.6
			C282.1,310.2,282.6,309.9,283.3,309.9z"/>
		<path class="st9" d="M182,346.6c-1.4-1-0.8-2.4-0.8-3.7c0-11,0-22,0-33c1,0.1,1.1,0.8,1.1,1.6C182.1,323.2,182.6,334.9,182,346.6z
			"/>
		<path class="st9" d="M298.5,346.6c-1.5-1.1-0.8-2.7-0.8-4.1c0-10.9,0-21.7,0-32.6c1,0.1,1.1,0.8,1.1,1.6
			C298.6,323.2,299.1,334.9,298.5,346.6z"/>
		<path class="st9" d="M171.4,316c-0.8,9.6,0.1,19.3-1,28.9c0-11.7,0-23.3,0-35c0.3-0.2,0.6-0.1,0.8,0.2c0.1,0.3,0.1,0.6,0.2,0.9
			c0,0.8,0,1.6,0,2.4c0,0.4,0,0.8,0,1.2C171.4,315,171.4,315.5,171.4,316z"/>
		<path class="st9" d="M287.9,345.7c-1.6-1.1-0.9-2.7-0.9-4.1c0-10.6,0-21.2,0-31.8c0.3-0.2,0.6-0.1,0.8,0.2
			c0.1,0.3,0.1,0.6,0.2,0.9c0,1.4,0,2.8,0,4.2c0,0.4,0,0.8,0,1.2C287.9,326.1,287.9,335.9,287.9,345.7z"/>
		<path class="st9" d="M294,309.9c0,11.6,0,23.2,0,34.8c-1.2-9.6-0.2-19.2-1.1-28.8c0-0.4,0-0.9,0-1.3c0.5-1.5,0.3-3,0.3-4.6
			C293.5,309.8,293.7,309.7,294,309.9z"/>
		<path class="st9" d="M177.5,309.9c0,11.6,0,23.2,0,34.8c-1.1-9.9-0.2-19.8-1.1-29.7c0-0.4,0-0.9,0-1.3c0.5-1.2,0.3-2.4,0.3-3.7
			C176.9,309.8,177.2,309.7,177.5,309.9z"/>
		<path class="st9" d="M115.6,352c0.7-0.1,1.5-0.2,2.5-0.3c0-6,0-12,0-18c-1.8-0.9-3.5-0.6-5.2-0.3c-1.2,1-0.6,2.3-0.8,3.4
			c-2.4-1.1-0.7-2.9-1.2-4.6c2.9,0,5.4,0,8.2,0c0,6.7,0,13.6,0,20.8C117.9,353.1,116.5,354,115.6,352z"/>
		<path class="st9" d="M199.8,352c0.7-0.1,1.5-0.2,2.5-0.3c0-6,0-12,0-18c-1.8-0.9-3.5-0.6-5.2-0.3c-1.2,1-0.6,2.3-0.8,3.4
			c-2.6-1.1-0.3-3-1.6-4.6c3.3,0,5.8,0,8.6,0c0,6.8,0,13.6,0,20.8C202.1,353.1,200.7,354,199.8,352z"/>
		<path class="st9" d="M276.9,347.5c-0.2-0.2-0.6-0.4-0.6-0.7c-0.4-10.3-0.4-20.6,0-30.9c0-0.2,0.4-0.4,0.6-0.7
			C277.6,326,277.6,336.7,276.9,347.5z"/>
		<path class="st9" d="M261,316.2c1.4,10.1,1.4,20.3,0,30.4C260.5,336.4,260.5,326.3,261,316.2z"/>
		<path class="st9" d="M108.7,346.6c-1.3-0.5-1.1-1.6-1.1-2.6c0-8.1,0-16.2,0-24.3c0-1-0.2-2.1,1.1-2.6
			C108.7,326.9,108.7,336.7,108.7,346.6z"/>
		<path class="st9" d="M193,346.6c-1.3-0.4-1.1-1.6-1.1-2.6c0-8.1,0-16.2,0-24.3c0-1-0.2-2.1,1.1-2.6C193,326.9,193,336.7,193,346.6
			z"/>
		<path class="st9" d="M245.7,345.8c-0.7-0.4-1-1.1-1-1.9c0-8.4,0-16.7,0-25.1c0-0.8,0.3-1.5,1.1-1.7
			C245.8,326.6,245.8,336.2,245.7,345.8z"/>
		<path class="st9" d="M304.8,352.9c0.7-1.3,2.2-0.6,3.6-1.8c0-5.6,0-11.6,0-17.7c0-1.3,0.2-2.6,0.3-3.9c0,0,0.3-0.1,0.4-0.1
			c0.1,0,0.3,0.1,0.4,0.2c0,7.6,0,15.2,0,22.8C308,353.6,306.4,353.1,304.8,352.9z"/>
		<path class="st9" d="M318.3,309.9c0,6.7,0,13.4,0,20.2c0,1.4,0.7,3.1-1.1,4c0-6.8-0.1-13.6,0.1-20.4
			C317.2,312.4,316.1,310.6,318.3,309.9z"/>
		<path class="st10" d="M342.5,316c-0.2-1.6,0.3-3.2-0.7-5.3c-5.3,0-10.8,0-16.3,0c0.2-1.3,1.3-0.9,2.1-0.9c5.1,0,10.3,0,15.9,0
			C343.2,312,344.8,314.2,342.5,316z"/>
		<path class="st9" d="M250.5,316.1c2.9,1.5,0.5,4.4,1.8,6.3c0.7,1.1,1.7,0.7,2.6,0.6c1.6-2.2-0.3-4.9,1.4-6.9
			c0.5,2.5,0.3,5,0.2,7.6c-1.7,0.8-3.4,0.4-5.2,0.3C250.5,321.4,251.4,318.7,250.5,316.1z"/>
		<path class="st6" d="M197.3,317c2,0.4,1.6,2.1,1.7,3.4c0.1,1.6,0,3.1,0,4.7c-1.4,0.3-1.7-0.5-1.7-1.7
			C197.4,321.3,197.4,319.1,197.3,317z"/>
		<path class="st6" d="M113.1,317c1.8,0.2,1.7,1.6,1.7,2.9c0,1.7,0,3.4,0,5.1c-1.1,0.2-1.7-0.2-1.7-1.4
			C113.1,321.5,113.1,319.3,113.1,317z"/>
		<path class="st6" d="M351.3,345.6c0.5,1.9,0.4,3.8,0,5.7C350.8,349.3,350.8,347.5,351.3,345.6z"/>
		<path class="st6" d="M293.2,310c0.1,1.5,0.3,3.1-0.3,4.6C292.5,313,292.1,311.5,293.2,310z"/>
		<path class="st6" d="M176.7,310c0.1,1.2,0.2,2.5-0.3,3.7C176.1,312.4,175.4,311.2,176.7,310z"/>
		<path class="st5" d="M304.3,326.9c0.9,0.9,0.9,1.8,0,2.7C303.9,328.7,303.9,327.8,304.3,326.9z"/>
		<path class="st6" d="M287.9,310.9c-0.1-0.3-0.1-0.6-0.2-0.9C288.5,310.2,288.3,310.5,287.9,310.9z"/>
		<path class="st5" d="M304.3,313.4c0.1,0.2,0.2,0.4,0.3,0.7c0,0.1-0.2,0.2-0.3,0.3C304.3,314.1,304.3,313.7,304.3,313.4z"/>
		<path class="st6" d="M196.3,315.5c0.1-0.2,0.3-0.3,0.4-0.5c0.4,0.3,0.2,0.6,0,0.8C196.6,315.8,196.4,315.7,196.3,315.5z"/>
		<path class="st6" d="M171.4,310.9c-0.1-0.3-0.1-0.6-0.2-0.9c0.2,0.2,0.3,0.3,0.4,0.5C171.6,310.6,171.5,310.8,171.4,310.9z"/>
		<path class="st6" d="M111.2,315.2c0.2,0,0.5,0.1,0.7,0.2l-0.4,0L111.2,315.2z"/>
		<path class="st1" d="M536.1,126.6c-0.3,0.4-0.6,0.4-0.9,0C535.5,126.6,535.8,126.6,536.1,126.6z"/>
		<path class="st6" d="M287.9,316.3c0-0.4,0-0.8,0-1.2C288.3,315.5,288.3,315.9,287.9,316.3z"/>
		<path class="st6" d="M171.4,314.5c0-0.4,0-0.8,0-1.2C171.8,313.7,171.8,314.1,171.4,314.5z"/>
		<path class="st11" d="M365,296.4c-0.1,0.5-0.1,0.9-0.2,1.4c-1.8,0.1-3.6,0.1-5.4,0.1c-83,0-166.1,0-249.1,0.1
			c0-0.5-0.2-0.7-0.7-0.7c0-53.7,0-107.5,0-161.2c1.9-0.1,3.9-0.3,5.8-0.3c80.4,0,160.9,0,241.3,0c1.6,0,3.3,0.3,4.9-0.4
			c1.1,0.1,2.1,0.2,3.2,0.3c0,0-0.1,0.2-0.1,0.2l0.2,0.2c0,52.6,0,105.2,0,157.8C364.9,294.6,365,295.5,365,296.4z M303.4,262.3
			c0.5-6.1,0.7-12.2-0.2-18.3c-0.1-1.1-0.2-2.1-0.3-3.2c-0.5-2.8-1.7-4.8-4.3-6.2c-6.2-3.4-16.1-2.5-21.8,2.4c0.3,1.5,0,3.2,2.1,4.5
			c3.1,0.8,6.3-0.9,9.7-0.8c4,0.2,5.7,1.5,6.1,5.5c0.1,1.2,0,2.4,0,3.5c-1.2,1.1-2.1,1.9-4,1.5c-11-2.1-19.3,6.8-16.7,17.7
			c1.4,6.1,4.8,8.3,10.7,8.9c4.7,0.5,7.9-1.4,10.8-4.5c0.6,0.7,1,1.1,1.4,1.5c0,0.9,0.1,1.9,1.3,1.9c3.6,0,7.2,0.4,10.9-0.3
			c0.1-2.8,0.6-5.4-2.4-6.7c-2.9-0.4-2.3-3.1-3.1-4.9C303.5,264.1,303.4,263.2,303.4,262.3z M288.7,186.5c5.5,0.5,10.9,0.8,16.4-0.2
			c0.5-0.2,0.7-0.5,0.6-1c0-8.2,0-16.3-7.9-21.5c-4.4-3.4-10-3.4-15.3,0c-2.1,0.7-3.4,2.3-4.5,4.1c-5.9,9.6-6.1,19.7-2.2,29.9
			c1.7,4.4,5.3,7.7,10,8.7c6.2,1.3,12.2,0.6,17.6-2.8c0.4-0.2,0.6-0.6,0.9-1c0.1-1.4,0-2.6-0.9-3.9c-2.2-0.7-4.7,0.3-6.8-0.9
			c-4.5,2.4-6.6,2.3-10.5-1.2c-2.9-2.6-4.1-6.1-2.7-10C285.2,186.6,286.9,186.5,288.7,186.5z M129,186.9c-0.4,0.4-0.4,0.8,0,1.2
			c0,0.8,0.1,1.7,0.1,2.5c0.7,9.1,4.5,14.3,12.2,15.8c4.4,0.9,8.8,0.9,13.2-0.2c4.6-1.2,7.9-3.8,9.6-8.4c1-2.3,1.9-4.6,1.6-7.2
			c0.6-10.4,0.3-20.8,0.2-31.2c0-2.3,3.1-1.8,3.5-3.8c0.6,0.1,0.9-0.2,1.1-0.7c2-1.3,1.5-3.2,1.2-5.1c-7.1,0-14.1,0-21,0
			c-0.2,5.9,0.3,6.5,5.4,7.6c0.1,0.9,0.2,1.8,0.3,2.7c-0.6,6.3-0.1,12.7-0.3,19.1c-0.1,5,0.5,10.1-1,15l0,0
			c-0.5,0.7-1.9,1.3-0.5,2.4c-0.3-0.1-0.6-0.4-0.8-0.3c-9.4,4.3-14.6,1.1-15.3-8.3c0-2.7,0-5.4,0-8.1c0-7.4,0-14.8,0-21.4
			c1.7-1.8,4.4-0.7,4.1-3.4c2.7-1.2,1.5-3.3,1.6-5.2c-7.2,0-14.1,0-21.2,0c0.3,3-0.8,6.2,3.3,7c0.5,0.6,1.2,0.5,1.9,0.5
			c1,2.4-0.1,5.1,0.7,7.5C129,172.2,129,179.6,129,186.9z M200.4,204.2c0.1,0.7,0.4,1.2,1,1.2c4.2-0.1,8.5,0.3,12.7-0.2
			c0.6-1.6,0.4-3.1-0.1-4.5c-0.5-2.5-2.6-2.4-4.4-2.8c-0.1-1.2-0.2-2.4-0.3-3.6c0.4-8.3,0.9-16.7-0.4-25c-0.7-5-4.2-6.9-9.1-7.4
			c-5.3-0.5-8.7,2-12.1,5.1c-1.5-1.1-0.7-3.1-2.3-3.9c-3.9,0-7.9,0-11.9,0c-0.8,2.3-0.4,4.3,0.8,6c0.8,1.8,2.9,0.6,3.8,1.8
			c0.4,1.7,0.1,3.4,1,4.9c0,7.4-0.1,14.7-0.1,22.1c-2.3,0.4-4.8,0.5-5,3.7c0.4,1.3-1.7,3.5,1.4,3.8c4.2,0.8,8.5,0.4,12.9,0.3
			c0-11.1,0-21.6,0-31.9c6.3-5.6,10.1-5,11.9,1.8c0,1.8,0,3.5,0.1,5.3c-0.5,7.2-0.5,14.3,0,21.5
			C200.4,202.9,200.4,203.6,200.4,204.2z M342.4,146.9c-0.3,0-0.6-0.1-0.8-0.1c-4.2,0-8.5,0-12.6,0c-0.3,5.7-0.2,6,4.8,8
			c-0.3,2.8,0.4,5.7-0.4,8.5c-0.4,0.1-0.7,0.2-1,0.1c-0.4-0.1-0.7-0.4-1.1-0.7c-4-2.5-8-2.2-12,0.1c-5,2.4-6.7,6.9-7.5,11.9
			c-0.2,1.4-0.1,2.9-0.7,4.2c-0.5,4.5-0.5,8.9,0.1,13.4c-0.2,2.5,0.7,4.7,1.6,6.9c2.6,6.4,8.3,9,14.9,7.3c2.6-0.7,4.5-2.7,6.8-3.7
			c1.4,0.5,1.1,2.3,3.2,2.8c3.4-0.3,7.5,0.5,11.6-0.4c0.5-1.7,0.4-3.1-0.3-4.7c-1.7-1.2-3.4-2.4-5.3-3.7c-0.2-3-0.5-6-0.7-8.9
			c0-13.4,0-26.9,0-40.3C343.3,147,343,146.9,342.4,146.9z M233.1,162.9c-2.7,0-5.4,0-8,0c-1.2,0-2.4,0-3.6,0c-0.3,0-0.6,0-0.9,0.1
			c-2.2,2.5-0.5,4.5,0.7,6.5c1.2,1.2,3.1,0.2,4.4,1.4c0,8.8,0,17.7,0,26.7c-1.9,0.5-3.9,0.6-5.3,2.2c-0.7,1.4-1,2.8-0.7,4.3
			c0.1,1.3,1,1.3,1.9,1.3c6.5,0,12.9,0,19.8,0c-0.2-2.1,0.7-3.9-1.1-5.5c-1.6-0.9-3-2.5-5.2-2.2c0-10.3,0-20.7-0.1-31
			c0-1.2,1.1-3-1-3.8C233.7,163,233.4,162.9,233.1,162.9z M259.7,196.9c-0.2-1.6-0.5-3.2-0.5-4.8c-0.1-7.1-0.1-14.1-0.1-21.2
			c2.9-1.9,6.6,0.6,9.7-2c0.8-1.7,1.4-3.7,0.4-6.3c-3.3,0-6.5,0-10.2,0c0-4.6,0-8.8,0-12.8c-10-0.5-9.4,6.5-9.2,12.5
			c-2.6,0.8-4.9-0.2-6.7,1.2c-0.3,2-0.1,3.9,1.1,5.5c1.5,2.1,4.1,0.4,5.8,1.9c-0.1,8.6-0.3,17.3,0.2,25.9c0.1,3.9,0.8,7.7,4.8,9.1
			c5,1.8,10,1.4,14.7-1.2c-0.5-3-0.8-5.7-3.6-6.8C263.9,197.6,261.5,198.9,259.7,196.9z M263.3,219.7c-2.2,8.2-2.8,16.7-4.4,25
			c-0.8,4-0.8,8.3-2.7,13c-3.2-13-4.3-25.4-8.1-37.3c-2.8-0.3-5.3-0.4-8.1,0.2c-2.5,12.2-5.1,24.5-7.7,36.8
			c-0.3-0.1-0.5-0.1-0.8-0.2c-2-12.6-3.9-25.2-5.9-38.1c-4.6,1.3-8.8,1.6-13,0.2c-0.5,1.7-1.1,3-0.2,5.2c0.9,1.3,2.6,2.6,4.8,3.4
			c3,16.4,5.9,32.6,8.9,48.7c6.6,0.7,6.9,0.7,10.3-1.1c2.4-11.7,4.7-23.5,7.1-35.2c0.4,0,0.8,0,1.1,0c1.9,11.7,3.8,23.4,5.6,34.9
			c3.9,2.6,7.1,2.5,10.9-0.2c3.9-15.6,5.6-31.7,10-47.2c4.9-1.9,5.1-2.2,4.8-7.4C271.9,218.4,267.6,219.2,263.3,219.7z M307.6,291.9
			c3.4,3.7,8,2.3,12.1,2.9c3.3,0.5,5.5-1,7.3-3.2c1.7-2,2.8-4.5,3.6-7c3.6-12,7.3-23.9,10.9-35.9c0.7-2.3,1.4-4.5,2.1-6.6
			c1.4-0.8,2.9-0.7,4-2.2c0.5-1.6,1.5-3.4,0.2-5.7c-3.7-0.2-7.3-0.5-11.2,0.2c-2.6,9.9-5.2,19.8-7.8,29.6c-0.2,0-0.5-0.1-0.7-0.1
			c-2.7-9.9-5.3-19.7-8.1-29.9c-4.1,0.2-7.7-0.5-11.4,0.4c-0.7,2.3-0.4,4.3,1,6c1,1.2,3,0.7,3.6,1.8c3.2,10.6,6.1,21,9.6,31.1
			c1.5,4.4,2.2,8.3-0.8,12.3c-1.6,0.8-3.4,1.7-5.5,2.7c-2-1.8-4.4-2-7.1-1.6C309.1,288.4,307.3,289.4,307.6,291.9z M232.3,146.7
			c-5.2,0-7.7,2.2-7.5,6.3c0.2,3.5,2.8,5.9,6.1,5.6c3.8-0.3,5.3-3,4.7-8.7C234.4,149.3,233.4,148.1,232.3,146.7z"/>
		<path class="st12" d="M495.8,239.8c1.6,1.4,3,2.9,2.2,5.6c4.7-0.8,9-3.2,12.6,1.3c1,2.4-0.4,4.4-1.7,6.4
			c-8.9,13.1-20.8,22.1-35.8,27.3c-4.4,1.5-8.9,1.9-13.3,3.1c-4.4,0.1-8.8,0.2-13.2,0.2c-7.8-1.4-15.5-2.8-22.7-6.2
			c-5.6-2.7-10.9-5.8-15.7-9.8c-5.2-4.3-9.5-9.1-12.8-14.8c-2.8-4.9-2.3-6.6,2.5-9.4c2.2-1.3,4.4-2.4,6.6-3.7
			c12.4-7.3,24.4-6,36.4,1.2c4,2.4,7.2,6,11.9,7.2c6,2.8,12.6,3.3,18.7,5.9c-3.8-5.7-10.8-4.7-16.1-7.7c1.1-1.1,1.9-1.9,2.7-2.7
			c3.3-2.4,6.5-4.9,9.9-7.2c4.2-2.8,6-2.1,7.7,2.7c7.6-4.5,8-4.5,11.3-0.8c0.7,1.4-0.7,2.5-0.6,4.1c1.7-0.4,2.8-1.5,4.1-2.3
			C492.2,239.6,494,239.4,495.8,239.8z M457.2,266c-2.4-0.5-4.5-3.4-7.2-0.9c0.1-0.7,0.4-1.7-0.3-2c-5.3-2.5-10.5-5.2-16.8-4.6
			c5.5,2.7,10.9,5.7,17.2,6.6c0.2,2.3,2.3,1.8,3.6,2.6c3.6,1.4,3.6,1.4,6.1-0.9C458.9,266.5,458,266.2,457.2,266z M460.5,269.1
			c5.8,3.3,11.9,1.9,14.9-3.1c2.2-3.7,2-6.5-0.6-8.1c-0.7,0.5-0.7,1.2-0.8,2c-0.9,6.2-2.3,7.6-8.5,8
			C463.7,267.9,462.2,268.2,460.5,269.1z"/>
		<path class="st13" d="M399.1,234c0,0.4,0.1,0.9,0.1,1.3c-0.1,0.6-0.3,1.2-0.4,1.7l0.1,0c-0.6,0.1-1.1,0.3-1.4,0.9
			c-2.9,0.3-5,2.6-7.9,2.9c-10.6-20.3-6.7-54.9,17-75.9c25.1-22.1,63.2-25.5,92.2,0.9c24,21.9,26.4,56.2,14.9,77.3
			c-2.5,0-4.4-2-7-2.2c-0.8-0.1-2.4-1.4-3.4-2.5c0.7-0.6,0.5-1.4,0.6-2.1c3.5-4.2,3.7-9.4,4.3-14.4c0.5-4.5,0.5-8.9-0.1-13.4
			c0.2-2.4-0.5-4.7-1.1-7c-2.6-9.7-7.3-18.1-14.6-25.3c-4.1-4-8.3-7.6-13.1-10.4c-10.5-6.1-22.1-7.8-34-6.5
			c-5.1,0.5-10.2,1.8-15,3.9c-9,3.9-16.8,9.5-22.7,17.3c-5.8,7.6-10.7,15.8-10.6,25.9c-1.1,0.3-1,1.3-1.1,2.2
			c-0.7,5.3-0.7,10.6,0.4,15.9c0,2.5,0.9,4.9,1.7,7.2c-0.1,0.6,0.1,1.2,0.7,1.5C398.8,233.7,398.9,233.9,399.1,234z"/>
		<path class="st14" d="M499.9,237.2c-1.1-0.3-2.2-0.5-3.3-0.8c-0.7-0.9-2.3-0.7-2.8-2.4c0.2-0.8,0.5-2,0.9-3.1
			c3.3-8.5,3.5-17.1,1.4-25.8c-2.1-8.7-6.7-15.6-13.1-21.9c-6.9-6.7-14.7-10.9-24.1-12.1c-4.5-0.6-8.9-0.6-13.4,0
			c-14.9,1.9-25.5,10.2-33.1,22.8c-3.5,5.8-4.4,12.3-5,19.1c-0.5,6-0.2,11.4,1.9,16.9c0.9,3.8-3.8,2.8-4.2,5.6
			c-1.1-0.7-1.9-1.2-2.6-1.7c-0.3-1.3-0.6-2.6-1-3.9c-8.5-31,12.1-61.9,43.9-66.1c3.5-0.7,7-0.5,10.5-0.6c0.3,0.4,0.7,0.5,1.1,0.1
			c0.6,0.1,1.1,0.2,1.7,0.3c0.6,0.2,1.1,0.4,1.7,0.5c18.5,3.6,31.8,13.8,39.7,31c2.1,4.5,2.7,9.3,4.2,14c0.1,5,0.6,10-0.6,14.9
			C504.3,228.7,501.5,232.8,499.9,237.2z"/>
		<path class="st15" d="M486,206.7c-1-7.2-5.4-12.3-10.3-17.1c-4.8-4.7-10.6-7.5-17.1-8.8c-3.2-0.7-6.1,0.9-9.2,0.6
			c-7.5-0.7-13.7,2.3-19.4,7.1c-10.5,8.9-14.7,19.9-12.5,33.5c0.3,1.9,1.3,3.7,1,5.9c-1.4,0.7-2.8,1.4-4.3,2.1
			c-0.5-0.9-1.1-1.8-1.6-2.7c-0.3-3.4-1.3-6.7-1.3-10.2c0-15.4,5.7-27.6,18.9-36.1c5.1-3.3,10.8-4.9,16.5-6.4c3.5,0,6.9,0,10.4,0
			c0.7,0.2,1.4,0.5,2.1,0.6c15.1,3,25.7,11.6,31.4,26c4,10.2,3.2,20.4-0.4,30.5c-2.3,1.8-3.6-0.4-5.4-1c-0.1-2.5,1.8-4.4,1.6-6.8
			c0.1-0.1,0.2-0.3,0.1-0.5l-0.2-0.3C488.3,217.6,487.8,212.2,486,206.7z"/>
		<path class="st16" d="M446.4,219.4c-0.3-4.3-4.2-6.1-6.6-8.9c-3.2-3.8-7-7.2-10.5-10.7c-0.7-0.6-1.2-1.3-1.3-2.5
			c0.8-2.4,3-3.7,4.6-5.1c2.1-0.4,3,1,4,2.1c3.9,3.9,7.8,7.9,11.7,11.7c2.9,2.8,4.7,2.8,7.6,0c3.8-3.6,7.4-7.4,11.1-11
			c1-1,1.9-2.4,3.8-2.6c2.7,0.5,4.1,2.7,5.1,4.9c0.2,2.3-1.4,3.2-2.5,4.3c-4,4.1-8,8-12,12c-1.5,1.5-3,2.9-3.3,5.1
			c-0.1,0.8-0.2,1.5-0.3,2.3c-0.6,5-0.6,10,0,15c-0.1,0.5-0.2,1-0.3,1.5c-3.1,2.6-7.7,2.6-11,0C446.6,231.3,446.5,225.3,446.4,219.4
			z"/>
		<path class="st17" d="M504.5,208.9c-1.4-4.6-2.1-9.5-4.2-14c-7.9-17.3-21.2-27.4-39.7-31c-0.6-0.1-1.1-0.3-1.7-0.5
			c-0.3-0.5-0.3-1.3-1-1.3c-3.7-0.1-7.3-0.1-11,0c-0.9,0-1.2,0.8-1.3,1.5c-31.8,4.2-52.5,35.1-43.9,66.1c0.4,1.3,0.6,2.6,1,3.9
			c-1.1,0.5-2.3,1.3-3.6,0.4c-0.2-0.2-0.3-0.4-0.3-0.6c0-0.6-0.2-1.1-0.7-1.5c-0.9-2.3-1.7-4.7-1.7-7.2c1-0.7,0.8-1.8,0.8-2.9
			c0-5.1-0.1-10.2-0.1-15.2c-0.1-10.1,4.8-18.3,10.6-25.9c5.9-7.8,13.7-13.4,22.7-17.3c4.8-2.1,9.9-3.4,15-3.9
			c11.9-1.3,23.5,0.4,34,6.5c4.8,2.8,9,6.4,13.1,10.4c7.3,7.2,12,15.5,14.6,25.3c0.6,2.3,1.3,4.6,1.1,7c-1.2,4.5-1.4,8.9,0.1,13.4
			c-0.6,5-0.8,10.2-4.3,14.4c-1.3,0.2-2.7,0.5-4,0.7c1.5-4.4,4.4-8.4,4-13.4c0.8,0,1.6-0.4,1.6-1.2c0.1-4.6,0.1-9.2,0-13.8
			C505.5,208.4,504.8,208.5,504.5,208.9z"/>
		<path class="st17" d="M446.6,174.7c-5.7,1.5-11.4,3.1-16.5,6.4c-13.1,8.5-18.9,20.8-18.9,36.1c0,3.5,1,6.8,1.3,10.2
			c-1.2,0.6-2.6,1-3.1,2.4c-2.1-5.5-2.4-10.9-1.9-16.9c0.6-6.8,1.5-13.3,5-19.1c7.5-12.6,18.1-20.9,33.1-22.8
			c4.5,1.4,8.9,1.3,13.4,0c9.4,1.2,17.2,5.4,24.1,12.1c6.4,6.3,11.1,13.2,13.1,21.9c2.1,8.7,1.8,17.4-1.4,25.8
			c-0.4,1.1-0.7,2.2-0.9,3.1c0.5,1.7,2.1,1.5,2.8,2.4c-0.3,1.2-0.6,2.3-0.9,3.5c-1.8-0.4-3.6-0.3-5.4,0c1.8-1.5,2.5-3.5,2.6-5.6
			c-0.4-1.7-1.8-1.9-2.9-2.5c3.6-10.1,4.4-20.3,0.4-30.5c-5.7-14.4-16.2-23-31.4-26c-0.7-0.1-1.4-0.4-2.1-0.6c0.4-0.3,1.2-0.1,1-1
			c-3.5,0-7,0-10.5,0C446.9,173.6,445.9,173.5,446.6,174.7z"/>
		<path class="st18" d="M365,296.4c-0.1-0.9-0.2-1.8-0.2-2.7c0-52.6,0-105.2,0-157.8c0.8,0.1,1.5,0.4,1.7,1.2c0.1,1,0.1,2.1,0.1,3.1
			c0,50.5,0,101.1,0,151.6C366.6,293.5,367.7,295.7,365,296.4z"/>
		<path class="st10" d="M364.8,135.6c-1.1-0.1-2.1-0.2-3.2-0.3c-1.9-0.7-3.8-0.4-5.8-0.4c-79.9,0-159.7,0-239.6,0
			c-1.6,0-3.3,0-5.4,0c1.6-1.2,3-0.7,4.3-0.7c81.7,0,163.3,0,245,0C361.7,134.2,363.8,133.3,364.8,135.6z"/>
		<path class="st9" d="M110.4,298c83,0,166.1,0,249.1-0.1c1.8,0,3.6-0.1,5.4-0.1c-0.2,1-0.9,1.3-1.8,1.4c-0.6,0-1.1,0-1.7,0
			c-2.4,0-4.8,0-7.3,0c-4.7,0-9.5,0-14.2,0c-2.4,0-4.8,0-7.3,0c-2.4,0-4.7,0-7.1,0c-0.9,0-1.9,0-2.8,0c-0.6,0-1.1,0-1.7,0
			c-1.2,0-2.5,0-3.7,0c-6.8,0-13.7,0-20.5,0c-4.8,0-9.6,0-14.4,0c-2.4,0-4.7,0-7.1,0c-2.4,0-4.8,0-7.3,0c-2.4,0-4.7,0-7.1,0
			c-2.4,0-4.8,0-7.3,0c-9.5,0-19.1,0-28.6,0c-2.4,0-4.8,0-7.3,0c-2.4,0-4.7,0-7.1,0c-2.4,0-4.8,0-7.3,0c-2.4,0-4.7,0-7.1,0
			c-4.8,0-9.6,0-14.4,0c-21.5,0-43,0-64.4,0c-2.1,0-4.2,0-6.4,0c-0.3-0.1-0.6-0.1-0.9,0C110.3,298.8,110.3,298.4,110.4,298z"/>
		<path class="st16" d="M447.5,187.5c3.9-1.9,7.2-1.5,10.3,0.8c3.4,7.2,2.7,8.9-5.7,13.5C443.5,196.6,442.9,194.4,447.5,187.5z"/>
		<path class="st2" d="M537.8,130.6c0.1-0.3,0.2-0.6,0.6-1.8c0,58.9,0,116.8,0,174.7c-0.6,0-0.5-0.5-0.6-0.9c0-26.9,0-53.7,0-80.6
			c0-1.2,0-2.4,0-3.6C537.8,189.2,537.8,159.9,537.8,130.6z"/>
		<path class="st9" d="M109.7,136c0,53.7,0,107.5,0,161.2c-1-0.2-1.1-1-1.2-1.8c0-52.6,0-105.1,0-157.7
			C108.5,137,108.7,136.2,109.7,136z"/>
		<path class="st17" d="M108.4,137.8c0,52.6,0,105.1,0,157.7c-1.4-1.2-0.8-2.8-0.8-4.2c0-49.8,0-99.5,0-149.3
			C107.6,140.6,107.1,139,108.4,137.8z"/>
		<path class="st19" d="M525.3,286.6c4.6,0.9,6.2,4.9,3.1,8.3c-1.2,1.3-2.7,2.2-4.2,3.3c-2.3-1.7-4.8-2.9-5.9-6.1
			c1.3-1.2-0.1-4.1,2.7-4.8c0.3,0.2,0.6,0.5,0.9,0.7c0.3,0,0.6,0,0.9,0C523.8,288.1,525.1,288.4,525.3,286.6z"/>
		<path class="st3" d="M537.8,130.6c0,29.3,0,58.5,0,87.8c-1.3-1-0.8-2.5-0.8-3.7c0-26.8,0-53.5,0-80.3
			C537,133.1,536.6,131.6,537.8,130.6z"/>
		<path class="st3" d="M537.8,222.1c0,26.9,0,53.7,0,80.6c-1.3-1-0.8-2.5-0.8-3.7c0-24.4,0-48.8,0-73.1
			C537,224.5,536.6,223.1,537.8,222.1z"/>
		<path class="st20" d="M458,243.5c-0.8,0.8-1.7,1.6-2.7,2.7c5.3,3,12.3,2,16.1,7.7c-6.1-2.6-12.7-3.1-18.7-5.9
			C453.4,245.3,455,243.6,458,243.5z"/>
		<path class="st6" d="M117.5,299.2c21.5,0,43,0,64.4,0c-0.9,1.1-2.2,0.8-3.3,0.8c-19.3,0-38.5,0-57.8,0
			C119.7,300,118.4,300.3,117.5,299.2z"/>
		<path class="st6" d="M225.1,299.2c9.5,0,19.1,0,28.6,0c-0.6,0.8-1.5,0.8-2.4,0.8c-7.9,0-15.8,0-23.7,0
			C226.6,300,225.7,300,225.1,299.2z"/>
		<path class="st18" d="M486,206.7c1.8,5.4,2.3,10.9,0.2,16.4C485.7,217.7,485.7,212.2,486,206.7z"/>
		<path class="st6" d="M296.8,299.2c6.8,0,13.7,0,20.5,0c-5.4,1.8-10.9,0.4-16.3,0.8C299.6,300.1,298,300.5,296.8,299.2z"/>
		<path class="st9" d="M457.6,237.2c0.1-0.5,0.2-1,0.3-1.5c0.5-5,0.6-10,0-15c0.1-0.8,0.2-1.5,0.3-2.3c1.6,6,0.7,12,0.4,18
			C458.6,236.7,458,237,457.6,237.2z"/>
		<path class="st9" d="M446.4,219.4c0.1,6,0.1,11.9,0.2,17.9c-0.4-0.3-0.8-0.6-1.2-0.9c0-4.1,0-8.3,0-12.4
			C445.9,222.4,444.9,220.6,446.4,219.4z"/>
		<path class="st9" d="M446.7,283.7c4.4-0.1,8.8-0.2,13.2-0.2c-0.3,1-1.1,1.3-2.1,1.3c-4.3,0-8.7,0-13.2,0
			C445.2,283.7,446.1,284.2,446.7,283.7z"/>
		<path class="st6" d="M339.8,299.2c4.7,0,9.5,0,14.2,0C349.3,300.5,344.6,300.5,339.8,299.2z"/>
		<path class="st6" d="M445.5,223.9c0,4.1,0,8.3,0,12.4C444.2,232.2,444.2,228,445.5,223.9z"/>
		<path class="st6" d="M275.3,299.2c2.4,0,4.7,0,7.1,0C280,300.5,277.6,300.5,275.3,299.2z"/>
		<path class="st6" d="M325.5,299.2c2.4,0,4.7,0,7.1,0C330.2,300.5,327.8,300.5,325.5,299.2z"/>
		<path class="st6" d="M210.7,299.2c2.4,0,4.7,0,7.1,0C215.5,300.5,213.1,300.5,210.7,299.2z"/>
		<path class="st6" d="M196.4,299.2c2.4,0,4.7,0,7.1,0C201.1,300.5,198.8,300.5,196.4,299.2z"/>
		<path class="st6" d="M260.9,299.2c2.4,0,4.7,0,7.1,0C265.7,300.5,263.3,300.5,260.9,299.2z"/>
		<path class="st6" d="M525.3,286.6c-0.2,1.8-1.5,1.5-2.7,1.4C522.9,286.3,524.2,286.6,525.3,286.6z"/>
		<path class="st17" d="M398.8,237.1c0.1-0.6,0.3-1.2,0.4-1.7c0.6,0.1,1.1,0.2,1.7,0.2C400.9,237.3,399.8,237.1,398.8,237.1z"/>
		<path class="st6" d="M521.8,288c-0.3-0.2-0.6-0.5-0.9-0.7c0-0.4-0.1-0.9,0.7-1C521.7,286.9,521.7,287.4,521.8,288z"/>
		<path class="st6" d="M361.3,299.2c0.6,0,1.1,0,1.7,0C362.5,300.1,361.9,300.1,361.3,299.2z"/>
		<path class="st6" d="M321,299.2c0.6,0,1.1,0,1.7,0C322.1,300.1,321.6,300.1,321,299.2z"/>
		<path class="st17" d="M397.5,238c0.3-0.6,0.8-0.8,1.4-0.9C398.6,237.7,398.1,238,397.5,238z"/>
		<path class="st6" d="M110.3,299.2c0.3,0,0.6,0,0.9,0C110.8,299.7,110.6,299.6,110.3,299.2z"/>
		<path class="st18" d="M486.4,223.4c0,0.2,0,0.4-0.1,0.5c-0.2-0.1-0.4-0.2-0.6-0.4C485.8,223.1,486.1,223.3,486.4,223.4z"/>
		<path class="st21" d="M215.3,337.6c0.1-4.4,0.8-8.4,1.8-13.4c2,4.9,1.5,9,2.4,12.8C218.1,338.2,216.8,337.6,215.3,337.6z"/>
		<path class="st21" d="M152,323.8c0.6,4.4,1.1,8.8,1.7,13.2c-1.2,1.2-2.5,0.6-4,0.6C149.7,332.8,149.8,328.3,152,323.8z"/>
		<path class="st21" d="M266.5,318.2c0.8-0.8,0.6-2.3,2-2.7c1.6-0.7,2.1,0.9,3,1.6c0,9.5,0,19.1,0,28.6c-0.9,0.6-1.1,2.2-2.2,1.9
			c-2.1-0.4-2-2-2.7-3C266.5,335.8,266.5,327,266.5,318.2z"/>
		<path class="st9" d="M271.4,345.7c0-9.5,0-19.1,0-28.6c1.1,0.4,1.1,1.3,1.1,2.2c0,8.1,0,16.2,0,24.3
			C272.5,344.4,272.5,345.3,271.4,345.7z"/>
		<path class="st10" d="M266.5,318.2c0,8.8,0,17.6,0,26.4c-0.6,0.4-1.1,0.5-1.1-0.4c0-8.5,0-17.1,0-25.6c0-0.2,0.2-0.6,0.3-0.6
			C265.9,317.9,266.2,318.1,266.5,318.2z"/>
		<path class="st2" d="M336.3,350.1c0-11,0-22,0-32.9c0.1,0,0.3,0,0.4,0c0,11,0,21.9,0,32.9C336.6,350.1,336.5,350.1,336.3,350.1z"
			/>
		<path class="st22" d="M276.1,220.2c0.3,5.2,0.1,5.5-4.8,7.4c-4.4,15.5-6.1,31.5-10,47.2c-3.8,2.7-6.9,2.8-10.9,0.2
			c-1.9-11.5-3.7-23.2-5.6-34.9c-0.4,0-0.8,0-1.1,0c-2.4,11.7-4.8,23.5-7.1,35.2c-3.4,1.7-3.7,1.8-10.3,1.1
			c-2.9-16.1-5.9-32.3-8.9-48.7c-2.2-0.8-3.9-2.1-4.8-3.4c-1-2.1-0.3-3.5,0.2-5.2c4.1,1.4,8.3,1.2,13-0.2c2,12.9,4,25.5,5.9,38.1
			c0.3,0.1,0.5,0.1,0.8,0.2c2.6-12.3,5.1-24.6,7.7-36.8c2.8-0.6,5.3-0.4,8.1-0.2c3.8,11.9,4.9,24.3,8.1,37.3c1.9-4.7,1.9-8.9,2.7-13
			c1.6-8.3,2.3-16.8,4.4-25C267.5,221.1,271.8,219.8,276.1,220.2z"/>
		<path class="st8" d="M331.3,162.9c0.4,0.2,0.7,0.5,1.1,0.7c0.2,0.1,0.6-0.1,1-0.1c0.7-2.9,0.1-5.8,0.4-8.5c-5-2-5.1-2.3-4.8-8
			c4.2,0,8.4,0,12.6,0c0,14.9,0,29.8,0,45.1c1.3-1.5,0.3-3.1,1.4-4c0.2,3,0.5,5.9,0.7,8.9c1.8,1.3,3.6,2.5,5.3,3.7
			c0.7,1.6,0.8,3,0.3,4.7c-4.1,0.9-8.2,0.1-11.6,0.4c-2.1-0.5-1.9-2.2-3.2-2.8c-2.3,1-4.1,3-6.8,3.7c-6.7,1.7-12.3-0.9-14.9-7.3
			c-0.9-2.2-1.7-4.4-1.6-6.9c1.3-4.5,1.4-8.9-0.1-13.4c0.7-1.3,0.5-2.8,0.7-4.2c0.8-4.9,2.4-9.5,7.5-11.9
			C323.3,162.9,327.3,162.9,331.3,162.9z M333.5,195.9c0-8.2,0-16.5,0-24.7c-7.6-3.8-12.3-1.5-13.2,6.4c-0.5,4.6-0.5,9.2,0.1,13.8
			c0.4,2.9,1.1,6.1,4.5,7C328.2,199.4,331.1,198.7,333.5,195.9z M335.1,172.9c-0.1-0.1-0.3-0.1-0.4-0.2c0,7.5,0,14.9,0,22.4
			c0.1,0,0.3,0,0.4,0C335.1,187.7,335.1,180.3,335.1,172.9z"/>
		<path class="st4" d="M307.6,291.9c-0.3-2.5,1.5-3.6,2-5.3c2.7-0.4,5.1-0.2,7.1,1.6c2-1,3.9-1.9,5.5-2.7c3-4,2.3-7.9,0.8-12.3
			c-3.4-10.1-6.4-20.5-9.6-31.1c-0.7-1.1-2.6-0.6-3.6-1.8c-1.4-1.8-1.7-3.7-1-6c3.6-0.9,7.3-0.2,11.4-0.4c2.7,10.1,5.4,20,8.1,29.9
			c0.2,0,0.5,0.1,0.7,0.1c2.6-9.8,5.2-19.6,7.8-29.6c3.9-0.7,7.5-0.4,11.2-0.2c1.2,2.3,0.3,4.2-0.2,5.7c-1.2,1.5-2.7,1.4-4,2.2
			c-0.7,2.1-1.4,4.4-2.1,6.6c-3.7,12-7.3,23.9-10.9,35.9c-0.8,2.6-1.9,5-3.6,7c-1.9,2.2-4.1,3.7-7.3,3.2
			C315.6,294.2,311,295.6,307.6,291.9z"/>
		<path class="st8" d="M209.6,197.9c1.8,0.4,3.9,0.3,4.4,2.8c-0.4,1.1-0.8,2.1-1.3,3.5c-3.6,0-7.3,0-11,0c0-8.3,0.1-16.6,0-24.9
			c0-1.3,0.8-3.1-1.4-3.7c-1.8-6.8-5.6-7.5-11.9-1.8c0,10.3,0,20.8,0,31.9c-4.5,0.1-8.7,0.5-12.9-0.3c3.6-1,7.3,0.2,10.9-1.2
			c-3.7,0-7.4,0-10.8,0c-0.6-1.1-1.1-1.8-1.5-2.6c0.2-3.2,2.7-3.3,5-3.7c0.4-0.3,0.8-0.6,1.2-0.9c1.3-3,1.3-5.9,0-8.9
			c0-4.5,0-9,0-13.4c-0.2,0-0.4,0-0.6,0c-0.2,0.4-0.4,0.7-0.6,1.1c-0.8-1.5-0.5-3.2-1-4.9c-0.9-1.2-3.1,0-3.8-1.8
			c-1.2-1.7-1.6-3.7-0.8-6c4,0,8,0,11.9,0c1.6,0.8,0.9,2.9,2.3,3.9c3.4-3,6.9-5.6,12.1-5.1c4.9,0.5,8.4,2.4,9.1,7.4
			c1.2,8.3,0.8,16.7,0.4,25c-1.4-6.8,0.1-13.8-1.1-20.6c-0.3,7.5-0.3,15-0.3,22.5C208,197.2,208.7,197.6,209.6,197.9z"/>
		<path class="st8" d="M297.7,163.8c7.9,5.2,8,13.4,7.9,21.5c-6.2,0-12.3-0.1-18.5,0c-1.3,0-3.1-0.9-3.7,1.3c-1.4,4-0.2,7.4,2.7,10
			c3.8,3.5,5.9,3.6,10.5,1.2c2,1.2,4.5,0.2,6.8,0.9c0.9,1.2,1,2.5,0.9,3.9c-0.3,0.4-0.5,0.8-0.9,1c-5.5,3.4-11.5,4.2-17.6,2.8
			c-4.8-1-8.4-4.3-10-8.7c-3.9-10.2-3.7-20.3,2.2-29.9c1.1-1.8,2.4-3.4,4.5-4.1c2,0.3,3.8-0.1,5.7-0.7
			C291.2,162.1,294.6,163.2,297.7,163.8z M295.8,179c0.1-7.4-1.9-10.4-6.3-10.1c-4.2,0.3-6.5,4.3-5.8,10.1
			C287.7,179,291.6,179,295.8,179z"/>
		<path class="st23" d="M296.9,274.9c-0.4-0.4-0.8-0.8-1.4-1.5c-2.9,3.1-6.1,4.9-10.8,4.5c-6-0.6-9.3-2.8-10.7-8.9
			c-2.5-11,5.7-19.8,16.7-17.7c1.8,0.3,2.7-0.4,4-1.5c0-1.1,0.1-2.3,0-3.5c-0.4-4-2-5.4-6.1-5.5c-3.4-0.1-6.7,1.6-9.7,0.8
			c-2.1-1.3-1.8-3-2.1-4.5c5.8-4.8,15.7-5.7,21.8-2.4c2.6,1.4,3.9,3.5,4.3,6.2c-0.5,0.4-0.8,0.9-0.8,1.5c0,6.9,0,13.7,0,20.6
			c0,1,0.3,1.7,1.4,2c0.8,1.8,0.2,4.4,3.1,4.9c0.3,1.4,0.5,2.8,0.7,4C303.9,275.8,300.5,276.5,296.9,274.9z M287.6,271.2
			c2.8-0.8,5.6-1.5,7.1-4.5c-0.2-3.1,0.6-6.3-0.5-9.4c-3.8-0.8-6.9,0.5-9.9,1.9C281.3,265.7,281.8,267.8,287.6,271.2z"/>
		<path class="st23" d="M142.7,155.1c0.3,2.7-2.3,1.6-4.1,3.4c0,6.6,0,14,0,21.4c-1.4-6.8,0.1-13.8-1.1-20.6
			c-0.3,9.3-0.3,18.7-0.3,28c0,1.2,0.7,1,1.4,0.7c0.7,9.5,5.9,12.7,15.3,8.3c0.2-0.1,0.5,0.2,0.8,0.3c0.2-0.8,0.3-1.6,0.5-2.4
			c0,0,0,0,0,0c1.1,0.3,2.1-1.3,3.4,0.1c-0.9,0.9-1.9,1.8-1.4,3.6c0.6,1,1.3,2.3,2.1,3.6c0.8-0.9,1.5-1.7,2.3-2.3
			c0.8-0.6,1.8-1,2.7-1.4c-1.6,4.6-5,7.2-9.6,8.4c-4.4,1.1-8.9,1.1-13.2,0.2c-7.7-1.6-11.5-6.7-12.2-15.8c1.4-1.2,0.8-2.8,0.8-4.2
			c0.1-9.7,0-19.3,0-29c-0.1-0.6-0.1-1.4-1-1.5c-0.6,0.2-0.7,0.7-0.8,1.3c-0.7,0-1.4,0.1-1.9-0.5c0.3-1.7-1.6-3.3,0.1-5.6
			c4,0,8.5-0.1,12.9,0C141.5,151.4,142.8,152.7,142.7,155.1z"/>
		<path class="st20" d="M250,171c-1.6-1.5-4.3,0.1-5.8-1.9c-1.2-1.6-1.4-3.5-1.1-5.5c1.8-1.4,4.1-0.4,6.7-1.2
			c-0.2-6-0.8-13,9.2-12.5c0,4,0,8.2,0,12.8c3.7,0,6.9,0,10.2,0c1,2.6,0.4,4.6-0.4,6.3c-3.2,2.6-6.9,0.2-9.7,2
			c-0.3,0.5-0.8,1-0.8,1.5c-0.1,7.4-0.1,14.7-0.1,22.1c0,1.1,0.3,2,1.5,2.4c1.8,2,4.2,0.7,6.4,1.1c2.9,1.1,3.1,3.8,3.6,6.8
			c-4.7,2.6-9.7,3.1-14.7,1.2c-4-1.5-4.8-5.3-4.8-9.1c1.5-8.6,1.1-17.1,0.2-25.7C250.4,171.1,250.2,171,250,171z"/>
		<path class="st20" d="M235.1,197.8c2.2-0.3,3.6,1.2,5.2,2.2c-0.1,1.3,0.2,2.7-1,4.2c-6.4,0-13,0-19.6,0c-0.3-1.5-0.1-3,0.7-4.3
			c1.3-1.6,3.3-1.7,5.3-2.2c0-8.9,0-17.9,0-26.7c-1.3-1.2-3.2-0.2-4.4-1.4c-1.2-2-3-4-0.7-6.5c0.1,0.2,0.3,0.3,0.4,0.5
			c0.2-0.2,0.3-0.4,0.4-0.6c1.2,0,2.4,0,3.6,0c2.7,1.4,5.4,1.3,8,0c0.3,0,0.6,0,0.9,0c0,10.3,0,20.6,0,30.8
			C234.1,195.2,233.3,196.9,235.1,197.8z"/>
		<path class="st4" d="M164.2,197.8c-0.9,0.5-1.9,0.8-2.7,1.4c-0.8,0.6-1.4,1.4-2.3,2.3c-0.7-1.3-1.5-2.6-2.1-3.6
			c-0.5-1.8,0.5-2.7,1.4-3.6c-1.3-1.4-2.3,0.2-3.4-0.1c1.5-4.9,0.8-10,1-15c0.2-6.4-0.3-12.7,0.3-19.1c1.2,2.2,0.5,4.6,0.6,6.9
			c0.1,6.9,0,13.8,0,20.8c0.2,0,0.5,0,0.7,0c0.1-0.6,0.1-1.2,0.2-1.7c0.7-0.1,1.5-0.2,1.6-1.1c0.1-1.2-0.7-1.4-1.6-1.6
			c0-0.9,0-1.8,0-2.7c2.5-0.2,2.9-2.2,3.6-4.3c-1.1-1.4-0.7-3.3-1.5-4.9c-0.6-1.2,0.2-3.3-2.1-3.4c0-2.6,0-5.2,0-7.8
			c0-1.3,0.1-2.7-1.7-3c-5.1-1.1-5.6-1.7-5.4-7.6c6.9,0,13.9,0,21,0c0.3,1.9,0.9,3.8-1.2,5.1l-0.3-0.2c-0.1-1.1,0.4-2.4-1.2-3.5
			c-4.2,0-8.8,0-13.4,0c-2,0-3.5,0.6-3,3c1.7,0.7,1.6-1.8,3-1.4c0.5,0.5,0.3,1.5,1.8,1.7c0.9,0.2,0.8-2.1,1.9-1.8
			c3.4,1.6,6.6,2.9,10,2.9l0,0.1c-0.4,2-3.5,1.4-3.5,3.8c-0.1-0.4-0.3-0.8-0.4-1.3c-0.3-0.2-0.5-0.1-0.6,0.2c-0.9,0.6-0.9,1.2,0,1.8
			c0,9.3,0,18.5,0,27.8c-0.1,0.1-0.3,0.2-0.3,0.2c0.1,0.2,0.2,0.4,0.3,0.6c0.1,0.7,0.2,1.4,0.9,1.8
			C166.1,193.2,165.1,195.5,164.2,197.8z M162,189.8c-0.1-0.2-0.2-0.6-0.4-0.6c-0.2-0.1-0.6,0.1-0.7,0.3c-0.2,0.4,0,0.8,0.5,0.8
			C161.6,190.3,161.8,190,162,189.8z M160.2,157.6c-0.1-0.2-0.2-0.6-0.3-0.6c-0.2-0.1-0.6,0.1-0.7,0.2c-0.2,0.4,0,0.8,0.4,0.8
			C159.8,158,160,157.8,160.2,157.6z"/>
		<path class="st22" d="M232.3,146.7c1.1,1.3,2.1,2.5,3.4,3.2c0.6,5.7-0.9,8.4-4.7,8.7c-3.3,0.3-5.9-2.1-6.1-5.6
			C224.6,148.9,227.1,146.8,232.3,146.7z"/>
		<path class="st2" d="M343,188c-1.2,0.9-0.1,2.5-1.4,4c0-15.4,0-30.3,0-45.1c0.3,0,0.6,0.1,0.8,0.1c0.2,0.2,0.4,0.5,0.6,0.7
			C343,161.1,343,174.5,343,188z"/>
		<path class="st17" d="M142.7,155.1c0.1-2.4-1.2-3.7-3.4-3.8c-4.4-0.1-8.8,0-12.9,0c-1.7,2.3,0.2,3.8-0.1,5.6c-4.2-0.8-3-4-3.3-7
			c7.1,0,14,0,21.2,0C144.2,151.8,145.4,153.9,142.7,155.1z"/>
		<path class="st7" d="M219.7,204.1c6.6,0,13.3,0,19.6,0c1.2-1.5,0.8-2.9,1-4.2c1.8,1.5,0.8,3.4,1.1,5.5c-6.9,0-13.4,0-19.8,0
			C220.7,205.4,219.8,205.4,219.7,204.1z"/>
		<path class="st2" d="M138.6,188c-0.8,0.3-1.4,0.5-1.4-0.7c0-9.3,0-18.7,0.3-28c1.2,6.8-0.3,13.8,1.1,20.6
			C138.6,182.6,138.6,185.3,138.6,188z"/>
		<path class="st2" d="M200.3,175.5c2.2,0.5,1.4,2.4,1.4,3.7c0.1,8.3,0,16.6,0,24.9c-0.4,0-0.8,0.1-1.3,0.1c0-0.6-0.1-1.3-0.1-1.9
			c0.9-7.2,0.9-14.3,0-21.5C200.3,179,200.3,177.3,200.3,175.5z"/>
		<path class="st9" d="M235.1,197.8c-1.8-0.9-1.1-2.6-1.1-4c-0.1-10.3,0-20.6,0-30.8c2.1,0.8,1,2.5,1,3.8
			C235.2,177.1,235.1,187.4,235.1,197.8z"/>
		<path class="st2" d="M157.8,180.8c0,0.9,0,1.8,0,2.7c0,0.9,0,1.8,0,2.7c-0.1,0.6-0.1,1.2-0.2,1.7c-0.2,0-0.5,0-0.7,0
			c0-6.9,0.1-13.8,0-20.8c0-2.3,0.6-4.7-0.6-6.9c-0.1-0.9-0.2-1.8-0.3-2.7c1.8,0.3,1.7,1.6,1.7,3c0,2.6,0,5.2,0,7.8
			C157.8,172.4,157.8,176.6,157.8,180.8z"/>
		<path class="st9" d="M164.9,158.4c0.2-0.3,0.4-0.4,0.6-0.2c0.2,0.4,0.3,0.9,0.4,1.3c0.1,10.4,0.4,20.8-0.2,31.2
			c-0.8-0.4-0.8-1.1-0.9-1.8c0.1-0.3,0.1-0.6,0-0.9c0-9.3,0-18.5,0-27.8C164.9,159.6,164.9,159,164.9,158.4z"/>
		<path class="st9" d="M130,157.5c0,9.7,0,19.3,0,29c0,1.4,0.6,3-0.8,4.2c0-0.8-0.1-1.7-0.1-2.5c0-0.4,0-0.8,0-1.2
			c0-7.4,0-14.7,0-22.1C129.9,162.5,128.5,159.8,130,157.5z"/>
		<path class="st18" d="M296.9,274.9c3.6,1.7,7,0.9,10.5-1c-0.2-1.2-0.5-2.6-0.7-4c3,1.3,2.6,3.9,2.4,6.7c-3.6,0.7-7.3,0.3-10.9,0.3
			C297,276.8,296.9,275.8,296.9,274.9z"/>
		<path class="st9" d="M200.4,204.2c0.4,0,0.8-0.1,1.3-0.1c3.7,0,7.4,0,11,0c0.5-1.3,0.9-2.4,1.3-3.5c0.5,1.4,0.7,2.8,0.1,4.5
			c-4.2,0.5-8.4,0.2-12.7,0.2C200.8,205.4,200.5,204.9,200.4,204.2z"/>
		<path class="st2" d="M209.6,197.9c-0.9-0.3-1.6-0.7-1.6-1.8c0-7.5,0-15,0.3-22.5c1.2,6.9-0.3,13.8,1.1,20.6
			C209.5,195.4,209.5,196.6,209.6,197.9z"/>
		<path class="st18" d="M297.7,163.8c-3.2-0.6-6.5-1.7-9.6-0.7c-2,0.6-3.8,1-5.7,0.7C287.7,160.4,293.3,160.4,297.7,163.8z"/>
		<path class="st7" d="M283.4,186.6c0.6-2.2,2.4-1.2,3.7-1.3c6.2-0.1,12.3,0,18.5,0c0.2,0.5-0.1,0.9-0.6,1
			c-5.5-0.3-10.9-0.7-16.4,0.2C286.9,186.5,285.2,186.6,283.4,186.6z"/>
		<path class="st7" d="M303.5,265c-1.1-0.2-1.4-0.9-1.4-2c0-6.9,0-13.7,0-20.6c0-0.6,0.3-1.1,0.8-1.5c0.1,1.1,0.2,2.1,0.3,3.2
			c-0.4,6.1-0.8,12.2,0.2,18.3C303.4,263.2,303.5,264.1,303.5,265z"/>
		<path class="st9" d="M250,171c0.1,0.1,0.3,0.1,0.4,0.2c0.9,8.6,1.3,17.1-0.2,25.7C249.7,188.3,250,179.6,250,171z"/>
		<path class="st7" d="M259.7,196.9c-1.2-0.4-1.5-1.3-1.5-2.4c0-7.4,0-14.7,0.1-22.1c0-0.5,0.5-1,0.8-1.5c0,7.1,0,14.1,0.1,21.2
			C259.2,193.7,259.5,195.3,259.7,196.9z"/>
		<path class="st9" d="M180.3,196.9c-0.4,0.3-0.8,0.6-1.2,0.9c0-7.4,0.1-14.7,0.1-22.1c0.2-0.4,0.4-0.7,0.6-1.1c0.2,0,0.4,0,0.6,0
			c0,4.5,0,9,0,13.4C180.3,191,180.3,193.9,180.3,196.9z"/>
		<path class="st8" d="M200.3,180.8c0.9,7.2,0.9,14.3,0,21.5C199.9,195.1,199.9,188,200.3,180.8z"/>
		<path class="st20" d="M331.3,162.9c-4,0-8,0.1-12,0.1C323.3,160.7,327.3,160.4,331.3,162.9z"/>
		<path class="st23" d="M303.4,262.3c-0.9-6.1-0.6-12.2-0.2-18.3C304.1,250.2,303.8,256.3,303.4,262.3z"/>
		<path class="st8" d="M288.7,186.5c5.4-0.9,10.9-0.5,16.4-0.2C299.6,187.4,294.2,187,288.7,186.5z"/>
		<path class="st9" d="M174.1,201.5c0.4,0.8,0.9,1.5,1.5,2.6c3.4,0,7.1,0,10.8,0c-3.6,1.3-7.3,0.2-10.9,1.2
			C172.3,205,174.4,202.8,174.1,201.5z"/>
		<path class="st18" d="M276.1,220.2c-4.2-0.4-8.5,0.9-12.7-0.5C267.6,219.2,271.9,218.4,276.1,220.2z"/>
		<path class="st9" d="M311.1,179c1.5,4.5,1.4,8.9,0.1,13.4C310.6,187.9,310.7,183.5,311.1,179z"/>
		<path class="st17" d="M130,157.5c-1.6,2.3-0.1,5-1,7.3c-0.8-2.4,0.2-5.1-0.7-7.5c0-0.5,0.1-1.1,0.8-1.3
			C129.9,156.1,129.9,156.8,130,157.5z"/>
		<path class="st18" d="M233.1,162.9c-2.7,1.3-5.4,1.3-8,0C227.7,162.9,230.4,162.9,233.1,162.9z"/>
		<path class="st4" d="M155.1,194.3c-0.2,0.8-0.3,1.6-0.5,2.4C153.2,195.5,154.6,195,155.1,194.3z"/>
		<path class="st17" d="M129,186.9c0,0.4,0,0.8,0,1.2C128.6,187.7,128.6,187.3,129,186.9z"/>
		<path class="st18" d="M221.4,162.9c-0.1,0.2-0.3,0.4-0.4,0.6c-0.2-0.2-0.3-0.3-0.4-0.5C220.9,162.9,221.2,162.9,221.4,162.9z"/>
		<path class="st4" d="M170.6,155c-0.2,0.5-0.6,0.7-1.1,0.7c0,0,0-0.1,0-0.1c0.3-0.3,0.6-0.6,0.9-0.8
			C170.3,154.8,170.6,155,170.6,155z"/>
		<path class="st8" d="M343,147.7c-0.2-0.2-0.4-0.5-0.6-0.7C343,146.9,343.3,147,343,147.7z"/>
		<path class="st17" d="M460.5,269.1c1.7-0.9,3.3-1.2,5-1.3c6.1-0.3,7.6-1.7,8.5-8c0.1-0.7,0.1-1.5,0.8-2c2.6,1.7,2.8,4.4,0.6,8.1
			C472.3,271,466.2,272.3,460.5,269.1z"/>
		<path class="st20" d="M450.1,265c-6.2-0.9-11.7-3.8-17.2-6.6c6.2-0.6,11.5,2.1,16.8,4.6C450.4,263.4,450.1,264.4,450.1,265
			L450.1,265z"/>
		<path class="st20" d="M453.6,267.6c-1.3-0.8-3.4-0.4-3.6-2.6l-0.1,0.1c2.7-2.5,4.8,0.4,7.2,0.9
			C456.5,267.5,454.5,266.3,453.6,267.6z"/>
		<path class="st6" d="M453.6,267.6c0.8-1.3,2.8-0.2,3.6-1.7c0.8,0.3,1.7,0.5,2.6,0.8C457.3,269.1,457.3,269.1,453.6,267.6z"/>
		<path class="st18" d="M397.1,206.6c0,5.1,0.1,10.2,0.1,15.2c0,1,0.2,2.1-0.8,2.9c-1-5.3-1.1-10.6-0.4-15.9
			C396.1,207.9,396,206.9,397.1,206.6z"/>
		<path class="st9" d="M508.3,222c-1.5-4.4-1.3-8.9-0.1-13.4C508.8,213.1,508.7,217.6,508.3,222z"/>
		<path class="st1" d="M398.1,231.9c0.5,0.4,0.7,0.9,0.7,1.5C398.2,233.1,398,232.5,398.1,231.9z"/>
		<path class="st7" d="M504.5,208.9c0.3-0.3,1-0.5,1-0.1c0.1,4.6,0.1,9.2,0,13.8c0,0.9-0.8,1.2-1.6,1.2
			C505,218.8,504.6,213.8,504.5,208.9z"/>
		<path class="st9" d="M445.6,163.6c0.1-0.8,0.4-1.5,1.3-1.5c3.7,0,7.3,0,11,0c0.7,0,0.8,0.8,1,1.3c-0.6-0.1-1.1-0.2-1.7-0.3
			c-0.3-0.4-0.7-0.4-1.1-0.1C452.6,163.1,449.1,162.9,445.6,163.6z"/>
		<path class="st9" d="M459,171c-4.5,1.3-8.9,1.4-13.4,0C450,170.4,454.5,170.4,459,171z"/>
		<path class="st17" d="M456.1,163c0.4-0.3,0.8-0.3,1.1,0.1C456.8,163.5,456.4,163.4,456.1,163z"/>
		<path class="st9" d="M446.6,174.7c-0.8-1.2,0.2-1,0.9-1.1c3.5,0,7,0,10.5,0c0.2,0.9-0.6,0.7-1,1
			C453.6,174.7,450.1,174.7,446.6,174.7z"/>
		<path class="st1" d="M457.9,220.8c0.6,5,0.6,10,0,15C457.2,230.8,457.3,225.8,457.9,220.8z"/>
		<path class="st0" d="M333.5,195.9c-2.3,2.8-5.3,3.5-8.5,2.6c-3.5-0.9-4.1-4.1-4.5-7c-0.6-4.6-0.6-9.2-0.1-13.8
			c0.8-7.9,5.6-10.2,13.2-6.4C333.5,179.4,333.5,187.7,333.5,195.9z"/>
		<path class="st7" d="M335.1,172.9c0,7.4,0,14.8,0,22.2c-0.1,0-0.3,0-0.4,0c0-7.5,0-14.9,0-22.4C334.9,172.8,335,172.8,335.1,172.9
			z"/>
		<path class="st17" d="M180.3,196.9c0-3,0-5.9,0-8.9C181.6,191,181.6,193.9,180.3,196.9z"/>
		<path class="st13" d="M295.8,179c-4.2,0-8.1,0-12.1,0c-0.7-5.8,1.6-9.8,5.8-10.1C293.9,168.6,295.9,171.6,295.8,179z"/>
		<path class="st15" d="M287.6,271.2c-5.8-3.4-6.3-5.5-3.3-12c3-1.4,6.1-2.7,9.9-1.9c1.1,3.1,0.3,6.3,0.5,9.4
			C293.2,269.7,290.4,270.4,287.6,271.2z"/>
		<path class="st23" d="M170.3,154.8c-0.3,0.3-0.6,0.6-0.9,0.8c-3.5,0-6.6-1.3-10-2.9c-1.1-0.2-1,2.1-1.9,1.8
			c-1.5-0.2-1.3-1.2-1.8-1.7c-1.4-0.4-1.3,2.1-3,1.4c-0.4-2.4,1-3,3-3c4.6,0,9.2,0,13.4,0C170.7,152.4,170.3,153.6,170.3,154.8z"/>
		<path class="st23" d="M157.8,180.8c0-4.2,0-8.4,0-12.6c2.3,0.1,1.5,2.2,2.1,3.4c0.8,1.6,0.4,3.5,1.5,4.9
			C160.7,178.6,160.4,180.6,157.8,180.8z"/>
		<path class="st23" d="M157.8,186.2c0-0.9,0-1.8,0-2.7c0.9,0.1,1.8,0.4,1.6,1.6C159.3,186,158.6,186.1,157.8,186.2z"/>
		<path class="st23" d="M162,189.8c-0.2,0.2-0.4,0.4-0.5,0.4c-0.5,0-0.7-0.4-0.5-0.8c0.1-0.2,0.5-0.3,0.7-0.3
			C161.8,189.3,161.8,189.6,162,189.8z"/>
		<path class="st23" d="M160.2,157.6c-0.2,0.1-0.4,0.4-0.6,0.4c-0.5-0.1-0.7-0.4-0.4-0.8c0.1-0.2,0.5-0.3,0.7-0.2
			C160,157,160.1,157.4,160.2,157.6z"/>
		<path class="st23" d="M164.9,158.4c0,0.6,0,1.2,0,1.8C164,159.6,164,159,164.9,158.4z"/>
		<path class="st23" d="M164.9,188c0.1,0.3,0.1,0.6,0,0.9c-0.1-0.2-0.2-0.4-0.3-0.6C164.6,188.2,164.8,188.1,164.9,188z"/>
	</g>
</g>
</svg>
