<?xml version="1.0" encoding="utf-8"?>
<!-- Generator: Adobe Illustrator 24.1.1, SVG Export Plug-In . SVG Version: 6.00 Build 0)  -->
<svg version="1.1" id="Layer_1" xmlns="http://www.w3.org/2000/svg" xmlns:xlink="http://www.w3.org/1999/xlink" x="0px" y="0px"
	 viewBox="0 0 640 480" style="enable-background:new 0 0 640 480;" xml:space="preserve">
<style type="text/css">
	.st0{fill:#FEFEFE;}
	.st1{fill:#FEC601;}
	.st2{fill:#1F296A;}
	.st3{fill:#3D3E6A;}
	.st4{fill:#2F336B;}
	.st5{fill:#333767;}
	.st6{fill:#E1B221;}
	.st7{fill:#695C62;}
	.st8{fill:#E7B61B;}
	.st9{fill:#DDAF2D;}
	.st10{fill:#D2A734;}
	.st11{fill:#E8B718;}
	.st12{fill:#D6AA2B;}
	.st13{fill:#BB9746;}
	.st14{fill:#DAAD31;}
	.st15{fill:#D2A72F;}
	.st16{fill:#DAAC28;}
	.st17{fill:#E4B420;}
	.st18{fill:#E9B81A;}
	.st19{fill:#E5B522;}
	.st20{fill:#DFB023;}
	.st21{fill:#D2A83A;}
	.st22{fill:#D6AB32;}
	.st23{fill:#F0BD17;}
	.st24{fill:#E2B136;}
	.st25{fill:#59516B;}
	.st26{fill:#EEBA20;}
	.st27{fill:#DBAD2C;}
	.st28{fill:#D2A738;}
	.st29{fill:#DDAF2A;}
	.st30{fill:#F7C10D;}
	.st31{fill:#DBAD31;}
	.st32{fill:#DEB02A;}
	.st33{fill:#D9AC31;}
	.st34{fill:#EBB91D;}
	.st35{fill:#E8B724;}
	.st36{fill:#E3AC49;}
	.st37{fill:#D6AA38;}
	.st38{fill:#544C6C;}
	.st39{fill:#D2A744;}
	.st40{fill:#AD8E60;}
	.st41{fill:#FEC600;}
	.st42{fill:#E7B627;}
	.st43{fill:#EAB91E;}
	.st44{fill:#D1A73A;}
	.st45{fill:#FEB118;}
	.st46{fill:#E5BB44;}
	.st47{fill:#E7B61A;}
	.st48{fill:#C19C47;}
	.st49{fill:#C9A252;}
	.st50{fill:#EFBB16;}
	.st51{fill:#A7885C;}
	.st52{fill:#F2BE12;}
	.st53{fill:#D9AE3D;}
	.st54{fill:#DFB127;}
	.st55{fill:#F5BF12;}
	.st56{fill:#D2A642;}
	.st57{fill:#D2A73D;}
	.st58{fill:#A68964;}
	.st59{fill:#D6AA34;}
	.st60{fill:#C19D5C;}
	.st61{fill:#B79451;}
	.st62{fill:#DDAF25;}
	.st63{fill:#E0B122;}
	.st64{fill:#DDAF35;}
	.st65{fill:#E1B22E;}
	.st66{fill:#CFA63E;}
	.st67{fill:#B8965F;}
	.st68{fill:#E6B831;}
	.st69{fill:#F2C740;}
	.st70{fill:#F7C10E;}
	.st71{fill:#F4C00E;}
	.st72{fill:#D6AB38;}
	.st73{fill:#B09162;}
	.st74{fill:#E5B835;}
	.st75{fill:#FAB716;}
	.st76{fill:#DCAF35;}
	.st77{fill:#B09163;}
	.st78{fill:#AC8D62;}
	.st79{fill:#F0BC1A;}
	.st80{fill:#BC9752;}
	.st81{fill:#E5B527;}
	.st82{fill:#C89F4A;}
	.st83{fill:#F3AF26;}
	.st84{fill:#D7AB42;}
	.st85{fill:#A98A60;}
	.st86{fill:#D8AC30;}
	.st87{fill:#CBA133;}
	.st88{fill:#E7B622;}
	.st89{fill:#C9A036;}
	.st90{fill:#E5B51F;}
	.st91{fill:#A5875E;}
	.st92{fill:#D5AA34;}
	.st93{fill:#9E836A;}
	.st94{fill:#FECA16;}
	.st95{fill:#D2A737;}
	.st96{fill:#E5B526;}
	.st97{fill:#D5AA30;}
	.st98{fill:#D1A62E;}
	.st99{fill:#CBA13E;}
	.st100{fill:#2F346A;}
	.st101{fill:#E82625;}
	.st102{fill:#D7AB3B;}
	.st103{fill:#DFB744;}
	.st104{fill:#CFA547;}
	.st105{fill:#0C0D0D;}
	.st106{fill:#E82125;}
	.st107{fill:#131211;}
	.st108{fill:#482C23;}
	.st109{fill:#ECF2F1;}
	.st110{fill:#43416D;}
	.st111{fill:#ECF2F2;}
	.st112{fill:#EB2D2B;}
	.st113{fill:#E5DCC8;}
	.st114{fill:#FE7F5F;}
	.st115{fill:#EA2829;}
	.st116{fill:#F0E7D5;}
	.st117{fill:#FED55A;}
	.st118{fill:#9998BD;}
	.st119{fill:#EDEFEB;}
	.st120{fill:#B9B4B6;}
	.st121{fill:#ECECEB;}
	.st122{fill:#EBEFEF;}
	.st123{fill:#EB2D2C;}
	.st124{fill:#E92225;}
	.st125{fill:#E92426;}
	.st126{fill:#E82D2E;}
	.st127{fill:#F5F2EF;}
	.st128{fill:#EC302E;}
	.st129{fill:#DEDBDD;}
	.st130{fill:#EA2628;}
	.st131{fill:#F6AF97;}
	.st132{fill:#EDF1F0;}
	.st133{fill:#EB2A2A;}
	.st134{fill:#DED5D4;}
	.st135{fill:#F2F4F5;}
	.st136{fill:#6E6E9B;}
	.st137{fill:#4C394C;}
	.st138{fill:#FEB69C;}
	.st139{fill:#D9DEE5;}
	.st140{fill:#514674;}
	.st141{fill:#9A9B9C;}
	.st142{fill:#83777D;}
	.st143{fill:#78656E;}
	.st144{fill:#E82024;}
	.st145{fill:#BEBFD4;}
	.st146{fill:#DBDEE5;}
	.st147{fill:#A9AAC5;}
	.st148{fill:#FCFDFC;}
	.st149{fill:#ACAEC7;}
	.st150{fill:#BCBDD2;}
	.st151{fill:#C1C3D6;}
	.st152{fill:#DFE1E8;}
	.st153{fill:#B3B3CC;}
	.st154{fill:#BDBED3;}
	.st155{fill:#C3C5D7;}
	.st156{fill:#D0D2DF;}
	.st157{fill:#9090B5;}
	.st158{fill:#CACCDC;}
	.st159{fill:#A5A7C1;}
	.st160{fill:#FAFCFA;}
	.st161{fill:#BCBDD3;}
	.st162{fill:#676492;}
	.st163{fill:#E9EBF0;}
	.st164{fill:#C5C8D7;}
	.st165{fill:#D3D5DE;}
	.st166{fill:#CECFDD;}
	.st167{fill:#EBEFF2;}
	.st168{fill:#D6D8E4;}
	.st169{fill:#CACDDB;}
	.st170{fill:#9797B9;}
	.st171{fill:#D2D5DF;}
	.st172{fill:#AFB1C6;}
	.st173{fill:#C5C7D8;}
	.st174{fill:#CDD1DD;}
	.st175{fill:#BEC0D3;}
	.st176{fill:#ABACC6;}
	.st177{fill:#9F9FC0;}
	.st178{fill:#A5A5C3;}
	.st179{fill:#C7CAD7;}
	.st180{fill:#8888AE;}
	.st181{fill:#CED1DE;}
	.st182{fill:#CBCEDA;}
	.st183{fill:#D2D5E1;}
	.st184{fill:#9A9CB9;}
	.st185{fill:#A4A6C1;}
	.st186{fill:#8686AB;}
	.st187{fill:#999BB9;}
	.st188{fill:#ECF3F3;}
	.st189{fill:#79759A;}
	.st190{fill:#757095;}
	.st191{fill:#FACFBB;}
	.st192{fill:#FE7858;}
	.st193{fill:#FBFCFB;}
</style>
<g>
	<g>
		<path class="st0" d="M166.5,228.2c0-47.2,0-94.5,0-141.7c102.3,0,204.7,0,307,0c0,102.3,0,204.7,0,307c-47.2,0-94.5,0-141.7,0
			c0.2-4.7,4-3.7,6.7-4.1c68.6-9.7,121.2-61.7,128.9-129.5c7.2-63.9-17.3-114-71.8-147.5c-84.8-52.1-196.1-6-221.3,90.4
			c-1.7,6.4-3.5,12.8-4,19.5C170.3,224.8,170.7,228.2,166.5,228.2z"/>
		<path class="st0" d="M306.4,393.5c-46.6,0-93.3,0-139.9,0c0-46.6,0-93.3,0-139.9c4.7,0.2,3.6,4,4.1,6.7
			c9.9,60,43.1,101.1,100.1,122.3c9.3,3.5,19,5.8,29,6.8C302.3,389.8,306.2,388.8,306.4,393.5z"/>
		<path class="st1" d="M306.4,393.5c0-2.5-2-1.9-3.2-1.8c-9.1,0.6-17.5-2.8-26.1-4.8c-12.8-2.9-24-9.1-35.3-15.3
			c-8.8-4.8-17.1-10.6-24.4-17.4c-10.1-9.4-19.2-19.6-26.4-31.6c-6-9.9-11.1-20.1-15.2-30.9c-3.1-8.1-4.4-16.8-7.2-25.1
			c-1.1-3.3-0.1-7.2-0.3-10.8c0-0.8-1.1-1.6-1.7-2.3c0-8.5,0-17,0-25.4c0.6-0.8,1.8-1.6,1.7-2.3c-0.5-13.2,4.3-25.3,8.2-37.5
			c4.3-13.5,11.2-26,19.4-37.3c10.6-14.6,23.5-27.3,38.8-37.2c11.3-7.3,23.7-12.7,36.1-17.9c5.4-2.3,11.5-2.8,17.4-4.1
			c3.9-0.9,7.7-2.4,12-1.9c4.4,0.5,8.2-2.6,12.9-1.9c4.1,0.6,8.4,0.2,12.7,0.1c6.2,0,12,2.2,18.3,2.1c5.5-0.1,11.2,1.8,16.6,3.4
			c5.6,1.7,11,4.1,16.5,6c12.5,4.3,23,12,33.7,19.4c10.8,7.4,19.6,16.9,27.6,27.3c5.6,7.3,10.9,14.7,15.3,22.7
			c4.7,8.6,8.1,17.8,10.9,27.3c2.5,8.8,4.2,17.7,5.7,26.7c1.4,8.3,0.5,16.5,1.6,24.7c0.5,4.1-1.7,7.3-2,11.1
			c-0.3,3.4,1.7,7.3-1.7,10.1c0.6,6.5-1.6,12.6-3.8,18.4c-5,13.7-11.1,27-19.3,39.2c-7.9,11.7-17.3,22-27.9,31
			c-10.3,8.8-22.3,15.4-34.6,21.4c-9.2,4.4-19.3,5.9-28.2,10.7c-6.5-0.5-12.6,3-19.2,1.9c-1.2-0.2-3.2-0.7-3.2,1.8
			C323.3,393.5,314.9,393.5,306.4,393.5z"/>
		<path class="st2" d="M466.2,239.7c0,3.1,0,4.6,0,6.2c0.3,11.7-2.3,22.9-5.4,34.1c-3.1,10.8-6.9,21.3-12.7,31.1
			c-4.6,7.9-9.3,15.8-15.5,22.6c-3,3.2-5.2,7.2-8.4,10c-6.5,5.8-13.3,11.5-20.3,16.7c-7.5,5.6-15.7,9.8-24.3,13.6
			c-8.4,3.7-23.8,8.3-32.8,10.7c-5,1.4-9.9,0.8-14.7,1.7c-4.6,0.8-9.1,2.2-13.8,1.7c-3.7-0.5-7.3-1.4-11.1-1.7
			c-3.9-0.3-8.1,0.8-11.7-0.2c-10.3-3-20.9-4.9-30.7-9.1c-9.6-4-18.5-9.5-27.4-14.9c-13-8-23.1-18.9-32.7-30
			c-12.1-13.9-20.2-30.5-25.3-48.4c-2.7-9.3-4.5-18.8-5.9-28.5c-1-7.1-2-14.1-1.3-21.1c1-8.8,1.6-17.7,4.5-26.2
			c1.6-4.8,1.9-9.9,3.7-14.8c4.8-12.7,11.1-24.6,18.2-36c6.1-9.8,13.7-18.5,22.4-26.1c16.2-14.2,34.6-24.9,55.1-31.2
			c6.9-2.1,14.5-3.3,21.8-4.7c11.4-2.2,22.6-1.6,33.8-1.1c12.4,0.6,24.7,3.5,36.6,7.9c12.3,4.4,23.8,10.2,34.6,17.3
			c3.6,2.4,7.3,4.8,10.3,7.9c8,8.4,16.8,16,24,25.3c5.8,7.5,9.8,15.9,14.4,24.1c4.6,8.3,7.2,17.6,10.5,26.5
			c1.3,3.5-0.8,7.7,2.3,10.8C464.6,223.1,467.7,232,466.2,239.7z"/>
		<path class="st0" d="M370,135.5c1.4,0.3,3.5-0.9,3.6,1.8c1.1,0.9,2.3,1.7,3.5,2.5c1.4,0.3,2.6,1.1,3.8,1.9c0.7,0.2,1.3,0.5,1.8,1
			c1.1,0.9,2.3,1.6,3.3,2.6c0.8,0.7,1.4,1.5,2.4,1.9c0.7,0.1,1.3,0.3,1.9,0.6c0.7,0.7,1.5,1.4,2.2,2.1c0.9,1,1.8,1.9,2.8,2.8
			c0.7,0.6,1.3,1.4,2,2c0.7,0.6,1.3,1.3,2,2c0.6,0.6,1.2,1.3,1.9,1.9c0.6,0.6,1.2,1.3,1.9,1.9c0.6,0.6,1.2,1.3,1.9,1.8
			c0.6,0.6,1.2,1.2,1.8,1.8c0.5,0.7,1.2,1.3,1.8,1.9c0.6,0.6,1.2,1.2,1.8,1.8c0.6,0.6,0.8,1.5,1.4,2.1c0.7,0.8,1.1,1.9,1.8,2.7
			c0.7,0.8,1.1,1.9,1.8,2.7c0.9,1.1,1.4,2.4,2.3,3.5c0.4,1.4,1,2.7,2.1,3.6c0.8,0.8,1.5,1.6,1.9,2.7c1,2.9,3.1,5.4,3.6,8.4
			c0.7,2.7,1.9,5.3,3.5,7.6c0.1,3,1.5,5.8,2,8.7c0,0.9,0.3,1.8,0.7,2.6c1.3,6,2.9,11.9,2.9,18c0,5.4,0,10.8,0,16.2
			c0.2,3.4,0,6.7-1.5,9.8c-0.5,1.8-0.3,3.6-0.3,5.4c-0.2,2.6-1.3,5-1.9,7.5c-1.2,3.2-2.2,6.3-3.4,9.5c-0.2,1.2,0,2.5-1,3.5
			c-1.2,2-1.6,4.3-2.8,6.3c-1.3,2.8-2.6,5.7-4.4,8.3c-1,1.2-1.9,2.5-2.7,3.9c-0.1,0.8-0.4,1.5-0.9,2.2c-1.2,1.1-2.3,2.4-3.6,3.4
			c-0.9,0.2-1.7,0.2-2.6-0.1c-9.8-6.5-13.5-15.8-11.6-27.2c1-6,5.4-11.8,1.2-18.1c-5.2-7.9-11.4-14.8-20.2-18.8
			c-3.6-1.6-7.4-2.4-11-4.2c-4.9-2.4-9.9-4.7-11.4-10.7c1.4-10,3.1-20,4.2-30.6c-5.6-2-11.5-0.6-17.3-1c-4.7-0.3-9.7,0.2-13.4-3.8
			c-0.5-0.7-0.8-1.5-0.9-2.4c-0.1-1.7,0.6-3.3,1.4-4.8c0.5-1.1,1.1-2.1,1.7-3.2c0.4-0.7,0.9-1.4,1.4-2c0.9-0.8,2-1.4,3.2-1.7
			c8.4-4.5,9.5-13.3,12.6-20.9c0.3-0.7,0.7-1.4,1.1-2.1c0.6-1,1.1-2,1.5-3c0.5-1.4,1.2-2.7,2-3.9c0.5-0.9,1.1-1.7,1.5-2.7
			c0.3-1,0.6-1.9,1-2.8c0.4-0.9,0.9-1.8,1.3-2.7c0.2-0.6,0.5-1.3,0.8-1.9c0.5-1.3,1-2.7,1.7-4c0.8-1,1.7-1.5,3-1.4
			c1.2,0,2.4,0,3.3,0.9C367.3,134.9,369,134.4,370,135.5z"/>
		<path class="st3" d="M359.1,355.4c0.6,0,1.2,0,1.8,0c0.7,0.6,1.7,0.7,2.4,1.4c0.4,0.5,0.7,1,0.9,1.6c0.4,0.8,0.9,1.6,1.3,2.4
			c0.3,0.5,0.6,1.1,0.9,1.7c0.5,0.8,0.9,1.6,1.4,2.4c0.3,0.5,0.7,1,1.3,1.3c0,0,0.9,0.1,0.9,0.1c3.4,0.7,1.5,3.1,1.5,4.7
			c-2.4,0.9-4.7,1.7-7,2.6c-1.3-2-3.1-0.8-4.8-0.9c-1.5-0.1-3.1,0.6-4.6-0.4c-0.8-0.9-1.2-2-1.3-3.2c0-0.7,0.2-1.4,0.4-2.1
			c0.2-0.6,0.6-0.9,1.2-1.1c-0.4-0.4-0.9-0.6-1.6-0.6c-0.6-0.3-1.1-0.8-1.4-1.4c-0.4-1.1-0.4-2.2-0.2-3.4
			C353.6,357.4,357,357.2,359.1,355.4z"/>
		<path class="st4" d="M413.6,337.2c0,0.6,0,1.2,0,1.8c-2,1.6-1.9,4.3-3.6,6.1c-0.9,0.9-1.8,1.8-3.2,2.1c-7.3,0.3-10-3.3-9-10.2
			c0.9-1.9,2.2-3.4,4-4.5c1-0.5,2-0.7,3-1.2c0.6-0.4,1.1-0.8,1.5-1.3C411.3,329.8,413.7,332.2,413.6,337.2z"/>
		<path class="st5" d="M257.3,366.3c-0.6-0.8-1.2-1.6-1.8-2.2c-0.5-0.5-1.2-0.9-1.8-1.4c-1.8-1.5-4-2.5-5.6-3.6
			c-1.4-2.5-0.4-4.2,1.1-5.8c3.2-0.5,3.7-2.8,3.4-5.5c0.5-1.3,1.3-2.1,2.7-2.3c3.2,0.3,4.9,3.2,7.5,4.5c2.1,2.1,0.7,4.2-0.1,6.2
			c-0.4,0.9-1,1.8-1.5,2.8c-0.3,0.6-0.6,1.2-0.9,1.7c-0.4,0.8-1,1.6-1.2,2.5c-0.1,0.6-0.3,1.2-0.6,1.7
			C258.2,365.4,257.8,365.9,257.3,366.3z"/>
		<path class="st6" d="M340.9,353.5c0,2.4-1.9,1.7-3.2,1.8c-5.1,0.4-10.2-0.6-15.4,1.5c-2.4,1-5.9,0.9-9.3-0.8
			c-2.9-1.4-6.9-0.6-10.3-0.7c0-3.8,3.1-3.5,5.4-4.2c6.4-0.4,12.8,0,19.2-0.3c1.4-0.2,2.8-0.4,4.1-0.6c2.3-0.4,4.6-0.6,6.8,0.2
			C339.7,351.1,340.6,352.1,340.9,353.5z"/>
		<path class="st7" d="M337.3,362.6c1.2-1.2,2.4-2.4,3.6-3.6c0.9,0.7,1.9,1.3,2.8,2.1c1,0.6,1.8,0.5,2.7-0.3
			c0.6-0.6,1.2-1.2,1.8-1.8c0.3-0.2,0.7-0.5,1-0.7c0.8,0.2,1.4,0.7,1.9,1.4c0.5,3.1,1.9,6.1,1.5,9.3c-0.3,0.3-0.5,0.6-0.8,0.9
			c-0.6,0.6-1.2,1.2-1.8,1.8c-3.9,0.2-6.5-2.7-9.8-3.9C338.1,366.7,338.7,364.1,337.3,362.6z"/>
		<path class="st8" d="M413.6,337.2c-2.4-2.4-4.8-4.8-7.3-7.3c0.6-1.8,1.2-3.6,1.8-5.4c0.6-0.6,1.2-0.6,1.8,0
			c0.6,1.8,1.1,3.6,1.7,5.3c3.1-0.4,3.6-4.8,7.4-2.8c-1.3,1.5-2.5,2.9-3.7,4.3c0.9,2.8,2.4,4.6,5.6,4.1c-0.9,1.3-1.8,2.5-2.9,4.1
			C416.3,338.6,414.9,337.9,413.6,337.2z"/>
		<path class="st9" d="M250.1,353.5c-0.6,1.2-1.3,2.4-1.9,3.5c1.9,1.9,3.7,3.7,5.5,5.5c-3.7,0.1-6.2-2.4-8.9-3.9
			c-1.1-5.7,3.2-8.6,5.2-12.5c1.3-0.9,0.5-2.8,1.8-3.6c1.4,0.3,3.5-0.9,3.6,1.8c0.6,0.4,0.8,0.8,0.6,1.2c-0.2,0.4-0.4,0.6-0.6,0.6
			c-0.6,0.6-1.2,1.2-1.8,1.8C252.5,349.9,252.6,352.6,250.1,353.5z"/>
		<path class="st10" d="M273.7,366.3c0.6-0.6,1.2-1.2,1.8-1.8c0.5-0.4,1.1-0.6,1.7-0.8c0.6-0.2,1-0.6,1.2-1.3
			c0.1-0.6,0.3-1.2,0.8-1.6c1.2-1.4,2.4-2.8,4.5-5.1c1.6,5.6,0.6,10,0.9,14.2c-1.7,1.4-0.2,4-1.8,5.4c-2.4,0-1.6-1.9-1.8-3.1
			c-0.6-2.9-2.3-4.5-5.4-4.1C275,367.4,273.8,367.4,273.7,366.3z"/>
		<path class="st11" d="M204.6,259.1c-2.4,0-1.7-1.8-1.8-3.1c-0.4-5.1,1.2-10.4-1.7-15.3c-0.6-1.1-0.7-3.6,0.1-4.2
			c2.8-2.5,1.2-5.5,1.7-8.3c4.9,0.6,3.5,4.7,4.3,7.6c0.3,1.9,0.5,3.7,0.4,5.6c-0.7,4.6-0.3,9.3-0.9,14
			C206.4,256.8,205.8,258.1,204.6,259.1z"/>
		<path class="st12" d="M397.2,349.9c0.7,1.5,1.4,2.9,2.7,5.6c-2.3-0.6-4-0.5-4.6-1.3c-2.4-3-4.5-6.3-6.9-9.8c-0.3,0-1.2,0-2.1,0
			c-0.6,0.9-1.2,0.9-1.8,0c1.8-1.3,3.6-2.7,5.5-4.1c1.4,1.6,2.5,2.9,3.6,4.1c1.1,0.1,1.9,0.7,2.6,1.6c0.6,0.9,0.9,1.8,1,2.9
			C397.2,349.2,397.2,349.6,397.2,349.9z"/>
		<path class="st13" d="M364.5,353.5c1-3.5,3.9-1,6.5-2.2c0.9-0.8,2.3-2.1,4-3.6c2.7,1.1,4.6,3.1,5.8,5.8c-0.2,1-0.8,1.6-1.8,1.8
			c-1.6,0.2-3.8-0.8-3.7,2.2c0,0.5-1.1,0.9-1.7,1.4c-0.3-0.2-0.6-0.4-0.8-0.5c-0.7-0.7-1.4-1.3-2.3-1.8c-0.6-0.2-1.2-0.3-1.9-0.5
			c-1-0.3-1.9-0.6-2.8-1.2C365.2,354.7,364.8,354.1,364.5,353.5z"/>
		<path class="st14" d="M204.6,237.3c0-2.3,0.2-4.6-0.1-6.9c-0.1-0.8-1.1-1.5-1.7-2.2c-0.9-6.1,2.4-11.6,2.2-17.6
			c0-0.2,0.9-0.4,1.4-0.6c1.5,0.4,2.4,1.4,2.7,3c0.1,4.3-0.5,8.5-0.2,12.8C208.3,229.9,210.8,235.2,204.6,237.3z"/>
		<path class="st15" d="M333.6,113.7c-1.2-0.8-2.4-1.6-3.5-2.4c0-1.9,0-3.7,0-6c1.9-1.6,4.2-3.4,7.3-5.9c0.4,0,2.8-1.9,3.5,1.5
			c0.6,0.4,0.8,0.8,0.6,1.2c-0.2,0.4-0.4,0.6-0.6,0.6c-1.4,0-2.9,0-4.3,0c-2.6,3.4-4.5,6.9-1.1,10.9
			C334.8,114.4,334.2,114.4,333.6,113.7z"/>
		<path class="st16" d="M399,335.4c0,2,0,4,0,6.5c1.6,1.2,3.4,2.6,5.7,4.4c0.5,0,2,0,3.4,0c0.6-0.7,1.2-0.7,1.8,0
			c-0.2,2.7-2.3,1.5-3.6,1.8c-1.8,1.2-3.6,1.2-5.4,0c-0.6,0-1.2,0-1.8,0c-0.4-0.1-0.7-0.2-1.1-0.2c-0.6-0.4-1.1-0.9-1.5-1.5
			c-0.6-1.2-2.4-2-1.1-3.7c0-1.7-0.2-3.5,0.1-5.1c0.1-0.8,1.1-1.4,1.7-2.1c0.3-0.2,0.6-0.5,0.9-0.7
			C398.4,334.9,398.7,335.1,399,335.4z"/>
		<path class="st9" d="M230.1,335.4c-1.8,0.7-4.6-1.7-5.4,1.8c-1.3,0.9-0.5,2.8-1.8,3.6c-1.3-1-2.6-1.9-4.3-3.1
			c2.9-3.5,5.4-6.5,7.9-9.6c0.2-0.3,0.5-0.5,0.7-0.8c0.4,0,0.7,0.1,1.1,0.1c0.7,0.3,1.2,0.8,1.6,1.4c0.1,0.4,0.2,0.7,0.3,1.1
			C230.1,331.7,230.1,333.6,230.1,335.4z"/>
		<path class="st17" d="M270,351.7c1.4,1.9,2.8,3.8,4.4,6.1c-2.4,1.5-4.3,2.7-6.2,3.9c0,0.8,0,1.7,0,2.6c-1.2,0.9-0.5,2.8-1.8,3.6
			c-0.6-0.7-1.6-1.4-1.7-2.1c-0.3-1.7-0.1-3.4-0.1-5.1c-0.2-0.3-0.5-0.6-0.7-0.9c0.1-0.8,0.4-1.5,0.9-2.1
			C267.8,356.9,265.8,351.6,270,351.7z"/>
		<path class="st18" d="M293.7,368.1c-1.2,0.6-2.4,1.2-3.6,1.8c-0.6,0.9-1.2,0.9-1.8,0c-0.7-4.1,2.2-7.2,2.5-12.7
			c3,3.7,4.9,5.8,4.7,9.1C296.1,368.1,295.3,368.5,293.7,368.1z"/>
		<path class="st19" d="M370,124.6c-3.5-1-2.2-4.6-1.6-5.7c1.8-2.9,2-6.8,5.2-8.9c0.5,0.7,1.2,1.2,1.8,1.8c-0.8,2.3-1.6,4.6-2.4,7
			c-0.4,1.3-0.8,2.6-1.2,3.9c-0.4,0.4-0.8,0.9-1,1.5C370.8,124.4,370,124.6,370,124.6z"/>
		<path class="st20" d="M388.1,122.8c0-0.6,0-1.2,0-1.8c0.7-0.5,1.2-1.2,1.8-1.8c0.4-0.5,0.8-1,1.2-1.5c0.2,0.5,0.4,1,0.6,1.5
			c1.1,1,0.6,2.7,1.8,3.6c0,2.4,0,4.8,0,7.3c1.2,0.9,3,1.5,1.8,3.6c0,0.6,0,1.2,0,1.8c-0.6,0.6-1.3,1.2-1.8,1.8
			c-0.6,0.5-1.2,0.5-1.8,0c0-1.2,0-2.4,0-3.6c-2-2.2,0.3-5.5-1.9-7.7c-0.7-0.3-1.4-0.7-2-1.1C387.4,124.1,387.5,123.4,388.1,122.8z"
			/>
		<path class="st21" d="M308.2,353.5c-1.8,0.7-4.6-1.7-5.4,1.8c-2.8-0.1-11.2-2.5-12.7-3.6c0.4-1.5,1.4-2.5,3-3
			C298.2,349.9,304.9,346.4,308.2,353.5z"/>
		<path class="st22" d="M351.8,117.4c-0.6-0.7-1.2-1.5-1.8-2.2c-0.5-0.7-0.9-1.4-1.5-2.1c2.4-2.3,0.4-7.4,5.1-8.4
			c0.7,0.5,1.4,1,2.1,1.5c0.2,0.4,0.3,0.8,0.5,1.2c-0.1,3.5-0.1,7-2.1,10.1C353.3,118,352.5,118,351.8,117.4z"/>
		<path class="st23" d="M277.3,108.3c0.6,3,1.2,6.1,1.8,9.1c0,0-0.2,0.7-0.2,0.7c-0.2,0.4-0.6,0.7-1,1c0,0-0.7,0.1-0.7,0.1
			c-1.2-0.8-2.3-1.6-3.5-2.3c0-2.7,0-5.3,0-8c1.2-0.8,2.3-1.6,3.5-2.3c0.2,0.3,0.5,0.6,0.7,0.9C277.8,107.7,277.6,108,277.3,108.3z"
			/>
		<path class="st24" d="M364.5,115.6c0,0.6,0,1.2,0,1.8c-0.6,0.6-1.3,1.2-1.8,1.8c-2.2,1.1-4.3,2.2-6.4,3.3c-0.7-0.4-1.7-1-2.6-1.5
			c-0.2-0.3-0.5-0.7-0.7-1c0.2-0.8,0.7-1.4,1.4-1.8c1.5-1.2,3.3-1.8,4.7-3.1c0.7-0.8,1.2-1.7,1.5-2.7c0.3-1.4,0.4-2.8,0.8-4.2
			c0.3-0.7,0.7-1.3,1.4-1.7c2.7,0.2,1.5,2.3,1.8,3.6C365.8,111.9,365.8,113.7,364.5,115.6z"/>
		<path class="st25" d="M304.6,375.3c0.5-0.6,0.9-1.3,1.4-1.8c0.7-0.7,1.5-1.2,2.2-1.8c0.4-0.6,1-0.9,1.7-1.1c0.7,0,1.4,0.2,2,0.5
			c0.5,0.5,0.9,1,1.3,1.6c0.7,1.2,1.2,2.4,1.2,3.7c-0.3,0.5-0.6,1.1-0.8,1.6c0,0.3,0.1,0.6,0.1,0.9c-2.3,2.5-5,2.5-7.3,0
			c0.6-0.6,1.6-1.1,0.6-2.2C306.3,376.1,305.3,376,304.6,375.3z"/>
		<path class="st26" d="M259.1,360.8c0-0.6,0-1.2,0-1.8c0.7-0.5,1.2-1.3,1.8-1.8c0.2-1.1,0.3-2.2,0.6-3.3c0.3-1.3,0.8-2.6,1.2-4
			c0.6,0,1.2,0,1.8,0c0.9,0.8,2.1,1.2,2.5,2.5c0.2,2.6-0.5,4.8-2.5,6.6c-0.5,0.7-1.1,1.3-1.8,1.8c-0.6,0.6-1.2,1.2-1.8,1.8
			c0,0.6,0,1.2,0,1.8c-1.2,1-2.4,1.1-3.6,0c0-0.6,0-1.2,0-1.8C258,362.1,258.5,361.4,259.1,360.8z"/>
		<path class="st27" d="M251.9,126.5c1.9,1,3.9,2,5.7,3.1c0.5,0.3,0.8,0.8,1.7,1.7c-1,0.5-2,1-3.2,1.5c-1.9-1.4-4.9-0.8-7.9-0.8
			c-0.5,0.6-1,0.8-1.8,0.6c-0.2-0.3-0.4-0.5-0.7-0.8c0-0.3-0.1-0.7-0.1-1c0.2-0.7,0.6-1.2,1.1-1.6c0.5-0.4,1.1-0.7,1.6-1
			c0.3-0.2,0.5-0.3,0.8-0.5c0.5-0.4,1.1-0.7,1.7-0.9C251.2,126.6,251.6,126.5,251.9,126.5z"/>
		<path class="st28" d="M241,142.8c-1.2,1.2-2.4,2.4-3.6,3.6c-0.6-0.7-1.2-0.7-1.8,0c-1.8-2.4-3.6-4.8-5.4-7.3c0,0,0.2-0.7,0.2-0.7
			c0.2-0.4,0.6-0.7,1-1c0,0,0.7-0.2,0.7-0.2c1.2,0,2.4,0,3.6,0c0,1.7,0,3.3,0,5.4C237.6,142.8,239.3,142.8,241,142.8z"/>
		<path class="st24" d="M382.7,355.4c1.1,0,2.2,0,2.6,0c-0.3-3.3-0.6-6.2-0.8-9.1c0.6-0.6,1.2-0.6,1.8,0c3,3.9,1.5,8.4,1.8,12.7
			c-1.2,1.1-2.4,1-3.6,0c-0.7-0.7-1.8-1-2.4-1.8c0-0.3,0-0.7-0.1-1C382.2,355.9,382.5,355.6,382.7,355.4z"/>
		<path class="st29" d="M242.8,339c0-0.6,0-1.2,0-1.8c0.6-0.8,1.2-0.8,1.8,0c0.6,0.6,1.2,1.2,1.8,1.8c0.6,0.4,0.8,0.8,0.6,1.2
			c-0.2,0.4-0.4,0.6-0.6,0.6c-1.2,1.4-2.4,2.8-3.6,4.1c-1.1,1.1-2.4,2.1-3.6,3.2c0,0-0.7-0.2-0.7-0.2c-0.4-0.2-0.7-0.6-1-1
			c0,0-0.2-0.7-0.2-0.7c1.2-1.8,2.4-3.6,3.6-5.4C241.6,340.2,242.2,339.6,242.8,339z"/>
		<path class="st30" d="M433.5,230c-1.7-6-1-12.4-3.6-18.2c0.6-0.9,1.2-0.9,1.8,0c0.5,0.2,1.5,0.4,1.4,0.6c-0.2,6,3.1,11.5,2.2,17.6
			C434.7,230.8,434.1,230.8,433.5,230z"/>
		<path class="st31" d="M340.9,366.3c3,1.8,6.1,3.6,9.1,5.4c-0.4,4.1-1.4,5.1-5.4,5.4c-0.5-0.4-0.6-0.8-0.5-1.2
			c0.2-0.4,0.3-0.6,0.5-0.6c0.6-0.8,1.2-1.5,1.8-2.3c-0.6-0.5-1.2-0.9-1.8-1.4c-0.9-1.2-2.7-0.7-3.6-1.8c-0.6,0-1.2,0-1.8,0
			c-0.5-0.5-0.6-1.1-0.5-1.8C339.1,367.1,340.1,366.8,340.9,366.3z"/>
		<path class="st32" d="M409.9,135.5c-1.7,3.6-3.1,7.4-7.3,9.1c-0.6-0.6-1.2-1.3-1.8-1.8c2.7-2.8,3.2-7.4,7.3-9.1
			c0,0,0.7,0.2,0.7,0.2c0.4,0.2,0.7,0.6,1,1C409.8,134.9,409.9,135.5,409.9,135.5z"/>
		<path class="st33" d="M244.6,128.3c-0.6-2.1-1.2-4.2-1.8-6.3c2.7-0.4,2.7-0.4,9.1,4.5c-0.7,0.5-1.2,1.2-1.8,1.8
			c-0.5,0.5-1.1,0.7-1.8,0.8c-0.7,0-1.3,0-2,0.1C245.6,129.2,245,128.9,244.6,128.3z"/>
		<path class="st34" d="M219.2,328.1c0,2.5-2,1.5-3.2,1.9c-1.2,0.3-2.4,1-3.7,1.5c-1.1-3.9,0.6-6.6,3.3-8.8c1,0.2,1.6,0.8,1.8,1.8
			c0.6,0.6,1.2,1.2,1.8,1.8c0.6,0.4,0.8,0.8,0.6,1.2C219.6,327.9,219.4,328.1,219.2,328.1z"/>
		<path class="st35" d="M261,126.5c-1.2-1.3-2.7-2.4-3.6-3.9c-0.9-1.5-1.3-3.4-1.9-5.1c0.7-0.5,0.7-1.7,1.8-1.8
			c3.1,2.2,3.4,6.2,5.4,9.1C262.1,125.2,262.1,126.4,261,126.5z"/>
		<path class="st36" d="M210.1,280.9c-0.6-0.7-1.7-1.4-1.7-2.1c0.1-2.6-0.4-4.9-1.9-6.9c1.4-1,0.4-3.1,2-4c3.7,0.7,4.5,3.9,5.8,6.7
			c-0.2,1.6-1.1,2.9-1.6,4.3c-0.4,0.7-0.8,1.3-1.5,1.7C210.8,280.7,210.5,280.8,210.1,280.9z"/>
		<path class="st37" d="M373.6,364.4c-0.9-0.5-1.8-1-3.2-1.7c-0.2,1.2-0.3,2.4-0.5,3.6c-3.8,0.2-2.6-2.9-3.1-4.8
			c0.4-2.4,1.3-4.5,3.1-6.1c3.6-1.2,2,2.9,3.6,3.6c0.6,1.2,1.2,2.4,1.8,3.6C375.2,363.6,374.6,364.2,373.6,364.4z"/>
		<path class="st38" d="M264.6,359c-0.2-2.6,0.1-5.1,1.8-7.3c-0.5-0.4-0.6-0.8-0.5-1.2c0.2-0.4,0.3-0.6,0.5-0.6
			c1.4,0.3,3.5-0.9,3.6,1.8c-4,1.1,0.8,2.2,0.2,3C269.3,357.7,267.7,359.4,264.6,359z"/>
		<path class="st39" d="M222.8,155.5c2.8,0.3,4.7-0.8,5.4-3.6c1.2-1.1,2.4-1.1,3.6,0c-2,2.4-4,4.8-6,7.3c-2.3-0.9-5.4,2.1-6.7-1.8
			C220,155.9,221.8,156.6,222.8,155.5z"/>
		<path class="st40" d="M295.5,108.3c0.3-1.4-0.9-3.5,1.8-3.6c1.6-0.1,2.8,0.5,3.8,1.7c0.4,0.6,0.5,1.3,0.2,1.9
			c-1.3,1.4,0.9,0.7,0.9,1.4c1.2,1.1,3.4,1.7,2.4,4.1c-2.4,0-4.8,0-7.3,0c-0.6-0.4-0.9-1-0.9-1.7
			C296.4,110.7,296.6,109.3,295.5,108.3z"/>
		<path class="st24" d="M417.2,146.4c0.7-1.8-1.7-4.6,1.8-5.4c1.1,1,0.7,2.7,1.8,3.6c0,1.6,0,3.3,0,5.4c1.5-0.8,2.6-1.3,3.6-1.8
			c0.9,1,3,1.5,1.8,3.6c-2.4,0-4.8,0-7.3,0C417.1,150.5,419,147.8,417.2,146.4z"/>
		<path class="st41" d="M310,122.8c6.1,0,12.1,0,18.2,0c0.6,1.1,0.4,2-0.6,2.7c-5.6,2.3-11.3,2.3-17,0
			C309.6,124.8,309.4,123.9,310,122.8z"/>
		<path class="st42" d="M293.7,368.1c0.6-0.6,1.2-1.2,1.8-1.8c0.9,1.1,1.9,2.2,3.2,3.7c0.6-0.5,1.4-1.2,2.2-1.9
			c0.6-0.8,1.2-0.8,1.8,0c-0.7,1.8,1.7,4.6-1.8,5.4c-1.2,0.2-2.4,0.2-3.6,0C296.1,371.7,294.9,369.9,293.7,368.1z"/>
		<path class="st41" d="M433.5,230c0.6,0,1.2,0,1.8,0c0,6.1,0,12.1,0,18.2c-0.6,0.8-1.2,0.8-1.8,0
			C433.5,242.1,433.5,236.1,433.5,230z"/>
		<path class="st24" d="M419,313.6c0,1.2,0,2.4,0,3.6c0.6,0.6,1.2,1.2,1.8,1.8c0.6,0,1.2,0,1.8,0c0.5-0.5,1.2-0.8,2-0.8
			c0.8,0,1.4,0.2,2,0.7c0.3,0.7,0.2,1.4-0.4,2c-1.2,0-2.4,0-3.6,0c-1.2,1-2.4,1-3.6,0c-1.2-0.6-2.4-1.2-3.6-1.8
			C415.1,316.2,416.1,314.3,419,313.6z"/>
		<path class="st43" d="M261,137.4c4.4-1.4,7.7-5.5,12.7-5.4c0.6,0.6,0.8,1.2,0.6,2c-1.4,2.5-4,3.4-6.3,4.7c-0.6,0.4-1.3,0.7-2,1
			c-0.3,0.2-0.7,0.3-1,0.4c-0.7,0.2-1.5,0.3-2.3,0.3c-0.4-0.1-0.7-0.2-1.1-0.3c-0.3-0.2-0.6-0.4-0.9-0.7
			C260.3,138.7,260.4,138,261,137.4z"/>
		<path class="st44" d="M286.4,351.7c-2.5-0.4-7.9-2.5-9.1-3.6c0.3-1.4,1.1-2.3,2.4-2.8c3.6-0.3,6.9,0.2,9,3.7
			C288.7,350.5,287.3,350.9,286.4,351.7z"/>
		<path class="st45" d="M204.6,259.1c0-1.2,0-2.4,0-3.6c1.5-0.6,2.4,0.3,3.2,1.4c1.4,2.8,2.5,5.6,1.5,8.8c-0.6,1.3-1.7,1.9-2.9,2.5
			c-0.6-0.7-1.7-1.4-1.7-2.2C204.5,263.7,204.6,261.4,204.6,259.1z"/>
		<path class="st46" d="M426.3,279.1c0.4-2.5,2.5-7.9,3.6-9.1c0.6-0.9,1.2-0.9,1.8,0c-0.4,2.5-2.5,7.9-3.6,9.1
			C427.5,279.9,426.9,279.9,426.3,279.1z"/>
		<path class="st47" d="M304.6,113.7c-0.8-0.6-1.6-1.2-2.2-1.8c-0.5-0.5-0.9-1.2-1.4-1.8c-0.4-0.4-0.5-0.8-0.4-1.2
			c0.1-0.4,0.3-0.6,0.4-0.6c0.4-0.6,1-0.9,1.7-0.9c0.7,0.1,1.3,0.4,1.9,0.9c1.3,2,2.7,4.1,4,6.1
			C306.6,115.9,305.1,116.5,304.6,113.7z"/>
		<path class="st48" d="M360.9,348.1c0,0.3,0.1,0.8,0,0.8c-3,1-6,1.9-9.1,2.8c-0.8-0.8-2.2-1.2-2.3-2.6c1.5-3.2,4.4-3.4,7.3-3.6
			C358.5,345.8,360,346.5,360.9,348.1z"/>
		<path class="st49" d="M362.7,106.5c0,0.6,0,1.2,0,1.8c-2.8,0.7-5.5,1.3-7.3-1.8c-0.5-0.4-0.6-0.8-0.5-1.2c0.2-0.4,0.3-0.6,0.5-0.6
			C358.7,101.7,359.3,101.8,362.7,106.5z"/>
		<path class="st50" d="M302.7,108.3c-0.6,0-1.2,0-1.8,0c-0.8-0.6-1.6-1.2-2.2-1.8c-0.5-0.5-0.9-1.2-1.4-1.8c0-1.1,0-2.2,0-3.7
			c4.2,0.3,5.6,2.2,5.4,5.5c0.5,0.4,0.6,0.8,0.5,1.2C303.1,108.1,302.9,108.3,302.7,108.3z"/>
		<path class="st51" d="M308.2,362.6c0.3-3,2.6-1.4,4.3-1.9c1.6,2.1,4.9,3,4.7,7.2c-2.9-0.6-4-4.9-7.3-3.5
			C309.4,363.9,308.3,363.8,308.2,362.6z"/>
		<path class="st24" d="M433.5,322.7c-1.8,3.5-4,6.4-9.6,4.9c0.9-1.3,1.4-2.6,2.3-3c1.7-0.9,3.7-1.3,5.5-1.9
			C432.3,321.8,432.9,321.8,433.5,322.7z"/>
		<path class="st52" d="M222.8,155.5c-0.2,2.7-2.3,1.5-3.6,1.8c-1.2-1.2-2.4-2.4-3.6-3.6c-1.1-2.1-1.5-3.8,1.8-3.6
			C219.2,151.9,221,153.7,222.8,155.5z"/>
		<path class="st53" d="M348.2,126.5c4.1-0.1,7.8,0.7,10.9,3.6c-0.9,1.2-2.2,1.6-3.6,1.9c-3,0.2-5.6-0.4-7.5-2.9
			C347.4,128.1,347.5,127.3,348.2,126.5z"/>
		<path class="st54" d="M424.5,193.7c-0.9-3.1-3.9-5.4-3.6-9.1c-0.2-0.3-0.5-0.6-0.7-0.9c0.2-0.3,0.5-0.6,0.7-0.9
			c2.8,3.1,5.2,6.5,5.4,10.9C425.7,194.5,425.1,194.5,424.5,193.7z"/>
		<path class="st55" d="M429.9,210c-2.4-2.7-1.8-5.9-1.8-9.1c-0.5-0.4-0.7-0.8-0.5-1.2c0.2-0.4,0.3-0.6,0.5-0.6
			c2.9,3.1,3.8,6.8,3.6,10.9C431.1,210.7,430.5,210.7,429.9,210z"/>
		<path class="st56" d="M217.4,150.1c-2.7,0.2-1.5,2.3-1.8,3.6c-3.9-1.4-0.9-4.4-1.7-6.7c1.2-0.8,2.4-1.6,3.6-2.4
			c0.3-0.2,0.6-0.5,0.9-0.7c0.3,0.2,0.6,0.5,0.9,0.7C218.6,146.4,218,148.3,217.4,150.1z"/>
		<path class="st57" d="M206.5,206.4c0.6-2,1.1-4,1.9-6c0.2-0.6,1.2-0.9,1.8-1.3c0.8-0.6,1.6-0.6,2.3,0.1c1.3,3.9,0.3,7-3,9.4
			C207.7,208.8,207.3,207.3,206.5,206.4z"/>
		<path class="st58" d="M371.8,124.6c1.8,0,3.6,0,5.4,0c0.8,0.4,1.3,1.1,1.8,1.8c-1.4,3.9-4.4,0.9-6.7,1.7c-0.8-1.2-1.6-2.4-2.4-3.6
			C370.6,124,371.2,124,371.8,124.6z"/>
		<path class="st55" d="M288.2,126.5c2.7-2.4,5.9-1.8,9.1-1.8c0.7,0.8,0.7,1.7,0,2.5c-2.6,2.3-5.5,3.5-8.9,1.7
			C287.6,128.1,287.6,127.3,288.2,126.5z"/>
		<path class="st59" d="M313.6,377.2c-0.6-1.2-1.2-2.4-1.8-3.6c0.4-0.4,0.8-0.9,1-1.5c0,0,0.9-0.3,0.9-0.3c1.3,0.9,2.6,1.9,4.6,3.3
			c-1.8,1.6-3.2,2.8-4.6,3.9c-0.4-0.4-0.5-0.8-0.4-1.2C313.4,377.4,313.5,377.2,313.6,377.2z"/>
		<path class="st60" d="M359.1,355.4c-1.4,1.2-2.8,2.4-4.1,3.6c-0.5,0.5-0.9,1.2-1.4,1.8c-2.1,1.1-2.6-0.8-3.6-1.8
			c-0.4-0.4-0.5-0.8-0.4-1.2c0.1-0.4,0.3-0.6,0.4-0.6c1.2,0,2.4,0,3.6,0c0.6-0.6,1.3-1.1,1.8-1.8
			C356.6,355.4,357.8,355.4,359.1,355.4z"/>
		<path class="st61" d="M406.3,329.9c0,0.6,0,1.2,0,1.8c-0.7,0.5-1.2,1.2-1.8,1.8c-1.8,0.6-3.6,1.2-5.4,1.8
			c-0.5-0.4-0.6-0.8-0.5-1.2c0.2-0.4,0.3-0.6,0.5-0.6C400,329.5,403.2,329.8,406.3,329.9z"/>
		<path class="st24" d="M308.2,362.6c0.6,0.6,1.2,1.2,1.8,1.8c-0.6,0.8-1.2,1.5-1.8,2.3c0.6,0.5,1.2,0.9,1.8,1.4
			c0.5,0.5,0.8,1.2,0.9,1.9c0,0.8-0.2,1.3-0.9,1.8c-0.6,0-1.2,0-1.8,0c-0.6-1.2-1.2-2.4-1.8-3.6c-1-1.2-1.2-2.4,0-3.6
			C307,363.8,307.6,363.2,308.2,362.6z"/>
		<path class="st24" d="M433.5,248.2c0.6,0,1.2,0,1.8,0c0,2.3,0.2,4.6-0.1,6.9c-0.1,0.8-1.1,1.5-1.7,2.2c-0.6,0.9-1.2,0.9-1.8,0
			C432.3,254.2,432.9,251.2,433.5,248.2z"/>
		<path class="st62" d="M395.4,133.7c-0.6-1.2-1.2-2.4-1.8-3.6c1.8-1.2,3.6-2.4,5.4-3.6c0.6-0.6,1.2-0.6,1.8,0
			C399,128.9,397.2,131.3,395.4,133.7z"/>
		<path class="st41" d="M419,297.2c-0.3-3.6,2.7-5.9,3.6-9.1c0.6-0.7,1.2-0.7,1.8,0C423.8,291.9,423.1,295.6,419,297.2z"/>
		<path class="st63" d="M373.6,364.4c0.6-0.6,1.2-1.2,1.8-1.8c2.5-0.4,4.2,0.7,5.6,3.8C378.2,365.7,375.5,367.8,373.6,364.4z"/>
		<path class="st64" d="M288.2,111.9c3.5,1.1,1.1,4,1.8,5.9c0.1,0.2-0.2,0.5-0.5,1.4c-0.9,0-2,0-3.1,0c0-1.8,0-3.6,0-5.4
			C286.5,112.6,287.7,112.6,288.2,111.9z"/>
		<path class="st65" d="M360.9,348.1c-1.4-0.3-3.5,0.9-3.6-1.8c1.8-2.6,4.2-3.5,7.3-3c1.3,0.6,2.5,1.3,1.8,3
			C364.5,346.9,362.7,347.5,360.9,348.1z"/>
		<path class="st66" d="M211.9,191.9c1.2-1.8,2.4-3.6,3.6-5.4c0.8-0.6,1.5-0.6,2.3,0c1.3,3.5,0,6-3.1,7.7
			C213.2,194.2,212.5,193,211.9,191.9z"/>
		<path class="st67" d="M222.8,340.8c0.3-1.4-0.9-3.5,1.8-3.6c-1.5,3.9,4.3,4.6,3.5,8.9C225.6,344.9,223.8,343.3,222.8,340.8z"/>
		<path class="st68" d="M288.2,126.5c0,0.6,0,1.2,0,1.8c-0.4,4.7-3.8,3.5-6.6,3.4c-1-0.3-1.8-0.8-2.4-1.6c0-0.3-0.1-0.8,0-0.8
			C282.2,128.3,285.2,127.4,288.2,126.5z"/>
		<path class="st24" d="M246.4,130.1c0,0.6,0,1.2,0,1.8c0.7,0.5,1.2,1.2,1.8,1.8c0,1.7,0,3.4,0,5.1c-0.4,0.2-0.8,0.4-1.2,0.6
			c-0.2-1.2-0.4-2.4-0.7-3.7c-0.6,0.4-1.2,0.8-1.8,1.2c0-2.3,0-4.6,0-6.9C245.2,129.4,245.8,129.4,246.4,130.1z"/>
		<path class="st30" d="M337.3,124.6c2.3,0,4.6-0.2,6.9,0.1c0.8,0.1,1.5,1.1,2.2,1.7c0.8,0.8,0.7,1.6-0.2,2.3
			c-3.8,0.7-7.4,0.3-10.7-1.9C335,125.3,335.1,124.1,337.3,124.6z"/>
		<path class="st69" d="M355.4,130.1c1.2,0,2.4,0,3.6,0c1.4,0.3,3.5-0.9,3.6,1.8c0.6,0.4,0.8,0.8,0.6,1.2c-0.2,0.4-0.4,0.6-0.6,0.6
			c-0.6,0.6-1.2,1.2-1.8,1.8c-0.6,0.6-1.4,0.7-2.2,0.4C357.1,134.3,354.5,133.2,355.4,130.1z"/>
		<path class="st70" d="M297.3,373.5c0.8-0.6,1.5-1.2,2.3-1.8c0.5,0.6,0.9,1.2,1.4,1.8c0,1.7,0,3.4,0,5.4
			C298,377.7,296.9,376.1,297.3,373.5z"/>
		<path class="st71" d="M217.4,324.5c-0.6-0.6-1.2-1.2-1.8-1.8c0.6-1.8,1.2-3.6,1.8-5.4c3.1,0,3.1,1.5,1.8,3.6
			C218.9,322.2,220.1,324.3,217.4,324.5z"/>
		<path class="st41" d="M382.7,337.2c-1.1,0.8-2.2,1.8-3.4,2.4c-1.2,0.6-2.6,0.8-3.9,1.2c-0.3,0.2-0.6,0.5-0.9,0.7
			c-0.4-0.1-0.7-0.2-1.1-0.3c-0.4-0.7-0.5-1.4-0.4-2.1c0.4-0.6,0.9-1.2,1.5-1.6c0.6-0.5,1.2-0.9,1.9-1.3c0.3-0.2,0.6-0.4,1-0.6
			c1.8-1,3.6-1.7,5.6-0.3C383.5,335.9,383.3,336.6,382.7,337.2z"/>
		<path class="st35" d="M433.5,322.7c-0.6,0-1.2,0-1.8,0c-1.2-1.2-2.4-2.4-3.6-3.6c-0.6,0.7-1.2,0.7-1.8,0c-0.6,0-1.2,0-1.8,0
			c-0.4-0.4-0.5-0.8-0.4-1.2c0.1-0.4,0.3-0.6,0.4-0.6c0.6,0,1.2,0,1.8,0c1.8-1.3,3.6-1.2,5.4,0c0.6,0.6,1.1,1.3,1.8,1.8
			C433.5,320.2,433.5,321.4,433.5,322.7z"/>
		<path class="st60" d="M411.7,131.9c1.8,1.5,3.7,3,5.5,4.5c-0.2,0.4-0.4,0.7-0.6,1.1c-2.2-0.6-4.5-1.3-6.7-1.9
			c-0.2-0.3-0.5-0.7-0.7-1c0.2-0.4,0.3-0.8,0.5-1.1C410.4,132.9,411.1,132.4,411.7,131.9z"/>
		<path class="st72" d="M230.1,133.7c0.6,1.2,1.2,2.4,1.8,3.6c-0.6,0.6-1.3,1.2-1.8,1.8c-1.1-0.8-2.6-1.4-3.3-2.5
			c-0.8-1.2-0.8-2.8,1.5-2.9C228.9,133,229.5,133,230.1,133.7z"/>
		<path class="st73" d="M219.2,142.8c0.2-0.5,0.3-1.4,0.6-1.4c1.3-0.3,2.7-0.3,4.3-0.5c0.3,1,0.5,1.8,0.9,3.2
			c-2.1,0.2-3.9,0.4-5.8,0.5c-0.5-0.4-0.6-0.8-0.5-1.2C218.9,143,219,142.8,219.2,142.8z"/>
		<path class="st55" d="M431.7,270c-0.6,0-1.2,0-1.8,0c-0.2-2.6,0.1-5.1,1.8-7.3c0.6-0.8,1.2-0.8,1.8,0
			C433.8,265.3,433.4,267.8,431.7,270z"/>
		<path class="st74" d="M213.7,288.1c-2.4-1.8-3.8-4.2-3.6-7.3c0.7-0.6,1.5-0.7,2.3-0.4c2.5,1.9,4.1,4.3,3.5,7.7
			C215.2,288.8,214.5,288.8,213.7,288.1z"/>
		<path class="st55" d="M221,302.7c-2.4-1.8-3.8-4.2-3.6-7.3c0.4-0.1,0.8-0.3,1.2-0.4c2.8,0.6,4.4,2.3,4.9,5.1
			C223.2,301.5,222.4,302.3,221,302.7z"/>
		<path class="st59" d="M219.2,320.8c-0.3-1.4,0.9-3.5-1.8-3.6c0.8-1.2,1.6-2.4,2.5-3.7c1,0.9,1.8,1.6,2.9,2.7
			C221.6,317.7,220.4,319.3,219.2,320.8z"/>
		<path class="st75" d="M395.4,326.3c-1.8,1.8-3.6,3.6-5.4,5.4c-0.6-0.5-0.9-1.2-1.1-1.9c0-0.8,0.1-1.5,0.4-2.2
			c0.9-1.7,1.8-3.4,4-3.7c0.7,0.2,1.4,0.6,1.8,1.3C395.2,325.6,395.3,325.9,395.4,326.3z"/>
		<path class="st76" d="M279.1,117.4c2.1,1.7,4.6,2,7.3,1.8c-3,2.6-6.1,2.6-9.1,0C278,118.7,278.5,118,279.1,117.4z"/>
		<path class="st24" d="M270,119.2c2.5,1.8,2.5,3.6,0,5.4c-0.6,0.8-1.2,0.8-1.8,0c0-1.8,0-3.6,0-5.4
			C268.8,118.3,269.4,118.3,270,119.2z"/>
		<path class="st60" d="M246.4,340.8c0-0.6,0-1.2,0-1.8c2.8-0.3,4.7,0.8,5.4,3.6c-0.3,1.4,0.9,3.5-1.8,3.6
			C250.4,343.5,249.3,341.5,246.4,340.8z"/>
		<path class="st77" d="M409.9,344.5c0-1.7,0-3.3,0-5.4c1.5,0,2.6,0,3.6,0c-0.7,1.8,1.7,4.6-1.8,5.4
			C411.1,345.1,410.5,345.1,409.9,344.5z"/>
		<path class="st78" d="M255.5,346.3c0-0.6,0-1.2,0-1.8c4-0.3,5.7,2.5,7.3,5.4c-1.3-0.4-2.7-0.6-3.9-1.2
			C257.7,348.1,256.6,347.1,255.5,346.3z"/>
		<path class="st24" d="M310,122.8c0,0.6,0,1.2,0,1.8c-1.7,2.1-4.1,2.6-6.7,2.5c-1.3-0.4-2.1-1.2-2.4-2.5c0.7-0.6,1.4-1.7,2.2-1.7
			C305.4,122.7,307.7,122.8,310,122.8z"/>
		<path class="st24" d="M337.3,124.6c-0.6,0.6-1.2,1.2-1.8,1.8c-2.9,1.2-5.2,0.4-7.3-1.8c0-0.6,0-1.2,0-1.8c2.3,0,4.6-0.2,6.9,0.1
			C335.9,123,336.5,124,337.3,124.6z"/>
		<path class="st72" d="M239.2,348.1c-1,1.3-1.9,2.6-2.7,3.6c-1,0-1.3,0-1.6,0c-0.2-0.2-0.5-0.3-0.9-0.6c-0.9-2.9,1-4,3.4-4.8
			C237.9,346.9,238.5,347.5,239.2,348.1z"/>
		<path class="st79" d="M302.7,368.1c-0.6,0-1.2,0-1.8,0c0-2.3,0-4.7,0-7.1c1.4,0,2.2,0,3.6,0c0,1.2,0,2.4,0,3.5
			C301.8,364.6,303,366.7,302.7,368.1z"/>
		<path class="st80" d="M388.1,124.6c0.9,0,1.7,0,3.4,0c0.1,3,0.2,6,0.2,9.1c-3-0.3-1.5-2.6-1.8-4.1c-0.3-1.3,0.6-3.2-1.8-3.2
			c-0.4-0.4-0.6-0.8-0.4-1.2C387.8,124.8,388,124.6,388.1,124.6z"/>
		<path class="st14" d="M221,175.5c1.2-1.2,2.4-2.4,3.6-3.6c0.6-0.8,1.3-0.8,2.1-0.2c0.7,2.9-0.3,5-3.1,6.1
			C222.2,177.7,221.3,176.9,221,175.5z"/>
		<path class="st60" d="M408.1,133.7c-1.1-1.6-2.3-3.1-3.6-4.9c3.2-1.6,4.2,1,5.4,3.1c0.5,0.4,0.6,0.8,0.5,1.2
			c-0.2,0.4-0.3,0.6-0.5,0.6C409.3,134.3,408.7,134.3,408.1,133.7z"/>
		<path class="st41" d="M248.2,331.7c-1.8-1.8-3.6-3.6-5.4-5.4c0.6-0.6,1.4-0.9,2.2-0.9c2.3,0.4,3.7,1.8,4.1,4.1
			C249.1,330.4,248.8,331.1,248.2,331.7z"/>
		<path class="st41" d="M279.1,130.1c0.6,0,1.2,0,1.8,0c-0.7,4.7-3.4,5.3-7.3,3.6c0-0.6,0-1.2,0-1.8
			C275.5,131.3,277.3,130.7,279.1,130.1z"/>
		<path class="st41" d="M428.1,199.1c0,0.6,0,1.2,0,1.8c-2.4-1.8-3.8-4.2-3.6-7.3c0.6,0,1.2,0,1.8,0
			C426.9,195.5,427.5,197.3,428.1,199.1z"/>
		<path class="st41" d="M221,302.7c0.6-0.6,1.2-1.2,1.8-1.8c2.6,0.7,4.1,2.3,4.1,5.2c-0.5,0.7-1.1,1.1-1.9,1.2
			c-0.8-0.1-1.5-0.3-2.2-0.9C222.2,305.1,221.6,303.9,221,302.7z"/>
		<path class="st41" d="M261,340.8c-1.8-1.2-3.6-2.4-5.4-3.6c-0.5-0.4-0.7-0.8-0.6-1.3c0.1-0.5,0.2-0.8,0.3-0.8
			c2-1.4,3.8-0.7,5.5,0.6c0.3,0.3,0.5,0.6,0.8,0.9c0.4,0.7,0.6,1.5,0.6,2.3C262,339.6,261.6,340.3,261,340.8z"/>
		<path class="st24" d="M297.3,111.9c0,0.6,0,1.2,0,1.8c0,1.1,0,2.2,0,3.8c-1.7-0.3-2.7-0.5-4.2-0.7c1-2,1.7-3.4,2.4-4.9
			C296.1,111.1,296.7,111.1,297.3,111.9z"/>
		<path class="st60" d="M235.5,331.7c-1.8-0.6-3.6-1.2-5.4-1.8c-0.5-0.5-0.7-1.1-0.5-1.8c0.6-0.8,1.6-1.1,2.3-1.8
			c1.2,1.2,2.4,2.4,3.6,3.6c0.5,0.4,0.7,0.8,0.5,1.2C235.9,331.5,235.7,331.7,235.5,331.7z"/>
		<path class="st14" d="M211.9,191.9c0.6,0.6,1.2,1.2,1.8,1.8c1.6,2,0.8,3.3-1.1,4.4c-1,0.2-1.8-0.1-2.5-0.8
			C210.7,195.5,211.3,193.7,211.9,191.9z"/>
		<path class="st81" d="M355.4,371.7c1.8,0,3.6,0,5.4,0c0.6,0.4,0.8,0.8,0.6,1.2c-0.2,0.4-0.4,0.6-0.6,0.6c-1.3,0.4-2.6,0.5-3.8,1.1
			c-1.7,1-3,1.5-3.5-1.1c0.1-0.3,0.2-0.6,0.3-0.9C354.3,372.1,354.8,371.8,355.4,371.7z"/>
		<path class="st41" d="M255.5,335.4c0,0.6,0,1.2,0,1.8c-1.2-0.6-2.4-1.2-3.6-1.8c-0.6-0.6-1.2-1.3-1.8-1.8
			c-0.2-0.4-0.5-0.8-0.7-1.2c0.3-0.4,0.6-0.8,0.9-1.1C253.6,330.5,255.9,331.2,255.5,335.4z"/>
		<path class="st82" d="M380.9,119.2c-0.6-2.6,1-4,3.1-5.6c0.2,2.3,2.1,4.5-1.3,5.6C382.1,120.1,381.5,120.1,380.9,119.2z"/>
		<path class="st79" d="M288.2,369.9c0.6,0,1.2,0,1.8,0c0,2.3,0,4.6,0,6.9c-0.4,0.2-0.8,0.5-1.2,0.7c-0.5-1.3-1.1-2.6-1.6-3.9
			C287.4,373,287.8,371.4,288.2,369.9z"/>
		<path class="st83" d="M230.1,313.6c-1.2-1.2-2.4-2.4-3.6-3.6c0.1-0.4,0.3-0.8,0.4-1.2c0.6-0.7,1.3-1.1,2.1-1.2
			c2.8,1.1,3.8,3.2,3.2,6.1C231.5,314.3,230.8,314.3,230.1,313.6z"/>
		<path class="st83" d="M411.7,309.9c-1.2,1.2-2.4,2.4-3.6,3.6c-0.7,0.7-1.4,0.7-2.1,0.1c-0.7-2.9,0.4-4.9,3.1-6.1
			C410.5,307.7,411.1,308.9,411.7,309.9z"/>
		<path class="st24" d="M417.3,314c2.8-2.4,4.1-3.5,5.8-4.9c0.8,1.5,1.2,2.4,2,3.9C422.7,313.3,420.9,313.5,417.3,314z"/>
		<path class="st41" d="M424.5,288.1c-0.6,0-1.2,0-1.8,0c1.2-1.8,2.4-3.6,3.6-5.4C425.6,284.5,428,287.3,424.5,288.1z"/>
		<path class="st60" d="M230.1,133.7c-0.6,0-1.2,0-1.8,0c1.2-1.2,2.4-2.4,3.6-3.6c0.6-0.7,1.2-0.7,1.8,0
			C232.5,131.3,231.3,132.5,230.1,133.7z"/>
		<path class="st84" d="M280.9,104.7c1.7,0,3.4,0,5.3,0c0,1.4,0,2.2,0,3c-1.8-0.4-3.5-0.8-5.3-1.2c-0.6-0.4-0.8-0.8-0.6-1.2
			C280.5,104.9,280.7,104.7,280.9,104.7z"/>
		<path class="st24" d="M266.4,113.7c-0.7-0.8-1.4-1.7-2.8-3.2c2.1-0.2,3.1-0.3,4.6-0.4c0,1.5,0,2.6,0,3.7
			C267.6,114.6,267,114.6,266.4,113.7z"/>
		<path class="st41" d="M228.3,150.1c-1.1,0-2.1,0-3.6,0c3.1-3.8,3.1-3.8,5.4-1.8c0,0-0.2,0.7-0.2,0.7c-0.2,0.4-0.6,0.7-1,1
			C229,149.9,228.3,150.1,228.3,150.1z"/>
		<path class="st41" d="M340.9,353.5c-0.6-0.6-1.2-1.2-1.8-1.8c0.8-1,1.8-1.4,3-1.6c0.8-0.1,1.6,0,2.4,0.2c0.8,0.3,1.4,0.7,1.9,1.4
			C345.5,355.2,342.7,352.8,340.9,353.5z"/>
		<path class="st41" d="M346.3,351.7c-0.6,0-1.2,0-1.8,0c-0.6-0.9-0.5-1.7,0.3-2.5c1.9-1,3.6-0.9,5.2,0.6c0.6,0.6,1.2,1.2,1.8,1.8
			C350,351.7,348.2,351.7,346.3,351.7z"/>
		<path class="st85" d="M337.3,113.7c1.2,0,2.4,0,3.6,0c0.4,0.4,0.9,0.8,1.5,1c0,0,0.3,0.9,0.3,0.9c-0.2,2.7-2.3,1.5-3.6,1.8
			c-0.5-0.5-1.1-0.8-1.7-1.1c-0.2-0.3-0.5-0.5-0.7-0.8C336.4,114.7,336.6,114.2,337.3,113.7z"/>
		<path class="st60" d="M415.4,319c-1.2,1.2-2.4,2.4-3.6,3.6c-0.6,0.7-1.2,0.7-1.8,0C410.6,319.8,412.6,318.7,415.4,319z"/>
		<path class="st24" d="M268.2,124.6c0.6,0,1.2,0,1.8,0c-0.7,2.9-2.6,3.9-5.4,3.6c-0.6-0.4-0.8-0.8-0.6-1.2c0.2-0.4,0.4-0.6,0.6-0.6
			C265.8,125.9,267,125.3,268.2,124.6z"/>
		<path class="st60" d="M244.6,337.2c-0.6,0-1.2,0-1.8,0c-1.2-1.2-2.4-2.4-3.6-3.6C242,333.3,243.9,334.3,244.6,337.2z"/>
		<path class="st86" d="M279.1,346.3c-0.6,0.6-1.2,1.2-1.8,1.8c-1.4-0.3-3.5,0.9-3.6-1.8c0.2-1.2,1-2,2.1-2.4
			C277.5,343.9,278.6,344.6,279.1,346.3z"/>
		<path class="st24" d="M268.2,368.1c1.2,0,2.4,0,3.6,0c0.2,0.3,0.5,0.6,0.7,0.9c-0.2,0.3-0.5,0.6-0.7,0.9c-0.8,0.6-1.5,1.2-2.3,1.8
			c-0.5-0.6-0.9-1.2-1.4-1.8c-0.5-0.4-0.7-0.8-0.5-1.2C267.9,368.3,268.1,368.1,268.2,368.1z"/>
		<path class="st41" d="M213.7,288.1c0.6,0,1.2,0,1.8,0c1.8,0.5,2.6,1.8,2.9,3.5c0,0.8-0.3,1.6-0.7,2.3c-0.8,0.4-1.5,0.3-2.2-0.3
			C214.9,291.8,214.3,290,213.7,288.1z"/>
		<path class="st41" d="M340.9,366.3c-0.6,0.6-1.2,1.2-1.8,1.8c-0.6,0.6-1.2,0.6-1.8,0c0-1.8,0-3.6,0-5.4c0.6,0.8,1.2,1.6,1.8,2.2
			C339.6,365.4,340.3,365.8,340.9,366.3z"/>
		<path class="st87" d="M228.3,166.4c1.2-1.2,2.4-2.4,3.6-3.6c0.3-0.3,0.7-0.5,1-0.8c0.4,0.2,0.7,0.5,1.1,0.7
			c0.4,1.4-0.2,2.5-1.1,3.5c-0.7,0.5-1.5,0.9-2.3,1.1C229.7,167.3,228.9,167,228.3,166.4z"/>
		<path class="st41" d="M217.4,186.4c-0.6,0-1.2,0-1.8,0c0-1.2,0-2.4,0-3.6c0.6-0.6,1.3-1.2,1.8-1.8c0.8-0.4,1.6-0.2,2.2,0.4
			C220.6,183.8,219.7,185.5,217.4,186.4z"/>
		<path class="st88" d="M364.5,353.5c0.6,0,1.2,0,1.8,0c1,1.1,1.1,2.3,0.4,3.5c-1.3,0.9-2.4,0.5-3.4-0.6c-0.2-0.4-0.5-0.7-0.7-1.1
			C363.3,354.7,363.9,354.1,364.5,353.5z"/>
		<path class="st41" d="M221,175.5c0.6,0.6,1.2,1.2,1.8,1.8c0.6,1.5-0.3,2.2-1.5,2.7c-0.4,0-0.8,0-1.2-0.1c-0.3-0.3-0.6-0.5-0.9-0.8
			c0-0.6,0-1.2,0-1.8C219.9,176.8,220.5,176.2,221,175.5z"/>
		<path class="st41" d="M406.3,164.6c-0.6-0.6-1.2-1.2-1.8-1.8c-0.5-0.4-0.7-0.8-0.5-1.2c0.2-0.4,0.3-0.6,0.5-0.6
			c1.2,1.2,2.4,2.4,3.6,3.6C407.5,165.3,406.9,165.3,406.3,164.6z"/>
		<path class="st89" d="M364.5,115.6c0-1.8,0-3.6,0-5.4C367,111.9,367,113.7,364.5,115.6z"/>
		<path class="st41" d="M379,355.4c0.6-0.6,1.2-1.2,1.8-1.8c0.6,0.6,1.2,1.2,1.8,1.8c-0.5,0.4-0.8,0.9-1,1.5c0,0-0.9,0.3-0.9,0.3
			C380.2,356.6,379.6,356,379,355.4z"/>
		<path class="st60" d="M344.5,362.6c-1.2-1.2-2.4-2.4-3.6-3.6c1.4,0.3,3.5-0.9,3.6,1.8c0.5,0.4,0.6,0.8,0.5,1.2
			C344.8,362.4,344.7,362.6,344.5,362.6z"/>
		<path class="st41" d="M266.4,113.7c0.6,0,1.2,0,1.8,0c0.6,1.2,1.2,2.4,1.8,3.6c-0.6,0.7-1.2,0.7-1.8,0
			C265.5,117.2,266.7,115.1,266.4,113.7z"/>
		<path class="st24" d="M386.3,130.1c-0.5,2.6-2.2,2.4-3.4,1c-0.8-1-0.6-2.7,1.6-2.8c0,0,0.9,0.3,0.9,0.3
			C385.5,129.2,385.8,129.7,386.3,130.1z"/>
		<path class="st41" d="M417.2,179.1c-2.7-0.2-1.5-2.3-1.8-3.6c1.2,1.2,2.4,2.4,3.6,3.6C418.4,180,417.8,180,417.2,179.1z"/>
		<path class="st90" d="M384.5,359c1.2,0,2.4,0,3.6,0c0,1.1,0,2.2,0,5C386.2,361.4,385.4,360.2,384.5,359z"/>
		<path class="st41" d="M380.9,119.2c0.6,0,1.2,0,1.8,0c-0.3,1.4,0.9,3.5-1.8,3.6c-0.6,0.7-1.2,0.7-1.8,0
			C379.6,121.6,380.2,120.4,380.9,119.2z"/>
		<path class="st41" d="M417.2,179.1c0.6,0,1.2,0,1.8,0c0.6,1.2,1.2,2.4,1.8,3.6c-0.6,0.6-1.2,0.6-1.8,0
			C416.3,182.6,417.5,180.5,417.2,179.1z"/>
		<path class="st41" d="M286.4,351.7c0.6-0.6,1.2-1.2,1.8-1.8c1.2-1.1,2.4-1,3.6,0c-0.6,0.6-1.2,1.2-1.8,1.8
			C288.8,351.7,287.6,351.7,286.4,351.7z"/>
		<path class="st41" d="M268.2,368.1c0,0.6,0,1.2,0,1.8c-0.6-0.6-1.2-1.2-1.8-1.8c0.3-1.4-0.9-3.5,1.8-3.6
			C268.2,365.6,268.2,366.9,268.2,368.1z"/>
		<path class="st41" d="M388.1,124.6c0,0.6,0,1.2,0,1.8c-0.6,0.6-1.2,1.2-1.8,1.8c-0.6,0.6-1.2,0.6-1.8,0c0.6-1.2,1.2-2.4,1.8-3.6
			C386.9,124.1,387.5,124.1,388.1,124.6z"/>
		<path class="st41" d="M282.8,375.3c0.7-1.8-1.7-4.6,1.8-5.4C283.9,371.7,286.3,374.5,282.8,375.3z"/>
		<path class="st60" d="M360.9,373.5c0-0.6,0-1.2,0-1.8c0.9-0.5,1.8-1,3.2-1.7c0.2,1.2,0.3,2.4,0.5,3.6
			C363.3,373.5,362.1,373.5,360.9,373.5z"/>
		<path class="st30" d="M300.9,124.6c0.6,0.6,1.2,1.2,1.8,1.8c-1.8,1.5-3.6,1.5-5.4,0c0-0.6,0-1.2,0-1.8
			C298.5,124.6,299.7,124.6,300.9,124.6z"/>
		<path class="st41" d="M340.9,377.2c-0.7-0.9-1.4-1.7-2.1-2.6c0.2-0.3,0.5-0.5,0.7-0.8c1.1,0.5,2.2,1,3.2,1.5
			C343.2,377.1,342.8,377.8,340.9,377.2z"/>
		<ellipse class="st30" cx="432.6" cy="260" rx="1.3" ry="3.9"/>
		<path class="st91" d="M340.9,377.2c0.6-0.6,1.2-1.2,1.8-1.8c0.6,0,1.2,0,1.8,0c0,0.6,0,1.2,0,1.8c-0.8,0.6-1.5,1.2-2.3,1.8
			C341.8,378.4,341.3,377.8,340.9,377.2z"/>
		<path class="st41" d="M206.5,268.2c0.6-0.6,1.2-1.2,1.8-1.8c0.4,0.4,0.5,0.8,0.4,1.2c-0.1,0.4-0.3,0.6-0.4,0.6
			c-0.3,1.4,0.9,3.5-1.8,3.6C206.5,270.6,206.5,269.4,206.5,268.2z"/>
		<path class="st41" d="M415.4,155.5c-0.2,0.5-0.3,1-0.9,2.4c-1.2-1.2-2.1-2.1-3.3-3.3c1.4-0.5,1.9-0.7,2.4-0.9
			C415.4,153.1,416,153.7,415.4,155.5z"/>
		<path class="st41" d="M415.4,300.9c1.2-1.2,2.4-2.4,3.6-3.6c-0.3,1.4,0.9,3.5-1.8,3.6C416.6,301.7,416,301.7,415.4,300.9z"/>
		<path class="st41" d="M415.4,155.5c-0.6-0.6-1.2-1.2-1.8-1.8c0.6-0.6,1.2-1.2,1.8-1.8c0.3-0.2,0.6-0.5,1-0.7
			c0.4,0.2,0.7,0.3,1.1,0.5c0.5,0.8,0.4,1.4-0.2,2.1C416.6,154.3,416,154.9,415.4,155.5z"/>
		<path class="st41" d="M411.7,306.3c1.2-1.2,2.4-2.4,3.6-3.6c0.5,0.4,0.7,0.8,0.5,1.2c-0.2,0.4-0.3,0.6-0.5,0.6
			c-0.6,0.6-1.2,1.2-1.8,1.8C412.9,307.1,412.3,307.1,411.7,306.3z"/>
		<path class="st41" d="M395.4,153.7c-1.2-1.2-2.4-2.4-3.6-3.6c0.6-0.7,1.2-0.7,1.8,0c0.6,0.6,1.2,1.2,1.8,1.8
			c0.5,0.4,0.7,0.8,0.5,1.2C395.7,153.5,395.6,153.7,395.4,153.7z"/>
		<path class="st92" d="M431.7,317.2c-1.8,0-3.6,0-5.4,0C428.1,314.7,429.9,314.7,431.7,317.2z"/>
		<path class="st24" d="M426.3,151.9c-0.6-1.2-1.2-2.4-1.8-3.6c1.1,0,2.2,0,4.7,0C427.7,150.2,427,151,426.3,151.9z"/>
		<path class="st41" d="M235.5,320.8c-2.7-0.2-1.5-2.3-1.8-3.6c0.3-0.2,0.6-0.5,0.9-0.7c1.8-0.3,3,0.2,3.3,2.1
			C237.5,319.8,236.8,320.6,235.5,320.8z"/>
		<path class="st84" d="M231.9,151.9c-1.2,0-2.4,0-3.6,0c0-0.6,0-1.2,0-1.8c0.7-0.5,1.3-1.1,1.8-1.8
			C232.8,148.4,231.6,150.5,231.9,151.9z"/>
		<path class="st41" d="M235.5,320.8c0.6-0.6,1.2-1.2,1.8-1.8c1.5-0.7,2,0.2,2.3,1.4c-0.3,1.2-1.1,2-2.3,2.2
			C236.7,322,236.1,321.4,235.5,320.8z"/>
		<path class="st41" d="M237.3,322.7c0.6-0.6,1.2-1.2,1.8-1.8c1.4-0.7,2,0.2,2.3,1.3c-0.3,1.2-1.5,1.5-2.3,2.3
			C238.6,323.9,238,323.3,237.3,322.7z"/>
		<path class="st41" d="M417.2,146.4c3.5,0.9,1.1,3.7,1.8,5.4c-0.6,0.6-1.2,0.6-1.8,0c-0.5-0.4-0.6-0.8-0.5-1.2
			c0.2-0.4,0.3-0.6,0.5-0.6C417.2,148.9,417.2,147.7,417.2,146.4z"/>
		<path class="st41" d="M226.4,326.3c-1.2,0-2.4,0-3.6,0c1.8-2.5,3.6-2.5,5.4,0c-0.3,0.3-0.6,0.5-0.9,0.8
			C227.1,326.8,226.7,326.6,226.4,326.3z"/>
		<path class="st41" d="M242.8,151.9c0-0.6,0-1.2,0-1.8c0.6-0.5,1.2-0.9,2-1c0.8,0,1.5,0.4,2,0.9c0.5,1.8-0.4,3-1.7,3.9
			c-0.7,0.3-1.5,0.2-2.2-0.2c-0.4-0.4-0.6-0.8-0.5-1.3C242.6,152.1,242.7,151.9,242.8,151.9z"/>
		<path class="st41" d="M386.3,146.4c-1.2-1.2-2.4-2.4-3.6-3.6c1.4,0.3,3.5-0.9,3.6,1.8c0.5,0.4,0.7,0.8,0.5,1.2
			C386.6,146.2,386.5,146.4,386.3,146.4z"/>
		<path class="st93" d="M422.6,331.7c0.5-2.6,2.2-2.4,3.4-1c0.8,1,0.6,2.7-1.6,2.8C423.7,333.1,423.1,332.5,422.6,331.7z"/>
		<path class="st41" d="M382.7,337.2c0-0.6,0-1.2,0-1.8c-0.4-0.4-0.5-0.8-0.4-1.2c0.1-0.4,0.2-0.6,0.3-0.6c0.5-0.5,1.2-0.8,1.9-0.9
			c0.7,0.1,1.3,0.4,1.9,0.9C385.1,334.8,383.9,336,382.7,337.2z"/>
		<path class="st41" d="M253.7,141c0.6,0,1.2,0,1.8,0c0.6-0.6,1.4-0.8,2.2-0.8c0.9,0.1,1.5,0.5,1.9,1.3c-0.4,2.1-1.9,2.6-3.7,2.6
			c-0.9-0.1-1.7-0.4-2.4-0.9C252.9,142.4,253,141.7,253.7,141z"/>
		<path class="st41" d="M261,340.8c0-0.6,0-1.2,0-1.8c0.6-0.6,1.3-0.9,2.1-0.9c1.3,0.3,2.1,1.1,2.4,2.4c0,0.8-0.3,1.6-0.9,2.1
			C263.4,342,262.2,341.4,261,340.8z"/>
		<path class="st41" d="M413.6,173.7c-2.7-0.2-1.5-2.3-1.8-3.6c1.2,1.2,2.4,2.4,3.6,3.6C414.8,174.3,414.2,174.3,413.6,173.7z"/>
		<path class="st41" d="M264.6,342.6c0-0.6,0-1.2,0-1.8c2-1.6,3.3-0.8,4.4,1.1c0.2,1,0,1.8-0.7,2.5
			C267,343.8,265.8,343.2,264.6,342.6z"/>
		<path class="st41" d="M380.9,142.8c-1.2-0.6-2.4-1.2-3.6-1.8c-0.5-0.4-0.7-0.8-0.5-1.2c0.2-0.4,0.3-0.6,0.5-0.6
			c1.4,0.3,3.5-0.9,3.6,1.8c0.5,0.4,0.6,0.8,0.5,1.2C381.2,142.6,381,142.8,380.9,142.8z"/>
		<path class="st41" d="M268.2,344.5c0-0.6,0-1.2,0-1.8c2-1.6,3.3-0.8,4.4,1.1c0.2,1-0.1,1.8-0.7,2.5
			C270.6,345.7,269.4,345.1,268.2,344.5z"/>
		<path class="st14" d="M366.3,346.3c-0.6-0.6-1.2-1.2-1.8-1.8c-0.4-2.7,1.2-2.6,3.1-2.2c0.5,0.4,0.7,0.9,0.7,1.4
			c0,0.6-0.1,0.8-0.2,0.8C367.5,345.1,366.9,345.7,366.3,346.3z"/>
		<path class="st2" d="M395.4,342.6c0.6,1.2,1.2,2.4,1.8,3.6c-0.6,0.6-1.2,0.6-1.8,0c-0.6-0.6-1.2-1.2-1.8-1.8
			C394.2,343.8,394.8,343.2,395.4,342.6z"/>
		<path class="st94" d="M206.5,206.4c0.6,0.6,1.2,1.2,1.8,1.8c0.6,0.4,0.9,1,1,1.8c-0.1,0.7-0.4,1.3-1,1.8c-0.6-0.6-1.2-1.2-1.8-1.8
			C206.5,208.8,206.5,207.6,206.5,206.4z"/>
		<path class="st41" d="M377.2,139.2c0,0.6,0,1.2,0,1.8c-1.2-1.2-2.4-2.4-3.6-3.6C375,137.6,377.1,136.5,377.2,139.2z"/>
		<path class="st95" d="M400.8,348.1c1.8,0,3.6,0,5.4,0C404.5,350.6,402.7,350.6,400.8,348.1z"/>
		<path class="st93" d="M344.5,102.8c2.5,0.4,2.1,1.8,0.9,3.8c-0.4-0.8-0.7-1.4-0.9-2c-0.2-0.3-0.5-0.6-0.7-0.9
			C344,103.5,344.3,103.2,344.5,102.8z"/>
		<path class="st41" d="M280.9,104.7c0,0.6,0,1.2,0,1.8c-0.6,0-1.2,0-1.8,0c-0.6,0.6-1.2,0.6-1.8,0
			C277.5,103.8,279.6,104.9,280.9,104.7z"/>
		<path class="st41" d="M297.3,111.9c-0.6,0-1.2,0-1.8,0c0-1.2,0-2.4,0-3.6C298.2,108.5,297,110.6,297.3,111.9z"/>
		<path class="st41" d="M288.2,111.9c-0.6,0.6-1.2,1.2-1.8,1.8c-0.5-0.2-1-0.4-2.6-1C285.9,112.3,287.1,112.1,288.2,111.9z"/>
		<path class="st60" d="M342.7,113.7c0.3-0.6,0.5-1.2,0.9-2c1.2,2,1.6,3.4-0.9,3.8c-0.5-0.4-0.6-0.8-0.5-1.2
			C342.4,114,342.6,113.7,342.7,113.7z"/>
		<path class="st41" d="M257.3,115.6c-0.6,0.6-1.2,1.2-1.8,1.8c0-1.1,0-2.2,0-5.5C256.8,114.4,257,115,257.3,115.6z"/>
		<path class="st41" d="M337.3,113.7c0,0.6,0,1.2,0,1.8c-0.6,0.7-1.2,0.7-1.8,0c-0.6-0.6-1.2-1.2-1.8-1.8c0.6,0,1.2,0,1.8,0
			S336.7,113.7,337.3,113.7z"/>
		<path class="st80" d="M393.6,122.8c-2.7-0.2-1.5-2.3-1.8-3.6C394.5,119.4,393.3,121.5,393.6,122.8z"/>
		<path class="st41" d="M404.5,161c0,0.6,0,1.2,0,1.8c-0.6-0.6-1.2-1.2-1.8-1.8c-0.5-0.4-0.7-0.8-0.5-1.2c0.2-0.4,0.3-0.6,0.5-0.6
			C403.3,159.8,403.9,160.4,404.5,161z"/>
		<path class="st41" d="M233.7,161c0.6-0.6,1.2-1.2,1.8-1.8c0.5,0.6,0.8,1.3,0.8,2.2c-0.5,1.2-1.1,2.1-2.6,1.5
			c-0.5-0.4-0.6-0.8-0.5-1.2C233.4,161.2,233.6,161,233.7,161z"/>
		<path class="st41" d="M402.7,159.2c0,0.6,0,1.2,0,1.8c-0.6-0.6-1.2-1.2-1.8-1.8c-0.5-0.4-0.7-0.8-0.5-1.2c0.2-0.4,0.3-0.6,0.5-0.6
			C401.4,158,402,158.6,402.7,159.2z"/>
		<path class="st41" d="M235.5,161c0-0.6,0-1.2,0-1.8c0.6-0.6,1.2-1.2,1.8-1.8c0.5,0.6,0.8,1.3,0.8,2.2
			C237.7,160.7,237,161.6,235.5,161z"/>
		<path class="st41" d="M393.6,150.1c-0.6,0-1.2,0-1.8,0c-0.6-0.6-1.2-1.2-1.8-1.8c0.6-0.7,1.2-0.7,1.8,0
			C392.4,148.9,393,149.5,393.6,150.1z"/>
		<path class="st41" d="M259.1,141c-0.6,0-1.2,0-1.8,0c-0.4-0.4-0.5-0.8-0.4-1.2c0.1-0.4,0.3-0.6,0.4-0.6c0.6,0,1.2,0,1.8,0
			c0.6-0.6,1.2-0.6,1.8,0c0.5,0.4,0.7,0.8,0.6,1.3c-0.1,0.5-0.2,0.7-0.3,0.7C260.5,141.6,259.8,141.6,259.1,141z"/>
		<path class="st93" d="M242.8,141c0.3-0.6,0.5-1.2,0.9-2c1.2,2,1.6,3.4-0.9,3.8c-0.5-0.4-0.6-0.8-0.5-1.2
			C242.5,141.2,242.6,141,242.8,141z"/>
		<path class="st41" d="M250.1,331.7c0,0.6,0,1.2,0,1.8c-0.6-0.6-1.2-1.2-1.8-1.8c0-0.6,0-1.2,0-1.8
			C249.9,329.5,250.5,330.1,250.1,331.7z"/>
		<path class="st41" d="M406.3,313.6c0.6,0,1.2,0,1.8,0c-0.6,0.6-1.2,1.2-1.8,1.8c-0.6,0.7-1.3,0.8-2,0.3c-0.4-0.7-0.4-1.5-0.1-2.3
			C404.9,312.9,405.6,313,406.3,313.6z"/>
		<path class="st41" d="M246.4,146.4c1.2,0,2.4,0,3.6,0c0.1,0.4,0.2,0.8,0.3,1.2c-0.4,0.8-1,1.2-1.8,1.5c-0.8,0-1.6-0.2-2.4-0.6
			C245.7,147.8,245.7,147.1,246.4,146.4z"/>
		<path class="st41" d="M230.1,313.6c0.6,0,1.2,0,1.8,0c1.7-0.5,2.2,0.4,2.1,1.9c-0.7,0.6-1.5,0.6-2.1-0.1
			C231.3,314.8,230.7,314.2,230.1,313.6z"/>
		<path class="st41" d="M250.1,146.4c0-0.6,0-1.2,0-1.8c0.6-0.6,1.3-0.9,2.1-0.9c0.8,0.1,1.5,0.4,2,1.1c0,1.4-0.8,2.2-2,2.5
			C251.3,147.4,250.6,147.1,250.1,146.4z"/>
		<path class="st60" d="M409.9,322.7c0.6,0,1.2,0,1.8,0c-0.6,0.6-1.2,1.2-1.8,1.8c-0.6,0-1.2,0-1.8,0
			C408.7,323.9,409.3,323.3,409.9,322.7z"/>
		<path class="st41" d="M231.9,326.3c-0.6,0.6-1.2,1.2-1.8,1.8c-0.6,0.6-1.2,0.6-1.8,0c-0.5-0.4-0.6-0.8-0.5-1.2
			c0.2-0.4,0.3-0.6,0.5-0.6C229.5,326.3,230.7,326.3,231.9,326.3z"/>
		<path class="st41" d="M224.6,306.3c0.6,0,1.2,0,1.8,0c0.6,0.4,0.9,1,0.9,1.8c-0.1,0.7-0.4,1.3-0.9,1.9c-0.6-0.6-1.2-1.2-1.8-1.8
			c-0.5-0.4-0.6-0.8-0.5-1.2C224.3,306.5,224.5,306.3,224.6,306.3z"/>
		<path class="st41" d="M395.4,153.7c0-0.6,0-1.2,0-1.8c0.6,0.6,1.2,1.2,1.8,1.8c0.5,0.4,0.7,0.8,0.5,1.2c-0.2,0.4-0.3,0.6-0.5,0.6
			C396.6,154.9,396,154.3,395.4,153.7z"/>
		<path class="st41" d="M389.9,329.9c0,0.6,0,1.2,0,1.8c-0.6,0.6-1.2,1.2-1.8,1.8c-0.6-0.6-0.9-1.3-0.9-2.2
			C387.8,330.2,388.4,329.3,389.9,329.9z"/>
		<path class="st41" d="M391.8,148.3c-0.6,0-1.2,0-1.8,0s-1.2,0-1.8,0c-0.5-0.4-0.6-0.8-0.5-1.2c0.2-0.4,0.3-0.6,0.5-0.6
			C389.5,146.7,391.6,145.5,391.8,148.3z"/>
		<path class="st41" d="M415.4,304.5c0-0.6,0-1.2,0-1.8s0-1.2,0-1.8c0.6,0,1.2,0,1.8,0C416.9,302.2,418.1,304.3,415.4,304.5z"/>
		<path class="st41" d="M239.2,324.5c0.6-0.6,1.2-1.2,1.8-1.8c1.7-0.5,2.2,0.4,2.1,1.9c-0.7,0.6-1.5,0.6-2.1-0.1
			C240.4,324.5,239.8,324.5,239.2,324.5z"/>
		<path class="st41" d="M388.1,146.4c0,0.6,0,1.2,0,1.8c-0.6-0.6-1.2-1.2-1.8-1.8c0-0.6,0-1.2,0-1.8
			C386.9,145.2,387.5,145.8,388.1,146.4z"/>
		<path class="st41" d="M370,135.5c-1.4-0.3-3.5,0.9-3.6-1.8C367.7,134,369.8,132.8,370,135.5z"/>
		<path class="st41" d="M362.7,133.7c0-0.6,0-1.2,0-1.8c1.4,0.3,3.5-0.9,3.6,1.8C365.1,133.7,363.9,133.7,362.7,133.7z"/>
		<path class="st90" d="M382.7,357.2c0.6,0.6,1.2,1.2,1.8,1.8c-1.4-0.3-3.5,0.9-3.6-1.8C381.5,356.5,382.1,356.5,382.7,357.2z"/>
		<path class="st41" d="M228.3,166.4c0.6,0,1.2,0,1.8,0c0.4,0.4,0.6,0.8,0.6,1.3c0,0.5-0.1,0.7-0.2,0.7c-0.6,0.5-1.3,0.8-2.1,0.9
			c-0.8-0.1-1.4-0.5-1.9-1.1C227.1,167.6,227.7,167,228.3,166.4z"/>
		<path class="st60" d="M235.5,331.7c0-0.6,0-1.2,0-1.8c0.6,0.6,1.2,1.2,1.8,1.8c0.5,0.4,0.6,0.8,0.5,1.2c-0.2,0.4-0.3,0.6-0.5,0.6
			C236.7,332.9,236.1,332.3,235.5,331.7z"/>
		<path class="st41" d="M239.2,155.5c0.6-0.6,1.2-1.2,1.8-1.8c0.3,0.2,0.5,0.5,0.8,0.7c0.2,0.7,0.3,1.3,0.2,2
			c-0.3,0.7-0.7,1.2-1.3,1.5c-0.7,0.1-1.4-0.1-1.9-0.6C238.4,156.7,238.6,156,239.2,155.5z"/>
		<path class="st41" d="M373.6,342.6c-0.6,0-1.2,0-1.8,0c-0.8,0.9-1.6,0.8-2.2-0.2c0.6-2.5,1.9-3,4.1-1.6c0.4,0.4,0.5,0.8,0.4,1.2
			C373.9,342.4,373.7,342.6,373.6,342.6z"/>
		<path class="st41" d="M219.2,328.1c0-0.6,0-1.2,0-1.8c1.2,0,2.4,0,3.6,0C222.7,329,220.6,327.8,219.2,328.1z"/>
		<path class="st41" d="M406.3,164.6c0.6,0,1.2,0,1.8,0c0.6,0.6,1.2,1.2,1.8,1.8c-0.6,0.7-1.2,0.7-1.8,0
			C407.5,165.8,406.9,165.2,406.3,164.6z"/>
		<path class="st41" d="M397.2,155.5c0-0.6,0-1.2,0-1.8c0.6,0.6,1.2,1.2,1.8,1.8c0.5,0.4,0.7,0.8,0.5,1.2c-0.2,0.4-0.3,0.6-0.5,0.6
			C398.4,156.7,397.8,156.1,397.2,155.5z"/>
		<path class="st41" d="M388.1,331.7c0,0.6,0,1.2,0,1.8c-0.6,0-1.2,0-1.8,0c-0.6,0-1.2,0-1.8,0C384.5,330.5,386,330.6,388.1,331.7z"
			/>
		<path class="st93" d="M233.7,130.1c-0.6,0-1.2,0-1.8,0c0.4-2.5,1.8-2.1,3.8-0.9C234.9,129.6,234.3,129.8,233.7,130.1z"/>
		<path class="st96" d="M257.3,364.4c1.2,0,2.4,0,3.6,0c-0.2,2.7-2.3,1.5-3.6,1.8C257.3,365.6,257.3,365,257.3,364.4z"/>
		<path class="st41" d="M370,342.6c0.6,0,1.2,0,1.8,0c-0.2,2.7-2.3,1.5-3.6,1.8c0-0.6,0-1.2,0-1.8c0.3-0.2,0.6-0.4,0.9-0.6
			C369.4,342.2,369.7,342.4,370,342.6z"/>
		<path class="st24" d="M340.9,102.8c0-0.6,0-1.2,0-1.8c1.4,0.3,3.5-0.9,3.6,1.8c-0.6,0.6-1.2,0.6-1.8,0
			C342.1,102.8,341.5,102.8,340.9,102.8z"/>
		<path class="st97" d="M306.4,364.4c0,1.2,0,2.4,0,3.6c-2.7-0.2-1.5-2.3-1.8-3.6C305.2,364.4,305.8,364.4,306.4,364.4z"/>
		<path class="st41" d="M273.7,366.3c0.6,0.6,1.2,1.2,1.8,1.8c-0.6,0-1.2,0-1.8,0c-0.6,0.6-1.2,0.6-1.8,0
			C272.5,367.5,273.1,366.9,273.7,366.3z"/>
		<path class="st41" d="M241,324.5c0.6,0,1.2,0,1.8,0c1.6-0.4,2.2,0.2,1.8,1.8c-0.6,0-1.2,0-1.8,0
			C242.2,325.7,241.6,325.1,241,324.5z"/>
		<path class="st41" d="M426.3,279.1c0.6,0,1.2,0,1.8,0c-0.3,1.4,0.9,3.5-1.8,3.6C426.3,281.5,426.3,280.3,426.3,279.1z"/>
		<path class="st41" d="M420.8,144.6c-2.7-0.2-1.5-2.3-1.8-3.6C421.7,141.2,420.5,143.3,420.8,144.6z"/>
		<path class="st41" d="M239.2,155.5c0,0.6,0,1.2,0,1.8c0.5,1.7-0.2,2.2-1.8,1.8c0-0.6,0-1.2,0-1.8
			C238,156.7,238.6,156.1,239.2,155.5z"/>
		<path class="st41" d="M310,371.7c0-0.6,0-1.2,0-1.8c0.6-0.6,1.2-0.6,1.8,0c0.6,0.6,1.2,1.2,1.8,1.8c-0.6,0.6-1.2,0.6-1.8,0
			C311.2,371.7,310.6,371.7,310,371.7z"/>
		<path class="st7" d="M340.9,369.9c1.4,0.3,3.5-0.9,3.6,1.8C343.1,371.4,341,372.6,340.9,369.9z"/>
		<path class="st81" d="M353.6,373.5c-2.7-0.2-1.5-2.3-1.8-3.6C355.2,369.7,354.7,371.5,353.6,373.5z"/>
		<path class="st41" d="M271.9,346.3c0-0.6,0-1.2,0-1.8c1.2-1.1,2.4-1,3.6,0c-0.6,0.6-1.2,1.2-1.8,1.8
			C273.1,346.3,272.5,346.3,271.9,346.3z"/>
		<path class="st98" d="M419,320.8c1.2,0,2.4,0,3.6,0c-0.8,0.6-1.5,1.2-2.3,1.8C419.9,322,419.5,321.4,419,320.8z"/>
		
			<ellipse transform="matrix(0.8507 -0.5257 0.5257 0.8507 -22.993 233.7527)" class="st41" cx="399.9" cy="157.3" rx="0.8" ry="2.1"/>
		<path class="st41" d="M261,126.5c0.6-0.6,1.2-1.2,1.8-1.8c0,0.6,0,1.2,0,1.8c0.5,0.4,0.7,0.8,0.5,1.2c-0.2,0.4-0.3,0.6-0.5,0.6
			C262.2,127.7,261.6,127.1,261,126.5z"/>
		<path class="st41" d="M408.1,166.4c0.6,0,1.2,0,1.8,0c0.6,0.6,1.2,1.2,1.8,1.8c-0.6,0.6-1.2,0.6-1.8,0
			C409.3,167.6,408.7,167,408.1,166.4z"/>
		<path class="st41" d="M304.6,375.3c1.4,0.3,3.5-0.9,3.6,1.8c-0.6,0.8-1.2,0.8-1.8,0C305.8,376.5,305.2,375.9,304.6,375.3z"/>
		<path class="st95" d="M409.9,344.5c0.6,0,1.2,0,1.8,0c-0.6,0.6-1.2,1.2-1.8,1.8c-0.6,0-1.2,0-1.8,0
			C408.7,345.7,409.3,345.1,409.9,344.5z"/>
		<path class="st41" d="M306.4,377.2c0.6,0,1.2,0,1.8,0c0.5,0.2,1,0.4,2.6,1c-2.1,0.4-3.3,0.6-4.4,0.8
			C306.4,378.4,306.4,377.8,306.4,377.2z"/>
		<path class="st41" d="M277.3,106.5c0.6,0,1.2,0,1.8,0c-0.6,0.6-1.2,1.2-1.8,1.8C277.3,107.7,277.3,107.1,277.3,106.5z"/>
		<path class="st41" d="M399,322.7c-0.6,0.6-1.2,1.2-1.8,1.8c-0.2-0.2-0.4-0.5-0.5-0.7c0-0.6,0.2-1.2,0.7-1.6c0.3,0,0.6-0.1,0.9-0.1
			C398.5,322.3,398.8,322.5,399,322.7z"/>
		<path class="st99" d="M302.7,108.3c0-0.6,0-1.2,0-1.8c0.6,0.6,1.2,1.2,1.8,1.8C304,108.3,303.3,108.3,302.7,108.3z"/>
		<path class="st41" d="M375.4,111.9c-0.6-0.6-1.2-1.2-1.8-1.8C374.2,110.7,374.8,111.3,375.4,111.9z"/>
		<path class="st24" d="M342.7,113.7c0,0.6,0,1.2,0,1.8c-0.6-0.6-1.2-1.2-1.8-1.8C341.5,113.7,342.1,113.7,342.7,113.7z"/>
		<path class="st41" d="M397.2,324.5c-0.6,0.6-1.2,1.2-1.8,1.8C394.8,324.4,395.6,324.1,397.2,324.5z"/>
		<circle class="st2" cx="227.4" cy="327.2" r="1.3"/>
		<path class="st85" d="M335.4,115.6c0.6,0,1.2,0,1.8,0c0.4,0.4,0.5,0.8,0.4,1.2c-0.1,0.4-0.3,0.6-0.4,0.6
			C336.7,116.8,336,116.2,335.4,115.6z"/>
		<path class="st24" d="M337.3,117.4c0-0.6,0-1.2,0-1.8c0.6,0.6,1.2,1.2,1.8,1.8C338.5,117.4,337.9,117.4,337.3,117.4z"/>
		<circle class="st41" cx="269.1" cy="118.3" r="1.3"/>
		<path class="st41" d="M351.8,117.4c0.6,0,1.2,0,1.8,0c0.5,0.4,0.6,0.8,0.5,1.2c-0.2,0.4-0.3,0.6-0.5,0.6c-0.6,0.6-1.2,0.6-1.8,0
			C351.8,118.6,351.8,118,351.8,117.4z"/>
		<path class="st89" d="M362.7,119.2c0.6-0.6,1.2-1.2,1.8-1.8C363.9,118,363.3,118.6,362.7,119.2z"/>
		<path class="st100" d="M351.8,119.2c0.6,0,1.2,0,1.8,0c0,0.6,0,1.2,0,1.8C353,120.4,352.4,119.8,351.8,119.2z"/>
		<path class="st80" d="M389.9,119.2c-0.6,0.6-1.2,1.2-1.8,1.8C388.7,120.4,389.3,119.8,389.9,119.2z"/>
		<path class="st60" d="M237.3,333.6c0-0.6,0-1.2,0-1.8c0.6,0.6,1.2,1.2,1.8,1.8C238.6,333.6,238,333.6,237.3,333.6z"/>
		<path class="st41" d="M371.8,124.6c-0.6,0-1.2,0-1.8,0c0.6-0.6,1.2-1.2,1.8-1.8C371.8,123.4,371.8,124,371.8,124.6z"/>
		<path class="st41" d="M379,122.8c0.6,0,1.2,0,1.8,0c-0.6,0.6-1.2,1.2-1.8,1.8C379,124,379,123.4,379,122.8z"/>
		<path class="st24" d="M422.6,331.7c0.6,0.6,1.2,1.2,1.8,1.8c-0.6,0-1.2,0-1.8,0C422.6,332.9,422.6,332.3,422.6,331.7z"/>
		<path class="st101" d="M250.1,333.6c0.6,0.6,1.2,1.2,1.8,1.8C251.3,334.8,250.7,334.2,250.1,333.6z"/>
		<path class="st80" d="M388.1,124.6c-0.6,0-1.2,0-1.8,0c0.6-0.6,1.2-1.2,1.8-1.8C388.1,123.4,388.1,124,388.1,124.6z"/>
		<path class="st41" d="M379,126.5c-0.6-0.6-1.2-1.2-1.8-1.8c0.6,0,1.2,0,1.8,0C379,125.3,379,125.9,379,126.5z"/>
		<path class="st41" d="M399,333.6c0,0.6,0,1.2,0,1.8c-0.6,0-1.2,0-1.8,0C397.8,334.8,398.4,334.2,399,333.6z"/>
		<path class="st24" d="M420.8,335.4c0.6-0.6,1.2-1.2,1.8-1.8C422,334.2,421.4,334.8,420.8,335.4z"/>
		<path class="st24" d="M230.2,335.2c0.5,0.4,1,0.8,1.5,1.3c-0.2,0.2-0.4,0.4-0.6,0.6c-0.4-0.5-0.8-1-1.3-1.5
			C230,335.4,230.1,335.3,230.2,335.2z"/>
		<path class="st41" d="M400.8,126.5c-0.6,0-1.2,0-1.8,0c0.4-0.5,0.8-1,1.2-1.5C400.4,125.5,400.6,126,400.8,126.5z"/>
		<circle class="st41" cx="263.7" cy="127.4" r="1.3"/>
		<path class="st102" d="M242.8,339c-0.6,0.6-1.2,1.2-1.8,1.8C241.6,340.2,242.2,339.6,242.8,339z"/>
		<path class="st41" d="M346.3,128.3c0-0.6,0-1.2,0-1.8c0.6,0,1.2,0,1.8,0c0,0.6,0,1.2,0,1.8C347.6,128.7,346.9,128.7,346.3,128.3z"
			/>
		<path class="st41" d="M246.4,130.1c-0.6,0-1.2,0-1.8,0c0-0.6,0-1.2,0-1.8c0.6,0,1.2,0,1.8,0c0.6,0.4,0.8,0.8,0.6,1.2
			C246.8,129.9,246.6,130.1,246.4,130.1z"/>
		<path class="st41" d="M384.5,128.3c0.6,0,1.2,0,1.8,0c0,0.6,0,1.2,0,1.8C385.7,129.5,385.1,128.9,384.5,128.3z"/>
		<path class="st43" d="M373.6,342.6c0-0.6,0-1.2,0-1.8c0.6,0,1.2,0,1.8,0C374.8,341.4,374.2,342,373.6,342.6z"/>
		<path class="st41" d="M248.2,133.7c-0.6-0.6-1.2-1.2-1.8-1.8c0.6,0,1.2,0,1.8,0C248.2,132.5,248.2,133.1,248.2,133.7z"/>
		<path class="st41" d="M409.9,133.7c0-0.6,0-1.2,0-1.8c0.6,0,1.2,0,1.8,0C411.1,132.5,410.5,133.1,409.9,133.7z"/>
		<path class="st28" d="M235.3,137.2c0.4-0.5,0.8-1,1.3-1.5c0.2,0.2,0.4,0.4,0.6,0.6c-0.5,0.4-1,0.8-1.5,1.3
			C235.6,137.4,235.5,137.3,235.3,137.2z"/>
		<path class="st62" d="M393.6,137.4c0.6-0.6,1.2-1.2,1.8-1.8C394.8,136.2,394.2,136.8,393.6,137.4z"/>
		<path class="st103" d="M261,139.2c-0.6,0-1.2,0-1.8,0c0.6-0.6,1.2-1.2,1.8-1.8C261,138,261,138.6,261,139.2z"/>
		<circle class="st41" cx="385.4" cy="345.4" r="1.3"/>
		<path class="st62" d="M391.8,137.4c0.6,0,1.2,0,1.8,0c-0.4,0.5-0.8,1-1.2,1.5C392.2,138.4,392,137.9,391.8,137.4z"/>
		<path class="st2" d="M257.3,139.2c0,0.6,0,1.2,0,1.8c-0.6,0-1.2,0-1.8,0C256.1,140.4,256.7,139.8,257.3,139.2z"/>
		<path class="st24" d="M242.8,141c0,0.6,0,1.2,0,1.8c-0.6,0-1.2,0-1.8,0C241.6,142.2,242.2,141.6,242.8,141z"/>
		<path class="st2" d="M253.7,141c0,0.6,0,1.2,0,1.8c-0.3,0.2-0.6,0.4-0.9,0.7c-0.3-0.2-0.6-0.4-0.9-0.7
			C252.5,142.2,253.1,141.6,253.7,141z"/>
		<path class="st41" d="M380.9,142.8c0-0.6,0-1.2,0-1.8c0.6,0.6,1.2,1.2,1.8,1.8C382.1,142.8,381.5,142.8,380.9,142.8z"/>
		<path class="st2" d="M399,348.1c-0.6,0.6-1.2,1.2-1.8,1.8C396.6,348.1,397.2,347.5,399,348.1z"/>
		<path class="st24" d="M219.2,142.8c0,0.6,0,1.2,0,1.8c-0.6,0-1.2,0-1.8,0C218,144,218.6,143.4,219.2,142.8z"/>
		<path class="st2" d="M251.9,144.6c-0.6,0-1.2,0-1.8,0c0.6-0.6,1.2-1.2,1.8-1.8c0.6,0.4,0.8,0.8,0.6,1.2
			C252.3,144.4,252.1,144.6,251.9,144.6z"/>
		<path class="st41" d="M266.4,349.9c0,0.6,0,1.2,0,1.8c-0.6-0.6-1.2-1.2-1.8-1.8C265.2,349.9,265.8,349.9,266.4,349.9z"/>
		<path class="st55" d="M215.5,293.6c0.6,0,1.2,0,1.8,0c0.4,0.4,0.5,0.8,0.4,1.2c-0.1,0.4-0.3,0.6-0.4,0.6
			C216.8,294.8,216.2,294.2,215.5,293.6z"/>
		<path class="st41" d="M400.8,142.8c0.6,0.6,1.2,1.2,1.8,1.8C402,144,401.4,143.4,400.8,142.8z"/>
		<path class="st41" d="M235.5,146.4c0.4-0.5,0.8-1,1.2-1.5c0.2,0.5,0.4,1,0.6,1.5C236.7,146.4,236.1,146.4,235.5,146.4z"/>
		<path class="st2" d="M246.4,146.4c0,0.6,0,1.2,0,1.8c-0.3,0.2-0.6,0.4-0.9,0.7c-0.3-0.2-0.6-0.4-0.9-0.7
			C245.2,147.7,245.8,147.1,246.4,146.4z"/>
		<path class="st2" d="M244.6,150.1c-0.6,0-1.2,0-1.8,0c0.6-0.6,1.2-1.2,1.8-1.8c0.6,0.4,0.8,0.8,0.6,1.2
			C245,149.9,244.8,150.1,244.6,150.1z"/>
		<path class="st24" d="M417.2,150.1c0,0.6,0,1.2,0,1.8c-0.6,0-1.2,0-1.8,0C416,151.3,416.6,150.7,417.2,150.1z"/>
		<path class="st41" d="M242.8,151.9c0,0.6,0,1.2,0,1.8c-0.3,0.2-0.6,0.5-0.9,0.7c-0.3-0.2-0.6-0.5-0.9-0.7
			C241.6,153.1,242.2,152.5,242.8,151.9z"/>
		<path class="st24" d="M417.2,151.9c0.6,0,1.2,0,1.8,0c-0.6,0.6-1.2,1.2-1.8,1.8C417.2,153.1,417.2,152.5,417.2,151.9z"/>
		<path class="st3" d="M355.4,355.4c-0.6,0.6-1.2,1.2-1.8,1.8C354.2,356.6,354.8,356,355.4,355.4z"/>
		<path class="st88" d="M362.7,357.2c-0.6-0.6-1.2-1.2-1.8-1.8c0.6,0,1.2,0,1.8,0c0.5,0.4,0.7,0.8,0.5,1.2
			C363,357,362.9,357.2,362.7,357.2z"/>
		<path class="st3" d="M350,357.2c0,0.6,0,1.2,0,1.8c-0.6,0-1.2,0-1.8,0C348.8,358.4,349.4,357.8,350,357.2z"/>
		<path class="st101" d="M224.6,306.3c0,0.6,0,1.2,0,1.8c-0.6-0.6-1.2-1.2-1.8-1.8C223.4,306.3,224,306.3,224.6,306.3z"/>
		<path class="st104" d="M262.8,360.8c0.6-0.6,1.2-1.2,1.8-1.8c0,0.6,0,1.2,0,1.8C264,360.8,263.4,360.8,262.8,360.8z"/>
		<path class="st41" d="M411.7,306.3c0.6,0,1.2,0,1.8,0c-0.6,0.6-1.2,1.2-1.8,1.8c-0.3-0.3-0.5-0.6-0.8-0.9
			C411.2,306.9,411.5,306.6,411.7,306.3z"/>
		<path class="st41" d="M233.7,161c0,0.6,0,1.2,0,1.8c-0.6,0-1.2,0-1.8,0C232.5,162.2,233.1,161.6,233.7,161z"/>
		<path class="st104" d="M261,362.6c0.6-0.6,1.2-1.2,1.8-1.8C262.2,361.4,261.6,362,261,362.6z"/>
		<path class="st41" d="M279.1,360.8c0,0.6,0,1.2,0,1.8c0,0-0.5,0.6-0.5,0.6s-0.8,0-0.8,0c0,0-0.5-0.6-0.5-0.6
			C277.9,362,278.5,361.4,279.1,360.8z"/>
		<path class="st41" d="M411.7,309.9c-0.6-0.6-1.2-1.2-1.8-1.8c0.6-0.8,1.2-0.8,1.8,0C411.7,308.7,411.7,309.3,411.7,309.9z"/>
		<path class="st41" d="M344.5,362.6c0-0.6,0-1.2,0-1.8c0.6,0,1.2,0,1.8,0C345.7,361.4,345.1,362,344.5,362.6z"/>
		<path class="st41" d="M277.3,364.4c-0.6,0-1.2,0-1.8,0c0.6-0.6,1.2-1.2,1.8-1.8c0.2,0.3,0.5,0.6,0.7,0.9
			C277.8,363.8,277.5,364.1,277.3,364.4z"/>
		<path class="st41" d="M226.4,168.2c0.6,0,1.2,0,1.8,0c0.3,0.8,0.1,1.5-0.6,2c-0.4-0.1-0.8-0.2-1.2-0.2
			C226.4,169.5,226.4,168.9,226.4,168.2z"/>
		<path class="st41" d="M409.9,168.2c0.6,0,1.2,0,1.8,0c0,0.6,0,1.2,0,1.8C411.1,169.5,410.5,168.9,409.9,168.2z"/>
		<path class="st41" d="M226.4,171.9c-0.6,0-1.2,0-1.8,0c0.6-0.6,1.2-1.2,1.8-1.8c0.4,0.4,0.5,0.8,0.4,1.2
			C226.7,171.7,226.6,171.9,226.4,171.9z"/>
		<path class="st41" d="M413.6,173.7c0.6,0,1.2,0,1.8,0c0,0.6,0,1.2,0,1.8C414.8,174.9,414.2,174.3,413.6,173.7z"/>
		<path class="st2" d="M221,175.5c-0.6,0.6-1.2,1.2-1.8,1.8C219.8,176.7,220.4,176.1,221,175.5z"/>
		<path class="st41" d="M231.9,315.4c0.6,0,1.2,0,1.8,0c0.5,0.4,0.6,0.8,0.5,1.2c-0.2,0.4-0.3,0.6-0.5,0.6
			C233.1,316.6,232.5,316,231.9,315.4z"/>
		<path class="st41" d="M404.5,315.4c0.6,0,1.2,0,1.8,0c-0.6,0.6-1.2,1.2-1.8,1.8c-0.2-0.3-0.3-0.6-0.5-0.9
			C404.2,316,404.3,315.7,404.5,315.4z"/>
		<path class="st2" d="M219.2,181c-0.6,0-1.2,0-1.8,0c0.6-0.6,1.2-1.2,1.8-1.8c0.2,0.3,0.5,0.6,0.7,0.9
			C219.6,180.4,219.4,180.7,219.2,181z"/>
		<path class="st2" d="M217.4,181c-0.6,0.6-1.2,1.2-1.8,1.8C216.2,182.2,216.8,181.6,217.4,181z"/>
		<path class="st41" d="M404.5,317.2c-0.6,0.6-1.2,1.2-1.8,1.8c-0.1-0.4-0.1-0.8-0.2-1.2C403,317.1,403.6,316.9,404.5,317.2z"/>
		<path class="st41" d="M271.9,368.1c0.6,0,1.2,0,1.8,0c-0.6,0.6-1.2,1.2-1.8,1.8C271.9,369.3,271.9,368.7,271.9,368.1z"/>
		<path class="st98" d="M420.8,319c-0.6-0.6-1.2-1.2-1.8-1.8C419.6,317.8,420.2,318.4,420.8,319z"/>
		<path class="st97" d="M311.8,369.9c-0.6,0-1.2,0-1.8,0c0-0.6,0-1.2,0-1.8C310.6,368.7,311.2,369.3,311.8,369.9z"/>
		<path class="st7" d="M337.3,368.1c0.6,0,1.2,0,1.8,0c0,0.6,0,1.2,0,1.8C338.5,369.3,337.9,368.7,337.3,368.1z"/>
		<path class="st92" d="M424.5,317.2c0,0.6,0,1.2,0,1.8c-0.6,0-1.2,0-1.8,0C423.2,318.4,423.8,317.8,424.5,317.2z"/>
		<path class="st92" d="M433.5,319c-0.6-0.6-1.2-1.2-1.8-1.8C432.3,317.8,432.9,318.4,433.5,319z"/>
		<path class="st41" d="M402.7,319c-0.6,0.6-1.2,1.2-1.8,1.8c-0.1-0.4-0.1-0.8-0.2-1.2C401.1,318.9,401.8,318.7,402.7,319z"/>
		<path class="st41" d="M210.1,197.3c0.6,0,1.2,0,1.8,0c0.4,0.4,0.5,0.8,0.4,1.2c-0.1,0.4-0.3,0.6-0.4,0.6c-0.6,0-1.2,0-1.8,0
			C210.1,198.5,210.1,197.9,210.1,197.3z"/>
		<path class="st92" d="M426.3,319c0.6,0,1.2,0,1.8,0c-0.6,0.6-1.2,1.2-1.8,1.8C426.3,320.2,426.3,319.6,426.3,319z"/>
		<circle class="st41" cx="430.8" cy="210.9" r="1.3"/>
		<path class="st41" d="M400.8,320.8c-0.6,0.6-1.2,1.2-1.8,1.8C398.6,321,399.2,320.4,400.8,320.8z"/>
		<path class="st24" d="M342.7,102.8c0.6,0,1.2,0,1.8,0c0,0.6,0,1.2,0,1.8C343.9,104.1,343.3,103.5,342.7,102.8z"/>
		<path class="st41" d="M355.4,104.7c0,0.6,0,1.2,0,1.8c-0.6-0.6-1.2-1.2-1.8-1.8C354.2,104.7,354.8,104.7,355.4,104.7z"/>
		<path class="st105" d="M275.5,344.5c-1.2,0-2.4,0-3.6,0c-0.2-2.7-2.3-1.5-3.6-1.8c-0.2-2.7-2.3-1.5-3.6-1.8
			c-0.6-0.6-1.2-1.2-1.8-1.8c-0.6-0.6-1.3-1.1-1.8-1.8c-1-2.2-0.1-4.1,0.8-6c2.9-4.1,5.1-8.5,7.1-13.1c2.9-4.8,4.3-10.1,5.1-15.7
			c1-3.4,1-6.9,0.9-10.3c0.5-4.3-1.5-8.7,1-12.9c2.9-3.2,5.6-6.6,7.8-10.2c0.4-1,0.8-2,1.1-3.1c0.2-0.7,0.5-1.3,0.9-1.9
			c0.5-0.9,1-1.7,1.4-2.7c0.3-1.3,0.2-2.7,0.6-3.9c0.7-1.2,1.9-1.9,2.9-2.7c0.5-0.4,1-0.9,1.4-1.3c0.2-0.2,0.4-0.5,0.6-0.7
			c0.5-0.8,0.9-1.7,1.2-2.6c0.4-1.3,0.8-2.5,1.4-3.7c0.3-0.6,0.6-1.2,0.9-1.7c0.5-0.8,1.1-1.5,1.8-2.2c0.6-0.7,1.1-1.5,1.5-2.3
			c0.2-0.6,0.5-1.1,0.8-1.7c0.4-0.9,0.8-1.8,1.2-2.7c0.3-0.7,0.6-1.3,0.9-1.9c0.6-1.3,1.2-2.6,1.7-4c0.3-1.1,0.6-2.2,1-3.3
			c0.3-0.7,0.6-1.4,0.9-2.1c1.6-3.1,2.3-6.7,4.4-9.6c1.6-2.2,2.7-4.7,3.9-7.2c0.6-1.6,1.6-3,1.1-4.9c-0.6-1.7-2.3-2.4-3.3-3.8
			c-1.1-1.5-1.6-3.2-0.7-5c1.1-1.6,2.7-2.2,4.5-2.7c3.9-1,7.7-2.3,11.8-2.4c0.9,0.2,1.7,0.6,2.4,1.2c2,3.5,5.3,3.7,8.8,3.6
			c7.8,0,15.6,0,23.5,0c1.4,0,2.8,0.2,5.4,0.5c-2.8,3.3-4.8,5.7-7.1,8.5c0.6,1.6,1.2,3.5,1.9,5.5c-0.5,1.9-1,4-1.6,6.2
			c-0.6,2.5-1.8,4.9-1.7,7.4c0.1,2.6-1,4.4-2,6.5c-1.2,8.1,4.2,13.3,8.2,19.2c0.6,0.9,1.3,1.9,2.1,2.6c0.6,0.4,1.2,0.9,1.8,1.4
			c1.6,1.2,3.4,2.2,5.2,3.1c8.7,5.4,12.6,13.3,12.3,23.4c-0.1,5.3-1.7,10.3-2.4,15.5c-1.7,4.5-0.8,9.3-1.5,13.9
			c-0.6,3.1-1.4,6.1-1.9,9.2c-0.4,1.7-1,3.3-1.9,4.8c-0.6,1.1-1.4,2.1-2.1,3.1c-2.1,3.8-4.6,7.4-6.3,11.4c-0.4,2.5-1,4.9-2.5,6.9
			c-1.4,0.3-3.5-0.9-3.6,1.8c-1.1,0.2-2.2,0.3-3.3,0.6c-1.3,0.3-2.6,0.8-4,1.2c-2,0.6-4,1.1-6,1.9c-0.6,0.2-0.9,1.2-1.3,1.8
			c-1.8,0-3.6,0-5.4,0c-0.4,0.8-1.2,1.2-1.8,1.8c-1.2,0-2.4,0-3.6,0c-2.4,0-4.8,0-7.3,0c-0.6,0.7-1.3,1.1-1.8,1.8
			c-7.3,0-14.5,0-21.8,0c-0.7-0.6-1.4-1.7-2.2-1.7c-2.6-0.2-5.3,0.1-7.9-0.2c-2.1-0.2-4.2-1.1-6.3-1.7c-1.2,0-2.4,0-3.6,0
			c0-0.3,0.1-0.8,0-0.8c-3-1-6-1.9-9.1-2.8C277.9,345.7,276.7,345.1,275.5,344.5z"/>
		<path class="st106" d="M368.1,251.8c-0.6,0-1.2,0-1.8,0c-0.6-0.6-1.2-1.3-1.8-1.8c-2.1-2.4-1.5-7-6.2-7.4
			c-0.8-0.1-1.4-2.2-1.9-3.5c-1.6-3.7-1.3-7.2,0.9-10.9c3.7,4.2,10.5,9.2,17.1,10.6c11.5,2.5,18.1,10.5,24.8,19
			c2.4,3,3.2,6.6,5.2,9.7c-9.1,17.3-5.8,29.9,7.4,38.9c0,0.6,0,1.2,0,1.8c-0.6,0-1.2,0-1.8,0c-1.2,1.8-2.4,3.6-3.6,5.4
			c-0.6,0-1.2,0-1.8,0c-5.7,2.6-7.4-2.2-9.6-5.4c-2.1-3-3.3-6.5-3.5-10.2c-0.1-1.4-0.1-2.8,0.1-4.2c8-20.3-1.4-29-19-39.3
			C370.9,253.7,369.5,252.8,368.1,251.8z"/>
		<path class="st107" d="M351.8,155.5c-1.6,3-1.6,3-0.5,5.8c-1.6,3-3.3,6-4.9,9.1c-1.6,3.2-3,6.4-5.1,10.7c-1.6,1.2-3.6-1.2-5.9-2
			c-0.4-0.1-0.8-0.3-1.2-0.4c-0.7-0.6-1.1-1.3-1.4-2.1c-0.2-3,0.1-6,0.3-9.6c5.6-3.9,6.6-13.6,16-13.9
			C350.6,153.3,351.4,154.2,351.8,155.5z"/>
		<path class="st105" d="M351.8,155.5c-0.6-0.6-1.2-1.2-1.8-1.8c-2.3-3.7-0.3-6,2.7-8c0.9-0.2,1.9-0.1,2.8,0.2
			c0.3,0.4,0.5,0.8,0.8,1.2c-0.3,0.4-0.5,0.8-0.8,1.2c-0.6,1.8-1.2,3.6-1.8,5.4C353,154.3,352.3,154.8,351.8,155.5z"/>
		<path class="st105" d="M331.8,184.6c-0.3,1.4,0.9,3.5-1.8,3.6c-0.6,0.7-1.3,0.8-2.1,0.3c-0.7-1.9,0.2-3.2,1.6-4.3
			C330.3,184,331.1,184.1,331.8,184.6z"/>
		<path class="st105" d="M355.4,146.4c-0.6,0-1.2,0-1.8,0c-1-1.8,0.1-3,1.4-4c0.8-0.3,1.5-0.1,2.2,0.4c0,1.2,0,2.4,0,3.6
			C356.6,147.1,356,147.1,355.4,146.4z"/>
		<path class="st108" d="M335.4,179.1c-0.6,0.6-1.2,1.2-1.8,1.8c-0.7,0.7-1.3,0.7-2.1,0.1c-0.3-1.5,0.4-2.3,1.7-2.8
			C334.1,178.3,334.8,178.6,335.4,179.1z"/>
		<path class="st108" d="M357.2,142.8c-0.6,0-1.2,0-1.8,0c-0.5-1.5,0.3-2.2,1.5-2.7c0.8-0.1,1.6,0.2,2.1,0.9
			C358.5,141.6,357.8,142.2,357.2,142.8z"/>
		<path class="st108" d="M359.1,135.5c0.6,0,1.2,0,1.8,0c-0.3,1.4,0.9,3.5-1.8,3.6c0,0-0.7-0.6-0.7-0.6c-0.3-0.5-0.4-1.1-0.3-1.7
			C358.2,136.3,358.5,135.8,359.1,135.5z"/>
		<path class="st108" d="M331.8,184.6c-0.6,0-1.2,0-1.8,0c-0.5-1.5,0.2-2.2,1.5-2.7c0.8,0,1.6,0.2,2.1,0.8
			C333,183.4,332.4,184,331.8,184.6z"/>
		<path class="st105" d="M359.1,141c-0.6,0-1.2,0-1.8,0c-0.4-0.4-0.6-0.9-0.5-1.3c0.1-0.5,0.2-0.7,0.3-0.7c0.7-0.5,1.4-0.4,2,0.3
			C359.1,139.8,359.1,140.4,359.1,141z"/>
		<path class="st0" d="M355.4,146.4c0.6,0,1.2,0,1.8,0c-0.6,0.6-1.2,1.2-1.8,1.8C355.4,147.7,355.4,147.1,355.4,146.4z"/>
		<path class="st0" d="M351.8,155.5c0.6-0.6,1.2-1.2,1.8-1.8C353,154.3,352.4,154.9,351.8,155.5z"/>
		<path class="st105" d="M333.6,182.8c-0.6,0-1.2,0-1.8,0c-0.4-0.4-0.5-0.8-0.4-1.2c0.1-0.4,0.3-0.6,0.4-0.6c0.6,0,1.2,0,1.8,0
			C333.6,181.6,333.6,182.2,333.6,182.8z"/>
		<path class="st41" d="M419,182.8c0.6,0,1.2,0,1.8,0c0,0.6,0,1.2,0,1.8C420.2,184,419.6,183.4,419,182.8z"/>
		<path class="st105" d="M328.2,188.2c0.6,0,1.2,0,1.8,0c0,0.6,0,1.2,0,1.8c-0.6,0-1.2,0-1.8,0c-0.4-0.4-0.5-0.8-0.4-1.2
			C327.9,188.4,328,188.2,328.2,188.2z"/>
		<path class="st42" d="M353.6,373.5c-0.3-1.4,0.9-3.5-1.8-3.6c0-3.7-3.1-7-1.8-10.9c1.2,0.6,2.4,1.2,3.6,1.8c0,1.2,0,2.4,0,3.6
			c1.4,0.8,0.6,2.7,1.8,3.6c0,1.2,0,2.4,0,3.6C354.8,372.3,354.2,372.9,353.6,373.5z"/>
		<path class="st79" d="M362.7,357.2c0-0.6,0-1.2,0-1.8c1.2,0.6,2.4,1.2,3.6,1.8c0.6,0.2,1,0.6,1.2,1.2c0.3,0.5,0.5,1,0.6,1.6
			c0,0,0.1,0.8,0.1,0.8c0.7,1.8-1.7,4.6,1.8,5.4c0,1.1,0,2.2,0,3.6c-3-1.2-4-2.9-3.6-5.4c-0.6-0.6-1.1-1.3-1.8-1.8
			c0-0.6,0-1.2,0-1.8c-0.6-0.6-1.1-1.3-1.8-1.8C362.7,358.4,362.7,357.8,362.7,357.2z"/>
		<path class="st60" d="M355.4,364.4c1.6-0.6,3.2-1.3,5.5-2.2c-1.3,3.4-3,4.4-5.5,4c-0.5-0.4-0.7-0.8-0.5-1.2
			C355.1,364.6,355.2,364.4,355.4,364.4z"/>
		<path class="st81" d="M355.4,364.4c0,0.6,0,1.2,0,1.8c0,0.6,0,1.2,0,1.8c-2.7-0.2-1.5-2.3-1.8-3.6
			C354.2,364.4,354.8,364.4,355.4,364.4z"/>
		<path class="st88" d="M362.7,359c0.6,0.6,1.2,1.2,1.8,1.8C363.9,360.2,363.3,359.6,362.7,359z"/>
		<path class="st88" d="M364.5,362.6c0.6,0.6,1.2,1.2,1.8,1.8C365.7,363.8,365.1,363.2,364.5,362.6z"/>
		<path class="st41" d="M404.5,333.6c0.6-0.6,1.2-1.2,1.8-1.8C405.7,332.3,405.1,332.9,404.5,333.6z"/>
		<path class="st93" d="M250.1,353.5c1.2-1.8,2.4-3.6,3.6-5.4c0,0.9,0,1.7,0,2.8c1.1,0.5,2.3,1,3.6,1.6c-0.1,0.8-0.2,1.6-0.2,2.3
			c-0.7,0.2-1.3,0.6-1.7,0.5C253.6,354.8,251.8,354.1,250.1,353.5z"/>
		<path class="st96" d="M261,357.2c-0.6,0.6-1.2,1.2-1.8,1.8C259.8,358.4,260.4,357.8,261,357.2z"/>
		<path class="st96" d="M259.1,360.8c-0.6,0.6-1.2,1.2-1.8,1.8C257.9,362,258.5,361.4,259.1,360.8z"/>
		<path class="st2" d="M330,353.5c0.6-0.6,1.2-1.2,1.8-1.8C331.2,352.3,330.6,352.9,330,353.5z"/>
		<path class="st2" d="M279.1,362.6c2.6,0.5,2.4,2.2,1,3.4c-1,0.8-2.7,0.6-2.8-1.6C277.9,363.8,278.5,363.2,279.1,362.6z"/>
		<path class="st106" d="M277.3,279.1c-0.3,0.7-0.7,1.5-1.2,2.6c2,2.9,1,6.6,1.2,10.2c-3.8,1.5-6.4-1-8.8-3.2
			c-18-17.1-37.3-32.5-59.4-44.2c-1.4-0.7-2.3-1.9-2.7-3.5c-0.6-1.2-1.2-2.4-1.8-3.6c0.6-0.7,1.7-1.5,1.7-2.2
			c0.2-3.5,0.1-7,0.1-10.5c3.7-2.6,6.2,0.6,9,2c16,8.3,28.6,21.2,42.3,32.7c4.6,3.9,9.6,7.4,14.2,11.3
			C274.6,272.7,278.4,274.4,277.3,279.1z"/>
		<path class="st109" d="M206.5,240.9c8.5,4.3,17.1,8.4,24.8,14.3c3.6,2.7,7.4,5.4,10.9,8.1c10.2,7.9,20.7,15.4,29.3,25.2
			c1.4,1.6,3.8,2.2,5.8,3.2c0,2.9,0.1,5.8-0.1,8.7c-0.1,0.8-1.1,1.5-1.7,2.2c-2.4,1.1-4.1-0.5-5.6-1.8c-17-14.9-36.3-26.4-55.9-37.4
			c-2.9-1.6-5.7-3.4-7.5-6.2c-0.6-0.6-1.2-1.2-1.8-1.8c0-4.1-0.1-8.2,0.1-12.3C204.8,242.4,205.9,241.7,206.5,240.9z"/>
		<path class="st2" d="M399,348.1c-0.6,0.6-1.2,1.2-1.8,1.8c-2.7-0.2-1.5-2.3-1.8-3.6c0.6,0,1.2,0,1.8,0
			C397.8,346.9,398.4,347.5,399,348.1z"/>
		<path class="st110" d="M366.3,359c0-0.6,0-1.2,0-1.8c0-1.2,0-2.4,0-3.6c1.2,0.6,2.4,1.2,3.6,1.8c-0.7,1.8,1.7,4.6-1.8,5.4
			C367.6,360.1,366.9,359.6,366.3,359z"/>
		<path class="st41" d="M373.6,359c-0.6-0.5-1.3-0.9-1.8-1.4c-0.7-0.7-1.2-1.5-1.8-2.2c0.9-0.7,1.7-1.4,3.6-2.9
			C373.6,355.6,373.6,357.3,373.6,359z"/>
		<path class="st111" d="M277.3,279.1c-2.6-6.1-8.9-8.4-13.5-12.1c-5.8-4.7-11.8-9.4-17.4-14.4c-10.3-9.3-20.7-18.3-33.3-24.4
			c-2.3-1.1-3.2-4.6-6.6-3.6c0-2.1,0.3-4.2-0.1-6.3c-0.5-2.6,0.9-4.4,1.9-6.4c0-0.6,0-1.2,0-1.8c11.6,1.5,19.8,9.3,28.5,15.8
			c16.1,12,30.4,26.3,46.2,38.7c1.3,1.1,2.1,2.6,3.4,3.7c0,0.9,0.2,2.4,0,2.5c-4.1,1.3-4.6,5.4-6,8.4
			C279,279.1,278.2,279.1,277.3,279.1z"/>
		<path class="st41" d="M228.3,328.1c0.6,0,1.2,0,1.8,0c0,0.6,0,1.2,0,1.8C229.5,329.3,228.9,328.7,228.3,328.1z"/>
		<path class="st100" d="M353.6,119.2c0-0.6,0-1.2,0-1.8c0.1-3.7-0.9-7.6,1.8-10.9c0.9,0.5,1.9,1.1,2.9,1.7c0.4-0.4,1-1.1,1.4-1.5
			c1,0.6,2,1.1,2.9,1.7c0,1.8,0,3.6,0,5.4c-0.7,0.5-1.2,1.3-1.8,1.8C359.9,119.6,356.7,119.3,353.6,119.2z"/>
		<path class="st41" d="M279.1,117.4c-0.6,0.6-1.2,1.2-1.8,1.8C277.9,118.6,278.5,118,279.1,117.4z"/>
		<path class="st89" d="M360.9,115.6c0.6-0.6,1.2-1.2,1.8-1.8C362.1,114.4,361.5,115,360.9,115.6z"/>
		<path class="st41" d="M311.8,371.7c0.6,0,1.2,0,1.8,0c-0.6,0.6-1.2,1.2-1.8,1.8C311.8,372.9,311.8,372.3,311.8,371.7z"/>
		<path class="st41" d="M313.6,377.2c0,0.6,0,1.2,0,1.8c-0.5-0.4-1-0.8-1.5-1.2C312.6,377.5,313.1,377.4,313.6,377.2z"/>
		<path class="st41" d="M250.1,128.3c0.6-0.6,1.2-1.2,1.8-1.8C251.3,127.1,250.7,127.7,250.1,128.3z"/>
		<path class="st2" d="M246.4,130.1c0-0.6,0-1.2,0-1.8c0.6,0,1.2,0,1.8,0c0.4,0.4,0.5,0.8,0.4,1.2c-0.1,0.4-0.3,0.6-0.4,0.6
			C247.6,130.1,247,130.1,246.4,130.1z"/>
		<path class="st2" d="M248.2,130.1c0-0.6,0-1.2,0-1.8c0.6,0,1.2,0,1.8,0C249.5,128.9,248.9,129.5,248.2,130.1z"/>
		<path class="st41" d="M230.1,139.2c0.6-0.6,1.2-1.2,1.8-1.8C231.3,138,230.7,138.6,230.1,139.2z"/>
		<path class="st41" d="M382.7,357.2c-0.6,0-1.2,0-1.8,0c0.6-0.6,1.2-1.2,1.8-1.8C382.7,356,382.7,356.6,382.7,357.2z"/>
		<path class="st41" d="M239.2,348.1c-0.6-0.6-1.2-1.2-1.8-1.8C238,346.9,238.6,347.5,239.2,348.1z"/>
		<path class="st41" d="M408.1,133.7c0.6,0,1.2,0,1.8,0c0,0.6,0,1.2,0,1.8C409.3,134.9,408.7,134.3,408.1,133.7z"/>
		<path class="st106" d="M206.5,257.3c14.7,7.8,29.4,15.5,42.9,25.4c7.4,5.5,15.4,10.2,22,16.8c1.2,1.2,2.7,2.2,4.1,3.2
			c0.6,6.3-0.9,11.8-5.4,16.3c-12.3-18.2-32.5-26.1-49.8-37.8c-2.4-1.6-5.6-2.5-6.5-5.8c-0.9-0.8-1.8-1.5-1.3-1.1
			c-3.7-2-0.4-5.8-4.1-6.1c0-0.6,0-1.2,0-1.8C207.7,263.3,207.1,260.3,206.5,257.3z"/>
		<path class="st109" d="M213.7,275.4c9.1,4,16.9,10.2,25.4,15.4c4.6,2.8,9.4,5,13.9,8c7.3,4.8,12.4,11.3,17,18.4
			c0.3,0.4,0,1.2,0,1.8c-1.7,4.7-2.3,9.9-7.3,12.7c-7.2-17.2-24.8-22.8-37.6-33.9c-2.5-2.2-5.6-3.6-7.8-6.1
			c-0.6-1.2-1.2-2.4-1.8-3.6c-1.2-2.4-2.4-4.8-3.6-7.3c-0.5-0.4-0.7-0.8-0.5-1.2c0.2-0.4,0.3-0.6,0.5-0.6c-0.5-0.9-1-1.8-1.7-3.2
			C211.3,275.7,212.5,275.6,213.7,275.4z"/>
		<path class="st41" d="M211.9,279.1c0,0.6,0,1.2,0,1.8c-0.6,0-1.2,0-1.8,0C210.7,280.3,211.3,279.7,211.9,279.1z"/>
		<path class="st2" d="M300.9,108.3c0,0.6,0,1.2,0,1.8c-0.5-0.4-1-0.8-1.5-1.2C299.9,108.7,300.4,108.5,300.9,108.3z"/>
		<path class="st0" d="M328.2,188.2c0,0.6,0,1.2,0,1.8c-1.8,0.6-3.6,1.2-5.4,1.8c-1.8,0.6-3.6,1.2-5.4,1.8
			c-11.2-2.7-20.2-9.4-29-16.5c-0.6-0.6-1.2-1.2-1.7-1.9c-7.7-10.3-12.8-22.3-21.2-32c-1-1.1-1.6-2.5-0.7-4.1
			c0.6-0.6,1.3-1.1,1.8-1.8c2.4-1.2,4.8-2.4,7.3-3.6c3.1,0.1,5.4-1.3,7.3-3.6c1.7,0,3.5,0.2,5.1-0.1c0.8-0.1,1.4-1.1,2.1-1.7
			c3-0.6,6.1-1.2,9.1-1.8c1.8,0,3.6,0,5.4,0c2.1-1.7,4.6-2,7.3-1.8c6.1,0,12.1,0,18.2,0c2.6-0.2,5.1,0.1,7.3,1.8
			c3.7,0.1,7.6-0.9,10.9,1.8c0.6,0,1.2,0,1.8,0c2.1,1.7,4.6,2,7.3,1.8c0.5,0.6,0.9,1.7,1.4,1.7c3,0,2.1,2.1,2.2,3.7
			c0,0.6,0,1.2,0,1.8c-0.6,0.6-1.1,1.4-1.8,1.8c0,0.6,0,1.2,0,1.8c-0.6,0.6-1.2,1.2-1.8,1.8c-0.6,1.2-1.2,2.4-1.8,3.6
			c-2.4,1.8-3.8,4.2-3.6,7.3c-0.9,1.2-1.9,2.4-2.7,3.5c-0.8-0.6-1.7-1.3-3.2-2.4c-2,4-3.8,7.6-5.7,11.4c-1.1,0.1-2.6,0.3-4.4,0.5
			c2.1,3.7,2.2,7.3-0.3,10.7c0.5,0.4,0.6,0.8,0.5,1.2c-0.2,0.4-0.3,0.6-0.5,0.6c-0.6,0.6-1.2,1.2-1.8,1.8c0,0.6,0,1.2,0,1.8
			c-0.6,0.6-1.2,1.2-1.8,1.8C329.4,185.8,328.8,187,328.2,188.2z"/>
		<path class="st2" d="M288,175.7c4.5,1.1,7.2,4.8,10.8,7c5.5,3.3,11.3,6.1,17,9.2c0.6,0.3,1,1.2,1.5,1.8c-1.7,0-3.3,0-5.9,0
			c0.9,2.3,1.6,3.9,2.3,5.4c2.1,2.5,0.7,5.1,0.1,7.6c-1,3.4-2.5,6.6-4,9.7c-0.8,3.4-1.9,6.7-3.4,9.9c-1.2,1.1-0.7,2.8-1.5,4.1
			c-1.4,1.4-0.8,3.6-2.1,5c0,0.6,0,1.2,0,1.8c-0.7,0.5-1.2,1.3-1.8,1.8c0,0.6,0,1.2,0,1.8c-0.7,0.5-1.2,1.3-1.8,1.8
			c-0.6,0.6-1.2,1.2-1.8,1.8c-0.8,0.1-1,0.5-0.7,1.3c0.2,0.4,0.4,0.6,0.7,0.6c-0.6,1.8-1.2,3.6-1.8,5.4c-0.7,0.5-1.2,1.2-1.8,1.8
			c-0.6,0.6-1.2,1.2-1.8,1.8c-0.2,2.7-2.3,1.5-3.6,1.8c-1.2,1.3,0,2.9-0.5,4.2c-0.4,1-0.5,2.2-1.3,3c-1.1,0.9-1.5,3.1-3.6,1.8
			c-9.5-6.3-17.7-14.3-26.4-21.6c-12.6-10.5-24.2-22.3-39.4-29.3c-3.1-1.4-5.8-3.6-8.6-5.4c0-0.6,0-1.2,0-1.8c0.3,0,0.8,0.1,0.8,0
			c1-3,1.9-6,2.8-9.1c0-0.6,0-1.2,0-1.8c2.7-0.2,1.5-2.3,1.8-3.6c2.4-1.8,3.8-4.2,3.6-7.3c0.6-1.8,1.2-3.6,1.8-5.4
			c0.6-0.6,1.2-1.3,1.8-1.8c0.6-0.6,1.2-1.2,1.8-1.8c1.2-1.8,2.4-3.6,3.6-5.4c0-0.6,0-1.2,0-1.8c0.6-0.6,1.2-1.2,1.8-1.8
			c0.6,0,1.2,0,1.8,0c0.7,0.1,1.4,0.3,1.9,0.5c0.7,0.2,0.9-0.1,0.6-0.8c-0.2-0.4-0.3-0.7-0.4-0.7c0,0-0.3-0.8-0.3-0.8
			c0.6-1.2,1.2-2.4,1.8-3.6c0.6-0.6,1.2-1.2,1.8-1.8c0.6-0.6,1.2-1.2,1.8-1.8c0.6-0.6,1.2-1.2,1.8-1.8c0.6,0,1.2,0,1.8,0
			c0.4-0.5,0.8-1.1,1.1-1.8c0.2-0.2,0.5-0.5,0.7-0.7c0.6-0.3,1.2-0.7,1.8-1.1c0.6-1.2,1.2-2.4,1.8-3.6c0.5-0.5,1-0.7,1.7-0.6
			c0.8,0.4,1.3,1.2,2.1,1.4c0.2-0.6,0.3-1.2,0.3-1.8c0.3-1,0.5-2,1.3-2.7c0.6-0.6,1.2-1.2,1.8-1.8c0.1-1.1,1.3-1.1,1.8-1.8
			c1.4-0.3,3.5,0.9,3.6-1.8c0.6,0,1.2,0,1.8,0c0.4-0.8,1.2-1.2,1.8-1.8c0.6,0,1.2,0,1.8,0c7,8.6,13.8,17.3,18.3,27.7
			c0.8,1.8,2.9,3,4,4.7C287.6,172.7,287.8,174.2,288,175.7c-0.2,0.2-0.6,0.6-0.9,1.1C287.4,176.4,287.8,175.9,288,175.7z"/>
		<path class="st103" d="M266.4,137.4c-0.6,0.6-1.2,1.2-1.8,1.8C265.2,138.6,265.8,138,266.4,137.4z"/>
		<path class="st103" d="M262.8,139.2c-0.6,0.6-1.2,1.2-1.8,1.8c0-0.6,0-1.2,0-1.8C261.6,139.2,262.2,139.2,262.8,139.2z"/>
		<path class="st112" d="M368.1,333.6c3.6-2.5,5.5-5.9,5.8-10.3c0-0.2,0.9-0.4,1.4-0.6c2.6,2.5,3.5,5.7,3.8,9.1
			c-0.1,2-0.8,3.8-1.9,5.4c-0.6,0.6-1.3,1.1-1.8,1.8c-0.6,0-1.2,0-1.8,0C370.3,338.6,369.8,335.5,368.1,333.6z"/>
		<path class="st113" d="M368.1,333.6c1.8,1.8,3.6,3.6,5.4,5.4c0,0.6,0,1.2,0,1.8c-1.4,0.3-3.5-0.9-3.6,1.8c-0.6,0-1.2,0-1.8,0
			C368.1,339.6,368.1,336.6,368.1,333.6z"/>
		<path class="st114" d="M377.2,337.2c0-1.8,0-3.6,0-5.4c0.8-0.8,1.1-1.9,1.9-2.5c1-0.5,2-0.5,3-0.2c0.6,0.3,1,0.8,1.3,1.4
			c0.3,1-1,1.4-0.9,2.3c0,0,0.1,0.8,0.1,0.8c0,0.6,0,1.2,0,1.8C380.9,336,379,336.6,377.2,337.2z"/>
		<path class="st43" d="M375.4,339c0.6-0.6,1.2-1.2,1.8-1.8C376.6,337.8,376,338.4,375.4,339z"/>
		<path class="st101" d="M217.4,291.8c5.7,0,9.1,4.4,13.2,7.1c7.3,4.8,13.9,10.6,21.8,14.9c6.4,3.5,10.2,10,10.4,17.9
			c-0.6,1.8-1.2,3.6-1.8,5.4c-1.8-0.6-3.6-1.2-5.4-1.8c-0.7-2.9-2.6-3.9-5.4-3.6c-0.6-0.6-1.2-1.2-1.8-1.8c-1.2-1.2-2.4-2.4-3.6-3.6
			c-0.6-0.6-1.2-1.2-1.8-1.8c-0.6-0.6-1.2-1.2-1.8-1.8c-0.6-0.6-1.2-1.2-1.8-1.8c-0.6-0.6-1.2-1.2-1.8-1.8c-0.2-2.7-2.3-1.5-3.6-1.8
			c0-0.6,0-1.2,0-1.8c-0.6-0.6-1.2-1.2-1.8-1.8c-1.2-1.8-2.4-3.6-3.6-5.4c-0.6,0.6-1.2,0.6-1.8,0c0-0.6,0-1.2,0-1.8
			c-1.2-1.8-2.4-3.6-3.6-5.4c-1.8-1.8-3.6-3.6-5.4-5.4c0-0.6,0-1.2,0-1.8S217.4,292.4,217.4,291.8z"/>
		<path class="st115" d="M379,317.2c0-3.1-0.6-6.4,1.8-9.1c1.1-0.9,1.9-0.2,2.8,0.4c1.2,0.8,2.5,1.4,3.8,2c0.7,0.3,1.4,0.7,2,1.2
			c2.4,2.8,4.8,5.6,5.5,9.4c0,1.3-0.4,2.5-1.4,3.4c-0.6,0.8-1.2,1.6-1.8,2.2c-0.5,0.5-1.2,0.9-1.8,1.4c-3.7,1.2-5-1.9-6.9-3.8
			C380.9,322.4,379.9,319.8,379,317.2z"/>
		<path class="st116" d="M384.5,322.7c1.8,1.8,3.6,3.6,5.4,5.4c0,0.6,0,1.2,0,1.8c-0.6,0.6-1.2,1.2-1.8,1.8
			c-1.4,0.3-3.5-0.9-3.6,1.8c-0.6,0-1.2,0-1.8,0c-0.4-0.4-0.5-0.8-0.4-1.2c0.1-0.4,0.3-0.6,0.4-0.6c0-0.6,0-1.2,0-1.8
			c-2.1-1.3-3.7-2.9-2.8-5.6C380.7,322,382.2,321.2,384.5,322.7z"/>
		<path class="st117" d="M393.6,324.5c0-1.2,0-2.4,0-3.6c2-0.9,2.9,0.2,3.6,1.8c0,0.6,0,1.2,0,1.8c-0.6,0.6-1.2,1.2-1.8,1.8
			C394.8,325.7,394.2,325.1,393.6,324.5z"/>
		<path class="st2" d="M261,337.2c0.6,0.6,1.2,1.2,1.8,1.8c-0.6,0-1.2,0-1.8,0C261,338.4,261,337.8,261,337.2z"/>
		<path class="st41" d="M226.4,308.1c0.6,0,1.2,0,1.8,0c-0.6,0.6-1.2,1.2-1.8,1.8C226.4,309.3,226.4,308.7,226.4,308.1z"/>
		<path class="st41" d="M230.1,148.3c-0.6,0.6-1.2,1.2-1.8,1.8C228.9,149.5,229.5,148.9,230.1,148.3z"/>
		<path class="st2" d="M342.7,351.7c0.6-0.6,1.2-1.2,1.8-1.8c0,0.6,0,1.2,0,1.8C343.9,351.7,343.3,351.7,342.7,351.7z"/>
		<path class="st2" d="M231.9,170.1c-0.6-0.6-1.2-1.2-1.8-1.8c0-0.6,0-1.2,0-1.8c0.6,0,1.2,0,1.8,0
			C233,167.6,232.8,168.9,231.9,170.1z"/>
		<path class="st41" d="M221,179.1c-0.6,0.6-1.2,1.2-1.8,1.8c0-0.6,0-1.2,0-1.8C219.8,179.1,220.4,179.1,221,179.1z"/>
		<path class="st41" d="M248.2,150.1c-0.6,0-1.2,0-1.8,0c-0.6,0-1.2,0-1.8,0c0-0.6,0-1.2,0-1.8c0.6,0,1.2,0,1.8,0c0.6,0,1.2,0,1.8,0
			c0.4,0.4,0.5,0.8,0.4,1.2C248.5,149.9,248.4,150.1,248.2,150.1z"/>
		<path class="st118" d="M244.6,153.7c-0.6,0.6-1.2,1.2-1.8,1.8c-0.5-0.4-0.7-0.8-0.5-1.2c0.2-0.4,0.3-0.6,0.5-0.6
			C243.4,153.7,244,153.7,244.6,153.7z"/>
		<path class="st41" d="M255.5,142.8c-0.6,0.6-1.2,1.2-1.8,1.8c-0.6,0-1.2,0-1.8,0c0-0.6,0-1.2,0-1.8c0.6,0,1.2,0,1.8,0
			S254.9,142.8,255.5,142.8z"/>
		<path class="st119" d="M397.2,322.7c-1.2-0.6-2.4-1.2-3.6-1.8c-1.8-3-3.6-6.1-5.4-9.1c-1.9-2.1-2.4-4.6-2.1-7.3
			c1.2-3.8,1.2-8.9,7.6-7.2c0.1,6.8,3.4,11.9,8.3,16.3c0.5,0.4,1.7,0.1,2.6,0.1c0,0.6,0,1.2,0,1.8s0,1.2,0,1.8
			c-0.6,0.6-1.2,1.2-1.8,1.8c-0.6,0.6-1.2,1.2-1.8,1.8c-0.6,0.6-1.2,1.2-1.8,1.8C398.4,322.7,397.8,322.7,397.2,322.7z"/>
		<path class="st120" d="M248.2,150.1c0-0.6,0-1.2,0-1.8c0.6-0.6,1.2-1.2,1.8-1.8c0.6,0,1.2,0,1.8,0c0,1.2,0,2.4,0,3.6
			c-1.1,1-0.3,2.9-1.8,3.6C247.3,153.6,248.5,151.5,248.2,150.1z"/>
		<path class="st24" d="M242.8,153.7c0,0.6,0,1.2,0,1.8c-0.6,0.6-1.2,0.6-1.8,0c0-0.6,0-1.2,0-1.8
			C241.6,153.7,242.2,153.7,242.8,153.7z"/>
		<path class="st118" d="M241,155.5c0.6,0,1.2,0,1.8,0c-0.6,0.6-1.2,1.2-1.8,1.8C241,156.7,241,156.1,241,155.5z"/>
		<path class="st10" d="M279.1,362.6c-0.6,0.6-1.2,1.2-1.8,1.8c0-0.6,0-1.2,0-1.8C277.9,362.6,278.5,362.6,279.1,362.6z"/>
		<path class="st121" d="M371.8,253.6c3.4-0.1,5.7,2.1,8.4,3.6c3.9,2.2,9.2,8.1,12,10.1c4.4,3.1,3.1,7.9,4.8,11.7
			c1.7,3.9,0.1,8.5-3.3,11.9c-0.5,0.5-0.1,1.7-0.1,2.6c-6.6-2.4-6.2-8.7-7.9-13.9c2.1-2.3,0.9-5.5,2.2-7.8c-1.7,1.3,0,3.8-1.3,5.4
			c-0.8,0.6-1.5,0.5-2.1-0.1c0.6-10.1-3.7-17.3-12.7-21.8c-0.5-0.4-0.7-0.8-0.5-1.2C371.4,253.8,371.6,253.6,371.8,253.6z"/>
		<path class="st122" d="M288.2,317.2c-0.2-2.6,0.8-4.9,1.6-7.3c0.8-2.3,0.3-5.1,2-7.2c5.6-1.4,9.7,0.9,12.7,5.4c0,2,0,4,0,6.6
			c-3.9,1-2.2,6.1-5.4,8C293.2,325.5,290.8,321,288.2,317.2z"/>
		<path class="st122" d="M324.5,239.1c-0.3,4,2.5,5.7,5.4,7.3c0.6,0.6,1.2,1.3,1.8,1.8c-0.9,4.7-2.6,6.3-7.3,7.3
			c-4.7-2.4-9.9-4-12.7-9.1c0.2-4.4,2.6-7.8,5.4-10.9C321,234,321.9,238.3,324.5,239.1z"/>
		<path class="st123" d="M386.3,279.1c1.2,2.5,1.9,5.6,3.8,7.4c2.3,2.1,0,6,3.5,7.2c0,1.2,0,2.4,0,3.6c-0.9,0-1.7,0-3.1,0
			c-0.8,2.3-1.6,4.8-2.4,7.3c-0.7,0.6-1.4,0.7-2.2,0.3c-1.3-1.1-2.1-2.6-2.7-4.1c-0.3-2.4-1.4-4.6-0.6-7.1
			c0.6-5.4,1.2-10.9,1.8-16.3c0.6,0,1.2,0,1.8,0c0.5,0.4,0.7,0.8,0.5,1.2C386.6,278.9,386.5,279.1,386.3,279.1z"/>
		<path class="st124" d="M304.6,308.1c-4.2-1.8-8.5-3.6-12.7-5.4c0.8-4.1,1.2-8.4,4.7-11c2.6,2.7,4.8,5.1,8,8.5
			C304.6,301.5,304.6,304.8,304.6,308.1z"/>
		<path class="st125" d="M288.2,317.2c3.7,1.7,6.2,5.7,10.9,5.4c-0.8,1.1-1.6,2.3-2.5,3.4c-2.8,3.1-5.6,6.2-8.4,9.3
			c-1.5-0.9-3.4-1.5-3.6-3.6c-0.3-4.1,1.7-7.6,3-11.2C288,319.5,288,318.3,288.2,317.2z"/>
		<path class="st126" d="M311.8,246.4c4.5,2.6,9.7,4.4,12.7,9.1c-1.9-0.2-3.5,0.1-4.5,1.8c-1.1,1.7-2.7,2.1-4.5,1.8
			c-1.2,1.1-2.4,1.1-3.6,0C311.8,254.8,311.8,250.6,311.8,246.4z"/>
		<path class="st127" d="M382.7,293.6c1.7,2.1,2,4.6,1.8,7.3c0.2,3.2,4.3,7.2-1.8,9.1c-0.6-0.6-1.2-1.2-1.8-1.8
			c0-4.1-0.1-8.2,0.1-12.3C381,295.1,382.1,294.3,382.7,293.6z"/>
		<path class="st128" d="M324.5,239.1c-1.3-0.4-2.7-0.6-3.9-1.2c-1.2-0.6-2.3-1.6-3.4-2.4c-0.1-3.3,1.7-5.4,4.1-8.3
			C324,231.4,321.1,236.1,324.5,239.1z"/>
		<path class="st129" d="M308.2,215.5c1.2-3,2.4-6.1,3.6-9.1c2-1,3.8-1.6,3.6,1.8c0.1,3.1-1.3,5.4-3.6,7.3
			C310.6,216.5,309.4,216.5,308.2,215.5z"/>
		<path class="st130" d="M315.5,208.2c-0.2-2.7-2.3-1.5-3.6-1.8c0.2-1.1,0.3-2.2,0.6-3.3c0.3-1.3,0.8-2.6,1.2-4
			c2.7-0.5,4.3,1,5.7,3.7C318.2,204.5,316.8,206.4,315.5,208.2z"/>
		<path class="st108" d="M280.7,326.3c-2.3-4.5-1.3-6.3,0-8.4c0.9-1.4,0.2-3.9,0.2-6c1.4,0,2.2,0,3.5,0
			C285.1,316.8,282,320.3,280.7,326.3z"/>
		<path class="st131" d="M384.5,322.7c-1.1,0-2.1,0-4.3,0c1,2.9,1.8,5.1,2.5,7.3c-1.2,0-2.4,0-3.6,0c-2.6-2.6-0.9-6.1-1.8-9.1
			c0.6-1.2,1.2-2.4,1.8-3.6C380.9,319,382.7,320.8,384.5,322.7z"/>
		<path class="st132" d="M377.2,320.8c0.6,0.7,1.7,1.4,1.7,2.2c0.2,2.3,0.1,4.6,0.1,6.9c-0.6,0.6-1.2,1.2-1.8,1.8
			c-0.6-3-1.2-6.1-1.8-9.1C376,322,376.6,321.4,377.2,320.8z"/>
		<path class="st133" d="M308.2,215.5c1.2,0,2.4,0,3.6,0c-1.2,3.2-2.4,6.4-3.7,9.6c-0.2,0.6-1.2,0.9-1.8,1.3
			C307,222.7,307.6,219.1,308.2,215.5z"/>
		<path class="st134" d="M284.6,331.7c1.2,1.2,2.4,2.4,3.6,3.6c-1.2,0.6-2.4,1.2-3.6,1.8c0,0-0.7-0.2-0.7-0.2c-0.4-0.2-0.7-0.6-1-1
			c0,0-0.1-0.7-0.1-0.7C283,334,281.9,331.9,284.6,331.7z"/>
		<path class="st135" d="M297.3,246.4c-0.9,0-1.7,0-3.2,0c-0.2-1.7-0.3-3.4-0.7-7.2c2.1,2.9,3,4.1,3.9,5.3
			C297.3,245.1,297.3,245.8,297.3,246.4z"/>
		<path class="st136" d="M286.4,260.9c0.3-1.4-0.9-3.5,1.8-3.6c0.4,0.7,0.7,1.4,1.1,2c1.1,1.6,1.4,3-1.1,3.4
			C287.1,262.6,287.1,261.4,286.4,260.9z"/>
		<path class="st137" d="M302.7,235.5c0.7-1.8-1.7-4.6,1.8-5.4c0.6-0.9,1.2-0.9,1.8,0C305.2,231.8,304,233.6,302.7,235.5z"/>
		<path class="st138" d="M371.8,253.6c0,0.6,0,1.2,0,1.8c-1.2-1.2-2.4-2.4-3.6-3.6C369.5,252.1,371.6,250.9,371.8,253.6z"/>
		<path class="st139" d="M311.8,259.1c1.2,0,2.4,0,3.6,0c0,0.6,0,1.2,0,1.8c-0.7,0.5-1.3,1.1-1.8,1.8
			C310.9,262.6,312.1,260.5,311.8,259.1z"/>
		<path class="st140" d="M282.8,266.3c1.2-0.6,2.4-1.2,3.6-1.8c0,1.2,0,2.4,0,3.6C285,267.9,282.9,269.1,282.8,266.3z"/>
		<path class="st141" d="M286.4,306.3c-0.5,2.6-2.2,2.4-3.4,1c-0.8-1-0.6-2.7,1.6-2.8c0,0,0.8,0.3,0.8,0.3
			C285.6,305.4,285.9,305.9,286.4,306.3z"/>
		<path class="st142" d="M280.9,339c0.3-1.4-0.9-3.5,1.8-3.6c0.5,0.7,1.1,1.3,1.8,1.8C284.4,339.9,282.3,338.7,280.9,339z"/>
		<path class="st141" d="M306.4,230c-0.6,0-1.2,0-1.8,0c0.3-1.4-0.9-3.5,1.8-3.6C306.4,227.6,306.4,228.8,306.4,230z"/>
		<path class="st118" d="M286.4,260.9c0.6,0.6,1.2,1.2,1.8,1.8c-0.6,0.6-1.2,1.2-1.8,1.8C286.4,263.3,286.4,262.1,286.4,260.9z"/>
		<path class="st141" d="M284.6,304.5c0.3-1.4-0.9-3.5,1.8-3.6c0,1.2,0,2.4,0,3.6C285.8,305,285.2,305,284.6,304.5z"/>
		<path class="st141" d="M281,340.4c-1.2,0.1-2.3,0.2-3.5,0.3c-0.1-0.4-0.1-0.8-0.2-1.2c1.2-0.2,2.4-0.5,3.6-0.7
			C280.9,339.4,281,339.9,281,340.4z"/>
		<ellipse class="st143" cx="320" cy="225.5" rx="1.3" ry="0.4"/>
		<path class="st108" d="M300.9,239.1c0.6-0.6,1.2-1.2,1.8-1.8C302.1,237.9,301.5,238.5,300.9,239.1z"/>
		<path class="st108" d="M299.1,242.7c0.6-0.6,1.2-1.2,1.8-1.8C300.3,241.5,299.7,242.1,299.1,242.7z"/>
		<path class="st144" d="M331.8,248.2c-0.6-0.6-1.2-1.2-1.8-1.8C330.6,247,331.2,247.6,331.8,248.2z"/>
		<path class="st141" d="M364.5,250c0.6,0.6,1.2,1.2,1.8,1.8C365.7,251.2,365.1,250.6,364.5,250z"/>
		<path class="st108" d="M293.7,253.6c0.6-0.6,1.2-1.2,1.8-1.8C294.9,252.4,294.3,253,293.7,253.6z"/>
		<path class="st140" d="M291.8,255.4c0.6-0.6,1.2-1.2,1.8-1.8C293.1,254.2,292.4,254.8,291.8,255.4z"/>
		<path class="st126" d="M313.6,262.7c0.6-0.6,1.2-1.2,1.8-1.8C314.9,261.5,314.2,262.1,313.6,262.7z"/>
		<ellipse class="st108" cx="298.2" cy="280" rx="0.4" ry="1.3"/>
		<path class="st143" d="M286.2,300.7c0.4-0.5,0.8-1,1.3-1.5c0.2,0.2,0.4,0.4,0.6,0.6c-0.5,0.4-1,0.8-1.5,1.3
			C286.4,300.9,286.3,300.8,286.2,300.7z"/>
		<path class="st139" d="M284.6,304.5c0.6,0,1.2,0,1.8,0c0,0.6,0,1.2,0,1.8C285.8,305.7,285.2,305.1,284.6,304.5z"/>
		<path class="st105" d="M333.6,179.1c0-0.6,0-1.2,0-1.8c0.6,0.6,1.2,1.2,1.8,1.8C334.8,179.1,334.2,179.1,333.6,179.1z"/>
		<path class="st108" d="M357.2,139.2c0.6-0.6,1.2-1.2,1.8-1.8c0,0.6,0,1.2,0,1.8C358.5,139.2,357.8,139.2,357.2,139.2z"/>
		<path class="st88" d="M366.3,359c0.6,0.6,1.2,1.2,1.8,1.8C367.5,360.2,366.9,359.6,366.3,359z"/>
		<path class="st145" d="M213,204c2.3-1.2,3.9-2,5.6-2.8c0.4,5.3,0.4,5.3-2.4,9.2C215,208.1,214,206.1,213,204z"/>
		<path class="st146" d="M238.8,183c0.8,1,1.4,1.6,2.1,2.5c-0.7,0.8-1.5,1.6-2.6,2.8c-0.8-0.8-1.8-1.4-2.2-2.2
			c-1.4-3.6-1.2-4,5.2-7.7C240.2,180.5,239.7,181.4,238.8,183z"/>
		<path class="st147" d="M287.9,175.5c0,2.3,0,4.7,0,7.9c-2-1.1-3.4-1.8-5-2.7c0.9-1.9,1.7-3.5,2.5-5.2
			C286.4,175.5,287.3,175.5,287.9,175.5z"/>
		<path class="st148" d="M249.2,225.3c2.2,1.8,3.6,2.9,6.3,5.2c-2.3,0.8-3.8,1.3-6,2C248.2,232,247.6,229.7,249.2,225.3z"/>
		<path class="st149" d="M275.4,176c5-1.9,3.1,3.5,5.7,4.1c-1.4,1.1-2.7,2.1-5.1,3.9C275.8,180.5,275.6,178.2,275.4,176z"/>
		<path class="st150" d="M247.6,178.7c1.5,1.1,3,2.1,5,3.5c-1.3,1.6-2.3,2.9-3.3,4.2C246.9,184.4,244.8,182.4,247.6,178.7z"/>
		<path class="st151" d="M250.4,216.5c-2,1.5-3.2,2.3-5.3,3.8c-0.3-3.4-0.4-5.7-0.6-7.8C249.6,210.5,247.6,215.9,250.4,216.5z"/>
		<path class="st152" d="M231,206.5c-0.9-0.9-1.7-1.7-2.8-2.8c0.1-1.4,0.3-3,0.5-5.6c2.3,1.7,3.8,2.8,5.7,4.3
			C233.1,203.9,232.1,205.2,231,206.5z"/>
		<path class="st153" d="M266.7,196.1c-1.2,1.2-2.1,2.1-3.5,3.5c-1-2.5-1.9-4.6-2.8-6.8C264.7,190.7,265.5,193.2,266.7,196.1z"/>
		<path class="st149" d="M283.2,201.1c4.4,3.3,2.7,6,3,8.6c-0.8,0.2-1.7,0.3-3,0.6C283.2,207.6,283.2,205.2,283.2,201.1z"/>
		<path class="st154" d="M263.6,244.9c-1.6-3.3-1.1-5.6,2-7.3c0.7,1.2,1.5,2.7,2.6,4.7C266.8,243,265.3,243.9,263.6,244.9z"/>
		<path class="st155" d="M244.3,202.6c-1.1,0-1.9,0-3,0c0-2.4,0-4.6,0-7c1.1,0,1.9,0,3,0C244.3,198,244.3,200.2,244.3,202.6z"/>
		<path class="st155" d="M255.9,201.1c-2.7-0.2-4.3-0.3-7.4-0.6c2.3-2.5,3.7-4,6.1-6.5C255.2,196.9,255.4,198.5,255.9,201.1z"/>
		<path class="st156" d="M231.9,170.1c0-1.2,0-2.4,0-3.6c1.8,0.6,3.6,1.2,5.5,1.8c-1,2.1-1.7,3.6-2.7,5.7
			C233.7,172.5,232.8,171.3,231.9,170.1z"/>
		<path class="st157" d="M271.9,222.7c0.7,0.4,1.3,0.7,2.5,1.4c-1.3,1.6-2.3,2.9-3.4,4.2c-0.9-0.9-1.7-1.7-2.6-2.6
			c0.2-1.7-1.8-4.1,1.6-4.8C270.7,221.5,270.6,222.8,271.9,222.7z"/>
		<path class="st158" d="M260.1,208.9c-1.3,2.6-2.3,4.6-3.3,6.6c-0.3-0.1-0.7-0.3-1-0.4c0-2.2,0-4.4,0-7.1
			C257.2,208.3,258.2,208.5,260.1,208.9z"/>
		<path class="st158" d="M279.4,192.8c0-1.4,0-2.8,0-4.4c1.1,0,1.9,0,3,0c0,2.3,0,4.5,0,6.7c-0.3,0.2-0.5,0.4-0.8,0.6
			c-0.4-1.4-0.8-2.9-1.1-4.3C280.2,191.9,279.8,192.3,279.4,192.8z"/>
		<path class="st159" d="M273.7,195.5c0,1.1,0,2.2,0,3.8c-4.8-4.7-4.8-4.7,0-9.5c0,1.6,0,2.7,0,3.8
			C273.5,194.3,273.5,194.9,273.7,195.5z"/>
		<path class="st160" d="M263.6,213c1.3-2.6,2.3-4.6,3.3-6.6c0.3,0.1,0.7,0.3,1,0.4c0,2.2,0,4.4,0,7.1
			C266.5,213.5,265.5,213.3,263.6,213z"/>
		<path class="st161" d="M269.7,181.8c-1.3-0.5-2.7-1.1-4.1-1.7c-0.1-0.6-0.1-1.2-0.2-1.8c1.5-0.5,3-1,4.2-1.5
			c0.1,0.2,0.9,1.6,2,3.8C271,181,269.8,181.7,269.7,181.8z"/>
		<path class="st162" d="M224.6,190c-4.1-1.4-0.1-4.6-2.9-7c3.6,0,5.8,0,8.2,0c-0.4,0.7-0.5,1.2-0.8,1.5c-0.1,0.1-0.6,0-0.9,0
			c-0.7,0.7-1.3,1.4-1.6,2.3c-0.2,0.6-0.4,1.2-0.7,1.8C225.6,189.2,225.1,189.7,224.6,190z"/>
		<path class="st163" d="M299.7,191.7c-2,0-2.8,0-3.9,0c0-1.7,0-3.3,0-5.1C301.2,186.1,298.2,189.7,299.7,191.7z"/>
		<path class="st164" d="M290.6,220.8c-2,0-2.8,0-3.9,0c0-1.7,0-3.3,0-5.1C292.1,215.2,289.1,218.8,290.6,220.8z"/>
		<path class="st165" d="M260.3,146.1c1.4,0.8,2.7,1.7,5.1,3.1c-1.9,0.6-3.3,1-4.6,1.4c-0.1-0.1-1-1.7-1.9-3.2
			C259.3,147,259.8,146.5,260.3,146.1z"/>
		<path class="st166" d="M267.2,166.3c-2.2,0-3,0-4.1,0c0-2.4,0-4.6,0-8.4C264.8,161.3,265.8,163.3,267.2,166.3z"/>
		<path class="st167" d="M275.2,166.3c-1.1,0-1.9,0-3,0c0-1.8,0-3.4,0-5.1c1.1,0,1.9,0,3,0C275.2,162.9,275.2,164.5,275.2,166.3z"/>
		<path class="st168" d="M257.3,162.8c0,0.6,0,1.2,0,1.8c0.4,0.4,0.5,0.8,0.4,1.2c-0.1,0.4-0.3,0.6-0.4,0.6c-1,0.6-1.9,1.1-2.9,1.7
			c-0.8-0.8-1.6-1.6-2.4-2.4c0.6-1,1.1-1.9,1.7-2.9C254.9,161.8,256.1,161.8,257.3,162.8z"/>
		<path class="st169" d="M242.8,166.4c0.8-0.7,1.7-1.4,3.3-2.8c0,2.7,0,4.3,0,6.1c-1.7,0-3.3,0-6.4,0c1.9-0.9,2.5-1.2,3.1-1.5
			c0.4-0.4,0.6-0.8,0.4-1.2C243.1,166.6,242.9,166.4,242.8,166.4z"/>
		<path class="st170" d="M277.3,206.4c0.7,0.9,1.4,1.7,2.7,3.3c-2.6,0-4,0-5.6,0c-0.5-1.7-2.2-3.8,1.1-5.2
			C276.1,205.2,276.1,206.4,277.3,206.4z"/>
		<path class="st171" d="M259.5,224.7c1.1,0,1.9,0,3,0c0,1.8,0,3.4,0,5.1c-1.1,0-1.9,0-3,0C259.5,228.1,259.5,226.5,259.5,224.7z"/>
		<path class="st172" d="M275.5,239.1c0,1.1,0,2.2,0,3.7c-3.7-1.7-4.3-4-2.9-7.9c1.2,1,2.1,1.7,2.9,2.4c-0.5,0.4-0.6,0.8-0.5,1.2
			C275.2,238.9,275.3,239.1,275.5,239.1z"/>
		<path class="st173" d="M285.2,246.5c0.8,0,1.6,0,2.7,0c0,1.7,0,3.3,0,5C284.8,251,284.8,251,285.2,246.5z"/>
		<path class="st174" d="M275.6,255.7c0-2.3,0-3.7,0-5.3c0.9-0.2,1.7-0.3,3.1-0.6c0.1,1.8,0.3,3.4,0.4,5.3
			C278.1,255.2,277.2,255.4,275.6,255.7z"/>
		<path class="st175" d="M297,219.3c-1.4-0.3-2.4-0.5-4.2-0.8c1.5-2,2.5-3.4,4.2-5.7C297,215.6,297,217.2,297,219.3z"/>
		<path class="st0" d="M237.3,215.5c2.1,0,2.2,1.6,1.6,2.8c-0.5,1-1.7,1.8-2.7,2.8c-0.4-1-0.6-1.5-0.7-2
			C234.3,217,234.1,215.4,237.3,215.5z"/>
		<path class="st176" d="M300.9,230c-0.9,0.7-1.8,1.4-3.3,2.7c0-2.8,0-4.4,0-7.2c1.6,1.3,2.5,2,3.3,2.7c-0.5,0.4-0.6,0.8-0.5,1.2
			C300.6,229.8,300.8,230,300.9,230z"/>
		<path class="st177" d="M284.6,235.5c-0.9,0.7-1.8,1.4-3.3,2.7c0-2.8,0-4.4,0-7.2c1.6,1.3,2.5,2,3.3,2.7c-0.5,0.4-0.6,0.8-0.5,1.2
			C284.3,235.3,284.4,235.5,284.6,235.5z"/>
		<path class="st139" d="M306.5,199.8c0-2.7,0-4.1,0-5.5c2.1,0.4,3.6,1.1,3.5,4.1C309.3,198.7,308.3,199,306.5,199.8z"/>
		<path class="st178" d="M302.7,202.8c-0.9,0.7-1.8,1.4-3.3,2.7c0-2.8,0-4.4,0-7.2c1.6,1.3,2.5,2,3.3,2.7c-0.5,0.4-0.6,0.8-0.5,1.2
			C302.4,202.6,302.6,202.8,302.7,202.8z"/>
		<path class="st160" d="M261,181c0,0.9,0,1.8,0,3.1c-0.9,0.2-1.9,0.4-3.6,0.7c0-2.2,0-3.9,0-5.7C259.4,177.9,259.9,180,261,181z"/>
		<path class="st179" d="M280.9,222.7c-0.9,0.7-1.7,1.4-3.3,2.7c0-2.8,0-4.4,0-7.2c1.6,1.3,2.5,2,3.3,2.7c-0.5,0.4-0.6,0.8-0.5,1.2
			C280.6,222.5,280.8,222.7,280.9,222.7z"/>
		<path class="st180" d="M302.7,215.5c-3.4-0.5-1.3-3-1.7-4.7c1.6-1.1,3-1.6,3.5,1.1C303.4,212.8,303.8,214.5,302.7,215.5z"/>
		<path class="st181" d="M250.1,153.7c0.3-1.4-0.9-3.5,1.8-3.6c0.5,0.9,1.1,1.9,1.2,2.1c-0.6,1.2-1.2,2.4-2,4
			C250.4,154.7,250.3,154.2,250.1,153.7z"/>
		<path class="st160" d="M293.7,231.8c-1.2,1.2-2.4,2.4-3.6,3.6c-0.4-0.4-0.5-0.8-0.4-1.2c0.1-0.4,0.3-0.6,0.4-0.6
			c0.3-1.4-0.9-3.5,1.8-3.6C292.4,230.7,293,231.2,293.7,231.8z"/>
		<path class="st182" d="M237.3,215.5c-2.7,0.2-1.5,2.3-1.8,3.6c-3.4-0.5-1.3-3-1.7-4.7C235.4,213.3,236.8,212.8,237.3,215.5z"/>
		<path class="st183" d="M224.6,190c0-0.6,0-1.2,0-1.8c1.2-1.1,2.4-1.1,3.6,0c0,1.1,0,2.1,0,3.7C226.7,191.1,225.7,190.6,224.6,190z
			"/>
		<path class="st160" d="M228.3,188.2c-1.2,0-2.4,0-3.6,0c0-0.6,0-1.2,0-1.8c1.2-1,2.4-1.2,3.6,0c0.5,0.4,1,0.8,1.5,1.2
			C229.3,187.8,228.8,188,228.3,188.2z"/>
		<path class="st184" d="M261,181c-1.2-0.6-2.4-1.2-3.6-1.8c0.9-0.7,1.7-1.4,3.6-2.9C261,178.7,261,179.9,261,181z"/>
		<path class="st185" d="M257.3,162.8c-1.2,0-2.4,0-3.6,0c-0.6-0.3-1.2-0.5-2.8-1.3C254,161.3,256.3,159.4,257.3,162.8z"/>
		<path class="st186" d="M293.7,204.6c-0.5,2.6-2.2,2.4-3.4,1c-0.8-1-0.6-2.7,1.6-2.8C292.9,203,293.5,203.6,293.7,204.6z"/>
		<path class="st187" d="M290,188.2c2.5,1.8,2.5,3.6,0,5.4C288.6,191.9,288.6,190,290,188.2z"/>
		<path class="st0" d="M290,188.2c0,1.8,0,3.6,0,5.4c-0.6,0-1.2,0-1.8,0c-1.2-1.8-1.2-3.6,0-5.4C288.8,188.2,289.4,188.2,290,188.2z
			"/>
		<path class="st187" d="M288.2,188.2c0,1.8,0,3.6,0,5.4C285.7,191.9,285.7,190.1,288.2,188.2z"/>
		<path class="st0" d="M271.9,222.7c-0.2,0.5-0.4,1-1,2.6c-0.4-2.1-0.6-3.3-0.8-4.4C270.6,221.5,271.3,222.1,271.9,222.7z"/>
		<path class="st188" d="M302.7,215.5c0.3-1.4-0.9-3.5,1.8-3.6C304.3,213.2,305.5,215.3,302.7,215.5z"/>
		<path class="st0" d="M277.3,206.4c-0.2,0.5-0.4,1-1,2.6c-0.4-2.1-0.6-3.3-0.8-4.4C276.1,205.2,276.7,205.8,277.3,206.4z"/>
		<path class="st160" d="M293.7,204.6c-0.6-0.6-1.2-1.2-1.8-1.8c0-0.6,0-1.2,0-1.8c0.6-0.5,1.2-0.5,1.8,0
			C294.7,202.2,294.7,203.4,293.7,204.6z"/>
		
			<ellipse transform="matrix(0.2984 -0.9544 0.9544 0.2984 6.2962 397.7366)" class="st160" cx="273.7" cy="194.6" rx="0.9" ry="1.6"/>
		<path class="st189" d="M293.7,204.6c0-1.2,0-2.4,0-3.6c0.6,0.8,1.2,1.5,1.8,2.3C294.9,203.7,294.3,204.1,293.7,204.6z"/>
		<path class="st183" d="M228.3,186.4c-1.2,0-2.4,0-3.6,0c0.2-2.7,2.3-1.5,3.6-1.8C228.3,185.2,228.3,185.8,228.3,186.4z"/>
		<path class="st163" d="M300.9,230c-0.5-0.4-1-0.8-1.5-1.2c0.5-0.2,1-0.4,1.5-0.6C300.9,228.8,300.9,229.4,300.9,230z"/>
		<path class="st190" d="M293.7,231.8c-0.6-0.6-1.2-1.2-1.8-1.8C292.4,230.6,293.1,231.2,293.7,231.8z"/>
		<path class="st139" d="M284.6,235.5c-0.5-0.4-1-0.8-1.5-1.2c0.5-0.2,1-0.4,1.5-0.6C284.6,234.2,284.6,234.9,284.6,235.5z"/>
		<path class="st190" d="M290,233.6c0,0.6,0,1.2,0,1.8c-0.5-0.4-1-0.8-1.5-1.2C289,234,289.5,233.8,290,233.6z"/>
		<path class="st160" d="M275.5,239.1c-0.5-0.4-1-0.8-1.5-1.2c0.5-0.2,1-0.4,1.5-0.6C275.5,237.9,275.5,238.5,275.5,239.1z"/>
		<path class="st185" d="M257.3,166.4c0-0.6,0-1.2,0-1.8c0.5,0.4,1,0.8,1.5,1.2C258.3,166,257.8,166.2,257.3,166.4z"/>
		<path class="st160" d="M242.8,166.4c0.5,0.4,1,0.8,1.5,1.2c-0.5,0.2-1,0.4-1.5,0.6C242.8,167.6,242.8,167,242.8,166.4z"/>
		<path class="st140" d="M264.4,191.7c0.4-0.5,0.8-1,1.3-1.5c0.2,0.2,0.4,0.4,0.6,0.6c-0.5,0.4-1,0.8-1.5,1.3
			C264.6,191.9,264.5,191.8,264.4,191.7z"/>
		<path class="st189" d="M293.7,200.9c-0.6,0-1.2,0-1.8,0c0.4-0.5,0.8-1,1.2-1.5C293.3,199.9,293.5,200.4,293.7,200.9z"/>
		<path class="st163" d="M302.7,202.8c-0.5-0.4-1-0.8-1.5-1.2c0.5-0.2,1-0.4,1.5-0.6C302.7,201.5,302.7,202.2,302.7,202.8z"/>
		<path class="st160" d="M280.9,222.7c-0.5-0.4-1-0.8-1.5-1.2c0.5-0.2,1-0.4,1.5-0.6C280.9,221.5,280.9,222.1,280.9,222.7z"/>
		<path class="st144" d="M382.7,331.7c0,0.6,0,1.2,0,1.8c-0.5-0.4-1-0.8-1.5-1.2C381.7,332.1,382.2,331.9,382.7,331.7z"/>
		<path class="st191" d="M382.7,309.9c0.6-0.7,1.7-1.4,1.7-2.2c0.2-2.3,0.1-4.6,0.1-6.9c2.7,0.2,1.5,2.3,1.8,3.6
			c1.3,2.4,1.3,4.8,0,7.3C384.9,311.5,382.8,312.7,382.7,309.9z"/>
		<ellipse class="st192" cx="387.2" cy="308.1" rx="1.3" ry="5.1"/>
		<path class="st193" d="M386.3,279.1c0-0.6,0-1.2,0-1.8c0-2.3,0-4.5,0-8C388.6,275.3,388.6,275.3,386.3,279.1z"/>
		<path class="st0" d="M284.6,337.2c-0.6-0.6-1.2-1.2-1.8-1.8C283.4,336,284,336.6,284.6,337.2z"/>
	</g>
</g>
</svg>
